<?xml version="1.0" encoding="UTF-8" standalone="no"?>
<!DOCTYPE svg PUBLIC "-//W3C//DTD SVG 1.1//EN"
 "http://www.w3.org/Graphics/SVG/1.1/DTD/svg11.dtd">
<!-- Generated by graphviz version 2.38.0 (20140413.2041)
 -->
<!-- Title: AstropyCoordinateTransformGraph Pages: 1 -->
<svg width="1089pt" height="498pt"
 viewBox="0.00 0.00 1088.51 497.56" xmlns="http://www.w3.org/2000/svg" xmlns:xlink="http://www.w3.org/1999/xlink">
<g id="graph0" class="graph" transform="scale(1 1) rotate(0) translate(4 493.558)">
<title>AstropyCoordinateTransformGraph</title>
<polygon fill="white" stroke="none" points="-4,4 -4,-493.558 1084.51,-493.558 1084.51,4 -4,4"/>
<!-- BarycentricTrueEcliptic -->
<g id="node1" class="node"><title>BarycentricTrueEcliptic</title>
<ellipse fill="none" stroke="black" cx="650.82" cy="-468.345" rx="84.7059" ry="21.4286"/>
<text text-anchor="middle" x="650.82" y="-471.345" font-family="Helvetica Neue, Helvetica, Arial, sans-serif" font-size="10.00">BarycentricTrueEcliptic</text>
<text text-anchor="middle" x="650.82" y="-460.345" font-family="Helvetica Neue, Helvetica, Arial, sans-serif" font-size="10.00">`barycentrictrueecliptic`</text>
</g>
<!-- ICRS -->
<g id="node2" class="node"><title>ICRS</title>
<ellipse fill="none" stroke="black" cx="650.82" cy="-378.919" rx="28.0702" ry="21.4286"/>
<text text-anchor="middle" x="650.82" y="-381.919" font-family="Helvetica Neue, Helvetica, Arial, sans-serif" font-size="10.00">ICRS</text>
<text text-anchor="middle" x="650.82" y="-370.919" font-family="Helvetica Neue, Helvetica, Arial, sans-serif" font-size="10.00">`icrs`</text>
</g>
<!-- BarycentricTrueEcliptic&#45;&gt;ICRS -->
<g id="edge1" class="edge"><title>BarycentricTrueEcliptic&#45;&gt;ICRS</title>
<path fill="none" stroke="black" d="M640.003,-447.253C637.461,-441.557 635.117,-435.24 633.82,-429.132 632.356,-422.241 633.359,-414.984 635.463,-408.223"/>
<polygon fill="black" stroke="black" points="638.777,-409.36 639.173,-398.773 632.261,-406.802 638.777,-409.36"/>
<text text-anchor="middle" x="640.82" y="-421.132" font-family="Helvetica Neue, Helvetica, Arial, sans-serif" font-size="10.00">1.0</text>
</g>
<!-- ICRS&#45;&gt;BarycentricTrueEcliptic -->
<g id="edge41" class="edge"><title>ICRS&#45;&gt;BarycentricTrueEcliptic</title>
<path fill="none" stroke="black" d="M650.82,-400.389C650.82,-411.267 650.82,-424.853 650.82,-436.939"/>
<polygon fill="black" stroke="black" points="647.32,-437.068 650.82,-447.068 654.32,-437.068 647.32,-437.068"/>
<text text-anchor="middle" x="657.82" y="-421.132" font-family="Helvetica Neue, Helvetica, Arial, sans-serif" font-size="10.00">1.0</text>
</g>
<!-- GCRS -->
<g id="node3" class="node"><title>GCRS</title>
<ellipse fill="none" stroke="black" cx="378.82" cy="-289.492" rx="31.6406" ry="21.4286"/>
<text text-anchor="middle" x="378.82" y="-292.492" font-family="Helvetica Neue, Helvetica, Arial, sans-serif" font-size="10.00">GCRS</text>
<text text-anchor="middle" x="378.82" y="-281.492" font-family="Helvetica Neue, Helvetica, Arial, sans-serif" font-size="10.00">`gcrs`</text>
</g>
<!-- ICRS&#45;&gt;GCRS -->
<g id="edge36" class="edge"><title>ICRS&#45;&gt;GCRS</title>
<path fill="none" stroke="black" d="M622.462,-376.014C567.584,-371.899 449.234,-360.799 414.82,-339.706 406.336,-334.506 399.229,-326.489 393.631,-318.425"/>
<polygon fill="black" stroke="black" points="396.466,-316.36 388.155,-309.788 390.554,-320.108 396.466,-316.36"/>
<text text-anchor="middle" x="421.82" y="-331.706" font-family="Helvetica Neue, Helvetica, Arial, sans-serif" font-size="10.00">1.0</text>
</g>
<!-- CIRS -->
<g id="node6" class="node"><title>CIRS</title>
<ellipse fill="none" stroke="black" cx="506.82" cy="-200.066" rx="28.0702" ry="21.4286"/>
<text text-anchor="middle" x="506.82" y="-203.066" font-family="Helvetica Neue, Helvetica, Arial, sans-serif" font-size="10.00">CIRS</text>
<text text-anchor="middle" x="506.82" y="-192.066" font-family="Helvetica Neue, Helvetica, Arial, sans-serif" font-size="10.00">`cirs`</text>
</g>
<!-- ICRS&#45;&gt;CIRS -->
<g id="edge39" class="edge"><title>ICRS&#45;&gt;CIRS</title>
<path fill="none" stroke="black" d="M622.628,-375.313C585.156,-370.163 520.253,-354.995 490.82,-310.706 474.889,-286.734 483.046,-253.33 492.576,-229.709"/>
<polygon fill="black" stroke="black" points="495.914,-230.807 496.678,-220.24 489.491,-228.025 495.914,-230.807"/>
<text text-anchor="middle" x="497.82" y="-286.992" font-family="Helvetica Neue, Helvetica, Arial, sans-serif" font-size="10.00">1.0</text>
</g>
<!-- Galactocentric -->
<g id="node8" class="node"><title>Galactocentric</title>
<ellipse fill="none" stroke="black" cx="573.82" cy="-289.492" rx="60.2083" ry="21.4286"/>
<text text-anchor="middle" x="573.82" y="-292.492" font-family="Helvetica Neue, Helvetica, Arial, sans-serif" font-size="10.00">Galactocentric</text>
<text text-anchor="middle" x="573.82" y="-281.492" font-family="Helvetica Neue, Helvetica, Arial, sans-serif" font-size="10.00">`galactocentric`</text>
</g>
<!-- ICRS&#45;&gt;Galactocentric -->
<g id="edge37" class="edge"><title>ICRS&#45;&gt;Galactocentric</title>
<path fill="none" stroke="black" d="M626.495,-367.66C613.964,-361.268 599.354,-351.921 589.82,-339.706 585.437,-334.091 582.235,-327.234 579.901,-320.442"/>
<polygon fill="black" stroke="black" points="583.22,-319.318 577.069,-310.691 576.498,-321.271 583.22,-319.318"/>
<text text-anchor="middle" x="596.82" y="-331.706" font-family="Helvetica Neue, Helvetica, Arial, sans-serif" font-size="10.00">1.0</text>
</g>
<!-- FK5 -->
<g id="node11" class="node"><title>FK5</title>
<ellipse fill="none" stroke="black" cx="918.82" cy="-289.492" rx="27" ry="21.4286"/>
<text text-anchor="middle" x="918.82" y="-292.492" font-family="Helvetica Neue, Helvetica, Arial, sans-serif" font-size="10.00">FK5</text>
<text text-anchor="middle" x="918.82" y="-281.492" font-family="Helvetica Neue, Helvetica, Arial, sans-serif" font-size="10.00">`fk5`</text>
</g>
<!-- ICRS&#45;&gt;FK5 -->
<g id="edge40" class="edge"><title>ICRS&#45;&gt;FK5</title>
<path fill="none" stroke="black" d="M677.946,-372.195C721.974,-362.437 811.27,-340.687 882.82,-310.706 884.861,-309.85 886.933,-308.907 889,-307.91"/>
<polygon fill="black" stroke="black" points="890.637,-311.004 897.906,-303.296 887.417,-304.788 890.637,-311.004"/>
<text text-anchor="middle" x="840.82" y="-331.706" font-family="Helvetica Neue, Helvetica, Arial, sans-serif" font-size="10.00">1.0</text>
</g>
<!-- HeliocentricTrueEcliptic -->
<g id="node14" class="node"><title>HeliocentricTrueEcliptic</title>
<ellipse fill="none" stroke="black" cx="787.82" cy="-289.492" rx="86.0347" ry="21.4286"/>
<text text-anchor="middle" x="787.82" y="-292.492" font-family="Helvetica Neue, Helvetica, Arial, sans-serif" font-size="10.00">HeliocentricTrueEcliptic</text>
<text text-anchor="middle" x="787.82" y="-281.492" font-family="Helvetica Neue, Helvetica, Arial, sans-serif" font-size="10.00">`heliocentrictrueecliptic`</text>
</g>
<!-- ICRS&#45;&gt;HeliocentricTrueEcliptic -->
<g id="edge38" class="edge"><title>ICRS&#45;&gt;HeliocentricTrueEcliptic</title>
<path fill="none" stroke="black" d="M671.733,-364.256C686.969,-354.333 708.126,-340.613 726.82,-328.706 733.786,-324.268 741.222,-319.575 748.419,-315.054"/>
<polygon fill="black" stroke="black" points="750.742,-317.729 757.356,-309.451 747.024,-311.798 750.742,-317.729"/>
<text text-anchor="middle" x="733.82" y="-331.706" font-family="Helvetica Neue, Helvetica, Arial, sans-serif" font-size="10.00">1.0</text>
</g>
<!-- GCRS&#45;&gt;ICRS -->
<g id="edge7" class="edge"><title>GCRS&#45;&gt;ICRS</title>
<path fill="none" stroke="black" d="M398.312,-306.356C412.792,-317.346 433.478,-331.435 453.82,-339.706 506.518,-361.131 572.137,-370.771 612.755,-374.943"/>
<polygon fill="black" stroke="black" points="612.478,-378.433 622.769,-375.913 613.152,-371.465 612.478,-378.433"/>
<text text-anchor="middle" x="460.82" y="-331.706" font-family="Helvetica Neue, Helvetica, Arial, sans-serif" font-size="10.00">1.0</text>
</g>
<!-- GCRS&#45;&gt;GCRS -->
<g id="edge2" class="edge"><title>GCRS&#45;&gt;GCRS</title>
<path fill="none" stroke="black" d="M408.485,-297.724C419.54,-297.994 428.64,-295.25 428.64,-289.492 428.64,-285.624 424.532,-283.116 418.483,-281.968"/>
<polygon fill="black" stroke="black" points="418.707,-278.476 408.485,-281.261 418.212,-285.458 418.707,-278.476"/>
<text text-anchor="middle" x="435.64" y="-286.992" font-family="Helvetica Neue, Helvetica, Arial, sans-serif" font-size="10.00">1.0</text>
</g>
<!-- HCRS -->
<g id="node4" class="node"><title>HCRS</title>
<ellipse fill="none" stroke="black" cx="31.8198" cy="-200.066" rx="31.6406" ry="21.4286"/>
<text text-anchor="middle" x="31.8198" y="-203.066" font-family="Helvetica Neue, Helvetica, Arial, sans-serif" font-size="10.00">HCRS</text>
<text text-anchor="middle" x="31.8198" y="-192.066" font-family="Helvetica Neue, Helvetica, Arial, sans-serif" font-size="10.00">`hcrs`</text>
</g>
<!-- GCRS&#45;&gt;HCRS -->
<g id="edge3" class="edge"><title>GCRS&#45;&gt;HCRS</title>
<path fill="none" stroke="black" d="M349.149,-281.518C298.795,-269.614 193.442,-244.413 104.82,-221.279 93.6166,-218.355 81.4846,-215.051 70.3878,-211.975"/>
<polygon fill="black" stroke="black" points="71.1169,-208.544 60.5443,-209.231 69.2373,-215.287 71.1169,-208.544"/>
<text text-anchor="middle" x="224.82" y="-242.279" font-family="Helvetica Neue, Helvetica, Arial, sans-serif" font-size="10.00">1.0</text>
</g>
<!-- GeocentricTrueEcliptic -->
<g id="node5" class="node"><title>GeocentricTrueEcliptic</title>
<ellipse fill="none" stroke="black" cx="196.82" cy="-200.066" rx="82.9636" ry="21.4286"/>
<text text-anchor="middle" x="196.82" y="-203.066" font-family="Helvetica Neue, Helvetica, Arial, sans-serif" font-size="10.00">GeocentricTrueEcliptic</text>
<text text-anchor="middle" x="196.82" y="-192.066" font-family="Helvetica Neue, Helvetica, Arial, sans-serif" font-size="10.00">`geocentrictrueecliptic`</text>
</g>
<!-- GCRS&#45;&gt;GeocentricTrueEcliptic -->
<g id="edge4" class="edge"><title>GCRS&#45;&gt;GeocentricTrueEcliptic</title>
<path fill="none" stroke="black" d="M353.513,-276.336C325.091,-262.683 278.361,-240.235 243.314,-223.4"/>
<polygon fill="black" stroke="black" points="244.75,-220.207 234.22,-219.032 241.719,-226.517 244.75,-220.207"/>
<text text-anchor="middle" x="305.82" y="-242.279" font-family="Helvetica Neue, Helvetica, Arial, sans-serif" font-size="10.00">1.0</text>
</g>
<!-- GCRS&#45;&gt;CIRS -->
<g id="edge5" class="edge"><title>GCRS&#45;&gt;CIRS</title>
<path fill="none" stroke="black" d="M389.721,-269.451C396.398,-259.264 405.776,-247.218 416.82,-239.279 436.678,-225.004 446.4,-231.051 468.82,-221.279 470.935,-220.357 473.092,-219.364 475.251,-218.329"/>
<polygon fill="black" stroke="black" points="477.239,-221.247 484.6,-213.627 474.094,-214.994 477.239,-221.247"/>
<text text-anchor="middle" x="423.82" y="-242.279" font-family="Helvetica Neue, Helvetica, Arial, sans-serif" font-size="10.00">1.0</text>
</g>
<!-- PrecessedGeocentric -->
<g id="node7" class="node"><title>PrecessedGeocentric</title>
<ellipse fill="none" stroke="black" cx="378.82" cy="-200.066" rx="81.135" ry="21.4286"/>
<text text-anchor="middle" x="378.82" y="-203.066" font-family="Helvetica Neue, Helvetica, Arial, sans-serif" font-size="10.00">PrecessedGeocentric</text>
<text text-anchor="middle" x="378.82" y="-192.066" font-family="Helvetica Neue, Helvetica, Arial, sans-serif" font-size="10.00">`precessedgeocentric`</text>
</g>
<!-- GCRS&#45;&gt;PrecessedGeocentric -->
<g id="edge6" class="edge"><title>GCRS&#45;&gt;PrecessedGeocentric</title>
<path fill="none" stroke="black" d="M358.753,-272.654C352.411,-266.435 346.182,-258.751 342.82,-250.279 339.8,-242.669 341.89,-235.165 346.28,-228.398"/>
<polygon fill="black" stroke="black" points="349.288,-230.244 352.857,-220.268 343.846,-225.841 349.288,-230.244"/>
<text text-anchor="middle" x="349.82" y="-242.279" font-family="Helvetica Neue, Helvetica, Arial, sans-serif" font-size="10.00">1.0</text>
</g>
<!-- HCRS&#45;&gt;HCRS -->
<g id="edge35" class="edge"><title>HCRS&#45;&gt;HCRS</title>
<path fill="none" stroke="black" d="M61.4846,-208.298C72.5396,-208.568 81.6396,-205.824 81.6396,-200.066 81.6396,-196.197 77.5317,-193.689 71.483,-192.542"/>
<polygon fill="black" stroke="black" points="71.7068,-189.049 61.4846,-191.834 71.2124,-196.032 71.7068,-189.049"/>
<text text-anchor="middle" x="88.6396" y="-197.566" font-family="Helvetica Neue, Helvetica, Arial, sans-serif" font-size="10.00">1.0</text>
</g>
<!-- GeocentricTrueEcliptic&#45;&gt;GCRS -->
<g id="edge14" class="edge"><title>GeocentricTrueEcliptic&#45;&gt;GCRS</title>
<path fill="none" stroke="black" d="M217.948,-220.646C229.6,-230.618 244.733,-242.291 259.82,-250.279 284.822,-263.517 315.222,-273.182 339.038,-279.481"/>
<polygon fill="black" stroke="black" points="338.251,-282.892 348.806,-281.974 339.983,-276.109 338.251,-282.892"/>
<text text-anchor="middle" x="266.82" y="-242.279" font-family="Helvetica Neue, Helvetica, Arial, sans-serif" font-size="10.00">1.0</text>
</g>
<!-- CIRS&#45;&gt;ICRS -->
<g id="edge22" class="edge"><title>CIRS&#45;&gt;ICRS</title>
<path fill="none" stroke="black" d="M534.089,-206.149C566.052,-213.682 617.824,-231.133 642.82,-268.279 658.435,-291.485 658.793,-324.053 656.246,-347.66"/>
<polygon fill="black" stroke="black" points="652.745,-347.439 654.915,-357.809 659.685,-348.349 652.745,-347.439"/>
<text text-anchor="middle" x="663.82" y="-286.992" font-family="Helvetica Neue, Helvetica, Arial, sans-serif" font-size="10.00">1.0</text>
</g>
<!-- CIRS&#45;&gt;GCRS -->
<g id="edge19" class="edge"><title>CIRS&#45;&gt;GCRS</title>
<path fill="none" stroke="black" d="M486.272,-215.1C465.352,-229.389 432.697,-251.694 408.873,-267.966"/>
<polygon fill="black" stroke="black" points="406.817,-265.131 400.533,-273.662 410.765,-270.912 406.817,-265.131"/>
<text text-anchor="middle" x="457.82" y="-242.279" font-family="Helvetica Neue, Helvetica, Arial, sans-serif" font-size="10.00">1.0</text>
</g>
<!-- CIRS&#45;&gt;CIRS -->
<g id="edge23" class="edge"><title>CIRS&#45;&gt;CIRS</title>
<path fill="none" stroke="black" d="M532.989,-208.244C543.876,-208.807 553.104,-206.082 553.104,-200.066 553.104,-196.118 549.13,-193.587 543.321,-192.473"/>
<polygon fill="black" stroke="black" points="543.171,-188.959 532.989,-191.889 542.776,-195.948 543.171,-188.959"/>
<text text-anchor="middle" x="560.104" y="-197.566" font-family="Helvetica Neue, Helvetica, Arial, sans-serif" font-size="10.00">1.0</text>
</g>
<!-- AltAz -->
<g id="node9" class="node"><title>AltAz</title>
<ellipse fill="none" stroke="black" cx="561.82" cy="-110.64" rx="31.2258" ry="21.4286"/>
<text text-anchor="middle" x="561.82" y="-113.64" font-family="Helvetica Neue, Helvetica, Arial, sans-serif" font-size="10.00">AltAz</text>
<text text-anchor="middle" x="561.82" y="-102.64" font-family="Helvetica Neue, Helvetica, Arial, sans-serif" font-size="10.00">`altaz`</text>
</g>
<!-- CIRS&#45;&gt;AltAz -->
<g id="edge21" class="edge"><title>CIRS&#45;&gt;AltAz</title>
<path fill="none" stroke="black" d="M511.015,-178.956C513.529,-169.645 517.329,-158.71 522.82,-149.853 526.084,-144.588 530.222,-139.522 534.576,-134.895"/>
<polygon fill="black" stroke="black" points="537.339,-137.085 541.991,-127.566 532.418,-132.107 537.339,-137.085"/>
<text text-anchor="middle" x="529.82" y="-152.853" font-family="Helvetica Neue, Helvetica, Arial, sans-serif" font-size="10.00">1.0</text>
</g>
<!-- ITRS -->
<g id="node16" class="node"><title>ITRS</title>
<ellipse fill="none" stroke="black" cx="452.82" cy="-110.64" rx="27.6545" ry="21.4286"/>
<text text-anchor="middle" x="452.82" y="-113.64" font-family="Helvetica Neue, Helvetica, Arial, sans-serif" font-size="10.00">ITRS</text>
<text text-anchor="middle" x="452.82" y="-102.64" font-family="Helvetica Neue, Helvetica, Arial, sans-serif" font-size="10.00">`itrs`</text>
</g>
<!-- CIRS&#45;&gt;ITRS -->
<g id="edge20" class="edge"><title>CIRS&#45;&gt;ITRS</title>
<path fill="none" stroke="black" d="M485.006,-186.501C471.646,-178.293 456.435,-167.84 452.82,-160.853 449.831,-155.076 448.62,-148.383 448.393,-141.83"/>
<polygon fill="black" stroke="black" points="451.892,-141.912 448.733,-131.799 444.896,-141.674 451.892,-141.912"/>
<text text-anchor="middle" x="459.82" y="-152.853" font-family="Helvetica Neue, Helvetica, Arial, sans-serif" font-size="10.00">1.0</text>
</g>
<!-- PrecessedGeocentric&#45;&gt;GCRS -->
<g id="edge18" class="edge"><title>PrecessedGeocentric&#45;&gt;GCRS</title>
<path fill="none" stroke="black" d="M378.82,-221.536C378.82,-232.414 378.82,-246 378.82,-258.086"/>
<polygon fill="black" stroke="black" points="375.32,-258.215 378.82,-268.215 382.32,-258.215 375.32,-258.215"/>
<text text-anchor="middle" x="385.82" y="-242.279" font-family="Helvetica Neue, Helvetica, Arial, sans-serif" font-size="10.00">1.0</text>
</g>
<!-- Galactocentric&#45;&gt;ICRS -->
<g id="edge8" class="edge"><title>Galactocentric&#45;&gt;ICRS</title>
<path fill="none" stroke="black" d="M590.877,-309.86C602.065,-322.563 616.801,-339.293 628.862,-352.988"/>
<polygon fill="black" stroke="black" points="626.371,-355.455 635.607,-360.646 631.624,-350.828 626.371,-355.455"/>
<text text-anchor="middle" x="624.82" y="-331.706" font-family="Helvetica Neue, Helvetica, Arial, sans-serif" font-size="10.00">1.0</text>
</g>
<!-- AltAz&#45;&gt;CIRS -->
<g id="edge10" class="edge"><title>AltAz&#45;&gt;CIRS</title>
<path fill="none" stroke="black" d="M555.026,-131.532C551.444,-140.795 546.591,-151.753 540.82,-160.853 537.788,-165.633 534.157,-170.403 530.415,-174.87"/>
<polygon fill="black" stroke="black" points="527.654,-172.708 523.662,-182.522 532.903,-177.34 527.654,-172.708"/>
<text text-anchor="middle" x="554.82" y="-152.853" font-family="Helvetica Neue, Helvetica, Arial, sans-serif" font-size="10.00">1.0</text>
</g>
<!-- AltAz&#45;&gt;AltAz -->
<g id="edge9" class="edge"><title>AltAz&#45;&gt;AltAz</title>
<path fill="none" stroke="black" d="M590.574,-118.857C601.692,-119.223 610.933,-116.483 610.933,-110.64 610.933,-106.713 606.761,-104.188 600.652,-103.065"/>
<polygon fill="black" stroke="black" points="600.777,-99.566 590.574,-102.422 600.331,-106.552 600.777,-99.566"/>
<text text-anchor="middle" x="617.933" y="-108.14" font-family="Helvetica Neue, Helvetica, Arial, sans-serif" font-size="10.00">1.0</text>
</g>
<!-- Galactic -->
<g id="node10" class="node"><title>Galactic</title>
<ellipse fill="none" stroke="black" cx="912.82" cy="-110.64" rx="40.1111" ry="21.4286"/>
<text text-anchor="middle" x="912.82" y="-113.64" font-family="Helvetica Neue, Helvetica, Arial, sans-serif" font-size="10.00">Galactic</text>
<text text-anchor="middle" x="912.82" y="-102.64" font-family="Helvetica Neue, Helvetica, Arial, sans-serif" font-size="10.00">`galactic`</text>
</g>
<!-- Galactic&#45;&gt;FK5 -->
<g id="edge11" class="edge"><title>Galactic&#45;&gt;FK5</title>
<path fill="none" stroke="black" d="M894.259,-129.723C882.761,-142.28 869.038,-160.076 862.82,-178.853 856.892,-196.753 856.808,-203.407 862.82,-221.279 868.675,-238.685 881.49,-254.642 893.386,-266.636"/>
<polygon fill="black" stroke="black" points="890.967,-269.166 900.603,-273.57 895.817,-264.118 890.967,-269.166"/>
<text text-anchor="middle" x="869.82" y="-197.566" font-family="Helvetica Neue, Helvetica, Arial, sans-serif" font-size="10.00">1.0</text>
</g>
<!-- Supergalactic -->
<g id="node12" class="node"><title>Supergalactic</title>
<ellipse fill="none" stroke="black" cx="912.82" cy="-21.2132" rx="57.9655" ry="21.4286"/>
<text text-anchor="middle" x="912.82" y="-24.2132" font-family="Helvetica Neue, Helvetica, Arial, sans-serif" font-size="10.00">Supergalactic</text>
<text text-anchor="middle" x="912.82" y="-13.2132" font-family="Helvetica Neue, Helvetica, Arial, sans-serif" font-size="10.00">`supergalactic`</text>
</g>
<!-- Galactic&#45;&gt;Supergalactic -->
<g id="edge12" class="edge"><title>Galactic&#45;&gt;Supergalactic</title>
<path fill="none" stroke="black" d="M902.18,-89.9437C899.571,-84.1454 897.147,-77.6768 895.82,-71.4264 894.439,-64.9275 895.253,-58.1036 897.115,-51.6771"/>
<polygon fill="black" stroke="black" points="900.506,-52.6016 900.738,-42.0093 893.951,-50.145 900.506,-52.6016"/>
<text text-anchor="middle" x="902.82" y="-63.4264" font-family="Helvetica Neue, Helvetica, Arial, sans-serif" font-size="10.00">1.0</text>
</g>
<!-- FK4NoETerms -->
<g id="node13" class="node"><title>FK4NoETerms</title>
<ellipse fill="none" stroke="black" cx="989.82" cy="-200.066" rx="58.8803" ry="21.4286"/>
<text text-anchor="middle" x="989.82" y="-203.066" font-family="Helvetica Neue, Helvetica, Arial, sans-serif" font-size="10.00">FK4NoETerms</text>
<text text-anchor="middle" x="989.82" y="-192.066" font-family="Helvetica Neue, Helvetica, Arial, sans-serif" font-size="10.00">`fk4noeterms`</text>
</g>
<!-- Galactic&#45;&gt;FK4NoETerms -->
<g id="edge13" class="edge"><title>Galactic&#45;&gt;FK4NoETerms</title>
<path fill="none" stroke="black" d="M929.455,-130.269C934.991,-136.486 941.182,-143.459 946.82,-149.853 952.968,-156.826 959.586,-164.377 965.742,-171.421"/>
<polygon fill="black" stroke="black" points="963.489,-174.162 972.702,-179.394 968.762,-169.559 963.489,-174.162"/>
<text text-anchor="middle" x="963.82" y="-152.853" font-family="Helvetica Neue, Helvetica, Arial, sans-serif" font-size="10.00">1.0</text>
</g>
<!-- FK5&#45;&gt;ICRS -->
<g id="edge28" class="edge"><title>FK5&#45;&gt;ICRS</title>
<path fill="none" stroke="black" d="M904.548,-307.769C894.567,-318.667 880.293,-332.08 864.82,-339.706 808.094,-367.661 733.941,-375.392 689.48,-377.397"/>
<polygon fill="black" stroke="black" points="689.245,-373.903 679.383,-377.776 689.508,-380.898 689.245,-373.903"/>
<text text-anchor="middle" x="888.82" y="-331.706" font-family="Helvetica Neue, Helvetica, Arial, sans-serif" font-size="10.00">1.0</text>
</g>
<!-- FK5&#45;&gt;Galactic -->
<g id="edge27" class="edge"><title>FK5&#45;&gt;Galactic</title>
<path fill="none" stroke="black" d="M914.637,-268.303C912.101,-255.011 909.113,-237.189 907.82,-221.279 905.644,-194.513 907.379,-163.987 909.379,-141.955"/>
<polygon fill="black" stroke="black" points="912.875,-142.168 910.366,-131.874 905.908,-141.486 912.875,-142.168"/>
<text text-anchor="middle" x="914.82" y="-197.566" font-family="Helvetica Neue, Helvetica, Arial, sans-serif" font-size="10.00">1.0</text>
</g>
<!-- FK5&#45;&gt;FK5 -->
<g id="edge26" class="edge"><title>FK5&#45;&gt;FK5</title>
<path fill="none" stroke="black" d="M943.809,-297.644C954.589,-298.311 963.82,-295.594 963.82,-289.492 963.82,-285.488 959.845,-282.942 954.065,-281.853"/>
<polygon fill="black" stroke="black" points="953.971,-278.344 943.809,-281.341 953.622,-285.335 953.971,-278.344"/>
<text text-anchor="middle" x="970.82" y="-286.992" font-family="Helvetica Neue, Helvetica, Arial, sans-serif" font-size="10.00">1.0</text>
</g>
<!-- FK5&#45;&gt;FK4NoETerms -->
<g id="edge29" class="edge"><title>FK5&#45;&gt;FK4NoETerms</title>
<path fill="none" stroke="black" d="M935.279,-272.676C941.922,-265.997 949.495,-257.991 955.82,-250.279 961.099,-243.843 966.405,-236.613 971.204,-229.716"/>
<polygon fill="black" stroke="black" points="974.237,-231.48 976.972,-221.244 968.451,-227.541 974.237,-231.48"/>
<text text-anchor="middle" x="971.82" y="-242.279" font-family="Helvetica Neue, Helvetica, Arial, sans-serif" font-size="10.00">1.0</text>
</g>
<!-- Supergalactic&#45;&gt;Galactic -->
<g id="edge30" class="edge"><title>Supergalactic&#45;&gt;Galactic</title>
<path fill="none" stroke="black" d="M912.82,-42.6832C912.82,-53.5614 912.82,-67.1475 912.82,-79.2335"/>
<polygon fill="black" stroke="black" points="909.32,-79.3625 912.82,-89.3625 916.32,-79.3625 909.32,-79.3625"/>
<text text-anchor="middle" x="919.82" y="-63.4264" font-family="Helvetica Neue, Helvetica, Arial, sans-serif" font-size="10.00">1.0</text>
</g>
<!-- FK4NoETerms&#45;&gt;Galactic -->
<g id="edge32" class="edge"><title>FK4NoETerms&#45;&gt;Galactic</title>
<path fill="none" stroke="black" d="M954.866,-182.885C945.334,-177.074 935.74,-169.719 928.82,-160.853 924.437,-155.238 921.235,-148.381 918.901,-141.589"/>
<polygon fill="black" stroke="black" points="922.22,-140.465 916.069,-131.839 915.498,-142.418 922.22,-140.465"/>
<text text-anchor="middle" x="935.82" y="-152.853" font-family="Helvetica Neue, Helvetica, Arial, sans-serif" font-size="10.00">1.0</text>
</g>
<!-- FK4NoETerms&#45;&gt;FK5 -->
<g id="edge33" class="edge"><title>FK4NoETerms&#45;&gt;FK5</title>
<path fill="none" stroke="black" d="M960.036,-218.522C952.006,-224.326 943.876,-231.358 937.82,-239.279 933.41,-245.048 929.909,-251.963 927.177,-258.762"/>
<polygon fill="black" stroke="black" points="923.769,-257.898 923.709,-268.493 930.363,-260.248 923.769,-257.898"/>
<text text-anchor="middle" x="944.82" y="-242.279" font-family="Helvetica Neue, Helvetica, Arial, sans-serif" font-size="10.00">1.0</text>
</g>
<!-- FK4NoETerms&#45;&gt;FK4NoETerms -->
<g id="edge34" class="edge"><title>FK4NoETerms&#45;&gt;FK4NoETerms</title>
<path fill="none" stroke="black" d="M1044.28,-208.153C1057.07,-207.488 1066.51,-204.793 1066.51,-200.066 1066.51,-196.743 1061.84,-194.423 1054.62,-193.108"/>
<polygon fill="black" stroke="black" points="1054.6,-189.584 1044.28,-191.979 1053.84,-196.543 1054.6,-189.584"/>
<text text-anchor="middle" x="1073.51" y="-197.566" font-family="Helvetica Neue, Helvetica, Arial, sans-serif" font-size="10.00">1.0</text>
</g>
<!-- FK4 -->
<g id="node15" class="node"><title>FK4</title>
<ellipse fill="none" stroke="black" cx="1010.82" cy="-110.64" rx="27" ry="21.4286"/>
<text text-anchor="middle" x="1010.82" y="-113.64" font-family="Helvetica Neue, Helvetica, Arial, sans-serif" font-size="10.00">FK4</text>
<text text-anchor="middle" x="1010.82" y="-102.64" font-family="Helvetica Neue, Helvetica, Arial, sans-serif" font-size="10.00">`fk4`</text>
</g>
<!-- FK4NoETerms&#45;&gt;FK4 -->
<g id="edge31" class="edge"><title>FK4NoETerms&#45;&gt;FK4</title>
<path fill="none" stroke="black" d="M994.69,-178.789C997.341,-167.755 1000.67,-153.892 1003.62,-141.631"/>
<polygon fill="black" stroke="black" points="1007.04,-142.348 1005.98,-131.807 1000.24,-140.713 1007.04,-142.348"/>
<text text-anchor="middle" x="1008.82" y="-152.853" font-family="Helvetica Neue, Helvetica, Arial, sans-serif" font-size="10.00">1.0</text>
</g>
<!-- HeliocentricTrueEcliptic&#45;&gt;ICRS -->
<g id="edge15" class="edge"><title>HeliocentricTrueEcliptic&#45;&gt;ICRS</title>
<path fill="none" stroke="black" d="M773.693,-310.711C766.047,-320.494 755.906,-331.801 744.82,-339.706 727.311,-352.189 705.129,-361.456 686.71,-367.735"/>
<polygon fill="black" stroke="black" points="685.619,-364.41 677.193,-370.833 687.785,-371.066 685.619,-364.41"/>
<text text-anchor="middle" x="765.82" y="-331.706" font-family="Helvetica Neue, Helvetica, Arial, sans-serif" font-size="10.00">1.0</text>
</g>
<!-- FK4&#45;&gt;FK4NoETerms -->
<g id="edge17" class="edge"><title>FK4&#45;&gt;FK4NoETerms</title>
<path fill="none" stroke="black" d="M1019.55,-131.144C1022.46,-140.323 1024.2,-151.321 1020.82,-160.853 1019.48,-164.64 1017.58,-168.325 1015.38,-171.818"/>
<polygon fill="black" stroke="black" points="1012.45,-169.899 1009.43,-180.053 1018.12,-174 1012.45,-169.899"/>
<text text-anchor="middle" x="1029.82" y="-152.853" font-family="Helvetica Neue, Helvetica, Arial, sans-serif" font-size="10.00">1.0</text>
</g>
<!-- FK4&#45;&gt;FK4 -->
<g id="edge16" class="edge"><title>FK4&#45;&gt;FK4</title>
<path fill="none" stroke="black" d="M1035.81,-118.791C1046.59,-119.458 1055.82,-116.741 1055.82,-110.64 1055.82,-106.635 1051.84,-104.089 1046.06,-103"/>
<polygon fill="black" stroke="black" points="1045.97,-99.4909 1035.81,-102.488 1045.62,-106.482 1045.97,-99.4909"/>
<text text-anchor="middle" x="1062.82" y="-108.14" font-family="Helvetica Neue, Helvetica, Arial, sans-serif" font-size="10.00">1.0</text>
</g>
<!-- ITRS&#45;&gt;CIRS -->
<g id="edge24" class="edge"><title>ITRS&#45;&gt;CIRS</title>
<path fill="none" stroke="black" d="M464.255,-130.154C471.698,-142.203 481.536,-158.131 489.879,-171.638"/>
<polygon fill="black" stroke="black" points="487.135,-173.856 495.368,-180.525 493.091,-170.178 487.135,-173.856"/>
<text text-anchor="middle" x="490.82" y="-152.853" font-family="Helvetica Neue, Helvetica, Arial, sans-serif" font-size="10.00">1.0</text>
</g>
<!-- ITRS&#45;&gt;ITRS -->
<g id="edge25" class="edge"><title>ITRS&#45;&gt;ITRS</title>
<path fill="none" stroke="black" d="M478.59,-118.817C489.31,-119.381 498.397,-116.655 498.397,-110.64 498.397,-106.692 494.483,-104.161 488.763,-103.047"/>
<polygon fill="black" stroke="black" points="488.774,-99.5417 478.59,-102.462 488.372,-106.53 488.774,-99.5417"/>
<text text-anchor="middle" x="505.397" y="-108.14" font-family="Helvetica Neue, Helvetica, Arial, sans-serif" font-size="10.00">1.0</text>
</g>
</g>
</svg>
