<?xml version="1.0" encoding="UTF-8" standalone="no"?>
<!DOCTYPE svg PUBLIC "-//W3C//DTD SVG 1.1//EN"
 "http://www.w3.org/Graphics/SVG/1.1/DTD/svg11.dtd">
<!-- Generated by graphviz version 2.38.0 (20140413.2041)
 -->
<!-- Title: AstropyCoordinateTransformGraph Pages: 1 -->
<svg width="1079pt" height="587pt"
 viewBox="0.00 0.00 1078.50 586.98" xmlns="http://www.w3.org/2000/svg" xmlns:xlink="http://www.w3.org/1999/xlink">
<g id="graph0" class="graph" transform="scale(1 1) rotate(0) translate(4 582.985)">
<title>AstropyCoordinateTransformGraph</title>
<polygon fill="white" stroke="none" points="-4,4 -4,-582.985 1074.5,-582.985 1074.5,4 -4,4"/>
<!-- FK4 -->
<g id="node1" class="node"><title>FK4</title>
<ellipse fill="none" stroke="black" cx="889.113" cy="-557.772" rx="27" ry="21.4286"/>
<text text-anchor="middle" x="889.113" y="-560.772" font-family="Helvetica Neue, Helvetica, Arial, sans-serif" font-size="10.00">FK4</text>
<text text-anchor="middle" x="889.113" y="-549.772" font-family="Helvetica Neue, Helvetica, Arial, sans-serif" font-size="10.00">`fk4`</text>
</g>
<!-- FK4&#45;&gt;FK4 -->
<g id="edge1" class="edge"><title>FK4&#45;&gt;FK4</title>
<path fill="none" stroke="black" d="M914.102,-565.923C924.882,-566.59 934.113,-563.873 934.113,-557.772 934.113,-553.767 930.138,-551.221 924.358,-550.132"/>
<polygon fill="black" stroke="black" points="924.264,-546.623 914.102,-549.62 923.915,-553.614 924.264,-546.623"/>
<text text-anchor="middle" x="941.113" y="-555.272" font-family="Helvetica Neue, Helvetica, Arial, sans-serif" font-size="10.00">1.0</text>
</g>
<!-- FK4NoETerms -->
<g id="node2" class="node"><title>FK4NoETerms</title>
<ellipse fill="none" stroke="black" cx="889.113" cy="-468.345" rx="58.8803" ry="21.4286"/>
<text text-anchor="middle" x="889.113" y="-471.345" font-family="Helvetica Neue, Helvetica, Arial, sans-serif" font-size="10.00">FK4NoETerms</text>
<text text-anchor="middle" x="889.113" y="-460.345" font-family="Helvetica Neue, Helvetica, Arial, sans-serif" font-size="10.00">`fk4noeterms`</text>
</g>
<!-- FK4&#45;&gt;FK4NoETerms -->
<g id="edge2" class="edge"><title>FK4&#45;&gt;FK4NoETerms</title>
<path fill="none" stroke="black" d="M878.83,-537.862C876.087,-531.866 873.501,-525.093 872.113,-518.558 870.732,-512.059 871.546,-505.236 873.407,-498.809"/>
<polygon fill="black" stroke="black" points="876.799,-499.734 877.031,-489.141 870.244,-497.277 876.799,-499.734"/>
<text text-anchor="middle" x="879.113" y="-510.558" font-family="Helvetica Neue, Helvetica, Arial, sans-serif" font-size="10.00">1.0</text>
</g>
<!-- FK4NoETerms&#45;&gt;FK4 -->
<g id="edge4" class="edge"><title>FK4NoETerms&#45;&gt;FK4</title>
<path fill="none" stroke="black" d="M889.113,-489.815C889.113,-500.693 889.113,-514.28 889.113,-526.365"/>
<polygon fill="black" stroke="black" points="885.613,-526.494 889.113,-536.495 892.613,-526.495 885.613,-526.494"/>
<text text-anchor="middle" x="896.113" y="-510.558" font-family="Helvetica Neue, Helvetica, Arial, sans-serif" font-size="10.00">1.0</text>
</g>
<!-- FK4NoETerms&#45;&gt;FK4NoETerms -->
<g id="edge6" class="edge"><title>FK4NoETerms&#45;&gt;FK4NoETerms</title>
<path fill="none" stroke="black" d="M943.568,-476.432C956.363,-475.767 965.803,-473.072 965.803,-468.345 965.803,-465.022 961.136,-462.703 953.917,-461.387"/>
<polygon fill="black" stroke="black" points="953.889,-457.864 943.568,-460.258 953.129,-464.822 953.889,-457.864"/>
<text text-anchor="middle" x="972.803" y="-465.845" font-family="Helvetica Neue, Helvetica, Arial, sans-serif" font-size="10.00">1.0</text>
</g>
<!-- Galactic -->
<g id="node4" class="node"><title>Galactic</title>
<ellipse fill="none" stroke="black" cx="907.113" cy="-289.492" rx="40.1111" ry="21.4286"/>
<text text-anchor="middle" x="907.113" y="-292.492" font-family="Helvetica Neue, Helvetica, Arial, sans-serif" font-size="10.00">Galactic</text>
<text text-anchor="middle" x="907.113" y="-281.492" font-family="Helvetica Neue, Helvetica, Arial, sans-serif" font-size="10.00">`galactic`</text>
</g>
<!-- FK4NoETerms&#45;&gt;Galactic -->
<g id="edge5" class="edge"><title>FK4NoETerms&#45;&gt;Galactic</title>
<path fill="none" stroke="black" d="M902.513,-447.412C905.799,-441.717 908.981,-435.361 911.113,-429.132 923.334,-393.421 919.089,-349.463 913.961,-320.747"/>
<polygon fill="black" stroke="black" points="917.392,-320.056 912.06,-310.9 910.519,-321.383 917.392,-320.056"/>
<text text-anchor="middle" x="926.113" y="-376.419" font-family="Helvetica Neue, Helvetica, Arial, sans-serif" font-size="10.00">1.0</text>
</g>
<!-- FK5 -->
<g id="node5" class="node"><title>FK5</title>
<ellipse fill="none" stroke="black" cx="802.113" cy="-378.919" rx="27" ry="21.4286"/>
<text text-anchor="middle" x="802.113" y="-381.919" font-family="Helvetica Neue, Helvetica, Arial, sans-serif" font-size="10.00">FK5</text>
<text text-anchor="middle" x="802.113" y="-370.919" font-family="Helvetica Neue, Helvetica, Arial, sans-serif" font-size="10.00">`fk5`</text>
</g>
<!-- FK4NoETerms&#45;&gt;FK5 -->
<g id="edge7" class="edge"><title>FK4NoETerms&#45;&gt;FK5</title>
<path fill="none" stroke="black" d="M869.805,-447.942C856.711,-434.784 839.329,-417.317 825.457,-403.378"/>
<polygon fill="black" stroke="black" points="827.696,-400.666 818.162,-396.047 822.735,-405.604 827.696,-400.666"/>
<text text-anchor="middle" x="858.113" y="-421.132" font-family="Helvetica Neue, Helvetica, Arial, sans-serif" font-size="10.00">1.0</text>
</g>
<!-- Supergalactic -->
<g id="node3" class="node"><title>Supergalactic</title>
<ellipse fill="none" stroke="black" cx="959.113" cy="-200.066" rx="57.9655" ry="21.4286"/>
<text text-anchor="middle" x="959.113" y="-203.066" font-family="Helvetica Neue, Helvetica, Arial, sans-serif" font-size="10.00">Supergalactic</text>
<text text-anchor="middle" x="959.113" y="-192.066" font-family="Helvetica Neue, Helvetica, Arial, sans-serif" font-size="10.00">`supergalactic`</text>
</g>
<!-- Supergalactic&#45;&gt;Galactic -->
<g id="edge3" class="edge"><title>Supergalactic&#45;&gt;Galactic</title>
<path fill="none" stroke="black" d="M947.303,-221.204C942.057,-230.124 935.796,-240.736 930.113,-250.279 928.176,-253.531 926.141,-256.934 924.115,-260.311"/>
<polygon fill="black" stroke="black" points="921,-258.699 918.848,-269.073 927,-262.306 921,-258.699"/>
<text text-anchor="middle" x="944.113" y="-242.279" font-family="Helvetica Neue, Helvetica, Arial, sans-serif" font-size="10.00">1.0</text>
</g>
<!-- Galactic&#45;&gt;FK4NoETerms -->
<g id="edge30" class="edge"><title>Galactic&#45;&gt;FK4NoETerms</title>
<path fill="none" stroke="black" d="M904.979,-310.785C903.582,-324.12 901.724,-341.949 900.113,-357.706 897.371,-384.527 894.314,-415.047 892.12,-437.064"/>
<polygon fill="black" stroke="black" points="888.625,-436.838 891.117,-447.135 895.591,-437.531 888.625,-436.838"/>
<text text-anchor="middle" x="907.113" y="-376.419" font-family="Helvetica Neue, Helvetica, Arial, sans-serif" font-size="10.00">1.0</text>
</g>
<!-- Galactic&#45;&gt;Supergalactic -->
<g id="edge29" class="edge"><title>Galactic&#45;&gt;Supergalactic</title>
<path fill="none" stroke="black" d="M905.731,-267.818C905.965,-258.597 907.465,-247.896 912.113,-239.279 914.796,-234.304 918.425,-229.734 922.484,-225.618"/>
<polygon fill="black" stroke="black" points="925.061,-228.006 930.142,-218.709 920.372,-222.808 925.061,-228.006"/>
<text text-anchor="middle" x="919.113" y="-242.279" font-family="Helvetica Neue, Helvetica, Arial, sans-serif" font-size="10.00">1.0</text>
</g>
<!-- Galactic&#45;&gt;FK5 -->
<g id="edge31" class="edge"><title>Galactic&#45;&gt;FK5</title>
<path fill="none" stroke="black" d="M874.252,-302.105C859.823,-308.368 843.407,-317.204 831.113,-328.706 824.9,-334.517 819.595,-341.96 815.287,-349.288"/>
<polygon fill="black" stroke="black" points="812.049,-347.917 810.369,-358.377 818.206,-351.247 812.049,-347.917"/>
<text text-anchor="middle" x="838.113" y="-331.706" font-family="Helvetica Neue, Helvetica, Arial, sans-serif" font-size="10.00">1.0</text>
</g>
<!-- FK5&#45;&gt;FK4NoETerms -->
<g id="edge16" class="edge"><title>FK5&#45;&gt;FK4NoETerms</title>
<path fill="none" stroke="black" d="M807.34,-399.763C810.647,-409.451 815.724,-420.786 823.113,-429.132 828.916,-435.687 836.125,-441.406 843.626,-446.282"/>
<polygon fill="black" stroke="black" points="842.126,-449.464 852.499,-451.62 845.734,-443.466 842.126,-449.464"/>
<text text-anchor="middle" x="830.113" y="-421.132" font-family="Helvetica Neue, Helvetica, Arial, sans-serif" font-size="10.00">1.0</text>
</g>
<!-- FK5&#45;&gt;Galactic -->
<g id="edge15" class="edge"><title>FK5&#45;&gt;Galactic</title>
<path fill="none" stroke="black" d="M820.402,-362.69C836.3,-349.454 859.609,-330.045 878.058,-314.684"/>
<polygon fill="black" stroke="black" points="880.703,-317.037 886.148,-307.948 876.224,-311.657 880.703,-317.037"/>
<text text-anchor="middle" x="868.113" y="-331.706" font-family="Helvetica Neue, Helvetica, Arial, sans-serif" font-size="10.00">1.0</text>
</g>
<!-- FK5&#45;&gt;FK5 -->
<g id="edge18" class="edge"><title>FK5&#45;&gt;FK5</title>
<path fill="none" stroke="black" d="M827.102,-387.07C837.882,-387.737 847.113,-385.02 847.113,-378.919 847.113,-374.915 843.138,-372.368 837.358,-371.279"/>
<polygon fill="black" stroke="black" points="837.264,-367.77 827.102,-370.768 836.915,-374.761 837.264,-367.77"/>
<text text-anchor="middle" x="854.113" y="-376.419" font-family="Helvetica Neue, Helvetica, Arial, sans-serif" font-size="10.00">1.0</text>
</g>
<!-- ICRS -->
<g id="node8" class="node"><title>ICRS</title>
<ellipse fill="none" stroke="black" cx="538.113" cy="-289.492" rx="28.0702" ry="21.4286"/>
<text text-anchor="middle" x="538.113" y="-292.492" font-family="Helvetica Neue, Helvetica, Arial, sans-serif" font-size="10.00">ICRS</text>
<text text-anchor="middle" x="538.113" y="-281.492" font-family="Helvetica Neue, Helvetica, Arial, sans-serif" font-size="10.00">`icrs`</text>
</g>
<!-- FK5&#45;&gt;ICRS -->
<g id="edge17" class="edge"><title>FK5&#45;&gt;ICRS</title>
<path fill="none" stroke="black" d="M777.276,-369.694C730.15,-354.088 627.63,-320.137 573.393,-302.176"/>
<polygon fill="black" stroke="black" points="574.445,-298.838 563.852,-299.016 572.245,-305.483 574.445,-298.838"/>
<text text-anchor="middle" x="693.113" y="-331.706" font-family="Helvetica Neue, Helvetica, Arial, sans-serif" font-size="10.00">1.0</text>
</g>
<!-- GCRS -->
<g id="node6" class="node"><title>GCRS</title>
<ellipse fill="none" stroke="black" cx="203.113" cy="-200.066" rx="31.6406" ry="21.4286"/>
<text text-anchor="middle" x="203.113" y="-203.066" font-family="Helvetica Neue, Helvetica, Arial, sans-serif" font-size="10.00">GCRS</text>
<text text-anchor="middle" x="203.113" y="-192.066" font-family="Helvetica Neue, Helvetica, Arial, sans-serif" font-size="10.00">`gcrs`</text>
</g>
<!-- GCRS&#45;&gt;GCRS -->
<g id="edge11" class="edge"><title>GCRS&#45;&gt;GCRS</title>
<path fill="none" stroke="black" d="M232.777,-208.298C243.833,-208.568 252.933,-205.824 252.933,-200.066 252.933,-196.197 248.825,-193.689 242.776,-192.542"/>
<polygon fill="black" stroke="black" points="243,-189.049 232.777,-191.834 242.505,-196.032 243,-189.049"/>
<text text-anchor="middle" x="259.933" y="-197.566" font-family="Helvetica Neue, Helvetica, Arial, sans-serif" font-size="10.00">1.0</text>
</g>
<!-- GeocentricTrueEcliptic -->
<g id="node7" class="node"><title>GeocentricTrueEcliptic</title>
<ellipse fill="none" stroke="black" cx="246.113" cy="-110.64" rx="82.9636" ry="21.4286"/>
<text text-anchor="middle" x="246.113" y="-113.64" font-family="Helvetica Neue, Helvetica, Arial, sans-serif" font-size="10.00">GeocentricTrueEcliptic</text>
<text text-anchor="middle" x="246.113" y="-102.64" font-family="Helvetica Neue, Helvetica, Arial, sans-serif" font-size="10.00">`geocentrictrueecliptic`</text>
</g>
<!-- GCRS&#45;&gt;GeocentricTrueEcliptic -->
<g id="edge8" class="edge"><title>GCRS&#45;&gt;GeocentricTrueEcliptic</title>
<path fill="none" stroke="black" d="M221.618,-182.303C227.419,-176.107 233.296,-168.674 237.113,-160.853 239.962,-155.013 241.915,-148.384 243.252,-141.925"/>
<polygon fill="black" stroke="black" points="246.706,-142.491 244.886,-132.053 239.8,-141.348 246.706,-142.491"/>
<text text-anchor="middle" x="249.113" y="-152.853" font-family="Helvetica Neue, Helvetica, Arial, sans-serif" font-size="10.00">1.0</text>
</g>
<!-- GCRS&#45;&gt;ICRS -->
<g id="edge9" class="edge"><title>GCRS&#45;&gt;ICRS</title>
<path fill="none" stroke="black" d="M232.207,-209.258C245.567,-212.985 261.627,-217.416 276.113,-221.279 356.553,-242.732 451.232,-266.706 501.85,-279.421"/>
<polygon fill="black" stroke="black" points="501.114,-282.845 511.666,-281.884 502.818,-276.056 501.114,-282.845"/>
<text text-anchor="middle" x="391.113" y="-242.279" font-family="Helvetica Neue, Helvetica, Arial, sans-serif" font-size="10.00">1.0</text>
</g>
<!-- PrecessedGeocentric -->
<g id="node9" class="node"><title>PrecessedGeocentric</title>
<ellipse fill="none" stroke="black" cx="428.113" cy="-110.64" rx="81.135" ry="21.4286"/>
<text text-anchor="middle" x="428.113" y="-113.64" font-family="Helvetica Neue, Helvetica, Arial, sans-serif" font-size="10.00">PrecessedGeocentric</text>
<text text-anchor="middle" x="428.113" y="-102.64" font-family="Helvetica Neue, Helvetica, Arial, sans-serif" font-size="10.00">`precessedgeocentric`</text>
</g>
<!-- GCRS&#45;&gt;PrecessedGeocentric -->
<g id="edge10" class="edge"><title>GCRS&#45;&gt;PrecessedGeocentric</title>
<path fill="none" stroke="black" d="M231.824,-190.87C262.955,-181.88 310.548,-167.808 328.113,-160.853 347.087,-153.34 367.401,-143.664 384.729,-134.883"/>
<polygon fill="black" stroke="black" points="386.721,-137.795 394.021,-130.116 383.526,-131.567 386.721,-137.795"/>
<text text-anchor="middle" x="361.113" y="-152.853" font-family="Helvetica Neue, Helvetica, Arial, sans-serif" font-size="10.00">1.0</text>
</g>
<!-- CIRS -->
<g id="node10" class="node"><title>CIRS</title>
<ellipse fill="none" stroke="black" cx="85.1127" cy="-110.64" rx="28.0702" ry="21.4286"/>
<text text-anchor="middle" x="85.1127" y="-113.64" font-family="Helvetica Neue, Helvetica, Arial, sans-serif" font-size="10.00">CIRS</text>
<text text-anchor="middle" x="85.1127" y="-102.64" font-family="Helvetica Neue, Helvetica, Arial, sans-serif" font-size="10.00">`cirs`</text>
</g>
<!-- GCRS&#45;&gt;CIRS -->
<g id="edge12" class="edge"><title>GCRS&#45;&gt;CIRS</title>
<path fill="none" stroke="black" d="M190.698,-180.085C183.516,-170.163 173.798,-158.352 163.113,-149.853 150.168,-139.557 133.996,-131.068 119.74,-124.729"/>
<polygon fill="black" stroke="black" points="120.811,-121.381 110.239,-120.687 118.071,-127.822 120.811,-121.381"/>
<text text-anchor="middle" x="182.113" y="-152.853" font-family="Helvetica Neue, Helvetica, Arial, sans-serif" font-size="10.00">1.0</text>
</g>
<!-- HCRS -->
<g id="node11" class="node"><title>HCRS</title>
<ellipse fill="none" stroke="black" cx="819.113" cy="-110.64" rx="31.6406" ry="21.4286"/>
<text text-anchor="middle" x="819.113" y="-113.64" font-family="Helvetica Neue, Helvetica, Arial, sans-serif" font-size="10.00">HCRS</text>
<text text-anchor="middle" x="819.113" y="-102.64" font-family="Helvetica Neue, Helvetica, Arial, sans-serif" font-size="10.00">`hcrs`</text>
</g>
<!-- GCRS&#45;&gt;HCRS -->
<g id="edge13" class="edge"><title>GCRS&#45;&gt;HCRS</title>
<path fill="none" stroke="black" d="M231.308,-190.216C244.761,-186.263 261.152,-181.833 276.113,-178.853 461.161,-141.989 685.957,-121.866 777.411,-114.699"/>
<polygon fill="black" stroke="black" points="777.936,-118.169 787.636,-113.908 777.396,-111.19 777.936,-118.169"/>
<text text-anchor="middle" x="461.113" y="-152.853" font-family="Helvetica Neue, Helvetica, Arial, sans-serif" font-size="10.00">1.0</text>
</g>
<!-- GeocentricTrueEcliptic&#45;&gt;GCRS -->
<g id="edge14" class="edge"><title>GeocentricTrueEcliptic&#45;&gt;GCRS</title>
<path fill="none" stroke="black" d="M230.349,-131.551C226.318,-137.246 222.244,-143.608 219.113,-149.853 216.1,-155.861 213.482,-162.561 211.285,-169.034"/>
<polygon fill="black" stroke="black" points="207.847,-168.3 208.183,-178.89 214.524,-170.402 207.847,-168.3"/>
<text text-anchor="middle" x="226.113" y="-152.853" font-family="Helvetica Neue, Helvetica, Arial, sans-serif" font-size="10.00">1.0</text>
</g>
<!-- ICRS&#45;&gt;FK5 -->
<g id="edge35" class="edge"><title>ICRS&#45;&gt;FK5</title>
<path fill="none" stroke="black" d="M559.871,-303.166C579.508,-314.147 609.471,-329.789 637.113,-339.706 680.254,-355.183 732.032,-365.98 765.934,-372.058"/>
<polygon fill="black" stroke="black" points="765.399,-375.517 775.852,-373.792 766.605,-368.622 765.399,-375.517"/>
<text text-anchor="middle" x="644.113" y="-331.706" font-family="Helvetica Neue, Helvetica, Arial, sans-serif" font-size="10.00">1.0</text>
</g>
<!-- ICRS&#45;&gt;GCRS -->
<g id="edge32" class="edge"><title>ICRS&#45;&gt;GCRS</title>
<path fill="none" stroke="black" d="M510.143,-285.056C469.847,-279.724 393.352,-268.169 330.113,-250.279 298.376,-241.301 263.52,-227.496 238.366,-216.79"/>
<polygon fill="black" stroke="black" points="239.461,-213.451 228.892,-212.709 236.692,-219.88 239.461,-213.451"/>
<text text-anchor="middle" x="337.113" y="-242.279" font-family="Helvetica Neue, Helvetica, Arial, sans-serif" font-size="10.00">1.0</text>
</g>
<!-- ICRS&#45;&gt;CIRS -->
<g id="edge37" class="edge"><title>ICRS&#45;&gt;CIRS</title>
<path fill="none" stroke="black" d="M509.749,-288.935C420.133,-289.651 145.93,-286.403 94.1127,-221.279 76.5032,-199.148 76.255,-165.933 79.1748,-141.864"/>
<polygon fill="black" stroke="black" points="82.6562,-142.244 80.6332,-131.844 75.7292,-141.236 82.6562,-142.244"/>
<text text-anchor="middle" x="101.113" y="-197.566" font-family="Helvetica Neue, Helvetica, Arial, sans-serif" font-size="10.00">1.0</text>
</g>
<!-- ICRS&#45;&gt;HCRS -->
<g id="edge38" class="edge"><title>ICRS&#45;&gt;HCRS</title>
<path fill="none" stroke="black" d="M566.234,-286.787C634.063,-281.988 803.273,-265.7 833.113,-221.279 849.123,-197.446 841.636,-164.018 832.649,-140.354"/>
<polygon fill="black" stroke="black" points="835.794,-138.798 828.77,-130.866 829.314,-141.447 835.794,-138.798"/>
<text text-anchor="middle" x="850.113" y="-197.566" font-family="Helvetica Neue, Helvetica, Arial, sans-serif" font-size="10.00">1.0</text>
</g>
<!-- HeliocentricTrueEcliptic -->
<g id="node12" class="node"><title>HeliocentricTrueEcliptic</title>
<ellipse fill="none" stroke="black" cx="371.113" cy="-200.066" rx="86.0347" ry="21.4286"/>
<text text-anchor="middle" x="371.113" y="-203.066" font-family="Helvetica Neue, Helvetica, Arial, sans-serif" font-size="10.00">HeliocentricTrueEcliptic</text>
<text text-anchor="middle" x="371.113" y="-192.066" font-family="Helvetica Neue, Helvetica, Arial, sans-serif" font-size="10.00">`heliocentrictrueecliptic`</text>
</g>
<!-- ICRS&#45;&gt;HeliocentricTrueEcliptic -->
<g id="edge36" class="edge"><title>ICRS&#45;&gt;HeliocentricTrueEcliptic</title>
<path fill="none" stroke="black" d="M518.366,-274.066C503.593,-263.642 482.654,-249.632 463.113,-239.279 451.421,-233.085 438.502,-227.181 426.132,-221.946"/>
<polygon fill="black" stroke="black" points="427.388,-218.678 416.81,-218.08 424.706,-225.144 427.388,-218.678"/>
<text text-anchor="middle" x="490.113" y="-242.279" font-family="Helvetica Neue, Helvetica, Arial, sans-serif" font-size="10.00">1.0</text>
</g>
<!-- BarycentricTrueEcliptic -->
<g id="node15" class="node"><title>BarycentricTrueEcliptic</title>
<ellipse fill="none" stroke="black" cx="560.113" cy="-200.066" rx="84.7059" ry="21.4286"/>
<text text-anchor="middle" x="560.113" y="-203.066" font-family="Helvetica Neue, Helvetica, Arial, sans-serif" font-size="10.00">BarycentricTrueEcliptic</text>
<text text-anchor="middle" x="560.113" y="-192.066" font-family="Helvetica Neue, Helvetica, Arial, sans-serif" font-size="10.00">`barycentrictrueecliptic`</text>
</g>
<!-- ICRS&#45;&gt;BarycentricTrueEcliptic -->
<g id="edge33" class="edge"><title>ICRS&#45;&gt;BarycentricTrueEcliptic</title>
<path fill="none" stroke="black" d="M543.47,-268.28C544.99,-262.474 546.634,-256.13 548.113,-250.279 549.631,-244.271 551.223,-237.841 552.733,-231.678"/>
<polygon fill="black" stroke="black" points="556.203,-232.222 555.168,-221.677 549.401,-230.565 556.203,-232.222"/>
<text text-anchor="middle" x="558.113" y="-242.279" font-family="Helvetica Neue, Helvetica, Arial, sans-serif" font-size="10.00">1.0</text>
</g>
<!-- Galactocentric -->
<g id="node16" class="node"><title>Galactocentric</title>
<ellipse fill="none" stroke="black" cx="723.113" cy="-200.066" rx="60.2083" ry="21.4286"/>
<text text-anchor="middle" x="723.113" y="-203.066" font-family="Helvetica Neue, Helvetica, Arial, sans-serif" font-size="10.00">Galactocentric</text>
<text text-anchor="middle" x="723.113" y="-192.066" font-family="Helvetica Neue, Helvetica, Arial, sans-serif" font-size="10.00">`galactocentric`</text>
</g>
<!-- ICRS&#45;&gt;Galactocentric -->
<g id="edge34" class="edge"><title>ICRS&#45;&gt;Galactocentric</title>
<path fill="none" stroke="black" d="M563.649,-280.004C584.14,-272.892 613.452,-262.038 638.113,-250.279 654.301,-242.561 671.534,-232.878 686.221,-224.148"/>
<polygon fill="black" stroke="black" points="688.242,-227.017 695.005,-218.861 684.633,-221.019 688.242,-227.017"/>
<text text-anchor="middle" x="667.113" y="-242.279" font-family="Helvetica Neue, Helvetica, Arial, sans-serif" font-size="10.00">1.0</text>
</g>
<!-- PrecessedGeocentric&#45;&gt;GCRS -->
<g id="edge41" class="edge"><title>PrecessedGeocentric&#45;&gt;GCRS</title>
<path fill="none" stroke="black" d="M376.245,-126.984C355.487,-133.5 331.476,-141.514 310.113,-149.853 285.171,-159.588 257.75,-172.24 236.911,-182.278"/>
<polygon fill="black" stroke="black" points="235.299,-179.17 227.832,-186.686 238.357,-185.467 235.299,-179.17"/>
<text text-anchor="middle" x="317.113" y="-152.853" font-family="Helvetica Neue, Helvetica, Arial, sans-serif" font-size="10.00">1.0</text>
</g>
<!-- CIRS&#45;&gt;GCRS -->
<g id="edge24" class="edge"><title>CIRS&#45;&gt;GCRS</title>
<path fill="none" stroke="black" d="M103.101,-127.224C114.818,-137.166 130.576,-150.148 145.113,-160.853 153.633,-167.127 163.127,-173.59 171.926,-179.375"/>
<polygon fill="black" stroke="black" points="170.139,-182.388 180.431,-184.902 173.953,-176.518 170.139,-182.388"/>
<text text-anchor="middle" x="152.113" y="-152.853" font-family="Helvetica Neue, Helvetica, Arial, sans-serif" font-size="10.00">1.0</text>
</g>
<!-- CIRS&#45;&gt;ICRS -->
<g id="edge21" class="edge"><title>CIRS&#45;&gt;ICRS</title>
<path fill="none" stroke="black" d="M90.9566,-131.757C99.3366,-156.846 117.261,-199.13 148.113,-221.279 204.235,-261.572 412.87,-280.038 499.755,-286.105"/>
<polygon fill="black" stroke="black" points="499.757,-289.613 509.972,-286.8 500.232,-282.629 499.757,-289.613"/>
<text text-anchor="middle" x="155.113" y="-197.566" font-family="Helvetica Neue, Helvetica, Arial, sans-serif" font-size="10.00">1.0</text>
</g>
<!-- CIRS&#45;&gt;CIRS -->
<g id="edge22" class="edge"><title>CIRS&#45;&gt;CIRS</title>
<path fill="none" stroke="black" d="M111.282,-118.817C122.169,-119.381 131.397,-116.655 131.397,-110.64 131.397,-106.692 127.423,-104.161 121.614,-103.047"/>
<polygon fill="black" stroke="black" points="121.464,-99.5328 111.282,-102.462 121.069,-106.522 121.464,-99.5328"/>
<text text-anchor="middle" x="138.397" y="-108.14" font-family="Helvetica Neue, Helvetica, Arial, sans-serif" font-size="10.00">1.0</text>
</g>
<!-- AltAz -->
<g id="node13" class="node"><title>AltAz</title>
<ellipse fill="none" stroke="black" cx="31.1127" cy="-21.2132" rx="31.2258" ry="21.4286"/>
<text text-anchor="middle" x="31.1127" y="-24.2132" font-family="Helvetica Neue, Helvetica, Arial, sans-serif" font-size="10.00">AltAz</text>
<text text-anchor="middle" x="31.1127" y="-13.2132" font-family="Helvetica Neue, Helvetica, Arial, sans-serif" font-size="10.00">`altaz`</text>
</g>
<!-- CIRS&#45;&gt;AltAz -->
<g id="edge20" class="edge"><title>CIRS&#45;&gt;AltAz</title>
<path fill="none" stroke="black" d="M61.2278,-99.2643C49.9119,-92.9809 37.4988,-83.7689 31.1127,-71.4264 28.1238,-65.6498 26.9125,-58.957 26.6859,-52.4037"/>
<polygon fill="black" stroke="black" points="30.185,-52.4852 27.0263,-42.3722 23.1891,-52.2477 30.185,-52.4852"/>
<text text-anchor="middle" x="38.1127" y="-63.4264" font-family="Helvetica Neue, Helvetica, Arial, sans-serif" font-size="10.00">1.0</text>
</g>
<!-- ITRS -->
<g id="node14" class="node"><title>ITRS</title>
<ellipse fill="none" stroke="black" cx="140.113" cy="-21.2132" rx="27.6545" ry="21.4286"/>
<text text-anchor="middle" x="140.113" y="-24.2132" font-family="Helvetica Neue, Helvetica, Arial, sans-serif" font-size="10.00">ITRS</text>
<text text-anchor="middle" x="140.113" y="-13.2132" font-family="Helvetica Neue, Helvetica, Arial, sans-serif" font-size="10.00">`itrs`</text>
</g>
<!-- CIRS&#45;&gt;ITRS -->
<g id="edge23" class="edge"><title>CIRS&#45;&gt;ITRS</title>
<path fill="none" stroke="black" d="M91.3856,-89.696C94.7534,-80.4213 99.3958,-69.469 105.113,-60.4264 108.316,-55.3601 112.222,-50.3426 116.249,-45.6917"/>
<polygon fill="black" stroke="black" points="118.873,-48.0089 123.036,-38.2666 113.706,-43.286 118.873,-48.0089"/>
<text text-anchor="middle" x="112.113" y="-63.4264" font-family="Helvetica Neue, Helvetica, Arial, sans-serif" font-size="10.00">1.0</text>
</g>
<!-- HCRS&#45;&gt;ICRS -->
<g id="edge25" class="edge"><title>HCRS&#45;&gt;ICRS</title>
<path fill="none" stroke="black" d="M819.931,-131.968C819.764,-156.484 815.611,-197.372 792.113,-221.279 762.051,-251.864 639.119,-273.781 575.961,-283.262"/>
<polygon fill="black" stroke="black" points="575.379,-279.81 565.996,-284.73 576.399,-286.736 575.379,-279.81"/>
<text text-anchor="middle" x="822.113" y="-197.566" font-family="Helvetica Neue, Helvetica, Arial, sans-serif" font-size="10.00">1.0</text>
</g>
<!-- HCRS&#45;&gt;HCRS -->
<g id="edge26" class="edge"><title>HCRS&#45;&gt;HCRS</title>
<path fill="none" stroke="black" d="M848.777,-118.871C859.833,-119.141 868.933,-116.397 868.933,-110.64 868.933,-106.771 864.825,-104.263 858.776,-103.116"/>
<polygon fill="black" stroke="black" points="859,-99.6227 848.777,-102.408 858.505,-106.605 859,-99.6227"/>
<text text-anchor="middle" x="875.933" y="-108.14" font-family="Helvetica Neue, Helvetica, Arial, sans-serif" font-size="10.00">1.0</text>
</g>
<!-- HeliocentricTrueEcliptic&#45;&gt;ICRS -->
<g id="edge19" class="edge"><title>HeliocentricTrueEcliptic&#45;&gt;ICRS</title>
<path fill="none" stroke="black" d="M399.003,-220.165C413.602,-229.773 431.966,-241.26 449.113,-250.279 466.654,-259.506 486.909,-268.337 503.661,-275.18"/>
<polygon fill="black" stroke="black" points="502.489,-278.481 513.072,-278.968 505.102,-271.988 502.489,-278.481"/>
<text text-anchor="middle" x="456.113" y="-242.279" font-family="Helvetica Neue, Helvetica, Arial, sans-serif" font-size="10.00">1.0</text>
</g>
<!-- AltAz&#45;&gt;CIRS -->
<g id="edge28" class="edge"><title>AltAz&#45;&gt;CIRS</title>
<path fill="none" stroke="black" d="M42.7344,-41.0288C50.1656,-53.06 59.9285,-68.8662 68.2105,-82.2748"/>
<polygon fill="black" stroke="black" points="65.4278,-84.4301 73.6607,-91.0987 71.3834,-80.7515 65.4278,-84.4301"/>
<text text-anchor="middle" x="69.1127" y="-63.4264" font-family="Helvetica Neue, Helvetica, Arial, sans-serif" font-size="10.00">1.0</text>
</g>
<!-- AltAz&#45;&gt;AltAz -->
<g id="edge27" class="edge"><title>AltAz&#45;&gt;AltAz</title>
<path fill="none" stroke="black" d="M59.8672,-29.431C70.9848,-29.7962 80.2254,-27.057 80.2254,-21.2132 80.2254,-17.2869 76.054,-14.7621 69.9447,-13.6386"/>
<polygon fill="black" stroke="black" points="70.0699,-10.1396 59.8672,-12.9954 69.6239,-17.1254 70.0699,-10.1396"/>
<text text-anchor="middle" x="87.2254" y="-18.7132" font-family="Helvetica Neue, Helvetica, Arial, sans-serif" font-size="10.00">1.0</text>
</g>
<!-- ITRS&#45;&gt;CIRS -->
<g id="edge39" class="edge"><title>ITRS&#45;&gt;CIRS</title>
<path fill="none" stroke="black" d="M133.319,-42.1056C129.737,-51.3691 124.884,-62.3267 119.113,-71.4264 116.081,-76.207 112.45,-80.9763 108.708,-85.4436"/>
<polygon fill="black" stroke="black" points="105.947,-83.2818 101.954,-93.0955 111.196,-87.9137 105.947,-83.2818"/>
<text text-anchor="middle" x="132.113" y="-63.4264" font-family="Helvetica Neue, Helvetica, Arial, sans-serif" font-size="10.00">1.0</text>
</g>
<!-- ITRS&#45;&gt;ITRS -->
<g id="edge40" class="edge"><title>ITRS&#45;&gt;ITRS</title>
<path fill="none" stroke="black" d="M165.883,-29.3907C176.603,-29.9547 185.69,-27.2288 185.69,-21.2132 185.69,-17.2654 181.776,-14.7345 176.056,-13.6203"/>
<polygon fill="black" stroke="black" points="176.067,-10.1153 165.883,-13.0357 175.665,-17.1037 176.067,-10.1153"/>
<text text-anchor="middle" x="192.69" y="-18.7132" font-family="Helvetica Neue, Helvetica, Arial, sans-serif" font-size="10.00">1.0</text>
</g>
<!-- BarycentricTrueEcliptic&#45;&gt;ICRS -->
<g id="edge42" class="edge"><title>BarycentricTrueEcliptic&#45;&gt;ICRS</title>
<path fill="none" stroke="black" d="M540.506,-220.969C536.262,-226.473 532.372,-232.742 530.113,-239.279 527.96,-245.507 527.795,-252.383 528.626,-258.97"/>
<polygon fill="black" stroke="black" points="525.227,-259.824 530.609,-268.95 532.093,-258.46 525.227,-259.824"/>
<text text-anchor="middle" x="537.113" y="-242.279" font-family="Helvetica Neue, Helvetica, Arial, sans-serif" font-size="10.00">1.0</text>
</g>
<!-- Galactocentric&#45;&gt;ICRS -->
<g id="edge43" class="edge"><title>Galactocentric&#45;&gt;ICRS</title>
<path fill="none" stroke="black" d="M680.284,-214.955C661.489,-221.557 639.367,-230.028 620.113,-239.279 601.973,-247.995 582.628,-259.49 567.285,-269.178"/>
<polygon fill="black" stroke="black" points="565.289,-266.3 558.754,-274.64 569.063,-272.196 565.289,-266.3"/>
<text text-anchor="middle" x="627.113" y="-242.279" font-family="Helvetica Neue, Helvetica, Arial, sans-serif" font-size="10.00">1.0</text>
</g>
<!-- SkyOffsetFrame -->
<g id="node17" class="node"><title>SkyOffsetFrame</title>
<ellipse fill="none" stroke="black" cx="1018.11" cy="-557.772" rx="52.2822" ry="18"/>
<text text-anchor="middle" x="1018.11" y="-555.272" font-family="Helvetica Neue, Helvetica, Arial, sans-serif" font-size="10.00">SkyOffsetFrame</text>
</g>
</g>
</svg>
