<?xml version="1.0" encoding="UTF-8" standalone="no"?>
<!DOCTYPE svg PUBLIC "-//W3C//DTD SVG 1.1//EN"
 "http://www.w3.org/Graphics/SVG/1.1/DTD/svg11.dtd">
<!-- Generated by graphviz version 2.38.0 (20140413.2041)
 -->
<!-- Title: %3 Pages: 1 -->
<svg width="153pt" height="260pt"
 viewBox="0.00 0.00 153.00 260.00" xmlns="http://www.w3.org/2000/svg" xmlns:xlink="http://www.w3.org/1999/xlink">
<g id="graph0" class="graph" transform="scale(1 1) rotate(0) translate(4 256)">
<title>%3</title>
<polygon fill="white" stroke="none" points="-4,4 -4,-256 149,-256 149,4 -4,4"/>
<!-- in0 -->
<g id="node1" class="node"><title>in0</title>
<text text-anchor="middle" x="36.5" y="-231.5" font-family="Helvetica Neue, Helvetica, Arial, sans-serif" font-size="10.00">input 0</text>
</g>
<!-- rot0 -->
<g id="node5" class="node"><title>rot0</title>
<polygon fill="none" stroke="black" points="106,-180 39,-180 39,-144 106,-144 106,-180"/>
<text text-anchor="middle" x="72.5" y="-159.5" font-family="Helvetica Neue, Helvetica, Arial, sans-serif" font-size="10.00">Rotation2D</text>
</g>
<!-- in0&#45;&gt;rot0 -->
<g id="edge1" class="edge"><title>in0&#45;&gt;rot0</title>
<path fill="none" stroke="black" d="M45.3989,-215.697C49.4968,-207.728 54.4488,-198.1 58.9927,-189.264"/>
<polygon fill="black" stroke="black" points="62.2425,-190.598 63.7035,-180.104 56.0174,-187.396 62.2425,-190.598"/>
</g>
<!-- in1 -->
<g id="node2" class="node"><title>in1</title>
<text text-anchor="middle" x="108.5" y="-231.5" font-family="Helvetica Neue, Helvetica, Arial, sans-serif" font-size="10.00">input 1</text>
</g>
<!-- in1&#45;&gt;rot0 -->
<g id="edge2" class="edge"><title>in1&#45;&gt;rot0</title>
<path fill="none" stroke="black" d="M99.6011,-215.697C95.5032,-207.728 90.5512,-198.1 86.0073,-189.264"/>
<polygon fill="black" stroke="black" points="88.9826,-187.396 81.2965,-180.104 82.7575,-190.598 88.9826,-187.396"/>
</g>
<!-- out0 -->
<g id="node3" class="node"><title>out0</title>
<text text-anchor="middle" x="36.5" y="-15.5" font-family="Helvetica Neue, Helvetica, Arial, sans-serif" font-size="10.00">output 0</text>
</g>
<!-- out1 -->
<g id="node4" class="node"><title>out1</title>
<text text-anchor="middle" x="108.5" y="-15.5" font-family="Helvetica Neue, Helvetica, Arial, sans-serif" font-size="10.00">output 1</text>
</g>
<!-- gaussian0 -->
<g id="node6" class="node"><title>gaussian0</title>
<polygon fill="none" stroke="black" points="145,-108 0,-108 0,-72 145,-72 145,-108"/>
<text text-anchor="middle" x="72.5" y="-87.5" font-family="Helvetica Neue, Helvetica, Arial, sans-serif" font-size="10.00">Gaussian2D(1, 0, 0, 0.1, 0.3)</text>
</g>
<!-- rot0&#45;&gt;gaussian0 -->
<g id="edge3" class="edge"><title>rot0&#45;&gt;gaussian0</title>
<path fill="none" stroke="black" d="M66.5843,-143.697C65.7886,-135.983 65.5621,-126.712 65.9047,-118.112"/>
<polygon fill="black" stroke="black" points="69.3984,-118.324 66.605,-108.104 62.4154,-117.836 69.3984,-118.324"/>
</g>
<!-- rot0&#45;&gt;gaussian0 -->
<g id="edge4" class="edge"><title>rot0&#45;&gt;gaussian0</title>
<path fill="none" stroke="black" d="M78.4157,-143.697C79.2114,-135.983 79.4379,-126.712 79.0953,-118.112"/>
<polygon fill="black" stroke="black" points="82.5846,-117.836 78.395,-108.104 75.6016,-118.324 82.5846,-117.836"/>
</g>
<!-- gaussian0&#45;&gt;out0 -->
<g id="edge5" class="edge"><title>gaussian0&#45;&gt;out0</title>
<path fill="none" stroke="black" d="M63.6011,-71.6966C59.5032,-63.7284 54.5512,-54.0995 50.0073,-45.2641"/>
<polygon fill="black" stroke="black" points="52.9826,-43.3965 45.2965,-36.1043 46.7575,-46.598 52.9826,-43.3965"/>
</g>
<!-- gaussian0&#45;&gt;out1 -->
<g id="edge6" class="edge"><title>gaussian0&#45;&gt;out1</title>
<path fill="none" stroke="black" d="M81.3989,-71.6966C85.4968,-63.7284 90.4488,-54.0995 94.9927,-45.2641"/>
<polygon fill="black" stroke="black" points="98.2425,-46.598 99.7035,-36.1043 92.0174,-43.3965 98.2425,-46.598"/>
</g>
</g>
</svg>
