<?xml version="1.0" encoding="UTF-8" standalone="no"?>
<!DOCTYPE svg PUBLIC "-//W3C//DTD SVG 1.1//EN"
 "http://www.w3.org/Graphics/SVG/1.1/DTD/svg11.dtd">
<!-- Generated by graphviz version 2.38.0 (20140413.2041)
 -->
<!-- Title: AstropyCoordinateTransformGraph Pages: 1 -->
<svg width="985pt" height="587pt"
 viewBox="0.00 0.00 984.92 586.98" xmlns="http://www.w3.org/2000/svg" xmlns:xlink="http://www.w3.org/1999/xlink">
<g id="graph0" class="graph" transform="scale(1 1) rotate(0) translate(4 582.985)">
<title>AstropyCoordinateTransformGraph</title>
<polygon fill="white" stroke="none" points="-4,4 -4,-582.985 980.924,-582.985 980.924,4 -4,4"/>
<!-- GeocentricTrueEcliptic -->
<g id="node1" class="node"><title>GeocentricTrueEcliptic</title>
<ellipse fill="none" stroke="black" cx="669.104" cy="-557.772" rx="82.9636" ry="21.4286"/>
<text text-anchor="middle" x="669.104" y="-560.772" font-family="Helvetica Neue, Helvetica, Arial, sans-serif" font-size="10.00">GeocentricTrueEcliptic</text>
<text text-anchor="middle" x="669.104" y="-549.772" font-family="Helvetica Neue, Helvetica, Arial, sans-serif" font-size="10.00">`geocentrictrueecliptic`</text>
</g>
<!-- GCRS -->
<g id="node2" class="node"><title>GCRS</title>
<ellipse fill="none" stroke="black" cx="669.104" cy="-468.345" rx="31.6406" ry="21.4286"/>
<text text-anchor="middle" x="669.104" y="-471.345" font-family="Helvetica Neue, Helvetica, Arial, sans-serif" font-size="10.00">GCRS</text>
<text text-anchor="middle" x="669.104" y="-460.345" font-family="Helvetica Neue, Helvetica, Arial, sans-serif" font-size="10.00">`gcrs`</text>
</g>
<!-- GeocentricTrueEcliptic&#45;&gt;GCRS -->
<g id="edge1" class="edge"><title>GeocentricTrueEcliptic&#45;&gt;GCRS</title>
<path fill="none" stroke="black" d="M656.807,-536.499C652.886,-527.739 650.038,-517.285 652.104,-507.558 652.783,-504.362 653.748,-501.109 654.879,-497.917"/>
<polygon fill="black" stroke="black" points="658.124,-499.229 658.643,-488.647 651.638,-496.596 658.124,-499.229"/>
<text text-anchor="middle" x="659.104" y="-510.558" font-family="Helvetica Neue, Helvetica, Arial, sans-serif" font-size="10.00">1.0</text>
</g>
<!-- GCRS&#45;&gt;GeocentricTrueEcliptic -->
<g id="edge20" class="edge"><title>GCRS&#45;&gt;GeocentricTrueEcliptic</title>
<path fill="none" stroke="black" d="M669.104,-489.815C669.104,-500.693 669.104,-514.28 669.104,-526.365"/>
<polygon fill="black" stroke="black" points="665.604,-526.494 669.104,-536.495 672.604,-526.495 665.604,-526.494"/>
<text text-anchor="middle" x="676.104" y="-510.558" font-family="Helvetica Neue, Helvetica, Arial, sans-serif" font-size="10.00">1.0</text>
</g>
<!-- GCRS&#45;&gt;GCRS -->
<g id="edge21" class="edge"><title>GCRS&#45;&gt;GCRS</title>
<path fill="none" stroke="black" d="M698.769,-476.577C709.824,-476.847 718.924,-474.103 718.924,-468.345 718.924,-464.477 714.816,-461.969 708.767,-460.821"/>
<polygon fill="black" stroke="black" points="708.991,-457.328 698.769,-460.113 708.497,-464.311 708.991,-457.328"/>
<text text-anchor="middle" x="725.924" y="-465.845" font-family="Helvetica Neue, Helvetica, Arial, sans-serif" font-size="10.00">1.0</text>
</g>
<!-- ICRS -->
<g id="node4" class="node"><title>ICRS</title>
<ellipse fill="none" stroke="black" cx="461.104" cy="-378.919" rx="28.0702" ry="21.4286"/>
<text text-anchor="middle" x="461.104" y="-381.919" font-family="Helvetica Neue, Helvetica, Arial, sans-serif" font-size="10.00">ICRS</text>
<text text-anchor="middle" x="461.104" y="-370.919" font-family="Helvetica Neue, Helvetica, Arial, sans-serif" font-size="10.00">`icrs`</text>
</g>
<!-- GCRS&#45;&gt;ICRS -->
<g id="edge19" class="edge"><title>GCRS&#45;&gt;ICRS</title>
<path fill="none" stroke="black" d="M637.866,-463.88C606.008,-459.365 555.888,-449.503 517.104,-429.132 505.108,-422.831 493.559,-413.454 484.097,-404.57"/>
<polygon fill="black" stroke="black" points="486.269,-401.798 476.675,-397.302 481.371,-406.799 486.269,-401.798"/>
<text text-anchor="middle" x="524.104" y="-421.132" font-family="Helvetica Neue, Helvetica, Arial, sans-serif" font-size="10.00">1.0</text>
</g>
<!-- CIRS -->
<g id="node9" class="node"><title>CIRS</title>
<ellipse fill="none" stroke="black" cx="655.104" cy="-289.492" rx="28.0702" ry="21.4286"/>
<text text-anchor="middle" x="655.104" y="-292.492" font-family="Helvetica Neue, Helvetica, Arial, sans-serif" font-size="10.00">CIRS</text>
<text text-anchor="middle" x="655.104" y="-281.492" font-family="Helvetica Neue, Helvetica, Arial, sans-serif" font-size="10.00">`cirs`</text>
</g>
<!-- GCRS&#45;&gt;CIRS -->
<g id="edge16" class="edge"><title>GCRS&#45;&gt;CIRS</title>
<path fill="none" stroke="black" d="M659.38,-447.911C653.369,-434.783 646.227,-416.859 643.104,-400.132 638.099,-373.32 642.379,-342.401 647.161,-320.247"/>
<polygon fill="black" stroke="black" points="650.587,-320.963 649.435,-310.431 643.768,-319.383 650.587,-320.963"/>
<text text-anchor="middle" x="650.104" y="-376.419" font-family="Helvetica Neue, Helvetica, Arial, sans-serif" font-size="10.00">1.0</text>
</g>
<!-- PrecessedGeocentric -->
<g id="node12" class="node"><title>PrecessedGeocentric</title>
<ellipse fill="none" stroke="black" cx="782.104" cy="-378.919" rx="81.135" ry="21.4286"/>
<text text-anchor="middle" x="782.104" y="-381.919" font-family="Helvetica Neue, Helvetica, Arial, sans-serif" font-size="10.00">PrecessedGeocentric</text>
<text text-anchor="middle" x="782.104" y="-370.919" font-family="Helvetica Neue, Helvetica, Arial, sans-serif" font-size="10.00">`precessedgeocentric`</text>
</g>
<!-- GCRS&#45;&gt;PrecessedGeocentric -->
<g id="edge18" class="edge"><title>GCRS&#45;&gt;PrecessedGeocentric</title>
<path fill="none" stroke="black" d="M686.461,-450.175C696.747,-440.35 710.247,-428.047 723.104,-418.132 729.288,-413.364 736.066,-408.592 742.755,-404.116"/>
<polygon fill="black" stroke="black" points="744.684,-407.036 751.129,-398.627 740.847,-401.182 744.684,-407.036"/>
<text text-anchor="middle" x="730.104" y="-421.132" font-family="Helvetica Neue, Helvetica, Arial, sans-serif" font-size="10.00">1.0</text>
</g>
<!-- HCRS -->
<g id="node14" class="node"><title>HCRS</title>
<ellipse fill="none" stroke="black" cx="913.104" cy="-378.919" rx="31.6406" ry="21.4286"/>
<text text-anchor="middle" x="913.104" y="-381.919" font-family="Helvetica Neue, Helvetica, Arial, sans-serif" font-size="10.00">HCRS</text>
<text text-anchor="middle" x="913.104" y="-370.919" font-family="Helvetica Neue, Helvetica, Arial, sans-serif" font-size="10.00">`hcrs`</text>
</g>
<!-- GCRS&#45;&gt;HCRS -->
<g id="edge17" class="edge"><title>GCRS&#45;&gt;HCRS</title>
<path fill="none" stroke="black" d="M698.134,-459.113C737.951,-447.512 811.472,-424.976 872.104,-400.132 874.482,-399.158 876.913,-398.107 879.348,-397.014"/>
<polygon fill="black" stroke="black" points="881.067,-400.074 888.641,-392.665 878.1,-393.734 881.067,-400.074"/>
<text text-anchor="middle" x="830.104" y="-421.132" font-family="Helvetica Neue, Helvetica, Arial, sans-serif" font-size="10.00">1.0</text>
</g>
<!-- Galactocentric -->
<g id="node3" class="node"><title>Galactocentric</title>
<ellipse fill="none" stroke="black" cx="60.1041" cy="-289.492" rx="60.2083" ry="21.4286"/>
<text text-anchor="middle" x="60.1041" y="-292.492" font-family="Helvetica Neue, Helvetica, Arial, sans-serif" font-size="10.00">Galactocentric</text>
<text text-anchor="middle" x="60.1041" y="-281.492" font-family="Helvetica Neue, Helvetica, Arial, sans-serif" font-size="10.00">`galactocentric`</text>
</g>
<!-- Galactocentric&#45;&gt;ICRS -->
<g id="edge2" class="edge"><title>Galactocentric&#45;&gt;ICRS</title>
<path fill="none" stroke="black" d="M104.133,-303.955C112.399,-306.322 120.991,-308.674 129.104,-310.706 235.072,-337.237 362.056,-360.653 423.766,-371.507"/>
<polygon fill="black" stroke="black" points="423.35,-374.987 433.804,-373.262 424.556,-368.092 423.35,-374.987"/>
<text text-anchor="middle" x="264.104" y="-331.706" font-family="Helvetica Neue, Helvetica, Arial, sans-serif" font-size="10.00">1.0</text>
</g>
<!-- ICRS&#45;&gt;GCRS -->
<g id="edge32" class="edge"><title>ICRS&#45;&gt;GCRS</title>
<path fill="none" stroke="black" d="M485.301,-390.089C521.785,-405.424 591.098,-434.558 633.396,-452.337"/>
<polygon fill="black" stroke="black" points="632.186,-455.624 642.761,-456.273 634.898,-449.171 632.186,-455.624"/>
<text text-anchor="middle" x="585.104" y="-421.132" font-family="Helvetica Neue, Helvetica, Arial, sans-serif" font-size="10.00">1.0</text>
</g>
<!-- ICRS&#45;&gt;Galactocentric -->
<g id="edge27" class="edge"><title>ICRS&#45;&gt;Galactocentric</title>
<path fill="none" stroke="black" d="M432.945,-375.886C383.697,-371.893 278.985,-361.453 193.104,-339.706 163.475,-332.203 131.307,-320.404 106.029,-310.24"/>
<polygon fill="black" stroke="black" points="107.28,-306.97 96.6981,-306.437 104.638,-313.452 107.28,-306.97"/>
<text text-anchor="middle" x="200.104" y="-331.706" font-family="Helvetica Neue, Helvetica, Arial, sans-serif" font-size="10.00">1.0</text>
</g>
<!-- HeliocentricTrueEcliptic -->
<g id="node5" class="node"><title>HeliocentricTrueEcliptic</title>
<ellipse fill="none" stroke="black" cx="412.104" cy="-289.492" rx="86.0347" ry="21.4286"/>
<text text-anchor="middle" x="412.104" y="-292.492" font-family="Helvetica Neue, Helvetica, Arial, sans-serif" font-size="10.00">HeliocentricTrueEcliptic</text>
<text text-anchor="middle" x="412.104" y="-281.492" font-family="Helvetica Neue, Helvetica, Arial, sans-serif" font-size="10.00">`heliocentrictrueecliptic`</text>
</g>
<!-- ICRS&#45;&gt;HeliocentricTrueEcliptic -->
<g id="edge31" class="edge"><title>ICRS&#45;&gt;HeliocentricTrueEcliptic</title>
<path fill="none" stroke="black" d="M439.38,-364.944C430.611,-358.511 421.343,-349.92 416.104,-339.706 413.247,-334.135 411.694,-327.738 410.935,-321.439"/>
<polygon fill="black" stroke="black" points="414.407,-320.867 410.314,-311.094 407.419,-321.286 414.407,-320.867"/>
<text text-anchor="middle" x="423.104" y="-331.706" font-family="Helvetica Neue, Helvetica, Arial, sans-serif" font-size="10.00">1.0</text>
</g>
<!-- FK5 -->
<g id="node6" class="node"><title>FK5</title>
<ellipse fill="none" stroke="black" cx="543.104" cy="-289.492" rx="27" ry="21.4286"/>
<text text-anchor="middle" x="543.104" y="-292.492" font-family="Helvetica Neue, Helvetica, Arial, sans-serif" font-size="10.00">FK5</text>
<text text-anchor="middle" x="543.104" y="-281.492" font-family="Helvetica Neue, Helvetica, Arial, sans-serif" font-size="10.00">`fk5`</text>
</g>
<!-- ICRS&#45;&gt;FK5 -->
<g id="edge28" class="edge"><title>ICRS&#45;&gt;FK5</title>
<path fill="none" stroke="black" d="M465.667,-357.658C468.588,-348.096 473.167,-336.992 480.104,-328.706 482.671,-325.639 497.762,-316.451 512.529,-307.853"/>
<polygon fill="black" stroke="black" points="514.656,-310.666 521.567,-302.636 511.157,-304.604 514.656,-310.666"/>
<text text-anchor="middle" x="488.104" y="-331.706" font-family="Helvetica Neue, Helvetica, Arial, sans-serif" font-size="10.00">1.0</text>
</g>
<!-- ICRS&#45;&gt;CIRS -->
<g id="edge30" class="edge"><title>ICRS&#45;&gt;CIRS</title>
<path fill="none" stroke="black" d="M482.031,-364.632C499.665,-353.861 525.832,-338.854 550.104,-328.706 576.183,-317.802 584.637,-320.631 611.104,-310.706 614.892,-309.285 618.811,-307.684 622.677,-306.021"/>
<polygon fill="black" stroke="black" points="624.371,-309.098 632.076,-301.826 621.518,-302.706 624.371,-309.098"/>
<text text-anchor="middle" x="559.104" y="-331.706" font-family="Helvetica Neue, Helvetica, Arial, sans-serif" font-size="10.00">1.0</text>
</g>
<!-- BarycentricTrueEcliptic -->
<g id="node16" class="node"><title>BarycentricTrueEcliptic</title>
<ellipse fill="none" stroke="black" cx="223.104" cy="-289.492" rx="84.7059" ry="21.4286"/>
<text text-anchor="middle" x="223.104" y="-292.492" font-family="Helvetica Neue, Helvetica, Arial, sans-serif" font-size="10.00">BarycentricTrueEcliptic</text>
<text text-anchor="middle" x="223.104" y="-281.492" font-family="Helvetica Neue, Helvetica, Arial, sans-serif" font-size="10.00">`barycentrictrueecliptic`</text>
</g>
<!-- ICRS&#45;&gt;BarycentricTrueEcliptic -->
<g id="edge29" class="edge"><title>ICRS&#45;&gt;BarycentricTrueEcliptic</title>
<path fill="none" stroke="black" d="M433.686,-373.265C402.891,-367.519 351.769,-356.411 310.104,-339.706 293.431,-333.021 276.017,-323.695 261.187,-314.958"/>
<polygon fill="black" stroke="black" points="262.69,-311.778 252.317,-309.622 259.082,-317.776 262.69,-311.778"/>
<text text-anchor="middle" x="317.104" y="-331.706" font-family="Helvetica Neue, Helvetica, Arial, sans-serif" font-size="10.00">1.0</text>
</g>
<!-- HeliocentricTrueEcliptic&#45;&gt;ICRS -->
<g id="edge3" class="edge"><title>HeliocentricTrueEcliptic&#45;&gt;ICRS</title>
<path fill="none" stroke="black" d="M423.398,-310.642C429.956,-322.343 438.314,-337.257 445.494,-350.068"/>
<polygon fill="black" stroke="black" points="442.529,-351.937 450.472,-358.949 448.636,-348.514 442.529,-351.937"/>
<text text-anchor="middle" x="447.104" y="-331.706" font-family="Helvetica Neue, Helvetica, Arial, sans-serif" font-size="10.00">1.0</text>
</g>
<!-- FK5&#45;&gt;ICRS -->
<g id="edge4" class="edge"><title>FK5&#45;&gt;ICRS</title>
<path fill="none" stroke="black" d="M527.62,-307.001C515.265,-320.173 497.78,-338.816 483.837,-353.682"/>
<polygon fill="black" stroke="black" points="481.203,-351.374 476.915,-361.062 486.308,-356.163 481.203,-351.374"/>
<text text-anchor="middle" x="514.104" y="-331.706" font-family="Helvetica Neue, Helvetica, Arial, sans-serif" font-size="10.00">1.0</text>
</g>
<!-- FK5&#45;&gt;FK5 -->
<g id="edge7" class="edge"><title>FK5&#45;&gt;FK5</title>
<path fill="none" stroke="black" d="M568.093,-297.644C578.874,-298.311 588.104,-295.594 588.104,-289.492 588.104,-285.488 584.129,-282.942 578.349,-281.853"/>
<polygon fill="black" stroke="black" points="578.255,-278.344 568.093,-281.341 577.906,-285.335 578.255,-278.344"/>
<text text-anchor="middle" x="595.104" y="-286.992" font-family="Helvetica Neue, Helvetica, Arial, sans-serif" font-size="10.00">1.0</text>
</g>
<!-- Galactic -->
<g id="node7" class="node"><title>Galactic</title>
<ellipse fill="none" stroke="black" cx="522.104" cy="-110.64" rx="40.1111" ry="21.4286"/>
<text text-anchor="middle" x="522.104" y="-113.64" font-family="Helvetica Neue, Helvetica, Arial, sans-serif" font-size="10.00">Galactic</text>
<text text-anchor="middle" x="522.104" y="-102.64" font-family="Helvetica Neue, Helvetica, Arial, sans-serif" font-size="10.00">`galactic`</text>
</g>
<!-- FK5&#45;&gt;Galactic -->
<g id="edge5" class="edge"><title>FK5&#45;&gt;Galactic</title>
<path fill="none" stroke="black" d="M547.947,-268.473C553.662,-240.844 560.673,-189.898 546.104,-149.853 544.823,-146.333 543.184,-142.795 541.364,-139.368"/>
<polygon fill="black" stroke="black" points="544.328,-137.502 536.25,-130.647 538.29,-141.043 544.328,-137.502"/>
<text text-anchor="middle" x="562.104" y="-197.566" font-family="Helvetica Neue, Helvetica, Arial, sans-serif" font-size="10.00">1.0</text>
</g>
<!-- FK4NoETerms -->
<g id="node8" class="node"><title>FK4NoETerms</title>
<ellipse fill="none" stroke="black" cx="405.104" cy="-200.066" rx="58.8803" ry="21.4286"/>
<text text-anchor="middle" x="405.104" y="-203.066" font-family="Helvetica Neue, Helvetica, Arial, sans-serif" font-size="10.00">FK4NoETerms</text>
<text text-anchor="middle" x="405.104" y="-192.066" font-family="Helvetica Neue, Helvetica, Arial, sans-serif" font-size="10.00">`fk4noeterms`</text>
</g>
<!-- FK5&#45;&gt;FK4NoETerms -->
<g id="edge6" class="edge"><title>FK5&#45;&gt;FK4NoETerms</title>
<path fill="none" stroke="black" d="M522.136,-275.816C517.29,-273.142 512.091,-270.47 507.104,-268.279 483.556,-257.934 473.864,-263.992 452.104,-250.279 442.959,-244.516 434.346,-236.585 427.055,-228.773"/>
<polygon fill="black" stroke="black" points="429.488,-226.241 420.232,-221.085 424.252,-230.888 429.488,-226.241"/>
<text text-anchor="middle" x="459.104" y="-242.279" font-family="Helvetica Neue, Helvetica, Arial, sans-serif" font-size="10.00">1.0</text>
</g>
<!-- Galactic&#45;&gt;FK5 -->
<g id="edge35" class="edge"><title>Galactic&#45;&gt;FK5</title>
<path fill="none" stroke="black" d="M524.497,-131.847C527.103,-153.847 531.396,-190.063 535.104,-221.279 536.537,-233.341 538.117,-246.619 539.492,-258.166"/>
<polygon fill="black" stroke="black" points="536.028,-258.682 540.686,-268.198 542.979,-257.854 536.028,-258.682"/>
<text text-anchor="middle" x="542.104" y="-197.566" font-family="Helvetica Neue, Helvetica, Arial, sans-serif" font-size="10.00">1.0</text>
</g>
<!-- Galactic&#45;&gt;FK4NoETerms -->
<g id="edge33" class="edge"><title>Galactic&#45;&gt;FK4NoETerms</title>
<path fill="none" stroke="black" d="M494.345,-126.126C482.481,-132.777 468.718,-141.121 457.104,-149.853 448.162,-156.575 439.081,-164.654 431.063,-172.304"/>
<polygon fill="black" stroke="black" points="428.153,-170.254 423.444,-179.745 433.044,-175.261 428.153,-170.254"/>
<text text-anchor="middle" x="464.104" y="-152.853" font-family="Helvetica Neue, Helvetica, Arial, sans-serif" font-size="10.00">1.0</text>
</g>
<!-- Supergalactic -->
<g id="node15" class="node"><title>Supergalactic</title>
<ellipse fill="none" stroke="black" cx="522.104" cy="-21.2132" rx="57.9655" ry="21.4286"/>
<text text-anchor="middle" x="522.104" y="-24.2132" font-family="Helvetica Neue, Helvetica, Arial, sans-serif" font-size="10.00">Supergalactic</text>
<text text-anchor="middle" x="522.104" y="-13.2132" font-family="Helvetica Neue, Helvetica, Arial, sans-serif" font-size="10.00">`supergalactic`</text>
</g>
<!-- Galactic&#45;&gt;Supergalactic -->
<g id="edge34" class="edge"><title>Galactic&#45;&gt;Supergalactic</title>
<path fill="none" stroke="black" d="M510.843,-90.0049C508.08,-84.2076 505.513,-77.7241 504.104,-71.4264 502.644,-64.9011 503.506,-58.0659 505.478,-51.6368"/>
<polygon fill="black" stroke="black" points="508.878,-52.5569 509.314,-41.9711 502.372,-49.9747 508.878,-52.5569"/>
<text text-anchor="middle" x="511.104" y="-63.4264" font-family="Helvetica Neue, Helvetica, Arial, sans-serif" font-size="10.00">1.0</text>
</g>
<!-- FK4NoETerms&#45;&gt;FK5 -->
<g id="edge38" class="edge"><title>FK4NoETerms&#45;&gt;FK5</title>
<path fill="none" stroke="black" d="M433.381,-218.706C443.694,-225.159 455.438,-232.53 466.104,-239.279 481.98,-249.325 499.645,-260.608 514.047,-269.833"/>
<polygon fill="black" stroke="black" points="512.239,-272.832 522.547,-275.282 516.017,-266.939 512.239,-272.832"/>
<text text-anchor="middle" x="490.104" y="-242.279" font-family="Helvetica Neue, Helvetica, Arial, sans-serif" font-size="10.00">1.0</text>
</g>
<!-- FK4NoETerms&#45;&gt;Galactic -->
<g id="edge36" class="edge"><title>FK4NoETerms&#45;&gt;Galactic</title>
<path fill="none" stroke="black" d="M437.655,-182.294C448.645,-176.097 460.745,-168.666 471.104,-160.853 480.43,-153.819 489.853,-145.234 498.019,-137.215"/>
<polygon fill="black" stroke="black" points="500.554,-139.629 505.125,-130.071 495.591,-134.693 500.554,-139.629"/>
<text text-anchor="middle" x="492.104" y="-152.853" font-family="Helvetica Neue, Helvetica, Arial, sans-serif" font-size="10.00">1.0</text>
</g>
<!-- FK4NoETerms&#45;&gt;FK4NoETerms -->
<g id="edge37" class="edge"><title>FK4NoETerms&#45;&gt;FK4NoETerms</title>
<path fill="none" stroke="black" d="M459.559,-208.153C472.354,-207.488 481.794,-204.793 481.794,-200.066 481.794,-196.743 477.127,-194.423 469.909,-193.108"/>
<polygon fill="black" stroke="black" points="469.88,-189.584 459.559,-191.979 469.121,-196.543 469.88,-189.584"/>
<text text-anchor="middle" x="488.794" y="-197.566" font-family="Helvetica Neue, Helvetica, Arial, sans-serif" font-size="10.00">1.0</text>
</g>
<!-- FK4 -->
<g id="node13" class="node"><title>FK4</title>
<ellipse fill="none" stroke="black" cx="396.104" cy="-110.64" rx="27" ry="21.4286"/>
<text text-anchor="middle" x="396.104" y="-113.64" font-family="Helvetica Neue, Helvetica, Arial, sans-serif" font-size="10.00">FK4</text>
<text text-anchor="middle" x="396.104" y="-102.64" font-family="Helvetica Neue, Helvetica, Arial, sans-serif" font-size="10.00">`fk4`</text>
</g>
<!-- FK4NoETerms&#45;&gt;FK4 -->
<g id="edge39" class="edge"><title>FK4NoETerms&#45;&gt;FK4</title>
<path fill="none" stroke="black" d="M403.017,-178.789C401.892,-167.865 400.482,-154.169 399.229,-142"/>
<polygon fill="black" stroke="black" points="402.686,-141.396 398.18,-131.807 395.723,-142.113 402.686,-141.396"/>
<text text-anchor="middle" x="409.104" y="-152.853" font-family="Helvetica Neue, Helvetica, Arial, sans-serif" font-size="10.00">1.0</text>
</g>
<!-- CIRS&#45;&gt;GCRS -->
<g id="edge11" class="edge"><title>CIRS&#45;&gt;GCRS</title>
<path fill="none" stroke="black" d="M656.713,-310.815C659.155,-341.67 663.817,-400.552 666.674,-436.645"/>
<polygon fill="black" stroke="black" points="663.22,-437.365 667.498,-447.058 670.198,-436.813 663.22,-437.365"/>
<text text-anchor="middle" x="671.104" y="-376.419" font-family="Helvetica Neue, Helvetica, Arial, sans-serif" font-size="10.00">1.0</text>
</g>
<!-- CIRS&#45;&gt;ICRS -->
<g id="edge9" class="edge"><title>CIRS&#45;&gt;ICRS</title>
<path fill="none" stroke="black" d="M633.836,-303.891C616.545,-314.445 591.303,-329.097 568.104,-339.706 544.875,-350.328 517.768,-359.982 496.65,-366.929"/>
<polygon fill="black" stroke="black" points="495.542,-363.608 487.107,-370.019 497.699,-370.268 495.542,-363.608"/>
<text text-anchor="middle" x="598.104" y="-331.706" font-family="Helvetica Neue, Helvetica, Arial, sans-serif" font-size="10.00">1.0</text>
</g>
<!-- CIRS&#45;&gt;CIRS -->
<g id="edge12" class="edge"><title>CIRS&#45;&gt;CIRS</title>
<path fill="none" stroke="black" d="M681.274,-297.67C692.16,-298.234 701.388,-295.508 701.388,-289.492 701.388,-285.545 697.414,-283.014 691.605,-281.9"/>
<polygon fill="black" stroke="black" points="691.455,-278.386 681.274,-281.315 691.06,-285.374 691.455,-278.386"/>
<text text-anchor="middle" x="708.388" y="-286.992" font-family="Helvetica Neue, Helvetica, Arial, sans-serif" font-size="10.00">1.0</text>
</g>
<!-- AltAz -->
<g id="node10" class="node"><title>AltAz</title>
<ellipse fill="none" stroke="black" cx="645.104" cy="-200.066" rx="31.2258" ry="21.4286"/>
<text text-anchor="middle" x="645.104" y="-203.066" font-family="Helvetica Neue, Helvetica, Arial, sans-serif" font-size="10.00">AltAz</text>
<text text-anchor="middle" x="645.104" y="-192.066" font-family="Helvetica Neue, Helvetica, Arial, sans-serif" font-size="10.00">`altaz`</text>
</g>
<!-- CIRS&#45;&gt;AltAz -->
<g id="edge8" class="edge"><title>CIRS&#45;&gt;AltAz</title>
<path fill="none" stroke="black" d="M640.562,-270.917C636.337,-264.77 632.278,-257.573 630.104,-250.279 628.116,-243.608 628.728,-236.437 630.542,-229.69"/>
<polygon fill="black" stroke="black" points="633.859,-230.809 633.897,-220.214 627.26,-228.472 633.859,-230.809"/>
<text text-anchor="middle" x="637.104" y="-242.279" font-family="Helvetica Neue, Helvetica, Arial, sans-serif" font-size="10.00">1.0</text>
</g>
<!-- ITRS -->
<g id="node11" class="node"><title>ITRS</title>
<ellipse fill="none" stroke="black" cx="754.104" cy="-200.066" rx="27.6545" ry="21.4286"/>
<text text-anchor="middle" x="754.104" y="-203.066" font-family="Helvetica Neue, Helvetica, Arial, sans-serif" font-size="10.00">ITRS</text>
<text text-anchor="middle" x="754.104" y="-192.066" font-family="Helvetica Neue, Helvetica, Arial, sans-serif" font-size="10.00">`itrs`</text>
</g>
<!-- CIRS&#45;&gt;ITRS -->
<g id="edge10" class="edge"><title>CIRS&#45;&gt;ITRS</title>
<path fill="none" stroke="black" d="M672.803,-272.862C688.43,-259.063 711.389,-238.787 728.927,-223.299"/>
<polygon fill="black" stroke="black" points="731.379,-225.804 736.558,-216.561 726.746,-220.557 731.379,-225.804"/>
<text text-anchor="middle" x="718.104" y="-242.279" font-family="Helvetica Neue, Helvetica, Arial, sans-serif" font-size="10.00">1.0</text>
</g>
<!-- AltAz&#45;&gt;CIRS -->
<g id="edge26" class="edge"><title>AltAz&#45;&gt;CIRS</title>
<path fill="none" stroke="black" d="M647.411,-221.233C648.658,-232.138 650.224,-245.831 651.617,-258.01"/>
<polygon fill="black" stroke="black" points="648.171,-258.678 652.785,-268.215 655.126,-257.882 648.171,-258.678"/>
<text text-anchor="middle" x="658.104" y="-242.279" font-family="Helvetica Neue, Helvetica, Arial, sans-serif" font-size="10.00">1.0</text>
</g>
<!-- AltAz&#45;&gt;AltAz -->
<g id="edge25" class="edge"><title>AltAz&#45;&gt;AltAz</title>
<path fill="none" stroke="black" d="M673.859,-208.284C684.976,-208.649 694.217,-205.91 694.217,-200.066 694.217,-196.14 690.045,-193.615 683.936,-192.491"/>
<polygon fill="black" stroke="black" points="684.061,-188.992 673.859,-191.848 683.615,-195.978 684.061,-188.992"/>
<text text-anchor="middle" x="701.217" y="-197.566" font-family="Helvetica Neue, Helvetica, Arial, sans-serif" font-size="10.00">1.0</text>
</g>
<!-- ITRS&#45;&gt;CIRS -->
<g id="edge40" class="edge"><title>ITRS&#45;&gt;CIRS</title>
<path fill="none" stroke="black" d="M746.842,-221.047C742.545,-230.77 736.319,-242.095 728.104,-250.279 717.339,-261.003 702.94,-269.406 689.776,-275.569"/>
<polygon fill="black" stroke="black" points="688.221,-272.429 680.478,-279.661 691.041,-278.836 688.221,-272.429"/>
<text text-anchor="middle" x="744.104" y="-242.279" font-family="Helvetica Neue, Helvetica, Arial, sans-serif" font-size="10.00">1.0</text>
</g>
<!-- ITRS&#45;&gt;ITRS -->
<g id="edge41" class="edge"><title>ITRS&#45;&gt;ITRS</title>
<path fill="none" stroke="black" d="M779.874,-208.244C790.594,-208.807 799.681,-206.082 799.681,-200.066 799.681,-196.118 795.768,-193.587 790.047,-192.473"/>
<polygon fill="black" stroke="black" points="790.058,-188.968 779.874,-191.889 789.657,-195.957 790.058,-188.968"/>
<text text-anchor="middle" x="806.681" y="-197.566" font-family="Helvetica Neue, Helvetica, Arial, sans-serif" font-size="10.00">1.0</text>
</g>
<!-- PrecessedGeocentric&#45;&gt;GCRS -->
<g id="edge13" class="edge"><title>PrecessedGeocentric&#45;&gt;GCRS</title>
<path fill="none" stroke="black" d="M768.087,-400.192C760.797,-409.758 751.291,-420.86 741.104,-429.132 730.162,-438.018 716.834,-445.775 704.634,-451.935"/>
<polygon fill="black" stroke="black" points="703.051,-448.813 695.582,-456.327 706.107,-455.11 703.051,-448.813"/>
<text text-anchor="middle" x="760.104" y="-421.132" font-family="Helvetica Neue, Helvetica, Arial, sans-serif" font-size="10.00">1.0</text>
</g>
<!-- FK4&#45;&gt;FK4NoETerms -->
<g id="edge14" class="edge"><title>FK4&#45;&gt;FK4NoETerms</title>
<path fill="none" stroke="black" d="M384.105,-129.773C379.448,-139.025 375.912,-150.486 379.104,-160.853 380.151,-164.253 381.616,-167.623 383.322,-170.869"/>
<polygon fill="black" stroke="black" points="380.447,-172.879 388.622,-179.618 386.434,-169.252 380.447,-172.879"/>
<text text-anchor="middle" x="386.104" y="-152.853" font-family="Helvetica Neue, Helvetica, Arial, sans-serif" font-size="10.00">1.0</text>
</g>
<!-- FK4&#45;&gt;FK4 -->
<g id="edge15" class="edge"><title>FK4&#45;&gt;FK4</title>
<path fill="none" stroke="black" d="M421.093,-118.791C431.874,-119.458 441.104,-116.741 441.104,-110.64 441.104,-106.635 437.129,-104.089 431.349,-103"/>
<polygon fill="black" stroke="black" points="431.255,-99.4909 421.093,-102.488 430.906,-106.482 431.255,-99.4909"/>
<text text-anchor="middle" x="448.104" y="-108.14" font-family="Helvetica Neue, Helvetica, Arial, sans-serif" font-size="10.00">1.0</text>
</g>
<!-- HCRS&#45;&gt;HCRS -->
<g id="edge22" class="edge"><title>HCRS&#45;&gt;HCRS</title>
<path fill="none" stroke="black" d="M942.769,-387.151C953.824,-387.421 962.924,-384.677 962.924,-378.919 962.924,-375.05 958.816,-372.542 952.767,-371.395"/>
<polygon fill="black" stroke="black" points="952.991,-367.902 942.769,-370.687 952.497,-374.884 952.991,-367.902"/>
<text text-anchor="middle" x="969.924" y="-376.419" font-family="Helvetica Neue, Helvetica, Arial, sans-serif" font-size="10.00">1.0</text>
</g>
<!-- Supergalactic&#45;&gt;Galactic -->
<g id="edge23" class="edge"><title>Supergalactic&#45;&gt;Galactic</title>
<path fill="none" stroke="black" d="M522.104,-42.6832C522.104,-53.5614 522.104,-67.1475 522.104,-79.2335"/>
<polygon fill="black" stroke="black" points="518.604,-79.3625 522.104,-89.3625 525.604,-79.3625 518.604,-79.3625"/>
<text text-anchor="middle" x="529.104" y="-63.4264" font-family="Helvetica Neue, Helvetica, Arial, sans-serif" font-size="10.00">1.0</text>
</g>
<!-- BarycentricTrueEcliptic&#45;&gt;ICRS -->
<g id="edge24" class="edge"><title>BarycentricTrueEcliptic&#45;&gt;ICRS</title>
<path fill="none" stroke="black" d="M269.325,-307.471C315.443,-324.412 385.237,-350.05 426.688,-365.276"/>
<polygon fill="black" stroke="black" points="425.49,-368.565 436.084,-368.728 427.904,-361.994 425.49,-368.565"/>
<text text-anchor="middle" x="364.104" y="-331.706" font-family="Helvetica Neue, Helvetica, Arial, sans-serif" font-size="10.00">1.0</text>
</g>
</g>
</svg>
