<?xml version="1.0" encoding="UTF-8" standalone="no"?>
<!DOCTYPE svg PUBLIC "-//W3C//DTD SVG 1.1//EN"
 "http://www.w3.org/Graphics/SVG/1.1/DTD/svg11.dtd">
<!-- Generated by graphviz version 2.38.0 (20140413.2041)
 -->
<!-- Title: AstropyCoordinateTransformGraph Pages: 1 -->
<svg width="938pt" height="587pt"
 viewBox="0.00 0.00 938.01 586.98" xmlns="http://www.w3.org/2000/svg" xmlns:xlink="http://www.w3.org/1999/xlink">
<g id="graph0" class="graph" transform="scale(1 1) rotate(0) translate(4 582.985)">
<title>AstropyCoordinateTransformGraph</title>
<polygon fill="white" stroke="none" points="-4,4 -4,-582.985 934.007,-582.985 934.007,4 -4,4"/>
<!-- AltAz -->
<g id="node1" class="node"><title>AltAz</title>
<ellipse fill="none" stroke="black" cx="590.69" cy="-557.772" rx="31.2258" ry="21.4286"/>
<text text-anchor="middle" x="590.69" y="-560.772" font-family="Helvetica Neue, Helvetica, Arial, sans-serif" font-size="10.00">AltAz</text>
<text text-anchor="middle" x="590.69" y="-549.772" font-family="Helvetica Neue, Helvetica, Arial, sans-serif" font-size="10.00">`altaz`</text>
</g>
<!-- AltAz&#45;&gt;AltAz -->
<g id="edge1" class="edge"><title>AltAz&#45;&gt;AltAz</title>
<path fill="none" stroke="black" d="M619.444,-565.989C630.562,-566.355 639.803,-563.615 639.803,-557.772 639.803,-553.845 635.631,-551.321 629.522,-550.197"/>
<polygon fill="black" stroke="black" points="629.647,-546.698 619.444,-549.554 629.201,-553.684 629.647,-546.698"/>
<text text-anchor="middle" x="646.803" y="-555.272" font-family="Helvetica Neue, Helvetica, Arial, sans-serif" font-size="10.00">1.0</text>
</g>
<!-- CIRS -->
<g id="node2" class="node"><title>CIRS</title>
<ellipse fill="none" stroke="black" cx="590.69" cy="-468.345" rx="28.0702" ry="21.4286"/>
<text text-anchor="middle" x="590.69" y="-471.345" font-family="Helvetica Neue, Helvetica, Arial, sans-serif" font-size="10.00">CIRS</text>
<text text-anchor="middle" x="590.69" y="-460.345" font-family="Helvetica Neue, Helvetica, Arial, sans-serif" font-size="10.00">`cirs`</text>
</g>
<!-- AltAz&#45;&gt;CIRS -->
<g id="edge2" class="edge"><title>AltAz&#45;&gt;CIRS</title>
<path fill="none" stroke="black" d="M580.229,-537.47C577.552,-531.572 575.048,-524.951 573.69,-518.558 572.226,-511.667 573.229,-504.41 575.333,-497.65"/>
<polygon fill="black" stroke="black" points="578.647,-498.787 579.043,-488.199 572.131,-496.229 578.647,-498.787"/>
<text text-anchor="middle" x="580.69" y="-510.558" font-family="Helvetica Neue, Helvetica, Arial, sans-serif" font-size="10.00">1.0</text>
</g>
<!-- CIRS&#45;&gt;AltAz -->
<g id="edge5" class="edge"><title>CIRS&#45;&gt;AltAz</title>
<path fill="none" stroke="black" d="M590.69,-489.815C590.69,-500.693 590.69,-514.28 590.69,-526.365"/>
<polygon fill="black" stroke="black" points="587.19,-526.494 590.69,-536.495 594.19,-526.495 587.19,-526.494"/>
<text text-anchor="middle" x="597.69" y="-510.558" font-family="Helvetica Neue, Helvetica, Arial, sans-serif" font-size="10.00">1.0</text>
</g>
<!-- CIRS&#45;&gt;CIRS -->
<g id="edge6" class="edge"><title>CIRS&#45;&gt;CIRS</title>
<path fill="none" stroke="black" d="M616.859,-476.523C627.746,-477.087 636.974,-474.361 636.974,-468.345 636.974,-464.397 633,-461.867 627.191,-460.752"/>
<polygon fill="black" stroke="black" points="627.041,-457.238 616.859,-460.168 626.646,-464.227 627.041,-457.238"/>
<text text-anchor="middle" x="643.974" y="-465.845" font-family="Helvetica Neue, Helvetica, Arial, sans-serif" font-size="10.00">1.0</text>
</g>
<!-- ICRS -->
<g id="node3" class="node"><title>ICRS</title>
<ellipse fill="none" stroke="black" cx="411.69" cy="-378.919" rx="28.0702" ry="21.4286"/>
<text text-anchor="middle" x="411.69" y="-381.919" font-family="Helvetica Neue, Helvetica, Arial, sans-serif" font-size="10.00">ICRS</text>
<text text-anchor="middle" x="411.69" y="-370.919" font-family="Helvetica Neue, Helvetica, Arial, sans-serif" font-size="10.00">`icrs`</text>
</g>
<!-- CIRS&#45;&gt;ICRS -->
<g id="edge3" class="edge"><title>CIRS&#45;&gt;ICRS</title>
<path fill="none" stroke="black" d="M562.734,-464.254C533.821,-460.015 488.283,-450.348 454.69,-429.132 445.337,-423.225 436.871,-414.679 429.973,-406.361"/>
<polygon fill="black" stroke="black" points="432.535,-403.955 423.623,-398.225 427.016,-408.262 432.535,-403.955"/>
<text text-anchor="middle" x="461.69" y="-421.132" font-family="Helvetica Neue, Helvetica, Arial, sans-serif" font-size="10.00">1.0</text>
</g>
<!-- GCRS -->
<g id="node4" class="node"><title>GCRS</title>
<ellipse fill="none" stroke="black" cx="703.69" cy="-289.492" rx="31.6406" ry="21.4286"/>
<text text-anchor="middle" x="703.69" y="-292.492" font-family="Helvetica Neue, Helvetica, Arial, sans-serif" font-size="10.00">GCRS</text>
<text text-anchor="middle" x="703.69" y="-281.492" font-family="Helvetica Neue, Helvetica, Arial, sans-serif" font-size="10.00">`gcrs`</text>
</g>
<!-- CIRS&#45;&gt;GCRS -->
<g id="edge4" class="edge"><title>CIRS&#45;&gt;GCRS</title>
<path fill="none" stroke="black" d="M583.167,-447.599C575.663,-424.389 567.391,-385.516 583.69,-357.706 588.601,-349.326 635.742,-324.448 669.449,-307.428"/>
<polygon fill="black" stroke="black" points="671.188,-310.471 678.554,-302.856 668.047,-304.216 671.188,-310.471"/>
<text text-anchor="middle" x="591.69" y="-376.419" font-family="Helvetica Neue, Helvetica, Arial, sans-serif" font-size="10.00">1.0</text>
</g>
<!-- ITRS -->
<g id="node5" class="node"><title>ITRS</title>
<ellipse fill="none" stroke="black" cx="634.69" cy="-378.919" rx="27.6545" ry="21.4286"/>
<text text-anchor="middle" x="634.69" y="-381.919" font-family="Helvetica Neue, Helvetica, Arial, sans-serif" font-size="10.00">ITRS</text>
<text text-anchor="middle" x="634.69" y="-370.919" font-family="Helvetica Neue, Helvetica, Arial, sans-serif" font-size="10.00">`itrs`</text>
</g>
<!-- CIRS&#45;&gt;ITRS -->
<g id="edge7" class="edge"><title>CIRS&#45;&gt;ITRS</title>
<path fill="none" stroke="black" d="M596.791,-447.235C599.868,-438.128 603.956,-427.36 608.69,-418.132 610.765,-414.087 613.195,-409.961 615.722,-405.988"/>
<polygon fill="black" stroke="black" points="618.664,-407.884 621.305,-397.624 612.842,-403.998 618.664,-407.884"/>
<text text-anchor="middle" x="615.69" y="-421.132" font-family="Helvetica Neue, Helvetica, Arial, sans-serif" font-size="10.00">1.0</text>
</g>
<!-- ICRS&#45;&gt;CIRS -->
<g id="edge21" class="edge"><title>ICRS&#45;&gt;CIRS</title>
<path fill="none" stroke="black" d="M434.813,-391.213C466.245,-406.564 522.615,-434.096 558.261,-451.507"/>
<polygon fill="black" stroke="black" points="556.767,-454.672 567.289,-455.916 559.839,-448.382 556.767,-454.672"/>
<text text-anchor="middle" x="519.69" y="-421.132" font-family="Helvetica Neue, Helvetica, Arial, sans-serif" font-size="10.00">1.0</text>
</g>
<!-- ICRS&#45;&gt;GCRS -->
<g id="edge20" class="edge"><title>ICRS&#45;&gt;GCRS</title>
<path fill="none" stroke="black" d="M434.671,-366.127C462.378,-351.947 505.746,-329.888 509.69,-328.706 575.275,-309.045 597.033,-330.125 662.69,-310.706 665.311,-309.93 667.968,-308.998 670.605,-307.965"/>
<polygon fill="black" stroke="black" points="672.197,-311.089 679.963,-303.882 669.398,-304.673 672.197,-311.089"/>
<text text-anchor="middle" x="516.69" y="-331.706" font-family="Helvetica Neue, Helvetica, Arial, sans-serif" font-size="10.00">1.0</text>
</g>
<!-- FK5 -->
<g id="node8" class="node"><title>FK5</title>
<ellipse fill="none" stroke="black" cx="78.6899" cy="-289.492" rx="27" ry="21.4286"/>
<text text-anchor="middle" x="78.6899" y="-292.492" font-family="Helvetica Neue, Helvetica, Arial, sans-serif" font-size="10.00">FK5</text>
<text text-anchor="middle" x="78.6899" y="-281.492" font-family="Helvetica Neue, Helvetica, Arial, sans-serif" font-size="10.00">`fk5`</text>
</g>
<!-- ICRS&#45;&gt;FK5 -->
<g id="edge22" class="edge"><title>ICRS&#45;&gt;FK5</title>
<path fill="none" stroke="black" d="M383.488,-376.138C321.989,-371.918 177.796,-360.108 133.69,-339.706 121.21,-333.933 109.529,-324.352 100.169,-315.17"/>
<polygon fill="black" stroke="black" points="102.664,-312.715 93.1897,-307.973 97.6384,-317.588 102.664,-312.715"/>
<text text-anchor="middle" x="140.69" y="-331.706" font-family="Helvetica Neue, Helvetica, Arial, sans-serif" font-size="10.00">1.0</text>
</g>
<!-- Galactocentric -->
<g id="node11" class="node"><title>Galactocentric</title>
<ellipse fill="none" stroke="black" cx="215.69" cy="-289.492" rx="60.2083" ry="21.4286"/>
<text text-anchor="middle" x="215.69" y="-292.492" font-family="Helvetica Neue, Helvetica, Arial, sans-serif" font-size="10.00">Galactocentric</text>
<text text-anchor="middle" x="215.69" y="-281.492" font-family="Helvetica Neue, Helvetica, Arial, sans-serif" font-size="10.00">`galactocentric`</text>
</g>
<!-- ICRS&#45;&gt;Galactocentric -->
<g id="edge24" class="edge"><title>ICRS&#45;&gt;Galactocentric</title>
<path fill="none" stroke="black" d="M384.465,-372.448C358.075,-366.525 317.354,-355.723 284.69,-339.706 271.295,-333.137 257.687,-324.052 246.136,-315.474"/>
<polygon fill="black" stroke="black" points="248.195,-312.643 238.121,-309.361 243.949,-318.208 248.195,-312.643"/>
<text text-anchor="middle" x="291.69" y="-331.706" font-family="Helvetica Neue, Helvetica, Arial, sans-serif" font-size="10.00">1.0</text>
</g>
<!-- HeliocentricTrueEcliptic -->
<g id="node12" class="node"><title>HeliocentricTrueEcliptic</title>
<ellipse fill="none" stroke="black" cx="379.69" cy="-289.492" rx="86.0347" ry="21.4286"/>
<text text-anchor="middle" x="379.69" y="-292.492" font-family="Helvetica Neue, Helvetica, Arial, sans-serif" font-size="10.00">HeliocentricTrueEcliptic</text>
<text text-anchor="middle" x="379.69" y="-281.492" font-family="Helvetica Neue, Helvetica, Arial, sans-serif" font-size="10.00">`heliocentrictrueecliptic`</text>
</g>
<!-- ICRS&#45;&gt;HeliocentricTrueEcliptic -->
<g id="edge25" class="edge"><title>ICRS&#45;&gt;HeliocentricTrueEcliptic</title>
<path fill="none" stroke="black" d="M392.911,-362.724C386.492,-356.368 380.08,-348.426 376.69,-339.706 374.425,-333.879 373.696,-327.372 373.812,-321.046"/>
<polygon fill="black" stroke="black" points="377.329,-320.983 374.681,-310.725 370.354,-320.396 377.329,-320.983"/>
<text text-anchor="middle" x="383.69" y="-331.706" font-family="Helvetica Neue, Helvetica, Arial, sans-serif" font-size="10.00">1.0</text>
</g>
<!-- BarycentricTrueEcliptic -->
<g id="node13" class="node"><title>BarycentricTrueEcliptic</title>
<ellipse fill="none" stroke="black" cx="568.69" cy="-289.492" rx="84.7059" ry="21.4286"/>
<text text-anchor="middle" x="568.69" y="-292.492" font-family="Helvetica Neue, Helvetica, Arial, sans-serif" font-size="10.00">BarycentricTrueEcliptic</text>
<text text-anchor="middle" x="568.69" y="-281.492" font-family="Helvetica Neue, Helvetica, Arial, sans-serif" font-size="10.00">`barycentrictrueecliptic`</text>
</g>
<!-- ICRS&#45;&gt;BarycentricTrueEcliptic -->
<g id="edge23" class="edge"><title>ICRS&#45;&gt;BarycentricTrueEcliptic</title>
<path fill="none" stroke="black" d="M417.233,-357.713C420.941,-347.689 426.808,-336.163 435.69,-328.706 445.438,-320.521 469.903,-312.565 495.231,-306.051"/>
<polygon fill="black" stroke="black" points="496.096,-309.442 504.952,-303.627 494.402,-302.65 496.096,-309.442"/>
<text text-anchor="middle" x="442.69" y="-331.706" font-family="Helvetica Neue, Helvetica, Arial, sans-serif" font-size="10.00">1.0</text>
</g>
<!-- GCRS&#45;&gt;CIRS -->
<g id="edge35" class="edge"><title>GCRS&#45;&gt;CIRS</title>
<path fill="none" stroke="black" d="M709.294,-310.598C714.558,-333.804 719.499,-372.335 703.69,-400.132 687.28,-428.986 653.05,-446.748 626.541,-456.708"/>
<polygon fill="black" stroke="black" points="625.072,-453.515 616.812,-460.15 627.407,-460.114 625.072,-453.515"/>
<text text-anchor="middle" x="721.69" y="-376.419" font-family="Helvetica Neue, Helvetica, Arial, sans-serif" font-size="10.00">1.0</text>
</g>
<!-- GCRS&#45;&gt;ICRS -->
<g id="edge33" class="edge"><title>GCRS&#45;&gt;ICRS</title>
<path fill="none" stroke="black" d="M679.915,-303.724C674.391,-306.369 668.441,-308.889 662.69,-310.706 612.941,-326.422 596.532,-313.286 546.69,-328.706 535.865,-332.054 534.181,-335.424 523.69,-339.706 498.616,-349.938 469.67,-359.764 447.487,-366.889"/>
<polygon fill="black" stroke="black" points="446.279,-363.601 437.809,-369.965 448.399,-370.272 446.279,-363.601"/>
<text text-anchor="middle" x="553.69" y="-331.706" font-family="Helvetica Neue, Helvetica, Arial, sans-serif" font-size="10.00">1.0</text>
</g>
<!-- GCRS&#45;&gt;GCRS -->
<g id="edge37" class="edge"><title>GCRS&#45;&gt;GCRS</title>
<path fill="none" stroke="black" d="M733.355,-297.724C744.41,-297.994 753.51,-295.25 753.51,-289.492 753.51,-285.624 749.402,-283.116 743.353,-281.968"/>
<polygon fill="black" stroke="black" points="743.577,-278.476 733.355,-281.261 743.082,-285.458 743.577,-278.476"/>
<text text-anchor="middle" x="760.51" y="-286.992" font-family="Helvetica Neue, Helvetica, Arial, sans-serif" font-size="10.00">1.0</text>
</g>
<!-- GeocentricTrueEcliptic -->
<g id="node14" class="node"><title>GeocentricTrueEcliptic</title>
<ellipse fill="none" stroke="black" cx="666.69" cy="-200.066" rx="82.9636" ry="21.4286"/>
<text text-anchor="middle" x="666.69" y="-203.066" font-family="Helvetica Neue, Helvetica, Arial, sans-serif" font-size="10.00">GeocentricTrueEcliptic</text>
<text text-anchor="middle" x="666.69" y="-192.066" font-family="Helvetica Neue, Helvetica, Arial, sans-serif" font-size="10.00">`geocentrictrueecliptic`</text>
</g>
<!-- GCRS&#45;&gt;GeocentricTrueEcliptic -->
<g id="edge34" class="edge"><title>GCRS&#45;&gt;GeocentricTrueEcliptic</title>
<path fill="none" stroke="black" d="M682.932,-273.222C676.101,-266.959 669.33,-259.101 665.69,-250.279 663.31,-244.51 662.369,-238.027 662.24,-231.708"/>
<polygon fill="black" stroke="black" points="665.751,-231.52 662.679,-221.381 658.757,-231.223 665.751,-231.52"/>
<text text-anchor="middle" x="672.69" y="-242.279" font-family="Helvetica Neue, Helvetica, Arial, sans-serif" font-size="10.00">1.0</text>
</g>
<!-- PrecessedGeocentric -->
<g id="node15" class="node"><title>PrecessedGeocentric</title>
<ellipse fill="none" stroke="black" cx="848.69" cy="-200.066" rx="81.135" ry="21.4286"/>
<text text-anchor="middle" x="848.69" y="-203.066" font-family="Helvetica Neue, Helvetica, Arial, sans-serif" font-size="10.00">PrecessedGeocentric</text>
<text text-anchor="middle" x="848.69" y="-192.066" font-family="Helvetica Neue, Helvetica, Arial, sans-serif" font-size="10.00">`precessedgeocentric`</text>
</g>
<!-- GCRS&#45;&gt;PrecessedGeocentric -->
<g id="edge36" class="edge"><title>GCRS&#45;&gt;PrecessedGeocentric</title>
<path fill="none" stroke="black" d="M726.666,-274.639C748.763,-261.316 782.618,-240.903 809.067,-224.956"/>
<polygon fill="black" stroke="black" points="810.969,-227.897 817.725,-219.736 807.354,-221.902 810.969,-227.897"/>
<text text-anchor="middle" x="792.69" y="-242.279" font-family="Helvetica Neue, Helvetica, Arial, sans-serif" font-size="10.00">1.0</text>
</g>
<!-- HCRS -->
<g id="node16" class="node"><title>HCRS</title>
<ellipse fill="none" stroke="black" cx="501.69" cy="-200.066" rx="31.6406" ry="21.4286"/>
<text text-anchor="middle" x="501.69" y="-203.066" font-family="Helvetica Neue, Helvetica, Arial, sans-serif" font-size="10.00">HCRS</text>
<text text-anchor="middle" x="501.69" y="-192.066" font-family="Helvetica Neue, Helvetica, Arial, sans-serif" font-size="10.00">`hcrs`</text>
</g>
<!-- GCRS&#45;&gt;HCRS -->
<g id="edge38" class="edge"><title>GCRS&#45;&gt;HCRS</title>
<path fill="none" stroke="black" d="M678.656,-275.842C673.41,-273.278 667.891,-270.644 662.69,-268.279 620.335,-249.021 570.842,-228.674 538.027,-215.479"/>
<polygon fill="black" stroke="black" points="538.989,-212.094 528.405,-211.623 536.385,-218.592 538.989,-212.094"/>
<text text-anchor="middle" x="626.69" y="-242.279" font-family="Helvetica Neue, Helvetica, Arial, sans-serif" font-size="10.00">1.0</text>
</g>
<!-- ITRS&#45;&gt;CIRS -->
<g id="edge31" class="edge"><title>ITRS&#45;&gt;CIRS</title>
<path fill="none" stroke="black" d="M631.885,-400.288C630.088,-409.448 627.214,-420.185 622.69,-429.132 620.263,-433.932 617.128,-438.654 613.772,-443.052"/>
<polygon fill="black" stroke="black" points="610.839,-441.107 607.174,-451.048 616.238,-445.563 610.839,-441.107"/>
<text text-anchor="middle" x="634.69" y="-421.132" font-family="Helvetica Neue, Helvetica, Arial, sans-serif" font-size="10.00">1.0</text>
</g>
<!-- ITRS&#45;&gt;ITRS -->
<g id="edge32" class="edge"><title>ITRS&#45;&gt;ITRS</title>
<path fill="none" stroke="black" d="M660.46,-387.096C671.18,-387.66 680.267,-384.934 680.267,-378.919 680.267,-374.971 676.353,-372.44 670.633,-371.326"/>
<polygon fill="black" stroke="black" points="670.644,-367.821 660.46,-370.741 670.242,-374.809 670.644,-367.821"/>
<text text-anchor="middle" x="687.267" y="-376.419" font-family="Helvetica Neue, Helvetica, Arial, sans-serif" font-size="10.00">1.0</text>
</g>
<!-- FK4 -->
<g id="node6" class="node"><title>FK4</title>
<ellipse fill="none" stroke="black" cx="58.6899" cy="-21.2132" rx="27" ry="21.4286"/>
<text text-anchor="middle" x="58.6899" y="-24.2132" font-family="Helvetica Neue, Helvetica, Arial, sans-serif" font-size="10.00">FK4</text>
<text text-anchor="middle" x="58.6899" y="-13.2132" font-family="Helvetica Neue, Helvetica, Arial, sans-serif" font-size="10.00">`fk4`</text>
</g>
<!-- FK4&#45;&gt;FK4 -->
<g id="edge9" class="edge"><title>FK4&#45;&gt;FK4</title>
<path fill="none" stroke="black" d="M83.6788,-29.3645C94.4595,-30.0319 103.69,-27.3148 103.69,-21.2132 103.69,-17.2091 99.7147,-14.6625 93.9349,-13.5734"/>
<polygon fill="black" stroke="black" points="93.8407,-10.0645 83.6788,-13.0619 93.492,-17.0558 93.8407,-10.0645"/>
<text text-anchor="middle" x="110.69" y="-18.7132" font-family="Helvetica Neue, Helvetica, Arial, sans-serif" font-size="10.00">1.0</text>
</g>
<!-- FK4NoETerms -->
<g id="node7" class="node"><title>FK4NoETerms</title>
<ellipse fill="none" stroke="black" cx="58.6899" cy="-110.64" rx="58.8803" ry="21.4286"/>
<text text-anchor="middle" x="58.6899" y="-113.64" font-family="Helvetica Neue, Helvetica, Arial, sans-serif" font-size="10.00">FK4NoETerms</text>
<text text-anchor="middle" x="58.6899" y="-102.64" font-family="Helvetica Neue, Helvetica, Arial, sans-serif" font-size="10.00">`fk4noeterms`</text>
</g>
<!-- FK4&#45;&gt;FK4NoETerms -->
<g id="edge8" class="edge"><title>FK4&#45;&gt;FK4NoETerms</title>
<path fill="none" stroke="black" d="M58.6899,-42.6832C58.6899,-53.5614 58.6899,-67.1475 58.6899,-79.2335"/>
<polygon fill="black" stroke="black" points="55.19,-79.3625 58.6899,-89.3625 62.19,-79.3625 55.19,-79.3625"/>
<text text-anchor="middle" x="65.6899" y="-63.4264" font-family="Helvetica Neue, Helvetica, Arial, sans-serif" font-size="10.00">1.0</text>
</g>
<!-- FK4NoETerms&#45;&gt;FK4 -->
<g id="edge12" class="edge"><title>FK4NoETerms&#45;&gt;FK4</title>
<path fill="none" stroke="black" d="M47.2408,-89.6086C44.55,-83.913 42.0668,-77.581 40.6899,-71.4264 39.1151,-64.3878 40.2421,-56.9888 42.5484,-50.1277"/>
<polygon fill="black" stroke="black" points="45.9212,-51.1383 46.5941,-40.5648 39.4743,-48.4109 45.9212,-51.1383"/>
<text text-anchor="middle" x="47.6899" y="-63.4264" font-family="Helvetica Neue, Helvetica, Arial, sans-serif" font-size="10.00">1.0</text>
</g>
<!-- FK4NoETerms&#45;&gt;FK4NoETerms -->
<g id="edge10" class="edge"><title>FK4NoETerms&#45;&gt;FK4NoETerms</title>
<path fill="none" stroke="black" d="M113.145,-118.726C125.94,-118.062 135.38,-115.366 135.38,-110.64 135.38,-107.316 130.713,-104.997 123.494,-103.682"/>
<polygon fill="black" stroke="black" points="123.466,-100.158 113.145,-102.553 122.707,-107.117 123.466,-100.158"/>
<text text-anchor="middle" x="142.38" y="-108.14" font-family="Helvetica Neue, Helvetica, Arial, sans-serif" font-size="10.00">1.0</text>
</g>
<!-- FK4NoETerms&#45;&gt;FK5 -->
<g id="edge11" class="edge"><title>FK4NoETerms&#45;&gt;FK5</title>
<path fill="none" stroke="black" d="M60.8444,-131.853C63.2033,-153.858 67.1257,-190.079 70.6899,-221.279 72.0684,-233.347 73.6379,-246.626 75.0194,-258.172"/>
<polygon fill="black" stroke="black" points="71.5566,-258.692 76.2244,-268.204 78.5066,-257.858 71.5566,-258.692"/>
<text text-anchor="middle" x="77.6899" y="-197.566" font-family="Helvetica Neue, Helvetica, Arial, sans-serif" font-size="10.00">1.0</text>
</g>
<!-- Galactic -->
<g id="node9" class="node"><title>Galactic</title>
<ellipse fill="none" stroke="black" cx="133.69" cy="-200.066" rx="40.1111" ry="21.4286"/>
<text text-anchor="middle" x="133.69" y="-203.066" font-family="Helvetica Neue, Helvetica, Arial, sans-serif" font-size="10.00">Galactic</text>
<text text-anchor="middle" x="133.69" y="-192.066" font-family="Helvetica Neue, Helvetica, Arial, sans-serif" font-size="10.00">`galactic`</text>
</g>
<!-- FK4NoETerms&#45;&gt;Galactic -->
<g id="edge13" class="edge"><title>FK4NoETerms&#45;&gt;Galactic</title>
<path fill="none" stroke="black" d="M87.8601,-129.172C95.9684,-135.021 104.294,-142.058 110.69,-149.853 115.543,-155.768 119.63,-162.876 122.949,-169.827"/>
<polygon fill="black" stroke="black" points="119.783,-171.324 126.999,-179.082 126.196,-168.517 119.783,-171.324"/>
<text text-anchor="middle" x="125.69" y="-152.853" font-family="Helvetica Neue, Helvetica, Arial, sans-serif" font-size="10.00">1.0</text>
</g>
<!-- FK5&#45;&gt;ICRS -->
<g id="edge27" class="edge"><title>FK5&#45;&gt;ICRS</title>
<path fill="none" stroke="black" d="M103.547,-297.925C116.418,-301.762 132.391,-306.507 146.69,-310.706 191.091,-323.743 201.91,-328.036 246.69,-339.706 290.526,-351.129 341.359,-362.643 374.891,-370.001"/>
<polygon fill="black" stroke="black" points="374.198,-373.432 384.715,-372.146 375.692,-366.593 374.198,-373.432"/>
<text text-anchor="middle" x="253.69" y="-331.706" font-family="Helvetica Neue, Helvetica, Arial, sans-serif" font-size="10.00">1.0</text>
</g>
<!-- FK5&#45;&gt;FK4NoETerms -->
<g id="edge28" class="edge"><title>FK5&#45;&gt;FK4NoETerms</title>
<path fill="none" stroke="black" d="M67.7861,-269.809C60.7949,-256.71 52.3643,-238.527 48.6899,-221.279 43.0513,-194.812 46.708,-164.086 51.1032,-141.907"/>
<polygon fill="black" stroke="black" points="54.5395,-142.575 53.213,-132.063 47.6949,-141.108 54.5395,-142.575"/>
<text text-anchor="middle" x="55.6899" y="-197.566" font-family="Helvetica Neue, Helvetica, Arial, sans-serif" font-size="10.00">1.0</text>
</g>
<!-- FK5&#45;&gt;FK5 -->
<g id="edge26" class="edge"><title>FK5&#45;&gt;FK5</title>
<path fill="none" stroke="black" d="M103.679,-297.644C114.46,-298.311 123.69,-295.594 123.69,-289.492 123.69,-285.488 119.715,-282.942 113.935,-281.853"/>
<polygon fill="black" stroke="black" points="113.841,-278.344 103.679,-281.341 113.492,-285.335 113.841,-278.344"/>
<text text-anchor="middle" x="130.69" y="-286.992" font-family="Helvetica Neue, Helvetica, Arial, sans-serif" font-size="10.00">1.0</text>
</g>
<!-- FK5&#45;&gt;Galactic -->
<g id="edge29" class="edge"><title>FK5&#45;&gt;Galactic</title>
<path fill="none" stroke="black" d="M81.848,-268.323C83.9355,-258.999 87.314,-248.07 92.6899,-239.279 95.8119,-234.174 99.8001,-229.316 104.058,-224.882"/>
<polygon fill="black" stroke="black" points="106.59,-227.303 111.374,-217.85 101.739,-222.257 106.59,-227.303"/>
<text text-anchor="middle" x="99.6899" y="-242.279" font-family="Helvetica Neue, Helvetica, Arial, sans-serif" font-size="10.00">1.0</text>
</g>
<!-- Galactic&#45;&gt;FK4NoETerms -->
<g id="edge15" class="edge"><title>Galactic&#45;&gt;FK4NoETerms</title>
<path fill="none" stroke="black" d="M113.239,-181.611C106.394,-175.359 98.9241,-168.068 92.6899,-160.853 87.1523,-154.444 81.6921,-147.123 76.822,-140.122"/>
<polygon fill="black" stroke="black" points="79.5066,-137.844 71.0074,-131.518 73.7068,-141.763 79.5066,-137.844"/>
<text text-anchor="middle" x="99.6899" y="-152.853" font-family="Helvetica Neue, Helvetica, Arial, sans-serif" font-size="10.00">1.0</text>
</g>
<!-- Galactic&#45;&gt;FK5 -->
<g id="edge14" class="edge"><title>Galactic&#45;&gt;FK5</title>
<path fill="none" stroke="black" d="M125.642,-221.323C121.659,-230.46 116.466,-241.211 110.69,-250.279 107.8,-254.816 104.427,-259.402 100.976,-263.746"/>
<polygon fill="black" stroke="black" points="98.0458,-261.797 94.3499,-271.726 103.431,-266.269 98.0458,-261.797"/>
<text text-anchor="middle" x="123.69" y="-242.279" font-family="Helvetica Neue, Helvetica, Arial, sans-serif" font-size="10.00">1.0</text>
</g>
<!-- Supergalactic -->
<g id="node10" class="node"><title>Supergalactic</title>
<ellipse fill="none" stroke="black" cx="225.69" cy="-110.64" rx="57.9655" ry="21.4286"/>
<text text-anchor="middle" x="225.69" y="-113.64" font-family="Helvetica Neue, Helvetica, Arial, sans-serif" font-size="10.00">Supergalactic</text>
<text text-anchor="middle" x="225.69" y="-102.64" font-family="Helvetica Neue, Helvetica, Arial, sans-serif" font-size="10.00">`supergalactic`</text>
</g>
<!-- Galactic&#45;&gt;Supergalactic -->
<g id="edge16" class="edge"><title>Galactic&#45;&gt;Supergalactic</title>
<path fill="none" stroke="black" d="M152.752,-180.951C165.929,-168.429 183.659,-151.581 198.339,-137.631"/>
<polygon fill="black" stroke="black" points="200.859,-140.064 205.697,-130.638 196.037,-134.99 200.859,-140.064"/>
<text text-anchor="middle" x="192.69" y="-152.853" font-family="Helvetica Neue, Helvetica, Arial, sans-serif" font-size="10.00">1.0</text>
</g>
<!-- Supergalactic&#45;&gt;Galactic -->
<g id="edge18" class="edge"><title>Supergalactic&#45;&gt;Galactic</title>
<path fill="none" stroke="black" d="M218.528,-131.987C214.411,-141.57 208.49,-152.666 200.69,-160.853 192.981,-168.943 183.178,-175.82 173.466,-181.414"/>
<polygon fill="black" stroke="black" points="171.766,-178.354 164.634,-186.189 175.096,-184.512 171.766,-178.354"/>
<text text-anchor="middle" x="216.69" y="-152.853" font-family="Helvetica Neue, Helvetica, Arial, sans-serif" font-size="10.00">1.0</text>
</g>
<!-- Galactocentric&#45;&gt;ICRS -->
<g id="edge17" class="edge"><title>Galactocentric&#45;&gt;ICRS</title>
<path fill="none" stroke="black" d="M251.925,-306.655C288.087,-322.785 343.19,-347.364 378.312,-363.031"/>
<polygon fill="black" stroke="black" points="377.098,-366.321 387.656,-367.199 379.95,-359.928 377.098,-366.321"/>
<text text-anchor="middle" x="332.69" y="-331.706" font-family="Helvetica Neue, Helvetica, Arial, sans-serif" font-size="10.00">1.0</text>
</g>
<!-- HeliocentricTrueEcliptic&#45;&gt;ICRS -->
<g id="edge19" class="edge"><title>HeliocentricTrueEcliptic&#45;&gt;ICRS</title>
<path fill="none" stroke="black" d="M387.144,-310.859C391.253,-322.083 396.424,-336.212 400.96,-348.604"/>
<polygon fill="black" stroke="black" points="397.705,-349.893 404.429,-358.08 404.278,-347.487 397.705,-349.893"/>
<text text-anchor="middle" x="404.69" y="-331.706" font-family="Helvetica Neue, Helvetica, Arial, sans-serif" font-size="10.00">1.0</text>
</g>
<!-- BarycentricTrueEcliptic&#45;&gt;ICRS -->
<g id="edge39" class="edge"><title>BarycentricTrueEcliptic&#45;&gt;ICRS</title>
<path fill="none" stroke="black" d="M519.505,-306.812C504.059,-312.786 487.249,-320.198 472.69,-328.706 459.958,-336.146 447.073,-346.106 436.448,-355.12"/>
<polygon fill="black" stroke="black" points="434.05,-352.567 428.802,-361.771 438.644,-357.848 434.05,-352.567"/>
<text text-anchor="middle" x="479.69" y="-331.706" font-family="Helvetica Neue, Helvetica, Arial, sans-serif" font-size="10.00">1.0</text>
</g>
<!-- GeocentricTrueEcliptic&#45;&gt;GCRS -->
<g id="edge30" class="edge"><title>GeocentricTrueEcliptic&#45;&gt;GCRS</title>
<path fill="none" stroke="black" d="M675.309,-221.433C680.059,-232.656 686.039,-246.786 691.283,-259.177"/>
<polygon fill="black" stroke="black" points="688.173,-260.809 695.294,-268.654 694.62,-258.081 688.173,-260.809"/>
<text text-anchor="middle" x="694.69" y="-242.279" font-family="Helvetica Neue, Helvetica, Arial, sans-serif" font-size="10.00">1.0</text>
</g>
<!-- PrecessedGeocentric&#45;&gt;GCRS -->
<g id="edge41" class="edge"><title>PrecessedGeocentric&#45;&gt;GCRS</title>
<path fill="none" stroke="black" d="M833.808,-221.359C825.781,-231.161 815.175,-242.463 803.69,-250.279 785.372,-262.745 762.428,-271.888 743.139,-278.099"/>
<polygon fill="black" stroke="black" points="741.96,-274.8 733.429,-281.082 744.016,-281.491 741.96,-274.8"/>
<text text-anchor="middle" x="823.69" y="-242.279" font-family="Helvetica Neue, Helvetica, Arial, sans-serif" font-size="10.00">1.0</text>
</g>
<!-- HCRS&#45;&gt;HCRS -->
<g id="edge40" class="edge"><title>HCRS&#45;&gt;HCRS</title>
<path fill="none" stroke="black" d="M531.355,-208.298C542.41,-208.568 551.51,-205.824 551.51,-200.066 551.51,-196.197 547.402,-193.689 541.353,-192.542"/>
<polygon fill="black" stroke="black" points="541.577,-189.049 531.355,-191.834 541.082,-196.032 541.577,-189.049"/>
<text text-anchor="middle" x="558.51" y="-197.566" font-family="Helvetica Neue, Helvetica, Arial, sans-serif" font-size="10.00">1.0</text>
</g>
</g>
</svg>
