<?xml version="1.0" encoding="UTF-8" standalone="no"?>
<!DOCTYPE svg PUBLIC "-//W3C//DTD SVG 1.1//EN"
 "http://www.w3.org/Graphics/SVG/1.1/DTD/svg11.dtd">
<!-- Generated by graphviz version 2.38.0 (20140413.2041)
 -->
<!-- Title: AstropyCoordinateTransformGraph Pages: 1 -->
<svg width="772pt" height="676pt"
 viewBox="0.00 0.00 771.84 676.41" xmlns="http://www.w3.org/2000/svg" xmlns:xlink="http://www.w3.org/1999/xlink">
<g id="graph0" class="graph" transform="scale(1 1) rotate(0) translate(4 672.411)">
<title>AstropyCoordinateTransformGraph</title>
<polygon fill="white" stroke="none" points="-4,4 -4,-672.411 767.836,-672.411 767.836,4 -4,4"/>
<!-- PrecessedGeocentric -->
<g id="node1" class="node"><title>PrecessedGeocentric</title>
<ellipse fill="none" stroke="black" cx="443.104" cy="-647.198" rx="81.135" ry="21.4286"/>
<text text-anchor="middle" x="443.104" y="-650.198" font-family="Helvetica Neue, Helvetica, Arial, sans-serif" font-size="10.00">PrecessedGeocentric</text>
<text text-anchor="middle" x="443.104" y="-639.198" font-family="Helvetica Neue, Helvetica, Arial, sans-serif" font-size="10.00">`precessedgeocentric`</text>
</g>
<!-- GCRS -->
<g id="node2" class="node"><title>GCRS</title>
<ellipse fill="none" stroke="black" cx="443.104" cy="-557.772" rx="31.6406" ry="21.4286"/>
<text text-anchor="middle" x="443.104" y="-560.772" font-family="Helvetica Neue, Helvetica, Arial, sans-serif" font-size="10.00">GCRS</text>
<text text-anchor="middle" x="443.104" y="-549.772" font-family="Helvetica Neue, Helvetica, Arial, sans-serif" font-size="10.00">`gcrs`</text>
</g>
<!-- PrecessedGeocentric&#45;&gt;GCRS -->
<g id="edge1" class="edge"><title>PrecessedGeocentric&#45;&gt;GCRS</title>
<path fill="none" stroke="black" d="M430.807,-625.926C426.886,-617.165 424.038,-606.711 426.104,-596.985 426.783,-593.789 427.748,-590.535 428.879,-587.344"/>
<polygon fill="black" stroke="black" points="432.124,-588.655 432.643,-578.073 425.638,-586.022 432.124,-588.655"/>
<text text-anchor="middle" x="433.104" y="-599.985" font-family="Helvetica Neue, Helvetica, Arial, sans-serif" font-size="10.00">1.0</text>
</g>
<!-- GCRS&#45;&gt;PrecessedGeocentric -->
<g id="edge22" class="edge"><title>GCRS&#45;&gt;PrecessedGeocentric</title>
<path fill="none" stroke="black" d="M443.104,-579.242C443.104,-590.12 443.104,-603.706 443.104,-615.792"/>
<polygon fill="black" stroke="black" points="439.604,-615.921 443.104,-625.921 446.604,-615.921 439.604,-615.921"/>
<text text-anchor="middle" x="450.104" y="-599.985" font-family="Helvetica Neue, Helvetica, Arial, sans-serif" font-size="10.00">1.0</text>
</g>
<!-- GCRS&#45;&gt;GCRS -->
<g id="edge24" class="edge"><title>GCRS&#45;&gt;GCRS</title>
<path fill="none" stroke="black" d="M472.769,-566.004C483.824,-566.273 492.924,-563.529 492.924,-557.772 492.924,-553.903 488.816,-551.395 482.767,-550.248"/>
<polygon fill="black" stroke="black" points="482.991,-546.755 472.769,-549.54 482.497,-553.737 482.991,-546.755"/>
<text text-anchor="middle" x="499.924" y="-555.272" font-family="Helvetica Neue, Helvetica, Arial, sans-serif" font-size="10.00">1.0</text>
</g>
<!-- CIRS -->
<g id="node5" class="node"><title>CIRS</title>
<ellipse fill="none" stroke="black" cx="406.104" cy="-468.345" rx="28.0702" ry="21.4286"/>
<text text-anchor="middle" x="406.104" y="-471.345" font-family="Helvetica Neue, Helvetica, Arial, sans-serif" font-size="10.00">CIRS</text>
<text text-anchor="middle" x="406.104" y="-460.345" font-family="Helvetica Neue, Helvetica, Arial, sans-serif" font-size="10.00">`cirs`</text>
</g>
<!-- GCRS&#45;&gt;CIRS -->
<g id="edge25" class="edge"><title>GCRS&#45;&gt;CIRS</title>
<path fill="none" stroke="black" d="M422.346,-541.501C415.516,-535.239 408.744,-527.38 405.104,-518.558 402.724,-512.789 401.783,-506.306 401.654,-499.987"/>
<polygon fill="black" stroke="black" points="405.165,-499.8 402.093,-489.66 398.171,-499.503 405.165,-499.8"/>
<text text-anchor="middle" x="412.104" y="-510.558" font-family="Helvetica Neue, Helvetica, Arial, sans-serif" font-size="10.00">1.0</text>
</g>
<!-- ICRS -->
<g id="node7" class="node"><title>ICRS</title>
<ellipse fill="none" stroke="black" cx="333.104" cy="-378.919" rx="28.0702" ry="21.4286"/>
<text text-anchor="middle" x="333.104" y="-381.919" font-family="Helvetica Neue, Helvetica, Arial, sans-serif" font-size="10.00">ICRS</text>
<text text-anchor="middle" x="333.104" y="-370.919" font-family="Helvetica Neue, Helvetica, Arial, sans-serif" font-size="10.00">`icrs`</text>
</g>
<!-- GCRS&#45;&gt;ICRS -->
<g id="edge23" class="edge"><title>GCRS&#45;&gt;ICRS</title>
<path fill="none" stroke="black" d="M413.147,-550.074C383.46,-541.623 339.799,-523.847 321.104,-489.558 307.61,-464.809 313.604,-432.267 321.135,-409.08"/>
<polygon fill="black" stroke="black" points="324.504,-410.051 324.521,-399.456 317.9,-407.727 324.504,-410.051"/>
<text text-anchor="middle" x="328.104" y="-465.845" font-family="Helvetica Neue, Helvetica, Arial, sans-serif" font-size="10.00">1.0</text>
</g>
<!-- HCRS -->
<g id="node11" class="node"><title>HCRS</title>
<ellipse fill="none" stroke="black" cx="516.104" cy="-468.345" rx="31.6406" ry="21.4286"/>
<text text-anchor="middle" x="516.104" y="-471.345" font-family="Helvetica Neue, Helvetica, Arial, sans-serif" font-size="10.00">HCRS</text>
<text text-anchor="middle" x="516.104" y="-460.345" font-family="Helvetica Neue, Helvetica, Arial, sans-serif" font-size="10.00">`hcrs`</text>
</g>
<!-- GCRS&#45;&gt;HCRS -->
<g id="edge26" class="edge"><title>GCRS&#45;&gt;HCRS</title>
<path fill="none" stroke="black" d="M458.23,-538.657C468.773,-526.03 482.989,-509.004 494.693,-494.987"/>
<polygon fill="black" stroke="black" points="497.525,-497.057 501.248,-487.138 492.152,-492.57 497.525,-497.057"/>
<text text-anchor="middle" x="491.104" y="-510.558" font-family="Helvetica Neue, Helvetica, Arial, sans-serif" font-size="10.00">1.0</text>
</g>
<!-- GeocentricTrueEcliptic -->
<g id="node12" class="node"><title>GeocentricTrueEcliptic</title>
<ellipse fill="none" stroke="black" cx="681.104" cy="-468.345" rx="82.9636" ry="21.4286"/>
<text text-anchor="middle" x="681.104" y="-471.345" font-family="Helvetica Neue, Helvetica, Arial, sans-serif" font-size="10.00">GeocentricTrueEcliptic</text>
<text text-anchor="middle" x="681.104" y="-460.345" font-family="Helvetica Neue, Helvetica, Arial, sans-serif" font-size="10.00">`geocentrictrueecliptic`</text>
</g>
<!-- GCRS&#45;&gt;GeocentricTrueEcliptic -->
<g id="edge21" class="edge"><title>GCRS&#45;&gt;GeocentricTrueEcliptic</title>
<path fill="none" stroke="black" d="M470.406,-546.743C508.18,-532.867 577.234,-507.501 625.974,-489.597"/>
<polygon fill="black" stroke="black" points="627.255,-492.855 635.435,-486.121 624.842,-486.284 627.255,-492.855"/>
<text text-anchor="middle" x="584.104" y="-510.558" font-family="Helvetica Neue, Helvetica, Arial, sans-serif" font-size="10.00">1.0</text>
</g>
<!-- Supergalactic -->
<g id="node3" class="node"><title>Supergalactic</title>
<ellipse fill="none" stroke="black" cx="690.104" cy="-110.64" rx="57.9655" ry="21.4286"/>
<text text-anchor="middle" x="690.104" y="-113.64" font-family="Helvetica Neue, Helvetica, Arial, sans-serif" font-size="10.00">Supergalactic</text>
<text text-anchor="middle" x="690.104" y="-102.64" font-family="Helvetica Neue, Helvetica, Arial, sans-serif" font-size="10.00">`supergalactic`</text>
</g>
<!-- Galactic -->
<g id="node4" class="node"><title>Galactic</title>
<ellipse fill="none" stroke="black" cx="598.104" cy="-200.066" rx="40.1111" ry="21.4286"/>
<text text-anchor="middle" x="598.104" y="-203.066" font-family="Helvetica Neue, Helvetica, Arial, sans-serif" font-size="10.00">Galactic</text>
<text text-anchor="middle" x="598.104" y="-192.066" font-family="Helvetica Neue, Helvetica, Arial, sans-serif" font-size="10.00">`galactic`</text>
</g>
<!-- Supergalactic&#45;&gt;Galactic -->
<g id="edge2" class="edge"><title>Supergalactic&#45;&gt;Galactic</title>
<path fill="none" stroke="black" d="M682.008,-131.931C677.476,-141.501 671.114,-152.602 663.104,-160.853 655.642,-168.54 646.307,-175.218 637.06,-180.746"/>
<polygon fill="black" stroke="black" points="635.28,-177.731 628.285,-185.689 638.716,-183.83 635.28,-177.731"/>
<text text-anchor="middle" x="679.104" y="-152.853" font-family="Helvetica Neue, Helvetica, Arial, sans-serif" font-size="10.00">1.0</text>
</g>
<!-- Galactic&#45;&gt;Supergalactic -->
<g id="edge35" class="edge"><title>Galactic&#45;&gt;Supergalactic</title>
<path fill="none" stroke="black" d="M615.072,-180.392C623.819,-171.002 634.791,-159.581 645.104,-149.853 649.703,-145.514 654.699,-141.048 659.633,-136.767"/>
<polygon fill="black" stroke="black" points="661.943,-139.397 667.27,-130.238 657.395,-134.076 661.943,-139.397"/>
<text text-anchor="middle" x="652.104" y="-152.853" font-family="Helvetica Neue, Helvetica, Arial, sans-serif" font-size="10.00">1.0</text>
</g>
<!-- FK5 -->
<g id="node14" class="node"><title>FK5</title>
<ellipse fill="none" stroke="black" cx="543.104" cy="-289.492" rx="27" ry="21.4286"/>
<text text-anchor="middle" x="543.104" y="-292.492" font-family="Helvetica Neue, Helvetica, Arial, sans-serif" font-size="10.00">FK5</text>
<text text-anchor="middle" x="543.104" y="-281.492" font-family="Helvetica Neue, Helvetica, Arial, sans-serif" font-size="10.00">`fk5`</text>
</g>
<!-- Galactic&#45;&gt;FK5 -->
<g id="edge37" class="edge"><title>Galactic&#45;&gt;FK5</title>
<path fill="none" stroke="black" d="M590.056,-221.323C586.073,-230.46 580.88,-241.211 575.104,-250.279 572.215,-254.816 568.842,-259.402 565.391,-263.746"/>
<polygon fill="black" stroke="black" points="562.46,-261.797 558.764,-271.726 567.845,-266.269 562.46,-261.797"/>
<text text-anchor="middle" x="588.104" y="-242.279" font-family="Helvetica Neue, Helvetica, Arial, sans-serif" font-size="10.00">1.0</text>
</g>
<!-- FK4NoETerms -->
<g id="node15" class="node"><title>FK4NoETerms</title>
<ellipse fill="none" stroke="black" cx="523.104" cy="-110.64" rx="58.8803" ry="21.4286"/>
<text text-anchor="middle" x="523.104" y="-113.64" font-family="Helvetica Neue, Helvetica, Arial, sans-serif" font-size="10.00">FK4NoETerms</text>
<text text-anchor="middle" x="523.104" y="-102.64" font-family="Helvetica Neue, Helvetica, Arial, sans-serif" font-size="10.00">`fk4noeterms`</text>
</g>
<!-- Galactic&#45;&gt;FK4NoETerms -->
<g id="edge36" class="edge"><title>Galactic&#45;&gt;FK4NoETerms</title>
<path fill="none" stroke="black" d="M591.413,-179.082C587.601,-169.584 582.163,-158.456 575.104,-149.853 570.807,-144.616 565.639,-139.72 560.25,-135.298"/>
<polygon fill="black" stroke="black" points="562.337,-132.488 552.274,-129.172 558.073,-138.039 562.337,-132.488"/>
<text text-anchor="middle" x="590.104" y="-152.853" font-family="Helvetica Neue, Helvetica, Arial, sans-serif" font-size="10.00">1.0</text>
</g>
<!-- CIRS&#45;&gt;GCRS -->
<g id="edge7" class="edge"><title>CIRS&#45;&gt;GCRS</title>
<path fill="none" stroke="black" d="M414.339,-488.804C419.169,-500.215 425.363,-514.853 430.766,-527.619"/>
<polygon fill="black" stroke="black" points="427.587,-529.088 434.708,-536.933 434.034,-526.36 427.587,-529.088"/>
<text text-anchor="middle" x="434.104" y="-510.558" font-family="Helvetica Neue, Helvetica, Arial, sans-serif" font-size="10.00">1.0</text>
</g>
<!-- CIRS&#45;&gt;CIRS -->
<g id="edge3" class="edge"><title>CIRS&#45;&gt;CIRS</title>
<path fill="none" stroke="black" d="M432.274,-476.523C443.16,-477.087 452.388,-474.361 452.388,-468.345 452.388,-464.397 448.414,-461.867 442.605,-460.752"/>
<polygon fill="black" stroke="black" points="442.455,-457.238 432.274,-460.168 442.06,-464.227 442.455,-457.238"/>
<text text-anchor="middle" x="459.388" y="-465.845" font-family="Helvetica Neue, Helvetica, Arial, sans-serif" font-size="10.00">1.0</text>
</g>
<!-- AltAz -->
<g id="node6" class="node"><title>AltAz</title>
<ellipse fill="none" stroke="black" cx="425.104" cy="-378.919" rx="31.2258" ry="21.4286"/>
<text text-anchor="middle" x="425.104" y="-381.919" font-family="Helvetica Neue, Helvetica, Arial, sans-serif" font-size="10.00">AltAz</text>
<text text-anchor="middle" x="425.104" y="-370.919" font-family="Helvetica Neue, Helvetica, Arial, sans-serif" font-size="10.00">`altaz`</text>
</g>
<!-- CIRS&#45;&gt;AltAz -->
<g id="edge4" class="edge"><title>CIRS&#45;&gt;AltAz</title>
<path fill="none" stroke="black" d="M410.511,-447.068C412.909,-436.034 415.922,-422.171 418.586,-409.91"/>
<polygon fill="black" stroke="black" points="422.018,-410.601 420.721,-400.086 415.177,-409.115 422.018,-410.601"/>
<text text-anchor="middle" x="424.104" y="-421.132" font-family="Helvetica Neue, Helvetica, Arial, sans-serif" font-size="10.00">1.0</text>
</g>
<!-- CIRS&#45;&gt;ICRS -->
<g id="edge5" class="edge"><title>CIRS&#45;&gt;ICRS</title>
<path fill="none" stroke="black" d="M383.476,-455.491C372.761,-448.93 360.502,-439.915 352.104,-429.132 347.642,-423.403 344.122,-416.503 341.388,-409.706"/>
<polygon fill="black" stroke="black" points="344.574,-408.22 337.926,-399.97 337.979,-410.565 344.574,-408.22"/>
<text text-anchor="middle" x="359.104" y="-421.132" font-family="Helvetica Neue, Helvetica, Arial, sans-serif" font-size="10.00">1.0</text>
</g>
<!-- ITRS -->
<g id="node8" class="node"><title>ITRS</title>
<ellipse fill="none" stroke="black" cx="535.104" cy="-378.919" rx="27.6545" ry="21.4286"/>
<text text-anchor="middle" x="535.104" y="-381.919" font-family="Helvetica Neue, Helvetica, Arial, sans-serif" font-size="10.00">ITRS</text>
<text text-anchor="middle" x="535.104" y="-370.919" font-family="Helvetica Neue, Helvetica, Arial, sans-serif" font-size="10.00">`itrs`</text>
</g>
<!-- CIRS&#45;&gt;ITRS -->
<g id="edge6" class="edge"><title>CIRS&#45;&gt;ITRS</title>
<path fill="none" stroke="black" d="M426.545,-453.492C448.058,-438.912 482.097,-415.843 506.32,-399.426"/>
<polygon fill="black" stroke="black" points="508.445,-402.215 514.759,-393.707 504.518,-396.42 508.445,-402.215"/>
<text text-anchor="middle" x="486.104" y="-421.132" font-family="Helvetica Neue, Helvetica, Arial, sans-serif" font-size="10.00">1.0</text>
</g>
<!-- AltAz&#45;&gt;CIRS -->
<g id="edge10" class="edge"><title>AltAz&#45;&gt;CIRS</title>
<path fill="none" stroke="black" d="M433.699,-399.375C436.579,-408.543 438.329,-419.547 435.104,-429.132 433.527,-433.819 431.122,-438.387 428.357,-442.64"/>
<polygon fill="black" stroke="black" points="425.418,-440.729 422.327,-450.863 431.063,-444.868 425.418,-440.729"/>
<text text-anchor="middle" x="444.104" y="-421.132" font-family="Helvetica Neue, Helvetica, Arial, sans-serif" font-size="10.00">1.0</text>
</g>
<!-- AltAz&#45;&gt;AltAz -->
<g id="edge9" class="edge"><title>AltAz&#45;&gt;AltAz</title>
<path fill="none" stroke="black" d="M453.859,-387.137C464.976,-387.502 474.217,-384.763 474.217,-378.919 474.217,-374.993 470.045,-372.468 463.936,-371.344"/>
<polygon fill="black" stroke="black" points="464.061,-367.845 453.859,-370.701 463.615,-374.831 464.061,-367.845"/>
<text text-anchor="middle" x="481.217" y="-376.419" font-family="Helvetica Neue, Helvetica, Arial, sans-serif" font-size="10.00">1.0</text>
</g>
<!-- ICRS&#45;&gt;GCRS -->
<g id="edge20" class="edge"><title>ICRS&#45;&gt;GCRS</title>
<path fill="none" stroke="black" d="M332.936,-400.532C333.668,-423.864 337.739,-462.179 355.104,-489.558 368.437,-510.581 390.798,-527.533 409.642,-539.154"/>
<polygon fill="black" stroke="black" points="407.892,-542.186 418.28,-544.269 411.459,-536.162 407.892,-542.186"/>
<text text-anchor="middle" x="362.104" y="-465.845" font-family="Helvetica Neue, Helvetica, Arial, sans-serif" font-size="10.00">1.0</text>
</g>
<!-- ICRS&#45;&gt;CIRS -->
<g id="edge19" class="edge"><title>ICRS&#45;&gt;CIRS</title>
<path fill="none" stroke="black" d="M348.328,-397.327C353.957,-403.82 360.362,-411.279 366.104,-418.132 372.439,-425.693 379.24,-433.99 385.403,-441.581"/>
<polygon fill="black" stroke="black" points="382.778,-443.901 391.79,-449.473 388.22,-439.497 382.778,-443.901"/>
<text text-anchor="middle" x="382.104" y="-421.132" font-family="Helvetica Neue, Helvetica, Arial, sans-serif" font-size="10.00">1.0</text>
</g>
<!-- Galactocentric -->
<g id="node9" class="node"><title>Galactocentric</title>
<ellipse fill="none" stroke="black" cx="60.1041" cy="-289.492" rx="60.2083" ry="21.4286"/>
<text text-anchor="middle" x="60.1041" y="-292.492" font-family="Helvetica Neue, Helvetica, Arial, sans-serif" font-size="10.00">Galactocentric</text>
<text text-anchor="middle" x="60.1041" y="-281.492" font-family="Helvetica Neue, Helvetica, Arial, sans-serif" font-size="10.00">`galactocentric`</text>
</g>
<!-- ICRS&#45;&gt;Galactocentric -->
<g id="edge18" class="edge"><title>ICRS&#45;&gt;Galactocentric</title>
<path fill="none" stroke="black" d="M305.491,-373.677C271.414,-367.998 211.983,-356.635 163.104,-339.706 141.797,-332.326 119.084,-321.785 100.424,-312.35"/>
<polygon fill="black" stroke="black" points="101.833,-309.14 91.3389,-307.684 98.6347,-315.366 101.833,-309.14"/>
<text text-anchor="middle" x="170.104" y="-331.706" font-family="Helvetica Neue, Helvetica, Arial, sans-serif" font-size="10.00">1.0</text>
</g>
<!-- HeliocentricTrueEcliptic -->
<g id="node10" class="node"><title>HeliocentricTrueEcliptic</title>
<ellipse fill="none" stroke="black" cx="224.104" cy="-289.492" rx="86.0347" ry="21.4286"/>
<text text-anchor="middle" x="224.104" y="-292.492" font-family="Helvetica Neue, Helvetica, Arial, sans-serif" font-size="10.00">HeliocentricTrueEcliptic</text>
<text text-anchor="middle" x="224.104" y="-281.492" font-family="Helvetica Neue, Helvetica, Arial, sans-serif" font-size="10.00">`heliocentrictrueecliptic`</text>
</g>
<!-- ICRS&#45;&gt;HeliocentricTrueEcliptic -->
<g id="edge16" class="edge"><title>ICRS&#45;&gt;HeliocentricTrueEcliptic</title>
<path fill="none" stroke="black" d="M307.417,-369.78C290.785,-363.545 269.448,-353.63 254.104,-339.706 247.956,-334.126 242.642,-326.994 238.267,-319.902"/>
<polygon fill="black" stroke="black" points="241.223,-318.02 233.236,-311.059 235.139,-321.482 241.223,-318.02"/>
<text text-anchor="middle" x="261.104" y="-331.706" font-family="Helvetica Neue, Helvetica, Arial, sans-serif" font-size="10.00">1.0</text>
</g>
<!-- BarycentricTrueEcliptic -->
<g id="node13" class="node"><title>BarycentricTrueEcliptic</title>
<ellipse fill="none" stroke="black" cx="413.104" cy="-289.492" rx="84.7059" ry="21.4286"/>
<text text-anchor="middle" x="413.104" y="-292.492" font-family="Helvetica Neue, Helvetica, Arial, sans-serif" font-size="10.00">BarycentricTrueEcliptic</text>
<text text-anchor="middle" x="413.104" y="-281.492" font-family="Helvetica Neue, Helvetica, Arial, sans-serif" font-size="10.00">`barycentrictrueecliptic`</text>
</g>
<!-- ICRS&#45;&gt;BarycentricTrueEcliptic -->
<g id="edge15" class="edge"><title>ICRS&#45;&gt;BarycentricTrueEcliptic</title>
<path fill="none" stroke="black" d="M341.776,-358.47C346.62,-348.882 353.263,-337.518 361.104,-328.706 365.258,-324.037 370.071,-319.589 375.058,-315.486"/>
<polygon fill="black" stroke="black" points="377.218,-318.24 382.969,-309.342 372.924,-312.712 377.218,-318.24"/>
<text text-anchor="middle" x="368.104" y="-331.706" font-family="Helvetica Neue, Helvetica, Arial, sans-serif" font-size="10.00">1.0</text>
</g>
<!-- ICRS&#45;&gt;FK5 -->
<g id="edge17" class="edge"><title>ICRS&#45;&gt;FK5</title>
<path fill="none" stroke="black" d="M357.698,-368.341C366.359,-364.973 376.161,-361.166 385.104,-357.706 439.295,-336.735 454.524,-335.438 507.104,-310.706 509.107,-309.764 511.15,-308.755 513.195,-307.709"/>
<polygon fill="black" stroke="black" points="514.878,-310.778 522.05,-302.98 511.58,-304.604 514.878,-310.778"/>
<text text-anchor="middle" x="473.104" y="-331.706" font-family="Helvetica Neue, Helvetica, Arial, sans-serif" font-size="10.00">1.0</text>
</g>
<!-- ITRS&#45;&gt;CIRS -->
<g id="edge34" class="edge"><title>ITRS&#45;&gt;CIRS</title>
<path fill="none" stroke="black" d="M524.001,-398.689C517.261,-408.791 507.887,-420.842 497.104,-429.132 480.865,-441.616 459.95,-450.774 442.266,-456.989"/>
<polygon fill="black" stroke="black" points="440.67,-453.831 432.288,-460.311 442.881,-460.473 440.67,-453.831"/>
<text text-anchor="middle" x="516.104" y="-421.132" font-family="Helvetica Neue, Helvetica, Arial, sans-serif" font-size="10.00">1.0</text>
</g>
<!-- ITRS&#45;&gt;ITRS -->
<g id="edge33" class="edge"><title>ITRS&#45;&gt;ITRS</title>
<path fill="none" stroke="black" d="M560.874,-387.096C571.594,-387.66 580.681,-384.934 580.681,-378.919 580.681,-374.971 576.768,-372.44 571.047,-371.326"/>
<polygon fill="black" stroke="black" points="571.058,-367.821 560.874,-370.741 570.657,-374.809 571.058,-367.821"/>
<text text-anchor="middle" x="587.681" y="-376.419" font-family="Helvetica Neue, Helvetica, Arial, sans-serif" font-size="10.00">1.0</text>
</g>
<!-- Galactocentric&#45;&gt;ICRS -->
<g id="edge8" class="edge"><title>Galactocentric&#45;&gt;ICRS</title>
<path fill="none" stroke="black" d="M103.288,-304.322C157.054,-321.54 247.876,-350.625 297.727,-366.589"/>
<polygon fill="black" stroke="black" points="296.83,-369.977 307.421,-369.694 298.965,-363.311 296.83,-369.977"/>
<text text-anchor="middle" x="220.104" y="-331.706" font-family="Helvetica Neue, Helvetica, Arial, sans-serif" font-size="10.00">1.0</text>
</g>
<!-- HeliocentricTrueEcliptic&#45;&gt;ICRS -->
<g id="edge11" class="edge"><title>HeliocentricTrueEcliptic&#45;&gt;ICRS</title>
<path fill="none" stroke="black" d="M248.608,-310.147C265.643,-323.81 288.356,-342.027 305.943,-356.134"/>
<polygon fill="black" stroke="black" points="304.127,-359.164 314.118,-362.69 308.507,-353.703 304.127,-359.164"/>
<text text-anchor="middle" x="293.104" y="-331.706" font-family="Helvetica Neue, Helvetica, Arial, sans-serif" font-size="10.00">1.0</text>
</g>
<!-- HCRS&#45;&gt;HCRS -->
<g id="edge12" class="edge"><title>HCRS&#45;&gt;HCRS</title>
<path fill="none" stroke="black" d="M545.769,-476.577C556.824,-476.847 565.924,-474.103 565.924,-468.345 565.924,-464.477 561.816,-461.969 555.767,-460.821"/>
<polygon fill="black" stroke="black" points="555.991,-457.328 545.769,-460.113 555.497,-464.311 555.991,-457.328"/>
<text text-anchor="middle" x="572.924" y="-465.845" font-family="Helvetica Neue, Helvetica, Arial, sans-serif" font-size="10.00">1.0</text>
</g>
<!-- GeocentricTrueEcliptic&#45;&gt;GCRS -->
<g id="edge13" class="edge"><title>GeocentricTrueEcliptic&#45;&gt;GCRS</title>
<path fill="none" stroke="black" d="M656.711,-488.807C642.866,-498.995 624.808,-510.908 607.104,-518.558 567.219,-535.794 518.368,-545.897 484.406,-551.34"/>
<polygon fill="black" stroke="black" points="483.722,-547.904 474.37,-552.882 484.786,-554.822 483.722,-547.904"/>
<text text-anchor="middle" x="636.104" y="-510.558" font-family="Helvetica Neue, Helvetica, Arial, sans-serif" font-size="10.00">1.0</text>
</g>
<!-- BarycentricTrueEcliptic&#45;&gt;ICRS -->
<g id="edge14" class="edge"><title>BarycentricTrueEcliptic&#45;&gt;ICRS</title>
<path fill="none" stroke="black" d="M401.017,-310.576C394.98,-319.881 387.236,-330.819 379.104,-339.706 373.585,-345.737 367.108,-351.674 360.785,-357.004"/>
<polygon fill="black" stroke="black" points="358.486,-354.362 352.943,-363.391 362.907,-359.79 358.486,-354.362"/>
<text text-anchor="middle" x="396.104" y="-331.706" font-family="Helvetica Neue, Helvetica, Arial, sans-serif" font-size="10.00">1.0</text>
</g>
<!-- FK5&#45;&gt;Galactic -->
<g id="edge27" class="edge"><title>FK5&#45;&gt;Galactic</title>
<path fill="none" stroke="black" d="M548.337,-268.458C551.278,-259.163 555.499,-248.221 561.104,-239.279 563.914,-234.797 567.318,-230.408 570.911,-226.294"/>
<polygon fill="black" stroke="black" points="573.672,-228.466 577.945,-218.771 568.559,-223.685 573.672,-228.466"/>
<text text-anchor="middle" x="568.104" y="-242.279" font-family="Helvetica Neue, Helvetica, Arial, sans-serif" font-size="10.00">1.0</text>
</g>
<!-- FK5&#45;&gt;ICRS -->
<g id="edge28" class="edge"><title>FK5&#45;&gt;ICRS</title>
<path fill="none" stroke="black" d="M527.682,-307.25C516.62,-318.215 500.777,-331.906 484.104,-339.706 443.595,-358.654 428.141,-345.549 385.104,-357.706 378.987,-359.433 372.589,-361.604 366.456,-363.876"/>
<polygon fill="black" stroke="black" points="365.184,-360.615 357.115,-367.482 367.705,-367.146 365.184,-360.615"/>
<text text-anchor="middle" x="510.104" y="-331.706" font-family="Helvetica Neue, Helvetica, Arial, sans-serif" font-size="10.00">1.0</text>
</g>
<!-- FK5&#45;&gt;FK5 -->
<g id="edge30" class="edge"><title>FK5&#45;&gt;FK5</title>
<path fill="none" stroke="black" d="M568.093,-297.644C578.874,-298.311 588.104,-295.594 588.104,-289.492 588.104,-285.488 584.129,-282.942 578.349,-281.853"/>
<polygon fill="black" stroke="black" points="578.255,-278.344 568.093,-281.341 577.906,-285.335 578.255,-278.344"/>
<text text-anchor="middle" x="595.104" y="-286.992" font-family="Helvetica Neue, Helvetica, Arial, sans-serif" font-size="10.00">1.0</text>
</g>
<!-- FK5&#45;&gt;FK4NoETerms -->
<g id="edge29" class="edge"><title>FK5&#45;&gt;FK4NoETerms</title>
<path fill="none" stroke="black" d="M525.727,-273.06C513.065,-260.553 496.974,-241.702 490.104,-221.279 480.954,-194.078 492.62,-162.686 504.534,-140.482"/>
<polygon fill="black" stroke="black" points="507.702,-141.992 509.595,-131.568 501.614,-138.536 507.702,-141.992"/>
<text text-anchor="middle" x="497.104" y="-197.566" font-family="Helvetica Neue, Helvetica, Arial, sans-serif" font-size="10.00">1.0</text>
</g>
<!-- FK4NoETerms&#45;&gt;Galactic -->
<g id="edge38" class="edge"><title>FK4NoETerms&#45;&gt;Galactic</title>
<path fill="none" stroke="black" d="M535.422,-131.518C541.509,-140.778 549.228,-151.738 557.104,-160.853 561.098,-165.475 565.599,-170.129 570.118,-174.52"/>
<polygon fill="black" stroke="black" points="567.972,-177.307 577.653,-181.611 572.769,-172.209 567.972,-177.307"/>
<text text-anchor="middle" x="564.104" y="-152.853" font-family="Helvetica Neue, Helvetica, Arial, sans-serif" font-size="10.00">1.0</text>
</g>
<!-- FK4NoETerms&#45;&gt;FK5 -->
<g id="edge41" class="edge"><title>FK4NoETerms&#45;&gt;FK5</title>
<path fill="none" stroke="black" d="M525.259,-131.853C527.618,-153.858 531.54,-190.079 535.104,-221.279 536.483,-233.347 538.052,-246.626 539.434,-258.172"/>
<polygon fill="black" stroke="black" points="535.971,-258.692 540.639,-268.204 542.921,-257.858 535.971,-258.692"/>
<text text-anchor="middle" x="542.104" y="-197.566" font-family="Helvetica Neue, Helvetica, Arial, sans-serif" font-size="10.00">1.0</text>
</g>
<!-- FK4NoETerms&#45;&gt;FK4NoETerms -->
<g id="edge40" class="edge"><title>FK4NoETerms&#45;&gt;FK4NoETerms</title>
<path fill="none" stroke="black" d="M577.559,-118.726C590.354,-118.062 599.794,-115.366 599.794,-110.64 599.794,-107.316 595.127,-104.997 587.909,-103.682"/>
<polygon fill="black" stroke="black" points="587.88,-100.158 577.559,-102.553 587.121,-107.117 587.88,-100.158"/>
<text text-anchor="middle" x="606.794" y="-108.14" font-family="Helvetica Neue, Helvetica, Arial, sans-serif" font-size="10.00">1.0</text>
</g>
<!-- FK4 -->
<g id="node16" class="node"><title>FK4</title>
<ellipse fill="none" stroke="black" cx="523.104" cy="-21.2132" rx="27" ry="21.4286"/>
<text text-anchor="middle" x="523.104" y="-24.2132" font-family="Helvetica Neue, Helvetica, Arial, sans-serif" font-size="10.00">FK4</text>
<text text-anchor="middle" x="523.104" y="-13.2132" font-family="Helvetica Neue, Helvetica, Arial, sans-serif" font-size="10.00">`fk4`</text>
</g>
<!-- FK4NoETerms&#45;&gt;FK4 -->
<g id="edge39" class="edge"><title>FK4NoETerms&#45;&gt;FK4</title>
<path fill="none" stroke="black" d="M511.655,-89.6086C508.964,-83.913 506.481,-77.581 505.104,-71.4264 503.529,-64.3878 504.656,-56.9888 506.963,-50.1277"/>
<polygon fill="black" stroke="black" points="510.335,-51.1383 511.008,-40.5648 503.889,-48.4109 510.335,-51.1383"/>
<text text-anchor="middle" x="512.104" y="-63.4264" font-family="Helvetica Neue, Helvetica, Arial, sans-serif" font-size="10.00">1.0</text>
</g>
<!-- FK4&#45;&gt;FK4NoETerms -->
<g id="edge32" class="edge"><title>FK4&#45;&gt;FK4NoETerms</title>
<path fill="none" stroke="black" d="M523.104,-42.6832C523.104,-53.5614 523.104,-67.1475 523.104,-79.2335"/>
<polygon fill="black" stroke="black" points="519.604,-79.3625 523.104,-89.3625 526.604,-79.3625 519.604,-79.3625"/>
<text text-anchor="middle" x="530.104" y="-63.4264" font-family="Helvetica Neue, Helvetica, Arial, sans-serif" font-size="10.00">1.0</text>
</g>
<!-- FK4&#45;&gt;FK4 -->
<g id="edge31" class="edge"><title>FK4&#45;&gt;FK4</title>
<path fill="none" stroke="black" d="M548.093,-29.3645C558.874,-30.0319 568.104,-27.3148 568.104,-21.2132 568.104,-17.2091 564.129,-14.6625 558.349,-13.5734"/>
<polygon fill="black" stroke="black" points="558.255,-10.0645 548.093,-13.0619 557.906,-17.0558 558.255,-10.0645"/>
<text text-anchor="middle" x="575.104" y="-18.7132" font-family="Helvetica Neue, Helvetica, Arial, sans-serif" font-size="10.00">1.0</text>
</g>
</g>
</svg>
