<?xml version="1.0" encoding="UTF-8" standalone="no"?>
<!DOCTYPE svg PUBLIC "-//W3C//DTD SVG 1.1//EN"
 "http://www.w3.org/Graphics/SVG/1.1/DTD/svg11.dtd">
<!-- Generated by graphviz version 2.38.0 (20140413.2041)
 -->
<!-- Title: AstropyCoordinateTransformGraph Pages: 1 -->
<svg width="943pt" height="408pt"
 viewBox="0.00 0.00 943.25 408.13" xmlns="http://www.w3.org/2000/svg" xmlns:xlink="http://www.w3.org/1999/xlink">
<g id="graph0" class="graph" transform="scale(1 1) rotate(0) translate(4 404.132)">
<title>AstropyCoordinateTransformGraph</title>
<polygon fill="white" stroke="none" points="-4,4 -4,-404.132 939.25,-404.132 939.25,4 -4,4"/>
<!-- FK5 -->
<g id="node1" class="node"><title>FK5</title>
<ellipse fill="none" stroke="black" cx="150.983" cy="-378.919" rx="27" ry="21.4286"/>
<text text-anchor="middle" x="150.983" y="-381.919" font-family="Helvetica Neue, Helvetica, Arial, sans-serif" font-size="10.00">FK5</text>
<text text-anchor="middle" x="150.983" y="-370.919" font-family="Helvetica Neue, Helvetica, Arial, sans-serif" font-size="10.00">`fk5`</text>
</g>
<!-- FK5&#45;&gt;FK5 -->
<g id="edge1" class="edge"><title>FK5&#45;&gt;FK5</title>
<path fill="none" stroke="black" d="M175.972,-387.07C186.752,-387.737 195.983,-385.02 195.983,-378.919 195.983,-374.915 192.008,-372.368 186.228,-371.279"/>
<polygon fill="black" stroke="black" points="186.134,-367.77 175.972,-370.768 185.785,-374.761 186.134,-367.77"/>
<text text-anchor="middle" x="202.983" y="-376.419" font-family="Helvetica Neue, Helvetica, Arial, sans-serif" font-size="10.00">1.0</text>
</g>
<!-- FK4NoETerms -->
<g id="node2" class="node"><title>FK4NoETerms</title>
<ellipse fill="none" stroke="black" cx="151.983" cy="-289.492" rx="58.8803" ry="21.4286"/>
<text text-anchor="middle" x="151.983" y="-292.492" font-family="Helvetica Neue, Helvetica, Arial, sans-serif" font-size="10.00">FK4NoETerms</text>
<text text-anchor="middle" x="151.983" y="-281.492" font-family="Helvetica Neue, Helvetica, Arial, sans-serif" font-size="10.00">`fk4noeterms`</text>
</g>
<!-- FK5&#45;&gt;FK4NoETerms -->
<g id="edge2" class="edge"><title>FK5&#45;&gt;FK4NoETerms</title>
<path fill="none" stroke="black" d="M139.458,-359.509C135.084,-350.384 131.654,-339.115 133.983,-328.706 134.628,-325.821 135.517,-322.897 136.556,-320.018"/>
<polygon fill="black" stroke="black" points="139.897,-321.099 140.534,-310.523 133.441,-318.394 139.897,-321.099"/>
<text text-anchor="middle" x="140.983" y="-331.706" font-family="Helvetica Neue, Helvetica, Arial, sans-serif" font-size="10.00">1.0</text>
</g>
<!-- Galactic -->
<g id="node3" class="node"><title>Galactic</title>
<ellipse fill="none" stroke="black" cx="57.9828" cy="-200.066" rx="40.1111" ry="21.4286"/>
<text text-anchor="middle" x="57.9828" y="-203.066" font-family="Helvetica Neue, Helvetica, Arial, sans-serif" font-size="10.00">Galactic</text>
<text text-anchor="middle" x="57.9828" y="-192.066" font-family="Helvetica Neue, Helvetica, Arial, sans-serif" font-size="10.00">`galactic`</text>
</g>
<!-- FK5&#45;&gt;Galactic -->
<g id="edge3" class="edge"><title>FK5&#45;&gt;Galactic</title>
<path fill="none" stroke="black" d="M124.182,-375.049C89.4466,-369.609 31.5874,-354.121 16.9828,-310.706 10.9708,-292.834 11.8829,-286.433 16.9828,-268.279 20.9892,-254.018 28.9513,-239.786 36.8019,-228.114"/>
<polygon fill="black" stroke="black" points="39.8122,-229.918 42.7163,-219.729 34.0921,-225.883 39.8122,-229.918"/>
<text text-anchor="middle" x="23.9828" y="-286.992" font-family="Helvetica Neue, Helvetica, Arial, sans-serif" font-size="10.00">1.0</text>
</g>
<!-- ICRS -->
<g id="node4" class="node"><title>ICRS</title>
<ellipse fill="none" stroke="black" cx="484.983" cy="-289.492" rx="28.0702" ry="21.4286"/>
<text text-anchor="middle" x="484.983" y="-292.492" font-family="Helvetica Neue, Helvetica, Arial, sans-serif" font-size="10.00">ICRS</text>
<text text-anchor="middle" x="484.983" y="-281.492" font-family="Helvetica Neue, Helvetica, Arial, sans-serif" font-size="10.00">`icrs`</text>
</g>
<!-- FK5&#45;&gt;ICRS -->
<g id="edge4" class="edge"><title>FK5&#45;&gt;ICRS</title>
<path fill="none" stroke="black" d="M176.361,-371.276C235.005,-355.925 380.111,-317.943 448.375,-300.075"/>
<polygon fill="black" stroke="black" points="449.47,-303.406 458.258,-297.488 447.698,-296.634 449.47,-303.406"/>
<text text-anchor="middle" x="344.983" y="-331.706" font-family="Helvetica Neue, Helvetica, Arial, sans-serif" font-size="10.00">1.0</text>
</g>
<!-- FK4NoETerms&#45;&gt;FK5 -->
<g id="edge5" class="edge"><title>FK4NoETerms&#45;&gt;FK5</title>
<path fill="none" stroke="black" d="M151.749,-310.962C151.624,-321.841 151.469,-335.427 151.331,-347.513"/>
<polygon fill="black" stroke="black" points="147.829,-347.602 151.215,-357.642 154.829,-347.682 147.829,-347.602"/>
<text text-anchor="middle" x="158.983" y="-331.706" font-family="Helvetica Neue, Helvetica, Arial, sans-serif" font-size="10.00">1.0</text>
</g>
<!-- FK4NoETerms&#45;&gt;FK4NoETerms -->
<g id="edge6" class="edge"><title>FK4NoETerms&#45;&gt;FK4NoETerms</title>
<path fill="none" stroke="black" d="M206.438,-297.579C219.233,-296.915 228.673,-294.219 228.673,-289.492 228.673,-286.169 224.006,-283.85 216.787,-282.535"/>
<polygon fill="black" stroke="black" points="216.759,-279.011 206.438,-281.406 215.999,-285.969 216.759,-279.011"/>
<text text-anchor="middle" x="235.673" y="-286.992" font-family="Helvetica Neue, Helvetica, Arial, sans-serif" font-size="10.00">1.0</text>
</g>
<!-- FK4NoETerms&#45;&gt;Galactic -->
<g id="edge8" class="edge"><title>FK4NoETerms&#45;&gt;Galactic</title>
<path fill="none" stroke="black" d="M132.303,-269.137C122.908,-259.991 111.455,-248.977 100.983,-239.279 96.174,-234.826 91.005,-230.145 85.9764,-225.645"/>
<polygon fill="black" stroke="black" points="88.0598,-222.814 78.2619,-218.782 83.4072,-228.044 88.0598,-222.814"/>
<text text-anchor="middle" x="119.983" y="-242.279" font-family="Helvetica Neue, Helvetica, Arial, sans-serif" font-size="10.00">1.0</text>
</g>
<!-- FK4 -->
<g id="node5" class="node"><title>FK4</title>
<ellipse fill="none" stroke="black" cx="153.983" cy="-200.066" rx="27" ry="21.4286"/>
<text text-anchor="middle" x="153.983" y="-203.066" font-family="Helvetica Neue, Helvetica, Arial, sans-serif" font-size="10.00">FK4</text>
<text text-anchor="middle" x="153.983" y="-192.066" font-family="Helvetica Neue, Helvetica, Arial, sans-serif" font-size="10.00">`fk4`</text>
</g>
<!-- FK4NoETerms&#45;&gt;FK4 -->
<g id="edge7" class="edge"><title>FK4NoETerms&#45;&gt;FK4</title>
<path fill="none" stroke="black" d="M152.447,-268.215C152.695,-257.369 153.005,-243.791 153.282,-231.687"/>
<polygon fill="black" stroke="black" points="156.785,-231.613 153.514,-221.536 149.787,-231.453 156.785,-231.613"/>
<text text-anchor="middle" x="160.983" y="-242.279" font-family="Helvetica Neue, Helvetica, Arial, sans-serif" font-size="10.00">1.0</text>
</g>
<!-- Galactic&#45;&gt;FK5 -->
<g id="edge22" class="edge"><title>Galactic&#45;&gt;FK5</title>
<path fill="none" stroke="black" d="M55.8319,-221.396C54.3418,-244.468 54.8322,-282.545 69.9828,-310.706 81.3365,-331.809 102.314,-348.929 120.076,-360.609"/>
<polygon fill="black" stroke="black" points="118.672,-363.861 129.003,-366.214 122.394,-357.932 118.672,-363.861"/>
<text text-anchor="middle" x="76.9828" y="-286.992" font-family="Helvetica Neue, Helvetica, Arial, sans-serif" font-size="10.00">1.0</text>
</g>
<!-- Galactic&#45;&gt;FK4NoETerms -->
<g id="edge23" class="edge"><title>Galactic&#45;&gt;FK4NoETerms</title>
<path fill="none" stroke="black" d="M64.8924,-220.97C69.0056,-230.673 74.9978,-242.004 82.9828,-250.279 89.5464,-257.082 97.5874,-262.994 105.832,-268.002"/>
<polygon fill="black" stroke="black" points="104.371,-271.197 114.797,-273.08 107.821,-265.106 104.371,-271.197"/>
<text text-anchor="middle" x="89.9828" y="-242.279" font-family="Helvetica Neue, Helvetica, Arial, sans-serif" font-size="10.00">1.0</text>
</g>
<!-- Supergalactic -->
<g id="node16" class="node"><title>Supergalactic</title>
<ellipse fill="none" stroke="black" cx="57.9828" cy="-110.64" rx="57.9655" ry="21.4286"/>
<text text-anchor="middle" x="57.9828" y="-113.64" font-family="Helvetica Neue, Helvetica, Arial, sans-serif" font-size="10.00">Supergalactic</text>
<text text-anchor="middle" x="57.9828" y="-102.64" font-family="Helvetica Neue, Helvetica, Arial, sans-serif" font-size="10.00">`supergalactic`</text>
</g>
<!-- Galactic&#45;&gt;Supergalactic -->
<g id="edge24" class="edge"><title>Galactic&#45;&gt;Supergalactic</title>
<path fill="none" stroke="black" d="M47.3433,-179.37C44.734,-173.572 42.3103,-167.103 40.9828,-160.853 39.6024,-154.354 40.416,-147.53 42.2775,-141.104"/>
<polygon fill="black" stroke="black" points="45.6687,-142.028 45.9007,-131.436 39.1139,-139.571 45.6687,-142.028"/>
<text text-anchor="middle" x="47.9828" y="-152.853" font-family="Helvetica Neue, Helvetica, Arial, sans-serif" font-size="10.00">1.0</text>
</g>
<!-- ICRS&#45;&gt;FK5 -->
<g id="edge12" class="edge"><title>ICRS&#45;&gt;FK5</title>
<path fill="none" stroke="black" d="M461.169,-301.067C435.607,-312.063 393.593,-329.119 355.983,-339.706 298.117,-355.993 229.072,-367.228 187.695,-373.113"/>
<polygon fill="black" stroke="black" points="186.965,-369.681 177.544,-374.528 187.931,-376.614 186.965,-369.681"/>
<text text-anchor="middle" x="399.983" y="-331.706" font-family="Helvetica Neue, Helvetica, Arial, sans-serif" font-size="10.00">1.0</text>
</g>
<!-- CIRS -->
<g id="node7" class="node"><title>CIRS</title>
<ellipse fill="none" stroke="black" cx="396.983" cy="-200.066" rx="28.0702" ry="21.4286"/>
<text text-anchor="middle" x="396.983" y="-203.066" font-family="Helvetica Neue, Helvetica, Arial, sans-serif" font-size="10.00">CIRS</text>
<text text-anchor="middle" x="396.983" y="-192.066" font-family="Helvetica Neue, Helvetica, Arial, sans-serif" font-size="10.00">`cirs`</text>
</g>
<!-- ICRS&#45;&gt;CIRS -->
<g id="edge14" class="edge"><title>ICRS&#45;&gt;CIRS</title>
<path fill="none" stroke="black" d="M468.431,-272.048C455.033,-258.738 435.982,-239.811 420.922,-224.849"/>
<polygon fill="black" stroke="black" points="423.022,-222.001 413.461,-217.437 418.088,-226.967 423.022,-222.001"/>
<text text-anchor="middle" x="453.983" y="-242.279" font-family="Helvetica Neue, Helvetica, Arial, sans-serif" font-size="10.00">1.0</text>
</g>
<!-- GCRS -->
<g id="node9" class="node"><title>GCRS</title>
<ellipse fill="none" stroke="black" cx="493.983" cy="-110.64" rx="31.6406" ry="21.4286"/>
<text text-anchor="middle" x="493.983" y="-113.64" font-family="Helvetica Neue, Helvetica, Arial, sans-serif" font-size="10.00">GCRS</text>
<text text-anchor="middle" x="493.983" y="-102.64" font-family="Helvetica Neue, Helvetica, Arial, sans-serif" font-size="10.00">`gcrs`</text>
</g>
<!-- ICRS&#45;&gt;GCRS -->
<g id="edge17" class="edge"><title>ICRS&#45;&gt;GCRS</title>
<path fill="none" stroke="black" d="M486.015,-268.205C487.584,-237.371 490.581,-178.491 492.418,-142.381"/>
<polygon fill="black" stroke="black" points="495.936,-142.127 492.949,-131.962 488.945,-141.771 495.936,-142.127"/>
<text text-anchor="middle" x="497.983" y="-197.566" font-family="Helvetica Neue, Helvetica, Arial, sans-serif" font-size="10.00">1.0</text>
</g>
<!-- HeliocentricTrueEcliptic -->
<g id="node10" class="node"><title>HeliocentricTrueEcliptic</title>
<ellipse fill="none" stroke="black" cx="848.983" cy="-200.066" rx="86.0347" ry="21.4286"/>
<text text-anchor="middle" x="848.983" y="-203.066" font-family="Helvetica Neue, Helvetica, Arial, sans-serif" font-size="10.00">HeliocentricTrueEcliptic</text>
<text text-anchor="middle" x="848.983" y="-192.066" font-family="Helvetica Neue, Helvetica, Arial, sans-serif" font-size="10.00">`heliocentrictrueecliptic`</text>
</g>
<!-- ICRS&#45;&gt;HeliocentricTrueEcliptic -->
<g id="edge13" class="edge"><title>ICRS&#45;&gt;HeliocentricTrueEcliptic</title>
<path fill="none" stroke="black" d="M513.281,-287.072C561.692,-284.043 663.108,-275.065 744.983,-250.279 766.081,-243.892 788.315,-233.867 806.785,-224.527"/>
<polygon fill="black" stroke="black" points="808.521,-227.569 815.801,-219.872 805.31,-221.349 808.521,-227.569"/>
<text text-anchor="middle" x="780.983" y="-242.279" font-family="Helvetica Neue, Helvetica, Arial, sans-serif" font-size="10.00">1.0</text>
</g>
<!-- BarycentricTrueEcliptic -->
<g id="node11" class="node"><title>BarycentricTrueEcliptic</title>
<ellipse fill="none" stroke="black" cx="609.983" cy="-200.066" rx="84.7059" ry="21.4286"/>
<text text-anchor="middle" x="609.983" y="-203.066" font-family="Helvetica Neue, Helvetica, Arial, sans-serif" font-size="10.00">BarycentricTrueEcliptic</text>
<text text-anchor="middle" x="609.983" y="-192.066" font-family="Helvetica Neue, Helvetica, Arial, sans-serif" font-size="10.00">`barycentrictrueecliptic`</text>
</g>
<!-- ICRS&#45;&gt;BarycentricTrueEcliptic -->
<g id="edge15" class="edge"><title>ICRS&#45;&gt;BarycentricTrueEcliptic</title>
<path fill="none" stroke="black" d="M504.087,-273.725C517.136,-263.768 534.907,-250.46 550.983,-239.279 557.534,-234.723 564.588,-230 571.46,-225.495"/>
<polygon fill="black" stroke="black" points="573.541,-228.317 580.017,-219.932 569.725,-222.448 573.541,-228.317"/>
<text text-anchor="middle" x="557.983" y="-242.279" font-family="Helvetica Neue, Helvetica, Arial, sans-serif" font-size="10.00">1.0</text>
</g>
<!-- Galactocentric -->
<g id="node12" class="node"><title>Galactocentric</title>
<ellipse fill="none" stroke="black" cx="290.983" cy="-200.066" rx="60.2083" ry="21.4286"/>
<text text-anchor="middle" x="290.983" y="-203.066" font-family="Helvetica Neue, Helvetica, Arial, sans-serif" font-size="10.00">Galactocentric</text>
<text text-anchor="middle" x="290.983" y="-192.066" font-family="Helvetica Neue, Helvetica, Arial, sans-serif" font-size="10.00">`galactocentric`</text>
</g>
<!-- ICRS&#45;&gt;Galactocentric -->
<g id="edge16" class="edge"><title>ICRS&#45;&gt;Galactocentric</title>
<path fill="none" stroke="black" d="M456.539,-289.291C419.968,-288.848 356.27,-282.927 314.983,-250.279 308.729,-245.334 303.997,-238.346 300.46,-231.185"/>
<polygon fill="black" stroke="black" points="303.475,-229.329 296.349,-221.489 297.03,-232.062 303.475,-229.329"/>
<text text-anchor="middle" x="321.983" y="-242.279" font-family="Helvetica Neue, Helvetica, Arial, sans-serif" font-size="10.00">1.0</text>
</g>
<!-- FK4&#45;&gt;FK4NoETerms -->
<g id="edge33" class="edge"><title>FK4&#45;&gt;FK4NoETerms</title>
<path fill="none" stroke="black" d="M166.27,-219.463C170.922,-228.584 174.546,-239.855 171.983,-250.279 171.238,-253.308 170.206,-256.363 169,-259.356"/>
<polygon fill="black" stroke="black" points="165.747,-258.05 164.694,-268.592 172.092,-261.008 165.747,-258.05"/>
<text text-anchor="middle" x="179.983" y="-242.279" font-family="Helvetica Neue, Helvetica, Arial, sans-serif" font-size="10.00">1.0</text>
</g>
<!-- FK4&#45;&gt;FK4 -->
<g id="edge34" class="edge"><title>FK4&#45;&gt;FK4</title>
<path fill="none" stroke="black" d="M178.972,-208.217C189.752,-208.885 198.983,-206.168 198.983,-200.066 198.983,-196.062 195.008,-193.515 189.228,-192.426"/>
<polygon fill="black" stroke="black" points="189.134,-188.917 178.972,-191.915 188.785,-195.909 189.134,-188.917"/>
<text text-anchor="middle" x="205.983" y="-197.566" font-family="Helvetica Neue, Helvetica, Arial, sans-serif" font-size="10.00">1.0</text>
</g>
<!-- AltAz -->
<g id="node6" class="node"><title>AltAz</title>
<ellipse fill="none" stroke="black" cx="380.983" cy="-110.64" rx="31.2258" ry="21.4286"/>
<text text-anchor="middle" x="380.983" y="-113.64" font-family="Helvetica Neue, Helvetica, Arial, sans-serif" font-size="10.00">AltAz</text>
<text text-anchor="middle" x="380.983" y="-102.64" font-family="Helvetica Neue, Helvetica, Arial, sans-serif" font-size="10.00">`altaz`</text>
</g>
<!-- AltAz&#45;&gt;AltAz -->
<g id="edge10" class="edge"><title>AltAz&#45;&gt;AltAz</title>
<path fill="none" stroke="black" d="M409.737,-118.857C420.855,-119.223 430.095,-116.483 430.095,-110.64 430.095,-106.713 425.924,-104.188 419.815,-103.065"/>
<polygon fill="black" stroke="black" points="419.94,-99.566 409.737,-102.422 419.494,-106.552 419.94,-99.566"/>
<text text-anchor="middle" x="437.095" y="-108.14" font-family="Helvetica Neue, Helvetica, Arial, sans-serif" font-size="10.00">1.0</text>
</g>
<!-- AltAz&#45;&gt;CIRS -->
<g id="edge9" class="edge"><title>AltAz&#45;&gt;CIRS</title>
<path fill="none" stroke="black" d="M363.274,-128.157C355.414,-137.555 348.952,-149.652 353.983,-160.853 357.077,-167.743 362.096,-173.897 367.632,-179.148"/>
<polygon fill="black" stroke="black" points="365.486,-181.918 375.369,-185.734 370.023,-176.587 365.486,-181.918"/>
<text text-anchor="middle" x="360.983" y="-152.853" font-family="Helvetica Neue, Helvetica, Arial, sans-serif" font-size="10.00">1.0</text>
</g>
<!-- CIRS&#45;&gt;ICRS -->
<g id="edge29" class="edge"><title>CIRS&#45;&gt;ICRS</title>
<path fill="none" stroke="black" d="M402.187,-220.93C405.489,-230.623 410.567,-241.957 417.983,-250.279 426.981,-260.377 439.308,-268.454 450.936,-274.535"/>
<polygon fill="black" stroke="black" points="449.514,-277.735 460.035,-278.983 452.589,-271.447 449.514,-277.735"/>
<text text-anchor="middle" x="424.983" y="-242.279" font-family="Helvetica Neue, Helvetica, Arial, sans-serif" font-size="10.00">1.0</text>
</g>
<!-- CIRS&#45;&gt;AltAz -->
<g id="edge28" class="edge"><title>CIRS&#45;&gt;AltAz</title>
<path fill="none" stroke="black" d="M393.272,-178.789C391.273,-167.865 388.766,-154.169 386.539,-142"/>
<polygon fill="black" stroke="black" points="389.917,-141.013 384.674,-131.807 383.031,-142.273 389.917,-141.013"/>
<text text-anchor="middle" x="396.983" y="-152.853" font-family="Helvetica Neue, Helvetica, Arial, sans-serif" font-size="10.00">1.0</text>
</g>
<!-- CIRS&#45;&gt;CIRS -->
<g id="edge27" class="edge"><title>CIRS&#45;&gt;CIRS</title>
<path fill="none" stroke="black" d="M423.152,-208.244C434.039,-208.807 443.267,-206.082 443.267,-200.066 443.267,-196.118 439.293,-193.587 433.484,-192.473"/>
<polygon fill="black" stroke="black" points="433.334,-188.959 423.152,-191.889 432.939,-195.948 433.334,-188.959"/>
<text text-anchor="middle" x="450.267" y="-197.566" font-family="Helvetica Neue, Helvetica, Arial, sans-serif" font-size="10.00">1.0</text>
</g>
<!-- CIRS&#45;&gt;GCRS -->
<g id="edge26" class="edge"><title>CIRS&#45;&gt;GCRS</title>
<path fill="none" stroke="black" d="M415.567,-183.67C423.754,-176.788 433.436,-168.516 441.983,-160.853 450.91,-152.848 460.494,-143.888 468.971,-135.829"/>
<polygon fill="black" stroke="black" points="471.583,-138.174 476.394,-128.734 466.747,-133.113 471.583,-138.174"/>
<text text-anchor="middle" x="460.983" y="-152.853" font-family="Helvetica Neue, Helvetica, Arial, sans-serif" font-size="10.00">1.0</text>
</g>
<!-- ITRS -->
<g id="node14" class="node"><title>ITRS</title>
<ellipse fill="none" stroke="black" cx="271.983" cy="-110.64" rx="27.6545" ry="21.4286"/>
<text text-anchor="middle" x="271.983" y="-113.64" font-family="Helvetica Neue, Helvetica, Arial, sans-serif" font-size="10.00">ITRS</text>
<text text-anchor="middle" x="271.983" y="-102.64" font-family="Helvetica Neue, Helvetica, Arial, sans-serif" font-size="10.00">`itrs`</text>
</g>
<!-- CIRS&#45;&gt;ITRS -->
<g id="edge25" class="edge"><title>CIRS&#45;&gt;ITRS</title>
<path fill="none" stroke="black" d="M375.086,-186.378C363.044,-179.2 347.958,-169.878 334.983,-160.853 322.635,-152.264 309.451,-142.127 298.352,-133.292"/>
<polygon fill="black" stroke="black" points="300.307,-130.373 290.319,-126.838 295.922,-135.83 300.307,-130.373"/>
<text text-anchor="middle" x="341.983" y="-152.853" font-family="Helvetica Neue, Helvetica, Arial, sans-serif" font-size="10.00">1.0</text>
</g>
<!-- PrecessedGeocentric -->
<g id="node8" class="node"><title>PrecessedGeocentric</title>
<ellipse fill="none" stroke="black" cx="362.983" cy="-21.2132" rx="81.135" ry="21.4286"/>
<text text-anchor="middle" x="362.983" y="-24.2132" font-family="Helvetica Neue, Helvetica, Arial, sans-serif" font-size="10.00">PrecessedGeocentric</text>
<text text-anchor="middle" x="362.983" y="-13.2132" font-family="Helvetica Neue, Helvetica, Arial, sans-serif" font-size="10.00">`precessedgeocentric`</text>
</g>
<!-- PrecessedGeocentric&#45;&gt;GCRS -->
<g id="edge11" class="edge"><title>PrecessedGeocentric&#45;&gt;GCRS</title>
<path fill="none" stroke="black" d="M377.042,-42.5273C384.671,-52.3352 394.817,-63.6356 405.983,-71.4264 424.327,-84.2261 432.485,-80.4714 452.983,-89.4264 455.337,-90.455 457.752,-91.5467 460.174,-92.6691"/>
<polygon fill="black" stroke="black" points="458.906,-95.9421 469.44,-97.0818 461.916,-89.6222 458.906,-95.9421"/>
<text text-anchor="middle" x="412.983" y="-63.4264" font-family="Helvetica Neue, Helvetica, Arial, sans-serif" font-size="10.00">1.0</text>
</g>
<!-- GCRS&#45;&gt;ICRS -->
<g id="edge37" class="edge"><title>GCRS&#45;&gt;ICRS</title>
<path fill="none" stroke="black" d="M525.181,-115.37C594.853,-124.977 753.242,-154.634 703.983,-221.279 682.285,-250.636 579.093,-272.452 522.441,-282.446"/>
<polygon fill="black" stroke="black" points="521.693,-279.023 512.434,-284.174 522.884,-285.921 521.693,-279.023"/>
<text text-anchor="middle" x="720.983" y="-197.566" font-family="Helvetica Neue, Helvetica, Arial, sans-serif" font-size="10.00">1.0</text>
</g>
<!-- GCRS&#45;&gt;CIRS -->
<g id="edge40" class="edge"><title>GCRS&#45;&gt;CIRS</title>
<path fill="none" stroke="black" d="M469.432,-124.177C450.748,-133.862 427.634,-146.21 423.983,-149.853 418.162,-155.661 413.246,-162.987 409.269,-170.198"/>
<polygon fill="black" stroke="black" points="406.132,-168.647 404.738,-179.15 412.377,-171.808 406.132,-168.647"/>
<text text-anchor="middle" x="431.983" y="-152.853" font-family="Helvetica Neue, Helvetica, Arial, sans-serif" font-size="10.00">1.0</text>
</g>
<!-- GCRS&#45;&gt;PrecessedGeocentric -->
<g id="edge36" class="edge"><title>GCRS&#45;&gt;PrecessedGeocentric</title>
<path fill="none" stroke="black" d="M472.056,-95.0064C452.422,-81.903 423.228,-62.4196 399.983,-46.9063"/>
<polygon fill="black" stroke="black" points="401.658,-43.8166 391.398,-41.1767 397.773,-49.6391 401.658,-43.8166"/>
<text text-anchor="middle" x="443.983" y="-63.4264" font-family="Helvetica Neue, Helvetica, Arial, sans-serif" font-size="10.00">1.0</text>
</g>
<!-- GCRS&#45;&gt;GCRS -->
<g id="edge41" class="edge"><title>GCRS&#45;&gt;GCRS</title>
<path fill="none" stroke="black" d="M523.648,-118.871C534.703,-119.141 543.803,-116.397 543.803,-110.64 543.803,-106.771 539.695,-104.263 533.646,-103.116"/>
<polygon fill="black" stroke="black" points="533.87,-99.6227 523.648,-102.408 533.375,-106.605 533.87,-99.6227"/>
<text text-anchor="middle" x="550.803" y="-108.14" font-family="Helvetica Neue, Helvetica, Arial, sans-serif" font-size="10.00">1.0</text>
</g>
<!-- HCRS -->
<g id="node13" class="node"><title>HCRS</title>
<ellipse fill="none" stroke="black" cx="493.983" cy="-21.2132" rx="31.6406" ry="21.4286"/>
<text text-anchor="middle" x="493.983" y="-24.2132" font-family="Helvetica Neue, Helvetica, Arial, sans-serif" font-size="10.00">HCRS</text>
<text text-anchor="middle" x="493.983" y="-13.2132" font-family="Helvetica Neue, Helvetica, Arial, sans-serif" font-size="10.00">`hcrs`</text>
</g>
<!-- GCRS&#45;&gt;HCRS -->
<g id="edge38" class="edge"><title>GCRS&#45;&gt;HCRS</title>
<path fill="none" stroke="black" d="M493.983,-89.3625C493.983,-78.5165 493.983,-64.9377 493.983,-52.8341"/>
<polygon fill="black" stroke="black" points="497.483,-52.6832 493.983,-42.6832 490.483,-52.6832 497.483,-52.6832"/>
<text text-anchor="middle" x="500.983" y="-63.4264" font-family="Helvetica Neue, Helvetica, Arial, sans-serif" font-size="10.00">1.0</text>
</g>
<!-- GeocentricTrueEcliptic -->
<g id="node15" class="node"><title>GeocentricTrueEcliptic</title>
<ellipse fill="none" stroke="black" cx="658.983" cy="-21.2132" rx="82.9636" ry="21.4286"/>
<text text-anchor="middle" x="658.983" y="-24.2132" font-family="Helvetica Neue, Helvetica, Arial, sans-serif" font-size="10.00">GeocentricTrueEcliptic</text>
<text text-anchor="middle" x="658.983" y="-13.2132" font-family="Helvetica Neue, Helvetica, Arial, sans-serif" font-size="10.00">`geocentrictrueecliptic`</text>
</g>
<!-- GCRS&#45;&gt;GeocentricTrueEcliptic -->
<g id="edge39" class="edge"><title>GCRS&#45;&gt;GeocentricTrueEcliptic</title>
<path fill="none" stroke="black" d="M523.677,-102.944C546.885,-96.8996 579.389,-86.605 604.983,-71.4264 615.173,-65.3828 625.116,-57.1977 633.636,-49.2385"/>
<polygon fill="black" stroke="black" points="636.291,-51.5384 641.026,-42.0604 631.414,-46.5172 636.291,-51.5384"/>
<text text-anchor="middle" x="626.983" y="-63.4264" font-family="Helvetica Neue, Helvetica, Arial, sans-serif" font-size="10.00">1.0</text>
</g>
<!-- HeliocentricTrueEcliptic&#45;&gt;ICRS -->
<g id="edge30" class="edge"><title>HeliocentricTrueEcliptic&#45;&gt;ICRS</title>
<path fill="none" stroke="black" d="M831.461,-221.076C821.081,-231.566 807.037,-243.592 791.983,-250.279 744.711,-271.278 594.782,-282.31 523.433,-286.486"/>
<polygon fill="black" stroke="black" points="522.876,-283.012 513.091,-287.076 523.274,-290.001 522.876,-283.012"/>
<text text-anchor="middle" x="815.983" y="-242.279" font-family="Helvetica Neue, Helvetica, Arial, sans-serif" font-size="10.00">1.0</text>
</g>
<!-- BarycentricTrueEcliptic&#45;&gt;ICRS -->
<g id="edge35" class="edge"><title>BarycentricTrueEcliptic&#45;&gt;ICRS</title>
<path fill="none" stroke="black" d="M594.826,-220.972C586.729,-230.676 576.144,-242.006 564.983,-250.279 551.187,-260.505 534.223,-269.075 519.471,-275.491"/>
<polygon fill="black" stroke="black" points="518.025,-272.302 510.152,-279.391 520.728,-278.759 518.025,-272.302"/>
<text text-anchor="middle" x="584.983" y="-242.279" font-family="Helvetica Neue, Helvetica, Arial, sans-serif" font-size="10.00">1.0</text>
</g>
<!-- Galactocentric&#45;&gt;ICRS -->
<g id="edge31" class="edge"><title>Galactocentric&#45;&gt;ICRS</title>
<path fill="none" stroke="black" d="M324.76,-217.948C344.52,-227.677 370.02,-239.98 392.983,-250.279 411.847,-258.74 433.154,-267.631 450.509,-274.706"/>
<polygon fill="black" stroke="black" points="449.64,-278.131 460.222,-278.645 452.27,-271.644 449.64,-278.131"/>
<text text-anchor="middle" x="399.983" y="-242.279" font-family="Helvetica Neue, Helvetica, Arial, sans-serif" font-size="10.00">1.0</text>
</g>
<!-- HCRS&#45;&gt;HCRS -->
<g id="edge18" class="edge"><title>HCRS&#45;&gt;HCRS</title>
<path fill="none" stroke="black" d="M523.648,-29.4451C534.703,-29.715 543.803,-26.971 543.803,-21.2132 543.803,-17.3447 539.695,-14.8366 533.646,-13.6891"/>
<polygon fill="black" stroke="black" points="533.87,-10.1963 523.648,-12.9813 533.375,-17.1788 533.87,-10.1963"/>
<text text-anchor="middle" x="550.803" y="-18.7132" font-family="Helvetica Neue, Helvetica, Arial, sans-serif" font-size="10.00">1.0</text>
</g>
<!-- ITRS&#45;&gt;CIRS -->
<g id="edge20" class="edge"><title>ITRS&#45;&gt;CIRS</title>
<path fill="none" stroke="black" d="M269.38,-132.08C269.281,-141.921 271.033,-153.212 277.983,-160.853 303.087,-188.457 325.037,-165.777 359.983,-178.853 362.099,-179.645 364.244,-180.54 366.378,-181.501"/>
<polygon fill="black" stroke="black" points="365.041,-184.744 375.557,-186.031 368.138,-178.467 365.041,-184.744"/>
<text text-anchor="middle" x="284.983" y="-152.853" font-family="Helvetica Neue, Helvetica, Arial, sans-serif" font-size="10.00">1.0</text>
</g>
<!-- ITRS&#45;&gt;ITRS -->
<g id="edge19" class="edge"><title>ITRS&#45;&gt;ITRS</title>
<path fill="none" stroke="black" d="M297.753,-118.817C308.473,-119.381 317.56,-116.655 317.56,-110.64 317.56,-106.692 313.646,-104.161 307.926,-103.047"/>
<polygon fill="black" stroke="black" points="307.937,-99.5417 297.753,-102.462 307.535,-106.53 307.937,-99.5417"/>
<text text-anchor="middle" x="324.56" y="-108.14" font-family="Helvetica Neue, Helvetica, Arial, sans-serif" font-size="10.00">1.0</text>
</g>
<!-- GeocentricTrueEcliptic&#45;&gt;GCRS -->
<g id="edge21" class="edge"><title>GeocentricTrueEcliptic&#45;&gt;GCRS</title>
<path fill="none" stroke="black" d="M624.472,-40.499C595.932,-55.6212 555.646,-76.967 527.409,-91.9286"/>
<polygon fill="black" stroke="black" points="525.527,-88.9648 518.329,-96.7395 528.804,-95.1502 525.527,-88.9648"/>
<text text-anchor="middle" x="593.983" y="-63.4264" font-family="Helvetica Neue, Helvetica, Arial, sans-serif" font-size="10.00">1.0</text>
</g>
<!-- Supergalactic&#45;&gt;Galactic -->
<g id="edge32" class="edge"><title>Supergalactic&#45;&gt;Galactic</title>
<path fill="none" stroke="black" d="M57.9828,-132.11C57.9828,-142.988 57.9828,-156.574 57.9828,-168.66"/>
<polygon fill="black" stroke="black" points="54.4829,-168.789 57.9828,-178.789 61.4829,-168.789 54.4829,-168.789"/>
<text text-anchor="middle" x="64.9828" y="-152.853" font-family="Helvetica Neue, Helvetica, Arial, sans-serif" font-size="10.00">1.0</text>
</g>
</g>
</svg>
