<?xml version="1.0" encoding="UTF-8" standalone="no"?>
<!DOCTYPE svg PUBLIC "-//W3C//DTD SVG 1.1//EN"
 "http://www.w3.org/Graphics/SVG/1.1/DTD/svg11.dtd">
<!-- Generated by graphviz version 2.38.0 (20140413.2041)
 -->
<!-- Title: %3 Pages: 1 -->
<svg width="230pt" height="188pt"
 viewBox="0.00 0.00 230.00 188.00" xmlns="http://www.w3.org/2000/svg" xmlns:xlink="http://www.w3.org/1999/xlink">
<g id="graph0" class="graph" transform="scale(1 1) rotate(0) translate(4 184)">
<title>%3</title>
<polygon fill="white" stroke="none" points="-4,4 -4,-184 226,-184 226,4 -4,4"/>
<!-- in0 -->
<g id="node1" class="node"><title>in0</title>
<text text-anchor="middle" x="31" y="-159.5" font-family="Helvetica Neue, Helvetica, Arial, sans-serif" font-size="10.00">input 0</text>
</g>
<!-- scale0 -->
<g id="node7" class="node"><title>scale0</title>
<polygon fill="none" stroke="black" points="62,-108 0,-108 0,-72 62,-72 62,-108"/>
<text text-anchor="middle" x="31" y="-87.5" font-family="Helvetica Neue, Helvetica, Arial, sans-serif" font-size="10.00">Scale(1.2)</text>
</g>
<!-- in0&#45;&gt;scale0 -->
<g id="edge1" class="edge"><title>in0&#45;&gt;scale0</title>
<path fill="none" stroke="black" d="M31,-143.697C31,-135.983 31,-126.712 31,-118.112"/>
<polygon fill="black" stroke="black" points="34.5001,-118.104 31,-108.104 27.5001,-118.104 34.5001,-118.104"/>
</g>
<!-- in1 -->
<g id="node2" class="node"><title>in1</title>
<text text-anchor="middle" x="123" y="-159.5" font-family="Helvetica Neue, Helvetica, Arial, sans-serif" font-size="10.00">input 1</text>
</g>
<!-- identity0 -->
<g id="node8" class="node"><title>identity0</title>
<polygon fill="none" stroke="black" points="173.5,-108 112.5,-108 112.5,-72 173.5,-72 173.5,-108"/>
<text text-anchor="middle" x="143" y="-87.5" font-family="Helvetica Neue, Helvetica, Arial, sans-serif" font-size="10.00">Identity(2)</text>
</g>
<!-- in1&#45;&gt;identity0 -->
<g id="edge3" class="edge"><title>in1&#45;&gt;identity0</title>
<path fill="none" stroke="black" d="M127.944,-143.697C130.172,-135.898 132.855,-126.509 135.335,-117.829"/>
<polygon fill="black" stroke="black" points="138.731,-118.681 138.113,-108.104 132,-116.758 138.731,-118.681"/>
</g>
<!-- in2 -->
<g id="node3" class="node"><title>in2</title>
<text text-anchor="middle" x="195" y="-159.5" font-family="Helvetica Neue, Helvetica, Arial, sans-serif" font-size="10.00">input 2</text>
</g>
<!-- in2&#45;&gt;identity0 -->
<g id="edge4" class="edge"><title>in2&#45;&gt;identity0</title>
<path fill="none" stroke="black" d="M182.146,-143.697C175.975,-135.389 168.463,-125.277 161.676,-116.141"/>
<polygon fill="black" stroke="black" points="164.479,-114.045 155.706,-108.104 158.86,-118.219 164.479,-114.045"/>
</g>
<!-- out0 -->
<g id="node4" class="node"><title>out0</title>
<text text-anchor="middle" x="31" y="-15.5" font-family="Helvetica Neue, Helvetica, Arial, sans-serif" font-size="10.00">output 0</text>
</g>
<!-- out1 -->
<g id="node5" class="node"><title>out1</title>
<text text-anchor="middle" x="123" y="-15.5" font-family="Helvetica Neue, Helvetica, Arial, sans-serif" font-size="10.00">output 1</text>
</g>
<!-- out2 -->
<g id="node6" class="node"><title>out2</title>
<text text-anchor="middle" x="195" y="-15.5" font-family="Helvetica Neue, Helvetica, Arial, sans-serif" font-size="10.00">output 2</text>
</g>
<!-- scale0&#45;&gt;out0 -->
<g id="edge2" class="edge"><title>scale0&#45;&gt;out0</title>
<path fill="none" stroke="black" d="M31,-71.6966C31,-63.9827 31,-54.7125 31,-46.1124"/>
<polygon fill="black" stroke="black" points="34.5001,-46.1043 31,-36.1043 27.5001,-46.1044 34.5001,-46.1043"/>
</g>
<!-- identity0&#45;&gt;out1 -->
<g id="edge5" class="edge"><title>identity0&#45;&gt;out1</title>
<path fill="none" stroke="black" d="M138.056,-71.6966C135.828,-63.8979 133.145,-54.5085 130.665,-45.8292"/>
<polygon fill="black" stroke="black" points="134,-44.758 127.887,-36.1043 127.269,-46.6811 134,-44.758"/>
</g>
<!-- identity0&#45;&gt;out2 -->
<g id="edge6" class="edge"><title>identity0&#45;&gt;out2</title>
<path fill="none" stroke="black" d="M155.854,-71.6966C162.025,-63.3893 169.537,-53.2771 176.324,-44.1407"/>
<polygon fill="black" stroke="black" points="179.14,-46.2189 182.294,-36.1043 173.521,-42.0446 179.14,-46.2189"/>
</g>
</g>
</svg>
