<?xml version="1.0" encoding="UTF-8" standalone="no"?>
<!DOCTYPE svg PUBLIC "-//W3C//DTD SVG 1.1//EN"
 "http://www.w3.org/Graphics/SVG/1.1/DTD/svg11.dtd">
<!-- Generated by graphviz version 2.38.0 (20140413.2041)
 -->
<!-- Title: AstropyCoordinateTransformGraph Pages: 1 -->
<svg width="885pt" height="676pt"
 viewBox="0.00 0.00 884.67 676.41" xmlns="http://www.w3.org/2000/svg" xmlns:xlink="http://www.w3.org/1999/xlink">
<g id="graph0" class="graph" transform="scale(1 1) rotate(0) translate(4 672.411)">
<title>AstropyCoordinateTransformGraph</title>
<polygon fill="white" stroke="none" points="-4,4 -4,-672.411 880.673,-672.411 880.673,4 -4,4"/>
<!-- Supergalactic -->
<g id="node1" class="node"><title>Supergalactic</title>
<ellipse fill="none" stroke="black" cx="430.853" cy="-647.198" rx="57.9655" ry="21.4286"/>
<text text-anchor="middle" x="430.853" y="-650.198" font-family="Helvetica Neue, Helvetica, Arial, sans-serif" font-size="10.00">Supergalactic</text>
<text text-anchor="middle" x="430.853" y="-639.198" font-family="Helvetica Neue, Helvetica, Arial, sans-serif" font-size="10.00">`supergalactic`</text>
</g>
<!-- Galactic -->
<g id="node2" class="node"><title>Galactic</title>
<ellipse fill="none" stroke="black" cx="430.853" cy="-557.772" rx="40.1111" ry="21.4286"/>
<text text-anchor="middle" x="430.853" y="-560.772" font-family="Helvetica Neue, Helvetica, Arial, sans-serif" font-size="10.00">Galactic</text>
<text text-anchor="middle" x="430.853" y="-549.772" font-family="Helvetica Neue, Helvetica, Arial, sans-serif" font-size="10.00">`galactic`</text>
</g>
<!-- Supergalactic&#45;&gt;Galactic -->
<g id="edge1" class="edge"><title>Supergalactic&#45;&gt;Galactic</title>
<path fill="none" stroke="black" d="M418.771,-626.402C414.74,-617.546 411.749,-606.888 413.853,-596.985 414.496,-593.957 415.396,-590.879 416.45,-587.85"/>
<polygon fill="black" stroke="black" points="419.739,-589.052 420.213,-578.468 413.242,-586.446 419.739,-589.052"/>
<text text-anchor="middle" x="420.853" y="-599.985" font-family="Helvetica Neue, Helvetica, Arial, sans-serif" font-size="10.00">1.0</text>
</g>
<!-- Galactic&#45;&gt;Supergalactic -->
<g id="edge24" class="edge"><title>Galactic&#45;&gt;Supergalactic</title>
<path fill="none" stroke="black" d="M430.853,-579.242C430.853,-590.12 430.853,-603.706 430.853,-615.792"/>
<polygon fill="black" stroke="black" points="427.353,-615.921 430.853,-625.921 434.353,-615.921 427.353,-615.921"/>
<text text-anchor="middle" x="437.853" y="-599.985" font-family="Helvetica Neue, Helvetica, Arial, sans-serif" font-size="10.00">1.0</text>
</g>
<!-- FK5 -->
<g id="node7" class="node"><title>FK5</title>
<ellipse fill="none" stroke="black" cx="422.853" cy="-378.919" rx="27" ry="21.4286"/>
<text text-anchor="middle" x="422.853" y="-381.919" font-family="Helvetica Neue, Helvetica, Arial, sans-serif" font-size="10.00">FK5</text>
<text text-anchor="middle" x="422.853" y="-370.919" font-family="Helvetica Neue, Helvetica, Arial, sans-serif" font-size="10.00">`fk5`</text>
</g>
<!-- Galactic&#45;&gt;FK5 -->
<g id="edge26" class="edge"><title>Galactic&#45;&gt;FK5</title>
<path fill="none" stroke="black" d="M446.201,-537.909C450.276,-532.023 454.26,-525.299 456.853,-518.558 468.269,-488.884 463.03,-478.852 460.853,-447.132 459.962,-434.152 462.301,-429.947 456.853,-418.132 454.436,-412.89 451.054,-407.847 447.354,-403.239"/>
<polygon fill="black" stroke="black" points="449.731,-400.644 440.488,-395.467 444.485,-405.278 449.731,-400.644"/>
<text text-anchor="middle" x="471.853" y="-465.845" font-family="Helvetica Neue, Helvetica, Arial, sans-serif" font-size="10.00">1.0</text>
</g>
<!-- FK4NoETerms -->
<g id="node15" class="node"><title>FK4NoETerms</title>
<ellipse fill="none" stroke="black" cx="315.853" cy="-468.345" rx="58.8803" ry="21.4286"/>
<text text-anchor="middle" x="315.853" y="-471.345" font-family="Helvetica Neue, Helvetica, Arial, sans-serif" font-size="10.00">FK4NoETerms</text>
<text text-anchor="middle" x="315.853" y="-460.345" font-family="Helvetica Neue, Helvetica, Arial, sans-serif" font-size="10.00">`fk4noeterms`</text>
</g>
<!-- Galactic&#45;&gt;FK4NoETerms -->
<g id="edge25" class="edge"><title>Galactic&#45;&gt;FK4NoETerms</title>
<path fill="none" stroke="black" d="M408.68,-539.915C391.623,-526.948 367.795,-508.833 348.552,-494.204"/>
<polygon fill="black" stroke="black" points="350.426,-491.232 340.347,-487.966 346.189,-496.805 350.426,-491.232"/>
<text text-anchor="middle" x="387.853" y="-510.558" font-family="Helvetica Neue, Helvetica, Arial, sans-serif" font-size="10.00">1.0</text>
</g>
<!-- ICRS -->
<g id="node3" class="node"><title>ICRS</title>
<ellipse fill="none" stroke="black" cx="422.853" cy="-289.492" rx="28.0702" ry="21.4286"/>
<text text-anchor="middle" x="422.853" y="-292.492" font-family="Helvetica Neue, Helvetica, Arial, sans-serif" font-size="10.00">ICRS</text>
<text text-anchor="middle" x="422.853" y="-281.492" font-family="Helvetica Neue, Helvetica, Arial, sans-serif" font-size="10.00">`icrs`</text>
</g>
<!-- BarycentricTrueEcliptic -->
<g id="node4" class="node"><title>BarycentricTrueEcliptic</title>
<ellipse fill="none" stroke="black" cx="84.8528" cy="-200.066" rx="84.7059" ry="21.4286"/>
<text text-anchor="middle" x="84.8528" y="-203.066" font-family="Helvetica Neue, Helvetica, Arial, sans-serif" font-size="10.00">BarycentricTrueEcliptic</text>
<text text-anchor="middle" x="84.8528" y="-192.066" font-family="Helvetica Neue, Helvetica, Arial, sans-serif" font-size="10.00">`barycentrictrueecliptic`</text>
</g>
<!-- ICRS&#45;&gt;BarycentricTrueEcliptic -->
<g id="edge2" class="edge"><title>ICRS&#45;&gt;BarycentricTrueEcliptic</title>
<path fill="none" stroke="black" d="M394.744,-286.697C349.569,-283.213 258.424,-273.706 184.853,-250.279 164.599,-243.83 143.314,-233.854 125.612,-224.565"/>
<polygon fill="black" stroke="black" points="127.174,-221.431 116.706,-219.793 123.867,-227.601 127.174,-221.431"/>
<text text-anchor="middle" x="191.853" y="-242.279" font-family="Helvetica Neue, Helvetica, Arial, sans-serif" font-size="10.00">1.0</text>
</g>
<!-- HeliocentricTrueEcliptic -->
<g id="node5" class="node"><title>HeliocentricTrueEcliptic</title>
<ellipse fill="none" stroke="black" cx="273.853" cy="-200.066" rx="86.0347" ry="21.4286"/>
<text text-anchor="middle" x="273.853" y="-203.066" font-family="Helvetica Neue, Helvetica, Arial, sans-serif" font-size="10.00">HeliocentricTrueEcliptic</text>
<text text-anchor="middle" x="273.853" y="-192.066" font-family="Helvetica Neue, Helvetica, Arial, sans-serif" font-size="10.00">`heliocentrictrueecliptic`</text>
</g>
<!-- ICRS&#45;&gt;HeliocentricTrueEcliptic -->
<g id="edge3" class="edge"><title>ICRS&#45;&gt;HeliocentricTrueEcliptic</title>
<path fill="none" stroke="black" d="M396.054,-281.82C374.788,-275.736 344.908,-265.378 321.853,-250.279 312.867,-244.395 304.266,-236.565 296.891,-228.885"/>
<polygon fill="black" stroke="black" points="299.297,-226.331 289.955,-221.333 294.142,-231.066 299.297,-226.331"/>
<text text-anchor="middle" x="328.853" y="-242.279" font-family="Helvetica Neue, Helvetica, Arial, sans-serif" font-size="10.00">1.0</text>
</g>
<!-- Galactocentric -->
<g id="node6" class="node"><title>Galactocentric</title>
<ellipse fill="none" stroke="black" cx="437.853" cy="-200.066" rx="60.2083" ry="21.4286"/>
<text text-anchor="middle" x="437.853" y="-203.066" font-family="Helvetica Neue, Helvetica, Arial, sans-serif" font-size="10.00">Galactocentric</text>
<text text-anchor="middle" x="437.853" y="-192.066" font-family="Helvetica Neue, Helvetica, Arial, sans-serif" font-size="10.00">`galactocentric`</text>
</g>
<!-- ICRS&#45;&gt;Galactocentric -->
<g id="edge4" class="edge"><title>ICRS&#45;&gt;Galactocentric</title>
<path fill="none" stroke="black" d="M410.42,-270.214C405.652,-260.925 402.148,-249.474 405.853,-239.279 407.211,-235.543 409.111,-231.918 411.317,-228.483"/>
<polygon fill="black" stroke="black" points="414.171,-230.51 417.29,-220.385 408.537,-226.355 414.171,-230.51"/>
<text text-anchor="middle" x="412.853" y="-242.279" font-family="Helvetica Neue, Helvetica, Arial, sans-serif" font-size="10.00">1.0</text>
</g>
<!-- ICRS&#45;&gt;FK5 -->
<g id="edge5" class="edge"><title>ICRS&#45;&gt;FK5</title>
<path fill="none" stroke="black" d="M422.853,-310.962C422.853,-321.841 422.853,-335.427 422.853,-347.513"/>
<polygon fill="black" stroke="black" points="419.353,-347.642 422.853,-357.642 426.353,-347.642 419.353,-347.642"/>
<text text-anchor="middle" x="429.853" y="-331.706" font-family="Helvetica Neue, Helvetica, Arial, sans-serif" font-size="10.00">1.0</text>
</g>
<!-- GCRS -->
<g id="node8" class="node"><title>GCRS</title>
<ellipse fill="none" stroke="black" cx="644.853" cy="-110.64" rx="31.6406" ry="21.4286"/>
<text text-anchor="middle" x="644.853" y="-113.64" font-family="Helvetica Neue, Helvetica, Arial, sans-serif" font-size="10.00">GCRS</text>
<text text-anchor="middle" x="644.853" y="-102.64" font-family="Helvetica Neue, Helvetica, Arial, sans-serif" font-size="10.00">`gcrs`</text>
</g>
<!-- ICRS&#45;&gt;GCRS -->
<g id="edge6" class="edge"><title>ICRS&#45;&gt;GCRS</title>
<path fill="none" stroke="black" d="M451.04,-286.436C492.431,-281.891 569.431,-267.38 612.853,-221.279 632.986,-199.904 640.534,-166.571 643.321,-142.267"/>
<polygon fill="black" stroke="black" points="646.821,-142.422 644.27,-132.138 639.852,-141.768 646.821,-142.422"/>
<text text-anchor="middle" x="643.853" y="-197.566" font-family="Helvetica Neue, Helvetica, Arial, sans-serif" font-size="10.00">1.0</text>
</g>
<!-- CIRS -->
<g id="node9" class="node"><title>CIRS</title>
<ellipse fill="none" stroke="black" cx="543.853" cy="-200.066" rx="28.0702" ry="21.4286"/>
<text text-anchor="middle" x="543.853" y="-203.066" font-family="Helvetica Neue, Helvetica, Arial, sans-serif" font-size="10.00">CIRS</text>
<text text-anchor="middle" x="543.853" y="-192.066" font-family="Helvetica Neue, Helvetica, Arial, sans-serif" font-size="10.00">`cirs`</text>
</g>
<!-- ICRS&#45;&gt;CIRS -->
<g id="edge7" class="edge"><title>ICRS&#45;&gt;CIRS</title>
<path fill="none" stroke="black" d="M447.829,-279.253C463.89,-272.615 484.698,-262.666 500.853,-250.279 509.497,-243.652 517.704,-235.074 524.588,-226.941"/>
<polygon fill="black" stroke="black" points="527.412,-229.015 530.997,-219.045 521.977,-224.604 527.412,-229.015"/>
<text text-anchor="middle" x="520.853" y="-242.279" font-family="Helvetica Neue, Helvetica, Arial, sans-serif" font-size="10.00">1.0</text>
</g>
<!-- BarycentricTrueEcliptic&#45;&gt;ICRS -->
<g id="edge16" class="edge"><title>BarycentricTrueEcliptic&#45;&gt;ICRS</title>
<path fill="none" stroke="black" d="M141.993,-215.846C211.76,-233.892 327.695,-263.879 386.398,-279.063"/>
<polygon fill="black" stroke="black" points="385.773,-282.516 396.331,-281.632 387.526,-275.739 385.773,-282.516"/>
<text text-anchor="middle" x="281.853" y="-242.279" font-family="Helvetica Neue, Helvetica, Arial, sans-serif" font-size="10.00">1.0</text>
</g>
<!-- HeliocentricTrueEcliptic&#45;&gt;ICRS -->
<g id="edge9" class="edge"><title>HeliocentricTrueEcliptic&#45;&gt;ICRS</title>
<path fill="none" stroke="black" d="M305.99,-219.923C331.617,-234.959 367.26,-255.873 392.427,-270.64"/>
<polygon fill="black" stroke="black" points="390.791,-273.738 401.187,-275.78 394.333,-267.7 390.791,-273.738"/>
<text text-anchor="middle" x="364.853" y="-242.279" font-family="Helvetica Neue, Helvetica, Arial, sans-serif" font-size="10.00">1.0</text>
</g>
<!-- Galactocentric&#45;&gt;ICRS -->
<g id="edge27" class="edge"><title>Galactocentric&#45;&gt;ICRS</title>
<path fill="none" stroke="black" d="M434.341,-221.536C432.474,-232.414 430.143,-246 428.07,-258.086"/>
<polygon fill="black" stroke="black" points="424.573,-257.767 426.332,-268.215 431.473,-258.951 424.573,-257.767"/>
<text text-anchor="middle" x="438.853" y="-242.279" font-family="Helvetica Neue, Helvetica, Arial, sans-serif" font-size="10.00">1.0</text>
</g>
<!-- FK5&#45;&gt;Galactic -->
<g id="edge29" class="edge"><title>FK5&#45;&gt;Galactic</title>
<path fill="none" stroke="black" d="M423.772,-400.241C425.168,-431.096 427.831,-489.978 429.464,-526.071"/>
<polygon fill="black" stroke="black" points="425.987,-526.653 429.935,-536.484 432.98,-526.336 425.987,-526.653"/>
<text text-anchor="middle" x="434.853" y="-465.845" font-family="Helvetica Neue, Helvetica, Arial, sans-serif" font-size="10.00">1.0</text>
</g>
<!-- FK5&#45;&gt;ICRS -->
<g id="edge28" class="edge"><title>FK5&#45;&gt;ICRS</title>
<path fill="none" stroke="black" d="M411.97,-359.07C409.065,-353.077 406.326,-346.29 404.853,-339.706 403.278,-332.667 404.405,-325.268 406.711,-318.407"/>
<polygon fill="black" stroke="black" points="410.084,-319.418 410.757,-308.844 403.637,-316.69 410.084,-319.418"/>
<text text-anchor="middle" x="411.853" y="-331.706" font-family="Helvetica Neue, Helvetica, Arial, sans-serif" font-size="10.00">1.0</text>
</g>
<!-- FK5&#45;&gt;FK5 -->
<g id="edge31" class="edge"><title>FK5&#45;&gt;FK5</title>
<path fill="none" stroke="black" d="M447.842,-387.07C458.622,-387.737 467.853,-385.02 467.853,-378.919 467.853,-374.915 463.878,-372.368 458.098,-371.279"/>
<polygon fill="black" stroke="black" points="458.004,-367.77 447.842,-370.768 457.655,-374.761 458.004,-367.77"/>
<text text-anchor="middle" x="474.853" y="-376.419" font-family="Helvetica Neue, Helvetica, Arial, sans-serif" font-size="10.00">1.0</text>
</g>
<!-- FK5&#45;&gt;FK4NoETerms -->
<g id="edge30" class="edge"><title>FK5&#45;&gt;FK4NoETerms</title>
<path fill="none" stroke="black" d="M404.081,-394.701C395.184,-401.749 384.431,-410.326 374.853,-418.132 365.416,-425.822 355.209,-434.284 345.98,-441.99"/>
<polygon fill="black" stroke="black" points="343.589,-439.427 338.166,-448.529 348.082,-444.796 343.589,-439.427"/>
<text text-anchor="middle" x="381.853" y="-421.132" font-family="Helvetica Neue, Helvetica, Arial, sans-serif" font-size="10.00">1.0</text>
</g>
<!-- GCRS&#45;&gt;ICRS -->
<g id="edge11" class="edge"><title>GCRS&#45;&gt;ICRS</title>
<path fill="none" stroke="black" d="M653.393,-131.486C661.99,-154.792 671.766,-193.759 654.853,-221.279 634.409,-254.545 520.939,-274.981 460.605,-283.649"/>
<polygon fill="black" stroke="black" points="460.114,-280.183 450.695,-285.035 461.084,-287.116 460.114,-280.183"/>
<text text-anchor="middle" x="671.853" y="-197.566" font-family="Helvetica Neue, Helvetica, Arial, sans-serif" font-size="10.00">1.0</text>
</g>
<!-- GCRS&#45;&gt;GCRS -->
<g id="edge14" class="edge"><title>GCRS&#45;&gt;GCRS</title>
<path fill="none" stroke="black" d="M674.518,-118.871C685.573,-119.141 694.673,-116.397 694.673,-110.64 694.673,-106.771 690.565,-104.263 684.516,-103.116"/>
<polygon fill="black" stroke="black" points="684.74,-99.6227 674.518,-102.408 684.245,-106.605 684.74,-99.6227"/>
<text text-anchor="middle" x="701.673" y="-108.14" font-family="Helvetica Neue, Helvetica, Arial, sans-serif" font-size="10.00">1.0</text>
</g>
<!-- GCRS&#45;&gt;CIRS -->
<g id="edge15" class="edge"><title>GCRS&#45;&gt;CIRS</title>
<path fill="none" stroke="black" d="M627.431,-128.924C617.511,-138.561 604.729,-150.643 592.853,-160.853 586.032,-166.716 578.457,-172.814 571.342,-178.371"/>
<polygon fill="black" stroke="black" points="569.051,-175.718 563.274,-184.6 573.328,-181.259 569.051,-175.718"/>
<text text-anchor="middle" x="613.853" y="-152.853" font-family="Helvetica Neue, Helvetica, Arial, sans-serif" font-size="10.00">1.0</text>
</g>
<!-- GeocentricTrueEcliptic -->
<g id="node10" class="node"><title>GeocentricTrueEcliptic</title>
<ellipse fill="none" stroke="black" cx="499.853" cy="-21.2132" rx="82.9636" ry="21.4286"/>
<text text-anchor="middle" x="499.853" y="-24.2132" font-family="Helvetica Neue, Helvetica, Arial, sans-serif" font-size="10.00">GeocentricTrueEcliptic</text>
<text text-anchor="middle" x="499.853" y="-13.2132" font-family="Helvetica Neue, Helvetica, Arial, sans-serif" font-size="10.00">`geocentrictrueecliptic`</text>
</g>
<!-- GCRS&#45;&gt;GeocentricTrueEcliptic -->
<g id="edge12" class="edge"><title>GCRS&#45;&gt;GeocentricTrueEcliptic</title>
<path fill="none" stroke="black" d="M621.877,-95.7866C599.851,-82.5064 566.144,-62.1828 539.733,-46.2586"/>
<polygon fill="black" stroke="black" points="541.455,-43.2096 531.084,-41.0435 537.84,-49.2043 541.455,-43.2096"/>
<text text-anchor="middle" x="588.853" y="-63.4264" font-family="Helvetica Neue, Helvetica, Arial, sans-serif" font-size="10.00">1.0</text>
</g>
<!-- PrecessedGeocentric -->
<g id="node11" class="node"><title>PrecessedGeocentric</title>
<ellipse fill="none" stroke="black" cx="681.853" cy="-21.2132" rx="81.135" ry="21.4286"/>
<text text-anchor="middle" x="681.853" y="-24.2132" font-family="Helvetica Neue, Helvetica, Arial, sans-serif" font-size="10.00">PrecessedGeocentric</text>
<text text-anchor="middle" x="681.853" y="-13.2132" font-family="Helvetica Neue, Helvetica, Arial, sans-serif" font-size="10.00">`precessedgeocentric`</text>
</g>
<!-- GCRS&#45;&gt;PrecessedGeocentric -->
<g id="edge10" class="edge"><title>GCRS&#45;&gt;PrecessedGeocentric</title>
<path fill="none" stroke="black" d="M653.249,-89.8012C657.959,-78.6704 663.931,-64.5605 669.198,-52.1151"/>
<polygon fill="black" stroke="black" points="672.559,-53.1532 673.233,-42.5798 666.113,-50.4249 672.559,-53.1532"/>
<text text-anchor="middle" x="672.853" y="-63.4264" font-family="Helvetica Neue, Helvetica, Arial, sans-serif" font-size="10.00">1.0</text>
</g>
<!-- HCRS -->
<g id="node12" class="node"><title>HCRS</title>
<ellipse fill="none" stroke="black" cx="812.853" cy="-21.2132" rx="31.6406" ry="21.4286"/>
<text text-anchor="middle" x="812.853" y="-24.2132" font-family="Helvetica Neue, Helvetica, Arial, sans-serif" font-size="10.00">HCRS</text>
<text text-anchor="middle" x="812.853" y="-13.2132" font-family="Helvetica Neue, Helvetica, Arial, sans-serif" font-size="10.00">`hcrs`</text>
</g>
<!-- GCRS&#45;&gt;HCRS -->
<g id="edge13" class="edge"><title>GCRS&#45;&gt;HCRS</title>
<path fill="none" stroke="black" d="M669.281,-96.9271C698.271,-81.8408 746.765,-56.6051 779.27,-39.6895"/>
<polygon fill="black" stroke="black" points="781.14,-42.6622 788.395,-34.9411 777.908,-36.4527 781.14,-42.6622"/>
<text text-anchor="middle" x="746.853" y="-63.4264" font-family="Helvetica Neue, Helvetica, Arial, sans-serif" font-size="10.00">1.0</text>
</g>
<!-- CIRS&#45;&gt;ICRS -->
<g id="edge18" class="edge"><title>CIRS&#45;&gt;ICRS</title>
<path fill="none" stroke="black" d="M521.959,-213.853C510.14,-220.986 495.435,-230.234 482.853,-239.279 471.286,-247.594 459.039,-257.436 448.646,-266.125"/>
<polygon fill="black" stroke="black" points="446.134,-263.665 440.758,-272.794 450.654,-269.011 446.134,-263.665"/>
<text text-anchor="middle" x="489.853" y="-242.279" font-family="Helvetica Neue, Helvetica, Arial, sans-serif" font-size="10.00">1.0</text>
</g>
<!-- CIRS&#45;&gt;GCRS -->
<g id="edge21" class="edge"><title>CIRS&#45;&gt;GCRS</title>
<path fill="none" stroke="black" d="M553.062,-179.664C558.413,-169.86 565.874,-158.288 574.853,-149.853 578.024,-146.873 594.963,-137.604 611.382,-128.942"/>
<polygon fill="black" stroke="black" points="613.127,-131.979 620.359,-124.236 609.877,-125.779 613.127,-131.979"/>
<text text-anchor="middle" x="583.853" y="-152.853" font-family="Helvetica Neue, Helvetica, Arial, sans-serif" font-size="10.00">1.0</text>
</g>
<!-- CIRS&#45;&gt;CIRS -->
<g id="edge20" class="edge"><title>CIRS&#45;&gt;CIRS</title>
<path fill="none" stroke="black" d="M570.022,-208.244C580.909,-208.807 590.137,-206.082 590.137,-200.066 590.137,-196.118 586.163,-193.587 580.354,-192.473"/>
<polygon fill="black" stroke="black" points="580.204,-188.959 570.022,-191.889 579.809,-195.948 580.204,-188.959"/>
<text text-anchor="middle" x="597.137" y="-197.566" font-family="Helvetica Neue, Helvetica, Arial, sans-serif" font-size="10.00">1.0</text>
</g>
<!-- ITRS -->
<g id="node13" class="node"><title>ITRS</title>
<ellipse fill="none" stroke="black" cx="422.853" cy="-110.64" rx="27.6545" ry="21.4286"/>
<text text-anchor="middle" x="422.853" y="-113.64" font-family="Helvetica Neue, Helvetica, Arial, sans-serif" font-size="10.00">ITRS</text>
<text text-anchor="middle" x="422.853" y="-102.64" font-family="Helvetica Neue, Helvetica, Arial, sans-serif" font-size="10.00">`itrs`</text>
</g>
<!-- CIRS&#45;&gt;ITRS -->
<g id="edge19" class="edge"><title>CIRS&#45;&gt;ITRS</title>
<path fill="none" stroke="black" d="M524.143,-184.825C504.191,-170.409 473.161,-147.989 450.702,-131.761"/>
<polygon fill="black" stroke="black" points="452.71,-128.894 442.554,-125.875 448.61,-134.568 452.71,-128.894"/>
<text text-anchor="middle" x="497.853" y="-152.853" font-family="Helvetica Neue, Helvetica, Arial, sans-serif" font-size="10.00">1.0</text>
</g>
<!-- AltAz -->
<g id="node14" class="node"><title>AltAz</title>
<ellipse fill="none" stroke="black" cx="531.853" cy="-110.64" rx="31.2258" ry="21.4286"/>
<text text-anchor="middle" x="531.853" y="-113.64" font-family="Helvetica Neue, Helvetica, Arial, sans-serif" font-size="10.00">AltAz</text>
<text text-anchor="middle" x="531.853" y="-102.64" font-family="Helvetica Neue, Helvetica, Arial, sans-serif" font-size="10.00">`altaz`</text>
</g>
<!-- CIRS&#45;&gt;AltAz -->
<g id="edge22" class="edge"><title>CIRS&#45;&gt;AltAz</title>
<path fill="none" stroke="black" d="M541.07,-178.789C539.57,-167.865 537.69,-154.169 536.02,-142"/>
<polygon fill="black" stroke="black" points="539.448,-141.238 534.621,-131.807 532.513,-142.19 539.448,-141.238"/>
<text text-anchor="middle" x="545.853" y="-152.853" font-family="Helvetica Neue, Helvetica, Arial, sans-serif" font-size="10.00">1.0</text>
</g>
<!-- GeocentricTrueEcliptic&#45;&gt;GCRS -->
<g id="edge8" class="edge"><title>GeocentricTrueEcliptic&#45;&gt;GCRS</title>
<path fill="none" stroke="black" d="M510.771,-42.5468C517.138,-52.6053 526.048,-64.1245 536.853,-71.4264 562.4,-88.6909 574.998,-78.5573 603.853,-89.4264 606.257,-90.3321 608.709,-91.332 611.158,-92.3878"/>
<polygon fill="black" stroke="black" points="609.933,-95.6764 620.483,-96.6558 612.847,-89.3114 609.933,-95.6764"/>
<text text-anchor="middle" x="543.853" y="-63.4264" font-family="Helvetica Neue, Helvetica, Arial, sans-serif" font-size="10.00">1.0</text>
</g>
<!-- PrecessedGeocentric&#45;&gt;GCRS -->
<g id="edge23" class="edge"><title>PrecessedGeocentric&#45;&gt;GCRS</title>
<path fill="none" stroke="black" d="M656.714,-41.7524C651.489,-47.1809 646.707,-53.5073 643.853,-60.4264 641.473,-66.1957 640.532,-72.6785 640.403,-78.9981"/>
<polygon fill="black" stroke="black" points="636.92,-79.4823 640.842,-89.3247 643.914,-79.1851 636.92,-79.4823"/>
<text text-anchor="middle" x="650.853" y="-63.4264" font-family="Helvetica Neue, Helvetica, Arial, sans-serif" font-size="10.00">1.0</text>
</g>
<!-- HCRS&#45;&gt;HCRS -->
<g id="edge17" class="edge"><title>HCRS&#45;&gt;HCRS</title>
<path fill="none" stroke="black" d="M842.518,-29.4451C853.573,-29.715 862.673,-26.971 862.673,-21.2132 862.673,-17.3447 858.565,-14.8366 852.516,-13.6891"/>
<polygon fill="black" stroke="black" points="852.74,-10.1963 842.518,-12.9813 852.245,-17.1788 852.74,-10.1963"/>
<text text-anchor="middle" x="869.673" y="-18.7132" font-family="Helvetica Neue, Helvetica, Arial, sans-serif" font-size="10.00">1.0</text>
</g>
<!-- ITRS&#45;&gt;CIRS -->
<g id="edge32" class="edge"><title>ITRS&#45;&gt;CIRS</title>
<path fill="none" stroke="black" d="M433.054,-130.586C439.339,-140.743 448.226,-152.791 458.853,-160.853 477.005,-174.623 486.137,-169.368 506.853,-178.853 508.7,-179.698 510.581,-180.598 512.467,-181.531"/>
<polygon fill="black" stroke="black" points="511.318,-184.876 521.808,-186.362 514.534,-178.659 511.318,-184.876"/>
<text text-anchor="middle" x="465.853" y="-152.853" font-family="Helvetica Neue, Helvetica, Arial, sans-serif" font-size="10.00">1.0</text>
</g>
<!-- ITRS&#45;&gt;ITRS -->
<g id="edge33" class="edge"><title>ITRS&#45;&gt;ITRS</title>
<path fill="none" stroke="black" d="M448.623,-118.817C459.343,-119.381 468.43,-116.655 468.43,-110.64 468.43,-106.692 464.516,-104.161 458.796,-103.047"/>
<polygon fill="black" stroke="black" points="458.807,-99.5417 448.623,-102.462 458.405,-106.53 458.807,-99.5417"/>
<text text-anchor="middle" x="475.43" y="-108.14" font-family="Helvetica Neue, Helvetica, Arial, sans-serif" font-size="10.00">1.0</text>
</g>
<!-- AltAz&#45;&gt;CIRS -->
<g id="edge38" class="edge"><title>AltAz&#45;&gt;CIRS</title>
<path fill="none" stroke="black" d="M522.479,-130.901C519.229,-140.026 517.03,-151.05 519.853,-160.853 520.991,-164.805 522.672,-168.744 524.625,-172.507"/>
<polygon fill="black" stroke="black" points="521.786,-174.583 529.886,-181.413 527.813,-171.023 521.786,-174.583"/>
<text text-anchor="middle" x="526.853" y="-152.853" font-family="Helvetica Neue, Helvetica, Arial, sans-serif" font-size="10.00">1.0</text>
</g>
<!-- AltAz&#45;&gt;AltAz -->
<g id="edge39" class="edge"><title>AltAz&#45;&gt;AltAz</title>
<path fill="none" stroke="black" d="M560.607,-118.857C571.725,-119.223 580.966,-116.483 580.966,-110.64 580.966,-106.713 576.794,-104.188 570.685,-103.065"/>
<polygon fill="black" stroke="black" points="570.81,-99.566 560.607,-102.422 570.364,-106.552 570.81,-99.566"/>
<text text-anchor="middle" x="587.966" y="-108.14" font-family="Helvetica Neue, Helvetica, Arial, sans-serif" font-size="10.00">1.0</text>
</g>
<!-- FK4NoETerms&#45;&gt;Galactic -->
<g id="edge34" class="edge"><title>FK4NoETerms&#45;&gt;Galactic</title>
<path fill="none" stroke="black" d="M325.959,-489.458C331.639,-499.214 339.476,-510.53 348.853,-518.558 360.181,-528.258 374.387,-536.019 387.777,-541.946"/>
<polygon fill="black" stroke="black" points="386.754,-545.312 397.33,-545.939 389.453,-538.853 386.754,-545.312"/>
<text text-anchor="middle" x="355.853" y="-510.558" font-family="Helvetica Neue, Helvetica, Arial, sans-serif" font-size="10.00">1.0</text>
</g>
<!-- FK4NoETerms&#45;&gt;FK5 -->
<g id="edge36" class="edge"><title>FK4NoETerms&#45;&gt;FK5</title>
<path fill="none" stroke="black" d="M353.701,-451.886C365.73,-445.879 378.567,-438.231 388.853,-429.132 395.785,-423 402.012,-415.172 407.183,-407.574"/>
<polygon fill="black" stroke="black" points="410.308,-409.183 412.749,-398.873 404.412,-405.411 410.308,-409.183"/>
<text text-anchor="middle" x="406.853" y="-421.132" font-family="Helvetica Neue, Helvetica, Arial, sans-serif" font-size="10.00">1.0</text>
</g>
<!-- FK4NoETerms&#45;&gt;FK4NoETerms -->
<g id="edge35" class="edge"><title>FK4NoETerms&#45;&gt;FK4NoETerms</title>
<path fill="none" stroke="black" d="M370.308,-476.432C383.103,-475.767 392.543,-473.072 392.543,-468.345 392.543,-465.022 387.876,-462.703 380.657,-461.387"/>
<polygon fill="black" stroke="black" points="380.629,-457.864 370.308,-460.258 379.87,-464.822 380.629,-457.864"/>
<text text-anchor="middle" x="399.543" y="-465.845" font-family="Helvetica Neue, Helvetica, Arial, sans-serif" font-size="10.00">1.0</text>
</g>
<!-- FK4 -->
<g id="node16" class="node"><title>FK4</title>
<ellipse fill="none" stroke="black" cx="306.853" cy="-378.919" rx="27" ry="21.4286"/>
<text text-anchor="middle" x="306.853" y="-381.919" font-family="Helvetica Neue, Helvetica, Arial, sans-serif" font-size="10.00">FK4</text>
<text text-anchor="middle" x="306.853" y="-370.919" font-family="Helvetica Neue, Helvetica, Arial, sans-serif" font-size="10.00">`fk4`</text>
</g>
<!-- FK4NoETerms&#45;&gt;FK4 -->
<g id="edge37" class="edge"><title>FK4NoETerms&#45;&gt;FK4</title>
<path fill="none" stroke="black" d="M313.765,-447.068C312.641,-436.144 311.231,-422.448 309.978,-410.279"/>
<polygon fill="black" stroke="black" points="313.435,-409.675 308.929,-400.086 306.471,-410.392 313.435,-409.675"/>
<text text-anchor="middle" x="319.853" y="-421.132" font-family="Helvetica Neue, Helvetica, Arial, sans-serif" font-size="10.00">1.0</text>
</g>
<!-- FK4&#45;&gt;FK4NoETerms -->
<g id="edge40" class="edge"><title>FK4&#45;&gt;FK4NoETerms</title>
<path fill="none" stroke="black" d="M296.589,-398.599C292.803,-407.787 290.048,-419.032 292.853,-429.132 293.744,-432.34 294.984,-435.549 296.432,-438.667"/>
<polygon fill="black" stroke="black" points="293.444,-440.501 301.253,-447.66 299.613,-437.193 293.444,-440.501"/>
<text text-anchor="middle" x="299.853" y="-421.132" font-family="Helvetica Neue, Helvetica, Arial, sans-serif" font-size="10.00">1.0</text>
</g>
<!-- FK4&#45;&gt;FK4 -->
<g id="edge41" class="edge"><title>FK4&#45;&gt;FK4</title>
<path fill="none" stroke="black" d="M331.842,-387.07C342.622,-387.737 351.853,-385.02 351.853,-378.919 351.853,-374.915 347.878,-372.368 342.098,-371.279"/>
<polygon fill="black" stroke="black" points="342.004,-367.77 331.842,-370.768 341.655,-374.761 342.004,-367.77"/>
<text text-anchor="middle" x="358.853" y="-376.419" font-family="Helvetica Neue, Helvetica, Arial, sans-serif" font-size="10.00">1.0</text>
</g>
</g>
</svg>
