<?xml version="1.0" encoding="UTF-8" standalone="no"?>
<!DOCTYPE svg PUBLIC "-//W3C//DTD SVG 1.1//EN"
 "http://www.w3.org/Graphics/SVG/1.1/DTD/svg11.dtd">
<!-- Generated by graphviz version 2.38.0 (20140413.2041)
 -->
<!-- Title: AstropyCoordinateTransformGraph Pages: 1 -->
<svg width="947pt" height="408pt"
 viewBox="0.00 0.00 946.82 408.13" xmlns="http://www.w3.org/2000/svg" xmlns:xlink="http://www.w3.org/1999/xlink">
<g id="graph0" class="graph" transform="scale(1 1) rotate(0) translate(4 404.132)">
<title>AstropyCoordinateTransformGraph</title>
<polygon fill="white" stroke="none" points="-4,4 -4,-404.132 942.82,-404.132 942.82,4 -4,4"/>
<!-- FK5 -->
<g id="node1" class="node"><title>FK5</title>
<ellipse fill="none" stroke="black" cx="704.82" cy="-378.919" rx="27" ry="21.4286"/>
<text text-anchor="middle" x="704.82" y="-381.919" font-family="Helvetica Neue, Helvetica, Arial, sans-serif" font-size="10.00">FK5</text>
<text text-anchor="middle" x="704.82" y="-370.919" font-family="Helvetica Neue, Helvetica, Arial, sans-serif" font-size="10.00">`fk5`</text>
</g>
<!-- FK5&#45;&gt;FK5 -->
<g id="edge1" class="edge"><title>FK5&#45;&gt;FK5</title>
<path fill="none" stroke="black" d="M729.809,-387.07C740.589,-387.737 749.82,-385.02 749.82,-378.919 749.82,-374.915 745.845,-372.368 740.065,-371.279"/>
<polygon fill="black" stroke="black" points="739.971,-367.77 729.809,-370.768 739.622,-374.761 739.971,-367.77"/>
<text text-anchor="middle" x="756.82" y="-376.419" font-family="Helvetica Neue, Helvetica, Arial, sans-serif" font-size="10.00">1.0</text>
</g>
<!-- ICRS -->
<g id="node2" class="node"><title>ICRS</title>
<ellipse fill="none" stroke="black" cx="445.82" cy="-289.492" rx="28.0702" ry="21.4286"/>
<text text-anchor="middle" x="445.82" y="-292.492" font-family="Helvetica Neue, Helvetica, Arial, sans-serif" font-size="10.00">ICRS</text>
<text text-anchor="middle" x="445.82" y="-281.492" font-family="Helvetica Neue, Helvetica, Arial, sans-serif" font-size="10.00">`icrs`</text>
</g>
<!-- FK5&#45;&gt;ICRS -->
<g id="edge2" class="edge"><title>FK5&#45;&gt;ICRS</title>
<path fill="none" stroke="black" d="M678.56,-373.794C645.863,-368.201 588.611,-356.892 541.82,-339.706 518.959,-331.309 494.554,-318.746 476.072,-308.414"/>
<polygon fill="black" stroke="black" points="477.671,-305.297 467.247,-303.4 474.212,-311.383 477.671,-305.297"/>
<text text-anchor="middle" x="548.82" y="-331.706" font-family="Helvetica Neue, Helvetica, Arial, sans-serif" font-size="10.00">1.0</text>
</g>
<!-- FK4NoETerms -->
<g id="node3" class="node"><title>FK4NoETerms</title>
<ellipse fill="none" stroke="black" cx="820.82" cy="-289.492" rx="58.8803" ry="21.4286"/>
<text text-anchor="middle" x="820.82" y="-292.492" font-family="Helvetica Neue, Helvetica, Arial, sans-serif" font-size="10.00">FK4NoETerms</text>
<text text-anchor="middle" x="820.82" y="-281.492" font-family="Helvetica Neue, Helvetica, Arial, sans-serif" font-size="10.00">`fk4noeterms`</text>
</g>
<!-- FK5&#45;&gt;FK4NoETerms -->
<g id="edge3" class="edge"><title>FK5&#45;&gt;FK4NoETerms</title>
<path fill="none" stroke="black" d="M723.715,-363.678C741.094,-350.58 767.241,-330.874 788.026,-315.208"/>
<polygon fill="black" stroke="black" points="790.395,-317.805 796.275,-308.992 786.182,-312.215 790.395,-317.805"/>
<text text-anchor="middle" x="776.82" y="-331.706" font-family="Helvetica Neue, Helvetica, Arial, sans-serif" font-size="10.00">1.0</text>
</g>
<!-- Galactic -->
<g id="node4" class="node"><title>Galactic</title>
<ellipse fill="none" stroke="black" cx="790.82" cy="-200.066" rx="40.1111" ry="21.4286"/>
<text text-anchor="middle" x="790.82" y="-203.066" font-family="Helvetica Neue, Helvetica, Arial, sans-serif" font-size="10.00">Galactic</text>
<text text-anchor="middle" x="790.82" y="-192.066" font-family="Helvetica Neue, Helvetica, Arial, sans-serif" font-size="10.00">`galactic`</text>
</g>
<!-- FK5&#45;&gt;Galactic -->
<g id="edge4" class="edge"><title>FK5&#45;&gt;Galactic</title>
<path fill="none" stroke="black" d="M708.812,-357.676C713.791,-335.016 723.555,-297.629 738.82,-268.279 746.397,-253.709 757.217,-239.102 767.026,-227.245"/>
<polygon fill="black" stroke="black" points="769.792,-229.395 773.603,-219.51 764.459,-224.861 769.792,-229.395"/>
<text text-anchor="middle" x="745.82" y="-286.992" font-family="Helvetica Neue, Helvetica, Arial, sans-serif" font-size="10.00">1.0</text>
</g>
<!-- ICRS&#45;&gt;FK5 -->
<g id="edge18" class="edge"><title>ICRS&#45;&gt;FK5</title>
<path fill="none" stroke="black" d="M471.456,-299.146C518.448,-315.008 618.369,-348.737 670.912,-366.473"/>
<polygon fill="black" stroke="black" points="669.86,-369.812 680.454,-369.694 672.098,-363.179 669.86,-369.812"/>
<text text-anchor="middle" x="598.82" y="-331.706" font-family="Helvetica Neue, Helvetica, Arial, sans-serif" font-size="10.00">1.0</text>
</g>
<!-- GCRS -->
<g id="node7" class="node"><title>GCRS</title>
<ellipse fill="none" stroke="black" cx="377.82" cy="-200.066" rx="31.6406" ry="21.4286"/>
<text text-anchor="middle" x="377.82" y="-203.066" font-family="Helvetica Neue, Helvetica, Arial, sans-serif" font-size="10.00">GCRS</text>
<text text-anchor="middle" x="377.82" y="-192.066" font-family="Helvetica Neue, Helvetica, Arial, sans-serif" font-size="10.00">`gcrs`</text>
</g>
<!-- ICRS&#45;&gt;GCRS -->
<g id="edge21" class="edge"><title>ICRS&#45;&gt;GCRS</title>
<path fill="none" stroke="black" d="M433.1,-270.515C426.332,-261.101 417.782,-249.447 409.82,-239.279 406.569,-235.128 403.052,-230.787 399.581,-226.583"/>
<polygon fill="black" stroke="black" points="402.138,-224.185 393.043,-218.752 396.765,-228.672 402.138,-224.185"/>
<text text-anchor="middle" x="425.82" y="-242.279" font-family="Helvetica Neue, Helvetica, Arial, sans-serif" font-size="10.00">1.0</text>
</g>
<!-- CIRS -->
<g id="node9" class="node"><title>CIRS</title>
<ellipse fill="none" stroke="black" cx="505.82" cy="-110.64" rx="28.0702" ry="21.4286"/>
<text text-anchor="middle" x="505.82" y="-113.64" font-family="Helvetica Neue, Helvetica, Arial, sans-serif" font-size="10.00">CIRS</text>
<text text-anchor="middle" x="505.82" y="-102.64" font-family="Helvetica Neue, Helvetica, Arial, sans-serif" font-size="10.00">`cirs`</text>
</g>
<!-- ICRS&#45;&gt;CIRS -->
<g id="edge22" class="edge"><title>ICRS&#45;&gt;CIRS</title>
<path fill="none" stroke="black" d="M467.747,-275.469C476.659,-269.027 486.17,-260.443 491.82,-250.279 510.453,-216.758 511.377,-171.588 509.38,-142.05"/>
<polygon fill="black" stroke="black" points="512.855,-141.602 508.539,-131.926 505.879,-142.181 512.855,-141.602"/>
<text text-anchor="middle" x="516.82" y="-197.566" font-family="Helvetica Neue, Helvetica, Arial, sans-serif" font-size="10.00">1.0</text>
</g>
<!-- HeliocentricTrueEcliptic -->
<g id="node10" class="node"><title>HeliocentricTrueEcliptic</title>
<ellipse fill="none" stroke="black" cx="645.82" cy="-200.066" rx="86.0347" ry="21.4286"/>
<text text-anchor="middle" x="645.82" y="-203.066" font-family="Helvetica Neue, Helvetica, Arial, sans-serif" font-size="10.00">HeliocentricTrueEcliptic</text>
<text text-anchor="middle" x="645.82" y="-192.066" font-family="Helvetica Neue, Helvetica, Arial, sans-serif" font-size="10.00">`heliocentrictrueecliptic`</text>
</g>
<!-- ICRS&#45;&gt;HeliocentricTrueEcliptic -->
<g id="edge20" class="edge"><title>ICRS&#45;&gt;HeliocentricTrueEcliptic</title>
<path fill="none" stroke="black" d="M470.861,-279.023C490.338,-271.538 517.969,-260.657 541.82,-250.279 560.849,-241.999 581.561,-232.335 599.456,-223.773"/>
<polygon fill="black" stroke="black" points="601.037,-226.897 608.534,-219.41 598.005,-220.588 601.037,-226.897"/>
<text text-anchor="middle" x="572.82" y="-242.279" font-family="Helvetica Neue, Helvetica, Arial, sans-serif" font-size="10.00">1.0</text>
</g>
<!-- BarycentricTrueEcliptic -->
<g id="node13" class="node"><title>BarycentricTrueEcliptic</title>
<ellipse fill="none" stroke="black" cx="104.82" cy="-200.066" rx="84.7059" ry="21.4286"/>
<text text-anchor="middle" x="104.82" y="-203.066" font-family="Helvetica Neue, Helvetica, Arial, sans-serif" font-size="10.00">BarycentricTrueEcliptic</text>
<text text-anchor="middle" x="104.82" y="-192.066" font-family="Helvetica Neue, Helvetica, Arial, sans-serif" font-size="10.00">`barycentrictrueecliptic`</text>
</g>
<!-- ICRS&#45;&gt;BarycentricTrueEcliptic -->
<g id="edge23" class="edge"><title>ICRS&#45;&gt;BarycentricTrueEcliptic</title>
<path fill="none" stroke="black" d="M417.504,-286.518C372.452,-282.806 282.06,-273.009 208.82,-250.279 187.767,-243.746 165.539,-233.7 147.061,-224.384"/>
<polygon fill="black" stroke="black" points="148.534,-221.206 138.04,-219.745 145.333,-227.431 148.534,-221.206"/>
<text text-anchor="middle" x="215.82" y="-242.279" font-family="Helvetica Neue, Helvetica, Arial, sans-serif" font-size="10.00">1.0</text>
</g>
<!-- Galactocentric -->
<g id="node14" class="node"><title>Galactocentric</title>
<ellipse fill="none" stroke="black" cx="267.82" cy="-200.066" rx="60.2083" ry="21.4286"/>
<text text-anchor="middle" x="267.82" y="-203.066" font-family="Helvetica Neue, Helvetica, Arial, sans-serif" font-size="10.00">Galactocentric</text>
<text text-anchor="middle" x="267.82" y="-192.066" font-family="Helvetica Neue, Helvetica, Arial, sans-serif" font-size="10.00">`galactocentric`</text>
</g>
<!-- ICRS&#45;&gt;Galactocentric -->
<g id="edge19" class="edge"><title>ICRS&#45;&gt;Galactocentric</title>
<path fill="none" stroke="black" d="M417.588,-287.923C384.874,-285.893 330.86,-278.16 294.82,-250.279 288.208,-245.164 282.995,-237.951 278.987,-230.621"/>
<polygon fill="black" stroke="black" points="282.043,-228.901 274.539,-221.422 275.741,-231.948 282.043,-228.901"/>
<text text-anchor="middle" x="301.82" y="-242.279" font-family="Helvetica Neue, Helvetica, Arial, sans-serif" font-size="10.00">1.0</text>
</g>
<!-- FK4NoETerms&#45;&gt;FK5 -->
<g id="edge26" class="edge"><title>FK4NoETerms&#45;&gt;FK5</title>
<path fill="none" stroke="black" d="M810.73,-310.624C805.053,-320.385 797.215,-331.699 787.82,-339.706 773.722,-351.72 755.217,-360.725 739.258,-366.966"/>
<polygon fill="black" stroke="black" points="737.878,-363.744 729.713,-370.496 740.306,-370.31 737.878,-363.744"/>
<text text-anchor="middle" x="806.82" y="-331.706" font-family="Helvetica Neue, Helvetica, Arial, sans-serif" font-size="10.00">1.0</text>
</g>
<!-- FK4NoETerms&#45;&gt;FK4NoETerms -->
<g id="edge27" class="edge"><title>FK4NoETerms&#45;&gt;FK4NoETerms</title>
<path fill="none" stroke="black" d="M875.275,-297.579C888.07,-296.915 897.51,-294.219 897.51,-289.492 897.51,-286.169 892.843,-283.85 885.624,-282.535"/>
<polygon fill="black" stroke="black" points="885.596,-279.011 875.275,-281.406 884.837,-285.969 885.596,-279.011"/>
<text text-anchor="middle" x="904.51" y="-286.992" font-family="Helvetica Neue, Helvetica, Arial, sans-serif" font-size="10.00">1.0</text>
</g>
<!-- FK4NoETerms&#45;&gt;Galactic -->
<g id="edge28" class="edge"><title>FK4NoETerms&#45;&gt;Galactic</title>
<path fill="none" stroke="black" d="M813.862,-268.215C810.075,-257.181 805.318,-243.318 801.111,-231.058"/>
<polygon fill="black" stroke="black" points="804.296,-229.556 797.74,-221.233 797.675,-231.828 804.296,-229.556"/>
<text text-anchor="middle" x="814.82" y="-242.279" font-family="Helvetica Neue, Helvetica, Arial, sans-serif" font-size="10.00">1.0</text>
</g>
<!-- FK4 -->
<g id="node15" class="node"><title>FK4</title>
<ellipse fill="none" stroke="black" cx="879.82" cy="-200.066" rx="27" ry="21.4286"/>
<text text-anchor="middle" x="879.82" y="-203.066" font-family="Helvetica Neue, Helvetica, Arial, sans-serif" font-size="10.00">FK4</text>
<text text-anchor="middle" x="879.82" y="-192.066" font-family="Helvetica Neue, Helvetica, Arial, sans-serif" font-size="10.00">`fk4`</text>
</g>
<!-- FK4NoETerms&#45;&gt;FK4 -->
<g id="edge29" class="edge"><title>FK4NoETerms&#45;&gt;FK4</title>
<path fill="none" stroke="black" d="M847.216,-270.519C854.095,-264.748 860.938,-257.863 865.82,-250.279 869.48,-244.593 872.201,-237.937 874.219,-231.391"/>
<polygon fill="black" stroke="black" points="877.701,-231.909 876.843,-221.349 870.928,-230.139 877.701,-231.909"/>
<text text-anchor="middle" x="878.82" y="-242.279" font-family="Helvetica Neue, Helvetica, Arial, sans-serif" font-size="10.00">1.0</text>
</g>
<!-- Galactic&#45;&gt;FK5 -->
<g id="edge30" class="edge"><title>Galactic&#45;&gt;FK5</title>
<path fill="none" stroke="black" d="M761.536,-214.708C741.228,-225.932 715.767,-243.952 703.82,-268.279 691.668,-293.024 693.585,-324.859 697.542,-347.844"/>
<polygon fill="black" stroke="black" points="694.118,-348.575 699.46,-357.724 700.99,-347.241 694.118,-348.575"/>
<text text-anchor="middle" x="710.82" y="-286.992" font-family="Helvetica Neue, Helvetica, Arial, sans-serif" font-size="10.00">1.0</text>
</g>
<!-- Galactic&#45;&gt;FK4NoETerms -->
<g id="edge32" class="edge"><title>Galactic&#45;&gt;FK4NoETerms</title>
<path fill="none" stroke="black" d="M785.285,-221.263C783.758,-230.388 783.345,-241.146 786.82,-250.279 788.27,-254.092 790.295,-257.767 792.641,-261.23"/>
<polygon fill="black" stroke="black" points="790.079,-263.635 798.992,-269.363 795.596,-259.327 790.079,-263.635"/>
<text text-anchor="middle" x="793.82" y="-242.279" font-family="Helvetica Neue, Helvetica, Arial, sans-serif" font-size="10.00">1.0</text>
</g>
<!-- Supergalactic -->
<g id="node5" class="node"><title>Supergalactic</title>
<ellipse fill="none" stroke="black" cx="789.82" cy="-110.64" rx="57.9655" ry="21.4286"/>
<text text-anchor="middle" x="789.82" y="-113.64" font-family="Helvetica Neue, Helvetica, Arial, sans-serif" font-size="10.00">Supergalactic</text>
<text text-anchor="middle" x="789.82" y="-102.64" font-family="Helvetica Neue, Helvetica, Arial, sans-serif" font-size="10.00">`supergalactic`</text>
</g>
<!-- Galactic&#45;&gt;Supergalactic -->
<g id="edge31" class="edge"><title>Galactic&#45;&gt;Supergalactic</title>
<path fill="none" stroke="black" d="M779.559,-179.431C776.796,-173.634 774.229,-167.151 772.82,-160.853 771.369,-154.369 772.153,-147.552 774.008,-141.127"/>
<polygon fill="black" stroke="black" points="777.399,-142.05 777.636,-131.458 770.846,-139.59 777.399,-142.05"/>
<text text-anchor="middle" x="779.82" y="-152.853" font-family="Helvetica Neue, Helvetica, Arial, sans-serif" font-size="10.00">1.0</text>
</g>
<!-- Supergalactic&#45;&gt;Galactic -->
<g id="edge5" class="edge"><title>Supergalactic&#45;&gt;Galactic</title>
<path fill="none" stroke="black" d="M790.054,-132.11C790.178,-142.988 790.334,-156.574 790.472,-168.66"/>
<polygon fill="black" stroke="black" points="786.974,-168.83 790.588,-178.789 793.973,-168.749 786.974,-168.83"/>
<text text-anchor="middle" x="797.82" y="-152.853" font-family="Helvetica Neue, Helvetica, Arial, sans-serif" font-size="10.00">1.0</text>
</g>
<!-- PrecessedGeocentric -->
<g id="node6" class="node"><title>PrecessedGeocentric</title>
<ellipse fill="none" stroke="black" cx="194.82" cy="-110.64" rx="81.135" ry="21.4286"/>
<text text-anchor="middle" x="194.82" y="-113.64" font-family="Helvetica Neue, Helvetica, Arial, sans-serif" font-size="10.00">PrecessedGeocentric</text>
<text text-anchor="middle" x="194.82" y="-102.64" font-family="Helvetica Neue, Helvetica, Arial, sans-serif" font-size="10.00">`precessedgeocentric`</text>
</g>
<!-- PrecessedGeocentric&#45;&gt;GCRS -->
<g id="edge6" class="edge"><title>PrecessedGeocentric&#45;&gt;GCRS</title>
<path fill="none" stroke="black" d="M232.869,-129.448C261.508,-142.902 301.701,-161.886 336.82,-178.853 338.91,-179.863 341.058,-180.906 343.223,-181.961"/>
<polygon fill="black" stroke="black" points="342.179,-185.347 352.699,-186.602 345.258,-179.06 342.179,-185.347"/>
<text text-anchor="middle" x="305.82" y="-152.853" font-family="Helvetica Neue, Helvetica, Arial, sans-serif" font-size="10.00">1.0</text>
</g>
<!-- GCRS&#45;&gt;ICRS -->
<g id="edge10" class="edge"><title>GCRS&#45;&gt;ICRS</title>
<path fill="none" stroke="black" d="M382.47,-221.497C385.283,-230.878 389.565,-241.78 395.82,-250.279 401.219,-257.616 408.405,-264.227 415.641,-269.807"/>
<polygon fill="black" stroke="black" points="413.894,-272.862 424.054,-275.865 417.984,-267.181 413.894,-272.862"/>
<text text-anchor="middle" x="402.82" y="-242.279" font-family="Helvetica Neue, Helvetica, Arial, sans-serif" font-size="10.00">1.0</text>
</g>
<!-- GCRS&#45;&gt;PrecessedGeocentric -->
<g id="edge12" class="edge"><title>GCRS&#45;&gt;PrecessedGeocentric</title>
<path fill="none" stroke="black" d="M353.513,-185.91C348.119,-183.324 342.357,-180.809 336.82,-178.853 302.458,-166.71 289.697,-176.577 256.82,-160.853 244.592,-155.004 232.583,-146.357 222.439,-137.936"/>
<polygon fill="black" stroke="black" points="224.593,-135.172 214.735,-131.289 220.02,-140.471 224.593,-135.172"/>
<text text-anchor="middle" x="263.82" y="-152.853" font-family="Helvetica Neue, Helvetica, Arial, sans-serif" font-size="10.00">1.0</text>
</g>
<!-- GCRS&#45;&gt;GCRS -->
<g id="edge13" class="edge"><title>GCRS&#45;&gt;GCRS</title>
<path fill="none" stroke="black" d="M407.485,-208.298C418.54,-208.568 427.64,-205.824 427.64,-200.066 427.64,-196.197 423.532,-193.689 417.483,-192.542"/>
<polygon fill="black" stroke="black" points="417.707,-189.049 407.485,-191.834 417.212,-196.032 417.707,-189.049"/>
<text text-anchor="middle" x="434.64" y="-197.566" font-family="Helvetica Neue, Helvetica, Arial, sans-serif" font-size="10.00">1.0</text>
</g>
<!-- GCRS&#45;&gt;CIRS -->
<g id="edge14" class="edge"><title>GCRS&#45;&gt;CIRS</title>
<path fill="none" stroke="black" d="M388.297,-179.97C394.755,-169.766 403.889,-157.722 414.82,-149.853 435.351,-135.073 445.627,-141.957 468.82,-131.853 470.682,-131.042 472.575,-130.169 474.471,-129.257"/>
<polygon fill="black" stroke="black" points="476.518,-132.142 483.837,-124.482 473.338,-125.906 476.518,-132.142"/>
<text text-anchor="middle" x="421.82" y="-152.853" font-family="Helvetica Neue, Helvetica, Arial, sans-serif" font-size="10.00">1.0</text>
</g>
<!-- HCRS -->
<g id="node11" class="node"><title>HCRS</title>
<ellipse fill="none" stroke="black" cx="31.8198" cy="-110.64" rx="31.6406" ry="21.4286"/>
<text text-anchor="middle" x="31.8198" y="-113.64" font-family="Helvetica Neue, Helvetica, Arial, sans-serif" font-size="10.00">HCRS</text>
<text text-anchor="middle" x="31.8198" y="-102.64" font-family="Helvetica Neue, Helvetica, Arial, sans-serif" font-size="10.00">`hcrs`</text>
</g>
<!-- GCRS&#45;&gt;HCRS -->
<g id="edge11" class="edge"><title>GCRS&#45;&gt;HCRS</title>
<path fill="none" stroke="black" d="M354.045,-185.834C348.521,-183.189 342.571,-180.67 336.82,-178.853 287.071,-163.136 271.958,-171.19 220.82,-160.853 168.731,-150.323 156.209,-145.389 104.82,-131.853 93.6231,-128.904 81.4931,-125.592 70.3962,-122.516"/>
<polygon fill="black" stroke="black" points="71.1244,-119.086 60.552,-119.775 69.2465,-125.829 71.1244,-119.086"/>
<text text-anchor="middle" x="227.82" y="-152.853" font-family="Helvetica Neue, Helvetica, Arial, sans-serif" font-size="10.00">1.0</text>
</g>
<!-- GeocentricTrueEcliptic -->
<g id="node12" class="node"><title>GeocentricTrueEcliptic</title>
<ellipse fill="none" stroke="black" cx="376.82" cy="-110.64" rx="82.9636" ry="21.4286"/>
<text text-anchor="middle" x="376.82" y="-113.64" font-family="Helvetica Neue, Helvetica, Arial, sans-serif" font-size="10.00">GeocentricTrueEcliptic</text>
<text text-anchor="middle" x="376.82" y="-102.64" font-family="Helvetica Neue, Helvetica, Arial, sans-serif" font-size="10.00">`geocentrictrueecliptic`</text>
</g>
<!-- GCRS&#45;&gt;GeocentricTrueEcliptic -->
<g id="edge15" class="edge"><title>GCRS&#45;&gt;GeocentricTrueEcliptic</title>
<path fill="none" stroke="black" d="M357.206,-183.326C350.688,-177.116 344.285,-169.413 340.82,-160.853 337.748,-153.263 339.818,-145.768 344.204,-139.002"/>
<polygon fill="black" stroke="black" points="347.214,-140.845 350.785,-130.87 341.773,-136.442 347.214,-140.845"/>
<text text-anchor="middle" x="347.82" y="-152.853" font-family="Helvetica Neue, Helvetica, Arial, sans-serif" font-size="10.00">1.0</text>
</g>
<!-- AltAz -->
<g id="node8" class="node"><title>AltAz</title>
<ellipse fill="none" stroke="black" cx="451.82" cy="-21.2132" rx="31.2258" ry="21.4286"/>
<text text-anchor="middle" x="451.82" y="-24.2132" font-family="Helvetica Neue, Helvetica, Arial, sans-serif" font-size="10.00">AltAz</text>
<text text-anchor="middle" x="451.82" y="-13.2132" font-family="Helvetica Neue, Helvetica, Arial, sans-serif" font-size="10.00">`altaz`</text>
</g>
<!-- AltAz&#45;&gt;AltAz -->
<g id="edge8" class="edge"><title>AltAz&#45;&gt;AltAz</title>
<path fill="none" stroke="black" d="M480.574,-29.431C491.692,-29.7962 500.933,-27.057 500.933,-21.2132 500.933,-17.2869 496.761,-14.7621 490.652,-13.6386"/>
<polygon fill="black" stroke="black" points="490.777,-10.1396 480.574,-12.9954 490.331,-17.1254 490.777,-10.1396"/>
<text text-anchor="middle" x="507.933" y="-18.7132" font-family="Helvetica Neue, Helvetica, Arial, sans-serif" font-size="10.00">1.0</text>
</g>
<!-- AltAz&#45;&gt;CIRS -->
<g id="edge7" class="edge"><title>AltAz&#45;&gt;CIRS</title>
<path fill="none" stroke="black" d="M463.441,-41.0288C470.873,-53.06 480.636,-68.8662 488.918,-82.2748"/>
<polygon fill="black" stroke="black" points="486.135,-84.4301 494.368,-91.0987 492.091,-80.7515 486.135,-84.4301"/>
<text text-anchor="middle" x="489.82" y="-63.4264" font-family="Helvetica Neue, Helvetica, Arial, sans-serif" font-size="10.00">1.0</text>
</g>
<!-- CIRS&#45;&gt;ICRS -->
<g id="edge35" class="edge"><title>CIRS&#45;&gt;ICRS</title>
<path fill="none" stroke="black" d="M499.078,-131.51C488.533,-162.594 468.075,-222.896 455.812,-259.039"/>
<polygon fill="black" stroke="black" points="452.484,-257.955 452.586,-268.549 459.113,-260.204 452.484,-257.955"/>
<text text-anchor="middle" x="489.82" y="-197.566" font-family="Helvetica Neue, Helvetica, Arial, sans-serif" font-size="10.00">1.0</text>
</g>
<!-- CIRS&#45;&gt;GCRS -->
<g id="edge36" class="edge"><title>CIRS&#45;&gt;GCRS</title>
<path fill="none" stroke="black" d="M485.272,-125.674C464.352,-139.963 431.697,-162.267 407.873,-178.539"/>
<polygon fill="black" stroke="black" points="405.817,-175.705 399.533,-184.235 409.765,-181.485 405.817,-175.705"/>
<text text-anchor="middle" x="456.82" y="-152.853" font-family="Helvetica Neue, Helvetica, Arial, sans-serif" font-size="10.00">1.0</text>
</g>
<!-- CIRS&#45;&gt;AltAz -->
<g id="edge38" class="edge"><title>CIRS&#45;&gt;AltAz</title>
<path fill="none" stroke="black" d="M483.368,-97.1935C473.913,-90.7618 463.746,-82.0248 457.82,-71.4264 454.622,-65.7076 452.795,-59.0382 451.807,-52.4893"/>
<polygon fill="black" stroke="black" points="455.284,-52.0818 450.868,-42.4513 448.315,-52.7338 455.284,-52.0818"/>
<text text-anchor="middle" x="464.82" y="-63.4264" font-family="Helvetica Neue, Helvetica, Arial, sans-serif" font-size="10.00">1.0</text>
</g>
<!-- CIRS&#45;&gt;CIRS -->
<g id="edge37" class="edge"><title>CIRS&#45;&gt;CIRS</title>
<path fill="none" stroke="black" d="M531.989,-118.817C542.876,-119.381 552.104,-116.655 552.104,-110.64 552.104,-106.692 548.13,-104.161 542.321,-103.047"/>
<polygon fill="black" stroke="black" points="542.171,-99.5328 531.989,-102.462 541.776,-106.522 542.171,-99.5328"/>
<text text-anchor="middle" x="559.104" y="-108.14" font-family="Helvetica Neue, Helvetica, Arial, sans-serif" font-size="10.00">1.0</text>
</g>
<!-- ITRS -->
<g id="node16" class="node"><title>ITRS</title>
<ellipse fill="none" stroke="black" cx="560.82" cy="-21.2132" rx="27.6545" ry="21.4286"/>
<text text-anchor="middle" x="560.82" y="-24.2132" font-family="Helvetica Neue, Helvetica, Arial, sans-serif" font-size="10.00">ITRS</text>
<text text-anchor="middle" x="560.82" y="-13.2132" font-family="Helvetica Neue, Helvetica, Arial, sans-serif" font-size="10.00">`itrs`</text>
</g>
<!-- CIRS&#45;&gt;ITRS -->
<g id="edge39" class="edge"><title>CIRS&#45;&gt;ITRS</title>
<path fill="none" stroke="black" d="M510.015,-89.53C512.529,-80.2189 516.329,-69.284 521.82,-60.4264 525.36,-54.7163 529.929,-49.2389 534.686,-44.303"/>
<polygon fill="black" stroke="black" points="537.443,-46.506 542.196,-37.0369 532.575,-41.4754 537.443,-46.506"/>
<text text-anchor="middle" x="528.82" y="-63.4264" font-family="Helvetica Neue, Helvetica, Arial, sans-serif" font-size="10.00">1.0</text>
</g>
<!-- HeliocentricTrueEcliptic&#45;&gt;ICRS -->
<g id="edge9" class="edge"><title>HeliocentricTrueEcliptic&#45;&gt;ICRS</title>
<path fill="none" stroke="black" d="M632.127,-221.485C624.362,-231.567 613.807,-243.081 601.82,-250.279 565.472,-272.104 517.272,-281.484 484.119,-285.503"/>
<polygon fill="black" stroke="black" points="483.474,-282.053 473.918,-286.628 484.242,-289.01 483.474,-282.053"/>
<text text-anchor="middle" x="623.82" y="-242.279" font-family="Helvetica Neue, Helvetica, Arial, sans-serif" font-size="10.00">1.0</text>
</g>
<!-- HCRS&#45;&gt;HCRS -->
<g id="edge24" class="edge"><title>HCRS&#45;&gt;HCRS</title>
<path fill="none" stroke="black" d="M61.4846,-118.871C72.5396,-119.141 81.6396,-116.397 81.6396,-110.64 81.6396,-106.771 77.5317,-104.263 71.483,-103.116"/>
<polygon fill="black" stroke="black" points="71.7068,-99.6227 61.4846,-102.408 71.2124,-106.605 71.7068,-99.6227"/>
<text text-anchor="middle" x="88.6396" y="-108.14" font-family="Helvetica Neue, Helvetica, Arial, sans-serif" font-size="10.00">1.0</text>
</g>
<!-- GeocentricTrueEcliptic&#45;&gt;GCRS -->
<g id="edge16" class="edge"><title>GeocentricTrueEcliptic&#45;&gt;GCRS</title>
<path fill="none" stroke="black" d="M377.054,-132.11C377.178,-142.988 377.334,-156.574 377.472,-168.66"/>
<polygon fill="black" stroke="black" points="373.974,-168.83 377.588,-178.789 380.973,-168.749 373.974,-168.83"/>
<text text-anchor="middle" x="384.82" y="-152.853" font-family="Helvetica Neue, Helvetica, Arial, sans-serif" font-size="10.00">1.0</text>
</g>
<!-- BarycentricTrueEcliptic&#45;&gt;ICRS -->
<g id="edge17" class="edge"><title>BarycentricTrueEcliptic&#45;&gt;ICRS</title>
<path fill="none" stroke="black" d="M154.502,-217.35C186.402,-227.509 228.824,-240.471 266.82,-250.279 315.406,-262.821 372.161,-274.43 408.52,-281.485"/>
<polygon fill="black" stroke="black" points="408.182,-284.984 418.664,-283.438 409.506,-278.111 408.182,-284.984"/>
<text text-anchor="middle" x="273.82" y="-242.279" font-family="Helvetica Neue, Helvetica, Arial, sans-serif" font-size="10.00">1.0</text>
</g>
<!-- Galactocentric&#45;&gt;ICRS -->
<g id="edge25" class="edge"><title>Galactocentric&#45;&gt;ICRS</title>
<path fill="none" stroke="black" d="M301.755,-217.734C333.846,-233.496 381.671,-256.985 413.292,-272.516"/>
<polygon fill="black" stroke="black" points="412.031,-275.796 422.549,-277.063 415.117,-269.513 412.031,-275.796"/>
<text text-anchor="middle" x="374.82" y="-242.279" font-family="Helvetica Neue, Helvetica, Arial, sans-serif" font-size="10.00">1.0</text>
</g>
<!-- FK4&#45;&gt;FK4NoETerms -->
<g id="edge40" class="edge"><title>FK4&#45;&gt;FK4NoETerms</title>
<path fill="none" stroke="black" d="M864.418,-218.003C858.891,-224.445 852.8,-231.992 847.82,-239.279 843.51,-245.585 839.309,-252.643 835.553,-259.401"/>
<polygon fill="black" stroke="black" points="832.404,-257.868 830.74,-268.332 838.566,-261.189 832.404,-257.868"/>
<text text-anchor="middle" x="854.82" y="-242.279" font-family="Helvetica Neue, Helvetica, Arial, sans-serif" font-size="10.00">1.0</text>
</g>
<!-- FK4&#45;&gt;FK4 -->
<g id="edge41" class="edge"><title>FK4&#45;&gt;FK4</title>
<path fill="none" stroke="black" d="M904.809,-208.217C915.589,-208.885 924.82,-206.168 924.82,-200.066 924.82,-196.062 920.845,-193.515 915.065,-192.426"/>
<polygon fill="black" stroke="black" points="914.971,-188.917 904.809,-191.915 914.622,-195.909 914.971,-188.917"/>
<text text-anchor="middle" x="931.82" y="-197.566" font-family="Helvetica Neue, Helvetica, Arial, sans-serif" font-size="10.00">1.0</text>
</g>
<!-- ITRS&#45;&gt;CIRS -->
<g id="edge33" class="edge"><title>ITRS&#45;&gt;CIRS</title>
<path fill="none" stroke="black" d="M554.026,-42.1056C550.444,-51.3691 545.591,-62.3267 539.82,-71.4264 536.788,-76.207 533.157,-80.9763 529.415,-85.4436"/>
<polygon fill="black" stroke="black" points="526.654,-83.2818 522.662,-93.0955 531.903,-87.9137 526.654,-83.2818"/>
<text text-anchor="middle" x="552.82" y="-63.4264" font-family="Helvetica Neue, Helvetica, Arial, sans-serif" font-size="10.00">1.0</text>
</g>
<!-- ITRS&#45;&gt;ITRS -->
<g id="edge34" class="edge"><title>ITRS&#45;&gt;ITRS</title>
<path fill="none" stroke="black" d="M586.59,-29.3907C597.31,-29.9547 606.397,-27.2288 606.397,-21.2132 606.397,-17.2654 602.483,-14.7345 596.763,-13.6203"/>
<polygon fill="black" stroke="black" points="596.774,-10.1153 586.59,-13.0357 596.372,-17.1037 596.774,-10.1153"/>
<text text-anchor="middle" x="613.397" y="-18.7132" font-family="Helvetica Neue, Helvetica, Arial, sans-serif" font-size="10.00">1.0</text>
</g>
</g>
</svg>
