<?xml version="1.0" encoding="UTF-8" standalone="no"?>
<!DOCTYPE svg PUBLIC "-//W3C//DTD SVG 1.1//EN"
 "http://www.w3.org/Graphics/SVG/1.1/DTD/svg11.dtd">
<!-- Generated by graphviz version 2.38.0 (20140413.2041)
 -->
<!-- Title: AstropyCoordinateTransformGraph Pages: 1 -->
<svg width="712pt" height="676pt"
 viewBox="0.00 0.00 712.37 676.41" xmlns="http://www.w3.org/2000/svg" xmlns:xlink="http://www.w3.org/1999/xlink">
<g id="graph0" class="graph" transform="scale(1 1) rotate(0) translate(4 672.411)">
<title>AstropyCoordinateTransformGraph</title>
<polygon fill="white" stroke="none" points="-4,4 -4,-672.411 708.371,-672.411 708.371,4 -4,4"/>
<!-- Supergalactic -->
<g id="node1" class="node"><title>Supergalactic</title>
<ellipse fill="none" stroke="black" cx="319.267" cy="-647.198" rx="57.9655" ry="21.4286"/>
<text text-anchor="middle" x="319.267" y="-650.198" font-family="Helvetica Neue, Helvetica, Arial, sans-serif" font-size="10.00">Supergalactic</text>
<text text-anchor="middle" x="319.267" y="-639.198" font-family="Helvetica Neue, Helvetica, Arial, sans-serif" font-size="10.00">`supergalactic`</text>
</g>
<!-- Galactic -->
<g id="node2" class="node"><title>Galactic</title>
<ellipse fill="none" stroke="black" cx="319.267" cy="-557.772" rx="40.1111" ry="21.4286"/>
<text text-anchor="middle" x="319.267" y="-560.772" font-family="Helvetica Neue, Helvetica, Arial, sans-serif" font-size="10.00">Galactic</text>
<text text-anchor="middle" x="319.267" y="-549.772" font-family="Helvetica Neue, Helvetica, Arial, sans-serif" font-size="10.00">`galactic`</text>
</g>
<!-- Supergalactic&#45;&gt;Galactic -->
<g id="edge1" class="edge"><title>Supergalactic&#45;&gt;Galactic</title>
<path fill="none" stroke="black" d="M307.185,-626.402C303.155,-617.546 300.164,-606.888 302.267,-596.985 302.91,-593.957 303.81,-590.879 304.864,-587.85"/>
<polygon fill="black" stroke="black" points="308.153,-589.052 308.628,-578.468 301.656,-586.446 308.153,-589.052"/>
<text text-anchor="middle" x="309.267" y="-599.985" font-family="Helvetica Neue, Helvetica, Arial, sans-serif" font-size="10.00">1.0</text>
</g>
<!-- Galactic&#45;&gt;Supergalactic -->
<g id="edge29" class="edge"><title>Galactic&#45;&gt;Supergalactic</title>
<path fill="none" stroke="black" d="M319.267,-579.242C319.267,-590.12 319.267,-603.706 319.267,-615.792"/>
<polygon fill="black" stroke="black" points="315.767,-615.921 319.267,-625.921 322.767,-615.921 315.767,-615.921"/>
<text text-anchor="middle" x="326.267" y="-599.985" font-family="Helvetica Neue, Helvetica, Arial, sans-serif" font-size="10.00">1.0</text>
</g>
<!-- FK5 -->
<g id="node14" class="node"><title>FK5</title>
<ellipse fill="none" stroke="black" cx="322.267" cy="-378.919" rx="27" ry="21.4286"/>
<text text-anchor="middle" x="322.267" y="-381.919" font-family="Helvetica Neue, Helvetica, Arial, sans-serif" font-size="10.00">FK5</text>
<text text-anchor="middle" x="322.267" y="-370.919" font-family="Helvetica Neue, Helvetica, Arial, sans-serif" font-size="10.00">`fk5`</text>
</g>
<!-- Galactic&#45;&gt;FK5 -->
<g id="edge31" class="edge"><title>Galactic&#45;&gt;FK5</title>
<path fill="none" stroke="black" d="M340.399,-539.607C346.469,-533.588 352.467,-526.363 356.267,-518.558 361.963,-506.861 359.376,-502.539 360.267,-489.558 362.444,-457.838 369.582,-447.005 356.267,-418.132 353.85,-412.89 350.468,-407.847 346.768,-403.239"/>
<polygon fill="black" stroke="black" points="349.145,-400.644 339.902,-395.467 343.899,-405.278 349.145,-400.644"/>
<text text-anchor="middle" x="371.267" y="-465.845" font-family="Helvetica Neue, Helvetica, Arial, sans-serif" font-size="10.00">1.0</text>
</g>
<!-- FK4NoETerms -->
<g id="node15" class="node"><title>FK4NoETerms</title>
<ellipse fill="none" stroke="black" cx="215.267" cy="-468.345" rx="58.8803" ry="21.4286"/>
<text text-anchor="middle" x="215.267" y="-471.345" font-family="Helvetica Neue, Helvetica, Arial, sans-serif" font-size="10.00">FK4NoETerms</text>
<text text-anchor="middle" x="215.267" y="-460.345" font-family="Helvetica Neue, Helvetica, Arial, sans-serif" font-size="10.00">`fk4noeterms`</text>
</g>
<!-- Galactic&#45;&gt;FK4NoETerms -->
<g id="edge30" class="edge"><title>Galactic&#45;&gt;FK4NoETerms</title>
<path fill="none" stroke="black" d="M286.325,-545.246C271.88,-539 255.474,-530.154 243.267,-518.558 237.253,-512.846 232.162,-505.553 228.039,-498.342"/>
<polygon fill="black" stroke="black" points="231.081,-496.607 223.337,-489.377 224.882,-499.859 231.081,-496.607"/>
<text text-anchor="middle" x="250.267" y="-510.558" font-family="Helvetica Neue, Helvetica, Arial, sans-serif" font-size="10.00">1.0</text>
</g>
<!-- HeliocentricTrueEcliptic -->
<g id="node3" class="node"><title>HeliocentricTrueEcliptic</title>
<ellipse fill="none" stroke="black" cx="86.267" cy="-200.066" rx="86.0347" ry="21.4286"/>
<text text-anchor="middle" x="86.267" y="-203.066" font-family="Helvetica Neue, Helvetica, Arial, sans-serif" font-size="10.00">HeliocentricTrueEcliptic</text>
<text text-anchor="middle" x="86.267" y="-192.066" font-family="Helvetica Neue, Helvetica, Arial, sans-serif" font-size="10.00">`heliocentrictrueecliptic`</text>
</g>
<!-- ICRS -->
<g id="node4" class="node"><title>ICRS</title>
<ellipse fill="none" stroke="black" cx="322.267" cy="-289.492" rx="28.0702" ry="21.4286"/>
<text text-anchor="middle" x="322.267" y="-292.492" font-family="Helvetica Neue, Helvetica, Arial, sans-serif" font-size="10.00">ICRS</text>
<text text-anchor="middle" x="322.267" y="-281.492" font-family="Helvetica Neue, Helvetica, Arial, sans-serif" font-size="10.00">`icrs`</text>
</g>
<!-- HeliocentricTrueEcliptic&#45;&gt;ICRS -->
<g id="edge2" class="edge"><title>HeliocentricTrueEcliptic&#45;&gt;ICRS</title>
<path fill="none" stroke="black" d="M118.072,-219.953C135.907,-229.967 158.821,-241.897 180.267,-250.279 214.892,-263.812 256.071,-274.314 285.145,-280.854"/>
<polygon fill="black" stroke="black" points="284.756,-284.352 295.274,-283.082 286.26,-277.515 284.756,-284.352"/>
<text text-anchor="middle" x="187.267" y="-242.279" font-family="Helvetica Neue, Helvetica, Arial, sans-serif" font-size="10.00">1.0</text>
</g>
<!-- ICRS&#45;&gt;HeliocentricTrueEcliptic -->
<g id="edge22" class="edge"><title>ICRS&#45;&gt;HeliocentricTrueEcliptic</title>
<path fill="none" stroke="black" d="M294.052,-287.27C256.712,-284.642 189.722,-276.362 139.267,-250.279 128.677,-244.805 118.653,-236.623 110.231,-228.494"/>
<polygon fill="black" stroke="black" points="112.486,-225.795 102.977,-221.123 107.497,-230.705 112.486,-225.795"/>
<text text-anchor="middle" x="146.267" y="-242.279" font-family="Helvetica Neue, Helvetica, Arial, sans-serif" font-size="10.00">1.0</text>
</g>
<!-- CIRS -->
<g id="node6" class="node"><title>CIRS</title>
<ellipse fill="none" stroke="black" cx="318.267" cy="-200.066" rx="28.0702" ry="21.4286"/>
<text text-anchor="middle" x="318.267" y="-203.066" font-family="Helvetica Neue, Helvetica, Arial, sans-serif" font-size="10.00">CIRS</text>
<text text-anchor="middle" x="318.267" y="-192.066" font-family="Helvetica Neue, Helvetica, Arial, sans-serif" font-size="10.00">`cirs`</text>
</g>
<!-- ICRS&#45;&gt;CIRS -->
<g id="edge19" class="edge"><title>ICRS&#45;&gt;CIRS</title>
<path fill="none" stroke="black" d="M310.395,-270.163C307.091,-264.082 303.948,-257.114 302.267,-250.279 300.566,-243.362 301.454,-236.01 303.489,-229.155"/>
<polygon fill="black" stroke="black" points="306.848,-230.167 307.125,-219.576 300.304,-227.683 306.848,-230.167"/>
<text text-anchor="middle" x="309.267" y="-242.279" font-family="Helvetica Neue, Helvetica, Arial, sans-serif" font-size="10.00">1.0</text>
</g>
<!-- BarycentricTrueEcliptic -->
<g id="node7" class="node"><title>BarycentricTrueEcliptic</title>
<ellipse fill="none" stroke="black" cx="481.267" cy="-200.066" rx="84.7059" ry="21.4286"/>
<text text-anchor="middle" x="481.267" y="-203.066" font-family="Helvetica Neue, Helvetica, Arial, sans-serif" font-size="10.00">BarycentricTrueEcliptic</text>
<text text-anchor="middle" x="481.267" y="-192.066" font-family="Helvetica Neue, Helvetica, Arial, sans-serif" font-size="10.00">`barycentrictrueecliptic`</text>
</g>
<!-- ICRS&#45;&gt;BarycentricTrueEcliptic -->
<g id="edge20" class="edge"><title>ICRS&#45;&gt;BarycentricTrueEcliptic</title>
<path fill="none" stroke="black" d="M344.56,-276.122C362.55,-266.149 388.52,-251.777 411.267,-239.279 419.913,-234.529 429.169,-229.463 438.025,-224.624"/>
<polygon fill="black" stroke="black" points="439.967,-227.552 447.067,-219.688 436.613,-221.408 439.967,-227.552"/>
<text text-anchor="middle" x="418.267" y="-242.279" font-family="Helvetica Neue, Helvetica, Arial, sans-serif" font-size="10.00">1.0</text>
</g>
<!-- GCRS -->
<g id="node9" class="node"><title>GCRS</title>
<ellipse fill="none" stroke="black" cx="248.267" cy="-110.64" rx="31.6406" ry="21.4286"/>
<text text-anchor="middle" x="248.267" y="-113.64" font-family="Helvetica Neue, Helvetica, Arial, sans-serif" font-size="10.00">GCRS</text>
<text text-anchor="middle" x="248.267" y="-102.64" font-family="Helvetica Neue, Helvetica, Arial, sans-serif" font-size="10.00">`gcrs`</text>
</g>
<!-- ICRS&#45;&gt;GCRS -->
<g id="edge24" class="edge"><title>ICRS&#45;&gt;GCRS</title>
<path fill="none" stroke="black" d="M298.551,-277.404C278.087,-266.382 249.891,-247.356 237.267,-221.279 225.068,-196.081 230.411,-163.863 237.226,-140.886"/>
<polygon fill="black" stroke="black" points="240.565,-141.936 240.297,-131.345 233.902,-139.792 240.565,-141.936"/>
<text text-anchor="middle" x="244.267" y="-197.566" font-family="Helvetica Neue, Helvetica, Arial, sans-serif" font-size="10.00">1.0</text>
</g>
<!-- Galactocentric -->
<g id="node13" class="node"><title>Galactocentric</title>
<ellipse fill="none" stroke="black" cx="644.267" cy="-200.066" rx="60.2083" ry="21.4286"/>
<text text-anchor="middle" x="644.267" y="-203.066" font-family="Helvetica Neue, Helvetica, Arial, sans-serif" font-size="10.00">Galactocentric</text>
<text text-anchor="middle" x="644.267" y="-192.066" font-family="Helvetica Neue, Helvetica, Arial, sans-serif" font-size="10.00">`galactocentric`</text>
</g>
<!-- ICRS&#45;&gt;Galactocentric -->
<g id="edge21" class="edge"><title>ICRS&#45;&gt;Galactocentric</title>
<path fill="none" stroke="black" d="M348.917,-281.649C395.105,-269.736 492.975,-244.26 575.267,-221.279 579.907,-219.983 584.716,-218.619 589.538,-217.236"/>
<polygon fill="black" stroke="black" points="590.767,-220.524 599.403,-214.387 588.825,-213.799 590.767,-220.524"/>
<text text-anchor="middle" x="513.267" y="-242.279" font-family="Helvetica Neue, Helvetica, Arial, sans-serif" font-size="10.00">1.0</text>
</g>
<!-- ICRS&#45;&gt;FK5 -->
<g id="edge23" class="edge"><title>ICRS&#45;&gt;FK5</title>
<path fill="none" stroke="black" d="M322.267,-310.962C322.267,-321.841 322.267,-335.427 322.267,-347.513"/>
<polygon fill="black" stroke="black" points="318.767,-347.642 322.267,-357.642 325.767,-347.642 318.767,-347.642"/>
<text text-anchor="middle" x="329.267" y="-331.706" font-family="Helvetica Neue, Helvetica, Arial, sans-serif" font-size="10.00">1.0</text>
</g>
<!-- ITRS -->
<g id="node5" class="node"><title>ITRS</title>
<ellipse fill="none" stroke="black" cx="357.267" cy="-110.64" rx="27.6545" ry="21.4286"/>
<text text-anchor="middle" x="357.267" y="-113.64" font-family="Helvetica Neue, Helvetica, Arial, sans-serif" font-size="10.00">ITRS</text>
<text text-anchor="middle" x="357.267" y="-102.64" font-family="Helvetica Neue, Helvetica, Arial, sans-serif" font-size="10.00">`itrs`</text>
</g>
<!-- ITRS&#45;&gt;ITRS -->
<g id="edge4" class="edge"><title>ITRS&#45;&gt;ITRS</title>
<path fill="none" stroke="black" d="M383.037,-118.817C393.757,-119.381 402.844,-116.655 402.844,-110.64 402.844,-106.692 398.931,-104.161 393.21,-103.047"/>
<polygon fill="black" stroke="black" points="393.221,-99.5417 383.037,-102.462 392.82,-106.53 393.221,-99.5417"/>
<text text-anchor="middle" x="409.844" y="-108.14" font-family="Helvetica Neue, Helvetica, Arial, sans-serif" font-size="10.00">1.0</text>
</g>
<!-- ITRS&#45;&gt;CIRS -->
<g id="edge3" class="edge"><title>ITRS&#45;&gt;CIRS</title>
<path fill="none" stroke="black" d="M368.43,-130.539C372.499,-139.986 375.056,-151.391 370.267,-160.853 365.846,-169.588 358.383,-176.813 350.471,-182.54"/>
<polygon fill="black" stroke="black" points="348.301,-179.777 341.832,-188.168 352.122,-185.642 348.301,-179.777"/>
<text text-anchor="middle" x="380.267" y="-152.853" font-family="Helvetica Neue, Helvetica, Arial, sans-serif" font-size="10.00">1.0</text>
</g>
<!-- CIRS&#45;&gt;ICRS -->
<g id="edge11" class="edge"><title>CIRS&#45;&gt;ICRS</title>
<path fill="none" stroke="black" d="M319.204,-221.536C319.701,-232.414 320.323,-246 320.876,-258.086"/>
<polygon fill="black" stroke="black" points="317.386,-258.386 321.339,-268.215 324.378,-258.066 317.386,-258.386"/>
<text text-anchor="middle" x="328.267" y="-242.279" font-family="Helvetica Neue, Helvetica, Arial, sans-serif" font-size="10.00">1.0</text>
</g>
<!-- CIRS&#45;&gt;ITRS -->
<g id="edge8" class="edge"><title>CIRS&#45;&gt;ITRS</title>
<path fill="none" stroke="black" d="M326.922,-179.663C332.073,-168.118 338.703,-153.256 344.451,-140.369"/>
<polygon fill="black" stroke="black" points="347.758,-141.547 348.636,-130.988 341.365,-138.695 347.758,-141.547"/>
<text text-anchor="middle" x="347.267" y="-152.853" font-family="Helvetica Neue, Helvetica, Arial, sans-serif" font-size="10.00">1.0</text>
</g>
<!-- CIRS&#45;&gt;CIRS -->
<g id="edge7" class="edge"><title>CIRS&#45;&gt;CIRS</title>
<path fill="none" stroke="black" d="M344.437,-208.244C355.323,-208.807 364.551,-206.082 364.551,-200.066 364.551,-196.118 360.577,-193.587 354.768,-192.473"/>
<polygon fill="black" stroke="black" points="354.618,-188.959 344.437,-191.889 354.223,-195.948 354.618,-188.959"/>
<text text-anchor="middle" x="371.551" y="-197.566" font-family="Helvetica Neue, Helvetica, Arial, sans-serif" font-size="10.00">1.0</text>
</g>
<!-- CIRS&#45;&gt;GCRS -->
<g id="edge10" class="edge"><title>CIRS&#45;&gt;GCRS</title>
<path fill="none" stroke="black" d="M301.568,-182.444C295.287,-175.912 288.228,-168.223 282.267,-160.853 276.635,-153.889 270.938,-146.031 265.86,-138.672"/>
<polygon fill="black" stroke="black" points="268.728,-136.665 260.224,-130.346 262.931,-140.589 268.728,-136.665"/>
<text text-anchor="middle" x="289.267" y="-152.853" font-family="Helvetica Neue, Helvetica, Arial, sans-serif" font-size="10.00">1.0</text>
</g>
<!-- AltAz -->
<g id="node10" class="node"><title>AltAz</title>
<ellipse fill="none" stroke="black" cx="466.267" cy="-110.64" rx="31.2258" ry="21.4286"/>
<text text-anchor="middle" x="466.267" y="-113.64" font-family="Helvetica Neue, Helvetica, Arial, sans-serif" font-size="10.00">AltAz</text>
<text text-anchor="middle" x="466.267" y="-102.64" font-family="Helvetica Neue, Helvetica, Arial, sans-serif" font-size="10.00">`altaz`</text>
</g>
<!-- CIRS&#45;&gt;AltAz -->
<g id="edge9" class="edge"><title>CIRS&#45;&gt;AltAz</title>
<path fill="none" stroke="black" d="M341.599,-187.591C356.089,-180.283 374.989,-170.423 391.267,-160.853 406.465,-151.918 422.888,-141.262 436.48,-132.154"/>
<polygon fill="black" stroke="black" points="438.633,-134.923 444.962,-126.426 434.716,-129.122 438.633,-134.923"/>
<text text-anchor="middle" x="417.267" y="-152.853" font-family="Helvetica Neue, Helvetica, Arial, sans-serif" font-size="10.00">1.0</text>
</g>
<!-- BarycentricTrueEcliptic&#45;&gt;ICRS -->
<g id="edge5" class="edge"><title>BarycentricTrueEcliptic&#45;&gt;ICRS</title>
<path fill="none" stroke="black" d="M464.064,-220.882C454.607,-230.799 442.192,-242.347 429.267,-250.279 407.497,-263.64 380.373,-273.261 358.882,-279.508"/>
<polygon fill="black" stroke="black" points="357.832,-276.167 349.139,-282.224 359.712,-282.91 357.832,-276.167"/>
<text text-anchor="middle" x="451.267" y="-242.279" font-family="Helvetica Neue, Helvetica, Arial, sans-serif" font-size="10.00">1.0</text>
</g>
<!-- GeocentricTrueEcliptic -->
<g id="node8" class="node"><title>GeocentricTrueEcliptic</title>
<ellipse fill="none" stroke="black" cx="103.267" cy="-21.2132" rx="82.9636" ry="21.4286"/>
<text text-anchor="middle" x="103.267" y="-24.2132" font-family="Helvetica Neue, Helvetica, Arial, sans-serif" font-size="10.00">GeocentricTrueEcliptic</text>
<text text-anchor="middle" x="103.267" y="-13.2132" font-family="Helvetica Neue, Helvetica, Arial, sans-serif" font-size="10.00">`geocentrictrueecliptic`</text>
</g>
<!-- GeocentricTrueEcliptic&#45;&gt;GCRS -->
<g id="edge6" class="edge"><title>GeocentricTrueEcliptic&#45;&gt;GCRS</title>
<path fill="none" stroke="black" d="M134.498,-41.0435C158.697,-55.6339 192.093,-75.7698 216.441,-90.4503"/>
<polygon fill="black" stroke="black" points="214.92,-93.6205 225.291,-95.7866 218.535,-87.6258 214.92,-93.6205"/>
<text text-anchor="middle" x="192.267" y="-63.4264" font-family="Helvetica Neue, Helvetica, Arial, sans-serif" font-size="10.00">1.0</text>
</g>
<!-- GCRS&#45;&gt;ICRS -->
<g id="edge18" class="edge"><title>GCRS&#45;&gt;ICRS</title>
<path fill="none" stroke="black" d="M248.718,-131.95C249.905,-154.671 253.937,-192.113 267.267,-221.279 274.671,-237.478 286.952,-253.039 298.033,-265.101"/>
<polygon fill="black" stroke="black" points="295.646,-267.669 305.079,-272.494 300.714,-262.84 295.646,-267.669"/>
<text text-anchor="middle" x="274.267" y="-197.566" font-family="Helvetica Neue, Helvetica, Arial, sans-serif" font-size="10.00">1.0</text>
</g>
<!-- GCRS&#45;&gt;CIRS -->
<g id="edge14" class="edge"><title>GCRS&#45;&gt;CIRS</title>
<path fill="none" stroke="black" d="M270.78,-126.071C279.575,-132.539 289.219,-140.761 296.267,-149.853 300.918,-155.853 304.831,-162.993 308.006,-169.947"/>
<polygon fill="black" stroke="black" points="304.786,-171.32 311.879,-179.191 311.243,-168.615 304.786,-171.32"/>
<text text-anchor="middle" x="310.267" y="-152.853" font-family="Helvetica Neue, Helvetica, Arial, sans-serif" font-size="10.00">1.0</text>
</g>
<!-- GCRS&#45;&gt;GeocentricTrueEcliptic -->
<g id="edge13" class="edge"><title>GCRS&#45;&gt;GeocentricTrueEcliptic</title>
<path fill="none" stroke="black" d="M218.876,-102.101C198.249,-95.9325 170.645,-85.8569 149.267,-71.4264 140.543,-65.5376 132.267,-57.7067 125.204,-50.0272"/>
<polygon fill="black" stroke="black" points="127.8,-47.68 118.572,-42.4757 122.541,-52.2991 127.8,-47.68"/>
<text text-anchor="middle" x="156.267" y="-63.4264" font-family="Helvetica Neue, Helvetica, Arial, sans-serif" font-size="10.00">1.0</text>
</g>
<!-- GCRS&#45;&gt;GCRS -->
<g id="edge17" class="edge"><title>GCRS&#45;&gt;GCRS</title>
<path fill="none" stroke="black" d="M277.932,-118.871C288.987,-119.141 298.087,-116.397 298.087,-110.64 298.087,-106.771 293.979,-104.263 287.93,-103.116"/>
<polygon fill="black" stroke="black" points="288.154,-99.6227 277.932,-102.408 287.66,-106.605 288.154,-99.6227"/>
<text text-anchor="middle" x="305.087" y="-108.14" font-family="Helvetica Neue, Helvetica, Arial, sans-serif" font-size="10.00">1.0</text>
</g>
<!-- PrecessedGeocentric -->
<g id="node11" class="node"><title>PrecessedGeocentric</title>
<ellipse fill="none" stroke="black" cx="285.267" cy="-21.2132" rx="81.135" ry="21.4286"/>
<text text-anchor="middle" x="285.267" y="-24.2132" font-family="Helvetica Neue, Helvetica, Arial, sans-serif" font-size="10.00">PrecessedGeocentric</text>
<text text-anchor="middle" x="285.267" y="-13.2132" font-family="Helvetica Neue, Helvetica, Arial, sans-serif" font-size="10.00">`precessedgeocentric`</text>
</g>
<!-- GCRS&#45;&gt;PrecessedGeocentric -->
<g id="edge16" class="edge"><title>GCRS&#45;&gt;PrecessedGeocentric</title>
<path fill="none" stroke="black" d="M244.256,-89.3247C243.343,-80.1763 243.551,-69.4322 247.267,-60.4264 248.828,-56.6425 250.966,-53.0359 253.437,-49.6564"/>
<polygon fill="black" stroke="black" points="256.338,-51.6461 260.128,-41.7524 250.996,-47.123 256.338,-51.6461"/>
<text text-anchor="middle" x="254.267" y="-63.4264" font-family="Helvetica Neue, Helvetica, Arial, sans-serif" font-size="10.00">1.0</text>
</g>
<!-- HCRS -->
<g id="node12" class="node"><title>HCRS</title>
<ellipse fill="none" stroke="black" cx="416.267" cy="-21.2132" rx="31.6406" ry="21.4286"/>
<text text-anchor="middle" x="416.267" y="-24.2132" font-family="Helvetica Neue, Helvetica, Arial, sans-serif" font-size="10.00">HCRS</text>
<text text-anchor="middle" x="416.267" y="-13.2132" font-family="Helvetica Neue, Helvetica, Arial, sans-serif" font-size="10.00">`hcrs`</text>
</g>
<!-- GCRS&#45;&gt;HCRS -->
<g id="edge15" class="edge"><title>GCRS&#45;&gt;HCRS</title>
<path fill="none" stroke="black" d="M272.696,-96.9271C301.686,-81.8408 350.179,-56.6051 382.684,-39.6895"/>
<polygon fill="black" stroke="black" points="384.554,-42.6622 391.809,-34.9411 381.322,-36.4527 384.554,-42.6622"/>
<text text-anchor="middle" x="350.267" y="-63.4264" font-family="Helvetica Neue, Helvetica, Arial, sans-serif" font-size="10.00">1.0</text>
</g>
<!-- AltAz&#45;&gt;CIRS -->
<g id="edge38" class="edge"><title>AltAz&#45;&gt;CIRS</title>
<path fill="none" stroke="black" d="M455.362,-130.677C448.684,-140.862 439.307,-152.908 428.267,-160.853 416.137,-169.582 381.33,-180.974 354.084,-189.041"/>
<polygon fill="black" stroke="black" points="353.065,-185.693 344.444,-191.852 355.024,-192.413 353.065,-185.693"/>
<text text-anchor="middle" x="448.267" y="-152.853" font-family="Helvetica Neue, Helvetica, Arial, sans-serif" font-size="10.00">1.0</text>
</g>
<!-- AltAz&#45;&gt;AltAz -->
<g id="edge39" class="edge"><title>AltAz&#45;&gt;AltAz</title>
<path fill="none" stroke="black" d="M495.022,-118.857C506.139,-119.223 515.38,-116.483 515.38,-110.64 515.38,-106.713 511.208,-104.188 505.099,-103.065"/>
<polygon fill="black" stroke="black" points="505.224,-99.566 495.022,-102.422 504.778,-106.552 505.224,-99.566"/>
<text text-anchor="middle" x="522.38" y="-108.14" font-family="Helvetica Neue, Helvetica, Arial, sans-serif" font-size="10.00">1.0</text>
</g>
<!-- PrecessedGeocentric&#45;&gt;GCRS -->
<g id="edge12" class="edge"><title>PrecessedGeocentric&#45;&gt;GCRS</title>
<path fill="none" stroke="black" d="M276.648,-42.5798C271.898,-53.8033 265.918,-67.9328 260.674,-80.3245"/>
<polygon fill="black" stroke="black" points="257.337,-79.2278 256.663,-89.8012 263.784,-81.9561 257.337,-79.2278"/>
<text text-anchor="middle" x="276.267" y="-63.4264" font-family="Helvetica Neue, Helvetica, Arial, sans-serif" font-size="10.00">1.0</text>
</g>
<!-- HCRS&#45;&gt;HCRS -->
<g id="edge33" class="edge"><title>HCRS&#45;&gt;HCRS</title>
<path fill="none" stroke="black" d="M445.932,-29.4451C456.987,-29.715 466.087,-26.971 466.087,-21.2132 466.087,-17.3447 461.979,-14.8366 455.93,-13.6891"/>
<polygon fill="black" stroke="black" points="456.154,-10.1963 445.932,-12.9813 455.66,-17.1788 456.154,-10.1963"/>
<text text-anchor="middle" x="473.087" y="-18.7132" font-family="Helvetica Neue, Helvetica, Arial, sans-serif" font-size="10.00">1.0</text>
</g>
<!-- Galactocentric&#45;&gt;ICRS -->
<g id="edge32" class="edge"><title>Galactocentric&#45;&gt;ICRS</title>
<path fill="none" stroke="black" d="M609.499,-217.517C585.896,-228.135 553.737,-241.547 524.267,-250.279 468.232,-266.884 401.236,-277.881 360.227,-283.65"/>
<polygon fill="black" stroke="black" points="359.563,-280.209 350.133,-285.039 360.517,-287.143 359.563,-280.209"/>
<text text-anchor="middle" x="562.267" y="-242.279" font-family="Helvetica Neue, Helvetica, Arial, sans-serif" font-size="10.00">1.0</text>
</g>
<!-- FK5&#45;&gt;Galactic -->
<g id="edge35" class="edge"><title>FK5&#45;&gt;Galactic</title>
<path fill="none" stroke="black" d="M321.922,-400.241C321.399,-431.096 320.4,-489.978 319.788,-526.071"/>
<polygon fill="black" stroke="black" points="316.281,-526.426 319.611,-536.484 323.28,-526.545 316.281,-526.426"/>
<text text-anchor="middle" x="328.267" y="-465.845" font-family="Helvetica Neue, Helvetica, Arial, sans-serif" font-size="10.00">1.0</text>
</g>
<!-- FK5&#45;&gt;ICRS -->
<g id="edge37" class="edge"><title>FK5&#45;&gt;ICRS</title>
<path fill="none" stroke="black" d="M311.384,-359.07C308.479,-353.077 305.74,-346.29 304.267,-339.706 302.692,-332.667 303.819,-325.268 306.126,-318.407"/>
<polygon fill="black" stroke="black" points="309.498,-319.418 310.171,-308.844 303.052,-316.69 309.498,-319.418"/>
<text text-anchor="middle" x="311.267" y="-331.706" font-family="Helvetica Neue, Helvetica, Arial, sans-serif" font-size="10.00">1.0</text>
</g>
<!-- FK5&#45;&gt;FK5 -->
<g id="edge36" class="edge"><title>FK5&#45;&gt;FK5</title>
<path fill="none" stroke="black" d="M347.256,-387.07C358.037,-387.737 367.267,-385.02 367.267,-378.919 367.267,-374.915 363.292,-372.368 357.512,-371.279"/>
<polygon fill="black" stroke="black" points="357.418,-367.77 347.256,-370.768 357.069,-374.761 357.418,-367.77"/>
<text text-anchor="middle" x="374.267" y="-376.419" font-family="Helvetica Neue, Helvetica, Arial, sans-serif" font-size="10.00">1.0</text>
</g>
<!-- FK5&#45;&gt;FK4NoETerms -->
<g id="edge34" class="edge"><title>FK5&#45;&gt;FK4NoETerms</title>
<path fill="none" stroke="black" d="M301.882,-393.013C291.281,-400.086 278.274,-409.185 267.267,-418.132 258.731,-425.071 249.882,-433.093 241.957,-440.621"/>
<polygon fill="black" stroke="black" points="239.153,-438.464 234.386,-447.926 244.013,-443.502 239.153,-438.464"/>
<text text-anchor="middle" x="274.267" y="-421.132" font-family="Helvetica Neue, Helvetica, Arial, sans-serif" font-size="10.00">1.0</text>
</g>
<!-- FK4NoETerms&#45;&gt;Galactic -->
<g id="edge26" class="edge"><title>FK4NoETerms&#45;&gt;Galactic</title>
<path fill="none" stroke="black" d="M237.572,-488.095C253.153,-501.194 274.085,-518.79 290.861,-532.892"/>
<polygon fill="black" stroke="black" points="288.813,-535.743 298.72,-539.499 293.317,-530.385 288.813,-535.743"/>
<text text-anchor="middle" x="281.267" y="-510.558" font-family="Helvetica Neue, Helvetica, Arial, sans-serif" font-size="10.00">1.0</text>
</g>
<!-- FK4NoETerms&#45;&gt;FK5 -->
<g id="edge27" class="edge"><title>FK4NoETerms&#45;&gt;FK5</title>
<path fill="none" stroke="black" d="M251.336,-451.41C262.855,-445.372 275.212,-437.825 285.267,-429.132 292.749,-422.663 299.656,-414.441 305.427,-406.578"/>
<polygon fill="black" stroke="black" points="308.36,-408.49 311.215,-398.287 302.621,-404.483 308.36,-408.49"/>
<text text-anchor="middle" x="303.267" y="-421.132" font-family="Helvetica Neue, Helvetica, Arial, sans-serif" font-size="10.00">1.0</text>
</g>
<!-- FK4NoETerms&#45;&gt;FK4NoETerms -->
<g id="edge25" class="edge"><title>FK4NoETerms&#45;&gt;FK4NoETerms</title>
<path fill="none" stroke="black" d="M269.722,-476.432C282.517,-475.767 291.957,-473.072 291.957,-468.345 291.957,-465.022 287.29,-462.703 280.071,-461.387"/>
<polygon fill="black" stroke="black" points="280.043,-457.864 269.722,-460.258 279.284,-464.822 280.043,-457.864"/>
<text text-anchor="middle" x="298.957" y="-465.845" font-family="Helvetica Neue, Helvetica, Arial, sans-serif" font-size="10.00">1.0</text>
</g>
<!-- FK4 -->
<g id="node16" class="node"><title>FK4</title>
<ellipse fill="none" stroke="black" cx="206.267" cy="-378.919" rx="27" ry="21.4286"/>
<text text-anchor="middle" x="206.267" y="-381.919" font-family="Helvetica Neue, Helvetica, Arial, sans-serif" font-size="10.00">FK4</text>
<text text-anchor="middle" x="206.267" y="-370.919" font-family="Helvetica Neue, Helvetica, Arial, sans-serif" font-size="10.00">`fk4`</text>
</g>
<!-- FK4NoETerms&#45;&gt;FK4 -->
<g id="edge28" class="edge"><title>FK4NoETerms&#45;&gt;FK4</title>
<path fill="none" stroke="black" d="M213.18,-447.068C212.055,-436.144 210.645,-422.448 209.392,-410.279"/>
<polygon fill="black" stroke="black" points="212.849,-409.675 208.343,-400.086 205.886,-410.392 212.849,-409.675"/>
<text text-anchor="middle" x="219.267" y="-421.132" font-family="Helvetica Neue, Helvetica, Arial, sans-serif" font-size="10.00">1.0</text>
</g>
<!-- FK4&#45;&gt;FK4NoETerms -->
<g id="edge40" class="edge"><title>FK4&#45;&gt;FK4NoETerms</title>
<path fill="none" stroke="black" d="M196.003,-398.599C192.217,-407.787 189.462,-419.032 192.267,-429.132 193.158,-432.34 194.399,-435.549 195.846,-438.667"/>
<polygon fill="black" stroke="black" points="192.858,-440.501 200.667,-447.66 199.027,-437.193 192.858,-440.501"/>
<text text-anchor="middle" x="199.267" y="-421.132" font-family="Helvetica Neue, Helvetica, Arial, sans-serif" font-size="10.00">1.0</text>
</g>
<!-- FK4&#45;&gt;FK4 -->
<g id="edge41" class="edge"><title>FK4&#45;&gt;FK4</title>
<path fill="none" stroke="black" d="M231.256,-387.07C242.037,-387.737 251.267,-385.02 251.267,-378.919 251.267,-374.915 247.292,-372.368 241.512,-371.279"/>
<polygon fill="black" stroke="black" points="241.418,-367.77 231.256,-370.768 241.069,-374.761 241.418,-367.77"/>
<text text-anchor="middle" x="258.267" y="-376.419" font-family="Helvetica Neue, Helvetica, Arial, sans-serif" font-size="10.00">1.0</text>
</g>
</g>
</svg>
