<?xml version="1.0" encoding="UTF-8" standalone="no"?>
<!DOCTYPE svg PUBLIC "-//W3C//DTD SVG 1.1//EN"
 "http://www.w3.org/Graphics/SVG/1.1/DTD/svg11.dtd">
<!-- Generated by graphviz version 2.38.0 (20140413.2041)
 -->
<!-- Title: %3 Pages: 1 -->
<svg width="136pt" height="260pt"
 viewBox="0.00 0.00 136.00 260.00" xmlns="http://www.w3.org/2000/svg" xmlns:xlink="http://www.w3.org/1999/xlink">
<g id="graph0" class="graph" transform="scale(1 1) rotate(0) translate(4 256)">
<title>%3</title>
<polygon fill="white" stroke="none" points="-4,4 -4,-256 132,-256 132,4 -4,4"/>
<!-- in0 -->
<g id="node1" class="node"><title>in0</title>
<text text-anchor="middle" x="64" y="-231.5" font-family="Helvetica Neue, Helvetica, Arial, sans-serif" font-size="10.00">input 0</text>
</g>
<!-- redshift0 -->
<g id="node3" class="node"><title>redshift0</title>
<polygon fill="none" stroke="black" points="91,-180 37,-180 37,-144 91,-144 91,-180"/>
<text text-anchor="middle" x="64" y="-159.5" font-family="Helvetica Neue, Helvetica, Arial, sans-serif" font-size="10.00">Redshift</text>
</g>
<!-- in0&#45;&gt;redshift0 -->
<g id="edge1" class="edge"><title>in0&#45;&gt;redshift0</title>
<path fill="none" stroke="black" d="M64,-215.697C64,-207.983 64,-198.712 64,-190.112"/>
<polygon fill="black" stroke="black" points="67.5001,-190.104 64,-180.104 60.5001,-190.104 67.5001,-190.104"/>
</g>
<!-- out0 -->
<g id="node2" class="node"><title>out0</title>
<text text-anchor="middle" x="64" y="-15.5" font-family="Helvetica Neue, Helvetica, Arial, sans-serif" font-size="10.00">output 0</text>
</g>
<!-- gaussian0 -->
<g id="node4" class="node"><title>gaussian0</title>
<polygon fill="none" stroke="black" points="128,-108 0,-108 0,-72 128,-72 128,-108"/>
<text text-anchor="middle" x="64" y="-87.5" font-family="Helvetica Neue, Helvetica, Arial, sans-serif" font-size="10.00">Gaussian1D(1, 0.75, 0.1)</text>
</g>
<!-- redshift0&#45;&gt;gaussian0 -->
<g id="edge2" class="edge"><title>redshift0&#45;&gt;gaussian0</title>
<path fill="none" stroke="black" d="M64,-143.697C64,-135.983 64,-126.712 64,-118.112"/>
<polygon fill="black" stroke="black" points="67.5001,-118.104 64,-108.104 60.5001,-118.104 67.5001,-118.104"/>
</g>
<!-- gaussian0&#45;&gt;out0 -->
<g id="edge3" class="edge"><title>gaussian0&#45;&gt;out0</title>
<path fill="none" stroke="black" d="M64,-71.6966C64,-63.9827 64,-54.7125 64,-46.1124"/>
<polygon fill="black" stroke="black" points="67.5001,-46.1043 64,-36.1043 60.5001,-46.1044 67.5001,-46.1043"/>
</g>
</g>
</svg>
