<?xml version="1.0" encoding="UTF-8" standalone="no"?>
<!DOCTYPE svg PUBLIC "-//W3C//DTD SVG 1.1//EN"
 "http://www.w3.org/Graphics/SVG/1.1/DTD/svg11.dtd">
<!-- Generated by graphviz version 2.38.0 (20140413.2041)
 -->
<!-- Title: %3 Pages: 1 -->
<svg width="212pt" height="188pt"
 viewBox="0.00 0.00 212.00 188.00" xmlns="http://www.w3.org/2000/svg" xmlns:xlink="http://www.w3.org/1999/xlink">
<g id="graph0" class="graph" transform="scale(1 1) rotate(0) translate(4 184)">
<title>%3</title>
<polygon fill="white" stroke="none" points="-4,4 -4,-184 208,-184 208,4 -4,4"/>
<!-- in0 -->
<g id="node1" class="node"><title>in0</title>
<text text-anchor="middle" x="46.5" y="-159.5" font-family="Helvetica Neue, Helvetica, Arial, sans-serif" font-size="10.00">input 0</text>
</g>
<!-- scale0 -->
<g id="node5" class="node"><title>scale0</title>
<polygon fill="none" stroke="black" points="93,-108 0,-108 0,-72 93,-72 93,-108"/>
<text text-anchor="middle" x="46.5" y="-87.5" font-family="Helvetica Neue, Helvetica, Arial, sans-serif" font-size="10.00">Scale(factor=1.2)</text>
</g>
<!-- in0&#45;&gt;scale0 -->
<g id="edge1" class="edge"><title>in0&#45;&gt;scale0</title>
<path fill="none" stroke="black" d="M46.5,-143.697C46.5,-135.983 46.5,-126.712 46.5,-118.112"/>
<polygon fill="black" stroke="black" points="50.0001,-118.104 46.5,-108.104 43.0001,-118.104 50.0001,-118.104"/>
</g>
<!-- in1 -->
<g id="node2" class="node"><title>in1</title>
<text text-anchor="middle" x="157.5" y="-159.5" font-family="Helvetica Neue, Helvetica, Arial, sans-serif" font-size="10.00">input 1</text>
</g>
<!-- scale1 -->
<g id="node6" class="node"><title>scale1</title>
<polygon fill="none" stroke="black" points="204,-108 111,-108 111,-72 204,-72 204,-108"/>
<text text-anchor="middle" x="157.5" y="-87.5" font-family="Helvetica Neue, Helvetica, Arial, sans-serif" font-size="10.00">Scale(factor=3.4)</text>
</g>
<!-- in1&#45;&gt;scale1 -->
<g id="edge3" class="edge"><title>in1&#45;&gt;scale1</title>
<path fill="none" stroke="black" d="M157.5,-143.697C157.5,-135.983 157.5,-126.712 157.5,-118.112"/>
<polygon fill="black" stroke="black" points="161,-118.104 157.5,-108.104 154,-118.104 161,-118.104"/>
</g>
<!-- out0 -->
<g id="node3" class="node"><title>out0</title>
<text text-anchor="middle" x="46.5" y="-15.5" font-family="Helvetica Neue, Helvetica, Arial, sans-serif" font-size="10.00">output 0</text>
</g>
<!-- out1 -->
<g id="node4" class="node"><title>out1</title>
<text text-anchor="middle" x="157.5" y="-15.5" font-family="Helvetica Neue, Helvetica, Arial, sans-serif" font-size="10.00">output 1</text>
</g>
<!-- scale0&#45;&gt;out0 -->
<g id="edge2" class="edge"><title>scale0&#45;&gt;out0</title>
<path fill="none" stroke="black" d="M46.5,-71.6966C46.5,-63.9827 46.5,-54.7125 46.5,-46.1124"/>
<polygon fill="black" stroke="black" points="50.0001,-46.1043 46.5,-36.1043 43.0001,-46.1044 50.0001,-46.1043"/>
</g>
<!-- scale1&#45;&gt;out1 -->
<g id="edge4" class="edge"><title>scale1&#45;&gt;out1</title>
<path fill="none" stroke="black" d="M157.5,-71.6966C157.5,-63.9827 157.5,-54.7125 157.5,-46.1124"/>
<polygon fill="black" stroke="black" points="161,-46.1043 157.5,-36.1043 154,-46.1044 161,-46.1043"/>
</g>
</g>
</svg>
