<?xml version="1.0" encoding="UTF-8" standalone="no"?>
<!DOCTYPE svg PUBLIC "-//W3C//DTD SVG 1.1//EN"
 "http://www.w3.org/Graphics/SVG/1.1/DTD/svg11.dtd">
<!-- Generated by graphviz version 2.38.0 (20140413.2041)
 -->
<!-- Title: %3 Pages: 1 -->
<svg width="180pt" height="260pt"
 viewBox="0.00 0.00 180.00 260.00" xmlns="http://www.w3.org/2000/svg" xmlns:xlink="http://www.w3.org/1999/xlink">
<g id="graph0" class="graph" transform="scale(1 1) rotate(0) translate(4 256)">
<title>%3</title>
<polygon fill="white" stroke="none" points="-4,4 -4,-256 176,-256 176,4 -4,4"/>
<!-- in0 -->
<g id="node1" class="node"><title>in0</title>
<text text-anchor="middle" x="46.5" y="-231.5" font-family="Helvetica Neue, Helvetica, Arial, sans-serif" font-size="10.00">input 0</text>
</g>
<!-- scale0 -->
<g id="node5" class="node"><title>scale0</title>
<polygon fill="none" stroke="black" points="93,-180 0,-180 0,-144 93,-144 93,-180"/>
<text text-anchor="middle" x="46.5" y="-159.5" font-family="Helvetica Neue, Helvetica, Arial, sans-serif" font-size="10.00">Scale(factor=1.2)</text>
</g>
<!-- in0&#45;&gt;scale0 -->
<g id="edge1" class="edge"><title>in0&#45;&gt;scale0</title>
<path fill="none" stroke="black" d="M46.5,-215.697C46.5,-207.983 46.5,-198.712 46.5,-190.112"/>
<polygon fill="black" stroke="black" points="50.0001,-190.104 46.5,-180.104 43.0001,-190.104 50.0001,-190.104"/>
</g>
<!-- in1 -->
<g id="node2" class="node"><title>in1</title>
<text text-anchor="middle" x="141.5" y="-231.5" font-family="Helvetica Neue, Helvetica, Arial, sans-serif" font-size="10.00">input 1</text>
</g>
<!-- identity0 -->
<g id="node6" class="node"><title>identity0</title>
<polygon fill="none" stroke="black" points="172,-180 111,-180 111,-144 172,-144 172,-180"/>
<text text-anchor="middle" x="141.5" y="-159.5" font-family="Helvetica Neue, Helvetica, Arial, sans-serif" font-size="10.00">Identity(1)</text>
</g>
<!-- in1&#45;&gt;identity0 -->
<g id="edge3" class="edge"><title>in1&#45;&gt;identity0</title>
<path fill="none" stroke="black" d="M141.5,-215.697C141.5,-207.983 141.5,-198.712 141.5,-190.112"/>
<polygon fill="black" stroke="black" points="145,-190.104 141.5,-180.104 138,-190.104 145,-190.104"/>
</g>
<!-- out0 -->
<g id="node3" class="node"><title>out0</title>
<text text-anchor="middle" x="57.5" y="-15.5" font-family="Helvetica Neue, Helvetica, Arial, sans-serif" font-size="10.00">output 0</text>
</g>
<!-- out1 -->
<g id="node4" class="node"><title>out1</title>
<text text-anchor="middle" x="129.5" y="-15.5" font-family="Helvetica Neue, Helvetica, Arial, sans-serif" font-size="10.00">output 1</text>
</g>
<!-- rot0 -->
<g id="node7" class="node"><title>rot0</title>
<polygon fill="none" stroke="black" points="135.5,-108 51.5,-108 51.5,-72 135.5,-72 135.5,-108"/>
<text text-anchor="middle" x="93.5" y="-87.5" font-family="Helvetica Neue, Helvetica, Arial, sans-serif" font-size="10.00">Rotation2D(90)</text>
</g>
<!-- scale0&#45;&gt;rot0 -->
<g id="edge2" class="edge"><title>scale0&#45;&gt;rot0</title>
<path fill="none" stroke="black" d="M58.118,-143.697C63.6388,-135.474 70.347,-125.483 76.4318,-116.421"/>
<polygon fill="black" stroke="black" points="79.3471,-118.358 82.0157,-108.104 73.5355,-114.456 79.3471,-118.358"/>
</g>
<!-- identity0&#45;&gt;rot0 -->
<g id="edge4" class="edge"><title>identity0&#45;&gt;rot0</title>
<path fill="none" stroke="black" d="M129.635,-143.697C123.997,-135.474 117.146,-125.483 110.931,-116.421"/>
<polygon fill="black" stroke="black" points="113.771,-114.372 105.229,-108.104 107.997,-118.331 113.771,-114.372"/>
</g>
<!-- rot0&#45;&gt;out0 -->
<g id="edge5" class="edge"><title>rot0&#45;&gt;out0</title>
<path fill="none" stroke="black" d="M84.6011,-71.6966C80.5032,-63.7284 75.5512,-54.0995 71.0073,-45.2641"/>
<polygon fill="black" stroke="black" points="73.9826,-43.3965 66.2965,-36.1043 67.7575,-46.598 73.9826,-43.3965"/>
</g>
<!-- rot0&#45;&gt;out1 -->
<g id="edge6" class="edge"><title>rot0&#45;&gt;out1</title>
<path fill="none" stroke="black" d="M102.399,-71.6966C106.497,-63.7284 111.449,-54.0995 115.993,-45.2641"/>
<polygon fill="black" stroke="black" points="119.242,-46.598 120.703,-36.1043 113.017,-43.3965 119.242,-46.598"/>
</g>
</g>
</svg>
