<?xml version="1.0" encoding="UTF-8" standalone="no"?>
<!DOCTYPE svg PUBLIC "-//W3C//DTD SVG 1.1//EN"
 "http://www.w3.org/Graphics/SVG/1.1/DTD/svg11.dtd">
<!-- Generated by graphviz version 2.38.0 (20140413.2041)
 -->
<!-- Title: AstropyCoordinateTransformGraph Pages: 1 -->
<svg width="938pt" height="587pt"
 viewBox="0.00 0.00 937.71 586.98" xmlns="http://www.w3.org/2000/svg" xmlns:xlink="http://www.w3.org/1999/xlink">
<g id="graph0" class="graph" transform="scale(1 1) rotate(0) translate(4 582.985)">
<title>AstropyCoordinateTransformGraph</title>
<polygon fill="white" stroke="none" points="-4,4 -4,-582.985 933.714,-582.985 933.714,4 -4,4"/>
<!-- HCRS -->
<g id="node1" class="node"><title>HCRS</title>
<ellipse fill="none" stroke="black" cx="289.983" cy="-468.345" rx="31.6406" ry="21.4286"/>
<text text-anchor="middle" x="289.983" y="-471.345" font-family="Helvetica Neue, Helvetica, Arial, sans-serif" font-size="10.00">HCRS</text>
<text text-anchor="middle" x="289.983" y="-460.345" font-family="Helvetica Neue, Helvetica, Arial, sans-serif" font-size="10.00">`hcrs`</text>
</g>
<!-- HCRS&#45;&gt;HCRS -->
<g id="edge1" class="edge"><title>HCRS&#45;&gt;HCRS</title>
<path fill="none" stroke="black" d="M319.648,-476.577C330.703,-476.847 339.803,-474.103 339.803,-468.345 339.803,-464.477 335.695,-461.969 329.646,-460.821"/>
<polygon fill="black" stroke="black" points="329.87,-457.328 319.648,-460.113 329.375,-464.311 329.87,-457.328"/>
<text text-anchor="middle" x="346.803" y="-465.845" font-family="Helvetica Neue, Helvetica, Arial, sans-serif" font-size="10.00">1.0</text>
</g>
<!-- CIRS -->
<g id="node2" class="node"><title>CIRS</title>
<ellipse fill="none" stroke="black" cx="504.983" cy="-468.345" rx="28.0702" ry="21.4286"/>
<text text-anchor="middle" x="504.983" y="-471.345" font-family="Helvetica Neue, Helvetica, Arial, sans-serif" font-size="10.00">CIRS</text>
<text text-anchor="middle" x="504.983" y="-460.345" font-family="Helvetica Neue, Helvetica, Arial, sans-serif" font-size="10.00">`cirs`</text>
</g>
<!-- CIRS&#45;&gt;CIRS -->
<g id="edge4" class="edge"><title>CIRS&#45;&gt;CIRS</title>
<path fill="none" stroke="black" d="M531.152,-476.523C542.039,-477.087 551.267,-474.361 551.267,-468.345 551.267,-464.397 547.293,-461.867 541.484,-460.752"/>
<polygon fill="black" stroke="black" points="541.334,-457.238 531.152,-460.168 540.939,-464.227 541.334,-457.238"/>
<text text-anchor="middle" x="558.267" y="-465.845" font-family="Helvetica Neue, Helvetica, Arial, sans-serif" font-size="10.00">1.0</text>
</g>
<!-- GCRS -->
<g id="node3" class="node"><title>GCRS</title>
<ellipse fill="none" stroke="black" cx="541.983" cy="-557.772" rx="31.6406" ry="21.4286"/>
<text text-anchor="middle" x="541.983" y="-560.772" font-family="Helvetica Neue, Helvetica, Arial, sans-serif" font-size="10.00">GCRS</text>
<text text-anchor="middle" x="541.983" y="-549.772" font-family="Helvetica Neue, Helvetica, Arial, sans-serif" font-size="10.00">`gcrs`</text>
</g>
<!-- CIRS&#45;&gt;GCRS -->
<g id="edge2" class="edge"><title>CIRS&#45;&gt;GCRS</title>
<path fill="none" stroke="black" d="M513.218,-488.804C518.047,-500.215 524.242,-514.853 529.645,-527.619"/>
<polygon fill="black" stroke="black" points="526.466,-529.088 533.587,-536.933 532.913,-526.36 526.466,-529.088"/>
<text text-anchor="middle" x="532.983" y="-510.558" font-family="Helvetica Neue, Helvetica, Arial, sans-serif" font-size="10.00">1.0</text>
</g>
<!-- ITRS -->
<g id="node4" class="node"><title>ITRS</title>
<ellipse fill="none" stroke="black" cx="541.983" cy="-378.919" rx="27.6545" ry="21.4286"/>
<text text-anchor="middle" x="541.983" y="-381.919" font-family="Helvetica Neue, Helvetica, Arial, sans-serif" font-size="10.00">ITRS</text>
<text text-anchor="middle" x="541.983" y="-370.919" font-family="Helvetica Neue, Helvetica, Arial, sans-serif" font-size="10.00">`itrs`</text>
</g>
<!-- CIRS&#45;&gt;ITRS -->
<g id="edge3" class="edge"><title>CIRS&#45;&gt;ITRS</title>
<path fill="none" stroke="black" d="M513.194,-447.942C518.08,-436.397 524.37,-421.535 529.824,-408.649"/>
<polygon fill="black" stroke="black" points="533.12,-409.841 533.794,-399.267 526.673,-407.112 533.12,-409.841"/>
<text text-anchor="middle" x="532.983" y="-421.132" font-family="Helvetica Neue, Helvetica, Arial, sans-serif" font-size="10.00">1.0</text>
</g>
<!-- ICRS -->
<g id="node5" class="node"><title>ICRS</title>
<ellipse fill="none" stroke="black" cx="450.983" cy="-378.919" rx="28.0702" ry="21.4286"/>
<text text-anchor="middle" x="450.983" y="-381.919" font-family="Helvetica Neue, Helvetica, Arial, sans-serif" font-size="10.00">ICRS</text>
<text text-anchor="middle" x="450.983" y="-370.919" font-family="Helvetica Neue, Helvetica, Arial, sans-serif" font-size="10.00">`icrs`</text>
</g>
<!-- CIRS&#45;&gt;ICRS -->
<g id="edge5" class="edge"><title>CIRS&#45;&gt;ICRS</title>
<path fill="none" stroke="black" d="M487.246,-451.458C480.838,-445.017 473.963,-437.198 468.983,-429.132 465.258,-423.099 462.133,-416.178 459.587,-409.469"/>
<polygon fill="black" stroke="black" points="462.858,-408.217 456.271,-399.919 456.245,-410.514 462.858,-408.217"/>
<text text-anchor="middle" x="475.983" y="-421.132" font-family="Helvetica Neue, Helvetica, Arial, sans-serif" font-size="10.00">1.0</text>
</g>
<!-- AltAz -->
<g id="node6" class="node"><title>AltAz</title>
<ellipse fill="none" stroke="black" cx="651.983" cy="-378.919" rx="31.2258" ry="21.4286"/>
<text text-anchor="middle" x="651.983" y="-381.919" font-family="Helvetica Neue, Helvetica, Arial, sans-serif" font-size="10.00">AltAz</text>
<text text-anchor="middle" x="651.983" y="-370.919" font-family="Helvetica Neue, Helvetica, Arial, sans-serif" font-size="10.00">`altaz`</text>
</g>
<!-- CIRS&#45;&gt;AltAz -->
<g id="edge6" class="edge"><title>CIRS&#45;&gt;AltAz</title>
<path fill="none" stroke="black" d="M526.673,-454.445C551.463,-439.701 592.253,-415.442 620.53,-398.625"/>
<polygon fill="black" stroke="black" points="622.43,-401.567 629.236,-393.447 618.852,-395.551 622.43,-401.567"/>
<text text-anchor="middle" x="594.983" y="-421.132" font-family="Helvetica Neue, Helvetica, Arial, sans-serif" font-size="10.00">1.0</text>
</g>
<!-- GCRS&#45;&gt;HCRS -->
<g id="edge25" class="edge"><title>GCRS&#45;&gt;HCRS</title>
<path fill="none" stroke="black" d="M510.617,-553.853C473.794,-549.592 411.471,-539.738 361.983,-518.558 346.111,-511.766 330.094,-501.261 317.21,-491.698"/>
<polygon fill="black" stroke="black" points="319.3,-488.89 309.229,-485.599 315.049,-494.452 319.3,-488.89"/>
<text text-anchor="middle" x="368.983" y="-510.558" font-family="Helvetica Neue, Helvetica, Arial, sans-serif" font-size="10.00">1.0</text>
</g>
<!-- GCRS&#45;&gt;CIRS -->
<g id="edge24" class="edge"><title>GCRS&#45;&gt;CIRS</title>
<path fill="none" stroke="black" d="M521.225,-541.501C514.394,-535.239 507.622,-527.38 503.983,-518.558 501.602,-512.789 500.662,-506.306 500.533,-499.987"/>
<polygon fill="black" stroke="black" points="504.044,-499.8 500.971,-489.66 497.05,-499.503 504.044,-499.8"/>
<text text-anchor="middle" x="510.983" y="-510.558" font-family="Helvetica Neue, Helvetica, Arial, sans-serif" font-size="10.00">1.0</text>
</g>
<!-- GCRS&#45;&gt;GCRS -->
<g id="edge23" class="edge"><title>GCRS&#45;&gt;GCRS</title>
<path fill="none" stroke="black" d="M571.648,-566.004C582.703,-566.273 591.803,-563.529 591.803,-557.772 591.803,-553.903 587.695,-551.395 581.646,-550.248"/>
<polygon fill="black" stroke="black" points="581.87,-546.755 571.648,-549.54 581.375,-553.737 581.87,-546.755"/>
<text text-anchor="middle" x="598.803" y="-555.272" font-family="Helvetica Neue, Helvetica, Arial, sans-serif" font-size="10.00">1.0</text>
</g>
<!-- GCRS&#45;&gt;ICRS -->
<g id="edge27" class="edge"><title>GCRS&#45;&gt;ICRS</title>
<path fill="none" stroke="black" d="M510.615,-553.65C474.543,-548.048 418.427,-532.497 403.983,-489.558 393.579,-458.63 402.614,-445.103 420.983,-418.132 423.802,-413.993 426.927,-409.718 430.065,-405.593"/>
<polygon fill="black" stroke="black" points="433.041,-407.468 436.428,-397.429 427.52,-403.164 433.041,-407.468"/>
<text text-anchor="middle" x="410.983" y="-465.845" font-family="Helvetica Neue, Helvetica, Arial, sans-serif" font-size="10.00">1.0</text>
</g>
<!-- PrecessedGeocentric -->
<g id="node14" class="node"><title>PrecessedGeocentric</title>
<ellipse fill="none" stroke="black" cx="664.983" cy="-468.345" rx="81.135" ry="21.4286"/>
<text text-anchor="middle" x="664.983" y="-471.345" font-family="Helvetica Neue, Helvetica, Arial, sans-serif" font-size="10.00">PrecessedGeocentric</text>
<text text-anchor="middle" x="664.983" y="-460.345" font-family="Helvetica Neue, Helvetica, Arial, sans-serif" font-size="10.00">`precessedgeocentric`</text>
</g>
<!-- GCRS&#45;&gt;PrecessedGeocentric -->
<g id="edge26" class="edge"><title>GCRS&#45;&gt;PrecessedGeocentric</title>
<path fill="none" stroke="black" d="M562.741,-541.59C576.169,-531.809 594.054,-518.855 609.983,-507.558 616.047,-503.258 622.513,-498.722 628.801,-494.337"/>
<polygon fill="black" stroke="black" points="631.002,-497.069 637.212,-488.486 627.004,-491.323 631.002,-497.069"/>
<text text-anchor="middle" x="616.983" y="-510.558" font-family="Helvetica Neue, Helvetica, Arial, sans-serif" font-size="10.00">1.0</text>
</g>
<!-- GeocentricTrueEcliptic -->
<g id="node15" class="node"><title>GeocentricTrueEcliptic</title>
<ellipse fill="none" stroke="black" cx="846.983" cy="-468.345" rx="82.9636" ry="21.4286"/>
<text text-anchor="middle" x="846.983" y="-471.345" font-family="Helvetica Neue, Helvetica, Arial, sans-serif" font-size="10.00">GeocentricTrueEcliptic</text>
<text text-anchor="middle" x="846.983" y="-460.345" font-family="Helvetica Neue, Helvetica, Arial, sans-serif" font-size="10.00">`geocentrictrueecliptic`</text>
</g>
<!-- GCRS&#45;&gt;GeocentricTrueEcliptic -->
<g id="edge28" class="edge"><title>GCRS&#45;&gt;GeocentricTrueEcliptic</title>
<path fill="none" stroke="black" d="M570.676,-548.547C619.198,-534.638 718.548,-506.16 783.945,-487.415"/>
<polygon fill="black" stroke="black" points="785.087,-490.728 793.736,-484.608 783.159,-483.999 785.087,-490.728"/>
<text text-anchor="middle" x="719.983" y="-510.558" font-family="Helvetica Neue, Helvetica, Arial, sans-serif" font-size="10.00">1.0</text>
</g>
<!-- ITRS&#45;&gt;CIRS -->
<g id="edge31" class="edge"><title>ITRS&#45;&gt;CIRS</title>
<path fill="none" stroke="black" d="M546.632,-400.251C547.775,-409.403 547.759,-420.145 543.983,-429.132 541.38,-435.326 537.229,-441.019 532.587,-446.014"/>
<polygon fill="black" stroke="black" points="529.829,-443.81 525.039,-453.261 534.677,-448.86 529.829,-443.81"/>
<text text-anchor="middle" x="553.983" y="-421.132" font-family="Helvetica Neue, Helvetica, Arial, sans-serif" font-size="10.00">1.0</text>
</g>
<!-- ITRS&#45;&gt;ITRS -->
<g id="edge30" class="edge"><title>ITRS&#45;&gt;ITRS</title>
<path fill="none" stroke="black" d="M567.753,-387.096C578.473,-387.66 587.56,-384.934 587.56,-378.919 587.56,-374.971 583.646,-372.44 577.926,-371.326"/>
<polygon fill="black" stroke="black" points="577.937,-367.821 567.753,-370.741 577.535,-374.809 577.937,-367.821"/>
<text text-anchor="middle" x="594.56" y="-376.419" font-family="Helvetica Neue, Helvetica, Arial, sans-serif" font-size="10.00">1.0</text>
</g>
<!-- ICRS&#45;&gt;CIRS -->
<g id="edge37" class="edge"><title>ICRS&#45;&gt;CIRS</title>
<path fill="none" stroke="black" d="M466.711,-396.642C472.273,-403.062 478.304,-410.648 482.983,-418.132 486.85,-424.317 490.401,-431.297 493.471,-438.015"/>
<polygon fill="black" stroke="black" points="490.415,-439.765 497.604,-447.547 496.837,-436.98 490.415,-439.765"/>
<text text-anchor="middle" x="495.983" y="-421.132" font-family="Helvetica Neue, Helvetica, Arial, sans-serif" font-size="10.00">1.0</text>
</g>
<!-- ICRS&#45;&gt;GCRS -->
<g id="edge35" class="edge"><title>ICRS&#45;&gt;GCRS</title>
<path fill="none" stroke="black" d="M446.566,-400.195C442.634,-423.217 439.498,-461.249 453.983,-489.558 465.398,-511.868 488.005,-528.885 507.446,-540.214"/>
<polygon fill="black" stroke="black" points="505.944,-543.383 516.388,-545.168 509.336,-537.26 505.944,-543.383"/>
<text text-anchor="middle" x="460.983" y="-465.845" font-family="Helvetica Neue, Helvetica, Arial, sans-serif" font-size="10.00">1.0</text>
</g>
<!-- FK5 -->
<g id="node8" class="node"><title>FK5</title>
<ellipse fill="none" stroke="black" cx="179.983" cy="-289.492" rx="27" ry="21.4286"/>
<text text-anchor="middle" x="179.983" y="-292.492" font-family="Helvetica Neue, Helvetica, Arial, sans-serif" font-size="10.00">FK5</text>
<text text-anchor="middle" x="179.983" y="-281.492" font-family="Helvetica Neue, Helvetica, Arial, sans-serif" font-size="10.00">`fk5`</text>
</g>
<!-- ICRS&#45;&gt;FK5 -->
<g id="edge38" class="edge"><title>ICRS&#45;&gt;FK5</title>
<path fill="none" stroke="black" d="M423.522,-373.686C389.636,-368.017 330.546,-356.663 281.983,-339.706 257.144,-331.032 230.405,-317.981 210.537,-307.497"/>
<polygon fill="black" stroke="black" points="212.118,-304.373 201.65,-302.737 208.813,-310.544 212.118,-304.373"/>
<text text-anchor="middle" x="288.983" y="-331.706" font-family="Helvetica Neue, Helvetica, Arial, sans-serif" font-size="10.00">1.0</text>
</g>
<!-- BarycentricTrueEcliptic -->
<g id="node11" class="node"><title>BarycentricTrueEcliptic</title>
<ellipse fill="none" stroke="black" cx="341.983" cy="-289.492" rx="84.7059" ry="21.4286"/>
<text text-anchor="middle" x="341.983" y="-292.492" font-family="Helvetica Neue, Helvetica, Arial, sans-serif" font-size="10.00">BarycentricTrueEcliptic</text>
<text text-anchor="middle" x="341.983" y="-281.492" font-family="Helvetica Neue, Helvetica, Arial, sans-serif" font-size="10.00">`barycentrictrueecliptic`</text>
</g>
<!-- ICRS&#45;&gt;BarycentricTrueEcliptic -->
<g id="edge40" class="edge"><title>ICRS&#45;&gt;BarycentricTrueEcliptic</title>
<path fill="none" stroke="black" d="M425.295,-369.78C408.664,-363.545 387.327,-353.63 371.983,-339.706 365.835,-334.126 360.521,-326.994 356.146,-319.902"/>
<polygon fill="black" stroke="black" points="359.102,-318.02 351.115,-311.059 353.018,-321.482 359.102,-318.02"/>
<text text-anchor="middle" x="378.983" y="-331.706" font-family="Helvetica Neue, Helvetica, Arial, sans-serif" font-size="10.00">1.0</text>
</g>
<!-- HeliocentricTrueEcliptic -->
<g id="node13" class="node"><title>HeliocentricTrueEcliptic</title>
<ellipse fill="none" stroke="black" cx="530.983" cy="-289.492" rx="86.0347" ry="21.4286"/>
<text text-anchor="middle" x="530.983" y="-292.492" font-family="Helvetica Neue, Helvetica, Arial, sans-serif" font-size="10.00">HeliocentricTrueEcliptic</text>
<text text-anchor="middle" x="530.983" y="-281.492" font-family="Helvetica Neue, Helvetica, Arial, sans-serif" font-size="10.00">`heliocentrictrueecliptic`</text>
</g>
<!-- ICRS&#45;&gt;HeliocentricTrueEcliptic -->
<g id="edge39" class="edge"><title>ICRS&#45;&gt;HeliocentricTrueEcliptic</title>
<path fill="none" stroke="black" d="M459.654,-358.47C464.499,-348.882 471.141,-337.518 478.983,-328.706 482.99,-324.202 487.611,-319.903 492.409,-315.922"/>
<polygon fill="black" stroke="black" points="494.851,-318.456 500.577,-309.542 490.541,-312.94 494.851,-318.456"/>
<text text-anchor="middle" x="485.983" y="-331.706" font-family="Helvetica Neue, Helvetica, Arial, sans-serif" font-size="10.00">1.0</text>
</g>
<!-- Galactocentric -->
<g id="node16" class="node"><title>Galactocentric</title>
<ellipse fill="none" stroke="black" cx="694.983" cy="-289.492" rx="60.2083" ry="21.4286"/>
<text text-anchor="middle" x="694.983" y="-292.492" font-family="Helvetica Neue, Helvetica, Arial, sans-serif" font-size="10.00">Galactocentric</text>
<text text-anchor="middle" x="694.983" y="-281.492" font-family="Helvetica Neue, Helvetica, Arial, sans-serif" font-size="10.00">`galactocentric`</text>
</g>
<!-- ICRS&#45;&gt;Galactocentric -->
<g id="edge36" class="edge"><title>ICRS&#45;&gt;Galactocentric</title>
<path fill="none" stroke="black" d="M475.68,-368.567C484.867,-365.116 495.388,-361.198 504.983,-357.706 551.764,-340.677 605.237,-321.814 643.512,-308.417"/>
<polygon fill="black" stroke="black" points="645.109,-311.566 653.393,-304.961 642.798,-304.958 645.109,-311.566"/>
<text text-anchor="middle" x="590.983" y="-331.706" font-family="Helvetica Neue, Helvetica, Arial, sans-serif" font-size="10.00">1.0</text>
</g>
<!-- AltAz&#45;&gt;CIRS -->
<g id="edge19" class="edge"><title>AltAz&#45;&gt;CIRS</title>
<path fill="none" stroke="black" d="M638.309,-398.275C629.918,-408.495 618.418,-420.798 605.983,-429.132 586.398,-442.257 561.683,-451.708 541.603,-457.928"/>
<polygon fill="black" stroke="black" points="540.467,-454.614 531.87,-460.806 542.452,-461.327 540.467,-454.614"/>
<text text-anchor="middle" x="625.983" y="-421.132" font-family="Helvetica Neue, Helvetica, Arial, sans-serif" font-size="10.00">1.0</text>
</g>
<!-- AltAz&#45;&gt;AltAz -->
<g id="edge20" class="edge"><title>AltAz&#45;&gt;AltAz</title>
<path fill="none" stroke="black" d="M680.737,-387.137C691.855,-387.502 701.095,-384.763 701.095,-378.919 701.095,-374.993 696.924,-372.468 690.815,-371.344"/>
<polygon fill="black" stroke="black" points="690.94,-367.845 680.737,-370.701 690.494,-374.831 690.94,-367.845"/>
<text text-anchor="middle" x="708.095" y="-376.419" font-family="Helvetica Neue, Helvetica, Arial, sans-serif" font-size="10.00">1.0</text>
</g>
<!-- FK4NoETerms -->
<g id="node7" class="node"><title>FK4NoETerms</title>
<ellipse fill="none" stroke="black" cx="193.983" cy="-110.64" rx="58.8803" ry="21.4286"/>
<text text-anchor="middle" x="193.983" y="-113.64" font-family="Helvetica Neue, Helvetica, Arial, sans-serif" font-size="10.00">FK4NoETerms</text>
<text text-anchor="middle" x="193.983" y="-102.64" font-family="Helvetica Neue, Helvetica, Arial, sans-serif" font-size="10.00">`fk4noeterms`</text>
</g>
<!-- FK4NoETerms&#45;&gt;FK4NoETerms -->
<g id="edge10" class="edge"><title>FK4NoETerms&#45;&gt;FK4NoETerms</title>
<path fill="none" stroke="black" d="M248.438,-118.726C261.233,-118.062 270.673,-115.366 270.673,-110.64 270.673,-107.316 266.006,-104.997 258.787,-103.682"/>
<polygon fill="black" stroke="black" points="258.759,-100.158 248.438,-102.553 257.999,-107.117 258.759,-100.158"/>
<text text-anchor="middle" x="277.673" y="-108.14" font-family="Helvetica Neue, Helvetica, Arial, sans-serif" font-size="10.00">1.0</text>
</g>
<!-- FK4NoETerms&#45;&gt;FK5 -->
<g id="edge7" class="edge"><title>FK4NoETerms&#45;&gt;FK5</title>
<path fill="none" stroke="black" d="M192.374,-131.962C189.931,-162.817 185.27,-221.699 182.413,-257.792"/>
<polygon fill="black" stroke="black" points="178.889,-257.96 181.589,-268.205 185.867,-258.513 178.889,-257.96"/>
<text text-anchor="middle" x="195.983" y="-197.566" font-family="Helvetica Neue, Helvetica, Arial, sans-serif" font-size="10.00">1.0</text>
</g>
<!-- Galactic -->
<g id="node9" class="node"><title>Galactic</title>
<ellipse fill="none" stroke="black" cx="119.983" cy="-200.066" rx="40.1111" ry="21.4286"/>
<text text-anchor="middle" x="119.983" y="-203.066" font-family="Helvetica Neue, Helvetica, Arial, sans-serif" font-size="10.00">Galactic</text>
<text text-anchor="middle" x="119.983" y="-192.066" font-family="Helvetica Neue, Helvetica, Arial, sans-serif" font-size="10.00">`galactic`</text>
</g>
<!-- FK4NoETerms&#45;&gt;Galactic -->
<g id="edge8" class="edge"><title>FK4NoETerms&#45;&gt;Galactic</title>
<path fill="none" stroke="black" d="M157.009,-127.402C147.261,-133.168 137.623,-140.605 130.983,-149.853 127.096,-155.266 124.548,-161.812 122.886,-168.338"/>
<polygon fill="black" stroke="black" points="119.4,-167.928 120.939,-178.411 126.273,-169.256 119.4,-167.928"/>
<text text-anchor="middle" x="137.983" y="-152.853" font-family="Helvetica Neue, Helvetica, Arial, sans-serif" font-size="10.00">1.0</text>
</g>
<!-- FK4 -->
<g id="node10" class="node"><title>FK4</title>
<ellipse fill="none" stroke="black" cx="193.983" cy="-21.2132" rx="27" ry="21.4286"/>
<text text-anchor="middle" x="193.983" y="-24.2132" font-family="Helvetica Neue, Helvetica, Arial, sans-serif" font-size="10.00">FK4</text>
<text text-anchor="middle" x="193.983" y="-13.2132" font-family="Helvetica Neue, Helvetica, Arial, sans-serif" font-size="10.00">`fk4`</text>
</g>
<!-- FK4NoETerms&#45;&gt;FK4 -->
<g id="edge9" class="edge"><title>FK4NoETerms&#45;&gt;FK4</title>
<path fill="none" stroke="black" d="M183.166,-89.5474C180.624,-83.8515 178.28,-77.5347 176.983,-71.4264 175.494,-64.4163 176.558,-57.0281 178.736,-50.1684"/>
<polygon fill="black" stroke="black" points="182.098,-51.1867 182.557,-40.6018 175.597,-48.5902 182.098,-51.1867"/>
<text text-anchor="middle" x="183.983" y="-63.4264" font-family="Helvetica Neue, Helvetica, Arial, sans-serif" font-size="10.00">1.0</text>
</g>
<!-- FK5&#45;&gt;ICRS -->
<g id="edge14" class="edge"><title>FK5&#45;&gt;ICRS</title>
<path fill="none" stroke="black" d="M204.82,-298.505C253.167,-314.102 360.043,-348.581 415.714,-366.541"/>
<polygon fill="black" stroke="black" points="414.896,-369.955 425.488,-369.694 417.045,-363.293 414.896,-369.955"/>
<text text-anchor="middle" x="338.983" y="-331.706" font-family="Helvetica Neue, Helvetica, Arial, sans-serif" font-size="10.00">1.0</text>
</g>
<!-- FK5&#45;&gt;FK4NoETerms -->
<g id="edge15" class="edge"><title>FK5&#45;&gt;FK4NoETerms</title>
<path fill="none" stroke="black" d="M190.246,-269.752C196.739,-256.628 204.382,-238.437 206.983,-221.279 211.743,-189.88 210.499,-181.128 204.983,-149.853 204.516,-147.203 203.936,-144.475 203.288,-141.753"/>
<polygon fill="black" stroke="black" points="206.67,-140.85 200.728,-132.078 199.902,-142.64 206.67,-140.85"/>
<text text-anchor="middle" x="216.983" y="-197.566" font-family="Helvetica Neue, Helvetica, Arial, sans-serif" font-size="10.00">1.0</text>
</g>
<!-- FK5&#45;&gt;FK5 -->
<g id="edge12" class="edge"><title>FK5&#45;&gt;FK5</title>
<path fill="none" stroke="black" d="M204.972,-297.644C215.752,-298.311 224.983,-295.594 224.983,-289.492 224.983,-285.488 221.008,-282.942 215.228,-281.853"/>
<polygon fill="black" stroke="black" points="215.134,-278.344 204.972,-281.341 214.785,-285.335 215.134,-278.344"/>
<text text-anchor="middle" x="231.983" y="-286.992" font-family="Helvetica Neue, Helvetica, Arial, sans-serif" font-size="10.00">1.0</text>
</g>
<!-- FK5&#45;&gt;Galactic -->
<g id="edge13" class="edge"><title>FK5&#45;&gt;Galactic</title>
<path fill="none" stroke="black" d="M157.489,-277.306C146.864,-270.86 134.999,-261.747 127.983,-250.279 124.544,-244.658 122.442,-238.029 121.188,-231.487"/>
<polygon fill="black" stroke="black" points="124.638,-230.885 119.842,-221.438 117.7,-231.814 124.638,-230.885"/>
<text text-anchor="middle" x="134.983" y="-242.279" font-family="Helvetica Neue, Helvetica, Arial, sans-serif" font-size="10.00">1.0</text>
</g>
<!-- Galactic&#45;&gt;FK4NoETerms -->
<g id="edge18" class="edge"><title>Galactic&#45;&gt;FK4NoETerms</title>
<path fill="none" stroke="black" d="M135.676,-180.525C145.961,-168.374 159.578,-152.287 171.066,-138.714"/>
<polygon fill="black" stroke="black" points="173.753,-140.957 177.543,-131.063 168.41,-136.434 173.753,-140.957"/>
<text text-anchor="middle" x="168.983" y="-152.853" font-family="Helvetica Neue, Helvetica, Arial, sans-serif" font-size="10.00">1.0</text>
</g>
<!-- Galactic&#45;&gt;FK5 -->
<g id="edge16" class="edge"><title>Galactic&#45;&gt;FK5</title>
<path fill="none" stroke="black" d="M133.231,-220.371C141.627,-232.603 152.598,-248.59 161.802,-262.001"/>
<polygon fill="black" stroke="black" points="159.006,-264.113 167.551,-270.378 164.778,-260.152 159.006,-264.113"/>
<text text-anchor="middle" x="160.983" y="-242.279" font-family="Helvetica Neue, Helvetica, Arial, sans-serif" font-size="10.00">1.0</text>
</g>
<!-- Supergalactic -->
<g id="node12" class="node"><title>Supergalactic</title>
<ellipse fill="none" stroke="black" cx="57.9828" cy="-110.64" rx="57.9655" ry="21.4286"/>
<text text-anchor="middle" x="57.9828" y="-113.64" font-family="Helvetica Neue, Helvetica, Arial, sans-serif" font-size="10.00">Supergalactic</text>
<text text-anchor="middle" x="57.9828" y="-102.64" font-family="Helvetica Neue, Helvetica, Arial, sans-serif" font-size="10.00">`supergalactic`</text>
</g>
<!-- Galactic&#45;&gt;Supergalactic -->
<g id="edge17" class="edge"><title>Galactic&#45;&gt;Supergalactic</title>
<path fill="none" stroke="black" d="M106.223,-179.663C97.8532,-167.861 87.025,-152.592 77.7488,-139.512"/>
<polygon fill="black" stroke="black" points="80.5582,-137.423 71.9185,-131.29 74.8483,-141.472 80.5582,-137.423"/>
<text text-anchor="middle" x="99.9828" y="-152.853" font-family="Helvetica Neue, Helvetica, Arial, sans-serif" font-size="10.00">1.0</text>
</g>
<!-- FK4&#45;&gt;FK4NoETerms -->
<g id="edge34" class="edge"><title>FK4&#45;&gt;FK4NoETerms</title>
<path fill="none" stroke="black" d="M193.983,-42.6832C193.983,-53.5614 193.983,-67.1475 193.983,-79.2335"/>
<polygon fill="black" stroke="black" points="190.483,-79.3625 193.983,-89.3625 197.483,-79.3625 190.483,-79.3625"/>
<text text-anchor="middle" x="200.983" y="-63.4264" font-family="Helvetica Neue, Helvetica, Arial, sans-serif" font-size="10.00">1.0</text>
</g>
<!-- FK4&#45;&gt;FK4 -->
<g id="edge33" class="edge"><title>FK4&#45;&gt;FK4</title>
<path fill="none" stroke="black" d="M218.972,-29.3645C229.752,-30.0319 238.983,-27.3148 238.983,-21.2132 238.983,-17.2091 235.008,-14.6625 229.228,-13.5734"/>
<polygon fill="black" stroke="black" points="229.134,-10.0645 218.972,-13.0619 228.785,-17.0558 229.134,-10.0645"/>
<text text-anchor="middle" x="245.983" y="-18.7132" font-family="Helvetica Neue, Helvetica, Arial, sans-serif" font-size="10.00">1.0</text>
</g>
<!-- BarycentricTrueEcliptic&#45;&gt;ICRS -->
<g id="edge11" class="edge"><title>BarycentricTrueEcliptic&#45;&gt;ICRS</title>
<path fill="none" stroke="black" d="M366.487,-310.147C383.522,-323.81 406.235,-342.027 423.822,-356.134"/>
<polygon fill="black" stroke="black" points="422.006,-359.164 431.996,-362.69 426.386,-353.703 422.006,-359.164"/>
<text text-anchor="middle" x="410.983" y="-331.706" font-family="Helvetica Neue, Helvetica, Arial, sans-serif" font-size="10.00">1.0</text>
</g>
<!-- Supergalactic&#45;&gt;Galactic -->
<g id="edge22" class="edge"><title>Supergalactic&#45;&gt;Galactic</title>
<path fill="none" stroke="black" d="M58.7967,-132.051C59.9719,-141.428 62.5357,-152.331 67.9828,-160.853 72.2678,-167.556 78.177,-173.481 84.4796,-178.544"/>
<polygon fill="black" stroke="black" points="82.4478,-181.394 92.5806,-184.489 86.5893,-175.751 82.4478,-181.394"/>
<text text-anchor="middle" x="74.9828" y="-152.853" font-family="Helvetica Neue, Helvetica, Arial, sans-serif" font-size="10.00">1.0</text>
</g>
<!-- HeliocentricTrueEcliptic&#45;&gt;ICRS -->
<g id="edge21" class="edge"><title>HeliocentricTrueEcliptic&#45;&gt;ICRS</title>
<path fill="none" stroke="black" d="M518.896,-310.576C512.858,-319.881 505.115,-330.819 496.983,-339.706 491.463,-345.737 484.987,-351.674 478.664,-357.004"/>
<polygon fill="black" stroke="black" points="476.365,-354.362 470.821,-363.391 480.785,-359.79 476.365,-354.362"/>
<text text-anchor="middle" x="513.983" y="-331.706" font-family="Helvetica Neue, Helvetica, Arial, sans-serif" font-size="10.00">1.0</text>
</g>
<!-- PrecessedGeocentric&#45;&gt;GCRS -->
<g id="edge32" class="edge"><title>PrecessedGeocentric&#45;&gt;GCRS</title>
<path fill="none" stroke="black" d="M651.516,-489.363C644.226,-499.095 634.556,-510.417 623.983,-518.558 610.61,-528.855 594.015,-537.241 579.259,-543.505"/>
<polygon fill="black" stroke="black" points="577.829,-540.309 569.881,-547.315 580.463,-546.794 577.829,-540.309"/>
<text text-anchor="middle" x="642.983" y="-510.558" font-family="Helvetica Neue, Helvetica, Arial, sans-serif" font-size="10.00">1.0</text>
</g>
<!-- GeocentricTrueEcliptic&#45;&gt;GCRS -->
<g id="edge41" class="edge"><title>GeocentricTrueEcliptic&#45;&gt;GCRS</title>
<path fill="none" stroke="black" d="M809.825,-487.379C787.411,-497.681 758.044,-510.176 730.983,-518.558 681.146,-533.995 621.943,-544.799 583.247,-550.89"/>
<polygon fill="black" stroke="black" points="582.253,-547.501 572.902,-552.483 583.318,-554.42 582.253,-547.501"/>
<text text-anchor="middle" x="770.983" y="-510.558" font-family="Helvetica Neue, Helvetica, Arial, sans-serif" font-size="10.00">1.0</text>
</g>
<!-- Galactocentric&#45;&gt;ICRS -->
<g id="edge29" class="edge"><title>Galactocentric&#45;&gt;ICRS</title>
<path fill="none" stroke="black" d="M675.66,-309.628C663.766,-320.245 647.646,-332.686 630.983,-339.706 578.851,-361.667 559.792,-343.708 504.983,-357.706 498.271,-359.42 491.242,-361.684 484.557,-364.076"/>
<polygon fill="black" stroke="black" points="483.225,-360.838 475.087,-367.623 485.68,-367.393 483.225,-360.838"/>
<text text-anchor="middle" x="659.983" y="-331.706" font-family="Helvetica Neue, Helvetica, Arial, sans-serif" font-size="10.00">1.0</text>
</g>
</g>
</svg>
