<?xml version="1.0" encoding="UTF-8" standalone="no"?>
<!DOCTYPE svg PUBLIC "-//W3C//DTD SVG 1.1//EN"
 "http://www.w3.org/Graphics/SVG/1.1/DTD/svg11.dtd">
<!-- Generated by graphviz version 2.38.0 (20140413.2041)
 -->
<!-- Title: G Pages: 1 -->
<svg width="206pt" height="195pt"
 viewBox="0.00 0.00 206.00 195.20" xmlns="http://www.w3.org/2000/svg" xmlns:xlink="http://www.w3.org/1999/xlink">
<g id="graph0" class="graph" transform="scale(1 1) rotate(0) translate(4 191.2)">
<title>G</title>
<polygon fill="white" stroke="none" points="-4,4 -4,-191.2 202,-191.2 202,4 -4,4"/>
<g id="clust2" class="cluster"><title>cluster_A</title>
<polygon fill="none" stroke="black" points="67,-64 67,-142.2 131,-142.2 131,-64 67,-64"/>
<text text-anchor="middle" x="99" y="-130.2" font-family="Helvetica Neue, Helvetica, Arial, sans-serif" font-size="10.00">(1, 0, 2)</text>
</g>
<!-- in0 -->
<g id="node1" class="node"><title>in0</title>
<text text-anchor="middle" x="27" y="-166.7" font-family="Helvetica Neue, Helvetica, Arial, sans-serif" font-size="10.00">input 0</text>
</g>
<!-- a -->
<g id="node4" class="node"><title>a</title>
<ellipse fill="black" stroke="black" cx="77" cy="-113.4" rx="1.8" ry="1.8"/>
</g>
<!-- in0&#45;&gt;a -->
<g id="edge5" class="edge"><title>in0&#45;&gt;a</title>
<path fill="none" stroke="black" d="M42.8203,-151.177C51.6323,-141.696 62.2112,-130.313 69.2424,-122.747"/>
<polygon fill="black" stroke="black" points="71.8882,-125.042 76.1322,-115.334 66.7607,-120.276 71.8882,-125.042"/>
</g>
<!-- in1 -->
<g id="node2" class="node"><title>in1</title>
<text text-anchor="middle" x="99" y="-166.7" font-family="Helvetica Neue, Helvetica, Arial, sans-serif" font-size="10.00">input 1</text>
</g>
<!-- b -->
<g id="node5" class="node"><title>b</title>
<ellipse fill="black" stroke="black" cx="99" cy="-113.4" rx="1.8" ry="1.8"/>
</g>
<!-- in1&#45;&gt;b -->
<g id="edge6" class="edge"><title>in1&#45;&gt;b</title>
<path fill="none" stroke="black" d="M99,-151.177C99,-142.773 99,-132.875 99,-125.466"/>
<polygon fill="black" stroke="black" points="102.5,-125.334 99,-115.334 95.5001,-125.334 102.5,-125.334"/>
</g>
<!-- in2 -->
<g id="node3" class="node"><title>in2</title>
<text text-anchor="middle" x="171" y="-166.7" font-family="Helvetica Neue, Helvetica, Arial, sans-serif" font-size="10.00">input 2</text>
</g>
<!-- c -->
<g id="node6" class="node"><title>c</title>
<ellipse fill="black" stroke="black" cx="121" cy="-113.4" rx="1.8" ry="1.8"/>
</g>
<!-- in2&#45;&gt;c -->
<g id="edge7" class="edge"><title>in2&#45;&gt;c</title>
<path fill="none" stroke="black" d="M155.18,-151.177C146.368,-141.696 135.789,-130.313 128.758,-122.747"/>
<polygon fill="black" stroke="black" points="131.239,-120.276 121.868,-115.334 126.112,-125.042 131.239,-120.276"/>
</g>
<!-- d -->
<g id="node7" class="node"><title>d</title>
<ellipse fill="black" stroke="black" cx="77" cy="-73.8" rx="1.8" ry="1.8"/>
</g>
<!-- a&#45;&gt;d -->
<!-- e -->
<g id="node8" class="node"><title>e</title>
<ellipse fill="black" stroke="black" cx="99" cy="-73.8" rx="1.8" ry="1.8"/>
</g>
<!-- a&#45;&gt;e -->
<g id="edge2" class="edge"><title>a&#45;&gt;e</title>
<path fill="none" stroke="black" d="M77.5438,-111.471C79.7026,-107.781 87.8221,-93.9041 93.4294,-84.3207"/>
<polygon fill="black" stroke="black" points="96.5213,-85.9668 98.5506,-75.5681 90.4795,-82.4317 96.5213,-85.9668"/>
</g>
<!-- b&#45;&gt;d -->
<g id="edge3" class="edge"><title>b&#45;&gt;d</title>
<path fill="none" stroke="black" d="M98.4562,-111.471C96.2974,-107.781 88.1779,-93.9041 82.5706,-84.3207"/>
<polygon fill="black" stroke="black" points="85.5205,-82.4317 77.4494,-75.5681 79.4787,-85.9668 85.5205,-82.4317"/>
</g>
<!-- f -->
<g id="node9" class="node"><title>f</title>
<ellipse fill="black" stroke="black" cx="121" cy="-73.8" rx="1.8" ry="1.8"/>
</g>
<!-- c&#45;&gt;f -->
<g id="edge4" class="edge"><title>c&#45;&gt;f</title>
<path fill="none" stroke="black" d="M121,-111.471C121,-108.027 121,-95.7091 121,-86.2903"/>
<polygon fill="black" stroke="black" points="124.5,-86.1382 121,-76.1382 117.5,-86.1382 124.5,-86.1382"/>
</g>
<!-- out0 -->
<g id="node10" class="node"><title>out0</title>
<text text-anchor="middle" x="27" y="-15.5" font-family="Helvetica Neue, Helvetica, Arial, sans-serif" font-size="10.00">output 0</text>
</g>
<!-- d&#45;&gt;out0 -->
<g id="edge8" class="edge"><title>d&#45;&gt;out0</title>
<path fill="none" stroke="black" d="M76.1322,-71.8662C72.889,-68.3766 61.0914,-55.6823 49.8702,-43.6083"/>
<polygon fill="black" stroke="black" points="52.411,-41.2009 43.0395,-36.2585 47.2834,-45.9663 52.411,-41.2009"/>
</g>
<!-- out1 -->
<g id="node11" class="node"><title>out1</title>
<text text-anchor="middle" x="99" y="-15.5" font-family="Helvetica Neue, Helvetica, Arial, sans-serif" font-size="10.00">output 1</text>
</g>
<!-- e&#45;&gt;out1 -->
<g id="edge9" class="edge"><title>e&#45;&gt;out1</title>
<path fill="none" stroke="black" d="M99,-71.8662C99,-68.6399 99,-57.546 99,-46.3484"/>
<polygon fill="black" stroke="black" points="102.5,-46.2585 99,-36.2585 95.5001,-46.2586 102.5,-46.2585"/>
</g>
<!-- out2 -->
<g id="node12" class="node"><title>out2</title>
<text text-anchor="middle" x="171" y="-15.5" font-family="Helvetica Neue, Helvetica, Arial, sans-serif" font-size="10.00">output 2</text>
</g>
<!-- f&#45;&gt;out2 -->
<g id="edge10" class="edge"><title>f&#45;&gt;out2</title>
<path fill="none" stroke="black" d="M121.868,-71.8662C125.111,-68.3766 136.909,-55.6823 148.13,-43.6083"/>
<polygon fill="black" stroke="black" points="150.717,-45.9663 154.96,-36.2585 145.589,-41.2009 150.717,-45.9663"/>
</g>
</g>
</svg>
