<?xml version="1.0" encoding="UTF-8" standalone="no"?>
<!DOCTYPE svg PUBLIC "-//W3C//DTD SVG 1.1//EN"
 "http://www.w3.org/Graphics/SVG/1.1/DTD/svg11.dtd">
<!-- Generated by graphviz version 2.38.0 (20140413.2041)
 -->
<!-- Title: AstropyCoordinateTransformGraph Pages: 1 -->
<svg width="919pt" height="408pt"
 viewBox="0.00 0.00 919.27 408.13" xmlns="http://www.w3.org/2000/svg" xmlns:xlink="http://www.w3.org/1999/xlink">
<g id="graph0" class="graph" transform="scale(1 1) rotate(0) translate(4 404.132)">
<title>AstropyCoordinateTransformGraph</title>
<polygon fill="white" stroke="none" points="-4,4 -4,-404.132 915.267,-404.132 915.267,4 -4,4"/>
<!-- FK5 -->
<g id="node1" class="node"><title>FK5</title>
<ellipse fill="none" stroke="black" cx="677.267" cy="-378.919" rx="27" ry="21.4286"/>
<text text-anchor="middle" x="677.267" y="-381.919" font-family="Helvetica Neue, Helvetica, Arial, sans-serif" font-size="10.00">FK5</text>
<text text-anchor="middle" x="677.267" y="-370.919" font-family="Helvetica Neue, Helvetica, Arial, sans-serif" font-size="10.00">`fk5`</text>
</g>
<!-- FK5&#45;&gt;FK5 -->
<g id="edge2" class="edge"><title>FK5&#45;&gt;FK5</title>
<path fill="none" stroke="black" d="M702.256,-387.07C713.037,-387.737 722.267,-385.02 722.267,-378.919 722.267,-374.915 718.292,-372.368 712.512,-371.279"/>
<polygon fill="black" stroke="black" points="712.418,-367.77 702.256,-370.768 712.069,-374.761 712.418,-367.77"/>
<text text-anchor="middle" x="729.267" y="-376.419" font-family="Helvetica Neue, Helvetica, Arial, sans-serif" font-size="10.00">1.0</text>
</g>
<!-- ICRS -->
<g id="node2" class="node"><title>ICRS</title>
<ellipse fill="none" stroke="black" cx="480.267" cy="-289.492" rx="28.0702" ry="21.4286"/>
<text text-anchor="middle" x="480.267" y="-292.492" font-family="Helvetica Neue, Helvetica, Arial, sans-serif" font-size="10.00">ICRS</text>
<text text-anchor="middle" x="480.267" y="-281.492" font-family="Helvetica Neue, Helvetica, Arial, sans-serif" font-size="10.00">`icrs`</text>
</g>
<!-- FK5&#45;&gt;ICRS -->
<g id="edge1" class="edge"><title>FK5&#45;&gt;ICRS</title>
<path fill="none" stroke="black" d="M650.704,-375.082C620.226,-370.925 569.531,-361.198 531.267,-339.706 520.315,-333.554 509.987,-324.481 501.527,-315.797"/>
<polygon fill="black" stroke="black" points="503.976,-313.291 494.605,-308.347 498.848,-318.056 503.976,-313.291"/>
<text text-anchor="middle" x="538.267" y="-331.706" font-family="Helvetica Neue, Helvetica, Arial, sans-serif" font-size="10.00">1.0</text>
</g>
<!-- FK4NoETerms -->
<g id="node3" class="node"><title>FK4NoETerms</title>
<ellipse fill="none" stroke="black" cx="793.267" cy="-289.492" rx="58.8803" ry="21.4286"/>
<text text-anchor="middle" x="793.267" y="-292.492" font-family="Helvetica Neue, Helvetica, Arial, sans-serif" font-size="10.00">FK4NoETerms</text>
<text text-anchor="middle" x="793.267" y="-281.492" font-family="Helvetica Neue, Helvetica, Arial, sans-serif" font-size="10.00">`fk4noeterms`</text>
</g>
<!-- FK5&#45;&gt;FK4NoETerms -->
<g id="edge3" class="edge"><title>FK5&#45;&gt;FK4NoETerms</title>
<path fill="none" stroke="black" d="M696.163,-363.678C713.542,-350.58 739.688,-330.874 760.473,-315.208"/>
<polygon fill="black" stroke="black" points="762.842,-317.805 768.722,-308.992 758.629,-312.215 762.842,-317.805"/>
<text text-anchor="middle" x="749.267" y="-331.706" font-family="Helvetica Neue, Helvetica, Arial, sans-serif" font-size="10.00">1.0</text>
</g>
<!-- Galactic -->
<g id="node4" class="node"><title>Galactic</title>
<ellipse fill="none" stroke="black" cx="762.267" cy="-200.066" rx="40.1111" ry="21.4286"/>
<text text-anchor="middle" x="762.267" y="-203.066" font-family="Helvetica Neue, Helvetica, Arial, sans-serif" font-size="10.00">Galactic</text>
<text text-anchor="middle" x="762.267" y="-192.066" font-family="Helvetica Neue, Helvetica, Arial, sans-serif" font-size="10.00">`galactic`</text>
</g>
<!-- FK5&#45;&gt;Galactic -->
<g id="edge4" class="edge"><title>FK5&#45;&gt;Galactic</title>
<path fill="none" stroke="black" d="M681.31,-357.703C686.335,-335.066 696.14,-297.7 711.267,-268.279 718.722,-253.779 729.337,-239.181 738.953,-227.311"/>
<polygon fill="black" stroke="black" points="741.693,-229.49 745.4,-219.565 736.313,-225.012 741.693,-229.49"/>
<text text-anchor="middle" x="718.267" y="-286.992" font-family="Helvetica Neue, Helvetica, Arial, sans-serif" font-size="10.00">1.0</text>
</g>
<!-- ICRS&#45;&gt;FK5 -->
<g id="edge17" class="edge"><title>ICRS&#45;&gt;FK5</title>
<path fill="none" stroke="black" d="M504.023,-301.035C539.194,-316.644 605.216,-345.943 644.819,-363.519"/>
<polygon fill="black" stroke="black" points="643.723,-366.861 654.283,-367.719 646.562,-360.463 643.723,-366.861"/>
<text text-anchor="middle" x="598.267" y="-331.706" font-family="Helvetica Neue, Helvetica, Arial, sans-serif" font-size="10.00">1.0</text>
</g>
<!-- Galactocentric -->
<g id="node7" class="node"><title>Galactocentric</title>
<ellipse fill="none" stroke="black" cx="644.267" cy="-200.066" rx="60.2083" ry="21.4286"/>
<text text-anchor="middle" x="644.267" y="-203.066" font-family="Helvetica Neue, Helvetica, Arial, sans-serif" font-size="10.00">Galactocentric</text>
<text text-anchor="middle" x="644.267" y="-192.066" font-family="Helvetica Neue, Helvetica, Arial, sans-serif" font-size="10.00">`galactocentric`</text>
</g>
<!-- ICRS&#45;&gt;Galactocentric -->
<g id="edge19" class="edge"><title>ICRS&#45;&gt;Galactocentric</title>
<path fill="none" stroke="black" d="M504.548,-278.401C521.534,-271.111 544.609,-260.745 564.267,-250.279 572.847,-245.711 590.786,-234.725 607.505,-224.289"/>
<polygon fill="black" stroke="black" points="609.464,-227.192 616.082,-218.918 605.749,-221.259 609.464,-227.192"/>
<text text-anchor="middle" x="591.267" y="-242.279" font-family="Helvetica Neue, Helvetica, Arial, sans-serif" font-size="10.00">1.0</text>
</g>
<!-- HeliocentricTrueEcliptic -->
<g id="node9" class="node"><title>HeliocentricTrueEcliptic</title>
<ellipse fill="none" stroke="black" cx="86.267" cy="-200.066" rx="86.0347" ry="21.4286"/>
<text text-anchor="middle" x="86.267" y="-203.066" font-family="Helvetica Neue, Helvetica, Arial, sans-serif" font-size="10.00">HeliocentricTrueEcliptic</text>
<text text-anchor="middle" x="86.267" y="-192.066" font-family="Helvetica Neue, Helvetica, Arial, sans-serif" font-size="10.00">`heliocentrictrueecliptic`</text>
</g>
<!-- ICRS&#45;&gt;HeliocentricTrueEcliptic -->
<g id="edge21" class="edge"><title>ICRS&#45;&gt;HeliocentricTrueEcliptic</title>
<path fill="none" stroke="black" d="M452.16,-285.333C407.367,-279.996 317.199,-268.013 242.267,-250.279 208.996,-242.405 172.518,-231.053 143.206,-221.236"/>
<polygon fill="black" stroke="black" points="144.15,-217.86 133.556,-217.972 141.908,-224.491 144.15,-217.86"/>
<text text-anchor="middle" x="249.267" y="-242.279" font-family="Helvetica Neue, Helvetica, Arial, sans-serif" font-size="10.00">1.0</text>
</g>
<!-- BarycentricTrueEcliptic -->
<g id="node10" class="node"><title>BarycentricTrueEcliptic</title>
<ellipse fill="none" stroke="black" cx="275.267" cy="-200.066" rx="84.7059" ry="21.4286"/>
<text text-anchor="middle" x="275.267" y="-203.066" font-family="Helvetica Neue, Helvetica, Arial, sans-serif" font-size="10.00">BarycentricTrueEcliptic</text>
<text text-anchor="middle" x="275.267" y="-192.066" font-family="Helvetica Neue, Helvetica, Arial, sans-serif" font-size="10.00">`barycentrictrueecliptic`</text>
</g>
<!-- ICRS&#45;&gt;BarycentricTrueEcliptic -->
<g id="edge22" class="edge"><title>ICRS&#45;&gt;BarycentricTrueEcliptic</title>
<path fill="none" stroke="black" d="M453.089,-283.224C425.762,-277.335 382.844,-266.451 348.267,-250.279 334.452,-243.818 320.316,-234.917 308.208,-226.46"/>
<polygon fill="black" stroke="black" points="309.951,-223.402 299.784,-220.421 305.873,-229.092 309.951,-223.402"/>
<text text-anchor="middle" x="355.267" y="-242.279" font-family="Helvetica Neue, Helvetica, Arial, sans-serif" font-size="10.00">1.0</text>
</g>
<!-- GCRS -->
<g id="node11" class="node"><title>GCRS</title>
<ellipse fill="none" stroke="black" cx="503.267" cy="-110.64" rx="31.6406" ry="21.4286"/>
<text text-anchor="middle" x="503.267" y="-113.64" font-family="Helvetica Neue, Helvetica, Arial, sans-serif" font-size="10.00">GCRS</text>
<text text-anchor="middle" x="503.267" y="-102.64" font-family="Helvetica Neue, Helvetica, Arial, sans-serif" font-size="10.00">`gcrs`</text>
</g>
<!-- ICRS&#45;&gt;GCRS -->
<g id="edge18" class="edge"><title>ICRS&#45;&gt;GCRS</title>
<path fill="none" stroke="black" d="M482.905,-268.205C486.933,-237.238 494.639,-177.983 499.33,-141.916"/>
<polygon fill="black" stroke="black" points="502.805,-142.33 500.624,-131.962 495.864,-141.427 502.805,-142.33"/>
<text text-anchor="middle" x="502.267" y="-197.566" font-family="Helvetica Neue, Helvetica, Arial, sans-serif" font-size="10.00">1.0</text>
</g>
<!-- CIRS -->
<g id="node12" class="node"><title>CIRS</title>
<ellipse fill="none" stroke="black" cx="406.267" cy="-200.066" rx="28.0702" ry="21.4286"/>
<text text-anchor="middle" x="406.267" y="-203.066" font-family="Helvetica Neue, Helvetica, Arial, sans-serif" font-size="10.00">CIRS</text>
<text text-anchor="middle" x="406.267" y="-192.066" font-family="Helvetica Neue, Helvetica, Arial, sans-serif" font-size="10.00">`cirs`</text>
</g>
<!-- ICRS&#45;&gt;CIRS -->
<g id="edge20" class="edge"><title>ICRS&#45;&gt;CIRS</title>
<path fill="none" stroke="black" d="M456.56,-277.66C444.776,-271.206 431.185,-261.979 422.267,-250.279 417.949,-244.614 414.771,-237.738 412.441,-230.944"/>
<polygon fill="black" stroke="black" points="415.759,-229.821 409.6,-221.2 409.039,-231.78 415.759,-229.821"/>
<text text-anchor="middle" x="429.267" y="-242.279" font-family="Helvetica Neue, Helvetica, Arial, sans-serif" font-size="10.00">1.0</text>
</g>
<!-- FK4NoETerms&#45;&gt;FK5 -->
<g id="edge5" class="edge"><title>FK4NoETerms&#45;&gt;FK5</title>
<path fill="none" stroke="black" d="M783.177,-310.624C777.501,-320.385 769.662,-331.699 760.267,-339.706 746.169,-351.72 727.664,-360.725 711.706,-366.966"/>
<polygon fill="black" stroke="black" points="710.325,-363.744 702.16,-370.496 712.753,-370.31 710.325,-363.744"/>
<text text-anchor="middle" x="779.267" y="-331.706" font-family="Helvetica Neue, Helvetica, Arial, sans-serif" font-size="10.00">1.0</text>
</g>
<!-- FK4NoETerms&#45;&gt;FK4NoETerms -->
<g id="edge6" class="edge"><title>FK4NoETerms&#45;&gt;FK4NoETerms</title>
<path fill="none" stroke="black" d="M847.722,-297.579C860.517,-296.915 869.957,-294.219 869.957,-289.492 869.957,-286.169 865.29,-283.85 858.071,-282.535"/>
<polygon fill="black" stroke="black" points="858.043,-279.011 847.722,-281.406 857.284,-285.969 858.043,-279.011"/>
<text text-anchor="middle" x="876.957" y="-286.992" font-family="Helvetica Neue, Helvetica, Arial, sans-serif" font-size="10.00">1.0</text>
</g>
<!-- FK4NoETerms&#45;&gt;Galactic -->
<g id="edge7" class="edge"><title>FK4NoETerms&#45;&gt;Galactic</title>
<path fill="none" stroke="black" d="M786.077,-268.215C782.125,-257.071 777.15,-243.04 772.771,-230.69"/>
<polygon fill="black" stroke="black" points="776.059,-229.489 769.418,-221.233 769.461,-231.828 776.059,-229.489"/>
<text text-anchor="middle" x="787.267" y="-242.279" font-family="Helvetica Neue, Helvetica, Arial, sans-serif" font-size="10.00">1.0</text>
</g>
<!-- FK4 -->
<g id="node5" class="node"><title>FK4</title>
<ellipse fill="none" stroke="black" cx="852.267" cy="-200.066" rx="27" ry="21.4286"/>
<text text-anchor="middle" x="852.267" y="-203.066" font-family="Helvetica Neue, Helvetica, Arial, sans-serif" font-size="10.00">FK4</text>
<text text-anchor="middle" x="852.267" y="-192.066" font-family="Helvetica Neue, Helvetica, Arial, sans-serif" font-size="10.00">`fk4`</text>
</g>
<!-- FK4NoETerms&#45;&gt;FK4 -->
<g id="edge8" class="edge"><title>FK4NoETerms&#45;&gt;FK4</title>
<path fill="none" stroke="black" d="M821.526,-270.433C828.545,-264.745 835.435,-257.924 840.267,-250.279 843.844,-244.62 846.355,-237.975 848.117,-231.431"/>
<polygon fill="black" stroke="black" points="851.596,-231.903 850.316,-221.386 844.758,-230.406 851.596,-231.903"/>
<text text-anchor="middle" x="853.267" y="-242.279" font-family="Helvetica Neue, Helvetica, Arial, sans-serif" font-size="10.00">1.0</text>
</g>
<!-- Galactic&#45;&gt;FK5 -->
<g id="edge9" class="edge"><title>Galactic&#45;&gt;FK5</title>
<path fill="none" stroke="black" d="M732.885,-215.032C712.877,-226.313 687.978,-244.263 676.267,-268.279 664.184,-293.057 666.092,-324.888 670.028,-347.863"/>
<polygon fill="black" stroke="black" points="666.603,-348.584 671.936,-357.739 673.476,-347.256 666.603,-348.584"/>
<text text-anchor="middle" x="683.267" y="-286.992" font-family="Helvetica Neue, Helvetica, Arial, sans-serif" font-size="10.00">1.0</text>
</g>
<!-- Galactic&#45;&gt;FK4NoETerms -->
<g id="edge10" class="edge"><title>Galactic&#45;&gt;FK4NoETerms</title>
<path fill="none" stroke="black" d="M756.672,-221.286C755.132,-230.416 754.726,-241.171 758.267,-250.279 759.807,-254.241 761.971,-258.042 764.476,-261.607"/>
<polygon fill="black" stroke="black" points="761.806,-263.872 770.807,-269.461 767.256,-259.479 761.806,-263.872"/>
<text text-anchor="middle" x="765.267" y="-242.279" font-family="Helvetica Neue, Helvetica, Arial, sans-serif" font-size="10.00">1.0</text>
</g>
<!-- Supergalactic -->
<g id="node6" class="node"><title>Supergalactic</title>
<ellipse fill="none" stroke="black" cx="761.267" cy="-110.64" rx="57.9655" ry="21.4286"/>
<text text-anchor="middle" x="761.267" y="-113.64" font-family="Helvetica Neue, Helvetica, Arial, sans-serif" font-size="10.00">Supergalactic</text>
<text text-anchor="middle" x="761.267" y="-102.64" font-family="Helvetica Neue, Helvetica, Arial, sans-serif" font-size="10.00">`supergalactic`</text>
</g>
<!-- Galactic&#45;&gt;Supergalactic -->
<g id="edge11" class="edge"><title>Galactic&#45;&gt;Supergalactic</title>
<path fill="none" stroke="black" d="M751.006,-179.431C748.243,-173.634 745.676,-167.151 744.267,-160.853 742.816,-154.369 743.6,-147.552 745.455,-141.127"/>
<polygon fill="black" stroke="black" points="748.847,-142.05 749.083,-131.458 742.293,-139.59 748.847,-142.05"/>
<text text-anchor="middle" x="751.267" y="-152.853" font-family="Helvetica Neue, Helvetica, Arial, sans-serif" font-size="10.00">1.0</text>
</g>
<!-- FK4&#45;&gt;FK4NoETerms -->
<g id="edge38" class="edge"><title>FK4&#45;&gt;FK4NoETerms</title>
<path fill="none" stroke="black" d="M838.026,-218.2C832.866,-224.664 827.118,-232.174 822.267,-239.279 817.885,-245.698 813.467,-252.8 809.447,-259.564"/>
<polygon fill="black" stroke="black" points="806.261,-258.081 804.253,-268.483 812.31,-261.604 806.261,-258.081"/>
<text text-anchor="middle" x="829.267" y="-242.279" font-family="Helvetica Neue, Helvetica, Arial, sans-serif" font-size="10.00">1.0</text>
</g>
<!-- FK4&#45;&gt;FK4 -->
<g id="edge39" class="edge"><title>FK4&#45;&gt;FK4</title>
<path fill="none" stroke="black" d="M877.256,-208.217C888.037,-208.885 897.267,-206.168 897.267,-200.066 897.267,-196.062 893.292,-193.515 887.512,-192.426"/>
<polygon fill="black" stroke="black" points="887.418,-188.917 877.256,-191.915 887.069,-195.909 887.418,-188.917"/>
<text text-anchor="middle" x="904.267" y="-197.566" font-family="Helvetica Neue, Helvetica, Arial, sans-serif" font-size="10.00">1.0</text>
</g>
<!-- Supergalactic&#45;&gt;Galactic -->
<g id="edge15" class="edge"><title>Supergalactic&#45;&gt;Galactic</title>
<path fill="none" stroke="black" d="M761.501,-132.11C761.626,-142.988 761.781,-156.574 761.919,-168.66"/>
<polygon fill="black" stroke="black" points="758.421,-168.83 762.035,-178.789 765.42,-168.749 758.421,-168.83"/>
<text text-anchor="middle" x="769.267" y="-152.853" font-family="Helvetica Neue, Helvetica, Arial, sans-serif" font-size="10.00">1.0</text>
</g>
<!-- Galactocentric&#45;&gt;ICRS -->
<g id="edge12" class="edge"><title>Galactocentric&#45;&gt;ICRS</title>
<path fill="none" stroke="black" d="M630.778,-221.173C623.16,-231.17 612.851,-242.702 601.267,-250.279 575.99,-266.814 543.08,-276.599 517.964,-282.121"/>
<polygon fill="black" stroke="black" points="517.151,-278.715 508.067,-284.167 518.569,-285.57 517.151,-278.715"/>
<text text-anchor="middle" x="622.267" y="-242.279" font-family="Helvetica Neue, Helvetica, Arial, sans-serif" font-size="10.00">1.0</text>
</g>
<!-- HCRS -->
<g id="node8" class="node"><title>HCRS</title>
<ellipse fill="none" stroke="black" cx="303.267" cy="-21.2132" rx="31.6406" ry="21.4286"/>
<text text-anchor="middle" x="303.267" y="-24.2132" font-family="Helvetica Neue, Helvetica, Arial, sans-serif" font-size="10.00">HCRS</text>
<text text-anchor="middle" x="303.267" y="-13.2132" font-family="Helvetica Neue, Helvetica, Arial, sans-serif" font-size="10.00">`hcrs`</text>
</g>
<!-- HCRS&#45;&gt;HCRS -->
<g id="edge13" class="edge"><title>HCRS&#45;&gt;HCRS</title>
<path fill="none" stroke="black" d="M332.932,-29.4451C343.987,-29.715 353.087,-26.971 353.087,-21.2132 353.087,-17.3447 348.979,-14.8366 342.93,-13.6891"/>
<polygon fill="black" stroke="black" points="343.154,-10.1963 332.932,-12.9813 342.66,-17.1788 343.154,-10.1963"/>
<text text-anchor="middle" x="360.087" y="-18.7132" font-family="Helvetica Neue, Helvetica, Arial, sans-serif" font-size="10.00">1.0</text>
</g>
<!-- HeliocentricTrueEcliptic&#45;&gt;ICRS -->
<g id="edge14" class="edge"><title>HeliocentricTrueEcliptic&#45;&gt;ICRS</title>
<path fill="none" stroke="black" d="M148.389,-214.851C231.351,-233.259 375.696,-265.289 443.322,-280.295"/>
<polygon fill="black" stroke="black" points="442.975,-283.803 453.496,-282.552 444.491,-276.969 442.975,-283.803"/>
<text text-anchor="middle" x="314.267" y="-242.279" font-family="Helvetica Neue, Helvetica, Arial, sans-serif" font-size="10.00">1.0</text>
</g>
<!-- BarycentricTrueEcliptic&#45;&gt;ICRS -->
<g id="edge16" class="edge"><title>BarycentricTrueEcliptic&#45;&gt;ICRS</title>
<path fill="none" stroke="black" d="M316.559,-218.676C354.765,-234.97 410.874,-258.898 446.479,-274.083"/>
<polygon fill="black" stroke="black" points="445.374,-277.417 455.946,-278.12 448.12,-270.978 445.374,-277.417"/>
<text text-anchor="middle" x="397.267" y="-242.279" font-family="Helvetica Neue, Helvetica, Arial, sans-serif" font-size="10.00">1.0</text>
</g>
<!-- GCRS&#45;&gt;ICRS -->
<g id="edge23" class="edge"><title>GCRS&#45;&gt;ICRS</title>
<path fill="none" stroke="black" d="M508.66,-131.661C513.802,-153.807 519.863,-190.439 513.267,-221.279 510.285,-235.222 503.801,-249.555 497.363,-261.384"/>
<polygon fill="black" stroke="black" points="494.202,-259.861 492.277,-270.28 500.279,-263.335 494.202,-259.861"/>
<text text-anchor="middle" x="523.267" y="-197.566" font-family="Helvetica Neue, Helvetica, Arial, sans-serif" font-size="10.00">1.0</text>
</g>
<!-- GCRS&#45;&gt;HCRS -->
<g id="edge24" class="edge"><title>GCRS&#45;&gt;HCRS</title>
<path fill="none" stroke="black" d="M478.861,-96.9652C473.742,-94.4029 468.353,-91.776 463.267,-89.4264 421.377,-70.0726 372.342,-49.8191 339.705,-36.6696"/>
<polygon fill="black" stroke="black" points="340.713,-33.3028 330.129,-32.8257 338.105,-39.799 340.713,-33.3028"/>
<text text-anchor="middle" x="427.267" y="-63.4264" font-family="Helvetica Neue, Helvetica, Arial, sans-serif" font-size="10.00">1.0</text>
</g>
<!-- GCRS&#45;&gt;GCRS -->
<g id="edge25" class="edge"><title>GCRS&#45;&gt;GCRS</title>
<path fill="none" stroke="black" d="M532.932,-118.871C543.987,-119.141 553.087,-116.397 553.087,-110.64 553.087,-106.771 548.979,-104.263 542.93,-103.116"/>
<polygon fill="black" stroke="black" points="543.154,-99.6227 532.932,-102.408 542.66,-106.605 543.154,-99.6227"/>
<text text-anchor="middle" x="560.087" y="-108.14" font-family="Helvetica Neue, Helvetica, Arial, sans-serif" font-size="10.00">1.0</text>
</g>
<!-- GCRS&#45;&gt;CIRS -->
<g id="edge27" class="edge"><title>GCRS&#45;&gt;CIRS</title>
<path fill="none" stroke="black" d="M485.679,-128.734C475.707,-138.312 462.928,-150.398 451.267,-160.853 445.391,-166.121 438.979,-171.678 432.884,-176.872"/>
<polygon fill="black" stroke="black" points="430.224,-174.538 424.851,-183.67 434.746,-179.882 430.224,-174.538"/>
<text text-anchor="middle" x="470.267" y="-152.853" font-family="Helvetica Neue, Helvetica, Arial, sans-serif" font-size="10.00">1.0</text>
</g>
<!-- PrecessedGeocentric -->
<g id="node13" class="node"><title>PrecessedGeocentric</title>
<ellipse fill="none" stroke="black" cx="466.267" cy="-21.2132" rx="81.135" ry="21.4286"/>
<text text-anchor="middle" x="466.267" y="-24.2132" font-family="Helvetica Neue, Helvetica, Arial, sans-serif" font-size="10.00">PrecessedGeocentric</text>
<text text-anchor="middle" x="466.267" y="-13.2132" font-family="Helvetica Neue, Helvetica, Arial, sans-serif" font-size="10.00">`precessedgeocentric`</text>
</g>
<!-- GCRS&#45;&gt;PrecessedGeocentric -->
<g id="edge26" class="edge"><title>GCRS&#45;&gt;PrecessedGeocentric</title>
<path fill="none" stroke="black" d="M494.871,-89.8012C490.16,-78.6704 484.189,-64.5605 478.922,-52.1151"/>
<polygon fill="black" stroke="black" points="482.007,-50.4249 474.886,-42.5798 475.561,-53.1532 482.007,-50.4249"/>
<text text-anchor="middle" x="494.267" y="-63.4264" font-family="Helvetica Neue, Helvetica, Arial, sans-serif" font-size="10.00">1.0</text>
</g>
<!-- GeocentricTrueEcliptic -->
<g id="node14" class="node"><title>GeocentricTrueEcliptic</title>
<ellipse fill="none" stroke="black" cx="648.267" cy="-21.2132" rx="82.9636" ry="21.4286"/>
<text text-anchor="middle" x="648.267" y="-24.2132" font-family="Helvetica Neue, Helvetica, Arial, sans-serif" font-size="10.00">GeocentricTrueEcliptic</text>
<text text-anchor="middle" x="648.267" y="-13.2132" font-family="Helvetica Neue, Helvetica, Arial, sans-serif" font-size="10.00">`geocentrictrueecliptic`</text>
</g>
<!-- GCRS&#45;&gt;GeocentricTrueEcliptic -->
<g id="edge28" class="edge"><title>GCRS&#45;&gt;GeocentricTrueEcliptic</title>
<path fill="none" stroke="black" d="M531.207,-100.479C549.595,-93.8126 573.778,-83.8012 593.267,-71.4264 603.205,-65.1163 613.094,-56.9967 621.689,-49.1793"/>
<polygon fill="black" stroke="black" points="624.286,-51.5412 629.182,-42.1455 619.496,-46.4373 624.286,-51.5412"/>
<text text-anchor="middle" x="615.267" y="-63.4264" font-family="Helvetica Neue, Helvetica, Arial, sans-serif" font-size="10.00">1.0</text>
</g>
<!-- CIRS&#45;&gt;ICRS -->
<g id="edge30" class="edge"><title>CIRS&#45;&gt;ICRS</title>
<path fill="none" stroke="black" d="M420.857,-218.303C431.795,-231.226 446.926,-249.102 459.18,-263.579"/>
<polygon fill="black" stroke="black" points="456.515,-265.848 465.647,-271.22 461.858,-261.326 456.515,-265.848"/>
<text text-anchor="middle" x="455.267" y="-242.279" font-family="Helvetica Neue, Helvetica, Arial, sans-serif" font-size="10.00">1.0</text>
</g>
<!-- CIRS&#45;&gt;GCRS -->
<g id="edge32" class="edge"><title>CIRS&#45;&gt;GCRS</title>
<path fill="none" stroke="black" d="M414.022,-179.15C418.539,-169.443 424.989,-158.113 433.267,-149.853 436.347,-146.779 453.284,-137.508 469.725,-128.869"/>
<polygon fill="black" stroke="black" points="471.47,-131.906 478.716,-124.177 468.232,-125.7 471.47,-131.906"/>
<text text-anchor="middle" x="441.267" y="-152.853" font-family="Helvetica Neue, Helvetica, Arial, sans-serif" font-size="10.00">1.0</text>
</g>
<!-- CIRS&#45;&gt;CIRS -->
<g id="edge33" class="edge"><title>CIRS&#45;&gt;CIRS</title>
<path fill="none" stroke="black" d="M432.437,-208.244C443.323,-208.807 452.551,-206.082 452.551,-200.066 452.551,-196.118 448.577,-193.587 442.768,-192.473"/>
<polygon fill="black" stroke="black" points="442.618,-188.959 432.437,-191.889 442.223,-195.948 442.618,-188.959"/>
<text text-anchor="middle" x="459.551" y="-197.566" font-family="Helvetica Neue, Helvetica, Arial, sans-serif" font-size="10.00">1.0</text>
</g>
<!-- AltAz -->
<g id="node15" class="node"><title>AltAz</title>
<ellipse fill="none" stroke="black" cx="285.267" cy="-110.64" rx="31.2258" ry="21.4286"/>
<text text-anchor="middle" x="285.267" y="-113.64" font-family="Helvetica Neue, Helvetica, Arial, sans-serif" font-size="10.00">AltAz</text>
<text text-anchor="middle" x="285.267" y="-102.64" font-family="Helvetica Neue, Helvetica, Arial, sans-serif" font-size="10.00">`altaz`</text>
</g>
<!-- CIRS&#45;&gt;AltAz -->
<g id="edge31" class="edge"><title>CIRS&#45;&gt;AltAz</title>
<path fill="none" stroke="black" d="M384.838,-186.041C379.851,-183.385 374.475,-180.809 369.267,-178.853 334.744,-165.885 312.208,-188.904 288.267,-160.853 283.891,-155.725 281.923,-149.096 281.297,-142.373"/>
<polygon fill="black" stroke="black" points="284.795,-141.923 281.262,-131.935 277.795,-141.947 284.795,-141.923"/>
<text text-anchor="middle" x="295.267" y="-152.853" font-family="Helvetica Neue, Helvetica, Arial, sans-serif" font-size="10.00">1.0</text>
</g>
<!-- ITRS -->
<g id="node16" class="node"><title>ITRS</title>
<ellipse fill="none" stroke="black" cx="394.267" cy="-110.64" rx="27.6545" ry="21.4286"/>
<text text-anchor="middle" x="394.267" y="-113.64" font-family="Helvetica Neue, Helvetica, Arial, sans-serif" font-size="10.00">ITRS</text>
<text text-anchor="middle" x="394.267" y="-102.64" font-family="Helvetica Neue, Helvetica, Arial, sans-serif" font-size="10.00">`itrs`</text>
</g>
<!-- CIRS&#45;&gt;ITRS -->
<g id="edge34" class="edge"><title>CIRS&#45;&gt;ITRS</title>
<path fill="none" stroke="black" d="M384.654,-185.734C376.34,-179.339 367.768,-170.874 363.267,-160.853 359.171,-151.734 362.879,-142.308 368.968,-134.176"/>
<polygon fill="black" stroke="black" points="371.702,-136.367 375.65,-126.535 366.432,-131.759 371.702,-136.367"/>
<text text-anchor="middle" x="370.267" y="-152.853" font-family="Helvetica Neue, Helvetica, Arial, sans-serif" font-size="10.00">1.0</text>
</g>
<!-- PrecessedGeocentric&#45;&gt;GCRS -->
<g id="edge29" class="edge"><title>PrecessedGeocentric&#45;&gt;GCRS</title>
<path fill="none" stroke="black" d="M462.256,-42.5281C461.343,-51.6765 461.551,-62.4207 465.267,-71.4264 467.599,-77.0779 471.216,-82.334 475.31,-87.0284"/>
<polygon fill="black" stroke="black" points="473.008,-89.6797 482.509,-94.3688 478.006,-84.7785 473.008,-89.6797"/>
<text text-anchor="middle" x="472.267" y="-63.4264" font-family="Helvetica Neue, Helvetica, Arial, sans-serif" font-size="10.00">1.0</text>
</g>
<!-- GeocentricTrueEcliptic&#45;&gt;GCRS -->
<g id="edge35" class="edge"><title>GeocentricTrueEcliptic&#45;&gt;GCRS</title>
<path fill="none" stroke="black" d="M611.414,-40.4354C599.698,-46.5111 586.794,-53.5025 575.267,-60.4264 560.925,-69.0414 545.549,-79.3883 532.705,-88.3669"/>
<polygon fill="black" stroke="black" points="530.413,-85.7006 524.261,-94.3262 534.449,-91.4198 530.413,-85.7006"/>
<text text-anchor="middle" x="582.267" y="-63.4264" font-family="Helvetica Neue, Helvetica, Arial, sans-serif" font-size="10.00">1.0</text>
</g>
<!-- AltAz&#45;&gt;CIRS -->
<g id="edge37" class="edge"><title>AltAz&#45;&gt;CIRS</title>
<path fill="none" stroke="black" d="M303.586,-128.081C314.967,-137.999 330.084,-150.646 344.267,-160.853 354.189,-167.993 365.46,-175.19 375.645,-181.383"/>
<polygon fill="black" stroke="black" points="373.878,-184.404 384.255,-186.54 377.475,-178.399 373.878,-184.404"/>
<text text-anchor="middle" x="351.267" y="-152.853" font-family="Helvetica Neue, Helvetica, Arial, sans-serif" font-size="10.00">1.0</text>
</g>
<!-- AltAz&#45;&gt;AltAz -->
<g id="edge36" class="edge"><title>AltAz&#45;&gt;AltAz</title>
<path fill="none" stroke="black" d="M314.022,-118.857C325.139,-119.223 334.38,-116.483 334.38,-110.64 334.38,-106.713 330.208,-104.188 324.099,-103.065"/>
<polygon fill="black" stroke="black" points="324.224,-99.566 314.022,-102.422 323.778,-106.552 324.224,-99.566"/>
<text text-anchor="middle" x="341.38" y="-108.14" font-family="Helvetica Neue, Helvetica, Arial, sans-serif" font-size="10.00">1.0</text>
</g>
<!-- ITRS&#45;&gt;CIRS -->
<g id="edge40" class="edge"><title>ITRS&#45;&gt;CIRS</title>
<path fill="none" stroke="black" d="M396.62,-132.252C397.668,-141.071 398.96,-151.476 400.267,-160.853 400.624,-163.414 401.009,-166.068 401.406,-168.731"/>
<polygon fill="black" stroke="black" points="397.984,-169.504 402.961,-178.857 404.903,-168.442 397.984,-169.504"/>
<text text-anchor="middle" x="407.267" y="-152.853" font-family="Helvetica Neue, Helvetica, Arial, sans-serif" font-size="10.00">1.0</text>
</g>
<!-- ITRS&#45;&gt;ITRS -->
<g id="edge41" class="edge"><title>ITRS&#45;&gt;ITRS</title>
<path fill="none" stroke="black" d="M420.037,-118.817C430.757,-119.381 439.844,-116.655 439.844,-110.64 439.844,-106.692 435.931,-104.161 430.21,-103.047"/>
<polygon fill="black" stroke="black" points="430.221,-99.5417 420.037,-102.462 429.82,-106.53 430.221,-99.5417"/>
<text text-anchor="middle" x="446.844" y="-108.14" font-family="Helvetica Neue, Helvetica, Arial, sans-serif" font-size="10.00">1.0</text>
</g>
</g>
</svg>
