<?xml version="1.0" encoding="UTF-8" standalone="no"?>
<!DOCTYPE svg PUBLIC "-//W3C//DTD SVG 1.1//EN"
 "http://www.w3.org/Graphics/SVG/1.1/DTD/svg11.dtd">
<!-- Generated by graphviz version 2.38.0 (20140413.2041)
 -->
<!-- Title: G Pages: 1 -->
<svg width="364pt" height="339pt"
 viewBox="0.00 0.00 364.00 339.20" xmlns="http://www.w3.org/2000/svg" xmlns:xlink="http://www.w3.org/1999/xlink">
<g id="graph0" class="graph" transform="scale(1 1) rotate(0) translate(4 335.2)">
<title>G</title>
<polygon fill="white" stroke="none" points="-4,4 -4,-335.2 360,-335.2 360,4 -4,4"/>
<g id="clust3" class="cluster"><title>cluster_A</title>
<polygon fill="none" stroke="black" points="133,-136 133,-214.2 197,-214.2 197,-136 133,-136"/>
<text text-anchor="middle" x="165" y="-202.2" font-family="Helvetica Neue, Helvetica, Arial, sans-serif" font-size="10.00">(0, 2, 1)</text>
</g>
<!-- in0 -->
<g id="node1" class="node"><title>in0</title>
<text text-anchor="middle" x="58" y="-310.7" font-family="Helvetica Neue, Helvetica, Arial, sans-serif" font-size="10.00">input 0</text>
</g>
<!-- poly0 -->
<g id="node4" class="node"><title>poly0</title>
<polygon fill="none" stroke="black" points="116,-259.2 0,-259.2 0,-223.2 116,-223.2 116,-259.2"/>
<text text-anchor="middle" x="58" y="-238.7" font-family="Helvetica Neue, Helvetica, Arial, sans-serif" font-size="10.00">Poly1D(3, c0=1, c3=1)</text>
</g>
<!-- in0&#45;&gt;poly0 -->
<g id="edge6" class="edge"><title>in0&#45;&gt;poly0</title>
<path fill="none" stroke="black" d="M58,-294.897C58,-287.183 58,-277.912 58,-269.312"/>
<polygon fill="black" stroke="black" points="61.5001,-269.304 58,-259.304 54.5001,-269.304 61.5001,-269.304"/>
</g>
<!-- in1 -->
<g id="node2" class="node"><title>in1</title>
<text text-anchor="middle" x="165" y="-310.7" font-family="Helvetica Neue, Helvetica, Arial, sans-serif" font-size="10.00">input 1</text>
</g>
<!-- identity0 -->
<g id="node5" class="node"><title>identity0</title>
<polygon fill="none" stroke="black" points="195.5,-259.2 134.5,-259.2 134.5,-223.2 195.5,-223.2 195.5,-259.2"/>
<text text-anchor="middle" x="165" y="-238.7" font-family="Helvetica Neue, Helvetica, Arial, sans-serif" font-size="10.00">Identity(1)</text>
</g>
<!-- in1&#45;&gt;identity0 -->
<g id="edge7" class="edge"><title>in1&#45;&gt;identity0</title>
<path fill="none" stroke="black" d="M165,-294.897C165,-287.183 165,-277.912 165,-269.312"/>
<polygon fill="black" stroke="black" points="168.5,-269.304 165,-259.304 161.5,-269.304 168.5,-269.304"/>
</g>
<!-- in2 -->
<g id="node3" class="node"><title>in2</title>
<text text-anchor="middle" x="258" y="-310.7" font-family="Helvetica Neue, Helvetica, Arial, sans-serif" font-size="10.00">input 2</text>
</g>
<!-- poly1 -->
<g id="node6" class="node"><title>poly1</title>
<polygon fill="none" stroke="black" points="302,-259.2 214,-259.2 214,-223.2 302,-223.2 302,-259.2"/>
<text text-anchor="middle" x="258" y="-238.7" font-family="Helvetica Neue, Helvetica, Arial, sans-serif" font-size="10.00">Poly1D(2, c2=1)</text>
</g>
<!-- in2&#45;&gt;poly1 -->
<g id="edge8" class="edge"><title>in2&#45;&gt;poly1</title>
<path fill="none" stroke="black" d="M258,-294.897C258,-287.183 258,-277.912 258,-269.312"/>
<polygon fill="black" stroke="black" points="261.5,-269.304 258,-259.304 254.5,-269.304 261.5,-269.304"/>
</g>
<!-- a -->
<g id="node7" class="node"><title>a</title>
<ellipse fill="black" stroke="black" cx="143" cy="-185.4" rx="1.8" ry="1.8"/>
</g>
<!-- poly0&#45;&gt;a -->
<g id="edge9" class="edge"><title>poly0&#45;&gt;a</title>
<path fill="none" stroke="black" d="M84.8945,-223.177C101.237,-212.834 121.154,-200.227 132.916,-192.783"/>
<polygon fill="black" stroke="black" points="134.947,-195.639 141.525,-187.334 131.203,-189.725 134.947,-195.639"/>
</g>
<!-- b -->
<g id="node8" class="node"><title>b</title>
<ellipse fill="black" stroke="black" cx="165" cy="-185.4" rx="1.8" ry="1.8"/>
</g>
<!-- identity0&#45;&gt;b -->
<g id="edge10" class="edge"><title>identity0&#45;&gt;b</title>
<path fill="none" stroke="black" d="M165,-223.177C165,-214.773 165,-204.875 165,-197.466"/>
<polygon fill="black" stroke="black" points="168.5,-197.334 165,-187.334 161.5,-197.334 168.5,-197.334"/>
</g>
<!-- c -->
<g id="node9" class="node"><title>c</title>
<ellipse fill="black" stroke="black" cx="187" cy="-185.4" rx="1.8" ry="1.8"/>
</g>
<!-- poly1&#45;&gt;c -->
<g id="edge11" class="edge"><title>poly1&#45;&gt;c</title>
<path fill="none" stroke="black" d="M235.535,-223.177C222.311,-213.157 206.285,-201.013 196.364,-193.496"/>
<polygon fill="black" stroke="black" points="198.316,-190.584 188.232,-187.334 194.089,-196.163 198.316,-190.584"/>
</g>
<!-- d -->
<g id="node10" class="node"><title>d</title>
<ellipse fill="black" stroke="black" cx="143" cy="-145.8" rx="1.8" ry="1.8"/>
</g>
<!-- a&#45;&gt;d -->
<!-- a&#45;&gt;d -->
<g id="edge3" class="edge"><title>a&#45;&gt;d</title>
<path fill="none" stroke="black" d="M144.582,-183.978C149.395,-181.285 150.846,-166.305 148.936,-156.202"/>
<polygon fill="black" stroke="black" points="152.047,-154.597 144.489,-147.172 145.768,-157.69 152.047,-154.597"/>
</g>
<!-- f -->
<g id="node12" class="node"><title>f</title>
<ellipse fill="black" stroke="black" cx="187" cy="-145.8" rx="1.8" ry="1.8"/>
</g>
<!-- b&#45;&gt;f -->
<g id="edge5" class="edge"><title>b&#45;&gt;f</title>
<path fill="none" stroke="black" d="M165.544,-183.471C167.703,-179.781 175.822,-165.904 181.429,-156.321"/>
<polygon fill="black" stroke="black" points="184.521,-157.967 186.551,-147.568 178.48,-154.432 184.521,-157.967"/>
</g>
<!-- e -->
<g id="node11" class="node"><title>e</title>
<ellipse fill="black" stroke="black" cx="165" cy="-145.8" rx="1.8" ry="1.8"/>
</g>
<!-- c&#45;&gt;e -->
<g id="edge4" class="edge"><title>c&#45;&gt;e</title>
<path fill="none" stroke="black" d="M186.456,-183.471C184.297,-179.781 176.178,-165.904 170.571,-156.321"/>
<polygon fill="black" stroke="black" points="173.52,-154.432 165.449,-147.568 167.479,-157.967 173.52,-154.432"/>
</g>
<!-- d&#45;&gt;e -->
<!-- poly2 -->
<g id="node13" class="node"><title>poly2</title>
<polygon fill="none" stroke="black" points="231.5,-108 54.5,-108 54.5,-72 231.5,-72 231.5,-108"/>
<text text-anchor="middle" x="143" y="-87.5" font-family="Helvetica Neue, Helvetica, Arial, sans-serif" font-size="10.00">Poly2D(4, c0_0=1, c1_1=1, c2_2=2)</text>
</g>
<!-- d&#45;&gt;poly2 -->
<g id="edge12" class="edge"><title>d&#45;&gt;poly2</title>
<path fill="none" stroke="black" d="M143,-143.866C143,-140.64 143,-129.546 143,-118.348"/>
<polygon fill="black" stroke="black" points="146.5,-118.259 143,-108.259 139.5,-118.259 146.5,-118.259"/>
</g>
<!-- e&#45;&gt;poly2 -->
<g id="edge13" class="edge"><title>e&#45;&gt;poly2</title>
<path fill="none" stroke="black" d="M164.618,-143.866C163.272,-140.574 158.576,-129.09 153.903,-117.663"/>
<polygon fill="black" stroke="black" points="157.082,-116.19 150.057,-108.259 150.603,-118.839 157.082,-116.19"/>
</g>
<!-- gaussian0 -->
<g id="node14" class="node"><title>gaussian0</title>
<polygon fill="none" stroke="black" points="356,-108 250,-108 250,-72 356,-72 356,-108"/>
<text text-anchor="middle" x="303" y="-87.5" font-family="Helvetica Neue, Helvetica, Arial, sans-serif" font-size="10.00">Gaussian1D(1, 0, 4)</text>
</g>
<!-- f&#45;&gt;gaussian0 -->
<g id="edge14" class="edge"><title>f&#45;&gt;gaussian0</title>
<path fill="none" stroke="black" d="M188.303,-144.196C195.198,-140.998 228.208,-125.688 257.056,-112.309"/>
<polygon fill="black" stroke="black" points="258.638,-115.433 266.237,-108.05 255.693,-109.083 258.638,-115.433"/>
</g>
<!-- out0 -->
<g id="node15" class="node"><title>out0</title>
<text text-anchor="middle" x="107" y="-15.5" font-family="Helvetica Neue, Helvetica, Arial, sans-serif" font-size="10.00">output 0</text>
</g>
<!-- poly2&#45;&gt;out0 -->
<g id="edge15" class="edge"><title>poly2&#45;&gt;out0</title>
<path fill="none" stroke="black" d="M134.101,-71.6966C130.003,-63.7284 125.051,-54.0995 120.507,-45.2641"/>
<polygon fill="black" stroke="black" points="123.483,-43.3965 115.797,-36.1043 117.258,-46.598 123.483,-43.3965"/>
</g>
<!-- out1 -->
<g id="node16" class="node"><title>out1</title>
<text text-anchor="middle" x="179" y="-15.5" font-family="Helvetica Neue, Helvetica, Arial, sans-serif" font-size="10.00">output 1</text>
</g>
<!-- poly2&#45;&gt;out1 -->
<g id="edge16" class="edge"><title>poly2&#45;&gt;out1</title>
<path fill="none" stroke="black" d="M151.899,-71.6966C155.997,-63.7284 160.949,-54.0995 165.493,-45.2641"/>
<polygon fill="black" stroke="black" points="168.742,-46.598 170.203,-36.1043 162.517,-43.3965 168.742,-46.598"/>
</g>
<!-- out2 -->
<g id="node17" class="node"><title>out2</title>
<text text-anchor="middle" x="303" y="-15.5" font-family="Helvetica Neue, Helvetica, Arial, sans-serif" font-size="10.00">output 2</text>
</g>
<!-- gaussian0&#45;&gt;out2 -->
<g id="edge17" class="edge"><title>gaussian0&#45;&gt;out2</title>
<path fill="none" stroke="black" d="M303,-71.6966C303,-63.9827 303,-54.7125 303,-46.1124"/>
<polygon fill="black" stroke="black" points="306.5,-46.1043 303,-36.1043 299.5,-46.1044 306.5,-46.1043"/>
</g>
</g>
</svg>
