<?xml version="1.0" encoding="UTF-8" standalone="no"?>
<!DOCTYPE svg PUBLIC "-//W3C//DTD SVG 1.1//EN"
 "http://www.w3.org/Graphics/SVG/1.1/DTD/svg11.dtd">
<!-- Generated by graphviz version 2.38.0 (20140413.2041)
 -->
<!-- Title: G Pages: 1 -->
<svg width="278pt" height="195pt"
 viewBox="0.00 0.00 278.00 195.20" xmlns="http://www.w3.org/2000/svg" xmlns:xlink="http://www.w3.org/1999/xlink">
<g id="graph0" class="graph" transform="scale(1 1) rotate(0) translate(4 191.2)">
<title>G</title>
<polygon fill="white" stroke="none" points="-4,4 -4,-191.2 274,-191.2 274,4 -4,4"/>
<g id="clust2" class="cluster"><title>cluster_A</title>
<polygon fill="none" stroke="black" points="92,-64 92,-142.2 178,-142.2 178,-64 92,-64"/>
<text text-anchor="middle" x="135" y="-130.2" font-family="Helvetica Neue, Helvetica, Arial, sans-serif" font-size="10.00">(0, 1, 1, 2)</text>
</g>
<!-- in0 -->
<g id="node1" class="node"><title>in0</title>
<text text-anchor="middle" x="63" y="-166.7" font-family="Helvetica Neue, Helvetica, Arial, sans-serif" font-size="10.00">input 0</text>
</g>
<!-- a -->
<g id="node4" class="node"><title>a</title>
<ellipse fill="black" stroke="black" cx="102" cy="-113.4" rx="1.8" ry="1.8"/>
</g>
<!-- in0&#45;&gt;a -->
<g id="edge6" class="edge"><title>in0&#45;&gt;a</title>
<path fill="none" stroke="black" d="M75.3398,-151.177C81.9788,-142.019 89.9037,-131.087 95.3787,-123.534"/>
<polygon fill="black" stroke="black" points="98.2876,-125.485 101.323,-115.334 92.6201,-121.376 98.2876,-125.485"/>
</g>
<!-- in1 -->
<g id="node2" class="node"><title>in1</title>
<text text-anchor="middle" x="135" y="-166.7" font-family="Helvetica Neue, Helvetica, Arial, sans-serif" font-size="10.00">input 1</text>
</g>
<!-- b -->
<g id="node5" class="node"><title>b</title>
<ellipse fill="black" stroke="black" cx="135" cy="-113.4" rx="1.8" ry="1.8"/>
</g>
<!-- in1&#45;&gt;b -->
<g id="edge7" class="edge"><title>in1&#45;&gt;b</title>
<path fill="none" stroke="black" d="M135,-151.177C135,-142.773 135,-132.875 135,-125.466"/>
<polygon fill="black" stroke="black" points="138.5,-125.334 135,-115.334 131.5,-125.334 138.5,-125.334"/>
</g>
<!-- in2 -->
<g id="node3" class="node"><title>in2</title>
<text text-anchor="middle" x="207" y="-166.7" font-family="Helvetica Neue, Helvetica, Arial, sans-serif" font-size="10.00">input 2</text>
</g>
<!-- c -->
<g id="node6" class="node"><title>c</title>
<ellipse fill="black" stroke="black" cx="168" cy="-113.4" rx="1.8" ry="1.8"/>
</g>
<!-- in2&#45;&gt;c -->
<g id="edge8" class="edge"><title>in2&#45;&gt;c</title>
<path fill="none" stroke="black" d="M194.66,-151.177C188.021,-142.019 180.096,-131.087 174.621,-123.534"/>
<polygon fill="black" stroke="black" points="177.38,-121.376 168.677,-115.334 171.712,-125.485 177.38,-121.376"/>
</g>
<!-- d -->
<g id="node7" class="node"><title>d</title>
<ellipse fill="black" stroke="black" cx="102" cy="-73.8" rx="1.8" ry="1.8"/>
</g>
<!-- a&#45;&gt;d -->
<!-- a&#45;&gt;d -->
<g id="edge2" class="edge"><title>a&#45;&gt;d</title>
<path fill="none" stroke="black" d="M103.582,-111.978C108.395,-109.285 109.846,-94.3054 107.936,-84.2017"/>
<polygon fill="black" stroke="black" points="111.047,-82.5969 103.489,-75.1721 104.768,-85.6896 111.047,-82.5969"/>
</g>
<!-- e -->
<g id="node8" class="node"><title>e</title>
<ellipse fill="black" stroke="black" cx="124" cy="-73.8" rx="1.8" ry="1.8"/>
</g>
<!-- b&#45;&gt;e -->
<g id="edge3" class="edge"><title>b&#45;&gt;e</title>
<path fill="none" stroke="black" d="M134.728,-111.471C133.709,-107.987 130.034,-95.4247 127.267,-85.9667"/>
<polygon fill="black" stroke="black" points="130.559,-84.7531 124.391,-76.1382 123.84,-86.7187 130.559,-84.7531"/>
</g>
<!-- f -->
<g id="node9" class="node"><title>f</title>
<ellipse fill="black" stroke="black" cx="146" cy="-73.8" rx="1.8" ry="1.8"/>
</g>
<!-- b&#45;&gt;f -->
<g id="edge4" class="edge"><title>b&#45;&gt;f</title>
<path fill="none" stroke="black" d="M135.272,-111.471C136.291,-107.987 139.966,-95.4247 142.733,-85.9667"/>
<polygon fill="black" stroke="black" points="146.16,-86.7187 145.609,-76.1382 139.441,-84.7531 146.16,-86.7187"/>
</g>
<!-- g -->
<g id="node10" class="node"><title>g</title>
<ellipse fill="black" stroke="black" cx="168" cy="-73.8" rx="1.8" ry="1.8"/>
</g>
<!-- c&#45;&gt;g -->
<g id="edge5" class="edge"><title>c&#45;&gt;g</title>
<path fill="none" stroke="black" d="M168,-111.471C168,-108.027 168,-95.7091 168,-86.2903"/>
<polygon fill="black" stroke="black" points="171.5,-86.1382 168,-76.1382 164.5,-86.1382 171.5,-86.1382"/>
</g>
<!-- out0 -->
<g id="node11" class="node"><title>out0</title>
<text text-anchor="middle" x="27" y="-15.5" font-family="Helvetica Neue, Helvetica, Arial, sans-serif" font-size="10.00">output 0</text>
</g>
<!-- d&#45;&gt;out0 -->
<g id="edge9" class="edge"><title>d&#45;&gt;out0</title>
<path fill="none" stroke="black" d="M101.158,-72.1958C96.9257,-69.16 77.4784,-55.2098 59.5616,-42.3576"/>
<polygon fill="black" stroke="black" points="61.1282,-39.1739 50.9625,-36.1891 57.048,-44.8619 61.1282,-39.1739"/>
</g>
<!-- out1 -->
<g id="node12" class="node"><title>out1</title>
<text text-anchor="middle" x="99" y="-15.5" font-family="Helvetica Neue, Helvetica, Arial, sans-serif" font-size="10.00">output 1</text>
</g>
<!-- e&#45;&gt;out1 -->
<g id="edge10" class="edge"><title>e&#45;&gt;out1</title>
<path fill="none" stroke="black" d="M123.566,-71.8662C122.036,-68.5741 116.7,-57.0899 111.39,-45.6628"/>
<polygon fill="black" stroke="black" points="114.408,-43.8523 107.02,-36.2585 108.06,-46.8022 114.408,-43.8523"/>
</g>
<!-- out2 -->
<g id="node13" class="node"><title>out2</title>
<text text-anchor="middle" x="171" y="-15.5" font-family="Helvetica Neue, Helvetica, Arial, sans-serif" font-size="10.00">output 2</text>
</g>
<!-- f&#45;&gt;out2 -->
<g id="edge11" class="edge"><title>f&#45;&gt;out2</title>
<path fill="none" stroke="black" d="M146.434,-71.8662C147.964,-68.5741 153.3,-57.0899 158.61,-45.6628"/>
<polygon fill="black" stroke="black" points="161.94,-46.8022 162.98,-36.2585 155.592,-43.8523 161.94,-46.8022"/>
</g>
<!-- out3 -->
<g id="node14" class="node"><title>out3</title>
<text text-anchor="middle" x="243" y="-15.5" font-family="Helvetica Neue, Helvetica, Arial, sans-serif" font-size="10.00">output 3</text>
</g>
<!-- g&#45;&gt;out3 -->
<g id="edge12" class="edge"><title>g&#45;&gt;out3</title>
<path fill="none" stroke="black" d="M168.842,-72.1958C173.074,-69.16 192.522,-55.2098 210.438,-42.3576"/>
<polygon fill="black" stroke="black" points="212.952,-44.8619 219.038,-36.1891 208.872,-39.1739 212.952,-44.8619"/>
</g>
</g>
</svg>
