<?xml version="1.0" encoding="UTF-8" standalone="no"?>
<!DOCTYPE svg PUBLIC "-//W3C//DTD SVG 1.1//EN"
 "http://www.w3.org/Graphics/SVG/1.1/DTD/svg11.dtd">
<!-- Generated by graphviz version 2.38.0 (20140413.2041)
 -->
<!-- Title: G Pages: 1 -->
<svg width="62pt" height="156pt"
 viewBox="0.00 0.00 62.00 155.60" xmlns="http://www.w3.org/2000/svg" xmlns:xlink="http://www.w3.org/1999/xlink">
<g id="graph0" class="graph" transform="scale(1 1) rotate(0) translate(4 151.6)">
<title>G</title>
<polygon fill="white" stroke="none" points="-4,4 -4,-151.6 58,-151.6 58,4 -4,4"/>
<g id="clust1" class="cluster"><title>cluster_A</title>
<polygon fill="none" stroke="black" points="11,-64 11,-102.6 43,-102.6 43,-64 11,-64"/>
<text text-anchor="middle" x="27" y="-90.6" font-family="Helvetica Neue, Helvetica, Arial, sans-serif" font-size="10.00">(0,)</text>
</g>
<!-- in0 -->
<g id="node1" class="node"><title>in0</title>
<text text-anchor="middle" x="27" y="-127.1" font-family="Helvetica Neue, Helvetica, Arial, sans-serif" font-size="10.00">input 0</text>
</g>
<!-- a -->
<g id="node2" class="node"><title>a</title>
<ellipse fill="black" stroke="black" cx="27" cy="-73.8" rx="1.8" ry="1.8"/>
</g>
<!-- in0&#45;&gt;a -->
<g id="edge1" class="edge"><title>in0&#45;&gt;a</title>
<path fill="none" stroke="black" d="M27,-111.577C27,-103.173 27,-93.2752 27,-85.8659"/>
<polygon fill="black" stroke="black" points="30.5001,-85.7338 27,-75.7338 23.5001,-85.7338 30.5001,-85.7338"/>
</g>
<!-- out0 -->
<g id="node3" class="node"><title>out0</title>
<text text-anchor="middle" x="27" y="-15.5" font-family="Helvetica Neue, Helvetica, Arial, sans-serif" font-size="10.00">output 0</text>
</g>
<!-- a&#45;&gt;out0 -->
<g id="edge2" class="edge"><title>a&#45;&gt;out0</title>
<path fill="none" stroke="black" d="M27,-71.8662C27,-68.6399 27,-57.546 27,-46.3484"/>
<polygon fill="black" stroke="black" points="30.5001,-46.2585 27,-36.2585 23.5001,-46.2586 30.5001,-46.2585"/>
</g>
</g>
</svg>
