<?xml version="1.0" encoding="UTF-8" standalone="no"?>
<!DOCTYPE svg PUBLIC "-//W3C//DTD SVG 1.1//EN"
 "http://www.w3.org/Graphics/SVG/1.1/DTD/svg11.dtd">
<!-- Generated by graphviz version 2.38.0 (20140413.2041)
 -->
<!-- Title: G Pages: 1 -->
<svg width="134pt" height="195pt"
 viewBox="0.00 0.00 134.00 195.20" xmlns="http://www.w3.org/2000/svg" xmlns:xlink="http://www.w3.org/1999/xlink">
<g id="graph0" class="graph" transform="scale(1 1) rotate(0) translate(4 191.2)">
<title>G</title>
<polygon fill="white" stroke="none" points="-4,4 -4,-191.2 130,-191.2 130,4 -4,4"/>
<g id="clust1" class="cluster"><title>cluster_A</title>
<polygon fill="none" stroke="black" points="42,-64 42,-142.2 84,-142.2 84,-64 42,-64"/>
<text text-anchor="middle" x="63" y="-130.2" font-family="Helvetica Neue, Helvetica, Arial, sans-serif" font-size="10.00">(0, 0)</text>
</g>
<!-- in0 -->
<g id="node1" class="node"><title>in0</title>
<text text-anchor="middle" x="52" y="-166.7" font-family="Helvetica Neue, Helvetica, Arial, sans-serif" font-size="10.00">input 0</text>
</g>
<!-- a -->
<g id="node2" class="node"><title>a</title>
<ellipse fill="black" stroke="black" cx="52" cy="-113.4" rx="1.8" ry="1.8"/>
</g>
<!-- in0&#45;&gt;a -->
<g id="edge4" class="edge"><title>in0&#45;&gt;a</title>
<path fill="none" stroke="black" d="M52,-151.177C52,-142.773 52,-132.875 52,-125.466"/>
<polygon fill="black" stroke="black" points="55.5001,-125.334 52,-115.334 48.5001,-125.334 55.5001,-125.334"/>
</g>
<!-- b -->
<g id="node3" class="node"><title>b</title>
<ellipse fill="black" stroke="black" cx="52" cy="-73.8" rx="1.8" ry="1.8"/>
</g>
<!-- a&#45;&gt;b -->
<!-- a&#45;&gt;b -->
<g id="edge2" class="edge"><title>a&#45;&gt;b</title>
<path fill="none" stroke="black" d="M53.582,-111.978C58.3946,-109.285 59.8459,-94.3054 57.9362,-84.2017"/>
<polygon fill="black" stroke="black" points="61.0473,-82.5969 53.4893,-75.1721 54.7676,-85.6896 61.0473,-82.5969"/>
</g>
<!-- c -->
<g id="node4" class="node"><title>c</title>
<ellipse fill="black" stroke="black" cx="74" cy="-73.8" rx="1.8" ry="1.8"/>
</g>
<!-- a&#45;&gt;c -->
<g id="edge3" class="edge"><title>a&#45;&gt;c</title>
<path fill="none" stroke="black" d="M52.5438,-111.471C54.7026,-107.781 62.8221,-93.9041 68.4294,-84.3207"/>
<polygon fill="black" stroke="black" points="71.5213,-85.9668 73.5506,-75.5681 65.4795,-82.4317 71.5213,-85.9668"/>
</g>
<!-- out0 -->
<g id="node5" class="node"><title>out0</title>
<text text-anchor="middle" x="27" y="-15.5" font-family="Helvetica Neue, Helvetica, Arial, sans-serif" font-size="10.00">output 0</text>
</g>
<!-- b&#45;&gt;out0 -->
<g id="edge5" class="edge"><title>b&#45;&gt;out0</title>
<path fill="none" stroke="black" d="M51.5661,-71.8662C50.0363,-68.5741 44.6998,-57.0899 39.3898,-45.6628"/>
<polygon fill="black" stroke="black" points="42.408,-43.8523 35.0198,-36.2585 36.0599,-46.8022 42.408,-43.8523"/>
</g>
<!-- out1 -->
<g id="node6" class="node"><title>out1</title>
<text text-anchor="middle" x="99" y="-15.5" font-family="Helvetica Neue, Helvetica, Arial, sans-serif" font-size="10.00">output 1</text>
</g>
<!-- c&#45;&gt;out1 -->
<g id="edge6" class="edge"><title>c&#45;&gt;out1</title>
<path fill="none" stroke="black" d="M74.4339,-71.8662C75.9637,-68.5741 81.3002,-57.0899 86.6102,-45.6628"/>
<polygon fill="black" stroke="black" points="89.9401,-46.8022 90.9802,-36.2585 83.592,-43.8523 89.9401,-46.8022"/>
</g>
</g>
</svg>
