<?xml version="1.0" encoding="UTF-8" standalone="no"?>
<!DOCTYPE svg PUBLIC "-//W3C//DTD SVG 1.1//EN"
 "http://www.w3.org/Graphics/SVG/1.1/DTD/svg11.dtd">
<!-- Generated by graphviz version 2.38.0 (20140413.2041)
 -->
<!-- Title: AstropyCoordinateTransformGraph Pages: 1 -->
<svg width="1060pt" height="676pt"
 viewBox="0.00 0.00 1059.96 676.41" xmlns="http://www.w3.org/2000/svg" xmlns:xlink="http://www.w3.org/1999/xlink">
<g id="graph0" class="graph" transform="scale(1 1) rotate(0) translate(4 672.411)">
<title>AstropyCoordinateTransformGraph</title>
<polygon fill="white" stroke="none" points="-4,4 -4,-672.411 1055.96,-672.411 1055.96,4 -4,4"/>
<!-- Supergalactic -->
<g id="node1" class="node"><title>Supergalactic</title>
<ellipse fill="none" stroke="black" cx="412.232" cy="-647.198" rx="57.9655" ry="21.4286"/>
<text text-anchor="middle" x="412.232" y="-650.198" font-family="Helvetica Neue, Helvetica, Arial, sans-serif" font-size="10.00">Supergalactic</text>
<text text-anchor="middle" x="412.232" y="-639.198" font-family="Helvetica Neue, Helvetica, Arial, sans-serif" font-size="10.00">`supergalactic`</text>
</g>
<!-- Galactic -->
<g id="node2" class="node"><title>Galactic</title>
<ellipse fill="none" stroke="black" cx="412.232" cy="-557.772" rx="40.1111" ry="21.4286"/>
<text text-anchor="middle" x="412.232" y="-560.772" font-family="Helvetica Neue, Helvetica, Arial, sans-serif" font-size="10.00">Galactic</text>
<text text-anchor="middle" x="412.232" y="-549.772" font-family="Helvetica Neue, Helvetica, Arial, sans-serif" font-size="10.00">`galactic`</text>
</g>
<!-- Supergalactic&#45;&gt;Galactic -->
<g id="edge1" class="edge"><title>Supergalactic&#45;&gt;Galactic</title>
<path fill="none" stroke="black" d="M400.15,-626.402C396.12,-617.546 393.129,-606.888 395.232,-596.985 395.875,-593.957 396.775,-590.879 397.829,-587.85"/>
<polygon fill="black" stroke="black" points="401.118,-589.052 401.593,-578.468 394.621,-586.446 401.118,-589.052"/>
<text text-anchor="middle" x="402.232" y="-599.985" font-family="Helvetica Neue, Helvetica, Arial, sans-serif" font-size="10.00">1.0</text>
</g>
<!-- Galactic&#45;&gt;Supergalactic -->
<g id="edge22" class="edge"><title>Galactic&#45;&gt;Supergalactic</title>
<path fill="none" stroke="black" d="M412.232,-579.242C412.232,-590.12 412.232,-603.706 412.232,-615.792"/>
<polygon fill="black" stroke="black" points="408.732,-615.921 412.232,-625.921 415.732,-615.921 408.732,-615.921"/>
<text text-anchor="middle" x="419.232" y="-599.985" font-family="Helvetica Neue, Helvetica, Arial, sans-serif" font-size="10.00">1.0</text>
</g>
<!-- FK5 -->
<g id="node8" class="node"><title>FK5</title>
<ellipse fill="none" stroke="black" cx="413.232" cy="-378.919" rx="27" ry="21.4286"/>
<text text-anchor="middle" x="413.232" y="-381.919" font-family="Helvetica Neue, Helvetica, Arial, sans-serif" font-size="10.00">FK5</text>
<text text-anchor="middle" x="413.232" y="-370.919" font-family="Helvetica Neue, Helvetica, Arial, sans-serif" font-size="10.00">`fk5`</text>
</g>
<!-- Galactic&#45;&gt;FK5 -->
<g id="edge23" class="edge"><title>Galactic&#45;&gt;FK5</title>
<path fill="none" stroke="black" d="M444.597,-545.004C468.323,-534.467 498.81,-516.479 513.232,-489.558 522.136,-472.937 522.098,-463.774 513.232,-447.132 499.314,-421.008 470.229,-403.228 446.997,-392.55"/>
<polygon fill="black" stroke="black" points="448.348,-389.321 437.783,-388.537 445.554,-395.739 448.348,-389.321"/>
<text text-anchor="middle" x="527.232" y="-465.845" font-family="Helvetica Neue, Helvetica, Arial, sans-serif" font-size="10.00">1.0</text>
</g>
<!-- FK4NoETerms -->
<g id="node12" class="node"><title>FK4NoETerms</title>
<ellipse fill="none" stroke="black" cx="413.232" cy="-468.345" rx="58.8803" ry="21.4286"/>
<text text-anchor="middle" x="413.232" y="-471.345" font-family="Helvetica Neue, Helvetica, Arial, sans-serif" font-size="10.00">FK4NoETerms</text>
<text text-anchor="middle" x="413.232" y="-460.345" font-family="Helvetica Neue, Helvetica, Arial, sans-serif" font-size="10.00">`fk4noeterms`</text>
</g>
<!-- Galactic&#45;&gt;FK4NoETerms -->
<g id="edge21" class="edge"><title>Galactic&#45;&gt;FK4NoETerms</title>
<path fill="none" stroke="black" d="M400.266,-537.426C396.107,-528.474 392.982,-517.615 395.232,-507.558 395.878,-504.673 396.766,-501.75 397.805,-498.87"/>
<polygon fill="black" stroke="black" points="401.147,-499.952 401.783,-489.376 394.691,-497.247 401.147,-499.952"/>
<text text-anchor="middle" x="402.232" y="-510.558" font-family="Helvetica Neue, Helvetica, Arial, sans-serif" font-size="10.00">1.0</text>
</g>
<!-- PrecessedGeocentric -->
<g id="node3" class="node"><title>PrecessedGeocentric</title>
<ellipse fill="none" stroke="black" cx="673.232" cy="-110.64" rx="81.135" ry="21.4286"/>
<text text-anchor="middle" x="673.232" y="-113.64" font-family="Helvetica Neue, Helvetica, Arial, sans-serif" font-size="10.00">PrecessedGeocentric</text>
<text text-anchor="middle" x="673.232" y="-102.64" font-family="Helvetica Neue, Helvetica, Arial, sans-serif" font-size="10.00">`precessedgeocentric`</text>
</g>
<!-- GCRS -->
<g id="node4" class="node"><title>GCRS</title>
<ellipse fill="none" stroke="black" cx="673.232" cy="-200.066" rx="31.6406" ry="21.4286"/>
<text text-anchor="middle" x="673.232" y="-203.066" font-family="Helvetica Neue, Helvetica, Arial, sans-serif" font-size="10.00">GCRS</text>
<text text-anchor="middle" x="673.232" y="-192.066" font-family="Helvetica Neue, Helvetica, Arial, sans-serif" font-size="10.00">`gcrs`</text>
</g>
<!-- PrecessedGeocentric&#45;&gt;GCRS -->
<g id="edge2" class="edge"><title>PrecessedGeocentric&#45;&gt;GCRS</title>
<path fill="none" stroke="black" d="M682.783,-131.846C685.026,-137.542 687.092,-143.83 688.232,-149.853 689.475,-156.419 688.71,-163.35 687.005,-169.872"/>
<polygon fill="black" stroke="black" points="683.579,-169.079 683.705,-179.673 690.213,-171.313 683.579,-169.079"/>
<text text-anchor="middle" x="696.232" y="-152.853" font-family="Helvetica Neue, Helvetica, Arial, sans-serif" font-size="10.00">1.0</text>
</g>
<!-- GCRS&#45;&gt;PrecessedGeocentric -->
<g id="edge16" class="edge"><title>GCRS&#45;&gt;PrecessedGeocentric</title>
<path fill="none" stroke="black" d="M671.058,-178.484C670.365,-169.671 669.863,-159.261 670.232,-149.853 670.332,-147.293 670.47,-144.638 670.633,-141.976"/>
<polygon fill="black" stroke="black" points="674.134,-142.073 671.348,-131.851 667.152,-141.579 674.134,-142.073"/>
<text text-anchor="middle" x="677.232" y="-152.853" font-family="Helvetica Neue, Helvetica, Arial, sans-serif" font-size="10.00">1.0</text>
</g>
<!-- GCRS&#45;&gt;GCRS -->
<g id="edge19" class="edge"><title>GCRS&#45;&gt;GCRS</title>
<path fill="none" stroke="black" d="M702.897,-208.298C713.952,-208.568 723.052,-205.824 723.052,-200.066 723.052,-196.197 718.944,-193.689 712.895,-192.542"/>
<polygon fill="black" stroke="black" points="713.119,-189.049 702.897,-191.834 712.625,-196.032 713.119,-189.049"/>
<text text-anchor="middle" x="730.052" y="-197.566" font-family="Helvetica Neue, Helvetica, Arial, sans-serif" font-size="10.00">1.0</text>
</g>
<!-- ICRS -->
<g id="node6" class="node"><title>ICRS</title>
<ellipse fill="none" stroke="black" cx="413.232" cy="-289.492" rx="28.0702" ry="21.4286"/>
<text text-anchor="middle" x="413.232" y="-292.492" font-family="Helvetica Neue, Helvetica, Arial, sans-serif" font-size="10.00">ICRS</text>
<text text-anchor="middle" x="413.232" y="-281.492" font-family="Helvetica Neue, Helvetica, Arial, sans-serif" font-size="10.00">`icrs`</text>
</g>
<!-- GCRS&#45;&gt;ICRS -->
<g id="edge18" class="edge"><title>GCRS&#45;&gt;ICRS</title>
<path fill="none" stroke="black" d="M650.699,-215.146C632.331,-226.086 605.403,-240.925 580.232,-250.279 537.154,-266.289 485.239,-276.894 450.848,-282.786"/>
<polygon fill="black" stroke="black" points="450.056,-279.369 440.767,-284.464 451.206,-286.274 450.056,-279.369"/>
<text text-anchor="middle" x="611.232" y="-242.279" font-family="Helvetica Neue, Helvetica, Arial, sans-serif" font-size="10.00">1.0</text>
</g>
<!-- CIRS -->
<g id="node10" class="node"><title>CIRS</title>
<ellipse fill="none" stroke="black" cx="513.232" cy="-110.64" rx="28.0702" ry="21.4286"/>
<text text-anchor="middle" x="513.232" y="-113.64" font-family="Helvetica Neue, Helvetica, Arial, sans-serif" font-size="10.00">CIRS</text>
<text text-anchor="middle" x="513.232" y="-102.64" font-family="Helvetica Neue, Helvetica, Arial, sans-serif" font-size="10.00">`cirs`</text>
</g>
<!-- GCRS&#45;&gt;CIRS -->
<g id="edge20" class="edge"><title>GCRS&#45;&gt;CIRS</title>
<path fill="none" stroke="black" d="M648.459,-186.352C634.279,-179.012 616.188,-169.539 600.232,-160.853 581.457,-150.632 560.606,-138.852 544.024,-129.38"/>
<polygon fill="black" stroke="black" points="545.709,-126.312 535.291,-124.38 542.23,-132.387 545.709,-126.312"/>
<text text-anchor="middle" x="607.232" y="-152.853" font-family="Helvetica Neue, Helvetica, Arial, sans-serif" font-size="10.00">1.0</text>
</g>
<!-- HCRS -->
<g id="node13" class="node"><title>HCRS</title>
<ellipse fill="none" stroke="black" cx="804.232" cy="-110.64" rx="31.6406" ry="21.4286"/>
<text text-anchor="middle" x="804.232" y="-113.64" font-family="Helvetica Neue, Helvetica, Arial, sans-serif" font-size="10.00">HCRS</text>
<text text-anchor="middle" x="804.232" y="-102.64" font-family="Helvetica Neue, Helvetica, Arial, sans-serif" font-size="10.00">`hcrs`</text>
</g>
<!-- GCRS&#45;&gt;HCRS -->
<g id="edge15" class="edge"><title>GCRS&#45;&gt;HCRS</title>
<path fill="none" stroke="black" d="M695.159,-184.433C716.696,-170.06 749.735,-148.01 773.809,-131.944"/>
<polygon fill="black" stroke="black" points="775.859,-134.783 782.234,-126.321 771.973,-128.96 775.859,-134.783"/>
<text text-anchor="middle" x="753.232" y="-152.853" font-family="Helvetica Neue, Helvetica, Arial, sans-serif" font-size="10.00">1.0</text>
</g>
<!-- GeocentricTrueEcliptic -->
<g id="node14" class="node"><title>GeocentricTrueEcliptic</title>
<ellipse fill="none" stroke="black" cx="969.232" cy="-110.64" rx="82.9636" ry="21.4286"/>
<text text-anchor="middle" x="969.232" y="-113.64" font-family="Helvetica Neue, Helvetica, Arial, sans-serif" font-size="10.00">GeocentricTrueEcliptic</text>
<text text-anchor="middle" x="969.232" y="-102.64" font-family="Helvetica Neue, Helvetica, Arial, sans-serif" font-size="10.00">`geocentrictrueecliptic`</text>
</g>
<!-- GCRS&#45;&gt;GeocentricTrueEcliptic -->
<g id="edge17" class="edge"><title>GCRS&#45;&gt;GeocentricTrueEcliptic</title>
<path fill="none" stroke="black" d="M705.142,-197.257C748.37,-193.963 827.359,-184.93 890.232,-160.853 905.953,-154.833 921.962,-145.562 935.421,-136.684"/>
<polygon fill="black" stroke="black" points="937.564,-139.459 943.868,-130.944 933.63,-133.669 937.564,-139.459"/>
<text text-anchor="middle" x="920.232" y="-152.853" font-family="Helvetica Neue, Helvetica, Arial, sans-serif" font-size="10.00">1.0</text>
</g>
<!-- BarycentricTrueEcliptic -->
<g id="node5" class="node"><title>BarycentricTrueEcliptic</title>
<ellipse fill="none" stroke="black" cx="117.232" cy="-200.066" rx="84.7059" ry="21.4286"/>
<text text-anchor="middle" x="117.232" y="-203.066" font-family="Helvetica Neue, Helvetica, Arial, sans-serif" font-size="10.00">BarycentricTrueEcliptic</text>
<text text-anchor="middle" x="117.232" y="-192.066" font-family="Helvetica Neue, Helvetica, Arial, sans-serif" font-size="10.00">`barycentrictrueecliptic`</text>
</g>
<!-- BarycentricTrueEcliptic&#45;&gt;ICRS -->
<g id="edge3" class="edge"><title>BarycentricTrueEcliptic&#45;&gt;ICRS</title>
<path fill="none" stroke="black" d="M146.528,-220.185C163.608,-230.525 185.925,-242.696 207.232,-250.279 263.781,-270.404 333.021,-280.462 375.094,-285.069"/>
<polygon fill="black" stroke="black" points="374.871,-288.565 385.182,-286.126 375.601,-281.603 374.871,-288.565"/>
<text text-anchor="middle" x="214.232" y="-242.279" font-family="Helvetica Neue, Helvetica, Arial, sans-serif" font-size="10.00">1.0</text>
</g>
<!-- ICRS&#45;&gt;GCRS -->
<g id="edge8" class="edge"><title>ICRS&#45;&gt;GCRS</title>
<path fill="none" stroke="black" d="M441.48,-286.189C493.707,-281.517 602.982,-269.692 635.232,-250.279 644.018,-244.99 651.516,-236.85 657.472,-228.702"/>
<polygon fill="black" stroke="black" points="660.429,-230.578 663.11,-220.328 654.622,-226.668 660.429,-230.578"/>
<text text-anchor="middle" x="656.232" y="-242.279" font-family="Helvetica Neue, Helvetica, Arial, sans-serif" font-size="10.00">1.0</text>
</g>
<!-- ICRS&#45;&gt;BarycentricTrueEcliptic -->
<g id="edge6" class="edge"><title>ICRS&#45;&gt;BarycentricTrueEcliptic</title>
<path fill="none" stroke="black" d="M387.224,-280.811C341.198,-267.217 244.202,-238.568 179.881,-219.57"/>
<polygon fill="black" stroke="black" points="180.827,-216.2 170.245,-216.724 178.844,-222.913 180.827,-216.2"/>
<text text-anchor="middle" x="290.232" y="-242.279" font-family="Helvetica Neue, Helvetica, Arial, sans-serif" font-size="10.00">1.0</text>
</g>
<!-- HeliocentricTrueEcliptic -->
<g id="node7" class="node"><title>HeliocentricTrueEcliptic</title>
<ellipse fill="none" stroke="black" cx="306.232" cy="-200.066" rx="86.0347" ry="21.4286"/>
<text text-anchor="middle" x="306.232" y="-203.066" font-family="Helvetica Neue, Helvetica, Arial, sans-serif" font-size="10.00">HeliocentricTrueEcliptic</text>
<text text-anchor="middle" x="306.232" y="-192.066" font-family="Helvetica Neue, Helvetica, Arial, sans-serif" font-size="10.00">`heliocentrictrueecliptic`</text>
</g>
<!-- ICRS&#45;&gt;HeliocentricTrueEcliptic -->
<g id="edge7" class="edge"><title>ICRS&#45;&gt;HeliocentricTrueEcliptic</title>
<path fill="none" stroke="black" d="M394.594,-273.264C379.121,-260.621 356.757,-242.348 338.4,-227.349"/>
<polygon fill="black" stroke="black" points="340.245,-224.337 330.287,-220.72 335.816,-229.758 340.245,-224.337"/>
<text text-anchor="middle" x="373.232" y="-242.279" font-family="Helvetica Neue, Helvetica, Arial, sans-serif" font-size="10.00">1.0</text>
</g>
<!-- ICRS&#45;&gt;FK5 -->
<g id="edge5" class="edge"><title>ICRS&#45;&gt;FK5</title>
<path fill="none" stroke="black" d="M413.232,-310.962C413.232,-321.841 413.232,-335.427 413.232,-347.513"/>
<polygon fill="black" stroke="black" points="409.732,-347.642 413.232,-357.642 416.732,-347.642 409.732,-347.642"/>
<text text-anchor="middle" x="420.232" y="-331.706" font-family="Helvetica Neue, Helvetica, Arial, sans-serif" font-size="10.00">1.0</text>
</g>
<!-- Galactocentric -->
<g id="node9" class="node"><title>Galactocentric</title>
<ellipse fill="none" stroke="black" cx="470.232" cy="-200.066" rx="60.2083" ry="21.4286"/>
<text text-anchor="middle" x="470.232" y="-203.066" font-family="Helvetica Neue, Helvetica, Arial, sans-serif" font-size="10.00">Galactocentric</text>
<text text-anchor="middle" x="470.232" y="-192.066" font-family="Helvetica Neue, Helvetica, Arial, sans-serif" font-size="10.00">`galactocentric`</text>
</g>
<!-- ICRS&#45;&gt;Galactocentric -->
<g id="edge9" class="edge"><title>ICRS&#45;&gt;Galactocentric</title>
<path fill="none" stroke="black" d="M425.32,-269.952C433.041,-258.11 443.199,-242.53 451.901,-229.182"/>
<polygon fill="black" stroke="black" points="454.839,-231.084 457.369,-220.795 448.976,-227.261 454.839,-231.084"/>
<text text-anchor="middle" x="452.232" y="-242.279" font-family="Helvetica Neue, Helvetica, Arial, sans-serif" font-size="10.00">1.0</text>
</g>
<!-- ICRS&#45;&gt;CIRS -->
<g id="edge10" class="edge"><title>ICRS&#45;&gt;CIRS</title>
<path fill="none" stroke="black" d="M384.951,-288.313C301.258,-287.123 57.639,-278.7 9.23213,-221.279 -2.92151,-206.862 -3.18871,-193.04 9.23213,-178.853 39.8972,-143.827 362.234,-120.887 474.744,-113.898"/>
<polygon fill="black" stroke="black" points="475.193,-117.377 484.96,-113.271 474.764,-110.39 475.193,-117.377"/>
<text text-anchor="middle" x="16.2321" y="-197.566" font-family="Helvetica Neue, Helvetica, Arial, sans-serif" font-size="10.00">1.0</text>
</g>
<!-- HeliocentricTrueEcliptic&#45;&gt;ICRS -->
<g id="edge4" class="edge"><title>HeliocentricTrueEcliptic&#45;&gt;ICRS</title>
<path fill="none" stroke="black" d="M313.567,-221.682C317.821,-231.329 323.989,-242.401 332.232,-250.279 344.865,-262.353 362.016,-271.19 377.284,-277.306"/>
<polygon fill="black" stroke="black" points="376.387,-280.707 386.979,-280.939 378.843,-274.152 376.387,-280.707"/>
<text text-anchor="middle" x="339.232" y="-242.279" font-family="Helvetica Neue, Helvetica, Arial, sans-serif" font-size="10.00">1.0</text>
</g>
<!-- FK5&#45;&gt;Galactic -->
<g id="edge24" class="edge"><title>FK5&#45;&gt;Galactic</title>
<path fill="none" stroke="black" d="M390.712,-391.008C370.924,-402.143 343.439,-421.344 331.232,-447.132 323.165,-464.175 323.216,-472.491 331.232,-489.558 340.493,-509.277 358.695,-525.207 375.502,-536.6"/>
<polygon fill="black" stroke="black" points="373.807,-539.671 384.11,-542.141 377.595,-533.785 373.807,-539.671"/>
<text text-anchor="middle" x="338.232" y="-465.845" font-family="Helvetica Neue, Helvetica, Arial, sans-serif" font-size="10.00">1.0</text>
</g>
<!-- FK5&#45;&gt;ICRS -->
<g id="edge27" class="edge"><title>FK5&#45;&gt;ICRS</title>
<path fill="none" stroke="black" d="M402.349,-359.07C399.444,-353.077 396.705,-346.29 395.232,-339.706 393.657,-332.667 394.784,-325.268 397.091,-318.407"/>
<polygon fill="black" stroke="black" points="400.463,-319.418 401.136,-308.844 394.017,-316.69 400.463,-319.418"/>
<text text-anchor="middle" x="402.232" y="-331.706" font-family="Helvetica Neue, Helvetica, Arial, sans-serif" font-size="10.00">1.0</text>
</g>
<!-- FK5&#45;&gt;FK5 -->
<g id="edge26" class="edge"><title>FK5&#45;&gt;FK5</title>
<path fill="none" stroke="black" d="M438.221,-387.07C449.002,-387.737 458.232,-385.02 458.232,-378.919 458.232,-374.915 454.257,-372.368 448.477,-371.279"/>
<polygon fill="black" stroke="black" points="448.383,-367.77 438.221,-370.768 448.034,-374.761 448.383,-367.77"/>
<text text-anchor="middle" x="465.232" y="-376.419" font-family="Helvetica Neue, Helvetica, Arial, sans-serif" font-size="10.00">1.0</text>
</g>
<!-- FK5&#45;&gt;FK4NoETerms -->
<g id="edge25" class="edge"><title>FK5&#45;&gt;FK4NoETerms</title>
<path fill="none" stroke="black" d="M413.232,-400.389C413.232,-411.267 413.232,-424.853 413.232,-436.939"/>
<polygon fill="black" stroke="black" points="409.732,-437.068 413.232,-447.068 416.732,-437.068 409.732,-437.068"/>
<text text-anchor="middle" x="420.232" y="-421.132" font-family="Helvetica Neue, Helvetica, Arial, sans-serif" font-size="10.00">1.0</text>
</g>
<!-- Galactocentric&#45;&gt;ICRS -->
<g id="edge14" class="edge"><title>Galactocentric&#45;&gt;ICRS</title>
<path fill="none" stroke="black" d="M440.362,-218.679C433.042,-224.365 425.961,-231.297 421.232,-239.279 417.874,-244.949 415.805,-251.598 414.556,-258.143"/>
<polygon fill="black" stroke="black" points="411.07,-257.809 413.201,-268.187 418.007,-258.745 411.07,-257.809"/>
<text text-anchor="middle" x="428.232" y="-242.279" font-family="Helvetica Neue, Helvetica, Arial, sans-serif" font-size="10.00">1.0</text>
</g>
<!-- CIRS&#45;&gt;GCRS -->
<g id="edge39" class="edge"><title>CIRS&#45;&gt;GCRS</title>
<path fill="none" stroke="black" d="M539.627,-118.966C560.663,-125.42 590.432,-135.957 614.232,-149.853 626.321,-156.911 638.413,-166.452 648.475,-175.255"/>
<polygon fill="black" stroke="black" points="646.297,-178.004 656.07,-182.095 650.981,-172.802 646.297,-178.004"/>
<text text-anchor="middle" x="637.232" y="-152.853" font-family="Helvetica Neue, Helvetica, Arial, sans-serif" font-size="10.00">1.0</text>
</g>
<!-- CIRS&#45;&gt;ICRS -->
<g id="edge41" class="edge"><title>CIRS&#45;&gt;ICRS</title>
<path fill="none" stroke="black" d="M525.384,-129.987C538.855,-152.851 556.542,-192.426 539.232,-221.279 520.038,-253.273 479.869,-270.879 450.018,-279.956"/>
<polygon fill="black" stroke="black" points="448.993,-276.609 440.336,-282.716 450.912,-283.34 448.993,-276.609"/>
<text text-anchor="middle" x="554.232" y="-197.566" font-family="Helvetica Neue, Helvetica, Arial, sans-serif" font-size="10.00">1.0</text>
</g>
<!-- CIRS&#45;&gt;CIRS -->
<g id="edge38" class="edge"><title>CIRS&#45;&gt;CIRS</title>
<path fill="none" stroke="black" d="M539.402,-118.817C550.288,-119.381 559.516,-116.655 559.516,-110.64 559.516,-106.692 555.542,-104.161 549.733,-103.047"/>
<polygon fill="black" stroke="black" points="549.584,-99.5328 539.402,-102.462 549.188,-106.522 549.584,-99.5328"/>
<text text-anchor="middle" x="566.516" y="-108.14" font-family="Helvetica Neue, Helvetica, Arial, sans-serif" font-size="10.00">1.0</text>
</g>
<!-- ITRS -->
<g id="node15" class="node"><title>ITRS</title>
<ellipse fill="none" stroke="black" cx="459.232" cy="-21.2132" rx="27.6545" ry="21.4286"/>
<text text-anchor="middle" x="459.232" y="-24.2132" font-family="Helvetica Neue, Helvetica, Arial, sans-serif" font-size="10.00">ITRS</text>
<text text-anchor="middle" x="459.232" y="-13.2132" font-family="Helvetica Neue, Helvetica, Arial, sans-serif" font-size="10.00">`itrs`</text>
</g>
<!-- CIRS&#45;&gt;ITRS -->
<g id="edge37" class="edge"><title>CIRS&#45;&gt;ITRS</title>
<path fill="none" stroke="black" d="M490.781,-97.1935C481.325,-90.7618 471.159,-82.0248 465.232,-71.4264 462.034,-65.7076 460.208,-59.0382 459.22,-52.4893"/>
<polygon fill="black" stroke="black" points="462.697,-52.0818 458.281,-42.4513 455.727,-52.7338 462.697,-52.0818"/>
<text text-anchor="middle" x="472.232" y="-63.4264" font-family="Helvetica Neue, Helvetica, Arial, sans-serif" font-size="10.00">1.0</text>
</g>
<!-- AltAz -->
<g id="node16" class="node"><title>AltAz</title>
<ellipse fill="none" stroke="black" cx="568.232" cy="-21.2132" rx="31.2258" ry="21.4286"/>
<text text-anchor="middle" x="568.232" y="-24.2132" font-family="Helvetica Neue, Helvetica, Arial, sans-serif" font-size="10.00">AltAz</text>
<text text-anchor="middle" x="568.232" y="-13.2132" font-family="Helvetica Neue, Helvetica, Arial, sans-serif" font-size="10.00">`altaz`</text>
</g>
<!-- CIRS&#45;&gt;AltAz -->
<g id="edge40" class="edge"><title>CIRS&#45;&gt;AltAz</title>
<path fill="none" stroke="black" d="M517.427,-89.53C519.941,-80.2189 523.741,-69.284 529.232,-60.4264 532.496,-55.1619 536.634,-50.0952 540.989,-45.4684"/>
<polygon fill="black" stroke="black" points="543.751,-47.6587 548.403,-38.1398 538.831,-42.6801 543.751,-47.6587"/>
<text text-anchor="middle" x="536.232" y="-63.4264" font-family="Helvetica Neue, Helvetica, Arial, sans-serif" font-size="10.00">1.0</text>
</g>
<!-- FK4 -->
<g id="node11" class="node"><title>FK4</title>
<ellipse fill="none" stroke="black" cx="591.232" cy="-378.919" rx="27" ry="21.4286"/>
<text text-anchor="middle" x="591.232" y="-381.919" font-family="Helvetica Neue, Helvetica, Arial, sans-serif" font-size="10.00">FK4</text>
<text text-anchor="middle" x="591.232" y="-370.919" font-family="Helvetica Neue, Helvetica, Arial, sans-serif" font-size="10.00">`fk4`</text>
</g>
<!-- FK4&#45;&gt;FK4 -->
<g id="edge12" class="edge"><title>FK4&#45;&gt;FK4</title>
<path fill="none" stroke="black" d="M616.221,-387.07C627.002,-387.737 636.232,-385.02 636.232,-378.919 636.232,-374.915 632.257,-372.368 626.477,-371.279"/>
<polygon fill="black" stroke="black" points="626.383,-367.77 616.221,-370.768 626.034,-374.761 626.383,-367.77"/>
<text text-anchor="middle" x="643.232" y="-376.419" font-family="Helvetica Neue, Helvetica, Arial, sans-serif" font-size="10.00">1.0</text>
</g>
<!-- FK4&#45;&gt;FK4NoETerms -->
<g id="edge11" class="edge"><title>FK4&#45;&gt;FK4NoETerms</title>
<path fill="none" stroke="black" d="M568.884,-390.895C540.639,-404.768 491.427,-428.939 455.888,-446.395"/>
<polygon fill="black" stroke="black" points="454.145,-443.351 446.713,-450.901 457.231,-449.634 454.145,-443.351"/>
<text text-anchor="middle" x="520.232" y="-421.132" font-family="Helvetica Neue, Helvetica, Arial, sans-serif" font-size="10.00">1.0</text>
</g>
<!-- FK4NoETerms&#45;&gt;Galactic -->
<g id="edge35" class="edge"><title>FK4NoETerms&#45;&gt;Galactic</title>
<path fill="none" stroke="black" d="M412.998,-489.815C412.874,-500.693 412.718,-514.28 412.58,-526.365"/>
<polygon fill="black" stroke="black" points="409.079,-526.455 412.464,-536.495 416.078,-526.535 409.079,-526.455"/>
<text text-anchor="middle" x="420.232" y="-510.558" font-family="Helvetica Neue, Helvetica, Arial, sans-serif" font-size="10.00">1.0</text>
</g>
<!-- FK4NoETerms&#45;&gt;FK5 -->
<g id="edge34" class="edge"><title>FK4NoETerms&#45;&gt;FK5</title>
<path fill="none" stroke="black" d="M400.442,-447.587C396.175,-438.738 393.007,-428.075 395.232,-418.132 395.969,-414.84 397.022,-411.497 398.254,-408.228"/>
<polygon fill="black" stroke="black" points="401.588,-409.335 402.349,-398.767 395.164,-406.554 401.588,-409.335"/>
<text text-anchor="middle" x="402.232" y="-421.132" font-family="Helvetica Neue, Helvetica, Arial, sans-serif" font-size="10.00">1.0</text>
</g>
<!-- FK4NoETerms&#45;&gt;FK4 -->
<g id="edge32" class="edge"><title>FK4NoETerms&#45;&gt;FK4</title>
<path fill="none" stroke="black" d="M461.412,-456.144C483.482,-449.923 509.501,-441.006 531.232,-429.132 544.233,-422.028 557.137,-411.946 567.627,-402.756"/>
<polygon fill="black" stroke="black" points="570.068,-405.267 575.14,-395.966 565.374,-400.074 570.068,-405.267"/>
<text text-anchor="middle" x="555.232" y="-421.132" font-family="Helvetica Neue, Helvetica, Arial, sans-serif" font-size="10.00">1.0</text>
</g>
<!-- FK4NoETerms&#45;&gt;FK4NoETerms -->
<g id="edge33" class="edge"><title>FK4NoETerms&#45;&gt;FK4NoETerms</title>
<path fill="none" stroke="black" d="M467.687,-476.432C480.482,-475.767 489.922,-473.072 489.922,-468.345 489.922,-465.022 485.255,-462.703 478.037,-461.387"/>
<polygon fill="black" stroke="black" points="478.008,-457.864 467.687,-460.258 477.249,-464.822 478.008,-457.864"/>
<text text-anchor="middle" x="496.922" y="-465.845" font-family="Helvetica Neue, Helvetica, Arial, sans-serif" font-size="10.00">1.0</text>
</g>
<!-- HCRS&#45;&gt;HCRS -->
<g id="edge13" class="edge"><title>HCRS&#45;&gt;HCRS</title>
<path fill="none" stroke="black" d="M833.897,-118.871C844.952,-119.141 854.052,-116.397 854.052,-110.64 854.052,-106.771 849.944,-104.263 843.895,-103.116"/>
<polygon fill="black" stroke="black" points="844.119,-99.6227 833.897,-102.408 843.625,-106.605 844.119,-99.6227"/>
<text text-anchor="middle" x="861.052" y="-108.14" font-family="Helvetica Neue, Helvetica, Arial, sans-serif" font-size="10.00">1.0</text>
</g>
<!-- GeocentricTrueEcliptic&#45;&gt;GCRS -->
<g id="edge36" class="edge"><title>GeocentricTrueEcliptic&#45;&gt;GCRS</title>
<path fill="none" stroke="black" d="M916.794,-127.128C858.037,-144.482 764.174,-172.206 711.785,-187.679"/>
<polygon fill="black" stroke="black" points="710.482,-184.414 701.883,-190.604 712.465,-191.128 710.482,-184.414"/>
<text text-anchor="middle" x="845.232" y="-152.853" font-family="Helvetica Neue, Helvetica, Arial, sans-serif" font-size="10.00">1.0</text>
</g>
<!-- ITRS&#45;&gt;CIRS -->
<g id="edge29" class="edge"><title>ITRS&#45;&gt;CIRS</title>
<path fill="none" stroke="black" d="M470.668,-40.7274C478.11,-52.7763 487.948,-68.7042 496.291,-82.2116"/>
<polygon fill="black" stroke="black" points="493.547,-84.4301 501.78,-91.0987 499.503,-80.7515 493.547,-84.4301"/>
<text text-anchor="middle" x="497.232" y="-63.4264" font-family="Helvetica Neue, Helvetica, Arial, sans-serif" font-size="10.00">1.0</text>
</g>
<!-- ITRS&#45;&gt;ITRS -->
<g id="edge28" class="edge"><title>ITRS&#45;&gt;ITRS</title>
<path fill="none" stroke="black" d="M485.002,-29.3907C495.722,-29.9547 504.809,-27.2288 504.809,-21.2132 504.809,-17.2654 500.896,-14.7345 495.175,-13.6203"/>
<polygon fill="black" stroke="black" points="495.186,-10.1153 485.002,-13.0357 494.785,-17.1037 495.186,-10.1153"/>
<text text-anchor="middle" x="511.809" y="-18.7132" font-family="Helvetica Neue, Helvetica, Arial, sans-serif" font-size="10.00">1.0</text>
</g>
<!-- AltAz&#45;&gt;CIRS -->
<g id="edge31" class="edge"><title>AltAz&#45;&gt;CIRS</title>
<path fill="none" stroke="black" d="M561.438,-42.1056C557.856,-51.3691 553.004,-62.3267 547.232,-71.4264 544.2,-76.207 540.57,-80.9763 536.827,-85.4436"/>
<polygon fill="black" stroke="black" points="534.067,-83.2818 530.074,-93.0955 539.315,-87.9137 534.067,-83.2818"/>
<text text-anchor="middle" x="560.232" y="-63.4264" font-family="Helvetica Neue, Helvetica, Arial, sans-serif" font-size="10.00">1.0</text>
</g>
<!-- AltAz&#45;&gt;AltAz -->
<g id="edge30" class="edge"><title>AltAz&#45;&gt;AltAz</title>
<path fill="none" stroke="black" d="M596.987,-29.431C608.104,-29.7962 617.345,-27.057 617.345,-21.2132 617.345,-17.2869 613.173,-14.7621 607.064,-13.6386"/>
<polygon fill="black" stroke="black" points="607.189,-10.1396 596.987,-12.9954 606.743,-17.1254 607.189,-10.1396"/>
<text text-anchor="middle" x="624.345" y="-18.7132" font-family="Helvetica Neue, Helvetica, Arial, sans-serif" font-size="10.00">1.0</text>
</g>
</g>
</svg>
