<?xml version="1.0" encoding="UTF-8" standalone="no"?>
<!DOCTYPE svg PUBLIC "-//W3C//DTD SVG 1.1//EN"
 "http://www.w3.org/Graphics/SVG/1.1/DTD/svg11.dtd">
<!-- Generated by graphviz version 2.38.0 (20140413.2041)
 -->
<!-- Title: AstropyCoordinateTransformGraph Pages: 1 -->
<svg width="1031pt" height="498pt"
 viewBox="0.00 0.00 1031.00 497.56" xmlns="http://www.w3.org/2000/svg" xmlns:xlink="http://www.w3.org/1999/xlink">
<g id="graph0" class="graph" transform="scale(1 1) rotate(0) translate(4 493.558)">
<title>AstropyCoordinateTransformGraph</title>
<polygon fill="white" stroke="none" points="-4,4 -4,-493.558 1027,-493.558 1027,4 -4,4"/>
<!-- BarycentricTrueEcliptic -->
<g id="node1" class="node"><title>BarycentricTrueEcliptic</title>
<ellipse fill="none" stroke="black" cx="592.731" cy="-468.345" rx="84.7059" ry="21.4286"/>
<text text-anchor="middle" x="592.731" y="-471.345" font-family="Helvetica Neue, Helvetica, Arial, sans-serif" font-size="10.00">BarycentricTrueEcliptic</text>
<text text-anchor="middle" x="592.731" y="-460.345" font-family="Helvetica Neue, Helvetica, Arial, sans-serif" font-size="10.00">`barycentrictrueecliptic`</text>
</g>
<!-- ICRS -->
<g id="node2" class="node"><title>ICRS</title>
<ellipse fill="none" stroke="black" cx="592.731" cy="-378.919" rx="28.0702" ry="21.4286"/>
<text text-anchor="middle" x="592.731" y="-381.919" font-family="Helvetica Neue, Helvetica, Arial, sans-serif" font-size="10.00">ICRS</text>
<text text-anchor="middle" x="592.731" y="-370.919" font-family="Helvetica Neue, Helvetica, Arial, sans-serif" font-size="10.00">`icrs`</text>
</g>
<!-- BarycentricTrueEcliptic&#45;&gt;ICRS -->
<g id="edge1" class="edge"><title>BarycentricTrueEcliptic&#45;&gt;ICRS</title>
<path fill="none" stroke="black" d="M581.914,-447.253C579.373,-441.557 577.029,-435.24 575.731,-429.132 574.268,-422.241 575.271,-414.984 577.375,-408.223"/>
<polygon fill="black" stroke="black" points="580.688,-409.36 581.085,-398.773 574.172,-406.802 580.688,-409.36"/>
<text text-anchor="middle" x="582.731" y="-421.132" font-family="Helvetica Neue, Helvetica, Arial, sans-serif" font-size="10.00">1.0</text>
</g>
<!-- ICRS&#45;&gt;BarycentricTrueEcliptic -->
<g id="edge31" class="edge"><title>ICRS&#45;&gt;BarycentricTrueEcliptic</title>
<path fill="none" stroke="black" d="M592.731,-400.389C592.731,-411.267 592.731,-424.853 592.731,-436.939"/>
<polygon fill="black" stroke="black" points="589.232,-437.068 592.731,-447.068 596.232,-437.068 589.232,-437.068"/>
<text text-anchor="middle" x="599.731" y="-421.132" font-family="Helvetica Neue, Helvetica, Arial, sans-serif" font-size="10.00">1.0</text>
</g>
<!-- GCRS -->
<g id="node4" class="node"><title>GCRS</title>
<ellipse fill="none" stroke="black" cx="297.731" cy="-289.492" rx="31.6406" ry="21.4286"/>
<text text-anchor="middle" x="297.731" y="-292.492" font-family="Helvetica Neue, Helvetica, Arial, sans-serif" font-size="10.00">GCRS</text>
<text text-anchor="middle" x="297.731" y="-281.492" font-family="Helvetica Neue, Helvetica, Arial, sans-serif" font-size="10.00">`gcrs`</text>
</g>
<!-- ICRS&#45;&gt;GCRS -->
<g id="edge30" class="edge"><title>ICRS&#45;&gt;GCRS</title>
<path fill="none" stroke="black" d="M564.408,-376.66C504.905,-373.562 369.228,-363.974 330.731,-339.706 322.765,-334.684 316.276,-326.96 311.227,-319.109"/>
<polygon fill="black" stroke="black" points="314.179,-317.224 306.136,-310.328 308.124,-320.735 314.179,-317.224"/>
<text text-anchor="middle" x="337.731" y="-331.706" font-family="Helvetica Neue, Helvetica, Arial, sans-serif" font-size="10.00">1.0</text>
</g>
<!-- FK5 -->
<g id="node9" class="node"><title>FK5</title>
<ellipse fill="none" stroke="black" cx="635.731" cy="-289.492" rx="27" ry="21.4286"/>
<text text-anchor="middle" x="635.731" y="-292.492" font-family="Helvetica Neue, Helvetica, Arial, sans-serif" font-size="10.00">FK5</text>
<text text-anchor="middle" x="635.731" y="-281.492" font-family="Helvetica Neue, Helvetica, Arial, sans-serif" font-size="10.00">`fk5`</text>
</g>
<!-- ICRS&#45;&gt;FK5 -->
<g id="edge29" class="edge"><title>ICRS&#45;&gt;FK5</title>
<path fill="none" stroke="black" d="M596.699,-357.654C598.936,-348.515 602.207,-337.765 606.731,-328.706 608.941,-324.282 611.685,-319.854 614.598,-315.663"/>
<polygon fill="black" stroke="black" points="617.534,-317.58 620.695,-307.468 611.918,-313.402 617.534,-317.58"/>
<text text-anchor="middle" x="613.731" y="-331.706" font-family="Helvetica Neue, Helvetica, Arial, sans-serif" font-size="10.00">1.0</text>
</g>
<!-- Galactocentric -->
<g id="node11" class="node"><title>Galactocentric</title>
<ellipse fill="none" stroke="black" cx="772.731" cy="-289.492" rx="60.2083" ry="21.4286"/>
<text text-anchor="middle" x="772.731" y="-292.492" font-family="Helvetica Neue, Helvetica, Arial, sans-serif" font-size="10.00">Galactocentric</text>
<text text-anchor="middle" x="772.731" y="-281.492" font-family="Helvetica Neue, Helvetica, Arial, sans-serif" font-size="10.00">`galactocentric`</text>
</g>
<!-- ICRS&#45;&gt;Galactocentric -->
<g id="edge32" class="edge"><title>ICRS&#45;&gt;Galactocentric</title>
<path fill="none" stroke="black" d="M615.895,-366.668C644.484,-352.782 693.687,-328.884 729.372,-311.552"/>
<polygon fill="black" stroke="black" points="731.124,-314.592 738.59,-307.075 728.066,-308.296 731.124,-314.592"/>
<text text-anchor="middle" x="700.731" y="-331.706" font-family="Helvetica Neue, Helvetica, Arial, sans-serif" font-size="10.00">1.0</text>
</g>
<!-- HCRS -->
<g id="node12" class="node"><title>HCRS</title>
<ellipse fill="none" stroke="black" cx="395.731" cy="-200.066" rx="31.6406" ry="21.4286"/>
<text text-anchor="middle" x="395.731" y="-203.066" font-family="Helvetica Neue, Helvetica, Arial, sans-serif" font-size="10.00">HCRS</text>
<text text-anchor="middle" x="395.731" y="-192.066" font-family="Helvetica Neue, Helvetica, Arial, sans-serif" font-size="10.00">`hcrs`</text>
</g>
<!-- ICRS&#45;&gt;HCRS -->
<g id="edge33" class="edge"><title>ICRS&#45;&gt;HCRS</title>
<path fill="none" stroke="black" d="M564.931,-374.883C537.019,-370.721 493.811,-361.144 462.731,-339.706 446.831,-328.738 405.668,-261.158 401.731,-250.279 399.63,-244.472 398.235,-238.054 397.316,-231.824"/>
<polygon fill="black" stroke="black" points="400.769,-231.206 396.177,-221.658 393.812,-231.985 400.769,-231.206"/>
<text text-anchor="middle" x="445.731" y="-286.992" font-family="Helvetica Neue, Helvetica, Arial, sans-serif" font-size="10.00">1.0</text>
</g>
<!-- CIRS -->
<g id="node13" class="node"><title>CIRS</title>
<ellipse fill="none" stroke="black" cx="505.731" cy="-200.066" rx="28.0702" ry="21.4286"/>
<text text-anchor="middle" x="505.731" y="-203.066" font-family="Helvetica Neue, Helvetica, Arial, sans-serif" font-size="10.00">CIRS</text>
<text text-anchor="middle" x="505.731" y="-192.066" font-family="Helvetica Neue, Helvetica, Arial, sans-serif" font-size="10.00">`cirs`</text>
</g>
<!-- ICRS&#45;&gt;CIRS -->
<g id="edge34" class="edge"><title>ICRS&#45;&gt;CIRS</title>
<path fill="none" stroke="black" d="M587.854,-358.013C580.45,-330.075 564.656,-278.285 540.731,-239.279 537.598,-234.17 533.724,-229.132 529.709,-224.474"/>
<polygon fill="black" stroke="black" points="532.252,-222.068 522.922,-217.048 527.085,-226.791 532.252,-222.068"/>
<text text-anchor="middle" x="580.731" y="-286.992" font-family="Helvetica Neue, Helvetica, Arial, sans-serif" font-size="10.00">1.0</text>
</g>
<!-- HeliocentricTrueEcliptic -->
<g id="node15" class="node"><title>HeliocentricTrueEcliptic</title>
<ellipse fill="none" stroke="black" cx="936.731" cy="-289.492" rx="86.0347" ry="21.4286"/>
<text text-anchor="middle" x="936.731" y="-292.492" font-family="Helvetica Neue, Helvetica, Arial, sans-serif" font-size="10.00">HeliocentricTrueEcliptic</text>
<text text-anchor="middle" x="936.731" y="-281.492" font-family="Helvetica Neue, Helvetica, Arial, sans-serif" font-size="10.00">`heliocentrictrueecliptic`</text>
</g>
<!-- ICRS&#45;&gt;HeliocentricTrueEcliptic -->
<g id="edge28" class="edge"><title>ICRS&#45;&gt;HeliocentricTrueEcliptic</title>
<path fill="none" stroke="black" d="M619.597,-372.233C652.847,-365.098 711.149,-352.269 760.731,-339.706 798.241,-330.201 839.957,-318.583 873.358,-309.023"/>
<polygon fill="black" stroke="black" points="874.349,-312.38 882.994,-306.255 872.416,-305.652 874.349,-312.38"/>
<text text-anchor="middle" x="811.731" y="-331.706" font-family="Helvetica Neue, Helvetica, Arial, sans-serif" font-size="10.00">1.0</text>
</g>
<!-- PrecessedGeocentric -->
<g id="node3" class="node"><title>PrecessedGeocentric</title>
<ellipse fill="none" stroke="black" cx="264.731" cy="-200.066" rx="81.135" ry="21.4286"/>
<text text-anchor="middle" x="264.731" y="-203.066" font-family="Helvetica Neue, Helvetica, Arial, sans-serif" font-size="10.00">PrecessedGeocentric</text>
<text text-anchor="middle" x="264.731" y="-192.066" font-family="Helvetica Neue, Helvetica, Arial, sans-serif" font-size="10.00">`precessedgeocentric`</text>
</g>
<!-- PrecessedGeocentric&#45;&gt;GCRS -->
<g id="edge2" class="edge"><title>PrecessedGeocentric&#45;&gt;GCRS</title>
<path fill="none" stroke="black" d="M272.419,-221.433C276.656,-232.656 281.989,-246.786 286.666,-259.177"/>
<polygon fill="black" stroke="black" points="283.437,-260.534 290.243,-268.654 289.986,-258.062 283.437,-260.534"/>
<text text-anchor="middle" x="290.731" y="-242.279" font-family="Helvetica Neue, Helvetica, Arial, sans-serif" font-size="10.00">1.0</text>
</g>
<!-- GCRS&#45;&gt;ICRS -->
<g id="edge14" class="edge"><title>GCRS&#45;&gt;ICRS</title>
<path fill="none" stroke="black" d="M316.581,-306.75C330.392,-317.779 350.083,-331.752 369.731,-339.706 431.208,-364.592 508.599,-373.274 554.168,-376.301"/>
<polygon fill="black" stroke="black" points="554.021,-379.798 564.215,-376.91 554.445,-372.811 554.021,-379.798"/>
<text text-anchor="middle" x="376.731" y="-331.706" font-family="Helvetica Neue, Helvetica, Arial, sans-serif" font-size="10.00">1.0</text>
</g>
<!-- GCRS&#45;&gt;PrecessedGeocentric -->
<g id="edge11" class="edge"><title>GCRS&#45;&gt;PrecessedGeocentric</title>
<path fill="none" stroke="black" d="M277.665,-272.654C271.322,-266.435 265.094,-258.751 261.731,-250.279 259.426,-244.469 258.679,-237.968 258.791,-231.644"/>
<polygon fill="black" stroke="black" points="262.309,-231.581 259.664,-221.322 255.334,-230.991 262.309,-231.581"/>
<text text-anchor="middle" x="268.731" y="-242.279" font-family="Helvetica Neue, Helvetica, Arial, sans-serif" font-size="10.00">1.0</text>
</g>
<!-- GCRS&#45;&gt;GCRS -->
<g id="edge13" class="edge"><title>GCRS&#45;&gt;GCRS</title>
<path fill="none" stroke="black" d="M327.396,-297.724C338.451,-297.994 347.551,-295.25 347.551,-289.492 347.551,-285.624 343.443,-283.116 337.395,-281.968"/>
<polygon fill="black" stroke="black" points="337.618,-278.476 327.396,-281.261 337.124,-285.458 337.618,-278.476"/>
<text text-anchor="middle" x="354.551" y="-286.992" font-family="Helvetica Neue, Helvetica, Arial, sans-serif" font-size="10.00">1.0</text>
</g>
<!-- GeocentricTrueEcliptic -->
<g id="node5" class="node"><title>GeocentricTrueEcliptic</title>
<ellipse fill="none" stroke="black" cx="82.7315" cy="-200.066" rx="82.9636" ry="21.4286"/>
<text text-anchor="middle" x="82.7315" y="-203.066" font-family="Helvetica Neue, Helvetica, Arial, sans-serif" font-size="10.00">GeocentricTrueEcliptic</text>
<text text-anchor="middle" x="82.7315" y="-192.066" font-family="Helvetica Neue, Helvetica, Arial, sans-serif" font-size="10.00">`geocentrictrueecliptic`</text>
</g>
<!-- GCRS&#45;&gt;GeocentricTrueEcliptic -->
<g id="edge12" class="edge"><title>GCRS&#45;&gt;GeocentricTrueEcliptic</title>
<path fill="none" stroke="black" d="M267.499,-282.842C238.927,-276.876 195.265,-266.123 159.731,-250.279 145.133,-243.77 130.099,-234.762 117.233,-226.23"/>
<polygon fill="black" stroke="black" points="118.943,-223.16 108.704,-220.436 115.009,-228.95 118.943,-223.16"/>
<text text-anchor="middle" x="166.731" y="-242.279" font-family="Helvetica Neue, Helvetica, Arial, sans-serif" font-size="10.00">1.0</text>
</g>
<!-- GCRS&#45;&gt;HCRS -->
<g id="edge15" class="edge"><title>GCRS&#45;&gt;HCRS</title>
<path fill="none" stroke="black" d="M316.165,-272.048C331.222,-258.616 352.69,-239.464 369.533,-224.438"/>
<polygon fill="black" stroke="black" points="372.249,-226.705 377.381,-217.437 367.589,-221.482 372.249,-226.705"/>
<text text-anchor="middle" x="359.731" y="-242.279" font-family="Helvetica Neue, Helvetica, Arial, sans-serif" font-size="10.00">1.0</text>
</g>
<!-- GCRS&#45;&gt;CIRS -->
<g id="edge16" class="edge"><title>GCRS&#45;&gt;CIRS</title>
<path fill="none" stroke="black" d="M327.161,-280.916C364.673,-271.169 425.87,-254.939 435.731,-250.279 451.119,-243.008 466.753,-232.389 479.331,-222.875"/>
<polygon fill="black" stroke="black" points="481.761,-225.418 487.51,-216.519 477.466,-219.891 481.761,-225.418"/>
<text text-anchor="middle" x="461.731" y="-242.279" font-family="Helvetica Neue, Helvetica, Arial, sans-serif" font-size="10.00">1.0</text>
</g>
<!-- GeocentricTrueEcliptic&#45;&gt;GCRS -->
<g id="edge3" class="edge"><title>GeocentricTrueEcliptic&#45;&gt;GCRS</title>
<path fill="none" stroke="black" d="M125.47,-218.445C165.232,-234.614 223.839,-258.445 261.4,-273.719"/>
<polygon fill="black" stroke="black" points="260.354,-277.072 270.936,-277.597 262.991,-270.587 260.354,-277.072"/>
<text text-anchor="middle" x="210.731" y="-242.279" font-family="Helvetica Neue, Helvetica, Arial, sans-serif" font-size="10.00">1.0</text>
</g>
<!-- Galactic -->
<g id="node6" class="node"><title>Galactic</title>
<ellipse fill="none" stroke="black" cx="679.731" cy="-110.64" rx="40.1111" ry="21.4286"/>
<text text-anchor="middle" x="679.731" y="-113.64" font-family="Helvetica Neue, Helvetica, Arial, sans-serif" font-size="10.00">Galactic</text>
<text text-anchor="middle" x="679.731" y="-102.64" font-family="Helvetica Neue, Helvetica, Arial, sans-serif" font-size="10.00">`galactic`</text>
</g>
<!-- Supergalactic -->
<g id="node7" class="node"><title>Supergalactic</title>
<ellipse fill="none" stroke="black" cx="679.731" cy="-21.2132" rx="57.9655" ry="21.4286"/>
<text text-anchor="middle" x="679.731" y="-24.2132" font-family="Helvetica Neue, Helvetica, Arial, sans-serif" font-size="10.00">Supergalactic</text>
<text text-anchor="middle" x="679.731" y="-13.2132" font-family="Helvetica Neue, Helvetica, Arial, sans-serif" font-size="10.00">`supergalactic`</text>
</g>
<!-- Galactic&#45;&gt;Supergalactic -->
<g id="edge4" class="edge"><title>Galactic&#45;&gt;Supergalactic</title>
<path fill="none" stroke="black" d="M669.092,-89.9437C666.483,-84.1454 664.059,-77.6768 662.731,-71.4264 661.351,-64.9275 662.165,-58.1036 664.026,-51.6771"/>
<polygon fill="black" stroke="black" points="667.417,-52.6016 667.649,-42.0093 660.863,-50.145 667.417,-52.6016"/>
<text text-anchor="middle" x="669.731" y="-63.4264" font-family="Helvetica Neue, Helvetica, Arial, sans-serif" font-size="10.00">1.0</text>
</g>
<!-- FK4NoETerms -->
<g id="node8" class="node"><title>FK4NoETerms</title>
<ellipse fill="none" stroke="black" cx="742.731" cy="-200.066" rx="58.8803" ry="21.4286"/>
<text text-anchor="middle" x="742.731" y="-203.066" font-family="Helvetica Neue, Helvetica, Arial, sans-serif" font-size="10.00">FK4NoETerms</text>
<text text-anchor="middle" x="742.731" y="-192.066" font-family="Helvetica Neue, Helvetica, Arial, sans-serif" font-size="10.00">`fk4noeterms`</text>
</g>
<!-- Galactic&#45;&gt;FK4NoETerms -->
<g id="edge5" class="edge"><title>Galactic&#45;&gt;FK4NoETerms</title>
<path fill="none" stroke="black" d="M678.464,-132.063C678.784,-141.443 680.506,-152.345 685.731,-160.853 689.418,-166.855 694.442,-172.123 699.989,-176.676"/>
<polygon fill="black" stroke="black" points="698.261,-179.749 708.396,-182.837 702.399,-174.103 698.261,-179.749"/>
<text text-anchor="middle" x="692.731" y="-152.853" font-family="Helvetica Neue, Helvetica, Arial, sans-serif" font-size="10.00">1.0</text>
</g>
<!-- Galactic&#45;&gt;FK5 -->
<g id="edge6" class="edge"><title>Galactic&#45;&gt;FK5</title>
<path fill="none" stroke="black" d="M655.993,-127.883C640.865,-139.893 622.821,-157.778 615.731,-178.853 606.704,-205.691 614.533,-237.674 622.897,-260.149"/>
<polygon fill="black" stroke="black" points="619.649,-261.452 626.592,-269.455 626.155,-258.869 619.649,-261.452"/>
<text text-anchor="middle" x="622.731" y="-197.566" font-family="Helvetica Neue, Helvetica, Arial, sans-serif" font-size="10.00">1.0</text>
</g>
<!-- Supergalactic&#45;&gt;Galactic -->
<g id="edge9" class="edge"><title>Supergalactic&#45;&gt;Galactic</title>
<path fill="none" stroke="black" d="M679.731,-42.6832C679.731,-53.5614 679.731,-67.1475 679.731,-79.2335"/>
<polygon fill="black" stroke="black" points="676.232,-79.3625 679.731,-89.3625 683.232,-79.3625 676.232,-79.3625"/>
<text text-anchor="middle" x="686.731" y="-63.4264" font-family="Helvetica Neue, Helvetica, Arial, sans-serif" font-size="10.00">1.0</text>
</g>
<!-- FK4NoETerms&#45;&gt;Galactic -->
<g id="edge17" class="edge"><title>FK4NoETerms&#45;&gt;Galactic</title>
<path fill="none" stroke="black" d="M728.436,-179.228C719.859,-167.325 708.827,-152.017 699.433,-138.979"/>
<polygon fill="black" stroke="black" points="702.224,-136.865 693.538,-130.799 696.544,-140.958 702.224,-136.865"/>
<text text-anchor="middle" x="722.731" y="-152.853" font-family="Helvetica Neue, Helvetica, Arial, sans-serif" font-size="10.00">1.0</text>
</g>
<!-- FK4NoETerms&#45;&gt;FK4NoETerms -->
<g id="edge19" class="edge"><title>FK4NoETerms&#45;&gt;FK4NoETerms</title>
<path fill="none" stroke="black" d="M797.187,-208.153C809.982,-207.488 819.421,-204.793 819.421,-200.066 819.421,-196.743 814.755,-194.423 807.536,-193.108"/>
<polygon fill="black" stroke="black" points="807.507,-189.584 797.187,-191.979 806.748,-196.543 807.507,-189.584"/>
<text text-anchor="middle" x="826.421" y="-197.566" font-family="Helvetica Neue, Helvetica, Arial, sans-serif" font-size="10.00">1.0</text>
</g>
<!-- FK4NoETerms&#45;&gt;FK5 -->
<g id="edge20" class="edge"><title>FK4NoETerms&#45;&gt;FK5</title>
<path fill="none" stroke="black" d="M719.629,-219.942C702.702,-233.773 679.699,-252.568 662.061,-266.98"/>
<polygon fill="black" stroke="black" points="659.412,-264.624 653.883,-273.662 663.841,-270.045 659.412,-264.624"/>
<text text-anchor="middle" x="702.731" y="-242.279" font-family="Helvetica Neue, Helvetica, Arial, sans-serif" font-size="10.00">1.0</text>
</g>
<!-- FK4 -->
<g id="node10" class="node"><title>FK4</title>
<ellipse fill="none" stroke="black" cx="779.731" cy="-110.64" rx="27" ry="21.4286"/>
<text text-anchor="middle" x="779.731" y="-113.64" font-family="Helvetica Neue, Helvetica, Arial, sans-serif" font-size="10.00">FK4</text>
<text text-anchor="middle" x="779.731" y="-102.64" font-family="Helvetica Neue, Helvetica, Arial, sans-serif" font-size="10.00">`fk4`</text>
</g>
<!-- FK4NoETerms&#45;&gt;FK4 -->
<g id="edge18" class="edge"><title>FK4NoETerms&#45;&gt;FK4</title>
<path fill="none" stroke="black" d="M746.703,-178.488C748.81,-169.486 751.791,-158.932 755.731,-149.853 757.416,-145.972 759.458,-142.028 761.631,-138.221"/>
<polygon fill="black" stroke="black" points="764.622,-140.038 766.835,-129.677 758.643,-136.397 764.622,-140.038"/>
<text text-anchor="middle" x="762.731" y="-152.853" font-family="Helvetica Neue, Helvetica, Arial, sans-serif" font-size="10.00">1.0</text>
</g>
<!-- FK5&#45;&gt;ICRS -->
<g id="edge23" class="edge"><title>FK5&#45;&gt;ICRS</title>
<path fill="none" stroke="black" d="M633.41,-310.859C631.814,-320.018 629.149,-330.756 624.731,-339.706 622.351,-344.529 619.24,-349.262 615.893,-353.666"/>
<polygon fill="black" stroke="black" points="612.96,-351.721 609.298,-361.663 618.361,-356.175 612.96,-351.721"/>
<text text-anchor="middle" x="636.731" y="-331.706" font-family="Helvetica Neue, Helvetica, Arial, sans-serif" font-size="10.00">1.0</text>
</g>
<!-- FK5&#45;&gt;Galactic -->
<g id="edge24" class="edge"><title>FK5&#45;&gt;Galactic</title>
<path fill="none" stroke="black" d="M640.03,-268.21C644.782,-246.147 652.815,-209.877 660.731,-178.853 663.862,-166.584 667.6,-153.142 670.928,-141.525"/>
<polygon fill="black" stroke="black" points="674.307,-142.44 673.723,-131.861 667.583,-140.495 674.307,-142.44"/>
<text text-anchor="middle" x="667.731" y="-197.566" font-family="Helvetica Neue, Helvetica, Arial, sans-serif" font-size="10.00">1.0</text>
</g>
<!-- FK5&#45;&gt;FK4NoETerms -->
<g id="edge25" class="edge"><title>FK5&#45;&gt;FK4NoETerms</title>
<path fill="none" stroke="black" d="M660.438,-280.632C676.989,-274.417 698.462,-264.417 713.731,-250.279 719.871,-244.594 725.114,-237.311 729.384,-230.1"/>
<polygon fill="black" stroke="black" points="732.56,-231.587 734.267,-221.131 726.412,-228.24 732.56,-231.587"/>
<text text-anchor="middle" x="730.731" y="-242.279" font-family="Helvetica Neue, Helvetica, Arial, sans-serif" font-size="10.00">1.0</text>
</g>
<!-- FK5&#45;&gt;FK5 -->
<g id="edge26" class="edge"><title>FK5&#45;&gt;FK5</title>
<path fill="none" stroke="black" d="M660.72,-297.644C671.501,-298.311 680.731,-295.594 680.731,-289.492 680.731,-285.488 676.756,-282.942 670.976,-281.853"/>
<polygon fill="black" stroke="black" points="670.882,-278.344 660.72,-281.341 670.534,-285.335 670.882,-278.344"/>
<text text-anchor="middle" x="687.731" y="-286.992" font-family="Helvetica Neue, Helvetica, Arial, sans-serif" font-size="10.00">1.0</text>
</g>
<!-- FK4&#45;&gt;FK4NoETerms -->
<g id="edge8" class="edge"><title>FK4&#45;&gt;FK4NoETerms</title>
<path fill="none" stroke="black" d="M779.78,-131.93C779.175,-141.074 777.566,-151.821 773.731,-160.853 772.162,-164.551 770.122,-168.18 767.839,-171.641"/>
<polygon fill="black" stroke="black" points="764.91,-169.715 761.789,-179.839 770.543,-173.871 764.91,-169.715"/>
<text text-anchor="middle" x="784.731" y="-152.853" font-family="Helvetica Neue, Helvetica, Arial, sans-serif" font-size="10.00">1.0</text>
</g>
<!-- FK4&#45;&gt;FK4 -->
<g id="edge7" class="edge"><title>FK4&#45;&gt;FK4</title>
<path fill="none" stroke="black" d="M804.72,-118.791C815.501,-119.458 824.731,-116.741 824.731,-110.64 824.731,-106.635 820.756,-104.089 814.976,-103"/>
<polygon fill="black" stroke="black" points="814.882,-99.4909 804.72,-102.488 814.534,-106.482 814.882,-99.4909"/>
<text text-anchor="middle" x="831.731" y="-108.14" font-family="Helvetica Neue, Helvetica, Arial, sans-serif" font-size="10.00">1.0</text>
</g>
<!-- Galactocentric&#45;&gt;ICRS -->
<g id="edge10" class="edge"><title>Galactocentric&#45;&gt;ICRS</title>
<path fill="none" stroke="black" d="M758.921,-310.238C750.888,-320.384 739.948,-332.166 727.731,-339.706 697.917,-358.107 658.988,-367.894 630.599,-372.937"/>
<polygon fill="black" stroke="black" points="629.945,-369.498 620.653,-374.588 631.091,-376.403 629.945,-369.498"/>
<text text-anchor="middle" x="749.731" y="-331.706" font-family="Helvetica Neue, Helvetica, Arial, sans-serif" font-size="10.00">1.0</text>
</g>
<!-- HCRS&#45;&gt;ICRS -->
<g id="edge35" class="edge"><title>HCRS&#45;&gt;ICRS</title>
<path fill="none" stroke="black" d="M424.363,-209.786C440.324,-215.877 459.574,-225.431 472.731,-239.279 496.567,-264.368 482.331,-283.51 503.731,-310.706 519.651,-330.935 543.038,-348.28 561.844,-360.281"/>
<polygon fill="black" stroke="black" points="560.041,-363.282 570.386,-365.571 563.727,-357.33 560.041,-363.282"/>
<text text-anchor="middle" x="510.731" y="-286.992" font-family="Helvetica Neue, Helvetica, Arial, sans-serif" font-size="10.00">1.0</text>
</g>
<!-- HCRS&#45;&gt;HCRS -->
<g id="edge36" class="edge"><title>HCRS&#45;&gt;HCRS</title>
<path fill="none" stroke="black" d="M425.396,-208.298C436.451,-208.568 445.551,-205.824 445.551,-200.066 445.551,-196.197 441.443,-193.689 435.395,-192.542"/>
<polygon fill="black" stroke="black" points="435.618,-189.049 425.396,-191.834 435.124,-196.032 435.618,-189.049"/>
<text text-anchor="middle" x="452.551" y="-197.566" font-family="Helvetica Neue, Helvetica, Arial, sans-serif" font-size="10.00">1.0</text>
</g>
<!-- CIRS&#45;&gt;ICRS -->
<g id="edge39" class="edge"><title>CIRS&#45;&gt;ICRS</title>
<path fill="none" stroke="black" d="M509.4,-221.365C514.048,-244.075 523.36,-281.507 538.731,-310.706 546.911,-326.243 558.933,-341.654 569.558,-353.791"/>
<polygon fill="black" stroke="black" points="566.993,-356.173 576.284,-361.264 572.195,-351.49 566.993,-356.173"/>
<text text-anchor="middle" x="545.731" y="-286.992" font-family="Helvetica Neue, Helvetica, Arial, sans-serif" font-size="10.00">1.0</text>
</g>
<!-- CIRS&#45;&gt;GCRS -->
<g id="edge40" class="edge"><title>CIRS&#45;&gt;GCRS</title>
<path fill="none" stroke="black" d="M483.719,-213.842C478.857,-216.452 473.678,-219.072 468.731,-221.279 446.78,-231.073 440.192,-230.716 417.731,-239.279 389.254,-250.137 357.344,-263.27 333.593,-273.238"/>
<polygon fill="black" stroke="black" points="332.128,-270.057 324.27,-277.163 334.845,-276.508 332.128,-270.057"/>
<text text-anchor="middle" x="424.731" y="-242.279" font-family="Helvetica Neue, Helvetica, Arial, sans-serif" font-size="10.00">1.0</text>
</g>
<!-- CIRS&#45;&gt;CIRS -->
<g id="edge43" class="edge"><title>CIRS&#45;&gt;CIRS</title>
<path fill="none" stroke="black" d="M531.901,-208.244C542.788,-208.807 552.016,-206.082 552.016,-200.066 552.016,-196.118 548.041,-193.587 542.232,-192.473"/>
<polygon fill="black" stroke="black" points="542.083,-188.959 531.901,-191.889 541.687,-195.948 542.083,-188.959"/>
<text text-anchor="middle" x="559.016" y="-197.566" font-family="Helvetica Neue, Helvetica, Arial, sans-serif" font-size="10.00">1.0</text>
</g>
<!-- AltAz -->
<g id="node14" class="node"><title>AltAz</title>
<ellipse fill="none" stroke="black" cx="550.731" cy="-110.64" rx="31.2258" ry="21.4286"/>
<text text-anchor="middle" x="550.731" y="-113.64" font-family="Helvetica Neue, Helvetica, Arial, sans-serif" font-size="10.00">AltAz</text>
<text text-anchor="middle" x="550.731" y="-102.64" font-family="Helvetica Neue, Helvetica, Arial, sans-serif" font-size="10.00">`altaz`</text>
</g>
<!-- CIRS&#45;&gt;AltAz -->
<g id="edge42" class="edge"><title>CIRS&#45;&gt;AltAz</title>
<path fill="none" stroke="black" d="M505.213,-178.56C505.724,-169.373 507.389,-158.652 511.731,-149.853 514.473,-144.298 518.356,-139.09 522.619,-134.412"/>
<polygon fill="black" stroke="black" points="525.381,-136.602 530.017,-127.075 520.452,-131.631 525.381,-136.602"/>
<text text-anchor="middle" x="518.731" y="-152.853" font-family="Helvetica Neue, Helvetica, Arial, sans-serif" font-size="10.00">1.0</text>
</g>
<!-- ITRS -->
<g id="node16" class="node"><title>ITRS</title>
<ellipse fill="none" stroke="black" cx="441.731" cy="-110.64" rx="27.6545" ry="21.4286"/>
<text text-anchor="middle" x="441.731" y="-113.64" font-family="Helvetica Neue, Helvetica, Arial, sans-serif" font-size="10.00">ITRS</text>
<text text-anchor="middle" x="441.731" y="-102.64" font-family="Helvetica Neue, Helvetica, Arial, sans-serif" font-size="10.00">`itrs`</text>
</g>
<!-- CIRS&#45;&gt;ITRS -->
<g id="edge41" class="edge"><title>CIRS&#45;&gt;ITRS</title>
<path fill="none" stroke="black" d="M482.557,-187.466C471.937,-181.019 460.101,-172.027 452.731,-160.853 449.062,-155.289 446.603,-148.683 444.958,-142.146"/>
<polygon fill="black" stroke="black" points="448.345,-141.23 442.986,-132.09 441.476,-142.576 448.345,-141.23"/>
<text text-anchor="middle" x="459.731" y="-152.853" font-family="Helvetica Neue, Helvetica, Arial, sans-serif" font-size="10.00">1.0</text>
</g>
<!-- AltAz&#45;&gt;CIRS -->
<g id="edge22" class="edge"><title>AltAz&#45;&gt;CIRS</title>
<path fill="none" stroke="black" d="M543.047,-131.606C539.342,-140.684 534.641,-151.47 529.731,-160.853 527.77,-164.601 525.569,-168.468 523.315,-172.238"/>
<polygon fill="black" stroke="black" points="520.332,-170.406 518.052,-180.753 526.287,-174.087 520.332,-170.406"/>
<text text-anchor="middle" x="542.731" y="-152.853" font-family="Helvetica Neue, Helvetica, Arial, sans-serif" font-size="10.00">1.0</text>
</g>
<!-- AltAz&#45;&gt;AltAz -->
<g id="edge21" class="edge"><title>AltAz&#45;&gt;AltAz</title>
<path fill="none" stroke="black" d="M579.486,-118.857C590.604,-119.223 599.844,-116.483 599.844,-110.64 599.844,-106.713 595.673,-104.188 589.563,-103.065"/>
<polygon fill="black" stroke="black" points="589.689,-99.566 579.486,-102.422 589.243,-106.552 589.689,-99.566"/>
<text text-anchor="middle" x="606.844" y="-108.14" font-family="Helvetica Neue, Helvetica, Arial, sans-serif" font-size="10.00">1.0</text>
</g>
<!-- HeliocentricTrueEcliptic&#45;&gt;ICRS -->
<g id="edge27" class="edge"><title>HeliocentricTrueEcliptic&#45;&gt;ICRS</title>
<path fill="none" stroke="black" d="M914.33,-310.105C901.084,-320.606 883.472,-332.772 865.731,-339.706 786.543,-370.656 685.788,-377.053 631.536,-378.069"/>
<polygon fill="black" stroke="black" points="631.278,-374.572 621.326,-378.206 631.372,-381.571 631.278,-374.572"/>
<text text-anchor="middle" x="894.731" y="-331.706" font-family="Helvetica Neue, Helvetica, Arial, sans-serif" font-size="10.00">1.0</text>
</g>
<!-- ITRS&#45;&gt;CIRS -->
<g id="edge38" class="edge"><title>ITRS&#45;&gt;CIRS</title>
<path fill="none" stroke="black" d="M454.756,-129.432C463.858,-141.866 476.166,-158.679 486.408,-172.669"/>
<polygon fill="black" stroke="black" points="483.74,-174.95 492.471,-180.951 489.388,-170.815 483.74,-174.95"/>
<text text-anchor="middle" x="484.731" y="-152.853" font-family="Helvetica Neue, Helvetica, Arial, sans-serif" font-size="10.00">1.0</text>
</g>
<!-- ITRS&#45;&gt;ITRS -->
<g id="edge37" class="edge"><title>ITRS&#45;&gt;ITRS</title>
<path fill="none" stroke="black" d="M467.501,-118.817C478.221,-119.381 487.309,-116.655 487.309,-110.64 487.309,-106.692 483.395,-104.161 477.675,-103.047"/>
<polygon fill="black" stroke="black" points="477.686,-99.5417 467.501,-102.462 477.284,-106.53 477.686,-99.5417"/>
<text text-anchor="middle" x="494.309" y="-108.14" font-family="Helvetica Neue, Helvetica, Arial, sans-serif" font-size="10.00">1.0</text>
</g>
<!-- SkyOffsetFrame -->
<g id="node17" class="node"><title>SkyOffsetFrame</title>
<ellipse fill="none" stroke="black" cx="747.731" cy="-468.345" rx="52.2822" ry="18"/>
<text text-anchor="middle" x="747.731" y="-465.845" font-family="Helvetica Neue, Helvetica, Arial, sans-serif" font-size="10.00">SkyOffsetFrame</text>
</g>
</g>
</svg>
