<?xml version="1.0" encoding="UTF-8" standalone="no"?>
<!DOCTYPE svg PUBLIC "-//W3C//DTD SVG 1.1//EN"
 "http://www.w3.org/Graphics/SVG/1.1/DTD/svg11.dtd">
<!-- Generated by graphviz version 2.38.0 (20140413.2041)
 -->
<!-- Title: G Pages: 1 -->
<svg width="206pt" height="195pt"
 viewBox="0.00 0.00 206.00 195.20" xmlns="http://www.w3.org/2000/svg" xmlns:xlink="http://www.w3.org/1999/xlink">
<g id="graph0" class="graph" transform="scale(1 1) rotate(0) translate(4 191.2)">
<title>G</title>
<polygon fill="white" stroke="none" points="-4,4 -4,-191.2 202,-191.2 202,4 -4,4"/>
<g id="clust2" class="cluster"><title>cluster_A</title>
<polygon fill="none" stroke="black" points="67,-64 67,-142.2 131,-142.2 131,-64 67,-64"/>
<text text-anchor="middle" x="99" y="-130.2" font-family="Helvetica Neue, Helvetica, Arial, sans-serif" font-size="10.00">(0, 2)</text>
</g>
<!-- in0 -->
<g id="node1" class="node"><title>in0</title>
<text text-anchor="middle" x="27" y="-166.7" font-family="Helvetica Neue, Helvetica, Arial, sans-serif" font-size="10.00">input 0</text>
</g>
<!-- a -->
<g id="node4" class="node"><title>a</title>
<ellipse fill="black" stroke="black" cx="77" cy="-113.4" rx="1.8" ry="1.8"/>
</g>
<!-- in0&#45;&gt;a -->
<g id="edge4" class="edge"><title>in0&#45;&gt;a</title>
<path fill="none" stroke="black" d="M42.8203,-151.177C51.6323,-141.696 62.2112,-130.313 69.2424,-122.747"/>
<polygon fill="black" stroke="black" points="71.8882,-125.042 76.1322,-115.334 66.7607,-120.276 71.8882,-125.042"/>
</g>
<!-- in1 -->
<g id="node2" class="node"><title>in1</title>
<text text-anchor="middle" x="99" y="-166.7" font-family="Helvetica Neue, Helvetica, Arial, sans-serif" font-size="10.00">input 1</text>
</g>
<!-- b -->
<g id="node5" class="node"><title>b</title>
<ellipse fill="black" stroke="black" cx="99" cy="-113.4" rx="1.8" ry="1.8"/>
</g>
<!-- in1&#45;&gt;b -->
<g id="edge5" class="edge"><title>in1&#45;&gt;b</title>
<path fill="none" stroke="black" d="M99,-151.177C99,-142.773 99,-132.875 99,-125.466"/>
<polygon fill="black" stroke="black" points="102.5,-125.334 99,-115.334 95.5001,-125.334 102.5,-125.334"/>
</g>
<!-- in2 -->
<g id="node3" class="node"><title>in2</title>
<text text-anchor="middle" x="171" y="-166.7" font-family="Helvetica Neue, Helvetica, Arial, sans-serif" font-size="10.00">input 2</text>
</g>
<!-- c -->
<g id="node6" class="node"><title>c</title>
<ellipse fill="black" stroke="black" cx="121" cy="-113.4" rx="1.8" ry="1.8"/>
</g>
<!-- in2&#45;&gt;c -->
<g id="edge6" class="edge"><title>in2&#45;&gt;c</title>
<path fill="none" stroke="black" d="M155.18,-151.177C146.368,-141.696 135.789,-130.313 128.758,-122.747"/>
<polygon fill="black" stroke="black" points="131.239,-120.276 121.868,-115.334 126.112,-125.042 131.239,-120.276"/>
</g>
<!-- d -->
<g id="node7" class="node"><title>d</title>
<ellipse fill="black" stroke="black" cx="77" cy="-73.8" rx="1.8" ry="1.8"/>
</g>
<!-- a&#45;&gt;d -->
<!-- a&#45;&gt;d -->
<g id="edge2" class="edge"><title>a&#45;&gt;d</title>
<path fill="none" stroke="black" d="M78.582,-111.978C83.3946,-109.285 84.8459,-94.3054 82.9362,-84.2017"/>
<polygon fill="black" stroke="black" points="86.0473,-82.5969 78.4893,-75.1721 79.7676,-85.6896 86.0473,-82.5969"/>
</g>
<!-- e -->
<g id="node8" class="node"><title>e</title>
<ellipse fill="black" stroke="black" cx="121" cy="-73.8" rx="1.8" ry="1.8"/>
</g>
<!-- c&#45;&gt;e -->
<g id="edge3" class="edge"><title>c&#45;&gt;e</title>
<path fill="none" stroke="black" d="M121,-111.471C121,-108.027 121,-95.7091 121,-86.2903"/>
<polygon fill="black" stroke="black" points="124.5,-86.1382 121,-76.1382 117.5,-86.1382 124.5,-86.1382"/>
</g>
<!-- out0 -->
<g id="node9" class="node"><title>out0</title>
<text text-anchor="middle" x="63" y="-15.5" font-family="Helvetica Neue, Helvetica, Arial, sans-serif" font-size="10.00">output 0</text>
</g>
<!-- d&#45;&gt;out0 -->
<g id="edge7" class="edge"><title>d&#45;&gt;out0</title>
<path fill="none" stroke="black" d="M76.757,-71.8662C75.9089,-68.607 72.9714,-57.3188 70.0275,-46.0056"/>
<polygon fill="black" stroke="black" points="73.3967,-45.0548 67.4911,-36.2585 66.6223,-46.8177 73.3967,-45.0548"/>
</g>
<!-- out1 -->
<g id="node10" class="node"><title>out1</title>
<text text-anchor="middle" x="135" y="-15.5" font-family="Helvetica Neue, Helvetica, Arial, sans-serif" font-size="10.00">output 1</text>
</g>
<!-- e&#45;&gt;out1 -->
<g id="edge8" class="edge"><title>e&#45;&gt;out1</title>
<path fill="none" stroke="black" d="M121.243,-71.8662C122.091,-68.607 125.029,-57.3188 127.973,-46.0056"/>
<polygon fill="black" stroke="black" points="131.378,-46.8177 130.509,-36.2585 124.603,-45.0548 131.378,-46.8177"/>
</g>
</g>
</svg>
