<?xml version="1.0" encoding="UTF-8" standalone="no"?>
<!DOCTYPE svg PUBLIC "-//W3C//DTD SVG 1.1//EN"
 "http://www.w3.org/Graphics/SVG/1.1/DTD/svg11.dtd">
<!-- Generated by graphviz version 2.38.0 (20140413.2041)
 -->
<!-- Title: AstropyCoordinateTransformGraph Pages: 1 -->
<svg width="903pt" height="587pt"
 viewBox="0.00 0.00 903.10 586.98" xmlns="http://www.w3.org/2000/svg" xmlns:xlink="http://www.w3.org/1999/xlink">
<g id="graph0" class="graph" transform="scale(1 1) rotate(0) translate(4 582.985)">
<title>AstropyCoordinateTransformGraph</title>
<polygon fill="white" stroke="none" points="-4,4 -4,-582.985 899.095,-582.985 899.095,4 -4,4"/>
<!-- FK4 -->
<g id="node1" class="node"><title>FK4</title>
<ellipse fill="none" stroke="black" cx="197.983" cy="-557.772" rx="27" ry="21.4286"/>
<text text-anchor="middle" x="197.983" y="-560.772" font-family="Helvetica Neue, Helvetica, Arial, sans-serif" font-size="10.00">FK4</text>
<text text-anchor="middle" x="197.983" y="-549.772" font-family="Helvetica Neue, Helvetica, Arial, sans-serif" font-size="10.00">`fk4`</text>
</g>
<!-- FK4&#45;&gt;FK4 -->
<g id="edge1" class="edge"><title>FK4&#45;&gt;FK4</title>
<path fill="none" stroke="black" d="M222.972,-565.923C233.752,-566.59 242.983,-563.873 242.983,-557.772 242.983,-553.767 239.008,-551.221 233.228,-550.132"/>
<polygon fill="black" stroke="black" points="233.134,-546.623 222.972,-549.62 232.785,-553.614 233.134,-546.623"/>
<text text-anchor="middle" x="249.983" y="-555.272" font-family="Helvetica Neue, Helvetica, Arial, sans-serif" font-size="10.00">1.0</text>
</g>
<!-- FK4NoETerms -->
<g id="node2" class="node"><title>FK4NoETerms</title>
<ellipse fill="none" stroke="black" cx="197.983" cy="-468.345" rx="58.8803" ry="21.4286"/>
<text text-anchor="middle" x="197.983" y="-471.345" font-family="Helvetica Neue, Helvetica, Arial, sans-serif" font-size="10.00">FK4NoETerms</text>
<text text-anchor="middle" x="197.983" y="-460.345" font-family="Helvetica Neue, Helvetica, Arial, sans-serif" font-size="10.00">`fk4noeterms`</text>
</g>
<!-- FK4&#45;&gt;FK4NoETerms -->
<g id="edge2" class="edge"><title>FK4&#45;&gt;FK4NoETerms</title>
<path fill="none" stroke="black" d="M186.557,-538.383C182.205,-529.263 178.767,-517.992 180.983,-507.558 181.591,-504.695 182.429,-501.786 183.41,-498.917"/>
<polygon fill="black" stroke="black" points="186.736,-500.024 187.166,-489.437 180.228,-497.445 186.736,-500.024"/>
<text text-anchor="middle" x="187.983" y="-510.558" font-family="Helvetica Neue, Helvetica, Arial, sans-serif" font-size="10.00">1.0</text>
</g>
<!-- FK4NoETerms&#45;&gt;FK4 -->
<g id="edge11" class="edge"><title>FK4NoETerms&#45;&gt;FK4</title>
<path fill="none" stroke="black" d="M197.983,-489.815C197.983,-500.693 197.983,-514.28 197.983,-526.365"/>
<polygon fill="black" stroke="black" points="194.483,-526.494 197.983,-536.495 201.483,-526.495 194.483,-526.494"/>
<text text-anchor="middle" x="204.983" y="-510.558" font-family="Helvetica Neue, Helvetica, Arial, sans-serif" font-size="10.00">1.0</text>
</g>
<!-- FK4NoETerms&#45;&gt;FK4NoETerms -->
<g id="edge12" class="edge"><title>FK4NoETerms&#45;&gt;FK4NoETerms</title>
<path fill="none" stroke="black" d="M252.438,-476.432C265.233,-475.767 274.673,-473.072 274.673,-468.345 274.673,-465.022 270.006,-462.703 262.787,-461.387"/>
<polygon fill="black" stroke="black" points="262.759,-457.864 252.438,-460.258 261.999,-464.822 262.759,-457.864"/>
<text text-anchor="middle" x="281.673" y="-465.845" font-family="Helvetica Neue, Helvetica, Arial, sans-serif" font-size="10.00">1.0</text>
</g>
<!-- Galactic -->
<g id="node10" class="node"><title>Galactic</title>
<ellipse fill="none" stroke="black" cx="156.983" cy="-289.492" rx="40.1111" ry="21.4286"/>
<text text-anchor="middle" x="156.983" y="-292.492" font-family="Helvetica Neue, Helvetica, Arial, sans-serif" font-size="10.00">Galactic</text>
<text text-anchor="middle" x="156.983" y="-281.492" font-family="Helvetica Neue, Helvetica, Arial, sans-serif" font-size="10.00">`galactic`</text>
</g>
<!-- FK4NoETerms&#45;&gt;Galactic -->
<g id="edge13" class="edge"><title>FK4NoETerms&#45;&gt;Galactic</title>
<path fill="none" stroke="black" d="M177.571,-448.305C165.823,-435.883 152.192,-418.59 145.983,-400.132 137.203,-374.031 141.775,-342.616 147.46,-320.116"/>
<polygon fill="black" stroke="black" points="150.839,-321.027 150.106,-310.457 144.088,-319.177 150.839,-321.027"/>
<text text-anchor="middle" x="152.983" y="-376.419" font-family="Helvetica Neue, Helvetica, Arial, sans-serif" font-size="10.00">1.0</text>
</g>
<!-- FK5 -->
<g id="node11" class="node"><title>FK5</title>
<ellipse fill="none" stroke="black" cx="251.983" cy="-378.919" rx="27" ry="21.4286"/>
<text text-anchor="middle" x="251.983" y="-381.919" font-family="Helvetica Neue, Helvetica, Arial, sans-serif" font-size="10.00">FK5</text>
<text text-anchor="middle" x="251.983" y="-370.919" font-family="Helvetica Neue, Helvetica, Arial, sans-serif" font-size="10.00">`fk5`</text>
</g>
<!-- FK4NoETerms&#45;&gt;FK5 -->
<g id="edge14" class="edge"><title>FK4NoETerms&#45;&gt;FK5</title>
<path fill="none" stroke="black" d="M203.424,-446.863C206.369,-437.681 210.534,-426.957 215.983,-418.132 219.234,-412.866 223.294,-407.704 227.504,-402.963"/>
<polygon fill="black" stroke="black" points="230.292,-405.108 234.615,-395.436 225.204,-400.301 230.292,-405.108"/>
<text text-anchor="middle" x="222.983" y="-421.132" font-family="Helvetica Neue, Helvetica, Arial, sans-serif" font-size="10.00">1.0</text>
</g>
<!-- AltAz -->
<g id="node3" class="node"><title>AltAz</title>
<ellipse fill="none" stroke="black" cx="831.983" cy="-110.64" rx="31.2258" ry="21.4286"/>
<text text-anchor="middle" x="831.983" y="-113.64" font-family="Helvetica Neue, Helvetica, Arial, sans-serif" font-size="10.00">AltAz</text>
<text text-anchor="middle" x="831.983" y="-102.64" font-family="Helvetica Neue, Helvetica, Arial, sans-serif" font-size="10.00">`altaz`</text>
</g>
<!-- AltAz&#45;&gt;AltAz -->
<g id="edge3" class="edge"><title>AltAz&#45;&gt;AltAz</title>
<path fill="none" stroke="black" d="M860.737,-118.857C871.855,-119.223 881.095,-116.483 881.095,-110.64 881.095,-106.713 876.924,-104.188 870.815,-103.065"/>
<polygon fill="black" stroke="black" points="870.94,-99.566 860.737,-102.422 870.494,-106.552 870.94,-99.566"/>
<text text-anchor="middle" x="888.095" y="-108.14" font-family="Helvetica Neue, Helvetica, Arial, sans-serif" font-size="10.00">1.0</text>
</g>
<!-- CIRS -->
<g id="node4" class="node"><title>CIRS</title>
<ellipse fill="none" stroke="black" cx="777.983" cy="-200.066" rx="28.0702" ry="21.4286"/>
<text text-anchor="middle" x="777.983" y="-203.066" font-family="Helvetica Neue, Helvetica, Arial, sans-serif" font-size="10.00">CIRS</text>
<text text-anchor="middle" x="777.983" y="-192.066" font-family="Helvetica Neue, Helvetica, Arial, sans-serif" font-size="10.00">`cirs`</text>
</g>
<!-- AltAz&#45;&gt;CIRS -->
<g id="edge4" class="edge"><title>AltAz&#45;&gt;CIRS</title>
<path fill="none" stroke="black" d="M825.128,-131.494C821.533,-140.749 816.687,-151.711 810.983,-160.853 808.025,-165.594 804.494,-170.343 800.858,-174.803"/>
<polygon fill="black" stroke="black" points="798.152,-172.582 794.303,-182.453 803.467,-177.137 798.152,-172.582"/>
<text text-anchor="middle" x="823.983" y="-152.853" font-family="Helvetica Neue, Helvetica, Arial, sans-serif" font-size="10.00">1.0</text>
</g>
<!-- CIRS&#45;&gt;AltAz -->
<g id="edge36" class="edge"><title>CIRS&#45;&gt;AltAz</title>
<path fill="none" stroke="black" d="M781.709,-178.955C784.021,-169.644 787.605,-158.709 792.983,-149.853 796.198,-144.558 800.312,-139.477 804.658,-134.845"/>
<polygon fill="black" stroke="black" points="807.421,-137.035 812.071,-127.515 802.499,-132.057 807.421,-137.035"/>
<text text-anchor="middle" x="799.983" y="-152.853" font-family="Helvetica Neue, Helvetica, Arial, sans-serif" font-size="10.00">1.0</text>
</g>
<!-- CIRS&#45;&gt;CIRS -->
<g id="edge37" class="edge"><title>CIRS&#45;&gt;CIRS</title>
<path fill="none" stroke="black" d="M804.152,-208.244C815.039,-208.807 824.267,-206.082 824.267,-200.066 824.267,-196.118 820.293,-193.587 814.484,-192.473"/>
<polygon fill="black" stroke="black" points="814.334,-188.959 804.152,-191.889 813.939,-195.948 814.334,-188.959"/>
<text text-anchor="middle" x="831.267" y="-197.566" font-family="Helvetica Neue, Helvetica, Arial, sans-serif" font-size="10.00">1.0</text>
</g>
<!-- GCRS -->
<g id="node5" class="node"><title>GCRS</title>
<ellipse fill="none" stroke="black" cx="276.983" cy="-110.64" rx="31.6406" ry="21.4286"/>
<text text-anchor="middle" x="276.983" y="-113.64" font-family="Helvetica Neue, Helvetica, Arial, sans-serif" font-size="10.00">GCRS</text>
<text text-anchor="middle" x="276.983" y="-102.64" font-family="Helvetica Neue, Helvetica, Arial, sans-serif" font-size="10.00">`gcrs`</text>
</g>
<!-- CIRS&#45;&gt;GCRS -->
<g id="edge35" class="edge"><title>CIRS&#45;&gt;GCRS</title>
<path fill="none" stroke="black" d="M756.664,-185.725C751.672,-183.086 746.265,-180.596 740.983,-178.853 685.593,-160.571 668.725,-169.104 610.983,-160.853 505.179,-145.733 380.641,-127.184 317.74,-117.762"/>
<polygon fill="black" stroke="black" points="318.23,-114.296 307.822,-116.275 317.192,-121.219 318.23,-114.296"/>
<text text-anchor="middle" x="617.983" y="-152.853" font-family="Helvetica Neue, Helvetica, Arial, sans-serif" font-size="10.00">1.0</text>
</g>
<!-- ICRS -->
<g id="node9" class="node"><title>ICRS</title>
<ellipse fill="none" stroke="black" cx="418.983" cy="-289.492" rx="28.0702" ry="21.4286"/>
<text text-anchor="middle" x="418.983" y="-292.492" font-family="Helvetica Neue, Helvetica, Arial, sans-serif" font-size="10.00">ICRS</text>
<text text-anchor="middle" x="418.983" y="-281.492" font-family="Helvetica Neue, Helvetica, Arial, sans-serif" font-size="10.00">`icrs`</text>
</g>
<!-- CIRS&#45;&gt;ICRS -->
<g id="edge39" class="edge"><title>CIRS&#45;&gt;ICRS</title>
<path fill="none" stroke="black" d="M760.674,-216.852C747.295,-228.105 727.772,-242.555 707.983,-250.279 623.164,-283.384 514.832,-288.832 457.924,-289.146"/>
<polygon fill="black" stroke="black" points="457.581,-285.646 447.582,-289.148 457.583,-292.646 457.581,-285.646"/>
<text text-anchor="middle" x="734.983" y="-242.279" font-family="Helvetica Neue, Helvetica, Arial, sans-serif" font-size="10.00">1.0</text>
</g>
<!-- ITRS -->
<g id="node16" class="node"><title>ITRS</title>
<ellipse fill="none" stroke="black" cx="721.983" cy="-110.64" rx="27.6545" ry="21.4286"/>
<text text-anchor="middle" x="721.983" y="-113.64" font-family="Helvetica Neue, Helvetica, Arial, sans-serif" font-size="10.00">ITRS</text>
<text text-anchor="middle" x="721.983" y="-102.64" font-family="Helvetica Neue, Helvetica, Arial, sans-serif" font-size="10.00">`itrs`</text>
</g>
<!-- CIRS&#45;&gt;ITRS -->
<g id="edge38" class="edge"><title>CIRS&#45;&gt;ITRS</title>
<path fill="none" stroke="black" d="M755.817,-186.522C742.232,-178.323 726.745,-167.873 722.983,-160.853 719.91,-155.119 718.576,-148.443 718.219,-141.893"/>
<polygon fill="black" stroke="black" points="721.719,-141.902 718.352,-131.857 714.72,-141.81 721.719,-141.902"/>
<text text-anchor="middle" x="729.983" y="-152.853" font-family="Helvetica Neue, Helvetica, Arial, sans-serif" font-size="10.00">1.0</text>
</g>
<!-- GCRS&#45;&gt;CIRS -->
<g id="edge7" class="edge"><title>GCRS&#45;&gt;CIRS</title>
<path fill="none" stroke="black" d="M308.821,-112.386C385.302,-115 584.623,-126.702 740.983,-178.853 743.127,-179.568 745.292,-180.404 747.441,-181.323"/>
<polygon fill="black" stroke="black" points="746.127,-184.574 756.656,-185.75 749.158,-178.265 746.127,-184.574"/>
<text text-anchor="middle" x="673.983" y="-152.853" font-family="Helvetica Neue, Helvetica, Arial, sans-serif" font-size="10.00">1.0</text>
</g>
<!-- GCRS&#45;&gt;GCRS -->
<g id="edge6" class="edge"><title>GCRS&#45;&gt;GCRS</title>
<path fill="none" stroke="black" d="M306.648,-118.871C317.703,-119.141 326.803,-116.397 326.803,-110.64 326.803,-106.771 322.695,-104.263 316.646,-103.116"/>
<polygon fill="black" stroke="black" points="316.87,-99.6227 306.648,-102.408 316.375,-106.605 316.87,-99.6227"/>
<text text-anchor="middle" x="333.803" y="-108.14" font-family="Helvetica Neue, Helvetica, Arial, sans-serif" font-size="10.00">1.0</text>
</g>
<!-- GeocentricTrueEcliptic -->
<g id="node6" class="node"><title>GeocentricTrueEcliptic</title>
<ellipse fill="none" stroke="black" cx="143.983" cy="-21.2132" rx="82.9636" ry="21.4286"/>
<text text-anchor="middle" x="143.983" y="-24.2132" font-family="Helvetica Neue, Helvetica, Arial, sans-serif" font-size="10.00">GeocentricTrueEcliptic</text>
<text text-anchor="middle" x="143.983" y="-13.2132" font-family="Helvetica Neue, Helvetica, Arial, sans-serif" font-size="10.00">`geocentrictrueecliptic`</text>
</g>
<!-- GCRS&#45;&gt;GeocentricTrueEcliptic -->
<g id="edge5" class="edge"><title>GCRS&#45;&gt;GeocentricTrueEcliptic</title>
<path fill="none" stroke="black" d="M246.702,-103.744C224.908,-98.2879 195.802,-88.3854 174.983,-71.4264 168.377,-66.0455 162.758,-58.8656 158.193,-51.6571"/>
<polygon fill="black" stroke="black" points="161.016,-49.5478 152.98,-42.6442 154.957,-53.0528 161.016,-49.5478"/>
<text text-anchor="middle" x="181.983" y="-63.4264" font-family="Helvetica Neue, Helvetica, Arial, sans-serif" font-size="10.00">1.0</text>
</g>
<!-- HCRS -->
<g id="node7" class="node"><title>HCRS</title>
<ellipse fill="none" stroke="black" cx="276.983" cy="-21.2132" rx="31.6406" ry="21.4286"/>
<text text-anchor="middle" x="276.983" y="-24.2132" font-family="Helvetica Neue, Helvetica, Arial, sans-serif" font-size="10.00">HCRS</text>
<text text-anchor="middle" x="276.983" y="-13.2132" font-family="Helvetica Neue, Helvetica, Arial, sans-serif" font-size="10.00">`hcrs`</text>
</g>
<!-- GCRS&#45;&gt;HCRS -->
<g id="edge8" class="edge"><title>GCRS&#45;&gt;HCRS</title>
<path fill="none" stroke="black" d="M276.983,-89.3625C276.983,-78.5165 276.983,-64.9377 276.983,-52.8341"/>
<polygon fill="black" stroke="black" points="280.483,-52.6832 276.983,-42.6832 273.483,-52.6832 280.483,-52.6832"/>
<text text-anchor="middle" x="283.983" y="-63.4264" font-family="Helvetica Neue, Helvetica, Arial, sans-serif" font-size="10.00">1.0</text>
</g>
<!-- PrecessedGeocentric -->
<g id="node8" class="node"><title>PrecessedGeocentric</title>
<ellipse fill="none" stroke="black" cx="439.983" cy="-21.2132" rx="81.135" ry="21.4286"/>
<text text-anchor="middle" x="439.983" y="-24.2132" font-family="Helvetica Neue, Helvetica, Arial, sans-serif" font-size="10.00">PrecessedGeocentric</text>
<text text-anchor="middle" x="439.983" y="-13.2132" font-family="Helvetica Neue, Helvetica, Arial, sans-serif" font-size="10.00">`precessedgeocentric`</text>
</g>
<!-- GCRS&#45;&gt;PrecessedGeocentric -->
<g id="edge9" class="edge"><title>GCRS&#45;&gt;PrecessedGeocentric</title>
<path fill="none" stroke="black" d="M301.034,-96.7395C326.154,-83.2664 366.088,-61.8472 396.712,-45.4219"/>
<polygon fill="black" stroke="black" points="398.732,-48.3101 405.89,-40.499 395.423,-42.1414 398.732,-48.3101"/>
<text text-anchor="middle" x="375.983" y="-63.4264" font-family="Helvetica Neue, Helvetica, Arial, sans-serif" font-size="10.00">1.0</text>
</g>
<!-- GCRS&#45;&gt;ICRS -->
<g id="edge10" class="edge"><title>GCRS&#45;&gt;ICRS</title>
<path fill="none" stroke="black" d="M255.854,-127.067C228.71,-148.788 187.712,-189.304 210.983,-221.279 249.783,-274.593 331.731,-286.499 380.383,-288.646"/>
<polygon fill="black" stroke="black" points="380.416,-292.149 390.524,-288.974 380.642,-285.153 380.416,-292.149"/>
<text text-anchor="middle" x="217.983" y="-197.566" font-family="Helvetica Neue, Helvetica, Arial, sans-serif" font-size="10.00">1.0</text>
</g>
<!-- GeocentricTrueEcliptic&#45;&gt;GCRS -->
<g id="edge19" class="edge"><title>GeocentricTrueEcliptic&#45;&gt;GCRS</title>
<path fill="none" stroke="black" d="M172.965,-41.2643C194.759,-55.5902 224.543,-75.1688 246.656,-89.7049"/>
<polygon fill="black" stroke="black" points="244.742,-92.6346 255.021,-95.2029 248.587,-86.7852 244.742,-92.6346"/>
<text text-anchor="middle" x="225.983" y="-63.4264" font-family="Helvetica Neue, Helvetica, Arial, sans-serif" font-size="10.00">1.0</text>
</g>
<!-- HCRS&#45;&gt;HCRS -->
<g id="edge23" class="edge"><title>HCRS&#45;&gt;HCRS</title>
<path fill="none" stroke="black" d="M306.648,-29.4451C317.703,-29.715 326.803,-26.971 326.803,-21.2132 326.803,-17.3447 322.695,-14.8366 316.646,-13.6891"/>
<polygon fill="black" stroke="black" points="316.87,-10.1963 306.648,-12.9813 316.375,-17.1788 316.87,-10.1963"/>
<text text-anchor="middle" x="333.803" y="-18.7132" font-family="Helvetica Neue, Helvetica, Arial, sans-serif" font-size="10.00">1.0</text>
</g>
<!-- PrecessedGeocentric&#45;&gt;GCRS -->
<g id="edge34" class="edge"><title>PrecessedGeocentric&#45;&gt;GCRS</title>
<path fill="none" stroke="black" d="M422.412,-42.0603C412.764,-51.9856 400.111,-63.5326 386.983,-71.4264 365.295,-84.4669 338.516,-93.891 316.811,-100.117"/>
<polygon fill="black" stroke="black" points="315.635,-96.8109 306.921,-102.837 317.491,-103.56 315.635,-96.8109"/>
<text text-anchor="middle" x="408.983" y="-63.4264" font-family="Helvetica Neue, Helvetica, Arial, sans-serif" font-size="10.00">1.0</text>
</g>
<!-- ICRS&#45;&gt;CIRS -->
<g id="edge32" class="edge"><title>ICRS&#45;&gt;CIRS</title>
<path fill="none" stroke="black" d="M447.181,-286.232C504.522,-280.866 638.007,-264.415 740.983,-221.279 742.856,-220.494 744.758,-219.642 746.661,-218.747"/>
<polygon fill="black" stroke="black" points="748.692,-221.642 756.046,-214.016 745.541,-215.392 748.692,-221.642"/>
<text text-anchor="middle" x="696.983" y="-242.279" font-family="Helvetica Neue, Helvetica, Arial, sans-serif" font-size="10.00">1.0</text>
</g>
<!-- ICRS&#45;&gt;GCRS -->
<g id="edge28" class="edge"><title>ICRS&#45;&gt;GCRS</title>
<path fill="none" stroke="black" d="M390.788,-286.95C351.915,-283.947 280.383,-275.231 224.983,-250.279 205.612,-241.555 196.404,-240.321 186.983,-221.279 178.621,-204.379 179.341,-196.091 186.983,-178.853 197.4,-155.353 220.95,-138.234 241.347,-127.155"/>
<polygon fill="black" stroke="black" points="243.14,-130.168 250.439,-122.488 239.944,-123.941 243.14,-130.168"/>
<text text-anchor="middle" x="193.983" y="-197.566" font-family="Helvetica Neue, Helvetica, Arial, sans-serif" font-size="10.00">1.0</text>
</g>
<!-- ICRS&#45;&gt;FK5 -->
<g id="edge30" class="edge"><title>ICRS&#45;&gt;FK5</title>
<path fill="none" stroke="black" d="M403.512,-307.463C393.177,-317.958 378.802,-331.035 363.983,-339.706 340.147,-353.651 310.465,-363.487 287.647,-369.684"/>
<polygon fill="black" stroke="black" points="286.487,-366.37 277.692,-372.277 288.251,-373.144 286.487,-366.37"/>
<text text-anchor="middle" x="387.983" y="-331.706" font-family="Helvetica Neue, Helvetica, Arial, sans-serif" font-size="10.00">1.0</text>
</g>
<!-- HeliocentricTrueEcliptic -->
<g id="node13" class="node"><title>HeliocentricTrueEcliptic</title>
<ellipse fill="none" stroke="black" cx="319.983" cy="-200.066" rx="86.0347" ry="21.4286"/>
<text text-anchor="middle" x="319.983" y="-203.066" font-family="Helvetica Neue, Helvetica, Arial, sans-serif" font-size="10.00">HeliocentricTrueEcliptic</text>
<text text-anchor="middle" x="319.983" y="-192.066" font-family="Helvetica Neue, Helvetica, Arial, sans-serif" font-size="10.00">`heliocentrictrueecliptic`</text>
</g>
<!-- ICRS&#45;&gt;HeliocentricTrueEcliptic -->
<g id="edge33" class="edge"><title>ICRS&#45;&gt;HeliocentricTrueEcliptic</title>
<path fill="none" stroke="black" d="M393.609,-279.661C378.351,-273.349 359.36,-263.606 345.983,-250.279 340.429,-244.747 335.784,-237.778 332.03,-230.84"/>
<polygon fill="black" stroke="black" points="335.01,-228.968 327.461,-221.535 328.727,-232.054 335.01,-228.968"/>
<text text-anchor="middle" x="352.983" y="-242.279" font-family="Helvetica Neue, Helvetica, Arial, sans-serif" font-size="10.00">1.0</text>
</g>
<!-- BarycentricTrueEcliptic -->
<g id="node14" class="node"><title>BarycentricTrueEcliptic</title>
<ellipse fill="none" stroke="black" cx="508.983" cy="-200.066" rx="84.7059" ry="21.4286"/>
<text text-anchor="middle" x="508.983" y="-203.066" font-family="Helvetica Neue, Helvetica, Arial, sans-serif" font-size="10.00">BarycentricTrueEcliptic</text>
<text text-anchor="middle" x="508.983" y="-192.066" font-family="Helvetica Neue, Helvetica, Arial, sans-serif" font-size="10.00">`barycentrictrueecliptic`</text>
</g>
<!-- ICRS&#45;&gt;BarycentricTrueEcliptic -->
<g id="edge31" class="edge"><title>ICRS&#45;&gt;BarycentricTrueEcliptic</title>
<path fill="none" stroke="black" d="M431.235,-270.192C438.191,-260.469 447.406,-248.631 456.983,-239.279 461.559,-234.81 466.681,-230.434 471.877,-226.332"/>
<polygon fill="black" stroke="black" points="474.188,-228.971 480.035,-220.136 469.954,-223.396 474.188,-228.971"/>
<text text-anchor="middle" x="463.983" y="-242.279" font-family="Helvetica Neue, Helvetica, Arial, sans-serif" font-size="10.00">1.0</text>
</g>
<!-- Galactocentric -->
<g id="node15" class="node"><title>Galactocentric</title>
<ellipse fill="none" stroke="black" cx="671.983" cy="-200.066" rx="60.2083" ry="21.4286"/>
<text text-anchor="middle" x="671.983" y="-203.066" font-family="Helvetica Neue, Helvetica, Arial, sans-serif" font-size="10.00">Galactocentric</text>
<text text-anchor="middle" x="671.983" y="-192.066" font-family="Helvetica Neue, Helvetica, Arial, sans-serif" font-size="10.00">`galactocentric`</text>
</g>
<!-- ICRS&#45;&gt;Galactocentric -->
<g id="edge29" class="edge"><title>ICRS&#45;&gt;Galactocentric</title>
<path fill="none" stroke="black" d="M444.166,-279.79C485.113,-265.64 566.933,-237.367 620.555,-218.837"/>
<polygon fill="black" stroke="black" points="621.914,-222.071 630.223,-215.497 619.628,-215.455 621.914,-222.071"/>
<text text-anchor="middle" x="567.983" y="-242.279" font-family="Helvetica Neue, Helvetica, Arial, sans-serif" font-size="10.00">1.0</text>
</g>
<!-- Galactic&#45;&gt;FK4NoETerms -->
<g id="edge17" class="edge"><title>Galactic&#45;&gt;FK4NoETerms</title>
<path fill="none" stroke="black" d="M161.694,-310.815C168.878,-341.803 182.616,-401.06 190.973,-437.11"/>
<polygon fill="black" stroke="black" points="187.611,-438.107 193.28,-447.058 194.431,-436.526 187.611,-438.107"/>
<text text-anchor="middle" x="189.983" y="-376.419" font-family="Helvetica Neue, Helvetica, Arial, sans-serif" font-size="10.00">1.0</text>
</g>
<!-- Galactic&#45;&gt;FK5 -->
<g id="edge16" class="edge"><title>Galactic&#45;&gt;FK5</title>
<path fill="none" stroke="black" d="M189.875,-302.082C203.665,-308.258 219.01,-317.032 229.983,-328.706 235.271,-334.331 239.435,-341.442 242.651,-348.497"/>
<polygon fill="black" stroke="black" points="239.474,-349.976 246.465,-357.937 245.964,-347.354 239.474,-349.976"/>
<text text-anchor="middle" x="244.983" y="-331.706" font-family="Helvetica Neue, Helvetica, Arial, sans-serif" font-size="10.00">1.0</text>
</g>
<!-- Supergalactic -->
<g id="node12" class="node"><title>Supergalactic</title>
<ellipse fill="none" stroke="black" cx="57.9828" cy="-200.066" rx="57.9655" ry="21.4286"/>
<text text-anchor="middle" x="57.9828" y="-203.066" font-family="Helvetica Neue, Helvetica, Arial, sans-serif" font-size="10.00">Supergalactic</text>
<text text-anchor="middle" x="57.9828" y="-192.066" font-family="Helvetica Neue, Helvetica, Arial, sans-serif" font-size="10.00">`supergalactic`</text>
</g>
<!-- Galactic&#45;&gt;Supergalactic -->
<g id="edge15" class="edge"><title>Galactic&#45;&gt;Supergalactic</title>
<path fill="none" stroke="black" d="M123.07,-277.589C108.326,-271.469 91.7681,-262.549 79.9828,-250.279 74.7234,-244.804 70.588,-237.856 67.3925,-230.92"/>
<polygon fill="black" stroke="black" points="70.6132,-229.549 63.6002,-221.607 64.1302,-232.189 70.6132,-229.549"/>
<text text-anchor="middle" x="86.9828" y="-242.279" font-family="Helvetica Neue, Helvetica, Arial, sans-serif" font-size="10.00">1.0</text>
</g>
<!-- FK5&#45;&gt;FK4NoETerms -->
<g id="edge27" class="edge"><title>FK5&#45;&gt;FK4NoETerms</title>
<path fill="none" stroke="black" d="M244.604,-399.717C240.795,-408.959 235.738,-419.927 229.983,-429.132 227.712,-432.764 225.123,-436.42 222.424,-439.955"/>
<polygon fill="black" stroke="black" points="219.561,-437.929 216.023,-447.916 225.017,-442.316 219.561,-437.929"/>
<text text-anchor="middle" x="242.983" y="-421.132" font-family="Helvetica Neue, Helvetica, Arial, sans-serif" font-size="10.00">1.0</text>
</g>
<!-- FK5&#45;&gt;ICRS -->
<g id="edge26" class="edge"><title>FK5&#45;&gt;ICRS</title>
<path fill="none" stroke="black" d="M274.159,-366.309C303.069,-351.175 353.836,-324.597 386.933,-307.271"/>
<polygon fill="black" stroke="black" points="388.943,-310.169 396.179,-302.43 385.696,-303.968 388.943,-310.169"/>
<text text-anchor="middle" x="352.983" y="-331.706" font-family="Helvetica Neue, Helvetica, Arial, sans-serif" font-size="10.00">1.0</text>
</g>
<!-- FK5&#45;&gt;Galactic -->
<g id="edge24" class="edge"><title>FK5&#45;&gt;Galactic</title>
<path fill="none" stroke="black" d="M234.999,-362.289C220.872,-349.289 200.502,-330.542 184.118,-315.464"/>
<polygon fill="black" stroke="black" points="186.169,-312.595 176.44,-308.399 181.428,-317.746 186.169,-312.595"/>
<text text-anchor="middle" x="217.983" y="-331.706" font-family="Helvetica Neue, Helvetica, Arial, sans-serif" font-size="10.00">1.0</text>
</g>
<!-- FK5&#45;&gt;FK5 -->
<g id="edge25" class="edge"><title>FK5&#45;&gt;FK5</title>
<path fill="none" stroke="black" d="M276.972,-387.07C287.752,-387.737 296.983,-385.02 296.983,-378.919 296.983,-374.915 293.008,-372.368 287.228,-371.279"/>
<polygon fill="black" stroke="black" points="287.134,-367.77 276.972,-370.768 286.785,-374.761 287.134,-367.77"/>
<text text-anchor="middle" x="303.983" y="-376.419" font-family="Helvetica Neue, Helvetica, Arial, sans-serif" font-size="10.00">1.0</text>
</g>
<!-- Supergalactic&#45;&gt;Galactic -->
<g id="edge21" class="edge"><title>Supergalactic&#45;&gt;Galactic</title>
<path fill="none" stroke="black" d="M79.3576,-219.942C93.9086,-232.792 113.312,-249.927 129.08,-263.851"/>
<polygon fill="black" stroke="black" points="127.136,-266.804 136.949,-270.8 131.77,-261.558 127.136,-266.804"/>
<text text-anchor="middle" x="120.983" y="-242.279" font-family="Helvetica Neue, Helvetica, Arial, sans-serif" font-size="10.00">1.0</text>
</g>
<!-- HeliocentricTrueEcliptic&#45;&gt;ICRS -->
<g id="edge18" class="edge"><title>HeliocentricTrueEcliptic&#45;&gt;ICRS</title>
<path fill="none" stroke="black" d="M342.393,-220.857C357.574,-234.263 377.667,-252.007 393.463,-265.956"/>
<polygon fill="black" stroke="black" points="391.471,-268.866 401.284,-272.862 396.105,-263.619 391.471,-268.866"/>
<text text-anchor="middle" x="382.983" y="-242.279" font-family="Helvetica Neue, Helvetica, Arial, sans-serif" font-size="10.00">1.0</text>
</g>
<!-- BarycentricTrueEcliptic&#45;&gt;ICRS -->
<g id="edge20" class="edge"><title>BarycentricTrueEcliptic&#45;&gt;ICRS</title>
<path fill="none" stroke="black" d="M497.264,-221.502C491.307,-230.885 483.525,-241.786 474.983,-250.279 467.471,-257.748 458.319,-264.688 449.609,-270.549"/>
<polygon fill="black" stroke="black" points="447.626,-267.663 441.124,-276.028 451.423,-273.544 447.626,-267.663"/>
<text text-anchor="middle" x="491.983" y="-242.279" font-family="Helvetica Neue, Helvetica, Arial, sans-serif" font-size="10.00">1.0</text>
</g>
<!-- Galactocentric&#45;&gt;ICRS -->
<g id="edge22" class="edge"><title>Galactocentric&#45;&gt;ICRS</title>
<path fill="none" stroke="black" d="M651.947,-220.339C640.059,-230.729 624.181,-242.899 607.983,-250.279 558.765,-272.703 496.393,-282.044 457.073,-285.883"/>
<polygon fill="black" stroke="black" points="456.754,-282.398 447.11,-286.786 457.386,-289.369 456.754,-282.398"/>
<text text-anchor="middle" x="633.983" y="-242.279" font-family="Helvetica Neue, Helvetica, Arial, sans-serif" font-size="10.00">1.0</text>
</g>
<!-- ITRS&#45;&gt;CIRS -->
<g id="edge40" class="edge"><title>ITRS&#45;&gt;CIRS</title>
<path fill="none" stroke="black" d="M733.842,-130.154C741.634,-142.319 751.959,-158.437 760.663,-172.027"/>
<polygon fill="black" stroke="black" points="757.766,-173.992 766.107,-180.525 763.66,-170.217 757.766,-173.992"/>
<text text-anchor="middle" x="759.983" y="-152.853" font-family="Helvetica Neue, Helvetica, Arial, sans-serif" font-size="10.00">1.0</text>
</g>
<!-- ITRS&#45;&gt;ITRS -->
<g id="edge41" class="edge"><title>ITRS&#45;&gt;ITRS</title>
<path fill="none" stroke="black" d="M747.753,-118.817C758.473,-119.381 767.56,-116.655 767.56,-110.64 767.56,-106.692 763.646,-104.161 757.926,-103.047"/>
<polygon fill="black" stroke="black" points="757.937,-99.5417 747.753,-102.462 757.535,-106.53 757.937,-99.5417"/>
<text text-anchor="middle" x="774.56" y="-108.14" font-family="Helvetica Neue, Helvetica, Arial, sans-serif" font-size="10.00">1.0</text>
</g>
</g>
</svg>
