<?xml version="1.0" encoding="UTF-8" standalone="no"?>
<!DOCTYPE svg PUBLIC "-//W3C//DTD SVG 1.1//EN"
 "http://www.w3.org/Graphics/SVG/1.1/DTD/svg11.dtd">
<!-- Generated by graphviz version 2.38.0 (20140413.2041)
 -->
<!-- Title: %3 Pages: 1 -->
<svg width="212pt" height="260pt"
 viewBox="0.00 0.00 212.00 260.00" xmlns="http://www.w3.org/2000/svg" xmlns:xlink="http://www.w3.org/1999/xlink">
<g id="graph0" class="graph" transform="scale(1 1) rotate(0) translate(4 256)">
<title>%3</title>
<polygon fill="white" stroke="none" points="-4,4 -4,-256 208,-256 208,4 -4,4"/>
<!-- in0 -->
<g id="node1" class="node"><title>in0</title>
<text text-anchor="middle" x="46.5" y="-231.5" font-family="Helvetica Neue, Helvetica, Arial, sans-serif" font-size="10.00">input 0</text>
</g>
<!-- scale0 -->
<g id="node5" class="node"><title>scale0</title>
<polygon fill="none" stroke="black" points="93,-180 0,-180 0,-144 93,-144 93,-180"/>
<text text-anchor="middle" x="46.5" y="-159.5" font-family="Helvetica Neue, Helvetica, Arial, sans-serif" font-size="10.00">Scale(factor=1.2)</text>
</g>
<!-- in0&#45;&gt;scale0 -->
<g id="edge1" class="edge"><title>in0&#45;&gt;scale0</title>
<path fill="none" stroke="black" d="M46.5,-215.697C46.5,-207.983 46.5,-198.712 46.5,-190.112"/>
<polygon fill="black" stroke="black" points="50.0001,-190.104 46.5,-180.104 43.0001,-190.104 50.0001,-190.104"/>
</g>
<!-- in1 -->
<g id="node2" class="node"><title>in1</title>
<text text-anchor="middle" x="157.5" y="-231.5" font-family="Helvetica Neue, Helvetica, Arial, sans-serif" font-size="10.00">input 1</text>
</g>
<!-- scale1 -->
<g id="node6" class="node"><title>scale1</title>
<polygon fill="none" stroke="black" points="204,-180 111,-180 111,-144 204,-144 204,-180"/>
<text text-anchor="middle" x="157.5" y="-159.5" font-family="Helvetica Neue, Helvetica, Arial, sans-serif" font-size="10.00">Scale(factor=3.4)</text>
</g>
<!-- in1&#45;&gt;scale1 -->
<g id="edge3" class="edge"><title>in1&#45;&gt;scale1</title>
<path fill="none" stroke="black" d="M157.5,-215.697C157.5,-207.983 157.5,-198.712 157.5,-190.112"/>
<polygon fill="black" stroke="black" points="161,-190.104 157.5,-180.104 154,-190.104 161,-190.104"/>
</g>
<!-- out0 -->
<g id="node3" class="node"><title>out0</title>
<text text-anchor="middle" x="65.5" y="-15.5" font-family="Helvetica Neue, Helvetica, Arial, sans-serif" font-size="10.00">output 0</text>
</g>
<!-- out1 -->
<g id="node4" class="node"><title>out1</title>
<text text-anchor="middle" x="137.5" y="-15.5" font-family="Helvetica Neue, Helvetica, Arial, sans-serif" font-size="10.00">output 1</text>
</g>
<!-- rot0 -->
<g id="node7" class="node"><title>rot0</title>
<polygon fill="none" stroke="black" points="143.5,-108 59.5,-108 59.5,-72 143.5,-72 143.5,-108"/>
<text text-anchor="middle" x="101.5" y="-87.5" font-family="Helvetica Neue, Helvetica, Arial, sans-serif" font-size="10.00">Rotation2D(90)</text>
</g>
<!-- scale0&#45;&gt;rot0 -->
<g id="edge2" class="edge"><title>scale0&#45;&gt;rot0</title>
<path fill="none" stroke="black" d="M60.0955,-143.697C66.6227,-135.389 74.568,-125.277 81.7466,-116.141"/>
<polygon fill="black" stroke="black" points="84.6347,-118.13 88.0609,-108.104 79.1305,-113.805 84.6347,-118.13"/>
</g>
<!-- scale1&#45;&gt;rot0 -->
<g id="edge4" class="edge"><title>scale1&#45;&gt;rot0</title>
<path fill="none" stroke="black" d="M143.657,-143.697C137.011,-135.389 128.922,-125.277 121.613,-116.141"/>
<polygon fill="black" stroke="black" points="124.164,-113.727 115.183,-108.104 118.697,-118.099 124.164,-113.727"/>
</g>
<!-- rot0&#45;&gt;out0 -->
<g id="edge5" class="edge"><title>rot0&#45;&gt;out0</title>
<path fill="none" stroke="black" d="M92.6011,-71.6966C88.5032,-63.7284 83.5512,-54.0995 79.0073,-45.2641"/>
<polygon fill="black" stroke="black" points="81.9826,-43.3965 74.2965,-36.1043 75.7575,-46.598 81.9826,-43.3965"/>
</g>
<!-- rot0&#45;&gt;out1 -->
<g id="edge6" class="edge"><title>rot0&#45;&gt;out1</title>
<path fill="none" stroke="black" d="M110.399,-71.6966C114.497,-63.7284 119.449,-54.0995 123.993,-45.2641"/>
<polygon fill="black" stroke="black" points="127.242,-46.598 128.703,-36.1043 121.017,-43.3965 127.242,-46.598"/>
</g>
</g>
</svg>
