<?xml version="1.0" encoding="UTF-8" standalone="no"?>
<!DOCTYPE svg PUBLIC "-//W3C//DTD SVG 1.1//EN"
 "http://www.w3.org/Graphics/SVG/1.1/DTD/svg11.dtd">
<!-- Generated by graphviz version 2.38.0 (20140413.2041)
 -->
<!-- Title: inheritancee575030aed Pages: 1 -->
<svg width="576pt" height="246pt"
 viewBox="0.00 0.00 576.00 245.63" xmlns="http://www.w3.org/2000/svg" xmlns:xlink="http://www.w3.org/1999/xlink">
<g id="graph0" class="graph" transform="scale(0.952066 0.952066) rotate(0) translate(4 254)">
<title>inheritancee575030aed</title>
<polygon fill="white" stroke="none" points="-4,4 -4,-254 601,-254 601,4 -4,4"/>
<!-- AstropyWarning -->
<g id="node1" class="node"><title>AstropyWarning</title>
<g id="a_node1"><a xlink:href="../api/astropy.utils.exceptions.AstropyWarning.html#astropy.utils.exceptions.AstropyWarning" xlink:title="The base warning class from which all Astropy warnings should inherit.">
<polygon fill="none" stroke="black" stroke-width="0.5" points="91.5,-19 3.5,-19 3.5,-0 91.5,-0 91.5,-19"/>
<text text-anchor="middle" x="47.5" y="-7" font-family="Vera Sans, DejaVu Sans, Liberation Sans, Arial, Helvetica, sans" font-size="10.00">AstropyWarning</text>
</a>
</g>
</g>
<!-- UnitsWarning -->
<g id="node22" class="node"><title>UnitsWarning</title>
<g id="a_node22"><a xlink:href="../api/astropy.units.UnitsWarning.html#astropy.units.UnitsWarning" xlink:title="The base class for unit&#45;specific exceptions.">
<polygon fill="none" stroke="black" stroke-width="0.5" points="223,-19 146,-19 146,-0 223,-0 223,-19"/>
<text text-anchor="middle" x="184.5" y="-7" font-family="Vera Sans, DejaVu Sans, Liberation Sans, Arial, Helvetica, sans" font-size="10.00">UnitsWarning</text>
</a>
</g>
</g>
<!-- AstropyWarning&#45;&gt;UnitsWarning -->
<g id="edge17" class="edge"><title>AstropyWarning&#45;&gt;UnitsWarning</title>
<path fill="none" stroke="black" stroke-width="0.5" d="M91.586,-9.5C107.254,-9.5 124.951,-9.5 140.603,-9.5"/>
<polygon fill="black" stroke="black" stroke-width="0.5" points="140.826,-11.2501 145.826,-9.5 140.826,-7.7501 140.826,-11.2501"/>
</g>
<!-- CompositeUnit -->
<g id="node2" class="node"><title>CompositeUnit</title>
<g id="a_node2"><a xlink:href="../api/astropy.units.CompositeUnit.html#astropy.units.CompositeUnit" xlink:title="Create a composite unit using expressions of previously defined">
<polygon fill="none" stroke="black" stroke-width="0.5" points="225.5,-102 143.5,-102 143.5,-83 225.5,-83 225.5,-102"/>
<text text-anchor="middle" x="184.5" y="-90" font-family="Vera Sans, DejaVu Sans, Liberation Sans, Arial, Helvetica, sans" font-size="10.00">CompositeUnit</text>
</a>
</g>
</g>
<!-- UnitBase -->
<g id="node3" class="node"><title>UnitBase</title>
<g id="a_node3"><a xlink:href="../api/astropy.units.UnitBase.html#astropy.units.UnitBase" xlink:title="Abstract base class for units.">
<polygon fill="none" stroke="black" stroke-width="0.5" points="76,-74 19,-74 19,-55 76,-55 76,-74"/>
<text text-anchor="middle" x="47.5" y="-62" font-family="Vera Sans, DejaVu Sans, Liberation Sans, Arial, Helvetica, sans" font-size="10.00">UnitBase</text>
</a>
</g>
</g>
<!-- UnitBase&#45;&gt;CompositeUnit -->
<g id="edge1" class="edge"><title>UnitBase&#45;&gt;CompositeUnit</title>
<path fill="none" stroke="black" stroke-width="0.5" d="M76.145,-70.2338C93.9947,-73.9359 117.637,-78.8396 138.191,-83.1026"/>
<polygon fill="black" stroke="black" stroke-width="0.5" points="138.093,-84.8695 143.345,-84.1715 138.804,-81.4425 138.093,-84.8695"/>
</g>
<!-- NamedUnit -->
<g id="node14" class="node"><title>NamedUnit</title>
<g id="a_node14"><a xlink:href="../api/astropy.units.NamedUnit.html#astropy.units.NamedUnit" xlink:title="The base class of units that have a name.">
<polygon fill="none" stroke="black" stroke-width="0.5" points="218,-65 151,-65 151,-46 218,-46 218,-65"/>
<text text-anchor="middle" x="184.5" y="-53" font-family="Vera Sans, DejaVu Sans, Liberation Sans, Arial, Helvetica, sans" font-size="10.00">NamedUnit</text>
</a>
</g>
</g>
<!-- UnitBase&#45;&gt;NamedUnit -->
<g id="edge12" class="edge"><title>UnitBase&#45;&gt;NamedUnit</title>
<path fill="none" stroke="black" stroke-width="0.5" d="M76.145,-62.657C96.1413,-61.3239 123.408,-59.5061 145.457,-58.0362"/>
<polygon fill="black" stroke="black" stroke-width="0.5" points="145.781,-59.7686 150.653,-57.6898 145.548,-56.2763 145.781,-59.7686"/>
</g>
<!-- Decibel -->
<g id="node4" class="node"><title>Decibel</title>
<g id="a_node4"><a xlink:href="../api/astropy.units.function.Decibel.html#astropy.units.function.Decibel" xlink:title="Decibel">
<polygon fill="none" stroke="black" stroke-width="0.5" points="592.5,-176 538.5,-176 538.5,-157 592.5,-157 592.5,-176"/>
<text text-anchor="middle" x="565.5" y="-164" font-family="Vera Sans, DejaVu Sans, Liberation Sans, Arial, Helvetica, sans" font-size="10.00">Decibel</text>
</a>
</g>
</g>
<!-- LogQuantity -->
<g id="node5" class="node"><title>LogQuantity</title>
<g id="a_node5"><a xlink:href="../api/astropy.units.function.LogQuantity.html#astropy.units.function.LogQuantity" xlink:title="A representation of a (scaled) logarithm of a number with a unit">
<polygon fill="none" stroke="black" stroke-width="0.5" points="485,-139 415,-139 415,-120 485,-120 485,-139"/>
<text text-anchor="middle" x="450" y="-127" font-family="Vera Sans, DejaVu Sans, Liberation Sans, Arial, Helvetica, sans" font-size="10.00">LogQuantity</text>
</a>
</g>
</g>
<!-- LogQuantity&#45;&gt;Decibel -->
<g id="edge2" class="edge"><title>LogQuantity&#45;&gt;Decibel</title>
<path fill="none" stroke="black" stroke-width="0.5" d="M480.229,-139.028C496.539,-144.345 516.85,-150.967 533.445,-156.376"/>
<polygon fill="black" stroke="black" stroke-width="0.5" points="533.171,-158.128 538.467,-158.014 534.256,-154.8 533.171,-158.128"/>
</g>
<!-- Dex -->
<g id="node8" class="node"><title>Dex</title>
<g id="a_node8"><a xlink:href="../api/astropy.units.function.Dex.html#astropy.units.function.Dex" xlink:title="Dex">
<polygon fill="none" stroke="black" stroke-width="0.5" points="592.5,-139 538.5,-139 538.5,-120 592.5,-120 592.5,-139"/>
<text text-anchor="middle" x="565.5" y="-127" font-family="Vera Sans, DejaVu Sans, Liberation Sans, Arial, Helvetica, sans" font-size="10.00">Dex</text>
</a>
</g>
</g>
<!-- LogQuantity&#45;&gt;Dex -->
<g id="edge4" class="edge"><title>LogQuantity&#45;&gt;Dex</title>
<path fill="none" stroke="black" stroke-width="0.5" d="M485.054,-129.5C500.29,-129.5 518.14,-129.5 533.057,-129.5"/>
<polygon fill="black" stroke="black" stroke-width="0.5" points="533.41,-131.25 538.41,-129.5 533.41,-127.75 533.41,-131.25"/>
</g>
<!-- Magnitude -->
<g id="node16" class="node"><title>Magnitude</title>
<g id="a_node16"><a xlink:href="../api/astropy.units.function.Magnitude.html#astropy.units.function.Magnitude" xlink:title="Magnitude">
<polygon fill="none" stroke="black" stroke-width="0.5" points="597,-102 534,-102 534,-83 597,-83 597,-102"/>
<text text-anchor="middle" x="565.5" y="-90" font-family="Vera Sans, DejaVu Sans, Liberation Sans, Arial, Helvetica, sans" font-size="10.00">Magnitude</text>
</a>
</g>
</g>
<!-- LogQuantity&#45;&gt;Magnitude -->
<g id="edge11" class="edge"><title>LogQuantity&#45;&gt;Magnitude</title>
<path fill="none" stroke="black" stroke-width="0.5" d="M480.229,-119.972C495.467,-115.004 514.199,-108.898 530.129,-103.705"/>
<polygon fill="black" stroke="black" stroke-width="0.5" points="530.764,-105.338 534.976,-102.125 529.679,-102.011 530.764,-105.338"/>
</g>
<!-- DecibelUnit -->
<g id="node6" class="node"><title>DecibelUnit</title>
<g id="a_node6"><a xlink:href="../api/astropy.units.function.DecibelUnit.html#astropy.units.function.DecibelUnit" xlink:title="Logarithmic physical units expressed in dB">
<polygon fill="none" stroke="black" stroke-width="0.5" points="354,-250 286,-250 286,-231 354,-231 354,-250"/>
<text text-anchor="middle" x="320" y="-238" font-family="Vera Sans, DejaVu Sans, Liberation Sans, Arial, Helvetica, sans" font-size="10.00">DecibelUnit</text>
</a>
</g>
</g>
<!-- LogUnit -->
<g id="node7" class="node"><title>LogUnit</title>
<g id="a_node7"><a xlink:href="../api/astropy.units.function.LogUnit.html#astropy.units.function.LogUnit" xlink:title="Logarithmic unit containing a physical one">
<polygon fill="none" stroke="black" stroke-width="0.5" points="211.5,-213 157.5,-213 157.5,-194 211.5,-194 211.5,-213"/>
<text text-anchor="middle" x="184.5" y="-201" font-family="Vera Sans, DejaVu Sans, Liberation Sans, Arial, Helvetica, sans" font-size="10.00">LogUnit</text>
</a>
</g>
</g>
<!-- LogUnit&#45;&gt;DecibelUnit -->
<g id="edge3" class="edge"><title>LogUnit&#45;&gt;DecibelUnit</title>
<path fill="none" stroke="black" stroke-width="0.5" d="M211.557,-210.722C231.31,-216.196 258.75,-223.802 280.955,-229.956"/>
<polygon fill="black" stroke="black" stroke-width="0.5" points="280.612,-231.677 285.898,-231.326 281.547,-228.304 280.612,-231.677"/>
</g>
<!-- DexUnit -->
<g id="node9" class="node"><title>DexUnit</title>
<g id="a_node9"><a xlink:href="../api/astropy.units.function.DexUnit.html#astropy.units.function.DexUnit" xlink:title="Logarithmic physical units expressed in magnitudes">
<polygon fill="none" stroke="black" stroke-width="0.5" points="347,-213 293,-213 293,-194 347,-194 347,-213"/>
<text text-anchor="middle" x="320" y="-201" font-family="Vera Sans, DejaVu Sans, Liberation Sans, Arial, Helvetica, sans" font-size="10.00">DexUnit</text>
</a>
</g>
</g>
<!-- LogUnit&#45;&gt;DexUnit -->
<g id="edge5" class="edge"><title>LogUnit&#45;&gt;DexUnit</title>
<path fill="none" stroke="black" stroke-width="0.5" d="M211.557,-203.5C233.285,-203.5 264.315,-203.5 287.447,-203.5"/>
<polygon fill="black" stroke="black" stroke-width="0.5" points="287.552,-205.25 292.552,-203.5 287.552,-201.75 287.552,-205.25"/>
</g>
<!-- MagUnit -->
<g id="node15" class="node"><title>MagUnit</title>
<g id="a_node15"><a xlink:href="../api/astropy.units.function.MagUnit.html#astropy.units.function.MagUnit" xlink:title="Logarithmic physical units expressed in magnitudes">
<polygon fill="none" stroke="black" stroke-width="0.5" points="347,-176 293,-176 293,-157 347,-157 347,-176"/>
<text text-anchor="middle" x="320" y="-164" font-family="Vera Sans, DejaVu Sans, Liberation Sans, Arial, Helvetica, sans" font-size="10.00">MagUnit</text>
</a>
</g>
</g>
<!-- LogUnit&#45;&gt;MagUnit -->
<g id="edge10" class="edge"><title>LogUnit&#45;&gt;MagUnit</title>
<path fill="none" stroke="black" stroke-width="0.5" d="M211.557,-196.278C233.285,-190.256 264.315,-181.656 287.447,-175.245"/>
<polygon fill="black" stroke="black" stroke-width="0.5" points="288.201,-176.852 292.552,-173.83 287.267,-173.479 288.201,-176.852"/>
</g>
<!-- FunctionQuantity -->
<g id="node10" class="node"><title>FunctionQuantity</title>
<g id="a_node10"><a xlink:href="../api/astropy.units.function.FunctionQuantity.html#astropy.units.function.FunctionQuantity" xlink:title="A representation of a (scaled) function of a number with a unit.">
<polygon fill="none" stroke="black" stroke-width="0.5" points="366,-139 274,-139 274,-120 366,-120 366,-139"/>
<text text-anchor="middle" x="320" y="-127" font-family="Vera Sans, DejaVu Sans, Liberation Sans, Arial, Helvetica, sans" font-size="10.00">FunctionQuantity</text>
</a>
</g>
</g>
<!-- FunctionQuantity&#45;&gt;LogQuantity -->
<g id="edge8" class="edge"><title>FunctionQuantity&#45;&gt;LogQuantity</title>
<path fill="none" stroke="black" stroke-width="0.5" d="M366.128,-129.5C380.234,-129.5 395.684,-129.5 409.382,-129.5"/>
<polygon fill="black" stroke="black" stroke-width="0.5" points="409.736,-131.25 414.736,-129.5 409.736,-127.75 409.736,-131.25"/>
</g>
<!-- Quantity -->
<g id="node11" class="node"><title>Quantity</title>
<g id="a_node11"><a xlink:href="../api/astropy.units.quantity.Quantity.html#astropy.units.quantity.Quantity" xlink:title="A `~astropy.units.Quantity` represents a number with some associated unit.">
<polygon fill="none" stroke="black" stroke-width="0.5" points="211.5,-139 157.5,-139 157.5,-120 211.5,-120 211.5,-139"/>
<text text-anchor="middle" x="184.5" y="-127" font-family="Vera Sans, DejaVu Sans, Liberation Sans, Arial, Helvetica, sans" font-size="10.00">Quantity</text>
</a>
</g>
</g>
<!-- Quantity&#45;&gt;FunctionQuantity -->
<g id="edge6" class="edge"><title>Quantity&#45;&gt;FunctionQuantity</title>
<path fill="none" stroke="black" stroke-width="0.5" d="M211.557,-129.5C227.718,-129.5 249.025,-129.5 268.4,-129.5"/>
<polygon fill="black" stroke="black" stroke-width="0.5" points="268.808,-131.25 273.808,-129.5 268.808,-127.75 268.808,-131.25"/>
</g>
<!-- FunctionUnitBase -->
<g id="node12" class="node"><title>FunctionUnitBase</title>
<g id="a_node12"><a xlink:href="../api/astropy.units.function.FunctionUnitBase.html#astropy.units.function.FunctionUnitBase" xlink:title="Abstract base class for function units.">
<polygon fill="none" stroke="black" stroke-width="0.5" points="95,-213 0,-213 0,-194 95,-194 95,-213"/>
<text text-anchor="middle" x="47.5" y="-201" font-family="Vera Sans, DejaVu Sans, Liberation Sans, Arial, Helvetica, sans" font-size="10.00">FunctionUnitBase</text>
</a>
</g>
</g>
<!-- FunctionUnitBase&#45;&gt;LogUnit -->
<g id="edge9" class="edge"><title>FunctionUnitBase&#45;&gt;LogUnit</title>
<path fill="none" stroke="black" stroke-width="0.5" d="M95.3376,-203.5C114.11,-203.5 135.241,-203.5 152.11,-203.5"/>
<polygon fill="black" stroke="black" stroke-width="0.5" points="152.2,-205.25 157.2,-203.5 152.2,-201.75 152.2,-205.25"/>
</g>
<!-- IrreducibleUnit -->
<g id="node13" class="node"><title>IrreducibleUnit</title>
<g id="a_node13"><a xlink:href="../api/astropy.units.IrreducibleUnit.html#astropy.units.IrreducibleUnit" xlink:title="Irreducible units are the units that all other units are defined">
<polygon fill="none" stroke="black" stroke-width="0.5" points="360.5,-83 279.5,-83 279.5,-64 360.5,-64 360.5,-83"/>
<text text-anchor="middle" x="320" y="-71" font-family="Vera Sans, DejaVu Sans, Liberation Sans, Arial, Helvetica, sans" font-size="10.00">IrreducibleUnit</text>
</a>
</g>
</g>
<!-- UnrecognizedUnit -->
<g id="node23" class="node"><title>UnrecognizedUnit</title>
<g id="a_node23"><a xlink:href="../api/astropy.units.UnrecognizedUnit.html#astropy.units.UnrecognizedUnit" xlink:title="A unit that did not parse correctly. &#160;This allows for">
<polygon fill="none" stroke="black" stroke-width="0.5" points="498,-83 402,-83 402,-64 498,-64 498,-83"/>
<text text-anchor="middle" x="450" y="-71" font-family="Vera Sans, DejaVu Sans, Liberation Sans, Arial, Helvetica, sans" font-size="10.00">UnrecognizedUnit</text>
</a>
</g>
</g>
<!-- IrreducibleUnit&#45;&gt;UnrecognizedUnit -->
<g id="edge18" class="edge"><title>IrreducibleUnit&#45;&gt;UnrecognizedUnit</title>
<path fill="none" stroke="black" stroke-width="0.5" d="M360.798,-73.5C372.1,-73.5 384.583,-73.5 396.513,-73.5"/>
<polygon fill="black" stroke="black" stroke-width="0.5" points="396.588,-75.2501 401.588,-73.5 396.588,-71.7501 396.588,-75.2501"/>
</g>
<!-- NamedUnit&#45;&gt;IrreducibleUnit -->
<g id="edge7" class="edge"><title>NamedUnit&#45;&gt;IrreducibleUnit</title>
<path fill="none" stroke="black" stroke-width="0.5" d="M218.158,-59.9033C234.951,-62.1675 255.679,-64.9623 273.966,-67.4281"/>
<polygon fill="black" stroke="black" stroke-width="0.5" points="273.865,-69.1802 279.054,-68.1141 274.333,-65.7116 273.865,-69.1802"/>
</g>
<!-- Unit -->
<g id="node18" class="node"><title>Unit</title>
<g id="a_node18"><a xlink:href="../api/astropy.units.Unit.html#astropy.units.Unit" xlink:title="The main unit class.">
<polygon fill="none" stroke="black" stroke-width="0.5" points="347,-46 293,-46 293,-27 347,-27 347,-46"/>
<text text-anchor="middle" x="320" y="-34" font-family="Vera Sans, DejaVu Sans, Liberation Sans, Arial, Helvetica, sans" font-size="10.00">Unit</text>
</a>
</g>
</g>
<!-- NamedUnit&#45;&gt;Unit -->
<g id="edge15" class="edge"><title>NamedUnit&#45;&gt;Unit</title>
<path fill="none" stroke="black" stroke-width="0.5" d="M218.158,-50.8521C239.364,-47.834 266.846,-43.9227 287.763,-40.9457"/>
<polygon fill="black" stroke="black" stroke-width="0.5" points="288.228,-42.6472 292.932,-40.2101 287.735,-39.1821 288.228,-42.6472"/>
</g>
<!-- PrefixUnit -->
<g id="node17" class="node"><title>PrefixUnit</title>
<g id="a_node17"><a xlink:href="../api/astropy.units.PrefixUnit.html#astropy.units.PrefixUnit" xlink:title="A unit that is simply a SI&#45;prefixed version of another unit.">
<polygon fill="none" stroke="black" stroke-width="0.5" points="480,-46 420,-46 420,-27 480,-27 480,-46"/>
<text text-anchor="middle" x="450" y="-34" font-family="Vera Sans, DejaVu Sans, Liberation Sans, Arial, Helvetica, sans" font-size="10.00">PrefixUnit</text>
</a>
</g>
</g>
<!-- Unit&#45;&gt;PrefixUnit -->
<g id="edge13" class="edge"><title>Unit&#45;&gt;PrefixUnit</title>
<path fill="none" stroke="black" stroke-width="0.5" d="M347.212,-36.5C366.63,-36.5 393.281,-36.5 414.441,-36.5"/>
<polygon fill="black" stroke="black" stroke-width="0.5" points="414.694,-38.2501 419.694,-36.5 414.694,-34.7501 414.694,-38.2501"/>
</g>
<!-- ndarray -->
<g id="node19" class="node"><title>ndarray</title>
<g id="a_node19"><a xlink:title="ndarray(shape, dtype=float, buffer=None, offset=0,">
<polygon fill="none" stroke="black" stroke-width="0.5" points="74.5,-139 20.5,-139 20.5,-120 74.5,-120 74.5,-139"/>
<text text-anchor="middle" x="47.5" y="-127" font-family="Vera Sans, DejaVu Sans, Liberation Sans, Arial, Helvetica, sans" font-size="10.00">ndarray</text>
</a>
</g>
</g>
<!-- ndarray&#45;&gt;Quantity -->
<g id="edge14" class="edge"><title>ndarray&#45;&gt;Quantity</title>
<path fill="none" stroke="black" stroke-width="0.5" d="M74.5294,-129.5C96.6115,-129.5 128.361,-129.5 151.898,-129.5"/>
<polygon fill="black" stroke="black" stroke-width="0.5" points="152.09,-131.25 157.09,-129.5 152.09,-127.75 152.09,-131.25"/>
</g>
<!-- UnitConversionError -->
<g id="node20" class="node"><title>UnitConversionError</title>
<g id="a_node20"><a xlink:href="../api/astropy.units.UnitConversionError.html#astropy.units.UnitConversionError" xlink:title="Used specifically for errors related to converting between units or">
<polygon fill="none" stroke="black" stroke-width="0.5" points="238,-250 131,-250 131,-231 238,-231 238,-250"/>
<text text-anchor="middle" x="184.5" y="-238" font-family="Vera Sans, DejaVu Sans, Liberation Sans, Arial, Helvetica, sans" font-size="10.00">UnitConversionError</text>
</a>
</g>
</g>
<!-- UnitsError -->
<g id="node21" class="node"><title>UnitsError</title>
<g id="a_node21"><a xlink:href="../api/astropy.units.UnitsError.html#astropy.units.UnitsError" xlink:title="The base class for unit&#45;specific exceptions.">
<polygon fill="none" stroke="black" stroke-width="0.5" points="78.5,-250 16.5,-250 16.5,-231 78.5,-231 78.5,-250"/>
<text text-anchor="middle" x="47.5" y="-238" font-family="Vera Sans, DejaVu Sans, Liberation Sans, Arial, Helvetica, sans" font-size="10.00">UnitsError</text>
</a>
</g>
</g>
<!-- UnitsError&#45;&gt;UnitConversionError -->
<g id="edge16" class="edge"><title>UnitsError&#45;&gt;UnitConversionError</title>
<path fill="none" stroke="black" stroke-width="0.5" d="M78.7966,-240.5C92.5559,-240.5 109.314,-240.5 125.354,-240.5"/>
<polygon fill="black" stroke="black" stroke-width="0.5" points="125.761,-242.25 130.761,-240.5 125.761,-238.75 125.761,-242.25"/>
</g>
</g>
</svg>
