<?xml version="1.0" encoding="UTF-8" standalone="no"?>
<!DOCTYPE svg PUBLIC "-//W3C//DTD SVG 1.1//EN"
 "http://www.w3.org/Graphics/SVG/1.1/DTD/svg11.dtd">
<!-- Generated by graphviz version 2.38.0 (20140413.2041)
 -->
<!-- Title: inheritancef76d7bfe37 Pages: 1 -->
<svg width="536pt" height="864pt"
 viewBox="0.00 0.00 536.31 864.00" xmlns="http://www.w3.org/2000/svg" xmlns:xlink="http://www.w3.org/1999/xlink">
<g id="graph0" class="graph" transform="scale(0.984055 0.984055) rotate(0) translate(4 874)">
<title>inheritancef76d7bfe37</title>
<polygon fill="white" stroke="none" points="-4,4 -4,-874 541,-874 541,4 -4,4"/>
<!-- AiryDisk2D -->
<g id="node1" class="node"><title>AiryDisk2D</title>
<g id="a_node1"><a xlink:href="../api/astropy.modeling.functional_models.AiryDisk2D.html#astropy.modeling.functional_models.AiryDisk2D" xlink:title="Two dimensional Airy disk model.">
<polygon fill="none" stroke="black" stroke-width="0.5" points="420.5,-870 354.5,-870 354.5,-851 420.5,-851 420.5,-870"/>
<text text-anchor="middle" x="387.5" y="-858" font-family="Vera Sans, DejaVu Sans, Liberation Sans, Arial, Helvetica, sans" font-size="10.00">AiryDisk2D</text>
</a>
</g>
</g>
<!-- Fittable2DModel -->
<g id="node2" class="node"><title>Fittable2DModel</title>
<g id="a_node2"><a xlink:href="../api/astropy.modeling.Fittable2DModel.html#astropy.modeling.Fittable2DModel" xlink:title="Base class for two&#45;dimensional fittable models.">
<polygon fill="none" stroke="black" stroke-width="0.5" points="292,-666 203,-666 203,-647 292,-647 292,-666"/>
<text text-anchor="middle" x="247.5" y="-654" font-family="Vera Sans, DejaVu Sans, Liberation Sans, Arial, Helvetica, sans" font-size="10.00">Fittable2DModel</text>
</a>
</g>
</g>
<!-- Fittable2DModel&#45;&gt;AiryDisk2D -->
<g id="edge1" class="edge"><title>Fittable2DModel&#45;&gt;AiryDisk2D</title>
<path fill="none" stroke="black" stroke-width="0.5" d="M249.769,-666.246C254.284,-696.929 272.395,-792.468 328,-842.5 334.084,-847.974 341.801,-851.783 349.62,-854.434"/>
<polygon fill="black" stroke="black" stroke-width="0.5" points="349.193,-856.134 354.487,-855.94 350.227,-852.79 349.193,-856.134"/>
</g>
<!-- Box2D -->
<g id="node5" class="node"><title>Box2D</title>
<g id="a_node5"><a xlink:href="../api/astropy.modeling.functional_models.Box2D.html#astropy.modeling.functional_models.Box2D" xlink:title="Two dimensional Box model.">
<polygon fill="none" stroke="black" stroke-width="0.5" points="414.5,-833 360.5,-833 360.5,-814 414.5,-814 414.5,-833"/>
<text text-anchor="middle" x="387.5" y="-821" font-family="Vera Sans, DejaVu Sans, Liberation Sans, Arial, Helvetica, sans" font-size="10.00">Box2D</text>
</a>
</g>
</g>
<!-- Fittable2DModel&#45;&gt;Box2D -->
<g id="edge3" class="edge"><title>Fittable2DModel&#45;&gt;Box2D</title>
<path fill="none" stroke="black" stroke-width="0.5" d="M250.874,-666.158C257.873,-692.587 280.949,-766.7 328,-805.5 335.749,-811.89 345.751,-816.016 355.286,-818.677"/>
<polygon fill="black" stroke="black" stroke-width="0.5" points="354.937,-820.394 360.215,-819.94 355.806,-817.004 354.937,-820.394"/>
</g>
<!-- Const2D -->
<g id="node7" class="node"><title>Const2D</title>
<g id="a_node7"><a xlink:href="../api/astropy.modeling.functional_models.Const2D.html#astropy.modeling.functional_models.Const2D" xlink:title="Two dimensional Constant model.">
<polygon fill="none" stroke="black" stroke-width="0.5" points="415,-796 360,-796 360,-777 415,-777 415,-796"/>
<text text-anchor="middle" x="387.5" y="-784" font-family="Vera Sans, DejaVu Sans, Liberation Sans, Arial, Helvetica, sans" font-size="10.00">Const2D</text>
</a>
</g>
</g>
<!-- Fittable2DModel&#45;&gt;Const2D -->
<g id="edge5" class="edge"><title>Fittable2DModel&#45;&gt;Const2D</title>
<path fill="none" stroke="black" stroke-width="0.5" d="M252.7,-666.222C262.569,-687.916 289.353,-740.558 328,-768.5 335.847,-774.173 345.52,-778.089 354.724,-780.778"/>
<polygon fill="black" stroke="black" stroke-width="0.5" points="354.491,-782.528 359.775,-782.15 355.409,-779.151 354.491,-782.528"/>
</g>
<!-- Disk2D -->
<g id="node8" class="node"><title>Disk2D</title>
<g id="a_node8"><a xlink:href="../api/astropy.modeling.functional_models.Disk2D.html#astropy.modeling.functional_models.Disk2D" xlink:title="Two dimensional radial symmetric Disk model.">
<polygon fill="none" stroke="black" stroke-width="0.5" points="414.5,-759 360.5,-759 360.5,-740 414.5,-740 414.5,-759"/>
<text text-anchor="middle" x="387.5" y="-747" font-family="Vera Sans, DejaVu Sans, Liberation Sans, Arial, Helvetica, sans" font-size="10.00">Disk2D</text>
</a>
</g>
</g>
<!-- Fittable2DModel&#45;&gt;Disk2D -->
<g id="edge6" class="edge"><title>Fittable2DModel&#45;&gt;Disk2D</title>
<path fill="none" stroke="black" stroke-width="0.5" d="M256.031,-666.017C269.052,-681.855 297.339,-713.642 328,-731.5 336.367,-736.373 346.19,-740.058 355.372,-742.783"/>
<polygon fill="black" stroke="black" stroke-width="0.5" points="355.107,-744.526 360.394,-744.199 356.057,-741.157 355.107,-744.526"/>
</g>
<!-- Ellipse2D -->
<g id="node9" class="node"><title>Ellipse2D</title>
<g id="a_node9"><a xlink:href="../api/astropy.modeling.functional_models.Ellipse2D.html#astropy.modeling.functional_models.Ellipse2D" xlink:title="A 2D Ellipse model.">
<polygon fill="none" stroke="black" stroke-width="0.5" points="417,-722 358,-722 358,-703 417,-703 417,-722"/>
<text text-anchor="middle" x="387.5" y="-710" font-family="Vera Sans, DejaVu Sans, Liberation Sans, Arial, Helvetica, sans" font-size="10.00">Ellipse2D</text>
</a>
</g>
</g>
<!-- Fittable2DModel&#45;&gt;Ellipse2D -->
<g id="edge7" class="edge"><title>Fittable2DModel&#45;&gt;Ellipse2D</title>
<path fill="none" stroke="black" stroke-width="0.5" d="M266.477,-666.032C282.374,-674.233 306.339,-686.044 328,-694.5 335.951,-697.604 344.673,-700.532 352.898,-703.09"/>
<polygon fill="black" stroke="black" stroke-width="0.5" points="352.65,-704.844 357.944,-704.632 353.674,-701.497 352.65,-704.844"/>
</g>
<!-- Gaussian2D -->
<g id="node13" class="node"><title>Gaussian2D</title>
<g id="a_node13"><a xlink:href="../api/astropy.modeling.functional_models.Gaussian2D.html#astropy.modeling.functional_models.Gaussian2D" xlink:title="Two dimensional Gaussian model.">
<polygon fill="none" stroke="black" stroke-width="0.5" points="423.5,-685 351.5,-685 351.5,-666 423.5,-666 423.5,-685"/>
<text text-anchor="middle" x="387.5" y="-673" font-family="Vera Sans, DejaVu Sans, Liberation Sans, Arial, Helvetica, sans" font-size="10.00">Gaussian2D</text>
</a>
</g>
</g>
<!-- Fittable2DModel&#45;&gt;Gaussian2D -->
<g id="edge12" class="edge"><title>Fittable2DModel&#45;&gt;Gaussian2D</title>
<path fill="none" stroke="black" stroke-width="0.5" d="M292.164,-662.512C309.482,-664.896 329.272,-667.621 346.24,-669.957"/>
<polygon fill="black" stroke="black" stroke-width="0.5" points="346.217,-671.72 351.409,-670.669 346.695,-668.253 346.217,-671.72"/>
</g>
<!-- MexicanHat2D -->
<g id="node18" class="node"><title>MexicanHat2D</title>
<g id="a_node18"><a xlink:href="../api/astropy.modeling.functional_models.MexicanHat2D.html#astropy.modeling.functional_models.MexicanHat2D" xlink:title="Two dimensional symmetric Mexican Hat model.">
<polygon fill="none" stroke="black" stroke-width="0.5" points="428.5,-648 346.5,-648 346.5,-629 428.5,-629 428.5,-648"/>
<text text-anchor="middle" x="387.5" y="-636" font-family="Vera Sans, DejaVu Sans, Liberation Sans, Arial, Helvetica, sans" font-size="10.00">MexicanHat2D</text>
</a>
</g>
</g>
<!-- Fittable2DModel&#45;&gt;MexicanHat2D -->
<g id="edge17" class="edge"><title>Fittable2DModel&#45;&gt;MexicanHat2D</title>
<path fill="none" stroke="black" stroke-width="0.5" d="M292.164,-650.805C307.772,-648.769 325.388,-646.471 341.136,-644.417"/>
<polygon fill="black" stroke="black" stroke-width="0.5" points="341.668,-646.113 346.399,-643.731 341.215,-642.642 341.668,-646.113"/>
</g>
<!-- Moffat2D -->
<g id="node20" class="node"><title>Moffat2D</title>
<g id="a_node20"><a xlink:href="../api/astropy.modeling.functional_models.Moffat2D.html#astropy.modeling.functional_models.Moffat2D" xlink:title="Two dimensional Moffat model.">
<polygon fill="none" stroke="black" stroke-width="0.5" points="416,-611 359,-611 359,-592 416,-592 416,-611"/>
<text text-anchor="middle" x="387.5" y="-599" font-family="Vera Sans, DejaVu Sans, Liberation Sans, Arial, Helvetica, sans" font-size="10.00">Moffat2D</text>
</a>
</g>
</g>
<!-- Fittable2DModel&#45;&gt;Moffat2D -->
<g id="edge19" class="edge"><title>Fittable2DModel&#45;&gt;Moffat2D</title>
<path fill="none" stroke="black" stroke-width="0.5" d="M268.169,-646.854C284.101,-639.222 307.232,-628.546 328,-620.5 336.246,-617.305 345.279,-614.189 353.726,-611.435"/>
<polygon fill="black" stroke="black" stroke-width="0.5" points="354.675,-612.968 358.898,-609.77 353.602,-609.637 354.675,-612.968"/>
</g>
<!-- Ring2D -->
<g id="node23" class="node"><title>Ring2D</title>
<g id="a_node23"><a xlink:href="../api/astropy.modeling.functional_models.Ring2D.html#astropy.modeling.functional_models.Ring2D" xlink:title="Two dimensional radial symmetric Ring model.">
<polygon fill="none" stroke="black" stroke-width="0.5" points="414.5,-574 360.5,-574 360.5,-555 414.5,-555 414.5,-574"/>
<text text-anchor="middle" x="387.5" y="-562" font-family="Vera Sans, DejaVu Sans, Liberation Sans, Arial, Helvetica, sans" font-size="10.00">Ring2D</text>
</a>
</g>
</g>
<!-- Fittable2DModel&#45;&gt;Ring2D -->
<g id="edge22" class="edge"><title>Fittable2DModel&#45;&gt;Ring2D</title>
<path fill="none" stroke="black" stroke-width="0.5" d="M256.763,-646.55C270.181,-630.99 298.224,-600.883 328,-583.5 336.404,-578.594 346.237,-574.773 355.417,-571.887"/>
<polygon fill="black" stroke="black" stroke-width="0.5" points="356.152,-573.493 360.437,-570.378 355.145,-570.141 356.152,-573.493"/>
</g>
<!-- Sersic2D -->
<g id="node26" class="node"><title>Sersic2D</title>
<g id="a_node26"><a xlink:href="../api/astropy.modeling.functional_models.Sersic2D.html#astropy.modeling.functional_models.Sersic2D" xlink:title="Two dimensional Sersic surface brightness profile.">
<polygon fill="none" stroke="black" stroke-width="0.5" points="416,-537 359,-537 359,-518 416,-518 416,-537"/>
<text text-anchor="middle" x="387.5" y="-525" font-family="Vera Sans, DejaVu Sans, Liberation Sans, Arial, Helvetica, sans" font-size="10.00">Sersic2D</text>
</a>
</g>
</g>
<!-- Fittable2DModel&#45;&gt;Sersic2D -->
<g id="edge25" class="edge"><title>Fittable2DModel&#45;&gt;Sersic2D</title>
<path fill="none" stroke="black" stroke-width="0.5" d="M252.725,-646.865C262.644,-625.366 289.524,-573.195 328,-545.5 335.641,-540 344.999,-536.151 353.971,-533.469"/>
<polygon fill="black" stroke="black" stroke-width="0.5" points="354.555,-535.123 358.903,-532.096 353.617,-531.752 354.555,-535.123"/>
</g>
<!-- TrapezoidDisk2D -->
<g id="node30" class="node"><title>TrapezoidDisk2D</title>
<g id="a_node30"><a xlink:href="../api/astropy.modeling.functional_models.TrapezoidDisk2D.html#astropy.modeling.functional_models.TrapezoidDisk2D" xlink:title="Two dimensional circular Trapezoid model.">
<polygon fill="none" stroke="black" stroke-width="0.5" points="434,-500 341,-500 341,-481 434,-481 434,-500"/>
<text text-anchor="middle" x="387.5" y="-488" font-family="Vera Sans, DejaVu Sans, Liberation Sans, Arial, Helvetica, sans" font-size="10.00">TrapezoidDisk2D</text>
</a>
</g>
</g>
<!-- Fittable2DModel&#45;&gt;TrapezoidDisk2D -->
<g id="edge29" class="edge"><title>Fittable2DModel&#45;&gt;TrapezoidDisk2D</title>
<path fill="none" stroke="black" stroke-width="0.5" d="M250.894,-646.906C257.945,-620.652 281.141,-547.032 328,-508.5 330.878,-506.134 334.065,-504.078 337.422,-502.292"/>
<polygon fill="black" stroke="black" stroke-width="0.5" points="338.362,-503.781 342.093,-500.02 336.831,-500.633 338.362,-503.781"/>
</g>
<!-- Box1D -->
<g id="node3" class="node"><title>Box1D</title>
<g id="a_node3"><a xlink:href="../api/astropy.modeling.functional_models.Box1D.html#astropy.modeling.functional_models.Box1D" xlink:title="One dimensional Box model.">
<polygon fill="none" stroke="black" stroke-width="0.5" points="414.5,-463 360.5,-463 360.5,-444 414.5,-444 414.5,-463"/>
<text text-anchor="middle" x="387.5" y="-451" font-family="Vera Sans, DejaVu Sans, Liberation Sans, Arial, Helvetica, sans" font-size="10.00">Box1D</text>
</a>
</g>
</g>
<!-- Fittable1DModel -->
<g id="node4" class="node"><title>Fittable1DModel</title>
<g id="a_node4"><a xlink:href="../api/astropy.modeling.Fittable1DModel.html#astropy.modeling.Fittable1DModel" xlink:title="Base class for one&#45;dimensional fittable models.">
<polygon fill="none" stroke="black" stroke-width="0.5" points="292,-259 203,-259 203,-240 292,-240 292,-259"/>
<text text-anchor="middle" x="247.5" y="-247" font-family="Vera Sans, DejaVu Sans, Liberation Sans, Arial, Helvetica, sans" font-size="10.00">Fittable1DModel</text>
</a>
</g>
</g>
<!-- Fittable1DModel&#45;&gt;Box1D -->
<g id="edge2" class="edge"><title>Fittable1DModel&#45;&gt;Box1D</title>
<path fill="none" stroke="black" stroke-width="0.5" d="M249.819,-259.158C254.483,-289.572 272.987,-384.321 328,-434.5 335.592,-441.425 345.742,-445.828 355.454,-448.627"/>
<polygon fill="black" stroke="black" stroke-width="0.5" points="355.196,-450.369 360.477,-449.95 356.087,-446.984 355.196,-450.369"/>
</g>
<!-- Const1D -->
<g id="node6" class="node"><title>Const1D</title>
<g id="a_node6"><a xlink:href="../api/astropy.modeling.functional_models.Const1D.html#astropy.modeling.functional_models.Const1D" xlink:title="One dimensional Constant model.">
<polygon fill="none" stroke="black" stroke-width="0.5" points="415,-426 360,-426 360,-407 415,-407 415,-426"/>
<text text-anchor="middle" x="387.5" y="-414" font-family="Vera Sans, DejaVu Sans, Liberation Sans, Arial, Helvetica, sans" font-size="10.00">Const1D</text>
</a>
</g>
</g>
<!-- Fittable1DModel&#45;&gt;Const1D -->
<g id="edge4" class="edge"><title>Fittable1DModel&#45;&gt;Const1D</title>
<path fill="none" stroke="black" stroke-width="0.5" d="M250.926,-259.056C258.058,-285.211 281.441,-358.605 328,-397.5 335.677,-403.913 345.568,-408.177 355.025,-411.005"/>
<polygon fill="black" stroke="black" stroke-width="0.5" points="354.631,-412.712 359.917,-412.358 355.564,-409.339 354.631,-412.712"/>
</g>
<!-- Gaussian1D -->
<g id="node12" class="node"><title>Gaussian1D</title>
<g id="a_node12"><a xlink:href="../api/astropy.modeling.functional_models.Gaussian1D.html#astropy.modeling.functional_models.Gaussian1D" xlink:title="One dimensional Gaussian model.">
<polygon fill="none" stroke="black" stroke-width="0.5" points="423.5,-389 351.5,-389 351.5,-370 423.5,-370 423.5,-389"/>
<text text-anchor="middle" x="387.5" y="-377" font-family="Vera Sans, DejaVu Sans, Liberation Sans, Arial, Helvetica, sans" font-size="10.00">Gaussian1D</text>
</a>
</g>
</g>
<!-- Fittable1DModel&#45;&gt;Gaussian1D -->
<g id="edge11" class="edge"><title>Fittable1DModel&#45;&gt;Gaussian1D</title>
<path fill="none" stroke="black" stroke-width="0.5" d="M252.756,-259.092C262.738,-280.504 289.74,-332.507 328,-360.5 333.494,-364.52 339.88,-367.716 346.372,-370.249"/>
<polygon fill="black" stroke="black" stroke-width="0.5" points="346.047,-371.993 351.344,-372.059 347.245,-368.704 346.047,-371.993"/>
</g>
<!-- GaussianAbsorption1D -->
<g id="node14" class="node"><title>GaussianAbsorption1D</title>
<g id="a_node14"><a xlink:href="../api/astropy.modeling.functional_models.GaussianAbsorption1D.html#astropy.modeling.functional_models.GaussianAbsorption1D" xlink:title="One dimensional Gaussian absorption line model.">
<polygon fill="none" stroke="black" stroke-width="0.5" points="447,-352 328,-352 328,-333 447,-333 447,-352"/>
<text text-anchor="middle" x="387.5" y="-340" font-family="Vera Sans, DejaVu Sans, Liberation Sans, Arial, Helvetica, sans" font-size="10.00">GaussianAbsorption1D</text>
</a>
</g>
</g>
<!-- Fittable1DModel&#45;&gt;GaussianAbsorption1D -->
<g id="edge13" class="edge"><title>Fittable1DModel&#45;&gt;GaussianAbsorption1D</title>
<path fill="none" stroke="black" stroke-width="0.5" d="M256.301,-259.084C269.501,-274.71 297.772,-305.715 328,-323.5 333.033,-326.461 338.586,-329.025 344.206,-331.225"/>
<polygon fill="black" stroke="black" stroke-width="0.5" points="343.636,-332.88 348.933,-332.988 344.86,-329.601 343.636,-332.88"/>
</g>
<!-- Linear1D -->
<g id="node15" class="node"><title>Linear1D</title>
<g id="a_node15"><a xlink:href="../api/astropy.modeling.functional_models.Linear1D.html#astropy.modeling.functional_models.Linear1D" xlink:title="One dimensional Line model.">
<polygon fill="none" stroke="black" stroke-width="0.5" points="416,-315 359,-315 359,-296 416,-296 416,-315"/>
<text text-anchor="middle" x="387.5" y="-303" font-family="Vera Sans, DejaVu Sans, Liberation Sans, Arial, Helvetica, sans" font-size="10.00">Linear1D</text>
</a>
</g>
</g>
<!-- Fittable1DModel&#45;&gt;Linear1D -->
<g id="edge14" class="edge"><title>Fittable1DModel&#45;&gt;Linear1D</title>
<path fill="none" stroke="black" stroke-width="0.5" d="M267.493,-259.136C283.423,-267.024 306.892,-278.196 328,-286.5 336.229,-289.737 345.256,-292.869 353.703,-295.623"/>
<polygon fill="black" stroke="black" stroke-width="0.5" points="353.58,-297.422 358.876,-297.288 354.652,-294.09 353.58,-297.422"/>
</g>
<!-- Lorentz1D -->
<g id="node16" class="node"><title>Lorentz1D</title>
<g id="a_node16"><a xlink:href="../api/astropy.modeling.functional_models.Lorentz1D.html#astropy.modeling.functional_models.Lorentz1D" xlink:title="One dimensional Lorentzian model.">
<polygon fill="none" stroke="black" stroke-width="0.5" points="419,-278 356,-278 356,-259 419,-259 419,-278"/>
<text text-anchor="middle" x="387.5" y="-266" font-family="Vera Sans, DejaVu Sans, Liberation Sans, Arial, Helvetica, sans" font-size="10.00">Lorentz1D</text>
</a>
</g>
</g>
<!-- Fittable1DModel&#45;&gt;Lorentz1D -->
<g id="edge15" class="edge"><title>Fittable1DModel&#45;&gt;Lorentz1D</title>
<path fill="none" stroke="black" stroke-width="0.5" d="M292.164,-255.512C310.913,-258.093 332.56,-261.074 350.386,-263.528"/>
<polygon fill="black" stroke="black" stroke-width="0.5" points="350.596,-265.323 355.788,-264.271 351.073,-261.856 350.596,-265.323"/>
</g>
<!-- MexicanHat1D -->
<g id="node17" class="node"><title>MexicanHat1D</title>
<g id="a_node17"><a xlink:href="../api/astropy.modeling.functional_models.MexicanHat1D.html#astropy.modeling.functional_models.MexicanHat1D" xlink:title="One dimensional Mexican Hat model.">
<polygon fill="none" stroke="black" stroke-width="0.5" points="428.5,-241 346.5,-241 346.5,-222 428.5,-222 428.5,-241"/>
<text text-anchor="middle" x="387.5" y="-229" font-family="Vera Sans, DejaVu Sans, Liberation Sans, Arial, Helvetica, sans" font-size="10.00">MexicanHat1D</text>
</a>
</g>
</g>
<!-- Fittable1DModel&#45;&gt;MexicanHat1D -->
<g id="edge16" class="edge"><title>Fittable1DModel&#45;&gt;MexicanHat1D</title>
<path fill="none" stroke="black" stroke-width="0.5" d="M292.164,-243.805C307.772,-241.769 325.388,-239.471 341.136,-237.417"/>
<polygon fill="black" stroke="black" stroke-width="0.5" points="341.668,-239.113 346.399,-236.731 341.215,-235.642 341.668,-239.113"/>
</g>
<!-- Moffat1D -->
<g id="node19" class="node"><title>Moffat1D</title>
<g id="a_node19"><a xlink:href="../api/astropy.modeling.functional_models.Moffat1D.html#astropy.modeling.functional_models.Moffat1D" xlink:title="One dimensional Moffat model.">
<polygon fill="none" stroke="black" stroke-width="0.5" points="416,-204 359,-204 359,-185 416,-185 416,-204"/>
<text text-anchor="middle" x="387.5" y="-192" font-family="Vera Sans, DejaVu Sans, Liberation Sans, Arial, Helvetica, sans" font-size="10.00">Moffat1D</text>
</a>
</g>
</g>
<!-- Fittable1DModel&#45;&gt;Moffat1D -->
<g id="edge18" class="edge"><title>Fittable1DModel&#45;&gt;Moffat1D</title>
<path fill="none" stroke="black" stroke-width="0.5" d="M267.14,-239.937C283.055,-231.989 306.686,-220.695 328,-212.5 336.214,-209.342 345.235,-206.344 353.682,-203.732"/>
<polygon fill="black" stroke="black" stroke-width="0.5" points="354.581,-205.288 358.855,-202.158 353.562,-201.939 354.581,-205.288"/>
</g>
<!-- RedshiftScaleFactor -->
<g id="node22" class="node"><title>RedshiftScaleFactor</title>
<g id="a_node22"><a xlink:href="../api/astropy.modeling.functional_models.RedshiftScaleFactor.html#astropy.modeling.functional_models.RedshiftScaleFactor" xlink:title="One dimensional redshift scale factor model.">
<polygon fill="none" stroke="black" stroke-width="0.5" points="441,-167 334,-167 334,-148 441,-148 441,-167"/>
<text text-anchor="middle" x="387.5" y="-155" font-family="Vera Sans, DejaVu Sans, Liberation Sans, Arial, Helvetica, sans" font-size="10.00">RedshiftScaleFactor</text>
</a>
</g>
</g>
<!-- Fittable1DModel&#45;&gt;RedshiftScaleFactor -->
<g id="edge21" class="edge"><title>Fittable1DModel&#45;&gt;RedshiftScaleFactor</title>
<path fill="none" stroke="black" stroke-width="0.5" d="M256.27,-239.864C269.426,-224.161 297.634,-193.05 328,-175.5 332.347,-172.988 337.082,-170.79 341.914,-168.875"/>
<polygon fill="black" stroke="black" stroke-width="0.5" points="342.701,-170.449 346.768,-167.054 341.472,-167.172 342.701,-170.449"/>
</g>
<!-- Sersic1D -->
<g id="node25" class="node"><title>Sersic1D</title>
<g id="a_node25"><a xlink:href="../api/astropy.modeling.functional_models.Sersic1D.html#astropy.modeling.functional_models.Sersic1D" xlink:title="One dimensional Sersic surface brightness profile.">
<polygon fill="none" stroke="black" stroke-width="0.5" points="416,-130 359,-130 359,-111 416,-111 416,-130"/>
<text text-anchor="middle" x="387.5" y="-118" font-family="Vera Sans, DejaVu Sans, Liberation Sans, Arial, Helvetica, sans" font-size="10.00">Sersic1D</text>
</a>
</g>
</g>
<!-- Fittable1DModel&#45;&gt;Sersic1D -->
<g id="edge24" class="edge"><title>Fittable1DModel&#45;&gt;Sersic1D</title>
<path fill="none" stroke="black" stroke-width="0.5" d="M252.725,-239.865C262.644,-218.366 289.524,-166.195 328,-138.5 335.641,-133 344.999,-129.151 353.971,-126.469"/>
<polygon fill="black" stroke="black" stroke-width="0.5" points="354.555,-128.123 358.903,-125.096 353.617,-124.752 354.555,-128.123"/>
</g>
<!-- Sine1D -->
<g id="node28" class="node"><title>Sine1D</title>
<g id="a_node28"><a xlink:href="../api/astropy.modeling.functional_models.Sine1D.html#astropy.modeling.functional_models.Sine1D" xlink:title="One dimensional Sine model.">
<polygon fill="none" stroke="black" stroke-width="0.5" points="414.5,-93 360.5,-93 360.5,-74 414.5,-74 414.5,-93"/>
<text text-anchor="middle" x="387.5" y="-81" font-family="Vera Sans, DejaVu Sans, Liberation Sans, Arial, Helvetica, sans" font-size="10.00">Sine1D</text>
</a>
</g>
</g>
<!-- Fittable1DModel&#45;&gt;Sine1D -->
<g id="edge27" class="edge"><title>Fittable1DModel&#45;&gt;Sine1D</title>
<path fill="none" stroke="black" stroke-width="0.5" d="M250.894,-239.906C257.945,-213.652 281.141,-140.032 328,-101.5 335.758,-95.1206 345.763,-90.9982 355.297,-88.3357"/>
<polygon fill="black" stroke="black" stroke-width="0.5" points="355.817,-90.0092 360.226,-87.0723 354.948,-86.6188 355.817,-90.0092"/>
</g>
<!-- Trapezoid1D -->
<g id="node29" class="node"><title>Trapezoid1D</title>
<g id="a_node29"><a xlink:href="../api/astropy.modeling.functional_models.Trapezoid1D.html#astropy.modeling.functional_models.Trapezoid1D" xlink:title="One dimensional Trapezoid model.">
<polygon fill="none" stroke="black" stroke-width="0.5" points="424.5,-56 350.5,-56 350.5,-37 424.5,-37 424.5,-56"/>
<text text-anchor="middle" x="387.5" y="-44" font-family="Vera Sans, DejaVu Sans, Liberation Sans, Arial, Helvetica, sans" font-size="10.00">Trapezoid1D</text>
</a>
</g>
</g>
<!-- Fittable1DModel&#45;&gt;Trapezoid1D -->
<g id="edge28" class="edge"><title>Fittable1DModel&#45;&gt;Trapezoid1D</title>
<path fill="none" stroke="black" stroke-width="0.5" d="M249.786,-239.806C254.353,-209.284 272.599,-114.251 328,-64.5 332.977,-60.0304 339.044,-56.6706 345.364,-54.145"/>
<polygon fill="black" stroke="black" stroke-width="0.5" points="346.133,-55.7274 350.232,-52.3717 344.935,-52.4388 346.133,-55.7274"/>
</g>
<!-- Voigt1D -->
<g id="node31" class="node"><title>Voigt1D</title>
<g id="a_node31"><a xlink:href="../api/astropy.modeling.functional_models.Voigt1D.html#astropy.modeling.functional_models.Voigt1D" xlink:title="One dimensional model for the Voigt profile.">
<polygon fill="none" stroke="black" stroke-width="0.5" points="414.5,-19 360.5,-19 360.5,-0 414.5,-0 414.5,-19"/>
<text text-anchor="middle" x="387.5" y="-7" font-family="Vera Sans, DejaVu Sans, Liberation Sans, Arial, Helvetica, sans" font-size="10.00">Voigt1D</text>
</a>
</g>
</g>
<!-- Fittable1DModel&#45;&gt;Voigt1D -->
<g id="edge30" class="edge"><title>Fittable1DModel&#45;&gt;Voigt1D</title>
<path fill="none" stroke="black" stroke-width="0.5" d="M249.001,-239.886C251.309,-205.712 263.774,-88.8755 328,-27.5 335.392,-20.4356 345.493,-16.1388 355.221,-13.5271"/>
<polygon fill="black" stroke="black" stroke-width="0.5" points="355.809,-15.1854 360.258,-12.3093 354.987,-11.7834 355.809,-15.1854"/>
</g>
<!-- FittableModel -->
<g id="node10" class="node"><title>FittableModel</title>
<g id="a_node10"><a xlink:href="../api/astropy.modeling.FittableModel.html#astropy.modeling.FittableModel" xlink:title="Base class for models that can be fitted using the built&#45;in fitting">
<polygon fill="none" stroke="black" stroke-width="0.5" points="167,-463 90,-463 90,-444 167,-444 167,-463"/>
<text text-anchor="middle" x="128.5" y="-451" font-family="Vera Sans, DejaVu Sans, Liberation Sans, Arial, Helvetica, sans" font-size="10.00">FittableModel</text>
</a>
</g>
</g>
<!-- FittableModel&#45;&gt;Fittable2DModel -->
<g id="edge9" class="edge"><title>FittableModel&#45;&gt;Fittable2DModel</title>
<path fill="none" stroke="black" stroke-width="0.5" d="M134.986,-463.019C153.828,-495.71 215.962,-603.516 238.361,-642.378"/>
<polygon fill="black" stroke="black" stroke-width="0.5" points="236.876,-643.307 240.889,-646.766 239.909,-641.56 236.876,-643.307"/>
</g>
<!-- FittableModel&#45;&gt;Fittable1DModel -->
<g id="edge8" class="edge"><title>FittableModel&#45;&gt;Fittable1DModel</title>
<path fill="none" stroke="black" stroke-width="0.5" d="M154.584,-443.884C159.115,-441.333 163.503,-438.225 167,-434.5 215.149,-383.212 236.725,-298.243 243.752,-264.236"/>
<polygon fill="black" stroke="black" stroke-width="0.5" points="245.489,-264.475 244.757,-259.228 242.058,-263.786 245.489,-264.475"/>
</g>
<!-- Model -->
<g id="node11" class="node"><title>Model</title>
<g id="a_node11"><a xlink:href="../api/astropy.modeling.Model.html#astropy.modeling.Model" xlink:title="Base class for all models.">
<polygon fill="none" stroke="black" stroke-width="0.5" points="54,-426 0,-426 0,-407 54,-407 54,-426"/>
<text text-anchor="middle" x="27" y="-414" font-family="Vera Sans, DejaVu Sans, Liberation Sans, Arial, Helvetica, sans" font-size="10.00">Model</text>
</a>
</g>
</g>
<!-- Model&#45;&gt;FittableModel -->
<g id="edge10" class="edge"><title>Model&#45;&gt;FittableModel</title>
<path fill="none" stroke="black" stroke-width="0.5" d="M53.6237,-426.028C66.752,-430.91 82.8379,-436.892 96.6438,-442.026"/>
<polygon fill="black" stroke="black" stroke-width="0.5" points="96.3208,-443.773 101.617,-443.875 97.5408,-440.492 96.3208,-443.773"/>
</g>
<!-- Scale -->
<g id="node24" class="node"><title>Scale</title>
<g id="a_node24"><a xlink:href="../api/astropy.modeling.functional_models.Scale.html#astropy.modeling.functional_models.Scale" xlink:title="Multiply a model by a factor.">
<polygon fill="none" stroke="black" stroke-width="0.5" points="155.5,-426 101.5,-426 101.5,-407 155.5,-407 155.5,-426"/>
<text text-anchor="middle" x="128.5" y="-414" font-family="Vera Sans, DejaVu Sans, Liberation Sans, Arial, Helvetica, sans" font-size="10.00">Scale</text>
</a>
</g>
</g>
<!-- Model&#45;&gt;Scale -->
<g id="edge23" class="edge"><title>Model&#45;&gt;Scale</title>
<path fill="none" stroke="black" stroke-width="0.5" d="M54.1425,-416.5C66.9518,-416.5 82.4794,-416.5 95.9446,-416.5"/>
<polygon fill="black" stroke="black" stroke-width="0.5" points="96.1867,-418.25 101.187,-416.5 96.1866,-414.75 96.1867,-418.25"/>
</g>
<!-- Shift -->
<g id="node27" class="node"><title>Shift</title>
<g id="a_node27"><a xlink:href="../api/astropy.modeling.functional_models.Shift.html#astropy.modeling.functional_models.Shift" xlink:title="Shift a coordinate.">
<polygon fill="none" stroke="black" stroke-width="0.5" points="155.5,-389 101.5,-389 101.5,-370 155.5,-370 155.5,-389"/>
<text text-anchor="middle" x="128.5" y="-377" font-family="Vera Sans, DejaVu Sans, Liberation Sans, Arial, Helvetica, sans" font-size="10.00">Shift</text>
</a>
</g>
</g>
<!-- Model&#45;&gt;Shift -->
<g id="edge26" class="edge"><title>Model&#45;&gt;Shift</title>
<path fill="none" stroke="black" stroke-width="0.5" d="M53.6237,-406.972C66.752,-402.09 82.8379,-396.108 96.6438,-390.974"/>
<polygon fill="black" stroke="black" stroke-width="0.5" points="97.5408,-392.508 101.617,-389.125 96.3208,-389.227 97.5408,-392.508"/>
</g>
<!-- Redshift -->
<g id="node21" class="node"><title>Redshift</title>
<g id="a_node21"><a xlink:href="../api/astropy.modeling.functional_models.Redshift.html#astropy.modeling.functional_models.Redshift" xlink:title="This is **deprecated**, use :class:`RedshiftScaleFactor`.">
<polygon fill="none" stroke="black" stroke-width="0.5" points="537,-167 483,-167 483,-148 537,-148 537,-167"/>
<text text-anchor="middle" x="510" y="-155" font-family="Vera Sans, DejaVu Sans, Liberation Sans, Arial, Helvetica, sans" font-size="10.00">Redshift</text>
</a>
</g>
</g>
<!-- RedshiftScaleFactor&#45;&gt;Redshift -->
<g id="edge20" class="edge"><title>RedshiftScaleFactor&#45;&gt;Redshift</title>
<path fill="none" stroke="black" stroke-width="0.5" d="M441.003,-157.5C453.542,-157.5 466.537,-157.5 477.766,-157.5"/>
<polygon fill="black" stroke="black" stroke-width="0.5" points="477.793,-159.25 482.793,-157.5 477.793,-155.75 477.793,-159.25"/>
</g>
</g>
</svg>
