<?xml version="1.0" encoding="UTF-8" standalone="no"?>
<!DOCTYPE svg PUBLIC "-//W3C//DTD SVG 1.1//EN"
 "http://www.w3.org/Graphics/SVG/1.1/DTD/svg11.dtd">
<!-- Generated by graphviz version 2.38.0 (20140413.2041)
 -->
<!-- Title: inheritanceec53744177 Pages: 1 -->
<svg width="416pt" height="397pt"
 viewBox="0.00 0.00 416.00 397.00" xmlns="http://www.w3.org/2000/svg" xmlns:xlink="http://www.w3.org/1999/xlink">
<g id="graph0" class="graph" transform="scale(1 1) rotate(0) translate(4 393)">
<title>inheritanceec53744177</title>
<polygon fill="white" stroke="none" points="-4,4 -4,-393 412,-393 412,4 -4,4"/>
<!-- AstropyUserWarning -->
<g id="node1" class="node"><title>AstropyUserWarning</title>
<g id="a_node1"><a xlink:href="../../../api/astropy.utils.exceptions.AstropyUserWarning.html#astropy.utils.exceptions.AstropyUserWarning" xlink:title="The primary warning class for Astropy." target="_top">
<polygon fill="none" stroke="black" stroke-width="0.5" points="279,-19 170,-19 170,-0 279,-0 279,-19"/>
<text text-anchor="middle" x="224.5" y="-7" font-family="Vera Sans, DejaVu Sans, Liberation Sans, Arial, Helvetica, sans" font-size="10.00">AstropyUserWarning</text>
</a>
</g>
</g>
<!-- SAMPWarning -->
<g id="node15" class="node"><title>SAMPWarning</title>
<g id="a_node15"><a xlink:href="../../../api/astropy.vo.samp.SAMPWarning.html#astropy.vo.samp.SAMPWarning" xlink:title="SAMP&#45;specific Astropy warning class" target="_top">
<polygon fill="none" stroke="black" stroke-width="0.5" points="402.5,-19 320.5,-19 320.5,-0 402.5,-0 402.5,-19"/>
<text text-anchor="middle" x="361.5" y="-7" font-family="Vera Sans, DejaVu Sans, Liberation Sans, Arial, Helvetica, sans" font-size="10.00">SAMPWarning</text>
</a>
</g>
</g>
<!-- AstropyUserWarning&#45;&gt;SAMPWarning -->
<g id="edge5" class="edge"><title>AstropyUserWarning&#45;&gt;SAMPWarning</title>
<path fill="none" stroke="black" stroke-width="0.5" d="M279.243,-9.5C291.104,-9.5 303.555,-9.5 315.049,-9.5"/>
<polygon fill="black" stroke="black" stroke-width="0.5" points="315.257,-11.2501 320.257,-9.5 315.257,-7.7501 315.257,-11.2501"/>
</g>
<!-- AstropyWarning -->
<g id="node2" class="node"><title>AstropyWarning</title>
<g id="a_node2"><a xlink:href="../../../api/astropy.utils.exceptions.AstropyWarning.html#astropy.utils.exceptions.AstropyWarning" xlink:title="The base warning class from which all Astropy warnings should inherit." target="_top">
<polygon fill="none" stroke="black" stroke-width="0.5" points="111,-19 23,-19 23,-0 111,-0 111,-19"/>
<text text-anchor="middle" x="67" y="-7" font-family="Vera Sans, DejaVu Sans, Liberation Sans, Arial, Helvetica, sans" font-size="10.00">AstropyWarning</text>
</a>
</g>
</g>
<!-- AstropyWarning&#45;&gt;AstropyUserWarning -->
<g id="edge1" class="edge"><title>AstropyWarning&#45;&gt;AstropyUserWarning</title>
<path fill="none" stroke="black" stroke-width="0.5" d="M111.315,-9.5C127.766,-9.5 146.795,-9.5 164.455,-9.5"/>
<polygon fill="black" stroke="black" stroke-width="0.5" points="164.887,-11.2501 169.887,-9.5 164.887,-7.75009 164.887,-11.2501"/>
</g>
<!-- Conf -->
<g id="node3" class="node"><title>Conf</title>
<g id="a_node3"><a xlink:href="../../../api/astropy.vo.samp.Conf.html#astropy.vo.samp.Conf" xlink:title="Configuration parameters for `astropy.vo.samp`." target="_top">
<polygon fill="none" stroke="black" stroke-width="0.5" points="251.5,-56 197.5,-56 197.5,-37 251.5,-37 251.5,-56"/>
<text text-anchor="middle" x="224.5" y="-44" font-family="Vera Sans, DejaVu Sans, Liberation Sans, Arial, Helvetica, sans" font-size="10.00">Conf</text>
</a>
</g>
</g>
<!-- ConfigNamespace -->
<g id="node4" class="node"><title>ConfigNamespace</title>
<g id="a_node4"><a xlink:href="../../../api/astropy.config.ConfigNamespace.html#astropy.config.ConfigNamespace" xlink:title="A namespace of configuration items. &#160;Each subpackage with" target="_top">
<polygon fill="none" stroke="black" stroke-width="0.5" points="116.5,-56 17.5,-56 17.5,-37 116.5,-37 116.5,-56"/>
<text text-anchor="middle" x="67" y="-44" font-family="Vera Sans, DejaVu Sans, Liberation Sans, Arial, Helvetica, sans" font-size="10.00">ConfigNamespace</text>
</a>
</g>
</g>
<!-- ConfigNamespace&#45;&gt;Conf -->
<g id="edge2" class="edge"><title>ConfigNamespace&#45;&gt;Conf</title>
<path fill="none" stroke="black" stroke-width="0.5" d="M116.775,-46.5C141.347,-46.5 170.425,-46.5 192.019,-46.5"/>
<polygon fill="black" stroke="black" stroke-width="0.5" points="192.062,-48.2501 197.062,-46.5 192.062,-44.7501 192.062,-48.2501"/>
</g>
<!-- Error -->
<g id="node5" class="node"><title>Error</title>
<g id="a_node5"><a xlink:title="Base class for client errors.">
<polygon fill="none" stroke="black" stroke-width="0.5" points="94,-93 40,-93 40,-74 94,-74 94,-93"/>
<text text-anchor="middle" x="67" y="-81" font-family="Vera Sans, DejaVu Sans, Liberation Sans, Arial, Helvetica, sans" font-size="10.00">Error</text>
</a>
</g>
</g>
<!-- Fault -->
<g id="node6" class="node"><title>Fault</title>
<g id="a_node6"><a xlink:title="Indicates an XML&#45;RPC fault package.">
<polygon fill="none" stroke="black" stroke-width="0.5" points="251.5,-93 197.5,-93 197.5,-74 251.5,-74 251.5,-93"/>
<text text-anchor="middle" x="224.5" y="-81" font-family="Vera Sans, DejaVu Sans, Liberation Sans, Arial, Helvetica, sans" font-size="10.00">Fault</text>
</a>
</g>
</g>
<!-- Error&#45;&gt;Fault -->
<g id="edge3" class="edge"><title>Error&#45;&gt;Fault</title>
<path fill="none" stroke="black" stroke-width="0.5" d="M94.0272,-83.5C121.05,-83.5 163.328,-83.5 192.166,-83.5"/>
<polygon fill="black" stroke="black" stroke-width="0.5" points="192.388,-85.2501 197.388,-83.5 192.388,-81.7501 192.388,-85.2501"/>
</g>
<!-- SAMPProxyError -->
<g id="node14" class="node"><title>SAMPProxyError</title>
<g id="a_node14"><a xlink:href="../../../api/astropy.vo.samp.SAMPProxyError.html#astropy.vo.samp.SAMPProxyError" xlink:title="SAMP Proxy Hub exception" target="_top">
<polygon fill="none" stroke="black" stroke-width="0.5" points="408,-93 315,-93 315,-74 408,-74 408,-93"/>
<text text-anchor="middle" x="361.5" y="-81" font-family="Vera Sans, DejaVu Sans, Liberation Sans, Arial, Helvetica, sans" font-size="10.00">SAMPProxyError</text>
</a>
</g>
</g>
<!-- Fault&#45;&gt;SAMPProxyError -->
<g id="edge4" class="edge"><title>Fault&#45;&gt;SAMPProxyError</title>
<path fill="none" stroke="black" stroke-width="0.5" d="M251.529,-83.5C268.058,-83.5 290.002,-83.5 309.865,-83.5"/>
<polygon fill="black" stroke="black" stroke-width="0.5" points="309.866,-85.2501 314.866,-83.5 309.866,-81.7501 309.866,-85.2501"/>
</g>
<!-- SAMPClient -->
<g id="node7" class="node"><title>SAMPClient</title>
<g id="a_node7"><a xlink:href="../../../api/astropy.vo.samp.SAMPClient.html#astropy.vo.samp.SAMPClient" xlink:title="Utility class which provides facilities to create and manage a SAMP" target="_top">
<polygon fill="none" stroke="black" stroke-width="0.5" points="102,-130 32,-130 32,-111 102,-111 102,-130"/>
<text text-anchor="middle" x="67" y="-118" font-family="Vera Sans, DejaVu Sans, Liberation Sans, Arial, Helvetica, sans" font-size="10.00">SAMPClient</text>
</a>
</g>
</g>
<!-- SAMPClientError -->
<g id="node8" class="node"><title>SAMPClientError</title>
<g id="a_node8"><a xlink:href="../../../api/astropy.vo.samp.SAMPClientError.html#astropy.vo.samp.SAMPClientError" xlink:title="SAMP Client exceptions." target="_top">
<polygon fill="none" stroke="black" stroke-width="0.5" points="113.5,-167 20.5,-167 20.5,-148 113.5,-148 113.5,-167"/>
<text text-anchor="middle" x="67" y="-155" font-family="Vera Sans, DejaVu Sans, Liberation Sans, Arial, Helvetica, sans" font-size="10.00">SAMPClientError</text>
</a>
</g>
</g>
<!-- SAMPHubError -->
<g id="node9" class="node"><title>SAMPHubError</title>
<g id="a_node9"><a xlink:href="../../../api/astropy.vo.samp.SAMPHubError.html#astropy.vo.samp.SAMPHubError" xlink:title="SAMP Hub exception." target="_top">
<polygon fill="none" stroke="black" stroke-width="0.5" points="109.5,-204 24.5,-204 24.5,-185 109.5,-185 109.5,-204"/>
<text text-anchor="middle" x="67" y="-192" font-family="Vera Sans, DejaVu Sans, Liberation Sans, Arial, Helvetica, sans" font-size="10.00">SAMPHubError</text>
</a>
</g>
</g>
<!-- SAMPHubProxy -->
<g id="node10" class="node"><title>SAMPHubProxy</title>
<g id="a_node10"><a xlink:href="../../../api/astropy.vo.samp.SAMPHubProxy.html#astropy.vo.samp.SAMPHubProxy" xlink:title="Proxy class to simplify the client interaction with a SAMP hub (via the" target="_top">
<polygon fill="none" stroke="black" stroke-width="0.5" points="111.5,-241 22.5,-241 22.5,-222 111.5,-222 111.5,-241"/>
<text text-anchor="middle" x="67" y="-229" font-family="Vera Sans, DejaVu Sans, Liberation Sans, Arial, Helvetica, sans" font-size="10.00">SAMPHubProxy</text>
</a>
</g>
</g>
<!-- SAMPHubServer -->
<g id="node11" class="node"><title>SAMPHubServer</title>
<g id="a_node11"><a xlink:href="../../../api/astropy.vo.samp.SAMPHubServer.html#astropy.vo.samp.SAMPHubServer" xlink:title="SAMP Hub Server." target="_top">
<polygon fill="none" stroke="black" stroke-width="0.5" points="113.5,-278 20.5,-278 20.5,-259 113.5,-259 113.5,-278"/>
<text text-anchor="middle" x="67" y="-266" font-family="Vera Sans, DejaVu Sans, Liberation Sans, Arial, Helvetica, sans" font-size="10.00">SAMPHubServer</text>
</a>
</g>
</g>
<!-- SAMPIntegratedClient -->
<g id="node12" class="node"><title>SAMPIntegratedClient</title>
<g id="a_node12"><a xlink:href="../../../api/astropy.vo.samp.SAMPIntegratedClient.html#astropy.vo.samp.SAMPIntegratedClient" xlink:title="A Simple SAMP client." target="_top">
<polygon fill="none" stroke="black" stroke-width="0.5" points="124.5,-315 9.5,-315 9.5,-296 124.5,-296 124.5,-315"/>
<text text-anchor="middle" x="67" y="-303" font-family="Vera Sans, DejaVu Sans, Liberation Sans, Arial, Helvetica, sans" font-size="10.00">SAMPIntegratedClient</text>
</a>
</g>
</g>
<!-- SAMPMsgReplierWrapper -->
<g id="node13" class="node"><title>SAMPMsgReplierWrapper</title>
<g id="a_node13"><a xlink:href="../../../api/astropy.vo.samp.SAMPMsgReplierWrapper.html#astropy.vo.samp.SAMPMsgReplierWrapper" xlink:title="Function decorator that allows to automatically grab errors and returned" target="_top">
<polygon fill="none" stroke="black" stroke-width="0.5" points="134,-352 0,-352 0,-333 134,-333 134,-352"/>
<text text-anchor="middle" x="67" y="-340" font-family="Vera Sans, DejaVu Sans, Liberation Sans, Arial, Helvetica, sans" font-size="10.00">SAMPMsgReplierWrapper</text>
</a>
</g>
</g>
<!-- WebProfileDialog -->
<g id="node16" class="node"><title>WebProfileDialog</title>
<g id="a_node16"><a xlink:href="../../../api/astropy.vo.samp.WebProfileDialog.html#astropy.vo.samp.WebProfileDialog" xlink:title="A base class to make writing Web Profile GUI consent dialogs" target="_top">
<polygon fill="none" stroke="black" stroke-width="0.5" points="114,-389 20,-389 20,-370 114,-370 114,-389"/>
<text text-anchor="middle" x="67" y="-377" font-family="Vera Sans, DejaVu Sans, Liberation Sans, Arial, Helvetica, sans" font-size="10.00">WebProfileDialog</text>
</a>
</g>
</g>
</g>
</svg>
