<?xml version="1.0" encoding="UTF-8" standalone="no"?>
<!DOCTYPE svg PUBLIC "-//W3C//DTD SVG 1.1//EN"
 "http://www.w3.org/Graphics/SVG/1.1/DTD/svg11.dtd">
<!-- Generated by graphviz version 2.38.0 (20140413.2041)
 -->
<!-- Title: inheritancecc8b866a55 Pages: 1 -->
<svg width="563pt" height="212pt"
 viewBox="0.00 0.00 563.00 212.00" xmlns="http://www.w3.org/2000/svg" xmlns:xlink="http://www.w3.org/1999/xlink">
<g id="graph0" class="graph" transform="scale(1 1) rotate(0) translate(4 208)">
<title>inheritancecc8b866a55</title>
<polygon fill="white" stroke="none" points="-4,4 -4,-208 559,-208 559,4 -4,4"/>
<!-- Chebyshev1D -->
<g id="node1" class="node"><title>Chebyshev1D</title>
<g id="a_node1"><a xlink:href="../../api/astropy.modeling.polynomial.Chebyshev1D.html#astropy.modeling.polynomial.Chebyshev1D" xlink:title="1D Chebyshev polynomial of the 1st kind." target="_top">
<polygon fill="none" stroke="black" stroke-width="0.5" points="555,-204 476,-204 476,-185 555,-185 555,-204"/>
<text text-anchor="middle" x="515.5" y="-192" font-family="Vera Sans, DejaVu Sans, Liberation Sans, Arial, Helvetica, sans" font-size="10.00">Chebyshev1D</text>
</a>
</g>
</g>
<!-- PolynomialModel -->
<g id="node2" class="node"><title>PolynomialModel</title>
<g id="a_node2"><a xlink:href="../../api/astropy.modeling.polynomial.PolynomialModel.html#astropy.modeling.polynomial.PolynomialModel" xlink:title="Base class for polynomial models." target="_top">
<polygon fill="none" stroke="black" stroke-width="0.5" points="430,-130 337,-130 337,-111 430,-111 430,-130"/>
<text text-anchor="middle" x="383.5" y="-118" font-family="Vera Sans, DejaVu Sans, Liberation Sans, Arial, Helvetica, sans" font-size="10.00">PolynomialModel</text>
</a>
</g>
</g>
<!-- PolynomialModel&#45;&gt;Chebyshev1D -->
<g id="edge1" class="edge"><title>PolynomialModel&#45;&gt;Chebyshev1D</title>
<path fill="none" stroke="black" stroke-width="0.5" d="M399.099,-130.138C416.914,-141.732 448.113,-161.508 476,-176.5 479.83,-178.559 483.938,-180.624 487.991,-182.583"/>
<polygon fill="black" stroke="black" stroke-width="0.5" points="487.439,-184.259 492.705,-184.828 488.943,-181.098 487.439,-184.259"/>
</g>
<!-- Legendre1D -->
<g id="node8" class="node"><title>Legendre1D</title>
<g id="a_node8"><a xlink:href="../../api/astropy.modeling.polynomial.Legendre1D.html#astropy.modeling.polynomial.Legendre1D" xlink:title="1D Legendre polynomial." target="_top">
<polygon fill="none" stroke="black" stroke-width="0.5" points="551.5,-167 479.5,-167 479.5,-148 551.5,-148 551.5,-167"/>
<text text-anchor="middle" x="515.5" y="-155" font-family="Vera Sans, DejaVu Sans, Liberation Sans, Arial, Helvetica, sans" font-size="10.00">Legendre1D</text>
</a>
</g>
</g>
<!-- PolynomialModel&#45;&gt;Legendre1D -->
<g id="edge5" class="edge"><title>PolynomialModel&#45;&gt;Legendre1D</title>
<path fill="none" stroke="black" stroke-width="0.5" d="M417.978,-130.028C435.582,-135.039 457.256,-141.208 475.603,-146.429"/>
<polygon fill="black" stroke="black" stroke-width="0.5" points="475.395,-148.19 480.683,-147.875 476.353,-144.823 475.395,-148.19"/>
</g>
<!-- Polynomial1D -->
<g id="node11" class="node"><title>Polynomial1D</title>
<g id="a_node11"><a xlink:href="../../api/astropy.modeling.polynomial.Polynomial1D.html#astropy.modeling.polynomial.Polynomial1D" xlink:title="1D Polynomial model." target="_top">
<polygon fill="none" stroke="black" stroke-width="0.5" points="554.5,-130 476.5,-130 476.5,-111 554.5,-111 554.5,-130"/>
<text text-anchor="middle" x="515.5" y="-118" font-family="Vera Sans, DejaVu Sans, Liberation Sans, Arial, Helvetica, sans" font-size="10.00">Polynomial1D</text>
</a>
</g>
</g>
<!-- PolynomialModel&#45;&gt;Polynomial1D -->
<g id="edge8" class="edge"><title>PolynomialModel&#45;&gt;Polynomial1D</title>
<path fill="none" stroke="black" stroke-width="0.5" d="M430.333,-120.5C443.627,-120.5 458.096,-120.5 471.228,-120.5"/>
<polygon fill="black" stroke="black" stroke-width="0.5" points="471.381,-122.25 476.381,-120.5 471.381,-118.75 471.381,-122.25"/>
</g>
<!-- Polynomial2D -->
<g id="node12" class="node"><title>Polynomial2D</title>
<g id="a_node12"><a xlink:href="../../api/astropy.modeling.polynomial.Polynomial2D.html#astropy.modeling.polynomial.Polynomial2D" xlink:title="2D Polynomial &#160;model." target="_top">
<polygon fill="none" stroke="black" stroke-width="0.5" points="554.5,-93 476.5,-93 476.5,-74 554.5,-74 554.5,-93"/>
<text text-anchor="middle" x="515.5" y="-81" font-family="Vera Sans, DejaVu Sans, Liberation Sans, Arial, Helvetica, sans" font-size="10.00">Polynomial2D</text>
</a>
</g>
</g>
<!-- PolynomialModel&#45;&gt;Polynomial2D -->
<g id="edge9" class="edge"><title>PolynomialModel&#45;&gt;Polynomial2D</title>
<path fill="none" stroke="black" stroke-width="0.5" d="M417.978,-110.972C435.582,-105.961 457.256,-99.7924 475.603,-94.5707"/>
<polygon fill="black" stroke="black" stroke-width="0.5" points="476.353,-96.1767 480.683,-93.1247 475.395,-92.8104 476.353,-96.1767"/>
</g>
<!-- Chebyshev2D -->
<g id="node3" class="node"><title>Chebyshev2D</title>
<g id="a_node3"><a xlink:href="../../api/astropy.modeling.polynomial.Chebyshev2D.html#astropy.modeling.polynomial.Chebyshev2D" xlink:title="2D Chebyshev polynomial of the 1st kind." target="_top">
<polygon fill="none" stroke="black" stroke-width="0.5" points="555,-56 476,-56 476,-37 555,-37 555,-56"/>
<text text-anchor="middle" x="515.5" y="-44" font-family="Vera Sans, DejaVu Sans, Liberation Sans, Arial, Helvetica, sans" font-size="10.00">Chebyshev2D</text>
</a>
</g>
</g>
<!-- OrthoPolynomialBase -->
<g id="node4" class="node"><title>OrthoPolynomialBase</title>
<g id="a_node4"><a xlink:href="../../api/astropy.modeling.polynomial.OrthoPolynomialBase.html#astropy.modeling.polynomial.OrthoPolynomialBase" xlink:title="This is a base class for the 2D Chebyshev and Legendre models." target="_top">
<polygon fill="none" stroke="black" stroke-width="0.5" points="440,-56 327,-56 327,-37 440,-37 440,-56"/>
<text text-anchor="middle" x="383.5" y="-44" font-family="Vera Sans, DejaVu Sans, Liberation Sans, Arial, Helvetica, sans" font-size="10.00">OrthoPolynomialBase</text>
</a>
</g>
</g>
<!-- OrthoPolynomialBase&#45;&gt;Chebyshev2D -->
<g id="edge2" class="edge"><title>OrthoPolynomialBase&#45;&gt;Chebyshev2D</title>
<path fill="none" stroke="black" stroke-width="0.5" d="M440.009,-46.5C450.234,-46.5 460.78,-46.5 470.604,-46.5"/>
<polygon fill="black" stroke="black" stroke-width="0.5" points="470.67,-48.2501 475.67,-46.5 470.67,-44.7501 470.67,-48.2501"/>
</g>
<!-- Legendre2D -->
<g id="node9" class="node"><title>Legendre2D</title>
<g id="a_node9"><a xlink:href="../../api/astropy.modeling.polynomial.Legendre2D.html#astropy.modeling.polynomial.Legendre2D" xlink:title="Legendre 2D polynomial." target="_top">
<polygon fill="none" stroke="black" stroke-width="0.5" points="551.5,-19 479.5,-19 479.5,-0 551.5,-0 551.5,-19"/>
<text text-anchor="middle" x="515.5" y="-7" font-family="Vera Sans, DejaVu Sans, Liberation Sans, Arial, Helvetica, sans" font-size="10.00">Legendre2D</text>
</a>
</g>
</g>
<!-- OrthoPolynomialBase&#45;&gt;Legendre2D -->
<g id="edge6" class="edge"><title>OrthoPolynomialBase&#45;&gt;Legendre2D</title>
<path fill="none" stroke="black" stroke-width="0.5" d="M417.978,-36.9716C435.582,-31.9612 457.256,-25.7924 475.603,-20.5707"/>
<polygon fill="black" stroke="black" stroke-width="0.5" points="476.353,-22.1767 480.683,-19.1247 475.395,-18.8104 476.353,-22.1767"/>
</g>
<!-- FittableModel -->
<g id="node5" class="node"><title>FittableModel</title>
<g id="a_node5"><a xlink:href="../../api/astropy.modeling.FittableModel.html#astropy.modeling.FittableModel" xlink:title="Base class for models that can be fitted using the built&#45;in fitting" target="_top">
<polygon fill="none" stroke="black" stroke-width="0.5" points="167,-93 90,-93 90,-74 167,-74 167,-93"/>
<text text-anchor="middle" x="128.5" y="-81" font-family="Vera Sans, DejaVu Sans, Liberation Sans, Arial, Helvetica, sans" font-size="10.00">FittableModel</text>
</a>
</g>
</g>
<!-- PolynomialBase -->
<g id="node10" class="node"><title>PolynomialBase</title>
<g id="a_node10"><a xlink:title="Base class for all polynomial&#45;like models with an arbitrary number of">
<polygon fill="none" stroke="black" stroke-width="0.5" points="291,-93 203,-93 203,-74 291,-74 291,-93"/>
<text text-anchor="middle" x="247" y="-81" font-family="Vera Sans, DejaVu Sans, Liberation Sans, Arial, Helvetica, sans" font-size="10.00">PolynomialBase</text>
</a>
</g>
</g>
<!-- FittableModel&#45;&gt;PolynomialBase -->
<g id="edge10" class="edge"><title>FittableModel&#45;&gt;PolynomialBase</title>
<path fill="none" stroke="black" stroke-width="0.5" d="M167.003,-83.5C176.835,-83.5 187.574,-83.5 197.877,-83.5"/>
<polygon fill="black" stroke="black" stroke-width="0.5" points="197.894,-85.2501 202.894,-83.5 197.894,-81.7501 197.894,-85.2501"/>
</g>
<!-- Model -->
<g id="node6" class="node"><title>Model</title>
<g id="a_node6"><a xlink:href="../../api/astropy.modeling.Model.html#astropy.modeling.Model" xlink:title="Base class for all models." target="_top">
<polygon fill="none" stroke="black" stroke-width="0.5" points="54,-56 0,-56 0,-37 54,-37 54,-56"/>
<text text-anchor="middle" x="27" y="-44" font-family="Vera Sans, DejaVu Sans, Liberation Sans, Arial, Helvetica, sans" font-size="10.00">Model</text>
</a>
</g>
</g>
<!-- Model&#45;&gt;FittableModel -->
<g id="edge3" class="edge"><title>Model&#45;&gt;FittableModel</title>
<path fill="none" stroke="black" stroke-width="0.5" d="M53.6237,-56.0284C66.752,-60.9103 82.8379,-66.892 96.6438,-72.0258"/>
<polygon fill="black" stroke="black" stroke-width="0.5" points="96.3208,-73.7728 101.617,-73.8753 97.5408,-70.4922 96.3208,-73.7728"/>
</g>
<!-- InverseSIP -->
<g id="node7" class="node"><title>InverseSIP</title>
<g id="a_node7"><a xlink:href="../../api/astropy.modeling.polynomial.InverseSIP.html#astropy.modeling.polynomial.InverseSIP" xlink:title="Inverse Simple Imaging Polynomial" target="_top">
<polygon fill="none" stroke="black" stroke-width="0.5" points="161,-56 96,-56 96,-37 161,-37 161,-56"/>
<text text-anchor="middle" x="128.5" y="-44" font-family="Vera Sans, DejaVu Sans, Liberation Sans, Arial, Helvetica, sans" font-size="10.00">InverseSIP</text>
</a>
</g>
</g>
<!-- Model&#45;&gt;InverseSIP -->
<g id="edge4" class="edge"><title>Model&#45;&gt;InverseSIP</title>
<path fill="none" stroke="black" stroke-width="0.5" d="M54.1425,-46.5C65.3271,-46.5 78.584,-46.5 90.7309,-46.5"/>
<polygon fill="black" stroke="black" stroke-width="0.5" points="90.8595,-48.2501 95.8595,-46.5 90.8595,-44.7501 90.8595,-48.2501"/>
</g>
<!-- SIP -->
<g id="node13" class="node"><title>SIP</title>
<g id="a_node13"><a xlink:href="../../api/astropy.modeling.polynomial.SIP.html#astropy.modeling.polynomial.SIP" xlink:title="Simple Imaging Polynomial (SIP) model." target="_top">
<polygon fill="none" stroke="black" stroke-width="0.5" points="155.5,-19 101.5,-19 101.5,-0 155.5,-0 155.5,-19"/>
<text text-anchor="middle" x="128.5" y="-7" font-family="Vera Sans, DejaVu Sans, Liberation Sans, Arial, Helvetica, sans" font-size="10.00">SIP</text>
</a>
</g>
</g>
<!-- Model&#45;&gt;SIP -->
<g id="edge12" class="edge"><title>Model&#45;&gt;SIP</title>
<path fill="none" stroke="black" stroke-width="0.5" d="M53.6237,-36.9716C66.752,-32.0897 82.8379,-26.108 96.6438,-20.9742"/>
<polygon fill="black" stroke="black" stroke-width="0.5" points="97.5408,-22.5078 101.617,-19.1247 96.3208,-19.2272 97.5408,-22.5078"/>
</g>
<!-- PolynomialBase&#45;&gt;PolynomialModel -->
<g id="edge11" class="edge"><title>PolynomialBase&#45;&gt;PolynomialModel</title>
<path fill="none" stroke="black" stroke-width="0.5" d="M282.637,-93.0284C300.85,-98.0388 323.275,-104.208 342.257,-109.429"/>
<polygon fill="black" stroke="black" stroke-width="0.5" points="342.228,-111.236 347.513,-110.875 343.156,-107.862 342.228,-111.236"/>
</g>
<!-- PolynomialBase&#45;&gt;OrthoPolynomialBase -->
<g id="edge7" class="edge"><title>PolynomialBase&#45;&gt;OrthoPolynomialBase</title>
<path fill="none" stroke="black" stroke-width="0.5" d="M282.637,-73.9716C300.85,-68.9612 323.275,-62.7924 342.257,-57.5707"/>
<polygon fill="black" stroke="black" stroke-width="0.5" points="343.156,-59.1383 347.513,-56.1247 342.228,-55.7637 343.156,-59.1383"/>
</g>
</g>
</svg>
