<?xml version="1.0" encoding="UTF-8" standalone="no"?>
<!DOCTYPE svg PUBLIC "-//W3C//DTD SVG 1.1//EN"
 "http://www.w3.org/Graphics/SVG/1.1/DTD/svg11.dtd">
<!-- Generated by graphviz version 2.38.0 (20140413.2041)
 -->
<!-- Title: inheritance1d47659767 Pages: 1 -->
<svg width="355pt" height="101pt"
 viewBox="0.00 0.00 355.00 101.00" xmlns="http://www.w3.org/2000/svg" xmlns:xlink="http://www.w3.org/1999/xlink">
<g id="graph0" class="graph" transform="scale(1 1) rotate(0) translate(4 97)">
<title>inheritance1d47659767</title>
<polygon fill="white" stroke="none" points="-4,4 -4,-97 351,-97 351,4 -4,4"/>
<!-- EulerAngleRotation -->
<g id="node1" class="node"><title>EulerAngleRotation</title>
<g id="a_node1"><a xlink:href="../api/astropy.modeling.rotations.EulerAngleRotation.html#astropy.modeling.rotations.EulerAngleRotation" xlink:title="Implements Euler angle intrinsic rotations.">
<polygon fill="none" stroke="black" stroke-width="0.5" points="193,-93 90,-93 90,-74 193,-74 193,-93"/>
<text text-anchor="middle" x="141.5" y="-81" font-family="Vera Sans, DejaVu Sans, Liberation Sans, Arial, Helvetica, sans" font-size="10.00">EulerAngleRotation</text>
</a>
</g>
</g>
<!-- Model -->
<g id="node2" class="node"><title>Model</title>
<g id="a_node2"><a xlink:href="../api/astropy.modeling.Model.html#astropy.modeling.Model" xlink:title="Base class for all models.">
<polygon fill="none" stroke="black" stroke-width="0.5" points="54,-56 0,-56 0,-37 54,-37 54,-56"/>
<text text-anchor="middle" x="27" y="-44" font-family="Vera Sans, DejaVu Sans, Liberation Sans, Arial, Helvetica, sans" font-size="10.00">Model</text>
</a>
</g>
</g>
<!-- Model&#45;&gt;EulerAngleRotation -->
<g id="edge1" class="edge"><title>Model&#45;&gt;EulerAngleRotation</title>
<path fill="none" stroke="black" stroke-width="0.5" d="M54.0925,-55.0815C69.6221,-60.1891 89.5058,-66.7286 106.283,-72.2465"/>
<polygon fill="black" stroke="black" stroke-width="0.5" points="106.086,-74.0237 111.382,-73.9235 107.179,-70.6989 106.086,-74.0237"/>
</g>
<!-- _SkyRotation -->
<g id="node4" class="node"><title>_SkyRotation</title>
<g id="a_node4"><a xlink:title="Base class for FITS WCS sky rotations.">
<polygon fill="none" stroke="black" stroke-width="0.5" points="179.5,-56 103.5,-56 103.5,-37 179.5,-37 179.5,-56"/>
<text text-anchor="middle" x="141.5" y="-44" font-family="Vera Sans, DejaVu Sans, Liberation Sans, Arial, Helvetica, sans" font-size="10.00">_SkyRotation</text>
</a>
</g>
</g>
<!-- Model&#45;&gt;_SkyRotation -->
<g id="edge5" class="edge"><title>Model&#45;&gt;_SkyRotation</title>
<path fill="none" stroke="black" stroke-width="0.5" d="M54.0925,-46.5C67.1576,-46.5 83.3044,-46.5 98.0907,-46.5"/>
<polygon fill="black" stroke="black" stroke-width="0.5" points="98.4685,-48.2501 103.468,-46.5 98.4685,-44.7501 98.4685,-48.2501"/>
</g>
<!-- Rotation2D -->
<g id="node6" class="node"><title>Rotation2D</title>
<g id="a_node6"><a xlink:href="../api/astropy.modeling.rotations.Rotation2D.html#astropy.modeling.rotations.Rotation2D" xlink:title="Perform a 2D rotation given an angle in degrees.">
<polygon fill="none" stroke="black" stroke-width="0.5" points="175,-19 108,-19 108,-0 175,-0 175,-19"/>
<text text-anchor="middle" x="141.5" y="-7" font-family="Vera Sans, DejaVu Sans, Liberation Sans, Arial, Helvetica, sans" font-size="10.00">Rotation2D</text>
</a>
</g>
</g>
<!-- Model&#45;&gt;Rotation2D -->
<g id="edge4" class="edge"><title>Model&#45;&gt;Rotation2D</title>
<path fill="none" stroke="black" stroke-width="0.5" d="M54.0925,-37.9185C69.6221,-32.8109 89.5058,-26.2714 106.283,-20.7535"/>
<polygon fill="black" stroke="black" stroke-width="0.5" points="107.179,-22.3011 111.382,-19.0765 106.086,-18.9763 107.179,-22.3011"/>
</g>
<!-- RotateCelestial2Native -->
<g id="node3" class="node"><title>RotateCelestial2Native</title>
<g id="a_node3"><a xlink:href="../api/astropy.modeling.rotations.RotateCelestial2Native.html#astropy.modeling.rotations.RotateCelestial2Native" xlink:title="Transform from Celestial to Native to Spherical Coordinates.">
<polygon fill="none" stroke="black" stroke-width="0.5" points="347,-74 229,-74 229,-55 347,-55 347,-74"/>
<text text-anchor="middle" x="288" y="-62" font-family="Vera Sans, DejaVu Sans, Liberation Sans, Arial, Helvetica, sans" font-size="10.00">RotateCelestial2Native</text>
</a>
</g>
</g>
<!-- _SkyRotation&#45;&gt;RotateCelestial2Native -->
<g id="edge2" class="edge"><title>_SkyRotation&#45;&gt;RotateCelestial2Native</title>
<path fill="none" stroke="black" stroke-width="0.5" d="M179.712,-51.1354C193.16,-52.8106 208.745,-54.752 223.798,-56.6271"/>
<polygon fill="black" stroke="black" stroke-width="0.5" points="223.701,-58.3784 228.879,-57.26 224.133,-54.9052 223.701,-58.3784"/>
</g>
<!-- RotateNative2Celestial -->
<g id="node5" class="node"><title>RotateNative2Celestial</title>
<g id="a_node5"><a xlink:href="../api/astropy.modeling.rotations.RotateNative2Celestial.html#astropy.modeling.rotations.RotateNative2Celestial" xlink:title="Transform from Native to Celestial Spherical Coordinates.">
<polygon fill="none" stroke="black" stroke-width="0.5" points="347,-37 229,-37 229,-18 347,-18 347,-37"/>
<text text-anchor="middle" x="288" y="-25" font-family="Vera Sans, DejaVu Sans, Liberation Sans, Arial, Helvetica, sans" font-size="10.00">RotateNative2Celestial</text>
</a>
</g>
</g>
<!-- _SkyRotation&#45;&gt;RotateNative2Celestial -->
<g id="edge3" class="edge"><title>_SkyRotation&#45;&gt;RotateNative2Celestial</title>
<path fill="none" stroke="black" stroke-width="0.5" d="M179.712,-41.607C193.16,-39.8388 208.745,-37.7895 223.798,-35.8103"/>
<polygon fill="black" stroke="black" stroke-width="0.5" points="224.149,-37.5292 228.879,-35.1423 223.693,-34.0591 224.149,-37.5292"/>
</g>
</g>
</svg>
