<?xml version="1.0" encoding="UTF-8" standalone="no"?>
<!DOCTYPE svg PUBLIC "-//W3C//DTD SVG 1.1//EN"
 "http://www.w3.org/Graphics/SVG/1.1/DTD/svg11.dtd">
<!-- Generated by graphviz version 2.38.0 (20140413.2041)
 -->
<!-- Title: inheritance514df8ca09 Pages: 1 -->
<svg width="549pt" height="529pt"
 viewBox="0.00 0.00 549.00 529.00" xmlns="http://www.w3.org/2000/svg" xmlns:xlink="http://www.w3.org/1999/xlink">
<g id="graph0" class="graph" transform="scale(1 1) rotate(0) translate(4 525)">
<title>inheritance514df8ca09</title>
<polygon fill="white" stroke="none" points="-4,4 -4,-525 545,-525 545,4 -4,4"/>
<!-- BST -->
<g id="node1" class="node"><title>BST</title>
<g id="a_node1"><a xlink:href="../api/astropy.table.FastRBT.html#astropy.table.FastRBT" xlink:title="A basic binary search tree in pure Python, used">
<polygon fill="none" stroke="black" stroke-width="0.5" points="84,-19 30,-19 30,-0 84,-0 84,-19"/>
<text text-anchor="middle" x="57" y="-7" font-family="Vera Sans, DejaVu Sans, Liberation Sans, Arial, Helvetica, sans" font-size="10.00">BST</text>
</a>
</g>
</g>
<!-- BaseColumn -->
<g id="node2" class="node"><title>BaseColumn</title>
<polygon fill="none" stroke="black" stroke-width="0.5" points="229,-75 155,-75 155,-56 229,-56 229,-75"/>
<text text-anchor="middle" x="192" y="-63" font-family="Vera Sans, DejaVu Sans, Liberation Sans, Arial, Helvetica, sans" font-size="10.00">BaseColumn</text>
</g>
<!-- Column -->
<g id="node6" class="node"><title>Column</title>
<g id="a_node6"><a xlink:href="../api/astropy.table.Column.html#astropy.table.Column" xlink:title="Define a data column for use in a Table object.">
<polygon fill="none" stroke="black" stroke-width="0.5" points="371.5,-75 317.5,-75 317.5,-56 371.5,-56 371.5,-75"/>
<text text-anchor="middle" x="344.5" y="-63" font-family="Vera Sans, DejaVu Sans, Liberation Sans, Arial, Helvetica, sans" font-size="10.00">Column</text>
</a>
</g>
</g>
<!-- BaseColumn&#45;&gt;Column -->
<g id="edge3" class="edge"><title>BaseColumn&#45;&gt;Column</title>
<path fill="none" stroke="black" stroke-width="0.5" d="M229.048,-65.5C254.379,-65.5 287.931,-65.5 312.151,-65.5"/>
<polygon fill="black" stroke="black" stroke-width="0.5" points="312.172,-67.2501 317.172,-65.5 312.172,-63.7501 312.172,-67.2501"/>
</g>
<!-- _ColumnGetitemShim -->
<g id="node3" class="node"><title>_ColumnGetitemShim</title>
<polygon fill="none" stroke="black" stroke-width="0.5" points="114,-56 0,-56 0,-37 114,-37 114,-56"/>
<text text-anchor="middle" x="57" y="-44" font-family="Vera Sans, DejaVu Sans, Liberation Sans, Arial, Helvetica, sans" font-size="10.00">_ColumnGetitemShim</text>
</g>
<!-- _ColumnGetitemShim&#45;&gt;BaseColumn -->
<g id="edge1" class="edge"><title>_ColumnGetitemShim&#45;&gt;BaseColumn</title>
<path fill="none" stroke="black" stroke-width="0.5" d="M114.019,-54.5026C125.962,-56.2088 138.368,-57.9811 149.643,-59.5919"/>
<polygon fill="black" stroke="black" stroke-width="0.5" points="149.541,-61.345 154.738,-60.3197 150.036,-57.8801 149.541,-61.345"/>
</g>
<!-- _MaskedColumnGetitemShim -->
<g id="node13" class="node"><title>_MaskedColumnGetitemShim</title>
<polygon fill="none" stroke="black" stroke-width="0.5" points="419,-38 270,-38 270,-19 419,-19 419,-38"/>
<text text-anchor="middle" x="344.5" y="-26" font-family="Vera Sans, DejaVu Sans, Liberation Sans, Arial, Helvetica, sans" font-size="10.00">_MaskedColumnGetitemShim</text>
</g>
<!-- _ColumnGetitemShim&#45;&gt;_MaskedColumnGetitemShim -->
<g id="edge14" class="edge"><title>_ColumnGetitemShim&#45;&gt;_MaskedColumnGetitemShim</title>
<path fill="none" stroke="black" stroke-width="0.5" d="M114.065,-42.9653C157.075,-40.2536 216.981,-36.4767 264.794,-33.4622"/>
<polygon fill="black" stroke="black" stroke-width="0.5" points="265.091,-35.197 269.971,-33.1358 264.871,-31.704 265.091,-35.197"/>
</g>
<!-- ndarray -->
<g id="node4" class="node"><title>ndarray</title>
<g id="a_node4"><a xlink:title="ndarray(shape, dtype=float, buffer=None, offset=0,">
<polygon fill="none" stroke="black" stroke-width="0.5" points="84,-112 30,-112 30,-93 84,-93 84,-112"/>
<text text-anchor="middle" x="57" y="-100" font-family="Vera Sans, DejaVu Sans, Liberation Sans, Arial, Helvetica, sans" font-size="10.00">ndarray</text>
</a>
</g>
</g>
<!-- ndarray&#45;&gt;BaseColumn -->
<g id="edge2" class="edge"><title>ndarray&#45;&gt;BaseColumn</title>
<path fill="none" stroke="black" stroke-width="0.5" d="M84.2765,-95.19C103.561,-89.8252 130.074,-82.4494 151.849,-76.3916"/>
<polygon fill="black" stroke="black" stroke-width="0.5" points="152.355,-78.0673 156.703,-75.0412 151.417,-74.6954 152.355,-78.0673"/>
</g>
<!-- MaskedArray -->
<g id="node11" class="node"><title>MaskedArray</title>
<g id="a_node11"><a xlink:title="An array class with possibly masked values.">
<polygon fill="none" stroke="black" stroke-width="0.5" points="382,-131 307,-131 307,-112 382,-112 382,-131"/>
<text text-anchor="middle" x="344.5" y="-119" font-family="Vera Sans, DejaVu Sans, Liberation Sans, Arial, Helvetica, sans" font-size="10.00">MaskedArray</text>
</a>
</g>
</g>
<!-- ndarray&#45;&gt;MaskedArray -->
<g id="edge6" class="edge"><title>ndarray&#45;&gt;MaskedArray</title>
<path fill="none" stroke="black" stroke-width="0.5" d="M84.3752,-109.03C102.663,-113.219 127.651,-118.276 150,-120.5 201.988,-125.674 262.222,-124.93 301.497,-123.55"/>
<polygon fill="black" stroke="black" stroke-width="0.5" points="301.725,-125.293 306.658,-123.361 301.597,-121.795 301.725,-125.293"/>
</g>
<!-- NdarrayMixin -->
<g id="node14" class="node"><title>NdarrayMixin</title>
<g id="a_node14"><a xlink:href="../api/astropy.table.NdarrayMixin.html#astropy.table.NdarrayMixin" xlink:title="Mixin column class to allow storage of arbitrary numpy">
<polygon fill="none" stroke="black" stroke-width="0.5" points="229.5,-112 154.5,-112 154.5,-93 229.5,-93 229.5,-112"/>
<text text-anchor="middle" x="192" y="-100" font-family="Vera Sans, DejaVu Sans, Liberation Sans, Arial, Helvetica, sans" font-size="10.00">NdarrayMixin</text>
</a>
</g>
</g>
<!-- ndarray&#45;&gt;NdarrayMixin -->
<g id="edge10" class="edge"><title>ndarray&#45;&gt;NdarrayMixin</title>
<path fill="none" stroke="black" stroke-width="0.5" d="M84.2765,-102.5C102.849,-102.5 128.127,-102.5 149.419,-102.5"/>
<polygon fill="black" stroke="black" stroke-width="0.5" points="149.458,-104.25 154.458,-102.5 149.458,-100.75 149.458,-104.25"/>
</g>
<!-- BaseGroups -->
<g id="node5" class="node"><title>BaseGroups</title>
<g id="a_node5"><a xlink:title="A class to represent groups within a table of heterogeneous data.">
<polygon fill="none" stroke="black" stroke-width="0.5" points="93,-206 21,-206 21,-187 93,-187 93,-206"/>
<text text-anchor="middle" x="57" y="-194" font-family="Vera Sans, DejaVu Sans, Liberation Sans, Arial, Helvetica, sans" font-size="10.00">BaseGroups</text>
</a>
</g>
</g>
<!-- ColumnGroups -->
<g id="node7" class="node"><title>ColumnGroups</title>
<g id="a_node7"><a xlink:href="../api/astropy.table.ColumnGroups.html#astropy.table.ColumnGroups" xlink:title="ColumnGroups">
<polygon fill="none" stroke="black" stroke-width="0.5" points="234,-225 150,-225 150,-206 234,-206 234,-225"/>
<text text-anchor="middle" x="192" y="-213" font-family="Vera Sans, DejaVu Sans, Liberation Sans, Arial, Helvetica, sans" font-size="10.00">ColumnGroups</text>
</a>
</g>
</g>
<!-- BaseGroups&#45;&gt;ColumnGroups -->
<g id="edge4" class="edge"><title>BaseGroups&#45;&gt;ColumnGroups</title>
<path fill="none" stroke="black" stroke-width="0.5" d="M93.2924,-201.542C109.054,-203.793 127.841,-206.477 144.71,-208.887"/>
<polygon fill="black" stroke="black" stroke-width="0.5" points="144.681,-210.651 149.878,-209.625 145.176,-207.186 144.681,-210.651"/>
</g>
<!-- TableGroups -->
<g id="node22" class="node"><title>TableGroups</title>
<g id="a_node22"><a xlink:href="../api/astropy.table.TableGroups.html#astropy.table.TableGroups" xlink:title="TableGroups">
<polygon fill="none" stroke="black" stroke-width="0.5" points="229,-188 155,-188 155,-169 229,-169 229,-188"/>
<text text-anchor="middle" x="192" y="-176" font-family="Vera Sans, DejaVu Sans, Liberation Sans, Arial, Helvetica, sans" font-size="10.00">TableGroups</text>
</a>
</g>
</g>
<!-- BaseGroups&#45;&gt;TableGroups -->
<g id="edge13" class="edge"><title>BaseGroups&#45;&gt;TableGroups</title>
<path fill="none" stroke="black" stroke-width="0.5" d="M93.2924,-191.724C110.597,-189.382 131.547,-186.546 149.604,-184.102"/>
<polygon fill="black" stroke="black" stroke-width="0.5" points="149.894,-185.829 154.615,-183.424 149.425,-182.361 149.894,-185.829"/>
</g>
<!-- MaskedColumn -->
<g id="node12" class="node"><title>MaskedColumn</title>
<g id="a_node12"><a xlink:href="../api/astropy.table.MaskedColumn.html#astropy.table.MaskedColumn" xlink:title="Define a masked data column for use in a Table object.">
<polygon fill="none" stroke="black" stroke-width="0.5" points="541,-75 455,-75 455,-56 541,-56 541,-75"/>
<text text-anchor="middle" x="498" y="-63" font-family="Vera Sans, DejaVu Sans, Liberation Sans, Arial, Helvetica, sans" font-size="10.00">MaskedColumn</text>
</a>
</g>
</g>
<!-- Column&#45;&gt;MaskedColumn -->
<g id="edge7" class="edge"><title>Column&#45;&gt;MaskedColumn</title>
<path fill="none" stroke="black" stroke-width="0.5" d="M371.544,-65.5C392.959,-65.5 423.863,-65.5 449.639,-65.5"/>
<polygon fill="black" stroke="black" stroke-width="0.5" points="449.722,-67.2501 454.722,-65.5 449.722,-63.7501 449.722,-67.2501"/>
</g>
<!-- Conf -->
<g id="node8" class="node"><title>Conf</title>
<g id="a_node8"><a xlink:href="../api/astropy.table.Conf.html#astropy.table.Conf" xlink:title="Configuration parameters for `astropy.table`.">
<polygon fill="none" stroke="black" stroke-width="0.5" points="219,-262 165,-262 165,-243 219,-243 219,-262"/>
<text text-anchor="middle" x="192" y="-250" font-family="Vera Sans, DejaVu Sans, Liberation Sans, Arial, Helvetica, sans" font-size="10.00">Conf</text>
</a>
</g>
</g>
<!-- ConfigNamespace -->
<g id="node9" class="node"><title>ConfigNamespace</title>
<g id="a_node9"><a xlink:href="../api/astropy.config.ConfigNamespace.html#astropy.config.ConfigNamespace" xlink:title="A namespace of configuration items. &#160;Each subpackage with">
<polygon fill="none" stroke="black" stroke-width="0.5" points="106.5,-262 7.5,-262 7.5,-243 106.5,-243 106.5,-262"/>
<text text-anchor="middle" x="57" y="-250" font-family="Vera Sans, DejaVu Sans, Liberation Sans, Arial, Helvetica, sans" font-size="10.00">ConfigNamespace</text>
</a>
</g>
</g>
<!-- ConfigNamespace&#45;&gt;Conf -->
<g id="edge5" class="edge"><title>ConfigNamespace&#45;&gt;Conf</title>
<path fill="none" stroke="black" stroke-width="0.5" d="M106.769,-252.5C124.353,-252.5 143.722,-252.5 159.448,-252.5"/>
<polygon fill="black" stroke="black" stroke-width="0.5" points="159.634,-254.25 164.634,-252.5 159.634,-250.75 159.634,-254.25"/>
</g>
<!-- JSViewer -->
<g id="node10" class="node"><title>JSViewer</title>
<g id="a_node10"><a xlink:href="../api/astropy.table.JSViewer.html#astropy.table.JSViewer" xlink:title="Provides an interactive HTML export of a Table.">
<polygon fill="none" stroke="black" stroke-width="0.5" points="86.5,-299 27.5,-299 27.5,-280 86.5,-280 86.5,-299"/>
<text text-anchor="middle" x="57" y="-287" font-family="Vera Sans, DejaVu Sans, Liberation Sans, Arial, Helvetica, sans" font-size="10.00">JSViewer</text>
</a>
</g>
</g>
<!-- MaskedArray&#45;&gt;MaskedColumn -->
<g id="edge9" class="edge"><title>MaskedArray&#45;&gt;MaskedColumn</title>
<path fill="none" stroke="black" stroke-width="0.5" d="M371.544,-111.873C397.936,-102.118 438.74,-87.0351 466.597,-76.7382"/>
<polygon fill="black" stroke="black" stroke-width="0.5" points="467.213,-78.3762 471.296,-75.0011 465.999,-75.0933 467.213,-78.3762"/>
</g>
<!-- _MaskedColumnGetitemShim&#45;&gt;MaskedColumn -->
<g id="edge8" class="edge"><title>_MaskedColumnGetitemShim&#45;&gt;MaskedColumn</title>
<path fill="none" stroke="black" stroke-width="0.5" d="M384.515,-38.0284C405.375,-43.1228 431.138,-49.4149 452.743,-54.6913"/>
<polygon fill="black" stroke="black" stroke-width="0.5" points="452.582,-56.4533 457.854,-55.9396 453.412,-53.0533 452.582,-56.4533"/>
</g>
<!-- OrderedDict -->
<g id="node15" class="node"><title>OrderedDict</title>
<g id="a_node15"><a xlink:title="Dictionary that remembers insertion order">
<polygon fill="none" stroke="black" stroke-width="0.5" points="92,-336 22,-336 22,-317 92,-317 92,-336"/>
<text text-anchor="middle" x="57" y="-324" font-family="Vera Sans, DejaVu Sans, Liberation Sans, Arial, Helvetica, sans" font-size="10.00">OrderedDict</text>
</a>
</g>
</g>
<!-- TableColumns -->
<g id="node20" class="node"><title>TableColumns</title>
<g id="a_node20"><a xlink:href="../api/astropy.table.TableColumns.html#astropy.table.TableColumns" xlink:title="OrderedDict subclass for a set of columns.">
<polygon fill="none" stroke="black" stroke-width="0.5" points="232.5,-336 151.5,-336 151.5,-317 232.5,-317 232.5,-336"/>
<text text-anchor="middle" x="192" y="-324" font-family="Vera Sans, DejaVu Sans, Liberation Sans, Arial, Helvetica, sans" font-size="10.00">TableColumns</text>
</a>
</g>
</g>
<!-- OrderedDict&#45;&gt;TableColumns -->
<g id="edge12" class="edge"><title>OrderedDict&#45;&gt;TableColumns</title>
<path fill="none" stroke="black" stroke-width="0.5" d="M92.2508,-326.5C108.573,-326.5 128.314,-326.5 145.843,-326.5"/>
<polygon fill="black" stroke="black" stroke-width="0.5" points="146.205,-328.25 151.205,-326.5 146.205,-324.75 146.205,-328.25"/>
</g>
<!-- QTable -->
<g id="node16" class="node"><title>QTable</title>
<g id="a_node16"><a xlink:href="../api/astropy.table.QTable.html#astropy.table.QTable" xlink:title="A class to represent tables of heterogeneous data.">
<polygon fill="none" stroke="black" stroke-width="0.5" points="219,-373 165,-373 165,-354 219,-354 219,-373"/>
<text text-anchor="middle" x="192" y="-361" font-family="Vera Sans, DejaVu Sans, Liberation Sans, Arial, Helvetica, sans" font-size="10.00">QTable</text>
</a>
</g>
</g>
<!-- Table -->
<g id="node17" class="node"><title>Table</title>
<g id="a_node17"><a xlink:href="../api/astropy.table.Table.html#astropy.table.Table" xlink:title="A class to represent tables of heterogeneous data.">
<polygon fill="none" stroke="black" stroke-width="0.5" points="84,-373 30,-373 30,-354 84,-354 84,-373"/>
<text text-anchor="middle" x="57" y="-361" font-family="Vera Sans, DejaVu Sans, Liberation Sans, Arial, Helvetica, sans" font-size="10.00">Table</text>
</a>
</g>
</g>
<!-- Table&#45;&gt;QTable -->
<g id="edge11" class="edge"><title>Table&#45;&gt;QTable</title>
<path fill="none" stroke="black" stroke-width="0.5" d="M84.2765,-363.5C105.954,-363.5 136.765,-363.5 159.714,-363.5"/>
<polygon fill="black" stroke="black" stroke-width="0.5" points="159.778,-365.25 164.778,-363.5 159.778,-361.75 159.778,-365.25"/>
</g>
<!-- Row -->
<g id="node18" class="node"><title>Row</title>
<g id="a_node18"><a xlink:href="../api/astropy.table.Row.html#astropy.table.Row" xlink:title="A class to represent one row of a Table object.">
<polygon fill="none" stroke="black" stroke-width="0.5" points="84,-410 30,-410 30,-391 84,-391 84,-410"/>
<text text-anchor="middle" x="57" y="-398" font-family="Vera Sans, DejaVu Sans, Liberation Sans, Arial, Helvetica, sans" font-size="10.00">Row</text>
</a>
</g>
</g>
<!-- SortedArray -->
<g id="node19" class="node"><title>SortedArray</title>
<g id="a_node19"><a xlink:href="../api/astropy.table.SortedArray.html#astropy.table.SortedArray" xlink:title="Implements a sorted array container using">
<polygon fill="none" stroke="black" stroke-width="0.5" points="92,-447 22,-447 22,-428 92,-428 92,-447"/>
<text text-anchor="middle" x="57" y="-435" font-family="Vera Sans, DejaVu Sans, Liberation Sans, Arial, Helvetica, sans" font-size="10.00">SortedArray</text>
</a>
</g>
</g>
<!-- TableFormatter -->
<g id="node21" class="node"><title>TableFormatter</title>
<g id="a_node21"><a xlink:href="../api/astropy.table.TableFormatter.html#astropy.table.TableFormatter" xlink:title="TableFormatter">
<polygon fill="none" stroke="black" stroke-width="0.5" points="99.5,-484 14.5,-484 14.5,-465 99.5,-465 99.5,-484"/>
<text text-anchor="middle" x="57" y="-472" font-family="Vera Sans, DejaVu Sans, Liberation Sans, Arial, Helvetica, sans" font-size="10.00">TableFormatter</text>
</a>
</g>
</g>
<!-- TableMergeError -->
<g id="node23" class="node"><title>TableMergeError</title>
<g id="a_node23"><a xlink:href="../api/astropy.table.TableMergeError.html#astropy.table.TableMergeError" xlink:title="TableMergeError">
<polygon fill="none" stroke="black" stroke-width="0.5" points="103,-521 11,-521 11,-502 103,-502 103,-521"/>
<text text-anchor="middle" x="57" y="-509" font-family="Vera Sans, DejaVu Sans, Liberation Sans, Arial, Helvetica, sans" font-size="10.00">TableMergeError</text>
</a>
</g>
</g>
</g>
</svg>
