<?xml version="1.0" encoding="UTF-8" standalone="no"?>
<!DOCTYPE svg PUBLIC "-//W3C//DTD SVG 1.1//EN"
 "http://www.w3.org/Graphics/SVG/1.1/DTD/svg11.dtd">
<!-- Generated by graphviz version 2.38.0 (20140413.2041)
 -->
<!-- Title: inheritance9465d2d28d Pages: 1 -->
<svg width="576pt" height="820pt"
 viewBox="0.00 0.00 576.00 819.73" xmlns="http://www.w3.org/2000/svg" xmlns:xlink="http://www.w3.org/1999/xlink">
<g id="graph0" class="graph" transform="scale(0.994819 0.994819) rotate(0) translate(4 820)">
<title>inheritance9465d2d28d</title>
<polygon fill="white" stroke="none" points="-4,4 -4,-820 575,-820 575,4 -4,4"/>
<!-- AASTex -->
<g id="node1" class="node"><title>AASTex</title>
<g id="a_node1"><a xlink:href="../../api/astropy.io.ascii.AASTex.html#astropy.io.ascii.AASTex" xlink:title="Write and read AASTeX tables.">
<polygon fill="none" stroke="black" stroke-width="0.5" points="398,-296 344,-296 344,-277 398,-277 398,-296"/>
<text text-anchor="middle" x="371" y="-284" font-family="Vera Sans, DejaVu Sans, Liberation Sans, Arial, Helvetica, sans" font-size="10.00">AASTex</text>
</a>
</g>
</g>
<!-- Latex -->
<g id="node2" class="node"><title>Latex</title>
<g id="a_node2"><a xlink:href="../../api/astropy.io.ascii.Latex.html#astropy.io.ascii.Latex" xlink:title="Write and read LaTeX tables.">
<polygon fill="none" stroke="black" stroke-width="0.5" points="245,-250 191,-250 191,-231 245,-231 245,-250"/>
<text text-anchor="middle" x="218" y="-238" font-family="Vera Sans, DejaVu Sans, Liberation Sans, Arial, Helvetica, sans" font-size="10.00">Latex</text>
</a>
</g>
</g>
<!-- Latex&#45;&gt;AASTex -->
<g id="edge1" class="edge"><title>Latex&#45;&gt;AASTex</title>
<path fill="none" stroke="black" stroke-width="0.5" d="M245.302,-248.513C271.393,-256.461 311.368,-268.639 338.991,-277.054"/>
<polygon fill="black" stroke="black" stroke-width="0.5" points="338.706,-278.796 343.999,-278.579 339.726,-275.448 338.706,-278.796"/>
</g>
<!-- AllType -->
<g id="node3" class="node"><title>AllType</title>
<g id="a_node3"><a xlink:href="../../api/astropy.io.ascii.AllType.html#astropy.io.ascii.AllType" xlink:title="Subclass of all other data types.">
<polygon fill="none" stroke="black" stroke-width="0.5" points="542,-370 488,-370 488,-351 542,-351 542,-370"/>
<text text-anchor="middle" x="515" y="-358" font-family="Vera Sans, DejaVu Sans, Liberation Sans, Arial, Helvetica, sans" font-size="10.00">AllType</text>
</a>
</g>
</g>
<!-- StrType -->
<g id="node4" class="node"><title>StrType</title>
<g id="a_node4"><a xlink:href="../../api/astropy.io.ascii.StrType.html#astropy.io.ascii.StrType" xlink:title="Indicates that a column consists of text data.">
<polygon fill="none" stroke="black" stroke-width="0.5" points="245,-408 191,-408 191,-389 245,-389 245,-408"/>
<text text-anchor="middle" x="218" y="-396" font-family="Vera Sans, DejaVu Sans, Liberation Sans, Arial, Helvetica, sans" font-size="10.00">StrType</text>
</a>
</g>
</g>
<!-- StrType&#45;&gt;AllType -->
<g id="edge2" class="edge"><title>StrType&#45;&gt;AllType</title>
<path fill="none" stroke="black" stroke-width="0.5" d="M245.184,-396.754C284.103,-393.974 359.455,-387.877 423,-378.5 442.925,-375.56 465.1,-371.197 482.572,-367.502"/>
<polygon fill="black" stroke="black" stroke-width="0.5" points="483.31,-369.134 487.835,-366.38 482.58,-365.711 483.31,-369.134"/>
</g>
<!-- FloatType -->
<g id="node5" class="node"><title>FloatType</title>
<g id="a_node5"><a xlink:href="../../api/astropy.io.ascii.FloatType.html#astropy.io.ascii.FloatType" xlink:title="Describes floating&#45;point data.">
<polygon fill="none" stroke="black" stroke-width="0.5" points="401.5,-370 340.5,-370 340.5,-351 401.5,-351 401.5,-370"/>
<text text-anchor="middle" x="371" y="-358" font-family="Vera Sans, DejaVu Sans, Liberation Sans, Arial, Helvetica, sans" font-size="10.00">FloatType</text>
</a>
</g>
</g>
<!-- FloatType&#45;&gt;AllType -->
<g id="edge3" class="edge"><title>FloatType&#45;&gt;AllType</title>
<path fill="none" stroke="black" stroke-width="0.5" d="M401.768,-360.5C425.457,-360.5 458.517,-360.5 482.618,-360.5"/>
<polygon fill="black" stroke="black" stroke-width="0.5" points="482.619,-362.25 487.618,-360.5 482.618,-358.75 482.619,-362.25"/>
</g>
<!-- IntType -->
<g id="node6" class="node"><title>IntType</title>
<g id="a_node6"><a xlink:href="../../api/astropy.io.ascii.IntType.html#astropy.io.ascii.IntType" xlink:title="Describes integer data.">
<polygon fill="none" stroke="black" stroke-width="0.5" points="398,-333 344,-333 344,-314 398,-314 398,-333"/>
<text text-anchor="middle" x="371" y="-321" font-family="Vera Sans, DejaVu Sans, Liberation Sans, Arial, Helvetica, sans" font-size="10.00">IntType</text>
</a>
</g>
</g>
<!-- IntType&#45;&gt;AllType -->
<g id="edge4" class="edge"><title>IntType&#45;&gt;AllType</title>
<path fill="none" stroke="black" stroke-width="0.5" d="M398.045,-330.286C421.915,-336.506 457.301,-345.726 482.699,-352.344"/>
<polygon fill="black" stroke="black" stroke-width="0.5" points="482.36,-354.064 487.639,-353.631 483.242,-350.677 482.36,-354.064"/>
</g>
<!-- BaseData -->
<g id="node7" class="node"><title>BaseData</title>
<g id="a_node7"><a xlink:href="../../api/astropy.io.ascii.BaseData.html#astropy.io.ascii.BaseData" xlink:title="Base table data reader.">
<polygon fill="none" stroke="black" stroke-width="0.5" points="88.5,-446 28.5,-446 28.5,-427 88.5,-427 88.5,-446"/>
<text text-anchor="middle" x="58.5" y="-434" font-family="Vera Sans, DejaVu Sans, Liberation Sans, Arial, Helvetica, sans" font-size="10.00">BaseData</text>
</a>
</g>
</g>
<!-- BasicData -->
<g id="node14" class="node"><title>BasicData</title>
<g id="a_node14"><a xlink:href="../../api/astropy.io.ascii.BasicData.html#astropy.io.ascii.BasicData" xlink:title="Basic table Data Reader">
<polygon fill="none" stroke="black" stroke-width="0.5" points="249,-446 187,-446 187,-427 249,-427 249,-446"/>
<text text-anchor="middle" x="218" y="-434" font-family="Vera Sans, DejaVu Sans, Liberation Sans, Arial, Helvetica, sans" font-size="10.00">BasicData</text>
</a>
</g>
</g>
<!-- BaseData&#45;&gt;BasicData -->
<g id="edge6" class="edge"><title>BaseData&#45;&gt;BasicData</title>
<path fill="none" stroke="black" stroke-width="0.5" d="M88.7554,-436.5C115.052,-436.5 153.732,-436.5 181.731,-436.5"/>
<polygon fill="black" stroke="black" stroke-width="0.5" points="181.829,-438.25 186.829,-436.5 181.829,-434.75 181.829,-438.25"/>
</g>
<!-- BaseHeader -->
<g id="node8" class="node"><title>BaseHeader</title>
<g id="a_node8"><a xlink:href="../../api/astropy.io.ascii.BaseHeader.html#astropy.io.ascii.BaseHeader" xlink:title="Base table header reader">
<polygon fill="none" stroke="black" stroke-width="0.5" points="94.5,-483 22.5,-483 22.5,-464 94.5,-464 94.5,-483"/>
<text text-anchor="middle" x="58.5" y="-471" font-family="Vera Sans, DejaVu Sans, Liberation Sans, Arial, Helvetica, sans" font-size="10.00">BaseHeader</text>
</a>
</g>
</g>
<!-- BasicHeader -->
<g id="node15" class="node"><title>BasicHeader</title>
<g id="a_node15"><a xlink:href="../../api/astropy.io.ascii.BasicHeader.html#astropy.io.ascii.BasicHeader" xlink:title="Basic table Header Reader">
<polygon fill="none" stroke="black" stroke-width="0.5" points="255,-483 181,-483 181,-464 255,-464 255,-483"/>
<text text-anchor="middle" x="218" y="-471" font-family="Vera Sans, DejaVu Sans, Liberation Sans, Arial, Helvetica, sans" font-size="10.00">BasicHeader</text>
</a>
</g>
</g>
<!-- BaseHeader&#45;&gt;BasicHeader -->
<g id="edge7" class="edge"><title>BaseHeader&#45;&gt;BasicHeader</title>
<path fill="none" stroke="black" stroke-width="0.5" d="M94.8461,-473.5C118.809,-473.5 150.568,-473.5 175.697,-473.5"/>
<polygon fill="black" stroke="black" stroke-width="0.5" points="175.954,-475.25 180.954,-473.5 175.953,-471.75 175.954,-475.25"/>
</g>
<!-- BaseInputter -->
<g id="node9" class="node"><title>BaseInputter</title>
<g id="a_node9"><a xlink:href="../../api/astropy.io.ascii.BaseInputter.html#astropy.io.ascii.BaseInputter" xlink:title="Get the lines from the table input and return a list of lines.">
<polygon fill="none" stroke="black" stroke-width="0.5" points="95,-520 22,-520 22,-501 95,-501 95,-520"/>
<text text-anchor="middle" x="58.5" y="-508" font-family="Vera Sans, DejaVu Sans, Liberation Sans, Arial, Helvetica, sans" font-size="10.00">BaseInputter</text>
</a>
</g>
</g>
<!-- ContinuationLinesInputter -->
<g id="node19" class="node"><title>ContinuationLinesInputter</title>
<g id="a_node19"><a xlink:href="../../api/astropy.io.ascii.ContinuationLinesInputter.html#astropy.io.ascii.ContinuationLinesInputter" xlink:title="Inputter where lines ending in ``continuation_char`` are joined">
<polygon fill="none" stroke="black" stroke-width="0.5" points="283,-520 153,-520 153,-501 283,-501 283,-520"/>
<text text-anchor="middle" x="218" y="-508" font-family="Vera Sans, DejaVu Sans, Liberation Sans, Arial, Helvetica, sans" font-size="10.00">ContinuationLinesInputter</text>
</a>
</g>
</g>
<!-- BaseInputter&#45;&gt;ContinuationLinesInputter -->
<g id="edge10" class="edge"><title>BaseInputter&#45;&gt;ContinuationLinesInputter</title>
<path fill="none" stroke="black" stroke-width="0.5" d="M95.2392,-510.5C110.836,-510.5 129.679,-510.5 147.833,-510.5"/>
<polygon fill="black" stroke="black" stroke-width="0.5" points="147.932,-512.25 152.932,-510.5 147.932,-508.75 147.932,-512.25"/>
</g>
<!-- BaseOutputter -->
<g id="node10" class="node"><title>BaseOutputter</title>
<g id="a_node10"><a xlink:href="../../api/astropy.io.ascii.BaseOutputter.html#astropy.io.ascii.BaseOutputter" xlink:title="Output table as a dict of column objects keyed on column name. &#160;The">
<polygon fill="none" stroke="black" stroke-width="0.5" points="99,-557 18,-557 18,-538 99,-538 99,-557"/>
<text text-anchor="middle" x="58.5" y="-545" font-family="Vera Sans, DejaVu Sans, Liberation Sans, Arial, Helvetica, sans" font-size="10.00">BaseOutputter</text>
</a>
</g>
</g>
<!-- TableOutputter -->
<g id="node47" class="node"><title>TableOutputter</title>
<g id="a_node47"><a xlink:href="../../api/astropy.io.ascii.TableOutputter.html#astropy.io.ascii.TableOutputter" xlink:title="Output the table as an astropy.table.Table object.">
<polygon fill="none" stroke="black" stroke-width="0.5" points="259.5,-557 176.5,-557 176.5,-538 259.5,-538 259.5,-557"/>
<text text-anchor="middle" x="218" y="-545" font-family="Vera Sans, DejaVu Sans, Liberation Sans, Arial, Helvetica, sans" font-size="10.00">TableOutputter</text>
</a>
</g>
</g>
<!-- BaseOutputter&#45;&gt;TableOutputter -->
<g id="edge38" class="edge"><title>BaseOutputter&#45;&gt;TableOutputter</title>
<path fill="none" stroke="black" stroke-width="0.5" d="M99.2439,-547.5C121.187,-547.5 148.535,-547.5 171.351,-547.5"/>
<polygon fill="black" stroke="black" stroke-width="0.5" points="171.446,-549.25 176.446,-547.5 171.446,-545.75 171.446,-549.25"/>
</g>
<!-- BaseReader -->
<g id="node11" class="node"><title>BaseReader</title>
<g id="a_node11"><a xlink:href="../../api/astropy.io.ascii.BaseReader.html#astropy.io.ascii.BaseReader" xlink:title="Class providing methods to read and write an ASCII table using the specified">
<polygon fill="none" stroke="black" stroke-width="0.5" points="94.5,-111 22.5,-111 22.5,-92 94.5,-92 94.5,-111"/>
<text text-anchor="middle" x="58.5" y="-99" font-family="Vera Sans, DejaVu Sans, Liberation Sans, Arial, Helvetica, sans" font-size="10.00">BaseReader</text>
</a>
</g>
</g>
<!-- BaseReader&#45;&gt;Latex -->
<g id="edge30" class="edge"><title>BaseReader&#45;&gt;Latex</title>
<path fill="none" stroke="black" stroke-width="0.5" d="M70.3256,-111.054C97.8621,-135.356 170.615,-199.564 202.113,-227.362"/>
<polygon fill="black" stroke="black" stroke-width="0.5" points="201.192,-228.883 206.099,-230.879 203.508,-226.258 201.192,-228.883"/>
</g>
<!-- Basic -->
<g id="node13" class="node"><title>Basic</title>
<g id="a_node13"><a xlink:href="../../api/astropy.io.ascii.Basic.html#astropy.io.ascii.Basic" xlink:title="Read a character&#45;delimited table with a single header line at the top">
<polygon fill="none" stroke="black" stroke-width="0.5" points="245,-167 191,-167 191,-148 245,-148 245,-167"/>
<text text-anchor="middle" x="218" y="-155" font-family="Vera Sans, DejaVu Sans, Liberation Sans, Arial, Helvetica, sans" font-size="10.00">Basic</text>
</a>
</g>
</g>
<!-- BaseReader&#45;&gt;Basic -->
<g id="edge5" class="edge"><title>BaseReader&#45;&gt;Basic</title>
<path fill="none" stroke="black" stroke-width="0.5" d="M81.9634,-111.036C100.774,-118.864 128.415,-130.005 153,-138.5 163.638,-142.176 175.415,-145.797 185.935,-148.876"/>
<polygon fill="black" stroke="black" stroke-width="0.5" points="185.699,-150.63 190.988,-150.342 186.674,-147.268 185.699,-150.63"/>
</g>
<!-- Cds -->
<g id="node16" class="node"><title>Cds</title>
<g id="a_node16"><a xlink:href="../../api/astropy.io.ascii.Cds.html#astropy.io.ascii.Cds" xlink:title="Read a CDS format table. &#160;See http://vizier.u&#45;strasbg.fr/doc/catstd.htx.">
<polygon fill="none" stroke="black" stroke-width="0.5" points="245,-130 191,-130 191,-111 245,-111 245,-130"/>
<text text-anchor="middle" x="218" y="-118" font-family="Vera Sans, DejaVu Sans, Liberation Sans, Arial, Helvetica, sans" font-size="10.00">Cds</text>
</a>
</g>
</g>
<!-- BaseReader&#45;&gt;Cds -->
<g id="edge8" class="edge"><title>BaseReader&#45;&gt;Cds</title>
<path fill="none" stroke="black" stroke-width="0.5" d="M94.8461,-105.764C122.055,-109.046 159.317,-113.541 185.509,-116.701"/>
<polygon fill="black" stroke="black" stroke-width="0.5" points="185.42,-118.453 190.594,-117.314 185.839,-114.978 185.42,-118.453"/>
</g>
<!-- Daophot -->
<g id="node21" class="node"><title>Daophot</title>
<g id="a_node21"><a xlink:href="../../api/astropy.io.ascii.Daophot.html#astropy.io.ascii.Daophot" xlink:title="Read a DAOphot file.">
<polygon fill="none" stroke="black" stroke-width="0.5" points="245,-93 191,-93 191,-74 245,-74 245,-93"/>
<text text-anchor="middle" x="218" y="-81" font-family="Vera Sans, DejaVu Sans, Liberation Sans, Arial, Helvetica, sans" font-size="10.00">Daophot</text>
</a>
</g>
</g>
<!-- BaseReader&#45;&gt;Daophot -->
<g id="edge12" class="edge"><title>BaseReader&#45;&gt;Daophot</title>
<path fill="none" stroke="black" stroke-width="0.5" d="M94.8461,-97.4604C122.055,-94.3509 159.317,-90.0924 185.509,-87.099"/>
<polygon fill="black" stroke="black" stroke-width="0.5" points="185.825,-88.8244 190.594,-86.5179 185.427,-85.347 185.825,-88.8244"/>
</g>
<!-- HTML -->
<g id="node37" class="node"><title>HTML</title>
<g id="a_node37"><a xlink:href="../../api/astropy.io.ascii.HTML.html#astropy.io.ascii.HTML" xlink:title="Read and write HTML tables.">
<polygon fill="none" stroke="black" stroke-width="0.5" points="245,-56 191,-56 191,-37 245,-37 245,-56"/>
<text text-anchor="middle" x="218" y="-44" font-family="Vera Sans, DejaVu Sans, Liberation Sans, Arial, Helvetica, sans" font-size="10.00">HTML</text>
</a>
</g>
</g>
<!-- BaseReader&#45;&gt;HTML -->
<g id="edge27" class="edge"><title>BaseReader&#45;&gt;HTML</title>
<path fill="none" stroke="black" stroke-width="0.5" d="M81.9316,-91.8712C100.724,-83.9873 128.354,-72.8178 153,-64.5 163.62,-60.9158 175.392,-57.4607 185.914,-54.5526"/>
<polygon fill="black" stroke="black" stroke-width="0.5" points="186.607,-56.1774 190.969,-53.1707 185.684,-52.8013 186.607,-56.1774"/>
</g>
<!-- SExtractor -->
<g id="node46" class="node"><title>SExtractor</title>
<g id="a_node46"><a xlink:href="../../api/astropy.io.ascii.SExtractor.html#astropy.io.ascii.SExtractor" xlink:title="Read a SExtractor file.">
<polygon fill="none" stroke="black" stroke-width="0.5" points="249.5,-19 186.5,-19 186.5,-0 249.5,-0 249.5,-19"/>
<text text-anchor="middle" x="218" y="-7" font-family="Vera Sans, DejaVu Sans, Liberation Sans, Arial, Helvetica, sans" font-size="10.00">SExtractor</text>
</a>
</g>
</g>
<!-- BaseReader&#45;&gt;SExtractor -->
<g id="edge35" class="edge"><title>BaseReader&#45;&gt;SExtractor</title>
<path fill="none" stroke="black" stroke-width="0.5" d="M68.9563,-91.8529C84.8856,-76.1351 118.702,-45.0012 153,-27.5 161.843,-22.9879 171.967,-19.4759 181.515,-16.8013"/>
<polygon fill="black" stroke="black" stroke-width="0.5" points="182.07,-18.4644 186.445,-15.4781 181.162,-15.084 182.07,-18.4644"/>
</g>
<!-- BaseSplitter -->
<g id="node12" class="node"><title>BaseSplitter</title>
<g id="a_node12"><a xlink:href="../../api/astropy.io.ascii.BaseSplitter.html#astropy.io.ascii.BaseSplitter" xlink:title="Base splitter that uses python&#39;s split method to do the work.">
<polygon fill="none" stroke="black" stroke-width="0.5" points="93.5,-612 23.5,-612 23.5,-593 93.5,-593 93.5,-612"/>
<text text-anchor="middle" x="58.5" y="-600" font-family="Vera Sans, DejaVu Sans, Liberation Sans, Arial, Helvetica, sans" font-size="10.00">BaseSplitter</text>
</a>
</g>
</g>
<!-- DefaultSplitter -->
<g id="node22" class="node"><title>DefaultSplitter</title>
<g id="a_node22"><a xlink:href="../../api/astropy.io.ascii.DefaultSplitter.html#astropy.io.ascii.DefaultSplitter" xlink:title="Default class to split strings into columns using python csv. &#160;The class">
<polygon fill="none" stroke="black" stroke-width="0.5" points="257.5,-631 178.5,-631 178.5,-612 257.5,-612 257.5,-631"/>
<text text-anchor="middle" x="218" y="-619" font-family="Vera Sans, DejaVu Sans, Liberation Sans, Arial, Helvetica, sans" font-size="10.00">DefaultSplitter</text>
</a>
</g>
</g>
<!-- BaseSplitter&#45;&gt;DefaultSplitter -->
<g id="edge13" class="edge"><title>BaseSplitter&#45;&gt;DefaultSplitter</title>
<path fill="none" stroke="black" stroke-width="0.5" d="M93.6752,-606.623C116.987,-609.435 148.07,-613.185 173.198,-616.216"/>
<polygon fill="black" stroke="black" stroke-width="0.5" points="173.291,-617.99 178.465,-616.851 173.71,-614.515 173.291,-617.99"/>
</g>
<!-- FixedWidthSplitter -->
<g id="node34" class="node"><title>FixedWidthSplitter</title>
<g id="a_node34"><a xlink:href="../../api/astropy.io.ascii.FixedWidthSplitter.html#astropy.io.ascii.FixedWidthSplitter" xlink:title="Split line based on fixed start and end positions for each ``col`` in">
<polygon fill="none" stroke="black" stroke-width="0.5" points="267,-594 169,-594 169,-575 267,-575 267,-594"/>
<text text-anchor="middle" x="218" y="-582" font-family="Vera Sans, DejaVu Sans, Liberation Sans, Arial, Helvetica, sans" font-size="10.00">FixedWidthSplitter</text>
</a>
</g>
</g>
<!-- BaseSplitter&#45;&gt;FixedWidthSplitter -->
<g id="edge24" class="edge"><title>BaseSplitter&#45;&gt;FixedWidthSplitter</title>
<path fill="none" stroke="black" stroke-width="0.5" d="M93.6752,-598.594C114.114,-596.258 140.527,-593.24 163.662,-590.596"/>
<polygon fill="black" stroke="black" stroke-width="0.5" points="164.082,-592.309 168.85,-590.003 163.684,-588.832 164.082,-592.309"/>
</g>
<!-- CommentedHeader -->
<g id="node18" class="node"><title>CommentedHeader</title>
<g id="a_node18"><a xlink:href="../../api/astropy.io.ascii.CommentedHeader.html#astropy.io.ascii.CommentedHeader" xlink:title="Read a file where the column names are given in a line that begins with">
<polygon fill="none" stroke="black" stroke-width="0.5" points="423,-259 319,-259 319,-240 423,-240 423,-259"/>
<text text-anchor="middle" x="371" y="-247" font-family="Vera Sans, DejaVu Sans, Liberation Sans, Arial, Helvetica, sans" font-size="10.00">CommentedHeader</text>
</a>
</g>
</g>
<!-- Basic&#45;&gt;CommentedHeader -->
<g id="edge9" class="edge"><title>Basic&#45;&gt;CommentedHeader</title>
<path fill="none" stroke="black" stroke-width="0.5" d="M230.016,-167.128C247.748,-182.247 284.17,-211.761 319,-230.5 324.201,-233.298 329.902,-235.862 335.549,-238.14"/>
<polygon fill="black" stroke="black" stroke-width="0.5" points="334.974,-239.794 340.268,-239.985 336.248,-236.534 334.974,-239.794"/>
</g>
<!-- Csv -->
<g id="node20" class="node"><title>Csv</title>
<g id="a_node20"><a xlink:href="../../api/astropy.io.ascii.Csv.html#astropy.io.ascii.Csv" xlink:title="Read a CSV (comma&#45;separated&#45;values) file.">
<polygon fill="none" stroke="black" stroke-width="0.5" points="398,-222 344,-222 344,-203 398,-203 398,-222"/>
<text text-anchor="middle" x="371" y="-210" font-family="Vera Sans, DejaVu Sans, Liberation Sans, Arial, Helvetica, sans" font-size="10.00">Csv</text>
</a>
</g>
</g>
<!-- Basic&#45;&gt;Csv -->
<g id="edge11" class="edge"><title>Basic&#45;&gt;Csv</title>
<path fill="none" stroke="black" stroke-width="0.5" d="M245.302,-167.08C271.393,-176.584 311.368,-191.144 338.991,-201.205"/>
<polygon fill="black" stroke="black" stroke-width="0.5" points="338.702,-202.963 343.999,-203.03 339.9,-199.674 338.702,-202.963"/>
</g>
<!-- Ecsv -->
<g id="node23" class="node"><title>Ecsv</title>
<g id="a_node23"><a xlink:href="../../api/astropy.io.ascii.Ecsv.html#astropy.io.ascii.Ecsv" xlink:title="Read a file which conforms to the ECSV (Enhanced Character Separated">
<polygon fill="none" stroke="black" stroke-width="0.5" points="398,-185 344,-185 344,-166 398,-166 398,-185"/>
<text text-anchor="middle" x="371" y="-173" font-family="Vera Sans, DejaVu Sans, Liberation Sans, Arial, Helvetica, sans" font-size="10.00">Ecsv</text>
</a>
</g>
</g>
<!-- Basic&#45;&gt;Ecsv -->
<g id="edge14" class="edge"><title>Basic&#45;&gt;Ecsv</title>
<path fill="none" stroke="black" stroke-width="0.5" d="M245.302,-160.635C271.393,-163.746 311.368,-168.511 338.991,-171.804"/>
<polygon fill="black" stroke="black" stroke-width="0.5" points="338.827,-173.546 343.999,-172.401 339.242,-170.071 338.827,-173.546"/>
</g>
<!-- FixedWidth -->
<g id="node30" class="node"><title>FixedWidth</title>
<g id="a_node30"><a xlink:href="../../api/astropy.io.ascii.FixedWidth.html#astropy.io.ascii.FixedWidth" xlink:title="Read or write a fixed width table with a single header line that defines column">
<polygon fill="none" stroke="black" stroke-width="0.5" points="404.5,-148 337.5,-148 337.5,-129 404.5,-129 404.5,-148"/>
<text text-anchor="middle" x="371" y="-136" font-family="Vera Sans, DejaVu Sans, Liberation Sans, Arial, Helvetica, sans" font-size="10.00">FixedWidth</text>
</a>
</g>
</g>
<!-- Basic&#45;&gt;FixedWidth -->
<g id="edge20" class="edge"><title>Basic&#45;&gt;FixedWidth</title>
<path fill="none" stroke="black" stroke-width="0.5" d="M245.302,-154.19C269.305,-151.17 305.057,-146.672 332.133,-143.265"/>
<polygon fill="black" stroke="black" stroke-width="0.5" points="332.685,-144.959 337.427,-142.599 332.248,-141.487 332.685,-144.959"/>
</g>
<!-- Ipac -->
<g id="node39" class="node"><title>Ipac</title>
<g id="a_node39"><a xlink:href="../../api/astropy.io.ascii.Ipac.html#astropy.io.ascii.Ipac" xlink:title="Read or write an IPAC format table. &#160;See">
<polygon fill="none" stroke="black" stroke-width="0.5" points="398,-111 344,-111 344,-92 398,-92 398,-111"/>
<text text-anchor="middle" x="371" y="-99" font-family="Vera Sans, DejaVu Sans, Liberation Sans, Arial, Helvetica, sans" font-size="10.00">Ipac</text>
</a>
</g>
</g>
<!-- Basic&#45;&gt;Ipac -->
<g id="edge29" class="edge"><title>Basic&#45;&gt;Ipac</title>
<path fill="none" stroke="black" stroke-width="0.5" d="M245.246,-150.966C256.981,-147.726 270.872,-143.444 283,-138.5 299.753,-131.67 302.426,-126.752 319,-119.5 325.306,-116.741 332.183,-114.085 338.787,-111.701"/>
<polygon fill="black" stroke="black" stroke-width="0.5" points="339.642,-113.255 343.769,-109.933 338.472,-109.956 339.642,-113.255"/>
</g>
<!-- NoHeader -->
<g id="node40" class="node"><title>NoHeader</title>
<g id="a_node40"><a xlink:href="../../api/astropy.io.ascii.NoHeader.html#astropy.io.ascii.NoHeader" xlink:title="Read a table with no header line. &#160;Columns are autonamed using">
<polygon fill="none" stroke="black" stroke-width="0.5" points="402,-74 340,-74 340,-55 402,-55 402,-74"/>
<text text-anchor="middle" x="371" y="-62" font-family="Vera Sans, DejaVu Sans, Liberation Sans, Arial, Helvetica, sans" font-size="10.00">NoHeader</text>
</a>
</g>
</g>
<!-- Basic&#45;&gt;NoHeader -->
<g id="edge31" class="edge"><title>Basic&#45;&gt;NoHeader</title>
<path fill="none" stroke="black" stroke-width="0.5" d="M245.208,-154.048C257.611,-151.39 272.063,-146.712 283,-138.5 306.661,-120.735 295.797,-100.859 319,-82.5 323.775,-78.7221 329.403,-75.7032 335.145,-73.3012"/>
<polygon fill="black" stroke="black" stroke-width="0.5" points="335.951,-74.8656 339.98,-71.4255 334.685,-71.6026 335.951,-74.8656"/>
</g>
<!-- Tab -->
<g id="node45" class="node"><title>Tab</title>
<g id="a_node45"><a xlink:href="../../api/astropy.io.ascii.Tab.html#astropy.io.ascii.Tab" xlink:title="Read a tab&#45;separated file. &#160;Unlike the :class:`Basic` reader, whitespace is">
<polygon fill="none" stroke="black" stroke-width="0.5" points="398,-37 344,-37 344,-18 398,-18 398,-37"/>
<text text-anchor="middle" x="371" y="-25" font-family="Vera Sans, DejaVu Sans, Liberation Sans, Arial, Helvetica, sans" font-size="10.00">Tab</text>
</a>
</g>
</g>
<!-- Basic&#45;&gt;Tab -->
<g id="edge37" class="edge"><title>Basic&#45;&gt;Tab</title>
<path fill="none" stroke="black" stroke-width="0.5" d="M245.022,-155.154C257.829,-152.773 272.691,-148.008 283,-138.5 315.58,-108.45 287.192,-76.3662 319,-45.5 324.475,-40.1872 331.612,-36.4336 338.804,-33.7846"/>
<polygon fill="black" stroke="black" stroke-width="0.5" points="339.587,-35.3682 343.773,-32.1216 338.476,-32.0492 339.587,-35.3682"/>
</g>
<!-- FixedWidthData -->
<g id="node31" class="node"><title>FixedWidthData</title>
<g id="a_node31"><a xlink:href="../../api/astropy.io.ascii.FixedWidthData.html#astropy.io.ascii.FixedWidthData" xlink:title="Base table data reader.">
<polygon fill="none" stroke="black" stroke-width="0.5" points="415,-446 327,-446 327,-427 415,-427 415,-446"/>
<text text-anchor="middle" x="371" y="-434" font-family="Vera Sans, DejaVu Sans, Liberation Sans, Arial, Helvetica, sans" font-size="10.00">FixedWidthData</text>
</a>
</g>
</g>
<!-- BasicData&#45;&gt;FixedWidthData -->
<g id="edge21" class="edge"><title>BasicData&#45;&gt;FixedWidthData</title>
<path fill="none" stroke="black" stroke-width="0.5" d="M249.194,-436.5C270.005,-436.5 298.103,-436.5 321.964,-436.5"/>
<polygon fill="black" stroke="black" stroke-width="0.5" points="321.988,-438.25 326.988,-436.5 321.988,-434.75 321.988,-438.25"/>
</g>
<!-- FixedWidthHeader -->
<g id="node32" class="node"><title>FixedWidthHeader</title>
<g id="a_node32"><a xlink:href="../../api/astropy.io.ascii.FixedWidthHeader.html#astropy.io.ascii.FixedWidthHeader" xlink:title="Fixed width table header reader.">
<polygon fill="none" stroke="black" stroke-width="0.5" points="420.5,-483 321.5,-483 321.5,-464 420.5,-464 420.5,-483"/>
<text text-anchor="middle" x="371" y="-471" font-family="Vera Sans, DejaVu Sans, Liberation Sans, Arial, Helvetica, sans" font-size="10.00">FixedWidthHeader</text>
</a>
</g>
</g>
<!-- BasicHeader&#45;&gt;FixedWidthHeader -->
<g id="edge22" class="edge"><title>BasicHeader&#45;&gt;FixedWidthHeader</title>
<path fill="none" stroke="black" stroke-width="0.5" d="M255.168,-473.5C273.427,-473.5 295.943,-473.5 316.186,-473.5"/>
<polygon fill="black" stroke="black" stroke-width="0.5" points="316.28,-475.25 321.28,-473.5 316.28,-471.75 316.28,-475.25"/>
</g>
<!-- Column -->
<g id="node17" class="node"><title>Column</title>
<g id="a_node17"><a xlink:href="../../api/astropy.io.ascii.Column.html#astropy.io.ascii.Column" xlink:title="Table column.">
<polygon fill="none" stroke="black" stroke-width="0.5" points="85.5,-686 31.5,-686 31.5,-667 85.5,-667 85.5,-686"/>
<text text-anchor="middle" x="58.5" y="-674" font-family="Vera Sans, DejaVu Sans, Liberation Sans, Arial, Helvetica, sans" font-size="10.00">Column</text>
</a>
</g>
</g>
<!-- WhitespaceSplitter -->
<g id="node48" class="node"><title>WhitespaceSplitter</title>
<g id="a_node48"><a xlink:href="../../api/astropy.io.ascii.WhitespaceSplitter.html#astropy.io.ascii.WhitespaceSplitter" xlink:title="WhitespaceSplitter">
<polygon fill="none" stroke="black" stroke-width="0.5" points="421,-631 321,-631 321,-612 421,-612 421,-631"/>
<text text-anchor="middle" x="371" y="-619" font-family="Vera Sans, DejaVu Sans, Liberation Sans, Arial, Helvetica, sans" font-size="10.00">WhitespaceSplitter</text>
</a>
</g>
</g>
<!-- DefaultSplitter&#45;&gt;WhitespaceSplitter -->
<g id="edge39" class="edge"><title>DefaultSplitter&#45;&gt;WhitespaceSplitter</title>
<path fill="none" stroke="black" stroke-width="0.5" d="M257.886,-621.5C275.458,-621.5 296.522,-621.5 315.624,-621.5"/>
<polygon fill="black" stroke="black" stroke-width="0.5" points="315.955,-623.25 320.955,-621.5 315.955,-619.75 315.955,-623.25"/>
</g>
<!-- FastBasic -->
<g id="node24" class="node"><title>FastBasic</title>
<g id="a_node24"><a xlink:href="../../api/astropy.io.ascii.FastBasic.html#astropy.io.ascii.FastBasic" xlink:title="This class is intended to handle the same format addressed by the">
<polygon fill="none" stroke="black" stroke-width="0.5" points="88.5,-742 28.5,-742 28.5,-723 88.5,-723 88.5,-742"/>
<text text-anchor="middle" x="58.5" y="-730" font-family="Vera Sans, DejaVu Sans, Liberation Sans, Arial, Helvetica, sans" font-size="10.00">FastBasic</text>
</a>
</g>
</g>
<!-- FastCommentedHeader -->
<g id="node25" class="node"><title>FastCommentedHeader</title>
<g id="a_node25"><a xlink:href="../../api/astropy.io.ascii.FastCommentedHeader.html#astropy.io.ascii.FastCommentedHeader" xlink:title="A faster version of the :class:`CommentedHeader` reader, which looks for">
<polygon fill="none" stroke="black" stroke-width="0.5" points="279.5,-816 156.5,-816 156.5,-797 279.5,-797 279.5,-816"/>
<text text-anchor="middle" x="218" y="-804" font-family="Vera Sans, DejaVu Sans, Liberation Sans, Arial, Helvetica, sans" font-size="10.00">FastCommentedHeader</text>
</a>
</g>
</g>
<!-- FastBasic&#45;&gt;FastCommentedHeader -->
<g id="edge15" class="edge"><title>FastBasic&#45;&gt;FastCommentedHeader</title>
<path fill="none" stroke="black" stroke-width="0.5" d="M88.78,-739.214C98.219,-742.136 108.444,-746.146 117,-751.5 136.45,-763.67 133.281,-776.77 153,-788.5 157.315,-791.067 162.012,-793.281 166.835,-795.189"/>
<polygon fill="black" stroke="black" stroke-width="0.5" points="166.396,-796.892 171.692,-796.995 167.616,-793.612 166.396,-796.892"/>
</g>
<!-- FastCsv -->
<g id="node26" class="node"><title>FastCsv</title>
<g id="a_node26"><a xlink:href="../../api/astropy.io.ascii.FastCsv.html#astropy.io.ascii.FastCsv" xlink:title="A faster version of the ordinary :class:`Csv` writer that uses the">
<polygon fill="none" stroke="black" stroke-width="0.5" points="245,-779 191,-779 191,-760 245,-760 245,-779"/>
<text text-anchor="middle" x="218" y="-767" font-family="Vera Sans, DejaVu Sans, Liberation Sans, Arial, Helvetica, sans" font-size="10.00">FastCsv</text>
</a>
</g>
</g>
<!-- FastBasic&#45;&gt;FastCsv -->
<g id="edge16" class="edge"><title>FastBasic&#45;&gt;FastCsv</title>
<path fill="none" stroke="black" stroke-width="0.5" d="M88.7554,-739.373C116.309,-745.845 157.456,-755.512 185.668,-762.139"/>
<polygon fill="black" stroke="black" stroke-width="0.5" points="185.511,-763.9 190.779,-763.34 186.311,-760.493 185.511,-763.9"/>
</g>
<!-- FastNoHeader -->
<g id="node27" class="node"><title>FastNoHeader</title>
<g id="a_node27"><a xlink:href="../../api/astropy.io.ascii.FastNoHeader.html#astropy.io.ascii.FastNoHeader" xlink:title="This class uses the fast C engine to read tables with no header line. If">
<polygon fill="none" stroke="black" stroke-width="0.5" points="259,-742 177,-742 177,-723 259,-723 259,-742"/>
<text text-anchor="middle" x="218" y="-730" font-family="Vera Sans, DejaVu Sans, Liberation Sans, Arial, Helvetica, sans" font-size="10.00">FastNoHeader</text>
</a>
</g>
</g>
<!-- FastBasic&#45;&gt;FastNoHeader -->
<g id="edge17" class="edge"><title>FastBasic&#45;&gt;FastNoHeader</title>
<path fill="none" stroke="black" stroke-width="0.5" d="M88.7554,-732.5C112.024,-732.5 144.988,-732.5 171.669,-732.5"/>
<polygon fill="black" stroke="black" stroke-width="0.5" points="171.916,-734.25 176.916,-732.5 171.916,-730.75 171.916,-734.25"/>
</g>
<!-- FastRdb -->
<g id="node28" class="node"><title>FastRdb</title>
<g id="a_node28"><a xlink:href="../../api/astropy.io.ascii.FastRdb.html#astropy.io.ascii.FastRdb" xlink:title="A faster version of the :class:`Rdb` reader. This format is similar to">
<polygon fill="none" stroke="black" stroke-width="0.5" points="245,-705 191,-705 191,-686 245,-686 245,-705"/>
<text text-anchor="middle" x="218" y="-693" font-family="Vera Sans, DejaVu Sans, Liberation Sans, Arial, Helvetica, sans" font-size="10.00">FastRdb</text>
</a>
</g>
</g>
<!-- FastBasic&#45;&gt;FastRdb -->
<g id="edge18" class="edge"><title>FastBasic&#45;&gt;FastRdb</title>
<path fill="none" stroke="black" stroke-width="0.5" d="M88.7554,-725.627C116.309,-719.155 157.456,-709.488 185.668,-702.861"/>
<polygon fill="black" stroke="black" stroke-width="0.5" points="186.311,-704.507 190.779,-701.66 185.511,-701.1 186.311,-704.507"/>
</g>
<!-- FastTab -->
<g id="node29" class="node"><title>FastTab</title>
<g id="a_node29"><a xlink:href="../../api/astropy.io.ascii.FastTab.html#astropy.io.ascii.FastTab" xlink:title="A faster version of the ordinary :class:`Tab` reader that uses">
<polygon fill="none" stroke="black" stroke-width="0.5" points="245,-668 191,-668 191,-649 245,-649 245,-668"/>
<text text-anchor="middle" x="218" y="-656" font-family="Vera Sans, DejaVu Sans, Liberation Sans, Arial, Helvetica, sans" font-size="10.00">FastTab</text>
</a>
</g>
</g>
<!-- FastBasic&#45;&gt;FastTab -->
<g id="edge19" class="edge"><title>FastBasic&#45;&gt;FastTab</title>
<path fill="none" stroke="black" stroke-width="0.5" d="M73.4991,-722.793C91.2982,-710.804 123.294,-690.417 153,-677.5 163.413,-672.972 175.229,-669.127 185.849,-666.106"/>
<polygon fill="black" stroke="black" stroke-width="0.5" points="186.605,-667.712 190.955,-664.689 185.67,-664.34 186.605,-667.712"/>
</g>
<!-- FixedWidthNoHeader -->
<g id="node33" class="node"><title>FixedWidthNoHeader</title>
<g id="a_node33"><a xlink:href="../../api/astropy.io.ascii.FixedWidthNoHeader.html#astropy.io.ascii.FixedWidthNoHeader" xlink:title="Read or write a fixed width table which has no header line. &#160;Column">
<polygon fill="none" stroke="black" stroke-width="0.5" points="571,-185 459,-185 459,-166 571,-166 571,-185"/>
<text text-anchor="middle" x="515" y="-173" font-family="Vera Sans, DejaVu Sans, Liberation Sans, Arial, Helvetica, sans" font-size="10.00">FixedWidthNoHeader</text>
</a>
</g>
</g>
<!-- FixedWidth&#45;&gt;FixedWidthNoHeader -->
<g id="edge23" class="edge"><title>FixedWidth&#45;&gt;FixedWidthNoHeader</title>
<path fill="none" stroke="black" stroke-width="0.5" d="M404.578,-146.989C424.666,-152.223 450.626,-158.987 472.219,-164.613"/>
<polygon fill="black" stroke="black" stroke-width="0.5" points="472.043,-166.376 477.323,-165.943 472.925,-162.989 472.043,-166.376"/>
</g>
<!-- FixedWidthTwoLine -->
<g id="node35" class="node"><title>FixedWidthTwoLine</title>
<g id="a_node35"><a xlink:href="../../api/astropy.io.ascii.FixedWidthTwoLine.html#astropy.io.ascii.FixedWidthTwoLine" xlink:title="Read or write a fixed width table which has two header lines. &#160;The first">
<polygon fill="none" stroke="black" stroke-width="0.5" points="567,-148 463,-148 463,-129 567,-129 567,-148"/>
<text text-anchor="middle" x="515" y="-136" font-family="Vera Sans, DejaVu Sans, Liberation Sans, Arial, Helvetica, sans" font-size="10.00">FixedWidthTwoLine</text>
</a>
</g>
</g>
<!-- FixedWidth&#45;&gt;FixedWidthTwoLine -->
<g id="edge25" class="edge"><title>FixedWidth&#45;&gt;FixedWidthTwoLine</title>
<path fill="none" stroke="black" stroke-width="0.5" d="M404.578,-138.5C420.37,-138.5 439.791,-138.5 457.867,-138.5"/>
<polygon fill="black" stroke="black" stroke-width="0.5" points="457.925,-140.25 462.925,-138.5 457.925,-136.75 457.925,-140.25"/>
</g>
<!-- RST -->
<g id="node43" class="node"><title>RST</title>
<g id="a_node43"><a xlink:href="../../api/astropy.io.ascii.RST.html#astropy.io.ascii.RST" xlink:title="Read or write a `reStructuredText simple format table">
<polygon fill="none" stroke="black" stroke-width="0.5" points="542,-111 488,-111 488,-92 542,-92 542,-111"/>
<text text-anchor="middle" x="515" y="-99" font-family="Vera Sans, DejaVu Sans, Liberation Sans, Arial, Helvetica, sans" font-size="10.00">RST</text>
</a>
</g>
</g>
<!-- FixedWidth&#45;&gt;RST -->
<g id="edge33" class="edge"><title>FixedWidth&#45;&gt;RST</title>
<path fill="none" stroke="black" stroke-width="0.5" d="M404.578,-130.011C428.024,-123.902 459.47,-115.709 482.634,-109.673"/>
<polygon fill="black" stroke="black" stroke-width="0.5" points="483.343,-111.297 487.74,-108.342 482.461,-107.91 483.343,-111.297"/>
</g>
<!-- NumType -->
<g id="node36" class="node"><title>NumType</title>
<g id="a_node36"><a xlink:href="../../api/astropy.io.ascii.NumType.html#astropy.io.ascii.NumType" xlink:title="Indicates that a column consists of numerical data.">
<polygon fill="none" stroke="black" stroke-width="0.5" points="248,-370 188,-370 188,-351 248,-351 248,-370"/>
<text text-anchor="middle" x="218" y="-358" font-family="Vera Sans, DejaVu Sans, Liberation Sans, Arial, Helvetica, sans" font-size="10.00">NumType</text>
</a>
</g>
</g>
<!-- NumType&#45;&gt;FloatType -->
<g id="edge26" class="edge"><title>NumType&#45;&gt;FloatType</title>
<path fill="none" stroke="black" stroke-width="0.5" d="M248.114,-360.5C273.021,-360.5 308.924,-360.5 335.315,-360.5"/>
<polygon fill="black" stroke="black" stroke-width="0.5" points="335.46,-362.25 340.46,-360.5 335.46,-358.75 335.46,-362.25"/>
</g>
<!-- NumType&#45;&gt;IntType -->
<g id="edge28" class="edge"><title>NumType&#45;&gt;IntType</title>
<path fill="none" stroke="black" stroke-width="0.5" d="M248.114,-353.366C274.146,-346.987 312.189,-337.666 338.83,-331.138"/>
<polygon fill="black" stroke="black" stroke-width="0.5" points="339.559,-332.761 343.999,-329.871 338.726,-329.361 339.559,-332.761"/>
</g>
<!-- InconsistentTableError -->
<g id="node38" class="node"><title>InconsistentTableError</title>
<g id="a_node38"><a xlink:href="../../api/astropy.io.ascii.InconsistentTableError.html#astropy.io.ascii.InconsistentTableError" xlink:title="Indicates that an input table is inconsistent in some way.">
<polygon fill="none" stroke="black" stroke-width="0.5" points="117,-779 7.10543e-15,-779 7.10543e-15,-760 117,-760 117,-779"/>
<text text-anchor="middle" x="58.5" y="-767" font-family="Vera Sans, DejaVu Sans, Liberation Sans, Arial, Helvetica, sans" font-size="10.00">InconsistentTableError</text>
</a>
</g>
</g>
<!-- NoType -->
<g id="node41" class="node"><title>NoType</title>
<g id="a_node41"><a xlink:href="../../api/astropy.io.ascii.NoType.html#astropy.io.ascii.NoType" xlink:title="Superclass for ``StrType`` and ``NumType`` classes.">
<polygon fill="none" stroke="black" stroke-width="0.5" points="85.5,-389 31.5,-389 31.5,-370 85.5,-370 85.5,-389"/>
<text text-anchor="middle" x="58.5" y="-377" font-family="Vera Sans, DejaVu Sans, Liberation Sans, Arial, Helvetica, sans" font-size="10.00">NoType</text>
</a>
</g>
</g>
<!-- NoType&#45;&gt;StrType -->
<g id="edge36" class="edge"><title>NoType&#45;&gt;StrType</title>
<path fill="none" stroke="black" stroke-width="0.5" d="M85.5079,-382.637C112.98,-385.952 156.301,-391.178 185.644,-394.717"/>
<polygon fill="black" stroke="black" stroke-width="0.5" points="185.78,-396.496 190.953,-395.358 186.199,-393.022 185.78,-396.496"/>
</g>
<!-- NoType&#45;&gt;NumType -->
<g id="edge32" class="edge"><title>NoType&#45;&gt;NumType</title>
<path fill="none" stroke="black" stroke-width="0.5" d="M85.5079,-376.363C111.993,-373.167 153.209,-368.195 182.429,-364.671"/>
<polygon fill="black" stroke="black" stroke-width="0.5" points="182.984,-366.366 187.739,-364.03 182.565,-362.891 182.984,-366.366"/>
</g>
<!-- ParameterError -->
<g id="node42" class="node"><title>ParameterError</title>
<g id="a_node42"><a xlink:href="../../api/astropy.io.ascii.ParameterError.html#astropy.io.ascii.ParameterError" xlink:title="Indicates that a reader cannot handle a passed parameter.">
<polygon fill="none" stroke="black" stroke-width="0.5" points="101,-816 16,-816 16,-797 101,-797 101,-816"/>
<text text-anchor="middle" x="58.5" y="-804" font-family="Vera Sans, DejaVu Sans, Liberation Sans, Arial, Helvetica, sans" font-size="10.00">ParameterError</text>
</a>
</g>
</g>
<!-- Rdb -->
<g id="node44" class="node"><title>Rdb</title>
<g id="a_node44"><a xlink:href="../../api/astropy.io.ascii.Rdb.html#astropy.io.ascii.Rdb" xlink:title="Read a tab&#45;separated file with an extra line after the column definition">
<polygon fill="none" stroke="black" stroke-width="0.5" points="542,-37 488,-37 488,-18 542,-18 542,-37"/>
<text text-anchor="middle" x="515" y="-25" font-family="Vera Sans, DejaVu Sans, Liberation Sans, Arial, Helvetica, sans" font-size="10.00">Rdb</text>
</a>
</g>
</g>
<!-- Tab&#45;&gt;Rdb -->
<g id="edge34" class="edge"><title>Tab&#45;&gt;Rdb</title>
<path fill="none" stroke="black" stroke-width="0.5" d="M398.045,-27.5C421.815,-27.5 457.006,-27.5 482.381,-27.5"/>
<polygon fill="black" stroke="black" stroke-width="0.5" points="482.639,-29.2501 487.639,-27.5 482.639,-25.7501 482.639,-29.2501"/>
</g>
</g>
</svg>
