<?xml version="1.0" encoding="UTF-8" standalone="no"?>
<!DOCTYPE svg PUBLIC "-//W3C//DTD SVG 1.1//EN"
 "http://www.w3.org/Graphics/SVG/1.1/DTD/svg11.dtd">
<!-- Generated by graphviz version 2.38.0 (20140413.2041)
 -->
<!-- Title: inheritancef2d95c1abd Pages: 1 -->
<svg width="243pt" height="27pt"
 viewBox="0.00 0.00 243.00 27.00" xmlns="http://www.w3.org/2000/svg" xmlns:xlink="http://www.w3.org/1999/xlink">
<g id="graph0" class="graph" transform="scale(1 1) rotate(0) translate(4 23)">
<title>inheritancef2d95c1abd</title>
<polygon fill="white" stroke="none" points="-4,4 -4,-23 239,-23 239,4 -4,4"/>
<!-- Identity -->
<g id="node1" class="node"><title>Identity</title>
<g id="a_node1"><a xlink:href="../api/astropy.modeling.mappings.Identity.html#astropy.modeling.mappings.Identity" xlink:title="Returns inputs unchanged.">
<polygon fill="none" stroke="black" stroke-width="0.5" points="235,-19 181,-19 181,-0 235,-0 235,-19"/>
<text text-anchor="middle" x="208" y="-7" font-family="Vera Sans, DejaVu Sans, Liberation Sans, Arial, Helvetica, sans" font-size="10.00">Identity</text>
</a>
</g>
</g>
<!-- Mapping -->
<g id="node2" class="node"><title>Mapping</title>
<g id="a_node2"><a xlink:href="../api/astropy.modeling.mappings.Mapping.html#astropy.modeling.mappings.Mapping" xlink:title="Allows inputs to be reordered, duplicated or dropped.">
<polygon fill="none" stroke="black" stroke-width="0.5" points="145,-19 90,-19 90,-0 145,-0 145,-19"/>
<text text-anchor="middle" x="117.5" y="-7" font-family="Vera Sans, DejaVu Sans, Liberation Sans, Arial, Helvetica, sans" font-size="10.00">Mapping</text>
</a>
</g>
</g>
<!-- Mapping&#45;&gt;Identity -->
<g id="edge1" class="edge"><title>Mapping&#45;&gt;Identity</title>
<path fill="none" stroke="black" stroke-width="0.5" d="M145.053,-9.5C154.678,-9.5 165.641,-9.5 175.641,-9.5"/>
<polygon fill="black" stroke="black" stroke-width="0.5" points="175.771,-11.2501 180.771,-9.5 175.771,-7.7501 175.771,-11.2501"/>
</g>
<!-- Model -->
<g id="node3" class="node"><title>Model</title>
<g id="a_node3"><a xlink:href="../api/astropy.modeling.Model.html#astropy.modeling.Model" xlink:title="Base class for all models.">
<polygon fill="none" stroke="black" stroke-width="0.5" points="54,-19 0,-19 0,-0 54,-0 54,-19"/>
<text text-anchor="middle" x="27" y="-7" font-family="Vera Sans, DejaVu Sans, Liberation Sans, Arial, Helvetica, sans" font-size="10.00">Model</text>
</a>
</g>
</g>
<!-- Model&#45;&gt;Mapping -->
<g id="edge2" class="edge"><title>Model&#45;&gt;Mapping</title>
<path fill="none" stroke="black" stroke-width="0.5" d="M54.0743,-9.5C63.7132,-9.5 74.7447,-9.5 84.8265,-9.5"/>
<polygon fill="black" stroke="black" stroke-width="0.5" points="84.9996,-11.2501 89.9995,-9.5 84.9995,-7.7501 84.9996,-11.2501"/>
</g>
</g>
</svg>
