<?xml version="1.0" encoding="UTF-8" standalone="no"?>
<!DOCTYPE svg PUBLIC "-//W3C//DTD SVG 1.1//EN"
 "http://www.w3.org/Graphics/SVG/1.1/DTD/svg11.dtd">
<!-- Generated by graphviz version 2.38.0 (20140413.2041)
 -->
<!-- Title: inheritance77b4864455 Pages: 1 -->
<svg width="353pt" height="27pt"
 viewBox="0.00 0.00 353.00 27.00" xmlns="http://www.w3.org/2000/svg" xmlns:xlink="http://www.w3.org/1999/xlink">
<g id="graph0" class="graph" transform="scale(1 1) rotate(0) translate(4 23)">
<title>inheritance77b4864455</title>
<polygon fill="white" stroke="none" points="-4,4 -4,-23 349,-23 349,4 -4,4"/>
<!-- Constant -->
<g id="node1" class="node"><title>Constant</title>
<g id="a_node1"><a xlink:href="../api/astropy.constants.Constant.html#astropy.constants.Constant" xlink:title="A physical or astronomical constant.">
<polygon fill="none" stroke="black" stroke-width="0.5" points="237,-19 180,-19 180,-0 237,-0 237,-19"/>
<text text-anchor="middle" x="208.5" y="-7" font-family="Vera Sans, DejaVu Sans, Liberation Sans, Arial, Helvetica, sans" font-size="10.00">Constant</text>
</a>
</g>
</g>
<!-- EMConstant -->
<g id="node3" class="node"><title>EMConstant</title>
<g id="a_node3"><a xlink:href="../api/astropy.constants.EMConstant.html#astropy.constants.EMConstant" xlink:title="An electromagnetic constant.">
<polygon fill="none" stroke="black" stroke-width="0.5" points="345,-19 273,-19 273,-0 345,-0 345,-19"/>
<text text-anchor="middle" x="309" y="-7" font-family="Vera Sans, DejaVu Sans, Liberation Sans, Arial, Helvetica, sans" font-size="10.00">EMConstant</text>
</a>
</g>
</g>
<!-- Constant&#45;&gt;EMConstant -->
<g id="edge2" class="edge"><title>Constant&#45;&gt;EMConstant</title>
<path fill="none" stroke="black" stroke-width="0.5" d="M237.2,-9.5C246.6,-9.5 257.305,-9.5 267.495,-9.5"/>
<polygon fill="black" stroke="black" stroke-width="0.5" points="267.766,-11.2501 272.766,-9.5 267.766,-7.75009 267.766,-11.2501"/>
</g>
<!-- Quantity -->
<g id="node2" class="node"><title>Quantity</title>
<g id="a_node2"><a xlink:href="../api/astropy.units.quantity.Quantity.html#astropy.units.quantity.Quantity" xlink:title="A `~astropy.units.Quantity` represents a number with some associated unit.">
<polygon fill="none" stroke="black" stroke-width="0.5" points="144,-19 90,-19 90,-0 144,-0 144,-19"/>
<text text-anchor="middle" x="117" y="-7" font-family="Vera Sans, DejaVu Sans, Liberation Sans, Arial, Helvetica, sans" font-size="10.00">Quantity</text>
</a>
</g>
</g>
<!-- Quantity&#45;&gt;Constant -->
<g id="edge1" class="edge"><title>Quantity&#45;&gt;Constant</title>
<path fill="none" stroke="black" stroke-width="0.5" d="M144.369,-9.5C153.853,-9.5 164.671,-9.5 174.64,-9.5"/>
<polygon fill="black" stroke="black" stroke-width="0.5" points="174.764,-11.2501 179.764,-9.5 174.764,-7.7501 174.764,-11.2501"/>
</g>
<!-- ndarray -->
<g id="node4" class="node"><title>ndarray</title>
<g id="a_node4"><a xlink:title="ndarray(shape, dtype=float, buffer=None, offset=0,">
<polygon fill="none" stroke="black" stroke-width="0.5" points="54,-19 0,-19 0,-0 54,-0 54,-19"/>
<text text-anchor="middle" x="27" y="-7" font-family="Vera Sans, DejaVu Sans, Liberation Sans, Arial, Helvetica, sans" font-size="10.00">ndarray</text>
</a>
</g>
</g>
<!-- ndarray&#45;&gt;Quantity -->
<g id="edge3" class="edge"><title>ndarray&#45;&gt;Quantity</title>
<path fill="none" stroke="black" stroke-width="0.5" d="M54.4029,-9.5C63.9738,-9.5 74.8745,-9.5 84.8184,-9.5"/>
<polygon fill="black" stroke="black" stroke-width="0.5" points="84.919,-11.2501 89.919,-9.5 84.919,-7.7501 84.919,-11.2501"/>
</g>
</g>
</svg>
