<?xml version="1.0" encoding="UTF-8" standalone="no"?>
<!DOCTYPE svg PUBLIC "-//W3C//DTD SVG 1.1//EN"
 "http://www.w3.org/Graphics/SVG/1.1/DTD/svg11.dtd">
<!-- Generated by graphviz version 2.38.0 (20140413.2041)
 -->
<!-- Title: inheritance98c9add9ed Pages: 1 -->
<svg width="576pt" height="413pt"
 viewBox="0.00 0.00 576.00 412.71" xmlns="http://www.w3.org/2000/svg" xmlns:xlink="http://www.w3.org/1999/xlink">
<g id="graph0" class="graph" transform="scale(0.812412 0.812412) rotate(0) translate(4 504)">
<title>inheritance98c9add9ed</title>
<polygon fill="white" stroke="none" points="-4,4 -4,-504 705,-504 705,4 -4,4"/>
<!-- OperandTypeError -->
<g id="node1" class="node"><title>OperandTypeError</title>
<g id="a_node1"><a xlink:href="../api/astropy.time.OperandTypeError.html#astropy.time.OperandTypeError" xlink:title="OperandTypeError">
<polygon fill="none" stroke="black" stroke-width="0.5" points="100,-19 0,-19 0,-0 100,-0 100,-19"/>
<text text-anchor="middle" x="50" y="-7" font-family="Vera Sans, DejaVu Sans, Liberation Sans, Arial, Helvetica, sans" font-size="10.00">OperandTypeError</text>
</a>
</g>
</g>
<!-- ScaleValueError -->
<g id="node2" class="node"><title>ScaleValueError</title>
<g id="a_node2"><a xlink:href="../api/astropy.time.ScaleValueError.html#astropy.time.ScaleValueError" xlink:title="ScaleValueError">
<polygon fill="none" stroke="black" stroke-width="0.5" points="94.5,-56 5.5,-56 5.5,-37 94.5,-37 94.5,-56"/>
<text text-anchor="middle" x="50" y="-44" font-family="Vera Sans, DejaVu Sans, Liberation Sans, Arial, Helvetica, sans" font-size="10.00">ScaleValueError</text>
</a>
</g>
</g>
<!-- Time -->
<g id="node3" class="node"><title>Time</title>
<g id="a_node3"><a xlink:href="../api/astropy.time.Time.html#astropy.time.Time" xlink:title="Represent and manipulate times and dates for astronomy.">
<polygon fill="none" stroke="black" stroke-width="0.5" points="77,-93 23,-93 23,-74 77,-74 77,-93"/>
<text text-anchor="middle" x="50" y="-81" font-family="Vera Sans, DejaVu Sans, Liberation Sans, Arial, Helvetica, sans" font-size="10.00">Time</text>
</a>
</g>
</g>
<!-- TimeDelta -->
<g id="node14" class="node"><title>TimeDelta</title>
<g id="a_node14"><a xlink:href="../api/astropy.time.TimeDelta.html#astropy.time.TimeDelta" xlink:title="Represent the time difference between two times.">
<polygon fill="none" stroke="black" stroke-width="0.5" points="215,-93 153,-93 153,-74 215,-74 215,-93"/>
<text text-anchor="middle" x="184" y="-81" font-family="Vera Sans, DejaVu Sans, Liberation Sans, Arial, Helvetica, sans" font-size="10.00">TimeDelta</text>
</a>
</g>
</g>
<!-- Time&#45;&gt;TimeDelta -->
<g id="edge6" class="edge"><title>Time&#45;&gt;TimeDelta</title>
<path fill="none" stroke="black" stroke-width="0.5" d="M77.079,-83.5C97.2508,-83.5 125.392,-83.5 147.598,-83.5"/>
<polygon fill="black" stroke="black" stroke-width="0.5" points="147.817,-85.2501 152.817,-83.5 147.817,-81.7501 147.817,-85.2501"/>
</g>
<!-- TimeBesselianEpoch -->
<g id="node4" class="node"><title>TimeBesselianEpoch</title>
<g id="a_node4"><a xlink:href="../api/astropy.time.TimeBesselianEpoch.html#astropy.time.TimeBesselianEpoch" xlink:title="Besselian Epoch year as floating point value(s) like 1950.0">
<polygon fill="none" stroke="black" stroke-width="0.5" points="378,-500 268,-500 268,-481 378,-481 378,-500"/>
<text text-anchor="middle" x="323" y="-488" font-family="Vera Sans, DejaVu Sans, Liberation Sans, Arial, Helvetica, sans" font-size="10.00">TimeBesselianEpoch</text>
</a>
</g>
</g>
<!-- TimeEpochDate -->
<g id="node5" class="node"><title>TimeEpochDate</title>
<g id="a_node5"><a xlink:href="../api/astropy.time.TimeEpochDate.html#astropy.time.TimeEpochDate" xlink:title="Base class for support floating point Besselian and Julian epoch dates">
<polygon fill="none" stroke="black" stroke-width="0.5" points="228,-463 140,-463 140,-444 228,-444 228,-463"/>
<text text-anchor="middle" x="184" y="-451" font-family="Vera Sans, DejaVu Sans, Liberation Sans, Arial, Helvetica, sans" font-size="10.00">TimeEpochDate</text>
</a>
</g>
</g>
<!-- TimeEpochDate&#45;&gt;TimeBesselianEpoch -->
<g id="edge1" class="edge"><title>TimeEpochDate&#45;&gt;TimeBesselianEpoch</title>
<path fill="none" stroke="black" stroke-width="0.5" d="M220.281,-463.028C238.991,-468.082 262.065,-474.313 281.504,-479.563"/>
<polygon fill="black" stroke="black" stroke-width="0.5" points="281.079,-481.261 286.362,-480.875 281.992,-477.882 281.079,-481.261"/>
</g>
<!-- TimeJulianEpoch -->
<g id="node24" class="node"><title>TimeJulianEpoch</title>
<g id="a_node24"><a xlink:href="../api/astropy.time.TimeJulianEpoch.html#astropy.time.TimeJulianEpoch" xlink:title="Julian Epoch year as floating point value(s) like 2000.0">
<polygon fill="none" stroke="black" stroke-width="0.5" points="369.5,-463 276.5,-463 276.5,-444 369.5,-444 369.5,-463"/>
<text text-anchor="middle" x="323" y="-451" font-family="Vera Sans, DejaVu Sans, Liberation Sans, Arial, Helvetica, sans" font-size="10.00">TimeJulianEpoch</text>
</a>
</g>
</g>
<!-- TimeEpochDate&#45;&gt;TimeJulianEpoch -->
<g id="edge18" class="edge"><title>TimeEpochDate&#45;&gt;TimeJulianEpoch</title>
<path fill="none" stroke="black" stroke-width="0.5" d="M228.348,-453.5C241.892,-453.5 256.961,-453.5 270.982,-453.5"/>
<polygon fill="black" stroke="black" stroke-width="0.5" points="271.095,-455.25 276.095,-453.5 271.095,-451.75 271.095,-455.25"/>
</g>
<!-- TimeBesselianEpochString -->
<g id="node6" class="node"><title>TimeBesselianEpochString</title>
<g id="a_node6"><a xlink:href="../api/astropy.time.TimeBesselianEpochString.html#astropy.time.TimeBesselianEpochString" xlink:title="Besselian Epoch year as string value(s) like &#39;B1950.0&#39;">
<polygon fill="none" stroke="black" stroke-width="0.5" points="701,-306 564,-306 564,-287 701,-287 701,-306"/>
<text text-anchor="middle" x="632.5" y="-294" font-family="Vera Sans, DejaVu Sans, Liberation Sans, Arial, Helvetica, sans" font-size="10.00">TimeBesselianEpochString</text>
</a>
</g>
</g>
<!-- TimeEpochDateString -->
<g id="node7" class="node"><title>TimeEpochDateString</title>
<g id="a_node7"><a xlink:href="../api/astropy.time.TimeEpochDateString.html#astropy.time.TimeEpochDateString" xlink:title="Base class to support string Besselian and Julian epoch dates">
<polygon fill="none" stroke="black" stroke-width="0.5" points="528,-278 414,-278 414,-259 528,-259 528,-278"/>
<text text-anchor="middle" x="471" y="-266" font-family="Vera Sans, DejaVu Sans, Liberation Sans, Arial, Helvetica, sans" font-size="10.00">TimeEpochDateString</text>
</a>
</g>
</g>
<!-- TimeEpochDateString&#45;&gt;TimeBesselianEpochString -->
<g id="edge2" class="edge"><title>TimeEpochDateString&#45;&gt;TimeBesselianEpochString</title>
<path fill="none" stroke="black" stroke-width="0.5" d="M526.445,-278.058C541.201,-280.648 557.248,-283.465 572.255,-286.1"/>
<polygon fill="black" stroke="black" stroke-width="0.5" points="572.073,-287.844 577.301,-286.985 572.679,-284.397 572.073,-287.844"/>
</g>
<!-- TimeJulianEpochString -->
<g id="node25" class="node"><title>TimeJulianEpochString</title>
<g id="a_node25"><a xlink:href="../api/astropy.time.TimeJulianEpochString.html#astropy.time.TimeJulianEpochString" xlink:title="Julian Epoch year as string value(s) like &#39;J2000.0&#39;">
<polygon fill="none" stroke="black" stroke-width="0.5" points="692,-269 573,-269 573,-250 692,-250 692,-269"/>
<text text-anchor="middle" x="632.5" y="-257" font-family="Vera Sans, DejaVu Sans, Liberation Sans, Arial, Helvetica, sans" font-size="10.00">TimeJulianEpochString</text>
</a>
</g>
</g>
<!-- TimeEpochDateString&#45;&gt;TimeJulianEpochString -->
<g id="edge19" class="edge"><title>TimeEpochDateString&#45;&gt;TimeJulianEpochString</title>
<path fill="none" stroke="black" stroke-width="0.5" d="M528.234,-265.327C540.982,-264.608 554.61,-263.839 567.647,-263.103"/>
<polygon fill="black" stroke="black" stroke-width="0.5" points="567.911,-264.841 572.804,-262.812 567.714,-261.347 567.911,-264.841"/>
</g>
<!-- TimeCxcSec -->
<g id="node8" class="node"><title>TimeCxcSec</title>
<g id="a_node8"><a xlink:href="../api/astropy.time.TimeCxcSec.html#astropy.time.TimeCxcSec" xlink:title="Chandra X&#45;ray Center seconds from 1998&#45;01&#45;01 00:00:00 TT.">
<polygon fill="none" stroke="black" stroke-width="0.5" points="359.5,-426 286.5,-426 286.5,-407 359.5,-407 359.5,-426"/>
<text text-anchor="middle" x="323" y="-414" font-family="Vera Sans, DejaVu Sans, Liberation Sans, Arial, Helvetica, sans" font-size="10.00">TimeCxcSec</text>
</a>
</g>
</g>
<!-- TimeFromEpoch -->
<g id="node9" class="node"><title>TimeFromEpoch</title>
<g id="a_node9"><a xlink:href="../api/astropy.time.TimeFromEpoch.html#astropy.time.TimeFromEpoch" xlink:title="Base class for times that represent the interval from a particular">
<polygon fill="none" stroke="black" stroke-width="0.5" points="229,-352 139,-352 139,-333 229,-333 229,-352"/>
<text text-anchor="middle" x="184" y="-340" font-family="Vera Sans, DejaVu Sans, Liberation Sans, Arial, Helvetica, sans" font-size="10.00">TimeFromEpoch</text>
</a>
</g>
</g>
<!-- TimeFromEpoch&#45;&gt;TimeCxcSec -->
<g id="edge3" class="edge"><title>TimeFromEpoch&#45;&gt;TimeCxcSec</title>
<path fill="none" stroke="black" stroke-width="0.5" d="M197.009,-352.153C212.602,-364.31 241.022,-385.213 268,-398.5 272.955,-400.94 278.32,-403.173 283.68,-405.173"/>
<polygon fill="black" stroke="black" stroke-width="0.5" points="283.292,-406.893 288.59,-406.943 284.48,-403.6 283.292,-406.893"/>
</g>
<!-- TimeGPS -->
<g id="node20" class="node"><title>TimeGPS</title>
<g id="a_node20"><a xlink:href="../api/astropy.time.TimeGPS.html#astropy.time.TimeGPS" xlink:title="GPS time: seconds from 1980&#45;01&#45;06 00:00:00 UTC">
<polygon fill="none" stroke="black" stroke-width="0.5" points="353,-389 293,-389 293,-370 353,-370 353,-389"/>
<text text-anchor="middle" x="323" y="-377" font-family="Vera Sans, DejaVu Sans, Liberation Sans, Arial, Helvetica, sans" font-size="10.00">TimeGPS</text>
</a>
</g>
</g>
<!-- TimeFromEpoch&#45;&gt;TimeGPS -->
<g id="edge14" class="edge"><title>TimeFromEpoch&#45;&gt;TimeGPS</title>
<path fill="none" stroke="black" stroke-width="0.5" d="M220.281,-352.028C241.126,-357.658 267.386,-364.75 288.002,-370.318"/>
<polygon fill="black" stroke="black" stroke-width="0.5" points="287.563,-372.012 292.846,-371.626 288.476,-368.633 287.563,-372.012"/>
</g>
<!-- TimePlotDate -->
<g id="node27" class="node"><title>TimePlotDate</title>
<g id="a_node27"><a xlink:href="../api/astropy.time.TimePlotDate.html#astropy.time.TimePlotDate" xlink:title="Matplotlib `~matplotlib.pyplot.plot_date` input:">
<polygon fill="none" stroke="black" stroke-width="0.5" points="361.5,-352 284.5,-352 284.5,-333 361.5,-333 361.5,-352"/>
<text text-anchor="middle" x="323" y="-340" font-family="Vera Sans, DejaVu Sans, Liberation Sans, Arial, Helvetica, sans" font-size="10.00">TimePlotDate</text>
</a>
</g>
</g>
<!-- TimeFromEpoch&#45;&gt;TimePlotDate -->
<g id="edge21" class="edge"><title>TimeFromEpoch&#45;&gt;TimePlotDate</title>
<path fill="none" stroke="black" stroke-width="0.5" d="M229.102,-342.5C245.125,-342.5 263.197,-342.5 279.114,-342.5"/>
<polygon fill="black" stroke="black" stroke-width="0.5" points="279.423,-344.25 284.423,-342.5 279.423,-340.75 279.423,-344.25"/>
</g>
<!-- TimeUnix -->
<g id="node28" class="node"><title>TimeUnix</title>
<g id="a_node28"><a xlink:href="../api/astropy.time.TimeUnix.html#astropy.time.TimeUnix" xlink:title="Unix time: seconds from 1970&#45;01&#45;01 00:00:00 UTC.">
<polygon fill="none" stroke="black" stroke-width="0.5" points="352.5,-315 293.5,-315 293.5,-296 352.5,-296 352.5,-315"/>
<text text-anchor="middle" x="323" y="-303" font-family="Vera Sans, DejaVu Sans, Liberation Sans, Arial, Helvetica, sans" font-size="10.00">TimeUnix</text>
</a>
</g>
</g>
<!-- TimeFromEpoch&#45;&gt;TimeUnix -->
<g id="edge24" class="edge"><title>TimeFromEpoch&#45;&gt;TimeUnix</title>
<path fill="none" stroke="black" stroke-width="0.5" d="M220.281,-332.972C241.273,-327.302 267.756,-320.15 288.437,-314.564"/>
<polygon fill="black" stroke="black" stroke-width="0.5" points="288.923,-316.246 293.293,-313.253 288.01,-312.867 288.923,-316.246"/>
</g>
<!-- TimeDatetime -->
<g id="node10" class="node"><title>TimeDatetime</title>
<g id="a_node10"><a xlink:href="../api/astropy.time.TimeDatetime.html#astropy.time.TimeDatetime" xlink:title="Represent date as Python standard library `~datetime.datetime` object">
<polygon fill="none" stroke="black" stroke-width="0.5" points="362.5,-278 283.5,-278 283.5,-259 362.5,-259 362.5,-278"/>
<text text-anchor="middle" x="323" y="-266" font-family="Vera Sans, DejaVu Sans, Liberation Sans, Arial, Helvetica, sans" font-size="10.00">TimeDatetime</text>
</a>
</g>
</g>
<!-- TimeUnique -->
<g id="node11" class="node"><title>TimeUnique</title>
<g id="a_node11"><a xlink:href="../api/astropy.time.TimeUnique.html#astropy.time.TimeUnique" xlink:title="Base class for time formats that can uniquely create a time object">
<polygon fill="none" stroke="black" stroke-width="0.5" points="219,-278 149,-278 149,-259 219,-259 219,-278"/>
<text text-anchor="middle" x="184" y="-266" font-family="Vera Sans, DejaVu Sans, Liberation Sans, Arial, Helvetica, sans" font-size="10.00">TimeUnique</text>
</a>
</g>
</g>
<!-- TimeUnique&#45;&gt;TimeDatetime -->
<g id="edge4" class="edge"><title>TimeUnique&#45;&gt;TimeDatetime</title>
<path fill="none" stroke="black" stroke-width="0.5" d="M219.217,-268.5C237.039,-268.5 259.031,-268.5 278.093,-268.5"/>
<polygon fill="black" stroke="black" stroke-width="0.5" points="278.386,-270.25 283.386,-268.5 278.386,-266.75 278.386,-270.25"/>
</g>
<!-- TimeString -->
<g id="node18" class="node"><title>TimeString</title>
<g id="a_node18"><a xlink:href="../api/astropy.time.TimeString.html#astropy.time.TimeString" xlink:title="Base class for string&#45;like time representations.">
<polygon fill="none" stroke="black" stroke-width="0.5" points="355.5,-241 290.5,-241 290.5,-222 355.5,-222 355.5,-241"/>
<text text-anchor="middle" x="323" y="-229" font-family="Vera Sans, DejaVu Sans, Liberation Sans, Arial, Helvetica, sans" font-size="10.00">TimeString</text>
</a>
</g>
</g>
<!-- TimeUnique&#45;&gt;TimeString -->
<g id="edge22" class="edge"><title>TimeUnique&#45;&gt;TimeString</title>
<path fill="none" stroke="black" stroke-width="0.5" d="M219.217,-259.259C239.322,-253.829 264.734,-246.966 285.26,-241.423"/>
<polygon fill="black" stroke="black" stroke-width="0.5" points="285.726,-243.109 290.097,-240.116 284.814,-239.73 285.726,-243.109"/>
</g>
<!-- TimeDecimalYear -->
<g id="node12" class="node"><title>TimeDecimalYear</title>
<g id="a_node12"><a xlink:href="../api/astropy.time.TimeDecimalYear.html#astropy.time.TimeDecimalYear" xlink:title="Time as a decimal year, with integer values corresponding to midnight">
<polygon fill="none" stroke="black" stroke-width="0.5" points="232,-241 136,-241 136,-222 232,-222 232,-241"/>
<text text-anchor="middle" x="184" y="-229" font-family="Vera Sans, DejaVu Sans, Liberation Sans, Arial, Helvetica, sans" font-size="10.00">TimeDecimalYear</text>
</a>
</g>
</g>
<!-- TimeFormat -->
<g id="node13" class="node"><title>TimeFormat</title>
<g id="a_node13"><a xlink:href="../api/astropy.time.TimeFormat.html#astropy.time.TimeFormat" xlink:title="Base class for time representations.">
<polygon fill="none" stroke="black" stroke-width="0.5" points="85,-241 15,-241 15,-222 85,-222 85,-241"/>
<text text-anchor="middle" x="50" y="-229" font-family="Vera Sans, DejaVu Sans, Liberation Sans, Arial, Helvetica, sans" font-size="10.00">TimeFormat</text>
</a>
</g>
</g>
<!-- TimeFormat&#45;&gt;TimeEpochDate -->
<g id="edge10" class="edge"><title>TimeFormat&#45;&gt;TimeEpochDate</title>
<path fill="none" stroke="black" stroke-width="0.5" d="M56.6719,-241.039C77.5313,-276.121 150.055,-398.093 174.717,-439.569"/>
<polygon fill="black" stroke="black" stroke-width="0.5" points="173.29,-440.593 177.349,-443.996 176.298,-438.804 173.29,-440.593"/>
</g>
<!-- TimeFormat&#45;&gt;TimeFromEpoch -->
<g id="edge13" class="edge"><title>TimeFormat&#45;&gt;TimeFromEpoch</title>
<path fill="none" stroke="black" stroke-width="0.5" d="M62.7141,-241.351C86.5512,-261.395 140.701,-306.93 167.451,-329.425"/>
<polygon fill="black" stroke="black" stroke-width="0.5" points="166.547,-330.951 171.501,-332.83 168.8,-328.273 166.547,-330.951"/>
</g>
<!-- TimeFormat&#45;&gt;TimeUnique -->
<g id="edge23" class="edge"><title>TimeFormat&#45;&gt;TimeUnique</title>
<path fill="none" stroke="black" stroke-width="0.5" d="M84.9933,-241.028C102.868,-246.039 124.876,-252.208 143.505,-257.429"/>
<polygon fill="black" stroke="black" stroke-width="0.5" points="143.376,-259.211 148.663,-258.875 144.321,-255.841 143.376,-259.211"/>
</g>
<!-- TimeFormat&#45;&gt;TimeDecimalYear -->
<g id="edge5" class="edge"><title>TimeFormat&#45;&gt;TimeDecimalYear</title>
<path fill="none" stroke="black" stroke-width="0.5" d="M85.3369,-231.5C99.2002,-231.5 115.506,-231.5 130.781,-231.5"/>
<polygon fill="black" stroke="black" stroke-width="0.5" points="130.917,-233.25 135.917,-231.5 130.917,-229.75 130.917,-233.25"/>
</g>
<!-- TimeDeltaFormat -->
<g id="node15" class="node"><title>TimeDeltaFormat</title>
<g id="a_node15"><a xlink:href="../api/astropy.time.TimeDeltaFormat.html#astropy.time.TimeDeltaFormat" xlink:title="Base class for time delta representations">
<polygon fill="none" stroke="black" stroke-width="0.5" points="231,-204 137,-204 137,-185 231,-185 231,-204"/>
<text text-anchor="middle" x="184" y="-192" font-family="Vera Sans, DejaVu Sans, Liberation Sans, Arial, Helvetica, sans" font-size="10.00">TimeDeltaFormat</text>
</a>
</g>
</g>
<!-- TimeFormat&#45;&gt;TimeDeltaFormat -->
<g id="edge7" class="edge"><title>TimeFormat&#45;&gt;TimeDeltaFormat</title>
<path fill="none" stroke="black" stroke-width="0.5" d="M84.9933,-221.972C102.868,-216.961 124.876,-210.792 143.505,-205.571"/>
<polygon fill="black" stroke="black" stroke-width="0.5" points="144.321,-207.159 148.663,-204.125 143.376,-203.789 144.321,-207.159"/>
</g>
<!-- TimeJD -->
<g id="node23" class="node"><title>TimeJD</title>
<g id="a_node23"><a xlink:href="../api/astropy.time.TimeJD.html#astropy.time.TimeJD" xlink:title="Julian Date time format.">
<polygon fill="none" stroke="black" stroke-width="0.5" points="211,-167 157,-167 157,-148 211,-148 211,-167"/>
<text text-anchor="middle" x="184" y="-155" font-family="Vera Sans, DejaVu Sans, Liberation Sans, Arial, Helvetica, sans" font-size="10.00">TimeJD</text>
</a>
</g>
</g>
<!-- TimeFormat&#45;&gt;TimeJD -->
<g id="edge17" class="edge"><title>TimeFormat&#45;&gt;TimeJD</title>
<path fill="none" stroke="black" stroke-width="0.5" d="M63.7145,-221.851C79.8832,-209.887 108.958,-189.378 136,-175.5 140.999,-172.934 146.453,-170.522 151.818,-168.347"/>
<polygon fill="black" stroke="black" stroke-width="0.5" points="152.694,-169.883 156.703,-166.42 151.41,-166.627 152.694,-169.883"/>
</g>
<!-- TimeMJD -->
<g id="node26" class="node"><title>TimeMJD</title>
<g id="a_node26"><a xlink:href="../api/astropy.time.TimeMJD.html#astropy.time.TimeMJD" xlink:title="Modified Julian Date time format.">
<polygon fill="none" stroke="black" stroke-width="0.5" points="213.5,-130 154.5,-130 154.5,-111 213.5,-111 213.5,-130"/>
<text text-anchor="middle" x="184" y="-118" font-family="Vera Sans, DejaVu Sans, Liberation Sans, Arial, Helvetica, sans" font-size="10.00">TimeMJD</text>
</a>
</g>
</g>
<!-- TimeFormat&#45;&gt;TimeMJD -->
<g id="edge20" class="edge"><title>TimeFormat&#45;&gt;TimeMJD</title>
<path fill="none" stroke="black" stroke-width="0.5" d="M57.371,-221.982C70.1991,-203.48 100.93,-162.391 136,-138.5 140.116,-135.696 144.729,-133.248 149.414,-131.137"/>
<polygon fill="black" stroke="black" stroke-width="0.5" points="150.193,-132.707 154.107,-129.137 148.821,-129.487 150.193,-132.707"/>
</g>
<!-- TimeDeltaJD -->
<g id="node16" class="node"><title>TimeDeltaJD</title>
<g id="a_node16"><a xlink:href="../api/astropy.time.TimeDeltaJD.html#astropy.time.TimeDeltaJD" xlink:title="Time delta in Julian days (86400 SI seconds)">
<polygon fill="none" stroke="black" stroke-width="0.5" points="360,-204 286,-204 286,-185 360,-185 360,-204"/>
<text text-anchor="middle" x="323" y="-192" font-family="Vera Sans, DejaVu Sans, Liberation Sans, Arial, Helvetica, sans" font-size="10.00">TimeDeltaJD</text>
</a>
</g>
</g>
<!-- TimeDeltaFormat&#45;&gt;TimeDeltaJD -->
<g id="edge8" class="edge"><title>TimeDeltaFormat&#45;&gt;TimeDeltaJD</title>
<path fill="none" stroke="black" stroke-width="0.5" d="M231,-194.5C247.063,-194.5 264.983,-194.5 280.645,-194.5"/>
<polygon fill="black" stroke="black" stroke-width="0.5" points="280.864,-196.25 285.863,-194.5 280.863,-192.75 280.864,-196.25"/>
</g>
<!-- TimeDeltaSec -->
<g id="node17" class="node"><title>TimeDeltaSec</title>
<g id="a_node17"><a xlink:href="../api/astropy.time.TimeDeltaSec.html#astropy.time.TimeDeltaSec" xlink:title="Time delta in SI seconds">
<polygon fill="none" stroke="black" stroke-width="0.5" points="362.5,-167 283.5,-167 283.5,-148 362.5,-148 362.5,-167"/>
<text text-anchor="middle" x="323" y="-155" font-family="Vera Sans, DejaVu Sans, Liberation Sans, Arial, Helvetica, sans" font-size="10.00">TimeDeltaSec</text>
</a>
</g>
</g>
<!-- TimeDeltaFormat&#45;&gt;TimeDeltaSec -->
<g id="edge9" class="edge"><title>TimeDeltaFormat&#45;&gt;TimeDeltaSec</title>
<path fill="none" stroke="black" stroke-width="0.5" d="M220.281,-184.972C238.991,-179.918 262.065,-173.687 281.504,-168.437"/>
<polygon fill="black" stroke="black" stroke-width="0.5" points="281.992,-170.118 286.362,-167.125 281.079,-166.739 281.992,-170.118"/>
</g>
<!-- TimeString&#45;&gt;TimeEpochDateString -->
<g id="edge11" class="edge"><title>TimeString&#45;&gt;TimeEpochDateString</title>
<path fill="none" stroke="black" stroke-width="0.5" d="M355.68,-239.528C376.654,-244.844 404.413,-251.879 427.325,-257.685"/>
<polygon fill="black" stroke="black" stroke-width="0.5" points="427.159,-259.448 432.435,-258.98 428.019,-256.055 427.159,-259.448"/>
</g>
<!-- TimeFITS -->
<g id="node19" class="node"><title>TimeFITS</title>
<g id="a_node19"><a xlink:href="../api/astropy.time.TimeFITS.html#astropy.time.TimeFITS" xlink:title="FITS format: &quot;[±Y]YYYY&#45;MM&#45;DD[THH:MM:SS[.sss]][(SCALE[(REALIZATION)])]&quot;.">
<polygon fill="none" stroke="black" stroke-width="0.5" points="501,-241 441,-241 441,-222 501,-222 501,-241"/>
<text text-anchor="middle" x="471" y="-229" font-family="Vera Sans, DejaVu Sans, Liberation Sans, Arial, Helvetica, sans" font-size="10.00">TimeFITS</text>
</a>
</g>
</g>
<!-- TimeString&#45;&gt;TimeFITS -->
<g id="edge12" class="edge"><title>TimeString&#45;&gt;TimeFITS</title>
<path fill="none" stroke="black" stroke-width="0.5" d="M355.68,-231.5C379.326,-231.5 411.596,-231.5 435.822,-231.5"/>
<polygon fill="black" stroke="black" stroke-width="0.5" points="435.863,-233.25 440.863,-231.5 435.863,-229.75 435.863,-233.25"/>
</g>
<!-- TimeISO -->
<g id="node21" class="node"><title>TimeISO</title>
<g id="a_node21"><a xlink:href="../api/astropy.time.TimeISO.html#astropy.time.TimeISO" xlink:title="ISO 8601 compliant date&#45;time format &quot;YYYY&#45;MM&#45;DD HH:MM:SS.sss...&quot;.">
<polygon fill="none" stroke="black" stroke-width="0.5" points="499,-204 443,-204 443,-185 499,-185 499,-204"/>
<text text-anchor="middle" x="471" y="-192" font-family="Vera Sans, DejaVu Sans, Liberation Sans, Arial, Helvetica, sans" font-size="10.00">TimeISO</text>
</a>
</g>
</g>
<!-- TimeString&#45;&gt;TimeISO -->
<g id="edge15" class="edge"><title>TimeString&#45;&gt;TimeISO</title>
<path fill="none" stroke="black" stroke-width="0.5" d="M355.68,-223.472C379.952,-217.32 413.312,-208.866 437.73,-202.678"/>
<polygon fill="black" stroke="black" stroke-width="0.5" points="438.381,-204.318 442.798,-201.394 437.521,-200.926 438.381,-204.318"/>
</g>
<!-- TimeISOT -->
<g id="node22" class="node"><title>TimeISOT</title>
<g id="a_node22"><a xlink:href="../api/astropy.time.TimeISOT.html#astropy.time.TimeISOT" xlink:title="ISO 8601 compliant date&#45;time format &quot;YYYY&#45;MM&#45;DDTHH:MM:SS.sss...&quot;.">
<polygon fill="none" stroke="black" stroke-width="0.5" points="663.5,-223 601.5,-223 601.5,-204 663.5,-204 663.5,-223"/>
<text text-anchor="middle" x="632.5" y="-211" font-family="Vera Sans, DejaVu Sans, Liberation Sans, Arial, Helvetica, sans" font-size="10.00">TimeISOT</text>
</a>
</g>
</g>
<!-- TimeISO&#45;&gt;TimeISOT -->
<g id="edge16" class="edge"><title>TimeISO&#45;&gt;TimeISOT</title>
<path fill="none" stroke="black" stroke-width="0.5" d="M499.057,-197.723C525.748,-200.903 566.693,-205.78 595.988,-209.27"/>
<polygon fill="black" stroke="black" stroke-width="0.5" points="596.144,-211.051 601.316,-209.904 596.558,-207.575 596.144,-211.051"/>
</g>
<!-- TimeYearDayTime -->
<g id="node29" class="node"><title>TimeYearDayTime</title>
<g id="a_node29"><a xlink:href="../api/astropy.time.TimeYearDayTime.html#astropy.time.TimeYearDayTime" xlink:title="Year, day&#45;of&#45;year and time as &quot;YYYY:DOY:HH:MM:SS.sss...&quot;.">
<polygon fill="none" stroke="black" stroke-width="0.5" points="682.5,-186 582.5,-186 582.5,-167 682.5,-167 682.5,-186"/>
<text text-anchor="middle" x="632.5" y="-174" font-family="Vera Sans, DejaVu Sans, Liberation Sans, Arial, Helvetica, sans" font-size="10.00">TimeYearDayTime</text>
</a>
</g>
</g>
<!-- TimeISO&#45;&gt;TimeYearDayTime -->
<g id="edge25" class="edge"><title>TimeISO&#45;&gt;TimeYearDayTime</title>
<path fill="none" stroke="black" stroke-width="0.5" d="M499.057,-191.447C520.388,-189.039 550.822,-185.605 577.139,-182.635"/>
<polygon fill="black" stroke="black" stroke-width="0.5" points="577.571,-184.347 582.343,-182.047 577.179,-180.869 577.571,-184.347"/>
</g>
<!-- TimezoneInfo -->
<g id="node30" class="node"><title>TimezoneInfo</title>
<g id="a_node30"><a xlink:href="../api/astropy.time.TimezoneInfo.html#astropy.time.TimezoneInfo" xlink:title="Subclass of the `~datetime.tzinfo` object, used in the">
<polygon fill="none" stroke="black" stroke-width="0.5" points="222.5,-500 145.5,-500 145.5,-481 222.5,-481 222.5,-500"/>
<text text-anchor="middle" x="184" y="-488" font-family="Vera Sans, DejaVu Sans, Liberation Sans, Arial, Helvetica, sans" font-size="10.00">TimezoneInfo</text>
</a>
</g>
</g>
<!-- tzinfo -->
<g id="node31" class="node"><title>tzinfo</title>
<g id="a_node31"><a xlink:title="Abstract base class for time zone info objects.">
<polygon fill="none" stroke="black" stroke-width="0.5" points="77,-500 23,-500 23,-481 77,-481 77,-500"/>
<text text-anchor="middle" x="50" y="-488" font-family="Vera Sans, DejaVu Sans, Liberation Sans, Arial, Helvetica, sans" font-size="10.00">tzinfo</text>
</a>
</g>
</g>
<!-- tzinfo&#45;&gt;TimezoneInfo -->
<g id="edge26" class="edge"><title>tzinfo&#45;&gt;TimezoneInfo</title>
<path fill="none" stroke="black" stroke-width="0.5" d="M77.079,-490.5C95.0877,-490.5 119.448,-490.5 140.267,-490.5"/>
<polygon fill="black" stroke="black" stroke-width="0.5" points="140.478,-492.25 145.478,-490.5 140.478,-488.75 140.478,-492.25"/>
</g>
</g>
</svg>
