<?xml version="1.0" encoding="UTF-8" standalone="no"?>
<!DOCTYPE svg PUBLIC "-//W3C//DTD SVG 1.1//EN"
 "http://www.w3.org/Graphics/SVG/1.1/DTD/svg11.dtd">
<!-- Generated by graphviz version 2.38.0 (20140413.2041)
 -->
<!-- Title: inheritance1d47659767 Pages: 1 -->
<svg width="384pt" height="119pt"
 viewBox="0.00 0.00 384.00 119.00" xmlns="http://www.w3.org/2000/svg" xmlns:xlink="http://www.w3.org/1999/xlink">
<g id="graph0" class="graph" transform="scale(1 1) rotate(0) translate(4 115)">
<title>inheritance1d47659767</title>
<polygon fill="white" stroke="none" points="-4,4 -4,-115 380,-115 380,4 -4,4"/>
<!-- EulerAngleRotation -->
<g id="node1" class="node"><title>EulerAngleRotation</title>
<g id="a_node1"><a xlink:href="../api/astropy.modeling.rotations.EulerAngleRotation.html#astropy.modeling.rotations.EulerAngleRotation" xlink:title="Implements Euler angle intrinsic rotations.">
<polygon fill="none" stroke="black" stroke-width="0.5" points="222,-56 119,-56 119,-37 222,-37 222,-56"/>
<text text-anchor="middle" x="170.5" y="-44" font-family="Vera Sans, DejaVu Sans, Liberation Sans, Arial, Helvetica, sans" font-size="10.00">EulerAngleRotation</text>
</a>
</g>
</g>
<!-- _EulerRotation -->
<g id="node2" class="node"><title>_EulerRotation</title>
<g id="a_node2"><a xlink:title="Base class which does the actual computation.">
<polygon fill="none" stroke="black" stroke-width="0.5" points="83,-93 0,-93 0,-74 83,-74 83,-93"/>
<text text-anchor="middle" x="41.5" y="-81" font-family="Vera Sans, DejaVu Sans, Liberation Sans, Arial, Helvetica, sans" font-size="10.00">_EulerRotation</text>
</a>
</g>
</g>
<!-- _EulerRotation&#45;&gt;EulerAngleRotation -->
<g id="edge1" class="edge"><title>_EulerRotation&#45;&gt;EulerAngleRotation</title>
<path fill="none" stroke="black" stroke-width="0.5" d="M75.2057,-73.9716C92.4034,-68.9612 113.577,-62.7924 131.501,-57.5707"/>
<polygon fill="black" stroke="black" stroke-width="0.5" points="132.153,-59.2035 136.464,-56.1247 131.174,-55.8432 132.153,-59.2035"/>
</g>
<!-- _SkyRotation -->
<g id="node5" class="node"><title>_SkyRotation</title>
<g id="a_node5"><a xlink:title="Base class for RotateNative2Celestial and RotateCelestial2Native.">
<polygon fill="none" stroke="black" stroke-width="0.5" points="208.5,-93 132.5,-93 132.5,-74 208.5,-74 208.5,-93"/>
<text text-anchor="middle" x="170.5" y="-81" font-family="Vera Sans, DejaVu Sans, Liberation Sans, Arial, Helvetica, sans" font-size="10.00">_SkyRotation</text>
</a>
</g>
</g>
<!-- _EulerRotation&#45;&gt;_SkyRotation -->
<g id="edge6" class="edge"><title>_EulerRotation&#45;&gt;_SkyRotation</title>
<path fill="none" stroke="black" stroke-width="0.5" d="M83.0328,-83.5C97.1271,-83.5 112.966,-83.5 127.2,-83.5"/>
<polygon fill="black" stroke="black" stroke-width="0.5" points="127.365,-85.2501 132.365,-83.5 127.365,-81.7501 127.365,-85.2501"/>
</g>
<!-- Model -->
<g id="node3" class="node"><title>Model</title>
<g id="a_node3"><a xlink:href="../api/astropy.modeling.Model.html#astropy.modeling.Model" xlink:title="Base class for all models.">
<polygon fill="none" stroke="black" stroke-width="0.5" points="68.5,-56 14.5,-56 14.5,-37 68.5,-37 68.5,-56"/>
<text text-anchor="middle" x="41.5" y="-44" font-family="Vera Sans, DejaVu Sans, Liberation Sans, Arial, Helvetica, sans" font-size="10.00">Model</text>
</a>
</g>
</g>
<!-- Model&#45;&gt;EulerAngleRotation -->
<g id="edge2" class="edge"><title>Model&#45;&gt;EulerAngleRotation</title>
<path fill="none" stroke="black" stroke-width="0.5" d="M68.5068,-46.5C81.5466,-46.5 97.8728,-46.5 113.573,-46.5"/>
<polygon fill="black" stroke="black" stroke-width="0.5" points="113.867,-48.2501 118.867,-46.5 113.867,-44.7501 113.867,-48.2501"/>
</g>
<!-- Model&#45;&gt;_SkyRotation -->
<g id="edge7" class="edge"><title>Model&#45;&gt;_SkyRotation</title>
<path fill="none" stroke="black" stroke-width="0.5" d="M68.5068,-54.0768C86.7807,-59.4007 111.509,-66.6049 131.922,-72.5521"/>
<polygon fill="black" stroke="black" stroke-width="0.5" points="131.453,-74.2381 136.743,-73.9566 132.432,-70.8778 131.453,-74.2381"/>
</g>
<!-- Rotation2D -->
<g id="node7" class="node"><title>Rotation2D</title>
<g id="a_node7"><a xlink:href="../api/astropy.modeling.rotations.Rotation2D.html#astropy.modeling.rotations.Rotation2D" xlink:title="Perform a 2D rotation given an angle in degrees.">
<polygon fill="none" stroke="black" stroke-width="0.5" points="204,-19 137,-19 137,-0 204,-0 204,-19"/>
<text text-anchor="middle" x="170.5" y="-7" font-family="Vera Sans, DejaVu Sans, Liberation Sans, Arial, Helvetica, sans" font-size="10.00">Rotation2D</text>
</a>
</g>
</g>
<!-- Model&#45;&gt;Rotation2D -->
<g id="edge5" class="edge"><title>Model&#45;&gt;Rotation2D</title>
<path fill="none" stroke="black" stroke-width="0.5" d="M68.5068,-38.9232C86.7807,-33.5993 111.509,-26.3951 131.922,-20.4479"/>
<polygon fill="black" stroke="black" stroke-width="0.5" points="132.432,-22.1222 136.743,-19.0434 131.453,-18.7619 132.432,-22.1222"/>
</g>
<!-- RotateCelestial2Native -->
<g id="node4" class="node"><title>RotateCelestial2Native</title>
<g id="a_node4"><a xlink:href="../api/astropy.modeling.rotations.RotateCelestial2Native.html#astropy.modeling.rotations.RotateCelestial2Native" xlink:title="Transform from Celestial to Native Spherical Coordinates.">
<polygon fill="none" stroke="black" stroke-width="0.5" points="376,-111 258,-111 258,-92 376,-92 376,-111"/>
<text text-anchor="middle" x="317" y="-99" font-family="Vera Sans, DejaVu Sans, Liberation Sans, Arial, Helvetica, sans" font-size="10.00">RotateCelestial2Native</text>
</a>
</g>
</g>
<!-- _SkyRotation&#45;&gt;RotateCelestial2Native -->
<g id="edge3" class="edge"><title>_SkyRotation&#45;&gt;RotateCelestial2Native</title>
<path fill="none" stroke="black" stroke-width="0.5" d="M208.712,-88.1354C222.16,-89.8106 237.745,-91.752 252.798,-93.6271"/>
<polygon fill="black" stroke="black" stroke-width="0.5" points="252.701,-95.3784 257.879,-94.26 253.133,-91.9052 252.701,-95.3784"/>
</g>
<!-- RotateNative2Celestial -->
<g id="node6" class="node"><title>RotateNative2Celestial</title>
<g id="a_node6"><a xlink:href="../api/astropy.modeling.rotations.RotateNative2Celestial.html#astropy.modeling.rotations.RotateNative2Celestial" xlink:title="Transform from Native to Celestial Spherical Coordinates.">
<polygon fill="none" stroke="black" stroke-width="0.5" points="376,-74 258,-74 258,-55 376,-55 376,-74"/>
<text text-anchor="middle" x="317" y="-62" font-family="Vera Sans, DejaVu Sans, Liberation Sans, Arial, Helvetica, sans" font-size="10.00">RotateNative2Celestial</text>
</a>
</g>
</g>
<!-- _SkyRotation&#45;&gt;RotateNative2Celestial -->
<g id="edge4" class="edge"><title>_SkyRotation&#45;&gt;RotateNative2Celestial</title>
<path fill="none" stroke="black" stroke-width="0.5" d="M208.712,-78.607C222.16,-76.8388 237.745,-74.7895 252.798,-72.8103"/>
<polygon fill="black" stroke="black" stroke-width="0.5" points="253.149,-74.5292 257.879,-72.1423 252.693,-71.0591 253.149,-74.5292"/>
</g>
</g>
</svg>
