<?xml version="1.0" encoding="UTF-8" standalone="no"?>
<!DOCTYPE svg PUBLIC "-//W3C//DTD SVG 1.1//EN"
 "http://www.w3.org/Graphics/SVG/1.1/DTD/svg11.dtd">
<!-- Generated by graphviz version 2.38.0 (20140413.2041)
 -->
<!-- Title: inheritance00e6963d07 Pages: 1 -->
<svg width="253pt" height="212pt"
 viewBox="0.00 0.00 253.00 212.00" xmlns="http://www.w3.org/2000/svg" xmlns:xlink="http://www.w3.org/1999/xlink">
<g id="graph0" class="graph" transform="scale(1 1) rotate(0) translate(4 208)">
<title>inheritance00e6963d07</title>
<polygon fill="white" stroke="none" points="-4,4 -4,-208 249,-208 249,4 -4,4"/>
<!-- Base -->
<g id="node1" class="node"><title>Base</title>
<g id="a_node1"><a xlink:href="../api/astropy.units.format.Base.html#astropy.units.format.Base" xlink:title="The abstract base class of all unit formats.">
<polygon fill="none" stroke="black" stroke-width="0.5" points="54,-129 0,-129 0,-110 54,-110 54,-129"/>
<text text-anchor="middle" x="27" y="-117" font-family="Vera Sans, DejaVu Sans, Liberation Sans, Arial, Helvetica, sans" font-size="10.00">Base</text>
</a>
</g>
</g>
<!-- CDS -->
<g id="node2" class="node"><title>CDS</title>
<g id="a_node2"><a xlink:href="../api/astropy.units.format.CDS.html#astropy.units.format.CDS" xlink:title="Support the `Centre de Données astronomiques de Strasbourg">
<polygon fill="none" stroke="black" stroke-width="0.5" points="144,-185 90,-185 90,-166 144,-166 144,-185"/>
<text text-anchor="middle" x="117" y="-173" font-family="Vera Sans, DejaVu Sans, Liberation Sans, Arial, Helvetica, sans" font-size="10.00">CDS</text>
</a>
</g>
</g>
<!-- Base&#45;&gt;CDS -->
<g id="edge1" class="edge"><title>Base&#45;&gt;CDS</title>
<path fill="none" stroke="black" stroke-width="0.5" d="M43.3284,-129.254C58.0922,-138.65 80.4841,-152.899 96.5081,-163.096"/>
<polygon fill="black" stroke="black" stroke-width="0.5" points="95.6894,-164.649 100.847,-165.857 97.5685,-161.696 95.6894,-164.649"/>
</g>
<!-- Console -->
<g id="node3" class="node"><title>Console</title>
<g id="a_node3"><a xlink:href="../api/astropy.units.format.Console.html#astropy.units.format.Console" xlink:title="Output&#45;only format for to display pretty formatting at the">
<polygon fill="none" stroke="black" stroke-width="0.5" points="144,-148 90,-148 90,-129 144,-129 144,-148"/>
<text text-anchor="middle" x="117" y="-136" font-family="Vera Sans, DejaVu Sans, Liberation Sans, Arial, Helvetica, sans" font-size="10.00">Console</text>
</a>
</g>
</g>
<!-- Base&#45;&gt;Console -->
<g id="edge2" class="edge"><title>Base&#45;&gt;Console</title>
<path fill="none" stroke="black" stroke-width="0.5" d="M54.4029,-125.201C63.9738,-127.267 74.8745,-129.621 84.8184,-131.768"/>
<polygon fill="black" stroke="black" stroke-width="0.5" points="84.6622,-133.524 89.919,-132.869 85.401,-130.103 84.6622,-133.524"/>
</g>
<!-- Generic -->
<g id="node5" class="node"><title>Generic</title>
<g id="a_node5"><a xlink:href="../api/astropy.units.format.Generic.html#astropy.units.format.Generic" xlink:title="A &quot;generic&quot; format.">
<polygon fill="none" stroke="black" stroke-width="0.5" points="144,-111 90,-111 90,-92 144,-92 144,-111"/>
<text text-anchor="middle" x="117" y="-99" font-family="Vera Sans, DejaVu Sans, Liberation Sans, Arial, Helvetica, sans" font-size="10.00">Generic</text>
</a>
</g>
</g>
<!-- Base&#45;&gt;Generic -->
<g id="edge4" class="edge"><title>Base&#45;&gt;Generic</title>
<path fill="none" stroke="black" stroke-width="0.5" d="M54.4029,-114.099C63.9738,-112.142 74.8745,-109.912 84.8184,-107.878"/>
<polygon fill="black" stroke="black" stroke-width="0.5" points="85.3711,-109.551 89.919,-106.835 84.6697,-106.122 85.3711,-109.551"/>
</g>
<!-- Latex -->
<g id="node6" class="node"><title>Latex</title>
<g id="a_node6"><a xlink:href="../api/astropy.units.format.Latex.html#astropy.units.format.Latex" xlink:title="Output LaTeX to display the unit based on IAU style guidelines.">
<polygon fill="none" stroke="black" stroke-width="0.5" points="144,-56 90,-56 90,-37 144,-37 144,-56"/>
<text text-anchor="middle" x="117" y="-44" font-family="Vera Sans, DejaVu Sans, Liberation Sans, Arial, Helvetica, sans" font-size="10.00">Latex</text>
</a>
</g>
</g>
<!-- Base&#45;&gt;Latex -->
<g id="edge5" class="edge"><title>Base&#45;&gt;Latex</title>
<path fill="none" stroke="black" stroke-width="0.5" d="M39.5045,-109.957C55.052,-97.0591 82.83,-74.016 100.29,-59.5323"/>
<polygon fill="black" stroke="black" stroke-width="0.5" points="101.762,-60.5851 104.493,-56.0458 99.5271,-57.8913 101.762,-60.5851"/>
</g>
<!-- Unicode -->
<g id="node9" class="node"><title>Unicode</title>
<g id="a_node9"><a xlink:href="../api/astropy.units.format.Unicode.html#astropy.units.format.Unicode" xlink:title="Output&#45;only format to display pretty formatting at the console">
<polygon fill="none" stroke="black" stroke-width="0.5" points="239.5,-204 185.5,-204 185.5,-185 239.5,-185 239.5,-204"/>
<text text-anchor="middle" x="212.5" y="-192" font-family="Vera Sans, DejaVu Sans, Liberation Sans, Arial, Helvetica, sans" font-size="10.00">Unicode</text>
</a>
</g>
</g>
<!-- Console&#45;&gt;Unicode -->
<g id="edge8" class="edge"><title>Console&#45;&gt;Unicode</title>
<path fill="none" stroke="black" stroke-width="0.5" d="M133.209,-148.001C145.712,-155.768 163.921,-166.982 180,-176.5 183.205,-178.397 186.609,-180.378 189.951,-182.303"/>
<polygon fill="black" stroke="black" stroke-width="0.5" points="189.235,-183.91 194.443,-184.88 190.977,-180.874 189.235,-183.91"/>
</g>
<!-- Fits -->
<g id="node4" class="node"><title>Fits</title>
<g id="a_node4"><a xlink:href="../api/astropy.units.format.Fits.html#astropy.units.format.Fits" xlink:title="The FITS standard unit format.">
<polygon fill="none" stroke="black" stroke-width="0.5" points="239.5,-167 185.5,-167 185.5,-148 239.5,-148 239.5,-167"/>
<text text-anchor="middle" x="212.5" y="-155" font-family="Vera Sans, DejaVu Sans, Liberation Sans, Arial, Helvetica, sans" font-size="10.00">Fits</text>
</a>
</g>
</g>
<!-- Generic&#45;&gt;Fits -->
<g id="edge3" class="edge"><title>Generic&#45;&gt;Fits</title>
<path fill="none" stroke="black" stroke-width="0.5" d="M133.209,-111.001C145.712,-118.768 163.921,-129.982 180,-139.5 183.205,-141.397 186.609,-143.378 189.951,-145.303"/>
<polygon fill="black" stroke="black" stroke-width="0.5" points="189.235,-146.91 194.443,-147.88 190.977,-143.874 189.235,-146.91"/>
</g>
<!-- OGIP -->
<g id="node8" class="node"><title>OGIP</title>
<g id="a_node8"><a xlink:href="../api/astropy.units.format.OGIP.html#astropy.units.format.OGIP" xlink:title="Support the units in `Office of Guest Investigator Programs (OGIP)">
<polygon fill="none" stroke="black" stroke-width="0.5" points="239.5,-130 185.5,-130 185.5,-111 239.5,-111 239.5,-130"/>
<text text-anchor="middle" x="212.5" y="-118" font-family="Vera Sans, DejaVu Sans, Liberation Sans, Arial, Helvetica, sans" font-size="10.00">OGIP</text>
</a>
</g>
</g>
<!-- Generic&#45;&gt;OGIP -->
<g id="edge7" class="edge"><title>Generic&#45;&gt;OGIP</title>
<path fill="none" stroke="black" stroke-width="0.5" d="M144.045,-106.793C155.298,-109.079 168.556,-111.773 180.327,-114.165"/>
<polygon fill="black" stroke="black" stroke-width="0.5" points="180.022,-115.889 185.27,-115.17 180.719,-112.459 180.022,-115.889"/>
</g>
<!-- Unscaled -->
<g id="node10" class="node"><title>Unscaled</title>
<g id="a_node10"><a xlink:href="../api/astropy.units.format.Unscaled.html#astropy.units.format.Unscaled" xlink:title="A format that doesn&#39;t display the scale part of the unit, other">
<polygon fill="none" stroke="black" stroke-width="0.5" points="241.5,-93 183.5,-93 183.5,-74 241.5,-74 241.5,-93"/>
<text text-anchor="middle" x="212.5" y="-81" font-family="Vera Sans, DejaVu Sans, Liberation Sans, Arial, Helvetica, sans" font-size="10.00">Unscaled</text>
</a>
</g>
</g>
<!-- Generic&#45;&gt;Unscaled -->
<g id="edge9" class="edge"><title>Generic&#45;&gt;Unscaled</title>
<path fill="none" stroke="black" stroke-width="0.5" d="M144.045,-96.486C154.635,-94.4473 167.001,-92.0666 178.232,-89.9045"/>
<polygon fill="black" stroke="black" stroke-width="0.5" points="178.723,-91.5922 183.302,-88.9284 178.062,-88.1553 178.723,-91.5922"/>
</g>
<!-- VOUnit -->
<g id="node11" class="node"><title>VOUnit</title>
<g id="a_node11"><a xlink:href="../api/astropy.units.format.VOUnit.html#astropy.units.format.VOUnit" xlink:title="The IVOA standard for units used by the VO.">
<polygon fill="none" stroke="black" stroke-width="0.5" points="239.5,-56 185.5,-56 185.5,-37 239.5,-37 239.5,-56"/>
<text text-anchor="middle" x="212.5" y="-44" font-family="Vera Sans, DejaVu Sans, Liberation Sans, Arial, Helvetica, sans" font-size="10.00">VOUnit</text>
</a>
</g>
</g>
<!-- Generic&#45;&gt;VOUnit -->
<g id="edge10" class="edge"><title>Generic&#45;&gt;VOUnit</title>
<path fill="none" stroke="black" stroke-width="0.5" d="M134.286,-91.9197C149.877,-82.7486 173.475,-68.8679 190.478,-58.8661"/>
<polygon fill="black" stroke="black" stroke-width="0.5" points="191.664,-60.1986 195.086,-56.155 189.889,-57.1818 191.664,-60.1986"/>
</g>
<!-- LatexInline -->
<g id="node7" class="node"><title>LatexInline</title>
<g id="a_node7"><a xlink:href="../api/astropy.units.format.LatexInline.html#astropy.units.format.LatexInline" xlink:title="Output LaTeX to display the unit based on IAU style guidelines with negative">
<polygon fill="none" stroke="black" stroke-width="0.5" points="245,-19 180,-19 180,-0 245,-0 245,-19"/>
<text text-anchor="middle" x="212.5" y="-7" font-family="Vera Sans, DejaVu Sans, Liberation Sans, Arial, Helvetica, sans" font-size="10.00">LatexInline</text>
</a>
</g>
</g>
<!-- Latex&#45;&gt;LatexInline -->
<g id="edge6" class="edge"><title>Latex&#45;&gt;LatexInline</title>
<path fill="none" stroke="black" stroke-width="0.5" d="M142.079,-36.9716C154.415,-32.0897 169.531,-26.108 182.504,-20.9742"/>
<polygon fill="black" stroke="black" stroke-width="0.5" points="183.173,-22.5918 187.178,-19.1247 181.885,-19.3374 183.173,-22.5918"/>
</g>
</g>
</svg>
