<?xml version="1.0" encoding="UTF-8" standalone="no"?>
<!DOCTYPE svg PUBLIC "-//W3C//DTD SVG 1.1//EN"
 "http://www.w3.org/Graphics/SVG/1.1/DTD/svg11.dtd">
<!-- Generated by graphviz version 2.38.0 (20140413.2041)
 -->
<!-- Title: inheritance2d0d457931 Pages: 1 -->
<svg width="232pt" height="156pt"
 viewBox="0.00 0.00 232.00 156.00" xmlns="http://www.w3.org/2000/svg" xmlns:xlink="http://www.w3.org/1999/xlink">
<g id="graph0" class="graph" transform="scale(1 1) rotate(0) translate(4 152)">
<title>inheritance2d0d457931</title>
<polygon fill="white" stroke="none" points="-4,4 -4,-152 228,-152 228,4 -4,4"/>
<!-- Fitter -->
<g id="node1" class="node"><title>Fitter</title>
<g id="a_node1"><a xlink:href="../../api/astropy.modeling.fitting.Fitter.html#astropy.modeling.fitting.Fitter" xlink:title="Base class for all fitters." target="_top">
<polygon fill="none" stroke="black" stroke-width="0.5" points="73.5,-37 19.5,-37 19.5,-18 73.5,-18 73.5,-37"/>
<text text-anchor="middle" x="46.5" y="-25" font-family="Vera Sans, DejaVu Sans, Liberation Sans, Arial, Helvetica, sans" font-size="10.00">Fitter</text>
</a>
</g>
</g>
<!-- SLSQPLSQFitter -->
<g id="node5" class="node"><title>SLSQPLSQFitter</title>
<g id="a_node5"><a xlink:href="../../api/astropy.modeling.fitting.SLSQPLSQFitter.html#astropy.modeling.fitting.SLSQPLSQFitter" xlink:title="SLSQP optimization algorithm and least squares statistic." target="_top">
<polygon fill="none" stroke="black" stroke-width="0.5" points="223,-56 130,-56 130,-37 223,-37 223,-56"/>
<text text-anchor="middle" x="176.5" y="-44" font-family="Vera Sans, DejaVu Sans, Liberation Sans, Arial, Helvetica, sans" font-size="10.00">SLSQPLSQFitter</text>
</a>
</g>
</g>
<!-- Fitter&#45;&gt;SLSQPLSQFitter -->
<g id="edge1" class="edge"><title>Fitter&#45;&gt;SLSQPLSQFitter</title>
<path fill="none" stroke="black" stroke-width="0.5" d="M73.7116,-31.3908C88.3603,-33.5652 107.124,-36.3504 124.542,-38.9359"/>
<polygon fill="black" stroke="black" stroke-width="0.5" points="124.695,-40.7278 129.898,-39.731 125.209,-37.2657 124.695,-40.7278"/>
</g>
<!-- SimplexLSQFitter -->
<g id="node6" class="node"><title>SimplexLSQFitter</title>
<g id="a_node6"><a xlink:href="../../api/astropy.modeling.fitting.SimplexLSQFitter.html#astropy.modeling.fitting.SimplexLSQFitter" xlink:title="Simplex algorithm and least squares statistic." target="_top">
<polygon fill="none" stroke="black" stroke-width="0.5" points="224,-19 129,-19 129,-0 224,-0 224,-19"/>
<text text-anchor="middle" x="176.5" y="-7" font-family="Vera Sans, DejaVu Sans, Liberation Sans, Arial, Helvetica, sans" font-size="10.00">SimplexLSQFitter</text>
</a>
</g>
</g>
<!-- Fitter&#45;&gt;SimplexLSQFitter -->
<g id="edge2" class="edge"><title>Fitter&#45;&gt;SimplexLSQFitter</title>
<path fill="none" stroke="black" stroke-width="0.5" d="M73.7116,-23.814C88.0952,-21.7913 106.446,-19.2107 123.595,-16.7992"/>
<polygon fill="black" stroke="black" stroke-width="0.5" points="124.165,-18.4863 128.872,-16.057 123.677,-15.0204 124.165,-18.4863"/>
</g>
<!-- JointFitter -->
<g id="node2" class="node"><title>JointFitter</title>
<g id="a_node2"><a xlink:href="../../api/astropy.modeling.fitting.JointFitter.html#astropy.modeling.fitting.JointFitter" xlink:title="Fit models which share a parameter." target="_top">
<polygon fill="none" stroke="black" stroke-width="0.5" points="76.5,-74 16.5,-74 16.5,-55 76.5,-55 76.5,-74"/>
<text text-anchor="middle" x="46.5" y="-62" font-family="Vera Sans, DejaVu Sans, Liberation Sans, Arial, Helvetica, sans" font-size="10.00">JointFitter</text>
</a>
</g>
</g>
<!-- LevMarLSQFitter -->
<g id="node3" class="node"><title>LevMarLSQFitter</title>
<g id="a_node3"><a xlink:href="../../api/astropy.modeling.fitting.LevMarLSQFitter.html#astropy.modeling.fitting.LevMarLSQFitter" xlink:title="Levenberg&#45;Marquardt algorithm and least squares statistic." target="_top">
<polygon fill="none" stroke="black" stroke-width="0.5" points="93,-111 0,-111 0,-92 93,-92 93,-111"/>
<text text-anchor="middle" x="46.5" y="-99" font-family="Vera Sans, DejaVu Sans, Liberation Sans, Arial, Helvetica, sans" font-size="10.00">LevMarLSQFitter</text>
</a>
</g>
</g>
<!-- LinearLSQFitter -->
<g id="node4" class="node"><title>LinearLSQFitter</title>
<g id="a_node4"><a xlink:href="../../api/astropy.modeling.fitting.LinearLSQFitter.html#astropy.modeling.fitting.LinearLSQFitter" xlink:title="A class performing a linear least square fitting." target="_top">
<polygon fill="none" stroke="black" stroke-width="0.5" points="90,-148 3,-148 3,-129 90,-129 90,-148"/>
<text text-anchor="middle" x="46.5" y="-136" font-family="Vera Sans, DejaVu Sans, Liberation Sans, Arial, Helvetica, sans" font-size="10.00">LinearLSQFitter</text>
</a>
</g>
</g>
</g>
</svg>
