<?xml version="1.0" encoding="UTF-8" standalone="no"?>
<!DOCTYPE svg PUBLIC "-//W3C//DTD SVG 1.1//EN"
 "http://www.w3.org/Graphics/SVG/1.1/DTD/svg11.dtd">
<!-- Generated by graphviz version 2.38.0 (20140413.2041)
 -->
<!-- Title: inheritance62e5b6a537 Pages: 1 -->
<svg width="202pt" height="101pt"
 viewBox="0.00 0.00 202.00 101.00" xmlns="http://www.w3.org/2000/svg" xmlns:xlink="http://www.w3.org/1999/xlink">
<g id="graph0" class="graph" transform="scale(1 1) rotate(0) translate(4 97)">
<title>inheritance62e5b6a537</title>
<polygon fill="white" stroke="none" points="-4,4 -4,-97 198,-97 198,4 -4,4"/>
<!-- Events -->
<g id="node1" class="node"><title>Events</title>
<g id="a_node1"><a xlink:href="../api/astropy.stats.Events.html#astropy.stats.Events" xlink:title="Bayesian blocks fitness for binned or unbinned events">
<polygon fill="none" stroke="black" stroke-width="0.5" points="179.5,-93 125.5,-93 125.5,-74 179.5,-74 179.5,-93"/>
<text text-anchor="middle" x="152.5" y="-81" font-family="Vera Sans, DejaVu Sans, Liberation Sans, Arial, Helvetica, sans" font-size="10.00">Events</text>
</a>
</g>
</g>
<!-- FitnessFunc -->
<g id="node2" class="node"><title>FitnessFunc</title>
<g id="a_node2"><a xlink:href="../api/astropy.stats.FitnessFunc.html#astropy.stats.FitnessFunc" xlink:title="Base class for bayesian blocks fitness functions">
<polygon fill="none" stroke="black" stroke-width="0.5" points="73,-56 2,-56 2,-37 73,-37 73,-56"/>
<text text-anchor="middle" x="37.5" y="-44" font-family="Vera Sans, DejaVu Sans, Liberation Sans, Arial, Helvetica, sans" font-size="10.00">FitnessFunc</text>
</a>
</g>
</g>
<!-- FitnessFunc&#45;&gt;Events -->
<g id="edge1" class="edge"><title>FitnessFunc&#45;&gt;Events</title>
<path fill="none" stroke="black" stroke-width="0.5" d="M67.6003,-56.0284C83.7196,-61.3064 103.765,-67.8699 120.22,-73.2577"/>
<polygon fill="black" stroke="black" stroke-width="0.5" points="119.906,-74.9965 125.203,-74.8893 120.995,-71.6703 119.906,-74.9965"/>
</g>
<!-- PointMeasures -->
<g id="node4" class="node"><title>PointMeasures</title>
<g id="a_node4"><a xlink:href="../api/astropy.stats.PointMeasures.html#astropy.stats.PointMeasures" xlink:title="Bayesian blocks fitness for point measures">
<polygon fill="none" stroke="black" stroke-width="0.5" points="194,-56 111,-56 111,-37 194,-37 194,-56"/>
<text text-anchor="middle" x="152.5" y="-44" font-family="Vera Sans, DejaVu Sans, Liberation Sans, Arial, Helvetica, sans" font-size="10.00">PointMeasures</text>
</a>
</g>
</g>
<!-- FitnessFunc&#45;&gt;PointMeasures -->
<g id="edge2" class="edge"><title>FitnessFunc&#45;&gt;PointMeasures</title>
<path fill="none" stroke="black" stroke-width="0.5" d="M73.0177,-46.5C83.2808,-46.5 94.6903,-46.5 105.559,-46.5"/>
<polygon fill="black" stroke="black" stroke-width="0.5" points="105.844,-48.2501 110.844,-46.5 105.844,-44.7501 105.844,-48.2501"/>
</g>
<!-- RegularEvents -->
<g id="node5" class="node"><title>RegularEvents</title>
<g id="a_node5"><a xlink:href="../api/astropy.stats.RegularEvents.html#astropy.stats.RegularEvents" xlink:title="Bayesian blocks fitness for regular events">
<polygon fill="none" stroke="black" stroke-width="0.5" points="193.5,-19 111.5,-19 111.5,-0 193.5,-0 193.5,-19"/>
<text text-anchor="middle" x="152.5" y="-7" font-family="Vera Sans, DejaVu Sans, Liberation Sans, Arial, Helvetica, sans" font-size="10.00">RegularEvents</text>
</a>
</g>
</g>
<!-- FitnessFunc&#45;&gt;RegularEvents -->
<g id="edge3" class="edge"><title>FitnessFunc&#45;&gt;RegularEvents</title>
<path fill="none" stroke="black" stroke-width="0.5" d="M67.6003,-36.9716C82.7714,-32.004 101.42,-25.8978 117.28,-20.7048"/>
<polygon fill="black" stroke="black" stroke-width="0.5" points="117.898,-22.3438 122.106,-19.1247 116.809,-19.0176 117.898,-22.3438"/>
</g>
<!-- LombScargle -->
<g id="node3" class="node"><title>LombScargle</title>
<g id="a_node3"><a xlink:href="../api/astropy.stats.LombScargle.html#astropy.stats.LombScargle" xlink:title="Compute the Lomb&#45;Scargle Periodogram">
<polygon fill="none" stroke="black" stroke-width="0.5" points="75,-93 0,-93 0,-74 75,-74 75,-93"/>
<text text-anchor="middle" x="37.5" y="-81" font-family="Vera Sans, DejaVu Sans, Liberation Sans, Arial, Helvetica, sans" font-size="10.00">LombScargle</text>
</a>
</g>
</g>
</g>
</svg>
