<?xml version="1.0" encoding="UTF-8" standalone="no"?>
<!DOCTYPE svg PUBLIC "-//W3C//DTD SVG 1.1//EN"
 "http://www.w3.org/Graphics/SVG/1.1/DTD/svg11.dtd">
<!-- Generated by graphviz version 2.38.0 (20140413.2041)
 -->
<!-- Title: inheritance8586cda724 Pages: 1 -->
<svg width="417pt" height="230pt"
 viewBox="0.00 0.00 417.00 230.00" xmlns="http://www.w3.org/2000/svg" xmlns:xlink="http://www.w3.org/1999/xlink">
<g id="graph0" class="graph" transform="scale(1 1) rotate(0) translate(4 226)">
<title>inheritance8586cda724</title>
<polygon fill="white" stroke="none" points="-4,4 -4,-226 413,-226 413,4 -4,4"/>
<!-- Fittable1DModel -->
<g id="node1" class="node"><title>Fittable1DModel</title>
<g id="a_node1"><a xlink:href="../../api/astropy.modeling.Fittable1DModel.html#astropy.modeling.Fittable1DModel" xlink:title="Base class for one&#45;dimensional fittable models." target="_top">
<polygon fill="none" stroke="black" stroke-width="0.5" points="387.5,-130 298.5,-130 298.5,-111 387.5,-111 387.5,-130"/>
<text text-anchor="middle" x="343" y="-118" font-family="Vera Sans, DejaVu Sans, Liberation Sans, Arial, Helvetica, sans" font-size="10.00">Fittable1DModel</text>
</a>
</g>
</g>
<!-- FittableModel -->
<g id="node2" class="node"><title>FittableModel</title>
<g id="a_node2"><a xlink:href="../../api/astropy.modeling.FittableModel.html#astropy.modeling.FittableModel" xlink:title="Base class for models that can be fitted using the built&#45;in fitting" target="_top">
<polygon fill="none" stroke="black" stroke-width="0.5" points="231,-93 154,-93 154,-74 231,-74 231,-93"/>
<text text-anchor="middle" x="192.5" y="-81" font-family="Vera Sans, DejaVu Sans, Liberation Sans, Arial, Helvetica, sans" font-size="10.00">FittableModel</text>
</a>
</g>
</g>
<!-- FittableModel&#45;&gt;Fittable1DModel -->
<g id="edge1" class="edge"><title>FittableModel&#45;&gt;Fittable1DModel</title>
<path fill="none" stroke="black" stroke-width="0.5" d="M231.357,-92.9324C251.882,-98.0463 277.336,-104.388 298.653,-109.7"/>
<polygon fill="black" stroke="black" stroke-width="0.5" points="298.421,-111.445 303.696,-110.956 299.267,-108.049 298.421,-111.445"/>
</g>
<!-- Fittable2DModel -->
<g id="node3" class="node"><title>Fittable2DModel</title>
<g id="a_node3"><a xlink:href="../../api/astropy.modeling.Fittable2DModel.html#astropy.modeling.Fittable2DModel" xlink:title="Base class for two&#45;dimensional fittable models." target="_top">
<polygon fill="none" stroke="black" stroke-width="0.5" points="387.5,-93 298.5,-93 298.5,-74 387.5,-74 387.5,-93"/>
<text text-anchor="middle" x="343" y="-81" font-family="Vera Sans, DejaVu Sans, Liberation Sans, Arial, Helvetica, sans" font-size="10.00">Fittable2DModel</text>
</a>
</g>
</g>
<!-- FittableModel&#45;&gt;Fittable2DModel -->
<g id="edge2" class="edge"><title>FittableModel&#45;&gt;Fittable2DModel</title>
<path fill="none" stroke="black" stroke-width="0.5" d="M231.357,-83.5C250.211,-83.5 273.224,-83.5 293.369,-83.5"/>
<polygon fill="black" stroke="black" stroke-width="0.5" points="293.425,-85.2501 298.425,-83.5 293.425,-81.7501 293.425,-85.2501"/>
</g>
<!-- Model -->
<g id="node4" class="node"><title>Model</title>
<g id="a_node4"><a xlink:href="../../api/astropy.modeling.Model.html#astropy.modeling.Model" xlink:title="Base class for all models." target="_top">
<polygon fill="none" stroke="black" stroke-width="0.5" points="81,-61 27,-61 27,-42 81,-42 81,-61"/>
<text text-anchor="middle" x="54" y="-49" font-family="Vera Sans, DejaVu Sans, Liberation Sans, Arial, Helvetica, sans" font-size="10.00">Model</text>
</a>
</g>
</g>
<!-- Model&#45;&gt;FittableModel -->
<g id="edge3" class="edge"><title>Model&#45;&gt;FittableModel</title>
<path fill="none" stroke="black" stroke-width="0.5" d="M81.3186,-57.6699C100.477,-62.1613 126.833,-68.3399 148.963,-73.5281"/>
<polygon fill="black" stroke="black" stroke-width="0.5" points="148.64,-75.2496 153.907,-74.6871 149.439,-71.8419 148.64,-75.2496"/>
</g>
<!-- _CompositeModel -->
<g id="node12" class="node"><title>_CompositeModel</title>
<g id="a_node12"><a xlink:title="Base class for all composite models.">
<polygon fill="none" stroke="black" stroke-width="0.5" points="241,-56 144,-56 144,-37 241,-37 241,-56"/>
<text text-anchor="middle" x="192.5" y="-44" font-family="Vera Sans, DejaVu Sans, Liberation Sans, Arial, Helvetica, sans" font-size="10.00">_CompositeModel</text>
</a>
</g>
</g>
<!-- Model&#45;&gt;_CompositeModel -->
<g id="edge8" class="edge"><title>Model&#45;&gt;_CompositeModel</title>
<path fill="none" stroke="black" stroke-width="0.5" d="M81.3186,-50.5359C97.6042,-49.9394 119.09,-49.1524 138.761,-48.4318"/>
<polygon fill="black" stroke="black" stroke-width="0.5" points="139.054,-50.1724 143.986,-48.2404 138.926,-46.6747 139.054,-50.1724"/>
</g>
<!-- InputParameterError -->
<g id="node5" class="node"><title>InputParameterError</title>
<g id="a_node5"><a xlink:href="../../api/astropy.modeling.InputParameterError.html#astropy.modeling.InputParameterError" xlink:title="Used for incorrect input parameter values and definitions." target="_top">
<polygon fill="none" stroke="black" stroke-width="0.5" points="108,-107 0,-107 0,-88 108,-88 108,-107"/>
<text text-anchor="middle" x="54" y="-95" font-family="Vera Sans, DejaVu Sans, Liberation Sans, Arial, Helvetica, sans" font-size="10.00">InputParameterError</text>
</a>
</g>
</g>
<!-- LabeledInput -->
<g id="node6" class="node"><title>LabeledInput</title>
<g id="a_node6"><a xlink:href="../../api/astropy.modeling.LabeledInput.html#astropy.modeling.LabeledInput" xlink:title=".. deprecated:: 1.0" target="_top">
<polygon fill="none" stroke="black" stroke-width="0.5" points="229.5,-148 155.5,-148 155.5,-129 229.5,-129 229.5,-148"/>
<text text-anchor="middle" x="192.5" y="-136" font-family="Vera Sans, DejaVu Sans, Liberation Sans, Arial, Helvetica, sans" font-size="10.00">LabeledInput</text>
</a>
</g>
</g>
<!-- OrderedDict -->
<g id="node7" class="node"><title>OrderedDict</title>
<g id="a_node7"><a xlink:title="Dictionary that remembers insertion order">
<polygon fill="none" stroke="black" stroke-width="0.5" points="89,-148 19,-148 19,-129 89,-129 89,-148"/>
<text text-anchor="middle" x="54" y="-136" font-family="Vera Sans, DejaVu Sans, Liberation Sans, Arial, Helvetica, sans" font-size="10.00">OrderedDict</text>
</a>
</g>
</g>
<!-- OrderedDict&#45;&gt;LabeledInput -->
<g id="edge4" class="edge"><title>OrderedDict&#45;&gt;LabeledInput</title>
<path fill="none" stroke="black" stroke-width="0.5" d="M89.0926,-138.5C107.571,-138.5 130.549,-138.5 150.055,-138.5"/>
<polygon fill="black" stroke="black" stroke-width="0.5" points="150.458,-140.25 155.458,-138.5 150.458,-136.75 150.458,-140.25"/>
</g>
<!-- ModelDefinitionError -->
<g id="node8" class="node"><title>ModelDefinitionError</title>
<g id="a_node8"><a xlink:href="../../api/astropy.modeling.ModelDefinitionError.html#astropy.modeling.ModelDefinitionError" xlink:title="Used for incorrect models definitions" target="_top">
<polygon fill="none" stroke="black" stroke-width="0.5" points="108,-185 0,-185 0,-166 108,-166 108,-185"/>
<text text-anchor="middle" x="54" y="-173" font-family="Vera Sans, DejaVu Sans, Liberation Sans, Arial, Helvetica, sans" font-size="10.00">ModelDefinitionError</text>
</a>
</g>
</g>
<!-- OrderedDescriptor -->
<g id="node9" class="node"><title>OrderedDescriptor</title>
<g id="a_node9"><a xlink:href="../../api/astropy.utils.misc.OrderedDescriptor.html#astropy.utils.misc.OrderedDescriptor" xlink:title="Base class for descriptors whose order in the class body should be" target="_top">
<polygon fill="none" stroke="black" stroke-width="0.5" points="103.5,-222 4.5,-222 4.5,-203 103.5,-203 103.5,-222"/>
<text text-anchor="middle" x="54" y="-210" font-family="Vera Sans, DejaVu Sans, Liberation Sans, Arial, Helvetica, sans" font-size="10.00">OrderedDescriptor</text>
</a>
</g>
</g>
<!-- Parameter -->
<g id="node10" class="node"><title>Parameter</title>
<g id="a_node10"><a xlink:href="../../api/astropy.modeling.Parameter.html#astropy.modeling.Parameter" xlink:title="Wraps individual parameters." target="_top">
<polygon fill="none" stroke="black" stroke-width="0.5" points="224,-222 161,-222 161,-203 224,-203 224,-222"/>
<text text-anchor="middle" x="192.5" y="-210" font-family="Vera Sans, DejaVu Sans, Liberation Sans, Arial, Helvetica, sans" font-size="10.00">Parameter</text>
</a>
</g>
</g>
<!-- OrderedDescriptor&#45;&gt;Parameter -->
<g id="edge5" class="edge"><title>OrderedDescriptor&#45;&gt;Parameter</title>
<path fill="none" stroke="black" stroke-width="0.5" d="M103.509,-212.5C120.583,-212.5 139.46,-212.5 155.338,-212.5"/>
<polygon fill="black" stroke="black" stroke-width="0.5" points="155.601,-214.25 160.601,-212.5 155.601,-210.75 155.601,-214.25"/>
</g>
<!-- SerialCompositeModel -->
<g id="node11" class="node"><title>SerialCompositeModel</title>
<g id="a_node11"><a xlink:href="../../api/astropy.modeling.SerialCompositeModel.html#astropy.modeling.SerialCompositeModel" xlink:title=".. deprecated:: 1.0" target="_top">
<polygon fill="none" stroke="black" stroke-width="0.5" points="401.5,-56 284.5,-56 284.5,-37 401.5,-37 401.5,-56"/>
<text text-anchor="middle" x="343" y="-44" font-family="Vera Sans, DejaVu Sans, Liberation Sans, Arial, Helvetica, sans" font-size="10.00">SerialCompositeModel</text>
</a>
</g>
</g>
<!-- _CompositeModel&#45;&gt;SerialCompositeModel -->
<g id="edge6" class="edge"><title>_CompositeModel&#45;&gt;SerialCompositeModel</title>
<path fill="none" stroke="black" stroke-width="0.5" d="M241.304,-46.5C253.43,-46.5 266.638,-46.5 279.378,-46.5"/>
<polygon fill="black" stroke="black" stroke-width="0.5" points="279.423,-48.2501 284.423,-46.5 279.423,-44.7501 279.423,-48.2501"/>
</g>
<!-- SummedCompositeModel -->
<g id="node13" class="node"><title>SummedCompositeModel</title>
<g id="a_node13"><a xlink:href="../../api/astropy.modeling.SummedCompositeModel.html#astropy.modeling.SummedCompositeModel" xlink:title=".. deprecated:: 1.0" target="_top">
<polygon fill="none" stroke="black" stroke-width="0.5" points="409,-19 277,-19 277,-0 409,-0 409,-19"/>
<text text-anchor="middle" x="343" y="-7" font-family="Vera Sans, DejaVu Sans, Liberation Sans, Arial, Helvetica, sans" font-size="10.00">SummedCompositeModel</text>
</a>
</g>
</g>
<!-- _CompositeModel&#45;&gt;SummedCompositeModel -->
<g id="edge7" class="edge"><title>_CompositeModel&#45;&gt;SummedCompositeModel</title>
<path fill="none" stroke="black" stroke-width="0.5" d="M231.742,-36.9716C252.189,-31.8772 277.442,-25.5851 298.619,-20.3087"/>
<polygon fill="black" stroke="black" stroke-width="0.5" points="299.201,-21.9674 303.629,-19.0604 298.355,-18.5712 299.201,-21.9674"/>
</g>
</g>
</svg>
