<?xml version="1.0" encoding="UTF-8" standalone="no"?>
<!DOCTYPE svg PUBLIC "-//W3C//DTD SVG 1.1//EN"
 "http://www.w3.org/Graphics/SVG/1.1/DTD/svg11.dtd">
<!-- Generated by graphviz version 2.38.0 (20140413.2041)
 -->
<!-- Title: inheritance0f2ce7df59 Pages: 1 -->
<svg width="458pt" height="175pt"
 viewBox="0.00 0.00 458.00 175.00" xmlns="http://www.w3.org/2000/svg" xmlns:xlink="http://www.w3.org/1999/xlink">
<g id="graph0" class="graph" transform="scale(1 1) rotate(0) translate(4 171)">
<title>inheritance0f2ce7df59</title>
<polygon fill="white" stroke="none" points="-4,4 -4,-171 454,-171 454,4 -4,4"/>
<!-- Cosmology -->
<g id="node1" class="node"><title>Cosmology</title>
<g id="a_node1"><a xlink:title="Placeholder for when a more general Cosmology class is">
<polygon fill="none" stroke="black" stroke-width="0.5" points="71,-93 4,-93 4,-74 71,-74 71,-93"/>
<text text-anchor="middle" x="37.5" y="-81" font-family="Vera Sans, DejaVu Sans, Liberation Sans, Arial, Helvetica, sans" font-size="10.00">Cosmology</text>
</a>
</g>
</g>
<!-- FLRW -->
<g id="node2" class="node"><title>FLRW</title>
<g id="a_node2"><a xlink:href="../api/astropy.cosmology.FLRW.html#astropy.cosmology.FLRW" xlink:title="A class describing an isotropic and homogeneous">
<polygon fill="none" stroke="black" stroke-width="0.5" points="188,-93 134,-93 134,-74 188,-74 188,-93"/>
<text text-anchor="middle" x="161" y="-81" font-family="Vera Sans, DejaVu Sans, Liberation Sans, Arial, Helvetica, sans" font-size="10.00">FLRW</text>
</a>
</g>
</g>
<!-- Cosmology&#45;&gt;FLRW -->
<g id="edge1" class="edge"><title>Cosmology&#45;&gt;FLRW</title>
<path fill="none" stroke="black" stroke-width="0.5" d="M71.0598,-83.5C88.8965,-83.5 110.899,-83.5 128.557,-83.5"/>
<polygon fill="black" stroke="black" stroke-width="0.5" points="128.889,-85.2501 133.889,-83.5 128.889,-81.7501 128.889,-85.2501"/>
</g>
<!-- LambdaCDM -->
<g id="node4" class="node"><title>LambdaCDM</title>
<g id="a_node4"><a xlink:href="../api/astropy.cosmology.LambdaCDM.html#astropy.cosmology.LambdaCDM" xlink:title="FLRW cosmology with a cosmological constant and curvature.">
<polygon fill="none" stroke="black" stroke-width="0.5" points="322,-167 247,-167 247,-148 322,-148 322,-167"/>
<text text-anchor="middle" x="284.5" y="-155" font-family="Vera Sans, DejaVu Sans, Liberation Sans, Arial, Helvetica, sans" font-size="10.00">LambdaCDM</text>
</a>
</g>
</g>
<!-- FLRW&#45;&gt;LambdaCDM -->
<g id="edge5" class="edge"><title>FLRW&#45;&gt;LambdaCDM</title>
<path fill="none" stroke="black" stroke-width="0.5" d="M188.205,-90.6992C195.89,-93.4389 204.082,-97.011 211,-101.5 230.247,-113.989 228.59,-124.807 247,-138.5 250.378,-141.013 254.136,-143.376 257.919,-145.525"/>
<polygon fill="black" stroke="black" stroke-width="0.5" points="257.123,-147.084 262.35,-147.945 258.801,-144.012 257.123,-147.084"/>
</g>
<!-- w0waCDM -->
<g id="node6" class="node"><title>w0waCDM</title>
<g id="a_node6"><a xlink:href="../api/astropy.cosmology.w0waCDM.html#astropy.cosmology.w0waCDM" xlink:title="FLRW cosmology with a CPL dark energy equation of state and curvature.">
<polygon fill="none" stroke="black" stroke-width="0.5" points="317,-130 252,-130 252,-111 317,-111 317,-130"/>
<text text-anchor="middle" x="284.5" y="-118" font-family="Vera Sans, DejaVu Sans, Liberation Sans, Arial, Helvetica, sans" font-size="10.00">w0waCDM</text>
</a>
</g>
</g>
<!-- FLRW&#45;&gt;w0waCDM -->
<g id="edge7" class="edge"><title>FLRW&#45;&gt;w0waCDM</title>
<path fill="none" stroke="black" stroke-width="0.5" d="M188.065,-91.4374C205.146,-96.6391 227.729,-103.516 246.639,-109.275"/>
<polygon fill="black" stroke="black" stroke-width="0.5" points="246.574,-111.084 251.867,-110.867 247.594,-107.736 246.574,-111.084"/>
</g>
<!-- wCDM -->
<g id="node8" class="node"><title>wCDM</title>
<g id="a_node8"><a xlink:href="../api/astropy.cosmology.wCDM.html#astropy.cosmology.wCDM" xlink:title="FLRW cosmology with a constant dark energy equation of state">
<polygon fill="none" stroke="black" stroke-width="0.5" points="311.5,-93 257.5,-93 257.5,-74 311.5,-74 311.5,-93"/>
<text text-anchor="middle" x="284.5" y="-81" font-family="Vera Sans, DejaVu Sans, Liberation Sans, Arial, Helvetica, sans" font-size="10.00">wCDM</text>
</a>
</g>
</g>
<!-- FLRW&#45;&gt;wCDM -->
<g id="edge9" class="edge"><title>FLRW&#45;&gt;wCDM</title>
<path fill="none" stroke="black" stroke-width="0.5" d="M188.065,-83.5C206.883,-83.5 232.379,-83.5 252.285,-83.5"/>
<polygon fill="black" stroke="black" stroke-width="0.5" points="252.478,-85.2501 257.478,-83.5 252.478,-81.7501 252.478,-85.2501"/>
</g>
<!-- w0wzCDM -->
<g id="node11" class="node"><title>w0wzCDM</title>
<g id="a_node11"><a xlink:href="../api/astropy.cosmology.w0wzCDM.html#astropy.cosmology.w0wzCDM" xlink:title="FLRW cosmology with a variable dark energy equation of state">
<polygon fill="none" stroke="black" stroke-width="0.5" points="316.5,-56 252.5,-56 252.5,-37 316.5,-37 316.5,-56"/>
<text text-anchor="middle" x="284.5" y="-44" font-family="Vera Sans, DejaVu Sans, Liberation Sans, Arial, Helvetica, sans" font-size="10.00">w0wzCDM</text>
</a>
</g>
</g>
<!-- FLRW&#45;&gt;w0wzCDM -->
<g id="edge8" class="edge"><title>FLRW&#45;&gt;w0wzCDM</title>
<path fill="none" stroke="black" stroke-width="0.5" d="M188.065,-75.5626C205.273,-70.3221 228.066,-63.3811 247.061,-57.5965"/>
<polygon fill="black" stroke="black" stroke-width="0.5" points="248.037,-59.1288 252.311,-55.998 247.018,-55.7806 248.037,-59.1288"/>
</g>
<!-- wpwaCDM -->
<g id="node12" class="node"><title>wpwaCDM</title>
<g id="a_node12"><a xlink:href="../api/astropy.cosmology.wpwaCDM.html#astropy.cosmology.wpwaCDM" xlink:title="FLRW cosmology with a CPL dark energy equation of state, a pivot">
<polygon fill="none" stroke="black" stroke-width="0.5" points="317,-19 252,-19 252,-0 317,-0 317,-19"/>
<text text-anchor="middle" x="284.5" y="-7" font-family="Vera Sans, DejaVu Sans, Liberation Sans, Arial, Helvetica, sans" font-size="10.00">wpwaCDM</text>
</a>
</g>
</g>
<!-- FLRW&#45;&gt;wpwaCDM -->
<g id="edge10" class="edge"><title>FLRW&#45;&gt;wpwaCDM</title>
<path fill="none" stroke="black" stroke-width="0.5" d="M175.508,-73.8436C192.004,-62.2302 220.934,-42.4364 247,-27.5 250.535,-25.4746 254.328,-23.4485 258.085,-21.5248"/>
<polygon fill="black" stroke="black" stroke-width="0.5" points="259.123,-22.9617 262.802,-19.1505 257.549,-19.8354 259.123,-22.9617"/>
</g>
<!-- FlatLambdaCDM -->
<g id="node3" class="node"><title>FlatLambdaCDM</title>
<g id="a_node3"><a xlink:href="../api/astropy.cosmology.FlatLambdaCDM.html#astropy.cosmology.FlatLambdaCDM" xlink:title="FLRW cosmology with a cosmological constant and no curvature.">
<polygon fill="none" stroke="black" stroke-width="0.5" points="450,-167 358,-167 358,-148 450,-148 450,-167"/>
<text text-anchor="middle" x="404" y="-155" font-family="Vera Sans, DejaVu Sans, Liberation Sans, Arial, Helvetica, sans" font-size="10.00">FlatLambdaCDM</text>
</a>
</g>
</g>
<!-- LambdaCDM&#45;&gt;FlatLambdaCDM -->
<g id="edge2" class="edge"><title>LambdaCDM&#45;&gt;FlatLambdaCDM</title>
<path fill="none" stroke="black" stroke-width="0.5" d="M322.034,-157.5C331.76,-157.5 342.439,-157.5 352.76,-157.5"/>
<polygon fill="black" stroke="black" stroke-width="0.5" points="352.792,-159.25 357.792,-157.5 352.792,-155.75 352.792,-159.25"/>
</g>
<!-- Flatw0waCDM -->
<g id="node5" class="node"><title>Flatw0waCDM</title>
<g id="a_node5"><a xlink:href="../api/astropy.cosmology.Flatw0waCDM.html#astropy.cosmology.Flatw0waCDM" xlink:title="FLRW cosmology with a CPL dark energy equation of state and no">
<polygon fill="none" stroke="black" stroke-width="0.5" points="445,-130 363,-130 363,-111 445,-111 445,-130"/>
<text text-anchor="middle" x="404" y="-118" font-family="Vera Sans, DejaVu Sans, Liberation Sans, Arial, Helvetica, sans" font-size="10.00">Flatw0waCDM</text>
</a>
</g>
</g>
<!-- w0waCDM&#45;&gt;Flatw0waCDM -->
<g id="edge3" class="edge"><title>w0waCDM&#45;&gt;Flatw0waCDM</title>
<path fill="none" stroke="black" stroke-width="0.5" d="M317.297,-120.5C329.657,-120.5 344.049,-120.5 357.471,-120.5"/>
<polygon fill="black" stroke="black" stroke-width="0.5" points="357.757,-122.25 362.757,-120.5 357.757,-118.75 357.757,-122.25"/>
</g>
<!-- FlatwCDM -->
<g id="node7" class="node"><title>FlatwCDM</title>
<g id="a_node7"><a xlink:href="../api/astropy.cosmology.FlatwCDM.html#astropy.cosmology.FlatwCDM" xlink:title="FLRW cosmology with a constant dark energy equation of state">
<polygon fill="none" stroke="black" stroke-width="0.5" points="435.5,-93 372.5,-93 372.5,-74 435.5,-74 435.5,-93"/>
<text text-anchor="middle" x="404" y="-81" font-family="Vera Sans, DejaVu Sans, Liberation Sans, Arial, Helvetica, sans" font-size="10.00">FlatwCDM</text>
</a>
</g>
</g>
<!-- wCDM&#45;&gt;FlatwCDM -->
<g id="edge4" class="edge"><title>wCDM&#45;&gt;FlatwCDM</title>
<path fill="none" stroke="black" stroke-width="0.5" d="M311.577,-83.5C327.875,-83.5 349.093,-83.5 366.984,-83.5"/>
<polygon fill="black" stroke="black" stroke-width="0.5" points="367.421,-85.2501 372.421,-83.5 367.421,-81.7501 367.421,-85.2501"/>
</g>
<!-- ScienceState -->
<g id="node9" class="node"><title>ScienceState</title>
<g id="a_node9"><a xlink:href="../api/astropy.utils.state.ScienceState.html#astropy.utils.state.ScienceState" xlink:title="Science state subclasses are used to manage global items that can">
<polygon fill="none" stroke="black" stroke-width="0.5" points="75,-130 0,-130 0,-111 75,-111 75,-130"/>
<text text-anchor="middle" x="37.5" y="-118" font-family="Vera Sans, DejaVu Sans, Liberation Sans, Arial, Helvetica, sans" font-size="10.00">ScienceState</text>
</a>
</g>
</g>
<!-- default_cosmology -->
<g id="node10" class="node"><title>default_cosmology</title>
<g id="a_node10"><a xlink:href="../api/astropy.cosmology.default_cosmology.html#astropy.cosmology.default_cosmology" xlink:title="The default cosmology to use. &#160;To change it::">
<polygon fill="none" stroke="black" stroke-width="0.5" points="211,-130 111,-130 111,-111 211,-111 211,-130"/>
<text text-anchor="middle" x="161" y="-118" font-family="Vera Sans, DejaVu Sans, Liberation Sans, Arial, Helvetica, sans" font-size="10.00">default_cosmology</text>
</a>
</g>
</g>
<!-- ScienceState&#45;&gt;default_cosmology -->
<g id="edge6" class="edge"><title>ScienceState&#45;&gt;default_cosmology</title>
<path fill="none" stroke="black" stroke-width="0.5" d="M75.2837,-120.5C84.8874,-120.5 95.4427,-120.5 105.746,-120.5"/>
<polygon fill="black" stroke="black" stroke-width="0.5" points="105.778,-122.25 110.778,-120.5 105.778,-118.75 105.778,-122.25"/>
</g>
</g>
</svg>
