<?xml version="1.0" encoding="UTF-8" standalone="no"?>
<!DOCTYPE svg PUBLIC "-//W3C//DTD SVG 1.1//EN"
 "http://www.w3.org/Graphics/SVG/1.1/DTD/svg11.dtd">
<!-- Generated by graphviz version 2.38.0 (20140413.2041)
 -->
<!-- Title: inheritancee60c3de4ec Pages: 1 -->
<svg width="170pt" height="64pt"
 viewBox="0.00 0.00 170.00 64.00" xmlns="http://www.w3.org/2000/svg" xmlns:xlink="http://www.w3.org/1999/xlink">
<g id="graph0" class="graph" transform="scale(1 1) rotate(0) translate(4 60)">
<title>inheritancee60c3de4ec</title>
<polygon fill="white" stroke="none" points="-4,4 -4,-60 166,-60 166,4 -4,4"/>
<!-- Optimization -->
<g id="node1" class="node"><title>Optimization</title>
<g id="a_node1"><a xlink:href="../api/astropy.modeling.optimizers.Optimization.html#astropy.modeling.optimizers.Optimization" xlink:title="Base class for optimizers.">
<polygon fill="none" stroke="black" stroke-width="0.5" points="72,-37 0,-37 0,-18 72,-18 72,-37"/>
<text text-anchor="middle" x="36" y="-25" font-family="Vera Sans, DejaVu Sans, Liberation Sans, Arial, Helvetica, sans" font-size="10.00">Optimization</text>
</a>
</g>
</g>
<!-- SLSQP -->
<g id="node2" class="node"><title>SLSQP</title>
<g id="a_node2"><a xlink:href="../api/astropy.modeling.optimizers.SLSQP.html#astropy.modeling.optimizers.SLSQP" xlink:title="Sequential Least Squares Programming optimization algorithm.">
<polygon fill="none" stroke="black" stroke-width="0.5" points="162,-56 108,-56 108,-37 162,-37 162,-56"/>
<text text-anchor="middle" x="135" y="-44" font-family="Vera Sans, DejaVu Sans, Liberation Sans, Arial, Helvetica, sans" font-size="10.00">SLSQP</text>
</a>
</g>
</g>
<!-- Optimization&#45;&gt;SLSQP -->
<g id="edge1" class="edge"><title>Optimization&#45;&gt;SLSQP</title>
<path fill="none" stroke="black" stroke-width="0.5" d="M72.0192,-34.3594C82.0933,-36.3327 93.0103,-38.4711 102.835,-40.3954"/>
<polygon fill="black" stroke="black" stroke-width="0.5" points="102.619,-42.1364 107.862,-41.3802 103.292,-38.7017 102.619,-42.1364"/>
</g>
<!-- Simplex -->
<g id="node3" class="node"><title>Simplex</title>
<g id="a_node3"><a xlink:href="../api/astropy.modeling.optimizers.Simplex.html#astropy.modeling.optimizers.Simplex" xlink:title="Neald&#45;Mead (downhill simplex) algorithm [1].">
<polygon fill="none" stroke="black" stroke-width="0.5" points="162,-19 108,-19 108,-0 162,-0 162,-19"/>
<text text-anchor="middle" x="135" y="-7" font-family="Vera Sans, DejaVu Sans, Liberation Sans, Arial, Helvetica, sans" font-size="10.00">Simplex</text>
</a>
</g>
</g>
<!-- Optimization&#45;&gt;Simplex -->
<g id="edge2" class="edge"><title>Optimization&#45;&gt;Simplex</title>
<path fill="none" stroke="black" stroke-width="0.5" d="M72.0192,-21.0016C82.0933,-19.1322 93.0103,-17.1063 102.835,-15.2833"/>
<polygon fill="black" stroke="black" stroke-width="0.5" points="103.265,-16.9833 107.862,-14.3503 102.627,-13.542 103.265,-16.9833"/>
</g>
</g>
</svg>
