<?xml version="1.0" encoding="UTF-8" standalone="no"?>
<!DOCTYPE svg PUBLIC "-//W3C//DTD SVG 1.1//EN"
 "http://www.w3.org/Graphics/SVG/1.1/DTD/svg11.dtd">
<!-- Generated by graphviz version 2.38.0 (20140413.2041)
 -->
<!-- Title: inheritancedbd2a011a3 Pages: 1 -->
<svg width="354pt" height="156pt"
 viewBox="0.00 0.00 354.00 156.00" xmlns="http://www.w3.org/2000/svg" xmlns:xlink="http://www.w3.org/1999/xlink">
<g id="graph0" class="graph" transform="scale(1 1) rotate(0) translate(4 152)">
<title>inheritancedbd2a011a3</title>
<polygon fill="white" stroke="none" points="-4,4 -4,-152 350,-152 350,4 -4,4"/>
<!-- Fittable1DModel -->
<g id="node1" class="node"><title>Fittable1DModel</title>
<g id="a_node1"><a xlink:href="../api/astropy.modeling.Fittable1DModel.html#astropy.modeling.Fittable1DModel" xlink:title="Base class for one&#45;dimensional fittable models.">
<polygon fill="none" stroke="black" stroke-width="0.5" points="346,-56 257,-56 257,-37 346,-37 346,-56"/>
<text text-anchor="middle" x="301.5" y="-44" font-family="Vera Sans, DejaVu Sans, Liberation Sans, Arial, Helvetica, sans" font-size="10.00">Fittable1DModel</text>
</a>
</g>
</g>
<!-- FittableModel -->
<g id="node2" class="node"><title>FittableModel</title>
<g id="a_node2"><a xlink:href="../api/astropy.modeling.FittableModel.html#astropy.modeling.FittableModel" xlink:title="Base class for models that can be fitted using the built&#45;in fitting">
<polygon fill="none" stroke="black" stroke-width="0.5" points="221,-37 144,-37 144,-18 221,-18 221,-37"/>
<text text-anchor="middle" x="182.5" y="-25" font-family="Vera Sans, DejaVu Sans, Liberation Sans, Arial, Helvetica, sans" font-size="10.00">FittableModel</text>
</a>
</g>
</g>
<!-- FittableModel&#45;&gt;Fittable1DModel -->
<g id="edge1" class="edge"><title>FittableModel&#45;&gt;Fittable1DModel</title>
<path fill="none" stroke="black" stroke-width="0.5" d="M221.164,-33.6163C230.923,-35.2012 241.572,-36.9306 251.809,-38.5929"/>
<polygon fill="black" stroke="black" stroke-width="0.5" points="251.58,-40.3285 256.796,-39.4027 252.141,-36.8738 251.58,-40.3285"/>
</g>
<!-- Fittable2DModel -->
<g id="node3" class="node"><title>Fittable2DModel</title>
<g id="a_node3"><a xlink:href="../api/astropy.modeling.Fittable2DModel.html#astropy.modeling.Fittable2DModel" xlink:title="Base class for two&#45;dimensional fittable models.">
<polygon fill="none" stroke="black" stroke-width="0.5" points="346,-19 257,-19 257,-0 346,-0 346,-19"/>
<text text-anchor="middle" x="301.5" y="-7" font-family="Vera Sans, DejaVu Sans, Liberation Sans, Arial, Helvetica, sans" font-size="10.00">Fittable2DModel</text>
</a>
</g>
</g>
<!-- FittableModel&#45;&gt;Fittable2DModel -->
<g id="edge2" class="edge"><title>FittableModel&#45;&gt;Fittable2DModel</title>
<path fill="none" stroke="black" stroke-width="0.5" d="M221.164,-21.7056C230.923,-20.2042 241.572,-18.5658 251.809,-16.9909"/>
<polygon fill="black" stroke="black" stroke-width="0.5" points="252.12,-18.7138 256.796,-16.2237 251.588,-15.2545 252.12,-18.7138"/>
</g>
<!-- Model -->
<g id="node4" class="node"><title>Model</title>
<g id="a_node4"><a xlink:href="../api/astropy.modeling.Model.html#astropy.modeling.Model" xlink:title="Base class for all models.">
<polygon fill="none" stroke="black" stroke-width="0.5" points="81,-37 27,-37 27,-18 81,-18 81,-37"/>
<text text-anchor="middle" x="54" y="-25" font-family="Vera Sans, DejaVu Sans, Liberation Sans, Arial, Helvetica, sans" font-size="10.00">Model</text>
</a>
</g>
</g>
<!-- Model&#45;&gt;FittableModel -->
<g id="edge3" class="edge"><title>Model&#45;&gt;FittableModel</title>
<path fill="none" stroke="black" stroke-width="0.5" d="M81.2109,-27.5C97.7482,-27.5 119.501,-27.5 138.52,-27.5"/>
<polygon fill="black" stroke="black" stroke-width="0.5" points="138.805,-29.2501 143.805,-27.5 138.805,-25.7501 138.805,-29.2501"/>
</g>
<!-- InputParameterError -->
<g id="node5" class="node"><title>InputParameterError</title>
<g id="a_node5"><a xlink:href="../api/astropy.modeling.InputParameterError.html#astropy.modeling.InputParameterError" xlink:title="Used for incorrect input parameter values and definitions.">
<polygon fill="none" stroke="black" stroke-width="0.5" points="108,-74 0,-74 0,-55 108,-55 108,-74"/>
<text text-anchor="middle" x="54" y="-62" font-family="Vera Sans, DejaVu Sans, Liberation Sans, Arial, Helvetica, sans" font-size="10.00">InputParameterError</text>
</a>
</g>
</g>
<!-- ModelDefinitionError -->
<g id="node6" class="node"><title>ModelDefinitionError</title>
<g id="a_node6"><a xlink:href="../api/astropy.modeling.ModelDefinitionError.html#astropy.modeling.ModelDefinitionError" xlink:title="Used for incorrect models definitions">
<polygon fill="none" stroke="black" stroke-width="0.5" points="108,-111 0,-111 0,-92 108,-92 108,-111"/>
<text text-anchor="middle" x="54" y="-99" font-family="Vera Sans, DejaVu Sans, Liberation Sans, Arial, Helvetica, sans" font-size="10.00">ModelDefinitionError</text>
</a>
</g>
</g>
<!-- OrderedDescriptor -->
<g id="node7" class="node"><title>OrderedDescriptor</title>
<g id="a_node7"><a xlink:href="../api/astropy.utils.misc.OrderedDescriptor.html#astropy.utils.misc.OrderedDescriptor" xlink:title="Base class for descriptors whose order in the class body should be">
<polygon fill="none" stroke="black" stroke-width="0.5" points="103.5,-148 4.5,-148 4.5,-129 103.5,-129 103.5,-148"/>
<text text-anchor="middle" x="54" y="-136" font-family="Vera Sans, DejaVu Sans, Liberation Sans, Arial, Helvetica, sans" font-size="10.00">OrderedDescriptor</text>
</a>
</g>
</g>
<!-- Parameter -->
<g id="node8" class="node"><title>Parameter</title>
<g id="a_node8"><a xlink:href="../api/astropy.modeling.Parameter.html#astropy.modeling.Parameter" xlink:title="Wraps individual parameters.">
<polygon fill="none" stroke="black" stroke-width="0.5" points="214,-148 151,-148 151,-129 214,-129 214,-148"/>
<text text-anchor="middle" x="182.5" y="-136" font-family="Vera Sans, DejaVu Sans, Liberation Sans, Arial, Helvetica, sans" font-size="10.00">Parameter</text>
</a>
</g>
</g>
<!-- OrderedDescriptor&#45;&gt;Parameter -->
<g id="edge4" class="edge"><title>OrderedDescriptor&#45;&gt;Parameter</title>
<path fill="none" stroke="black" stroke-width="0.5" d="M103.546,-138.5C117.571,-138.5 132.616,-138.5 145.712,-138.5"/>
<polygon fill="black" stroke="black" stroke-width="0.5" points="145.817,-140.25 150.817,-138.5 145.817,-136.75 145.817,-140.25"/>
</g>
</g>
</svg>
