<?xml version="1.0" encoding="UTF-8" standalone="no"?>
<!DOCTYPE svg PUBLIC "-//W3C//DTD SVG 1.1//EN"
 "http://www.w3.org/Graphics/SVG/1.1/DTD/svg11.dtd">
<!-- Generated by graphviz version 2.38.0 (20140413.2041)
 -->
<!-- Title: inheritancefc171bd1ce Pages: 1 -->
<svg width="526pt" height="175pt"
 viewBox="0.00 0.00 526.00 175.00" xmlns="http://www.w3.org/2000/svg" xmlns:xlink="http://www.w3.org/1999/xlink">
<g id="graph0" class="graph" transform="scale(1 1) rotate(0) translate(4 171)">
<title>inheritancefc171bd1ce</title>
<polygon fill="white" stroke="none" points="-4,4 -4,-171 522,-171 522,4 -4,4"/>
<!-- Decibel -->
<g id="node1" class="node"><title>Decibel</title>
<g id="a_node1"><a xlink:href="../../api/astropy.units.function.Decibel.html#astropy.units.function.Decibel" xlink:title="Decibel" target="_top">
<polygon fill="none" stroke="black" stroke-width="0.5" points="513.5,-93 459.5,-93 459.5,-74 513.5,-74 513.5,-93"/>
<text text-anchor="middle" x="486.5" y="-81" font-family="Vera Sans, DejaVu Sans, Liberation Sans, Arial, Helvetica, sans" font-size="10.00">Decibel</text>
</a>
</g>
</g>
<!-- LogQuantity -->
<g id="node2" class="node"><title>LogQuantity</title>
<g id="a_node2"><a xlink:href="../../api/astropy.units.function.LogQuantity.html#astropy.units.function.LogQuantity" xlink:title="A representation of a (scaled) logarithm of a number with a unit" target="_top">
<polygon fill="none" stroke="black" stroke-width="0.5" points="419,-56 349,-56 349,-37 419,-37 419,-56"/>
<text text-anchor="middle" x="384" y="-44" font-family="Vera Sans, DejaVu Sans, Liberation Sans, Arial, Helvetica, sans" font-size="10.00">LogQuantity</text>
</a>
</g>
</g>
<!-- LogQuantity&#45;&gt;Decibel -->
<g id="edge1" class="edge"><title>LogQuantity&#45;&gt;Decibel</title>
<path fill="none" stroke="black" stroke-width="0.5" d="M410.881,-56.0284C424.142,-60.9103 440.389,-66.892 454.334,-72.0258"/>
<polygon fill="black" stroke="black" stroke-width="0.5" points="454.06,-73.79 459.357,-73.8753 455.27,-70.5055 454.06,-73.79"/>
</g>
<!-- Dex -->
<g id="node5" class="node"><title>Dex</title>
<g id="a_node5"><a xlink:href="../../api/astropy.units.function.Dex.html#astropy.units.function.Dex" xlink:title="Dex" target="_top">
<polygon fill="none" stroke="black" stroke-width="0.5" points="513.5,-56 459.5,-56 459.5,-37 513.5,-37 513.5,-56"/>
<text text-anchor="middle" x="486.5" y="-44" font-family="Vera Sans, DejaVu Sans, Liberation Sans, Arial, Helvetica, sans" font-size="10.00">Dex</text>
</a>
</g>
</g>
<!-- LogQuantity&#45;&gt;Dex -->
<g id="edge3" class="edge"><title>LogQuantity&#45;&gt;Dex</title>
<path fill="none" stroke="black" stroke-width="0.5" d="M419.025,-46.5C430.481,-46.5 443.198,-46.5 454.417,-46.5"/>
<polygon fill="black" stroke="black" stroke-width="0.5" points="454.455,-48.2501 459.455,-46.5 454.455,-44.7501 454.455,-48.2501"/>
</g>
<!-- Magnitude -->
<g id="node11" class="node"><title>Magnitude</title>
<g id="a_node11"><a xlink:href="../../api/astropy.units.function.Magnitude.html#astropy.units.function.Magnitude" xlink:title="Magnitude" target="_top">
<polygon fill="none" stroke="black" stroke-width="0.5" points="518,-19 455,-19 455,-0 518,-0 518,-19"/>
<text text-anchor="middle" x="486.5" y="-7" font-family="Vera Sans, DejaVu Sans, Liberation Sans, Arial, Helvetica, sans" font-size="10.00">Magnitude</text>
</a>
</g>
</g>
<!-- LogQuantity&#45;&gt;Magnitude -->
<g id="edge9" class="edge"><title>LogQuantity&#45;&gt;Magnitude</title>
<path fill="none" stroke="black" stroke-width="0.5" d="M410.881,-36.9716C424.142,-32.0897 440.389,-26.108 454.334,-20.9742"/>
<polygon fill="black" stroke="black" stroke-width="0.5" points="455.27,-22.4945 459.357,-19.1247 454.06,-19.21 455.27,-22.4945"/>
</g>
<!-- DecibelUnit -->
<g id="node3" class="node"><title>DecibelUnit</title>
<g id="a_node3"><a xlink:href="../../api/astropy.units.function.DecibelUnit.html#astropy.units.function.DecibelUnit" xlink:title="Logarithmic physical units expressed in dB" target="_top">
<polygon fill="none" stroke="black" stroke-width="0.5" points="301,-167 233,-167 233,-148 301,-148 301,-167"/>
<text text-anchor="middle" x="267" y="-155" font-family="Vera Sans, DejaVu Sans, Liberation Sans, Arial, Helvetica, sans" font-size="10.00">DecibelUnit</text>
</a>
</g>
</g>
<!-- LogUnit -->
<g id="node4" class="node"><title>LogUnit</title>
<g id="a_node4"><a xlink:href="../../api/astropy.units.function.LogUnit.html#astropy.units.function.LogUnit" xlink:title="Logarithmic unit containing a physical one" target="_top">
<polygon fill="none" stroke="black" stroke-width="0.5" points="185,-130 131,-130 131,-111 185,-111 185,-130"/>
<text text-anchor="middle" x="158" y="-118" font-family="Vera Sans, DejaVu Sans, Liberation Sans, Arial, Helvetica, sans" font-size="10.00">LogUnit</text>
</a>
</g>
</g>
<!-- LogUnit&#45;&gt;DecibelUnit -->
<g id="edge2" class="edge"><title>LogUnit&#45;&gt;DecibelUnit</title>
<path fill="none" stroke="black" stroke-width="0.5" d="M185.175,-129.551C199.627,-134.549 217.716,-140.804 233.115,-146.129"/>
<polygon fill="black" stroke="black" stroke-width="0.5" points="232.928,-147.915 238.225,-147.896 234.072,-144.608 232.928,-147.915"/>
</g>
<!-- DexUnit -->
<g id="node6" class="node"><title>DexUnit</title>
<g id="a_node6"><a xlink:href="../../api/astropy.units.function.DexUnit.html#astropy.units.function.DexUnit" xlink:title="Logarithmic physical units expressed in magnitudes" target="_top">
<polygon fill="none" stroke="black" stroke-width="0.5" points="294,-130 240,-130 240,-111 294,-111 294,-130"/>
<text text-anchor="middle" x="267" y="-118" font-family="Vera Sans, DejaVu Sans, Liberation Sans, Arial, Helvetica, sans" font-size="10.00">DexUnit</text>
</a>
</g>
</g>
<!-- LogUnit&#45;&gt;DexUnit -->
<g id="edge4" class="edge"><title>LogUnit&#45;&gt;DexUnit</title>
<path fill="none" stroke="black" stroke-width="0.5" d="M185.175,-120.5C200.072,-120.5 218.833,-120.5 234.529,-120.5"/>
<polygon fill="black" stroke="black" stroke-width="0.5" points="234.724,-122.25 239.724,-120.5 234.724,-118.75 234.724,-122.25"/>
</g>
<!-- MagUnit -->
<g id="node10" class="node"><title>MagUnit</title>
<g id="a_node10"><a xlink:href="../../api/astropy.units.function.MagUnit.html#astropy.units.function.MagUnit" xlink:title="Logarithmic physical units expressed in magnitudes" target="_top">
<polygon fill="none" stroke="black" stroke-width="0.5" points="294,-93 240,-93 240,-74 294,-74 294,-93"/>
<text text-anchor="middle" x="267" y="-81" font-family="Vera Sans, DejaVu Sans, Liberation Sans, Arial, Helvetica, sans" font-size="10.00">MagUnit</text>
</a>
</g>
</g>
<!-- LogUnit&#45;&gt;MagUnit -->
<g id="edge8" class="edge"><title>LogUnit&#45;&gt;MagUnit</title>
<path fill="none" stroke="black" stroke-width="0.5" d="M185.175,-111.449C200.202,-106.253 219.16,-99.6972 234.938,-94.2412"/>
<polygon fill="black" stroke="black" stroke-width="0.5" points="235.571,-95.874 239.724,-92.586 234.427,-92.5662 235.571,-95.874"/>
</g>
<!-- FunctionQuantity -->
<g id="node7" class="node"><title>FunctionQuantity</title>
<g id="a_node7"><a xlink:href="../../api/astropy.units.function.FunctionQuantity.html#astropy.units.function.FunctionQuantity" xlink:title="A representation of a (scaled) function of a number with a unit." target="_top">
<polygon fill="none" stroke="black" stroke-width="0.5" points="313,-56 221,-56 221,-37 313,-37 313,-56"/>
<text text-anchor="middle" x="267" y="-44" font-family="Vera Sans, DejaVu Sans, Liberation Sans, Arial, Helvetica, sans" font-size="10.00">FunctionQuantity</text>
</a>
</g>
</g>
<!-- FunctionQuantity&#45;&gt;LogQuantity -->
<g id="edge6" class="edge"><title>FunctionQuantity&#45;&gt;LogQuantity</title>
<path fill="none" stroke="black" stroke-width="0.5" d="M313.121,-46.5C323.195,-46.5 333.801,-46.5 343.622,-46.5"/>
<polygon fill="black" stroke="black" stroke-width="0.5" points="343.679,-48.2501 348.679,-46.5 343.679,-44.7501 343.679,-48.2501"/>
</g>
<!-- Quantity -->
<g id="node8" class="node"><title>Quantity</title>
<g id="a_node8"><a xlink:href="../../api/astropy.units.quantity.Quantity.html#astropy.units.quantity.Quantity" xlink:title="A `~astropy.units.Quantity` represents a number with some associated unit." target="_top">
<polygon fill="none" stroke="black" stroke-width="0.5" points="185,-56 131,-56 131,-37 185,-37 185,-56"/>
<text text-anchor="middle" x="158" y="-44" font-family="Vera Sans, DejaVu Sans, Liberation Sans, Arial, Helvetica, sans" font-size="10.00">Quantity</text>
</a>
</g>
</g>
<!-- Quantity&#45;&gt;FunctionQuantity -->
<g id="edge5" class="edge"><title>Quantity&#45;&gt;FunctionQuantity</title>
<path fill="none" stroke="black" stroke-width="0.5" d="M185.175,-46.5C194.427,-46.5 205.168,-46.5 215.74,-46.5"/>
<polygon fill="black" stroke="black" stroke-width="0.5" points="215.91,-48.2501 220.909,-46.5 215.909,-44.7501 215.91,-48.2501"/>
</g>
<!-- FunctionUnitBase -->
<g id="node9" class="node"><title>FunctionUnitBase</title>
<g id="a_node9"><a xlink:href="../../api/astropy.units.function.FunctionUnitBase.html#astropy.units.function.FunctionUnitBase" xlink:title="Abstract base class for function units." target="_top">
<polygon fill="none" stroke="black" stroke-width="0.5" points="95,-130 0,-130 0,-111 95,-111 95,-130"/>
<text text-anchor="middle" x="47.5" y="-118" font-family="Vera Sans, DejaVu Sans, Liberation Sans, Arial, Helvetica, sans" font-size="10.00">FunctionUnitBase</text>
</a>
</g>
</g>
<!-- FunctionUnitBase&#45;&gt;LogUnit -->
<g id="edge7" class="edge"><title>FunctionUnitBase&#45;&gt;LogUnit</title>
<path fill="none" stroke="black" stroke-width="0.5" d="M95.1434,-120.5C105.417,-120.5 116.062,-120.5 125.566,-120.5"/>
<polygon fill="black" stroke="black" stroke-width="0.5" points="125.718,-122.25 130.718,-120.5 125.718,-118.75 125.718,-122.25"/>
</g>
<!-- ndarray -->
<g id="node12" class="node"><title>ndarray</title>
<g id="a_node12"><a xlink:title="ndarray(shape, dtype=float, buffer=None, offset=0,">
<polygon fill="none" stroke="black" stroke-width="0.5" points="74.5,-56 20.5,-56 20.5,-37 74.5,-37 74.5,-56"/>
<text text-anchor="middle" x="47.5" y="-44" font-family="Vera Sans, DejaVu Sans, Liberation Sans, Arial, Helvetica, sans" font-size="10.00">ndarray</text>
</a>
</g>
</g>
<!-- ndarray&#45;&gt;Quantity -->
<g id="edge10" class="edge"><title>ndarray&#45;&gt;Quantity</title>
<path fill="none" stroke="black" stroke-width="0.5" d="M74.7648,-46.5C90.0912,-46.5 109.521,-46.5 125.646,-46.5"/>
<polygon fill="black" stroke="black" stroke-width="0.5" points="125.977,-48.2501 130.977,-46.5 125.977,-44.7501 125.977,-48.2501"/>
</g>
</g>
</svg>
