<?xml version="1.0" encoding="UTF-8" standalone="no"?>
<!DOCTYPE svg PUBLIC "-//W3C//DTD SVG 1.1//EN"
 "http://www.w3.org/Graphics/SVG/1.1/DTD/svg11.dtd">
<!-- Generated by graphviz version 2.38.0 (20140413.2041)
 -->
<!-- Title: inheritance0a7985b00b Pages: 1 -->
<svg width="551pt" height="434pt"
 viewBox="0.00 0.00 551.00 434.00" xmlns="http://www.w3.org/2000/svg" xmlns:xlink="http://www.w3.org/1999/xlink">
<g id="graph0" class="graph" transform="scale(1 1) rotate(0) translate(4 430)">
<title>inheritance0a7985b00b</title>
<polygon fill="white" stroke="none" points="-4,4 -4,-430 547,-430 547,4 -4,4"/>
<!-- AsinhStretch -->
<g id="node1" class="node"><title>AsinhStretch</title>
<g id="a_node1"><a xlink:href="../api/astropy.visualization.AsinhStretch.html#astropy.visualization.AsinhStretch" xlink:title="An asinh stretch.">
<polygon fill="none" stroke="black" stroke-width="0.5" points="376.5,-426 303.5,-426 303.5,-407 376.5,-407 376.5,-426"/>
<text text-anchor="middle" x="340" y="-414" font-family="Vera Sans, DejaVu Sans, Liberation Sans, Arial, Helvetica, sans" font-size="10.00">AsinhStretch</text>
</a>
</g>
</g>
<!-- BaseStretch -->
<g id="node2" class="node"><title>BaseStretch</title>
<g id="a_node2"><a xlink:href="../api/astropy.visualization.BaseStretch.html#astropy.visualization.BaseStretch" xlink:title="Base class for the stretch classes, which, when called with an array of">
<polygon fill="none" stroke="black" stroke-width="0.5" points="211.5,-259 140.5,-259 140.5,-240 211.5,-240 211.5,-259"/>
<text text-anchor="middle" x="176" y="-247" font-family="Vera Sans, DejaVu Sans, Liberation Sans, Arial, Helvetica, sans" font-size="10.00">BaseStretch</text>
</a>
</g>
</g>
<!-- BaseStretch&#45;&gt;AsinhStretch -->
<g id="edge1" class="edge"><title>BaseStretch&#45;&gt;AsinhStretch</title>
<path fill="none" stroke="black" stroke-width="0.5" d="M179.973,-259.312C188.625,-286.131 216.439,-361.153 267,-398.5 276.077,-405.205 287.371,-409.429 298.303,-412.085"/>
<polygon fill="black" stroke="black" stroke-width="0.5" points="298.029,-413.817 303.29,-413.198 298.792,-410.401 298.029,-413.817"/>
</g>
<!-- ContrastBiasStretch -->
<g id="node7" class="node"><title>ContrastBiasStretch</title>
<g id="a_node7"><a xlink:href="../api/astropy.visualization.ContrastBiasStretch.html#astropy.visualization.ContrastBiasStretch" xlink:title="A stretch that takes into account contrast and bias.">
<polygon fill="none" stroke="black" stroke-width="0.5" points="392.5,-389 287.5,-389 287.5,-370 392.5,-370 392.5,-389"/>
<text text-anchor="middle" x="340" y="-377" font-family="Vera Sans, DejaVu Sans, Liberation Sans, Arial, Helvetica, sans" font-size="10.00">ContrastBiasStretch</text>
</a>
</g>
</g>
<!-- BaseStretch&#45;&gt;ContrastBiasStretch -->
<g id="edge6" class="edge"><title>BaseStretch&#45;&gt;ContrastBiasStretch</title>
<path fill="none" stroke="black" stroke-width="0.5" d="M181.83,-259.044C193.373,-280.84 224.773,-334.468 267,-361.5 271.736,-364.532 276.949,-367.053 282.34,-369.149"/>
<polygon fill="black" stroke="black" stroke-width="0.5" points="282.035,-370.9 287.332,-370.958 283.227,-367.609 282.035,-370.9"/>
</g>
<!-- HistEqStretch -->
<g id="node8" class="node"><title>HistEqStretch</title>
<g id="a_node8"><a xlink:href="../api/astropy.visualization.HistEqStretch.html#astropy.visualization.HistEqStretch" xlink:title="A histogram equalization stretch.">
<polygon fill="none" stroke="black" stroke-width="0.5" points="379,-352 301,-352 301,-333 379,-333 379,-352"/>
<text text-anchor="middle" x="340" y="-340" font-family="Vera Sans, DejaVu Sans, Liberation Sans, Arial, Helvetica, sans" font-size="10.00">HistEqStretch</text>
</a>
</g>
</g>
<!-- BaseStretch&#45;&gt;HistEqStretch -->
<g id="edge7" class="edge"><title>BaseStretch&#45;&gt;HistEqStretch</title>
<path fill="none" stroke="black" stroke-width="0.5" d="M185.699,-259.155C200.696,-275.198 233.087,-307.28 267,-324.5 275.903,-329.021 286.013,-332.454 295.784,-335.044"/>
<polygon fill="black" stroke="black" stroke-width="0.5" points="295.578,-336.796 300.854,-336.322 296.434,-333.403 295.578,-336.796"/>
</g>
<!-- LinearStretch -->
<g id="node9" class="node"><title>LinearStretch</title>
<g id="a_node9"><a xlink:href="../api/astropy.visualization.LinearStretch.html#astropy.visualization.LinearStretch" xlink:title="A linear stretch.">
<polygon fill="none" stroke="black" stroke-width="0.5" points="378,-315 302,-315 302,-296 378,-296 378,-315"/>
<text text-anchor="middle" x="340" y="-303" font-family="Vera Sans, DejaVu Sans, Liberation Sans, Arial, Helvetica, sans" font-size="10.00">LinearStretch</text>
</a>
</g>
</g>
<!-- BaseStretch&#45;&gt;LinearStretch -->
<g id="edge8" class="edge"><title>BaseStretch&#45;&gt;LinearStretch</title>
<path fill="none" stroke="black" stroke-width="0.5" d="M197.03,-259.013C215.046,-267.314 242.386,-279.282 267,-287.5 276.471,-290.662 286.805,-293.559 296.612,-296.062"/>
<polygon fill="black" stroke="black" stroke-width="0.5" points="296.41,-297.815 301.686,-297.334 297.262,-294.42 296.41,-297.815"/>
</g>
<!-- LogStretch -->
<g id="node10" class="node"><title>LogStretch</title>
<g id="a_node10"><a xlink:href="../api/astropy.visualization.LogStretch.html#astropy.visualization.LogStretch" xlink:title="A log stretch.">
<polygon fill="none" stroke="black" stroke-width="0.5" points="372.5,-278 307.5,-278 307.5,-259 372.5,-259 372.5,-278"/>
<text text-anchor="middle" x="340" y="-266" font-family="Vera Sans, DejaVu Sans, Liberation Sans, Arial, Helvetica, sans" font-size="10.00">LogStretch</text>
</a>
</g>
</g>
<!-- BaseStretch&#45;&gt;LogStretch -->
<g id="edge9" class="edge"><title>BaseStretch&#45;&gt;LogStretch</title>
<path fill="none" stroke="black" stroke-width="0.5" d="M211.753,-253.576C238.337,-256.694 274.915,-260.984 302.033,-264.164"/>
<polygon fill="black" stroke="black" stroke-width="0.5" points="302.155,-265.941 307.325,-264.785 302.563,-262.464 302.155,-265.941"/>
</g>
<!-- PowerDistStretch -->
<g id="node14" class="node"><title>PowerDistStretch</title>
<g id="a_node14"><a xlink:href="../api/astropy.visualization.PowerDistStretch.html#astropy.visualization.PowerDistStretch" xlink:title="An alternative power stretch.">
<polygon fill="none" stroke="black" stroke-width="0.5" points="387,-241 293,-241 293,-222 387,-222 387,-241"/>
<text text-anchor="middle" x="340" y="-229" font-family="Vera Sans, DejaVu Sans, Liberation Sans, Arial, Helvetica, sans" font-size="10.00">PowerDistStretch</text>
</a>
</g>
</g>
<!-- BaseStretch&#45;&gt;PowerDistStretch -->
<g id="edge13" class="edge"><title>BaseStretch&#45;&gt;PowerDistStretch</title>
<path fill="none" stroke="black" stroke-width="0.5" d="M211.753,-245.639C233.886,-243.179 262.948,-239.95 287.709,-237.199"/>
<polygon fill="black" stroke="black" stroke-width="0.5" points="288.147,-238.911 292.924,-236.62 287.761,-235.433 288.147,-238.911"/>
</g>
<!-- PowerStretch -->
<g id="node15" class="node"><title>PowerStretch</title>
<g id="a_node15"><a xlink:href="../api/astropy.visualization.PowerStretch.html#astropy.visualization.PowerStretch" xlink:title="A power stretch.">
<polygon fill="none" stroke="black" stroke-width="0.5" points="378.5,-204 301.5,-204 301.5,-185 378.5,-185 378.5,-204"/>
<text text-anchor="middle" x="340" y="-192" font-family="Vera Sans, DejaVu Sans, Liberation Sans, Arial, Helvetica, sans" font-size="10.00">PowerStretch</text>
</a>
</g>
</g>
<!-- BaseStretch&#45;&gt;PowerStretch -->
<g id="edge14" class="edge"><title>BaseStretch&#45;&gt;PowerStretch</title>
<path fill="none" stroke="black" stroke-width="0.5" d="M198.913,-239.858C216.967,-232.128 243.352,-221.317 267,-213.5 276.407,-210.39 286.635,-207.44 296.349,-204.831"/>
<polygon fill="black" stroke="black" stroke-width="0.5" points="296.99,-206.472 301.375,-203.5 296.093,-203.089 296.99,-206.472"/>
</g>
<!-- SinhStretch -->
<g id="node16" class="node"><title>SinhStretch</title>
<g id="a_node16"><a xlink:href="../api/astropy.visualization.SinhStretch.html#astropy.visualization.SinhStretch" xlink:title="A sinh stretch.">
<polygon fill="none" stroke="black" stroke-width="0.5" points="374,-167 306,-167 306,-148 374,-148 374,-167"/>
<text text-anchor="middle" x="340" y="-155" font-family="Vera Sans, DejaVu Sans, Liberation Sans, Arial, Helvetica, sans" font-size="10.00">SinhStretch</text>
</a>
</g>
</g>
<!-- BaseStretch&#45;&gt;SinhStretch -->
<g id="edge15" class="edge"><title>BaseStretch&#45;&gt;SinhStretch</title>
<path fill="none" stroke="black" stroke-width="0.5" d="M186.023,-239.91C201.242,-224.3 233.633,-193.439 267,-176.5 277.396,-171.222 289.404,-167.305 300.597,-164.445"/>
<polygon fill="black" stroke="black" stroke-width="0.5" points="301.232,-166.091 305.673,-163.204 300.401,-162.691 301.232,-166.091"/>
</g>
<!-- SqrtStretch -->
<g id="node17" class="node"><title>SqrtStretch</title>
<g id="a_node17"><a xlink:href="../api/astropy.visualization.SqrtStretch.html#astropy.visualization.SqrtStretch" xlink:title="A square root stretch.">
<polygon fill="none" stroke="black" stroke-width="0.5" points="373.5,-130 306.5,-130 306.5,-111 373.5,-111 373.5,-130"/>
<text text-anchor="middle" x="340" y="-118" font-family="Vera Sans, DejaVu Sans, Liberation Sans, Arial, Helvetica, sans" font-size="10.00">SqrtStretch</text>
</a>
</g>
</g>
<!-- BaseStretch&#45;&gt;SqrtStretch -->
<g id="edge16" class="edge"><title>BaseStretch&#45;&gt;SqrtStretch</title>
<path fill="none" stroke="black" stroke-width="0.5" d="M182.077,-239.844C193.909,-218.317 225.494,-166.194 267,-139.5 277.275,-132.892 289.776,-128.573 301.458,-125.754"/>
<polygon fill="black" stroke="black" stroke-width="0.5" points="301.915,-127.445 306.406,-124.636 301.143,-124.031 301.915,-127.445"/>
</g>
<!-- AsymmetricPercentileInterval -->
<g id="node3" class="node"><title>AsymmetricPercentileInterval</title>
<g id="a_node3"><a xlink:href="../api/astropy.visualization.AsymmetricPercentileInterval.html#astropy.visualization.AsymmetricPercentileInterval" xlink:title="Interval based on a keeping a specified fraction of pixels (can be asymmetric).">
<polygon fill="none" stroke="black" stroke-width="0.5" points="413,-93 267,-93 267,-74 413,-74 413,-93"/>
<text text-anchor="middle" x="340" y="-81" font-family="Vera Sans, DejaVu Sans, Liberation Sans, Arial, Helvetica, sans" font-size="10.00">AsymmetricPercentileInterval</text>
</a>
</g>
</g>
<!-- PercentileInterval -->
<g id="node13" class="node"><title>PercentileInterval</title>
<g id="a_node13"><a xlink:href="../api/astropy.visualization.PercentileInterval.html#astropy.visualization.PercentileInterval" xlink:title="Interval based on a keeping a specified fraction of pixels.">
<polygon fill="none" stroke="black" stroke-width="0.5" points="543,-93 449,-93 449,-74 543,-74 543,-93"/>
<text text-anchor="middle" x="496" y="-81" font-family="Vera Sans, DejaVu Sans, Liberation Sans, Arial, Helvetica, sans" font-size="10.00">PercentileInterval</text>
</a>
</g>
</g>
<!-- AsymmetricPercentileInterval&#45;&gt;PercentileInterval -->
<g id="edge12" class="edge"><title>AsymmetricPercentileInterval&#45;&gt;PercentileInterval</title>
<path fill="none" stroke="black" stroke-width="0.5" d="M413.04,-83.5C423.439,-83.5 433.96,-83.5 443.838,-83.5"/>
<polygon fill="black" stroke="black" stroke-width="0.5" points="443.942,-85.2501 448.942,-83.5 443.942,-81.7501 443.942,-85.2501"/>
</g>
<!-- BaseInterval -->
<g id="node4" class="node"><title>BaseInterval</title>
<g id="a_node4"><a xlink:href="../api/astropy.visualization.BaseInterval.html#astropy.visualization.BaseInterval" xlink:title="Base class for the interval classes, which, when called with an array of">
<polygon fill="none" stroke="black" stroke-width="0.5" points="212,-75 140,-75 140,-56 212,-56 212,-75"/>
<text text-anchor="middle" x="176" y="-63" font-family="Vera Sans, DejaVu Sans, Liberation Sans, Arial, Helvetica, sans" font-size="10.00">BaseInterval</text>
</a>
</g>
</g>
<!-- BaseInterval&#45;&gt;AsymmetricPercentileInterval -->
<g id="edge2" class="edge"><title>BaseInterval&#45;&gt;AsymmetricPercentileInterval</title>
<path fill="none" stroke="black" stroke-width="0.5" d="M212.152,-69.4057C226.741,-71.0268 244.29,-72.9767 261.618,-74.9019"/>
<polygon fill="black" stroke="black" stroke-width="0.5" points="261.822,-76.6853 266.984,-75.4983 262.208,-73.2067 261.822,-76.6853"/>
</g>
<!-- ManualInterval -->
<g id="node11" class="node"><title>ManualInterval</title>
<g id="a_node11"><a xlink:href="../api/astropy.visualization.ManualInterval.html#astropy.visualization.ManualInterval" xlink:title="Interval based on user&#45;specified values.">
<polygon fill="none" stroke="black" stroke-width="0.5" points="381,-56 299,-56 299,-37 381,-37 381,-56"/>
<text text-anchor="middle" x="340" y="-44" font-family="Vera Sans, DejaVu Sans, Liberation Sans, Arial, Helvetica, sans" font-size="10.00">ManualInterval</text>
</a>
</g>
</g>
<!-- BaseInterval&#45;&gt;ManualInterval -->
<g id="edge10" class="edge"><title>BaseInterval&#45;&gt;ManualInterval</title>
<path fill="none" stroke="black" stroke-width="0.5" d="M212.152,-61.3773C236.056,-58.5737 267.903,-54.8385 293.707,-51.8122"/>
<polygon fill="black" stroke="black" stroke-width="0.5" points="294.021,-53.5374 298.783,-51.2168 293.613,-50.0613 294.021,-53.5374"/>
</g>
<!-- MinMaxInterval -->
<g id="node12" class="node"><title>MinMaxInterval</title>
<g id="a_node12"><a xlink:href="../api/astropy.visualization.MinMaxInterval.html#astropy.visualization.MinMaxInterval" xlink:title="Interval based on the minimum and maximum values in the data.">
<polygon fill="none" stroke="black" stroke-width="0.5" points="382,-19 298,-19 298,-0 382,-0 382,-19"/>
<text text-anchor="middle" x="340" y="-7" font-family="Vera Sans, DejaVu Sans, Liberation Sans, Arial, Helvetica, sans" font-size="10.00">MinMaxInterval</text>
</a>
</g>
</g>
<!-- BaseInterval&#45;&gt;MinMaxInterval -->
<g id="edge11" class="edge"><title>BaseInterval&#45;&gt;MinMaxInterval</title>
<path fill="none" stroke="black" stroke-width="0.5" d="M208.45,-55.9824C215.93,-53.4547 223.821,-50.5666 231,-47.5 247.637,-40.3934 250.145,-35.0728 267,-28.5 275.079,-25.3495 283.868,-22.5455 292.439,-20.1228"/>
<polygon fill="black" stroke="black" stroke-width="0.5" points="293.384,-21.678 297.74,-18.6639 292.455,-18.3035 293.384,-21.678"/>
</g>
<!-- BaseTransform -->
<g id="node5" class="node"><title>BaseTransform</title>
<g id="a_node5"><a xlink:href="../api/astropy.visualization.BaseTransform.html#astropy.visualization.BaseTransform" xlink:title="A transformation object.">
<polygon fill="none" stroke="black" stroke-width="0.5" points="85,-75 0,-75 0,-56 85,-56 85,-75"/>
<text text-anchor="middle" x="42.5" y="-63" font-family="Vera Sans, DejaVu Sans, Liberation Sans, Arial, Helvetica, sans" font-size="10.00">BaseTransform</text>
</a>
</g>
</g>
<!-- BaseTransform&#45;&gt;BaseStretch -->
<g id="edge4" class="edge"><title>BaseTransform&#45;&gt;BaseStretch</title>
<path fill="none" stroke="black" stroke-width="0.5" d="M50.3849,-75.1336C72.1322,-105.563 139.425,-199.722 164.999,-235.506"/>
<polygon fill="black" stroke="black" stroke-width="0.5" points="163.852,-236.911 168.183,-239.962 166.7,-234.876 163.852,-236.911"/>
</g>
<!-- BaseTransform&#45;&gt;BaseInterval -->
<g id="edge3" class="edge"><title>BaseTransform&#45;&gt;BaseInterval</title>
<path fill="none" stroke="black" stroke-width="0.5" d="M85.1074,-65.5C100.926,-65.5 118.911,-65.5 134.615,-65.5"/>
<polygon fill="black" stroke="black" stroke-width="0.5" points="134.847,-67.2501 139.847,-65.5 134.847,-63.7501 134.847,-67.2501"/>
</g>
<!-- CompositeTransform -->
<g id="node6" class="node"><title>CompositeTransform</title>
<g id="a_node6"><a xlink:href="../api/astropy.visualization.CompositeTransform.html#astropy.visualization.CompositeTransform" xlink:title="A combination of two transforms.">
<polygon fill="none" stroke="black" stroke-width="0.5" points="231,-38 121,-38 121,-19 231,-19 231,-38"/>
<text text-anchor="middle" x="176" y="-26" font-family="Vera Sans, DejaVu Sans, Liberation Sans, Arial, Helvetica, sans" font-size="10.00">CompositeTransform</text>
</a>
</g>
</g>
<!-- BaseTransform&#45;&gt;CompositeTransform -->
<g id="edge5" class="edge"><title>BaseTransform&#45;&gt;CompositeTransform</title>
<path fill="none" stroke="black" stroke-width="0.5" d="M77.3645,-55.9716C95.1716,-50.9612 117.096,-44.7924 135.654,-39.5707"/>
<polygon fill="black" stroke="black" stroke-width="0.5" points="136.454,-41.1636 140.793,-38.1247 135.506,-37.7945 136.454,-41.1636"/>
</g>
<!-- SquaredStretch -->
<g id="node18" class="node"><title>SquaredStretch</title>
<g id="a_node18"><a xlink:href="../api/astropy.visualization.SquaredStretch.html#astropy.visualization.SquaredStretch" xlink:title="A convenience class for a power stretch of 2.">
<polygon fill="none" stroke="black" stroke-width="0.5" points="539,-204 453,-204 453,-185 539,-185 539,-204"/>
<text text-anchor="middle" x="496" y="-192" font-family="Vera Sans, DejaVu Sans, Liberation Sans, Arial, Helvetica, sans" font-size="10.00">SquaredStretch</text>
</a>
</g>
</g>
<!-- PowerStretch&#45;&gt;SquaredStretch -->
<g id="edge17" class="edge"><title>PowerStretch&#45;&gt;SquaredStretch</title>
<path fill="none" stroke="black" stroke-width="0.5" d="M378.673,-194.5C399.447,-194.5 425.441,-194.5 447.586,-194.5"/>
<polygon fill="black" stroke="black" stroke-width="0.5" points="447.833,-196.25 452.833,-194.5 447.833,-192.75 447.833,-196.25"/>
</g>
</g>
</svg>
