<?xml version="1.0" encoding="UTF-8" standalone="no"?>
<!DOCTYPE svg PUBLIC "-//W3C//DTD SVG 1.1//EN"
 "http://www.w3.org/Graphics/SVG/1.1/DTD/svg11.dtd">
<!-- Generated by graphviz version 2.38.0 (20140413.2041)
 -->
<!-- Title: inheritance8c2e51a893 Pages: 1 -->
<svg width="369pt" height="138pt"
 viewBox="0.00 0.00 369.00 138.00" xmlns="http://www.w3.org/2000/svg" xmlns:xlink="http://www.w3.org/1999/xlink">
<g id="graph0" class="graph" transform="scale(1 1) rotate(0) translate(4 134)">
<title>inheritance8c2e51a893</title>
<polygon fill="white" stroke="none" points="-4,4 -4,-134 365,-134 365,4 -4,4"/>
<!-- BaseVOError -->
<g id="node1" class="node"><title>BaseVOError</title>
<g id="a_node1"><a xlink:href="../../../api/astropy.vo.client.exceptions.BaseVOError.html#astropy.vo.client.exceptions.BaseVOError" xlink:title="Base class for VO exceptions." target="_top">
<polygon fill="none" stroke="black" stroke-width="0.5" points="76,-92 0,-92 0,-73 76,-73 76,-92"/>
<text text-anchor="middle" x="38" y="-80" font-family="Vera Sans, DejaVu Sans, Liberation Sans, Arial, Helvetica, sans" font-size="10.00">BaseVOError</text>
</a>
</g>
</g>
<!-- ConeSearchError -->
<g id="node2" class="node"><title>ConeSearchError</title>
<g id="a_node2"><a xlink:href="../../../api/astropy.vo.client.exceptions.ConeSearchError.html#astropy.vo.client.exceptions.ConeSearchError" xlink:title="General Cone Search exception." target="_top">
<polygon fill="none" stroke="black" stroke-width="0.5" points="206,-111 112,-111 112,-92 206,-92 206,-111"/>
<text text-anchor="middle" x="159" y="-99" font-family="Vera Sans, DejaVu Sans, Liberation Sans, Arial, Helvetica, sans" font-size="10.00">ConeSearchError</text>
</a>
</g>
</g>
<!-- BaseVOError&#45;&gt;ConeSearchError -->
<g id="edge1" class="edge"><title>BaseVOError&#45;&gt;ConeSearchError</title>
<path fill="none" stroke="black" stroke-width="0.5" d="M76,-88.4076C85.7332,-89.9616 96.4084,-91.666 106.745,-93.3164"/>
<polygon fill="black" stroke="black" stroke-width="0.5" points="106.573,-95.0611 111.787,-94.1214 107.125,-91.6049 106.573,-95.0611"/>
</g>
<!-- VOSError -->
<g id="node4" class="node"><title>VOSError</title>
<g id="a_node4"><a xlink:href="../../../api/astropy.vo.client.exceptions.VOSError.html#astropy.vo.client.exceptions.VOSError" xlink:title="General VO service exception." target="_top">
<polygon fill="none" stroke="black" stroke-width="0.5" points="189,-74 129,-74 129,-55 189,-55 189,-74"/>
<text text-anchor="middle" x="159" y="-62" font-family="Vera Sans, DejaVu Sans, Liberation Sans, Arial, Helvetica, sans" font-size="10.00">VOSError</text>
</a>
</g>
</g>
<!-- BaseVOError&#45;&gt;VOSError -->
<g id="edge6" class="edge"><title>BaseVOError&#45;&gt;VOSError</title>
<path fill="none" stroke="black" stroke-width="0.5" d="M76,-76.9034C91.3247,-74.5853 108.985,-71.9141 123.982,-69.6456"/>
<polygon fill="black" stroke="black" stroke-width="0.5" points="124.276,-71.3711 128.958,-68.8929 123.753,-67.9104 124.276,-71.3711"/>
</g>
<!-- DuplicateCatalogName -->
<g id="node3" class="node"><title>DuplicateCatalogName</title>
<g id="a_node3"><a xlink:href="../../../api/astropy.vo.client.exceptions.DuplicateCatalogName.html#astropy.vo.client.exceptions.DuplicateCatalogName" xlink:title="VO catalog of the same title already exists." target="_top">
<polygon fill="none" stroke="black" stroke-width="0.5" points="361,-130 242,-130 242,-111 361,-111 361,-130"/>
<text text-anchor="middle" x="301.5" y="-118" font-family="Vera Sans, DejaVu Sans, Liberation Sans, Arial, Helvetica, sans" font-size="10.00">DuplicateCatalogName</text>
</a>
</g>
</g>
<!-- VOSError&#45;&gt;DuplicateCatalogName -->
<g id="edge2" class="edge"><title>VOSError&#45;&gt;DuplicateCatalogName</title>
<path fill="none" stroke="black" stroke-width="0.5" d="M184.537,-74.1357C191.53,-77.0162 199.116,-80.2705 206,-83.5 222.379,-91.184 225.281,-95.5873 242,-102.5 248.025,-104.991 254.523,-107.322 260.921,-109.427"/>
<polygon fill="black" stroke="black" stroke-width="0.5" points="260.488,-111.126 265.784,-110.991 261.56,-107.794 260.488,-111.126"/>
</g>
<!-- DuplicateCatalogURL -->
<g id="node5" class="node"><title>DuplicateCatalogURL</title>
<g id="a_node5"><a xlink:href="../../../api/astropy.vo.client.exceptions.DuplicateCatalogURL.html#astropy.vo.client.exceptions.DuplicateCatalogURL" xlink:title="VO catalog of the same access URL already exists." target="_top">
<polygon fill="none" stroke="black" stroke-width="0.5" points="358,-93 245,-93 245,-74 358,-74 358,-93"/>
<text text-anchor="middle" x="301.5" y="-81" font-family="Vera Sans, DejaVu Sans, Liberation Sans, Arial, Helvetica, sans" font-size="10.00">DuplicateCatalogURL</text>
</a>
</g>
</g>
<!-- VOSError&#45;&gt;DuplicateCatalogURL -->
<g id="edge3" class="edge"><title>VOSError&#45;&gt;DuplicateCatalogURL</title>
<path fill="none" stroke="black" stroke-width="0.5" d="M189.112,-68.4368C203.68,-70.4069 221.893,-72.8699 239.344,-75.2298"/>
<polygon fill="black" stroke="black" stroke-width="0.5" points="239.542,-77.0224 244.731,-75.9583 240.011,-73.5539 239.542,-77.0224"/>
</g>
<!-- InvalidAccessURL -->
<g id="node6" class="node"><title>InvalidAccessURL</title>
<g id="a_node6"><a xlink:href="../../../api/astropy.vo.client.exceptions.InvalidAccessURL.html#astropy.vo.client.exceptions.InvalidAccessURL" xlink:title="Invalid access URL." target="_top">
<polygon fill="none" stroke="black" stroke-width="0.5" points="350.5,-56 252.5,-56 252.5,-37 350.5,-37 350.5,-56"/>
<text text-anchor="middle" x="301.5" y="-44" font-family="Vera Sans, DejaVu Sans, Liberation Sans, Arial, Helvetica, sans" font-size="10.00">InvalidAccessURL</text>
</a>
</g>
</g>
<!-- VOSError&#45;&gt;InvalidAccessURL -->
<g id="edge4" class="edge"><title>VOSError&#45;&gt;InvalidAccessURL</title>
<path fill="none" stroke="black" stroke-width="0.5" d="M189.112,-60.7704C205.932,-58.6155 227.61,-55.8382 247.366,-53.3072"/>
<polygon fill="black" stroke="black" stroke-width="0.5" points="247.606,-55.0409 252.343,-52.6696 247.161,-51.5692 247.606,-55.0409"/>
</g>
<!-- MissingCatalog -->
<g id="node7" class="node"><title>MissingCatalog</title>
<g id="a_node7"><a xlink:href="../../../api/astropy.vo.client.exceptions.MissingCatalog.html#astropy.vo.client.exceptions.MissingCatalog" xlink:title="VO catalog is missing." target="_top">
<polygon fill="none" stroke="black" stroke-width="0.5" points="344,-19 259,-19 259,-0 344,-0 344,-19"/>
<text text-anchor="middle" x="301.5" y="-7" font-family="Vera Sans, DejaVu Sans, Liberation Sans, Arial, Helvetica, sans" font-size="10.00">MissingCatalog</text>
</a>
</g>
</g>
<!-- VOSError&#45;&gt;MissingCatalog -->
<g id="edge5" class="edge"><title>VOSError&#45;&gt;MissingCatalog</title>
<path fill="none" stroke="black" stroke-width="0.5" d="M180.322,-54.9021C196.774,-47.2966 220.641,-36.6338 242,-28.5 249.054,-25.8136 256.673,-23.1622 264.007,-20.7311"/>
<polygon fill="black" stroke="black" stroke-width="0.5" points="264.822,-22.3057 269.028,-19.0856 263.732,-18.9798 264.822,-22.3057"/>
</g>
</g>
</svg>
