<?xml version="1.0" encoding="UTF-8" standalone="no"?>
<!DOCTYPE svg PUBLIC "-//W3C//DTD SVG 1.1//EN"
 "http://www.w3.org/Graphics/SVG/1.1/DTD/svg11.dtd">
<!-- Generated by graphviz version 2.38.0 (20140413.2041)
 -->
<!-- Title: inheritancead6d126c6f Pages: 1 -->
<svg width="305pt" height="174pt"
 viewBox="0.00 0.00 305.00 174.00" xmlns="http://www.w3.org/2000/svg" xmlns:xlink="http://www.w3.org/1999/xlink">
<g id="graph0" class="graph" transform="scale(1 1) rotate(0) translate(4 170)">
<title>inheritancead6d126c6f</title>
<polygon fill="white" stroke="none" points="-4,4 -4,-170 301,-170 301,4 -4,4"/>
<!-- AstropyWarning -->
<g id="node1" class="node"><title>AstropyWarning</title>
<g id="a_node1"><a xlink:href="../api/astropy.utils.exceptions.AstropyWarning.html#astropy.utils.exceptions.AstropyWarning" xlink:title="The base warning class from which all Astropy warnings should inherit.">
<polygon fill="none" stroke="black" stroke-width="0.5" points="93.5,-37 5.5,-37 5.5,-18 93.5,-18 93.5,-37"/>
<text text-anchor="middle" x="49.5" y="-25" font-family="Vera Sans, DejaVu Sans, Liberation Sans, Arial, Helvetica, sans" font-size="10.00">AstropyWarning</text>
</a>
</g>
</g>
<!-- ConfigurationMissingWarning -->
<g id="node4" class="node"><title>ConfigurationMissingWarning</title>
<g id="a_node4"><a xlink:href="../api/astropy.config.ConfigurationMissingWarning.html#astropy.config.ConfigurationMissingWarning" xlink:title="A Warning that is issued when the configuration directory cannot be">
<polygon fill="none" stroke="black" stroke-width="0.5" points="289.5,-56 142.5,-56 142.5,-37 289.5,-37 289.5,-56"/>
<text text-anchor="middle" x="216" y="-44" font-family="Vera Sans, DejaVu Sans, Liberation Sans, Arial, Helvetica, sans" font-size="10.00">ConfigurationMissingWarning</text>
</a>
</g>
</g>
<!-- AstropyWarning&#45;&gt;ConfigurationMissingWarning -->
<g id="edge1" class="edge"><title>AstropyWarning&#45;&gt;ConfigurationMissingWarning</title>
<path fill="none" stroke="black" stroke-width="0.5" d="M93.7204,-32.492C107.148,-34.0429 122.382,-35.8024 137.408,-37.538"/>
<polygon fill="black" stroke="black" stroke-width="0.5" points="137.325,-39.2899 142.493,-38.1253 137.726,-35.8131 137.325,-39.2899"/>
</g>
<!-- InvalidConfigurationItemWarning -->
<g id="node5" class="node"><title>InvalidConfigurationItemWarning</title>
<g id="a_node5"><a xlink:href="../api/astropy.config.InvalidConfigurationItemWarning.html#astropy.config.InvalidConfigurationItemWarning" xlink:title="A Warning that is issued when the configuration value specified in the">
<polygon fill="none" stroke="black" stroke-width="0.5" points="297,-19 135,-19 135,-0 297,-0 297,-19"/>
<text text-anchor="middle" x="216" y="-7" font-family="Vera Sans, DejaVu Sans, Liberation Sans, Arial, Helvetica, sans" font-size="10.00">InvalidConfigurationItemWarning</text>
</a>
</g>
</g>
<!-- AstropyWarning&#45;&gt;InvalidConfigurationItemWarning -->
<g id="edge2" class="edge"><title>AstropyWarning&#45;&gt;InvalidConfigurationItemWarning</title>
<path fill="none" stroke="black" stroke-width="0.5" d="M93.7204,-22.7707C104.897,-21.5477 117.326,-20.1877 129.845,-18.8179"/>
<polygon fill="black" stroke="black" stroke-width="0.5" points="130.052,-20.5558 134.832,-18.2722 129.671,-17.0765 130.052,-20.5558"/>
</g>
<!-- ConfigItem -->
<g id="node2" class="node"><title>ConfigItem</title>
<g id="a_node2"><a xlink:href="../api/astropy.config.ConfigItem.html#astropy.config.ConfigItem" xlink:title="A setting and associated value stored in a configuration file.">
<polygon fill="none" stroke="black" stroke-width="0.5" points="82,-74 17,-74 17,-55 82,-55 82,-74"/>
<text text-anchor="middle" x="49.5" y="-62" font-family="Vera Sans, DejaVu Sans, Liberation Sans, Arial, Helvetica, sans" font-size="10.00">ConfigItem</text>
</a>
</g>
</g>
<!-- ConfigNamespace -->
<g id="node3" class="node"><title>ConfigNamespace</title>
<g id="a_node3"><a xlink:href="../api/astropy.config.ConfigNamespace.html#astropy.config.ConfigNamespace" xlink:title="A namespace of configuration items. &#160;Each subpackage with">
<polygon fill="none" stroke="black" stroke-width="0.5" points="99,-111 0,-111 0,-92 99,-92 99,-111"/>
<text text-anchor="middle" x="49.5" y="-99" font-family="Vera Sans, DejaVu Sans, Liberation Sans, Arial, Helvetica, sans" font-size="10.00">ConfigNamespace</text>
</a>
</g>
</g>
<!-- _SetTempPath -->
<g id="node6" class="node"><title>_SetTempPath</title>
<polygon fill="none" stroke="black" stroke-width="0.5" points="91,-148 8,-148 8,-129 91,-129 91,-148"/>
<text text-anchor="middle" x="49.5" y="-136" font-family="Vera Sans, DejaVu Sans, Liberation Sans, Arial, Helvetica, sans" font-size="10.00">_SetTempPath</text>
</g>
<!-- set_temp_cache -->
<g id="node7" class="node"><title>set_temp_cache</title>
<g id="a_node7"><a xlink:href="../api/astropy.config.set_temp_cache.html#astropy.config.set_temp_cache" xlink:title="Context manager to set a temporary path for the Astropy download cache,">
<polygon fill="none" stroke="black" stroke-width="0.5" points="261,-166 171,-166 171,-147 261,-147 261,-166"/>
<text text-anchor="middle" x="216" y="-154" font-family="Vera Sans, DejaVu Sans, Liberation Sans, Arial, Helvetica, sans" font-size="10.00">set_temp_cache</text>
</a>
</g>
</g>
<!-- _SetTempPath&#45;&gt;set_temp_cache -->
<g id="edge3" class="edge"><title>_SetTempPath&#45;&gt;set_temp_cache</title>
<path fill="none" stroke="black" stroke-width="0.5" d="M91.1629,-142.949C113.724,-145.418 141.951,-148.507 165.756,-151.112"/>
<polygon fill="black" stroke="black" stroke-width="0.5" points="165.604,-152.855 170.765,-151.66 165.985,-149.376 165.604,-152.855"/>
</g>
<!-- set_temp_config -->
<g id="node8" class="node"><title>set_temp_config</title>
<g id="a_node8"><a xlink:href="../api/astropy.config.set_temp_config.html#astropy.config.set_temp_config" xlink:title="Context manager to set a temporary path for the Astropy config, primarily">
<polygon fill="none" stroke="black" stroke-width="0.5" points="261,-129 171,-129 171,-110 261,-110 261,-129"/>
<text text-anchor="middle" x="216" y="-117" font-family="Vera Sans, DejaVu Sans, Liberation Sans, Arial, Helvetica, sans" font-size="10.00">set_temp_config</text>
</a>
</g>
</g>
<!-- _SetTempPath&#45;&gt;set_temp_config -->
<g id="edge4" class="edge"><title>_SetTempPath&#45;&gt;set_temp_config</title>
<path fill="none" stroke="black" stroke-width="0.5" d="M91.1629,-133.803C113.724,-131.197 141.951,-127.937 165.756,-125.188"/>
<polygon fill="black" stroke="black" stroke-width="0.5" points="165.999,-126.921 170.765,-124.609 165.597,-123.445 165.999,-126.921"/>
</g>
</g>
</svg>
