<?xml version="1.0" encoding="UTF-8" standalone="no"?>
<!DOCTYPE svg PUBLIC "-//W3C//DTD SVG 1.1//EN"
 "http://www.w3.org/Graphics/SVG/1.1/DTD/svg11.dtd">
<!-- Generated by graphviz version 2.38.0 (20140413.2041)
 -->
<!-- Title: inheritance54d1987e0c Pages: 1 -->
<svg width="389pt" height="434pt"
 viewBox="0.00 0.00 389.00 434.00" xmlns="http://www.w3.org/2000/svg" xmlns:xlink="http://www.w3.org/1999/xlink">
<g id="graph0" class="graph" transform="scale(1 1) rotate(0) translate(4 430)">
<title>inheritance54d1987e0c</title>
<polygon fill="white" stroke="none" points="-4,4 -4,-430 385,-430 385,4 -4,4"/>
<!-- AstropyWarning -->
<g id="node1" class="node"><title>AstropyWarning</title>
<g id="a_node1"><a xlink:href="../../api/astropy.utils.exceptions.AstropyWarning.html#astropy.utils.exceptions.AstropyWarning" xlink:title="The base warning class from which all Astropy warnings should inherit." target="_top">
<polygon fill="none" stroke="black" stroke-width="0.5" points="102.5,-19 14.5,-19 14.5,-0 102.5,-0 102.5,-19"/>
<text text-anchor="middle" x="58.5" y="-7" font-family="Vera Sans, DejaVu Sans, Liberation Sans, Arial, Helvetica, sans" font-size="10.00">AstropyWarning</text>
</a>
</g>
</g>
<!-- FITSFixedWarning -->
<g id="node3" class="node"><title>FITSFixedWarning</title>
<g id="a_node3"><a xlink:href="../../api/astropy.wcs.FITSFixedWarning.html#astropy.wcs.FITSFixedWarning" xlink:title="The warning raised when the contents of the FITS header have been" target="_top">
<polygon fill="none" stroke="black" stroke-width="0.5" points="317,-19 217,-19 217,-0 317,-0 317,-19"/>
<text text-anchor="middle" x="267" y="-7" font-family="Vera Sans, DejaVu Sans, Liberation Sans, Arial, Helvetica, sans" font-size="10.00">FITSFixedWarning</text>
</a>
</g>
</g>
<!-- AstropyWarning&#45;&gt;FITSFixedWarning -->
<g id="edge1" class="edge"><title>AstropyWarning&#45;&gt;FITSFixedWarning</title>
<path fill="none" stroke="black" stroke-width="0.5" d="M102.538,-9.5C134.178,-9.5 177.414,-9.5 211.473,-9.5"/>
<polygon fill="black" stroke="black" stroke-width="0.5" points="211.857,-11.2501 216.857,-9.5 211.857,-7.75009 211.857,-11.2501"/>
</g>
<!-- DistortionLookupTable -->
<g id="node2" class="node"><title>DistortionLookupTable</title>
<g id="a_node2"><a xlink:href="../../api/astropy.wcs.DistortionLookupTable.html#astropy.wcs.DistortionLookupTable" xlink:title="DistortionLookupTable(*table*, *crpix*, *crval*, *cdelt*)" target="_top">
<polygon fill="none" stroke="black" stroke-width="0.5" points="117,-111 7.10543e-15,-111 7.10543e-15,-92 117,-92 117,-111"/>
<text text-anchor="middle" x="58.5" y="-99" font-family="Vera Sans, DejaVu Sans, Liberation Sans, Arial, Helvetica, sans" font-size="10.00">DistortionLookupTable</text>
</a>
</g>
</g>
<!-- InconsistentAxisTypesError -->
<g id="node4" class="node"><title>InconsistentAxisTypesError</title>
<g id="a_node4"><a xlink:href="../../api/astropy.wcs.InconsistentAxisTypesError.html#astropy.wcs.InconsistentAxisTypesError" xlink:title="InconsistentAxisTypesError" target="_top">
<polygon fill="none" stroke="black" stroke-width="0.5" points="336,-352 198,-352 198,-333 336,-333 336,-352"/>
<text text-anchor="middle" x="267" y="-340" font-family="Vera Sans, DejaVu Sans, Liberation Sans, Arial, Helvetica, sans" font-size="10.00">InconsistentAxisTypesError</text>
</a>
</g>
</g>
<!-- WcsError -->
<g id="node5" class="node"><title>WcsError</title>
<g id="a_node5"><a xlink:href="../../api/astropy.wcs.WcsError.html#astropy.wcs.WcsError" xlink:title="WcsError" target="_top">
<polygon fill="none" stroke="black" stroke-width="0.5" points="87.5,-204 29.5,-204 29.5,-185 87.5,-185 87.5,-204"/>
<text text-anchor="middle" x="58.5" y="-192" font-family="Vera Sans, DejaVu Sans, Liberation Sans, Arial, Helvetica, sans" font-size="10.00">WcsError</text>
</a>
</g>
</g>
<!-- WcsError&#45;&gt;InconsistentAxisTypesError -->
<g id="edge2" class="edge"><title>WcsError&#45;&gt;InconsistentAxisTypesError</title>
<path fill="none" stroke="black" stroke-width="0.5" d="M80.7671,-204.022C92.7966,-210.331 107.321,-219.633 117,-231.5 145.013,-265.847 118.528,-296.64 153,-324.5 164.284,-333.619 178.326,-339 192.634,-342.034"/>
<polygon fill="black" stroke="black" stroke-width="0.5" points="192.672,-343.823 197.913,-343.048 193.333,-340.386 192.672,-343.823"/>
</g>
<!-- InvalidCoordinateError -->
<g id="node6" class="node"><title>InvalidCoordinateError</title>
<g id="a_node6"><a xlink:href="../../api/astropy.wcs.InvalidCoordinateError.html#astropy.wcs.InvalidCoordinateError" xlink:title="InvalidCoordinateError" target="_top">
<polygon fill="none" stroke="black" stroke-width="0.5" points="325.5,-315 208.5,-315 208.5,-296 325.5,-296 325.5,-315"/>
<text text-anchor="middle" x="267" y="-303" font-family="Vera Sans, DejaVu Sans, Liberation Sans, Arial, Helvetica, sans" font-size="10.00">InvalidCoordinateError</text>
</a>
</g>
</g>
<!-- WcsError&#45;&gt;InvalidCoordinateError -->
<g id="edge3" class="edge"><title>WcsError&#45;&gt;InvalidCoordinateError</title>
<path fill="none" stroke="black" stroke-width="0.5" d="M78.5681,-204.035C90.5275,-210.64 105.755,-220.25 117,-231.5 137.917,-252.427 128.23,-271.317 153,-287.5 167.695,-297.101 185.707,-302.218 202.997,-304.804"/>
<polygon fill="black" stroke="black" stroke-width="0.5" points="203.145,-306.59 208.335,-305.527 203.615,-303.121 203.145,-306.59"/>
</g>
<!-- InvalidSubimageSpecificationError -->
<g id="node7" class="node"><title>InvalidSubimageSpecificationError</title>
<g id="a_node7"><a xlink:href="../../api/astropy.wcs.InvalidSubimageSpecificationError.html#astropy.wcs.InvalidSubimageSpecificationError" xlink:title="InvalidSubimageSpecificationError" target="_top">
<polygon fill="none" stroke="black" stroke-width="0.5" points="351.5,-278 182.5,-278 182.5,-259 351.5,-259 351.5,-278"/>
<text text-anchor="middle" x="267" y="-266" font-family="Vera Sans, DejaVu Sans, Liberation Sans, Arial, Helvetica, sans" font-size="10.00">InvalidSubimageSpecificationError</text>
</a>
</g>
</g>
<!-- WcsError&#45;&gt;InvalidSubimageSpecificationError -->
<g id="edge4" class="edge"><title>WcsError&#45;&gt;InvalidSubimageSpecificationError</title>
<path fill="none" stroke="black" stroke-width="0.5" d="M74.0035,-204.12C95.942,-218.509 136.729,-244.583 153,-250.5 160.808,-253.339 169.08,-255.731 177.456,-257.746"/>
<polygon fill="black" stroke="black" stroke-width="0.5" points="177.417,-259.533 182.682,-258.953 178.204,-256.123 177.417,-259.533"/>
</g>
<!-- InvalidTabularParametersError -->
<g id="node8" class="node"><title>InvalidTabularParametersError</title>
<g id="a_node8"><a xlink:href="../../api/astropy.wcs.InvalidTabularParametersError.html#astropy.wcs.InvalidTabularParametersError" xlink:title="InvalidTabularParametersError" target="_top">
<polygon fill="none" stroke="black" stroke-width="0.5" points="343.5,-241 190.5,-241 190.5,-222 343.5,-222 343.5,-241"/>
<text text-anchor="middle" x="267" y="-229" font-family="Vera Sans, DejaVu Sans, Liberation Sans, Arial, Helvetica, sans" font-size="10.00">InvalidTabularParametersError</text>
</a>
</g>
</g>
<!-- WcsError&#45;&gt;InvalidTabularParametersError -->
<g id="edge5" class="edge"><title>WcsError&#45;&gt;InvalidTabularParametersError</title>
<path fill="none" stroke="black" stroke-width="0.5" d="M87.6717,-200.55C106.198,-204.448 130.996,-209.514 153,-213.5 167.576,-216.141 183.249,-218.77 198.142,-221.171"/>
<polygon fill="black" stroke="black" stroke-width="0.5" points="197.946,-222.912 203.16,-221.976 198.501,-219.456 197.946,-222.912"/>
</g>
<!-- InvalidTransformError -->
<g id="node9" class="node"><title>InvalidTransformError</title>
<g id="a_node9"><a xlink:href="../../api/astropy.wcs.InvalidTransformError.html#astropy.wcs.InvalidTransformError" xlink:title="InvalidTransformError" target="_top">
<polygon fill="none" stroke="black" stroke-width="0.5" points="323.5,-204 210.5,-204 210.5,-185 323.5,-185 323.5,-204"/>
<text text-anchor="middle" x="267" y="-192" font-family="Vera Sans, DejaVu Sans, Liberation Sans, Arial, Helvetica, sans" font-size="10.00">InvalidTransformError</text>
</a>
</g>
</g>
<!-- WcsError&#45;&gt;InvalidTransformError -->
<g id="edge6" class="edge"><title>WcsError&#45;&gt;InvalidTransformError</title>
<path fill="none" stroke="black" stroke-width="0.5" d="M87.78,-194.5C117.802,-194.5 166.173,-194.5 204.951,-194.5"/>
<polygon fill="black" stroke="black" stroke-width="0.5" points="205.114,-196.25 210.114,-194.5 205.114,-192.75 205.114,-196.25"/>
</g>
<!-- NoSolutionError -->
<g id="node10" class="node"><title>NoSolutionError</title>
<g id="a_node10"><a xlink:href="../../api/astropy.wcs.NoSolutionError.html#astropy.wcs.NoSolutionError" xlink:title="NoSolutionError" target="_top">
<polygon fill="none" stroke="black" stroke-width="0.5" points="311,-167 223,-167 223,-148 311,-148 311,-167"/>
<text text-anchor="middle" x="267" y="-155" font-family="Vera Sans, DejaVu Sans, Liberation Sans, Arial, Helvetica, sans" font-size="10.00">NoSolutionError</text>
</a>
</g>
</g>
<!-- WcsError&#45;&gt;NoSolutionError -->
<g id="edge7" class="edge"><title>WcsError&#45;&gt;NoSolutionError</title>
<path fill="none" stroke="black" stroke-width="0.5" d="M87.6717,-188.45C106.198,-184.552 130.996,-179.486 153,-175.5 174.174,-171.664 197.66,-167.852 217.711,-164.73"/>
<polygon fill="black" stroke="black" stroke-width="0.5" points="218.059,-166.447 222.731,-163.951 217.522,-162.988 218.059,-166.447"/>
</g>
<!-- NoWcsKeywordsFoundError -->
<g id="node11" class="node"><title>NoWcsKeywordsFoundError</title>
<g id="a_node11"><a xlink:href="../../api/astropy.wcs.NoWcsKeywordsFoundError.html#astropy.wcs.NoWcsKeywordsFoundError" xlink:title="NoWcsKeywordsFoundError" target="_top">
<polygon fill="none" stroke="black" stroke-width="0.5" points="338.5,-130 195.5,-130 195.5,-111 338.5,-111 338.5,-130"/>
<text text-anchor="middle" x="267" y="-118" font-family="Vera Sans, DejaVu Sans, Liberation Sans, Arial, Helvetica, sans" font-size="10.00">NoWcsKeywordsFoundError</text>
</a>
</g>
</g>
<!-- WcsError&#45;&gt;NoWcsKeywordsFoundError -->
<g id="edge8" class="edge"><title>WcsError&#45;&gt;NoWcsKeywordsFoundError</title>
<path fill="none" stroke="black" stroke-width="0.5" d="M72.0169,-184.846C89.2464,-172.082 121.704,-149.881 153,-138.5 164.784,-134.214 177.627,-130.948 190.29,-128.459"/>
<polygon fill="black" stroke="black" stroke-width="0.5" points="190.733,-130.156 195.321,-127.508 190.082,-126.717 190.733,-130.156"/>
</g>
<!-- NonseparableSubimageCoordinateSystemError -->
<g id="node12" class="node"><title>NonseparableSubimageCoordinateSystemError</title>
<g id="a_node12"><a xlink:href="../../api/astropy.wcs.NonseparableSubimageCoordinateSystemError.html#astropy.wcs.NonseparableSubimageCoordinateSystemError" xlink:title="NonseparableSubimageCoordinateSystemError" target="_top">
<polygon fill="none" stroke="black" stroke-width="0.5" points="381,-93 153,-93 153,-74 381,-74 381,-93"/>
<text text-anchor="middle" x="267" y="-81" font-family="Vera Sans, DejaVu Sans, Liberation Sans, Arial, Helvetica, sans" font-size="10.00">NonseparableSubimageCoordinateSystemError</text>
</a>
</g>
</g>
<!-- WcsError&#45;&gt;NonseparableSubimageCoordinateSystemError -->
<g id="edge9" class="edge"><title>WcsError&#45;&gt;NonseparableSubimageCoordinateSystemError</title>
<path fill="none" stroke="black" stroke-width="0.5" d="M65.9087,-184.92C79.4412,-165.548 112.998,-121.837 153,-101.5 158.188,-98.8625 163.668,-96.5929 169.307,-94.6415"/>
<polygon fill="black" stroke="black" stroke-width="0.5" points="169.872,-96.298 174.077,-93.0762 168.78,-92.9725 169.872,-96.298"/>
</g>
<!-- SingularMatrixError -->
<g id="node13" class="node"><title>SingularMatrixError</title>
<g id="a_node13"><a xlink:href="../../api/astropy.wcs.SingularMatrixError.html#astropy.wcs.SingularMatrixError" xlink:title="SingularMatrixError" target="_top">
<polygon fill="none" stroke="black" stroke-width="0.5" points="318.5,-56 215.5,-56 215.5,-37 318.5,-37 318.5,-56"/>
<text text-anchor="middle" x="267" y="-44" font-family="Vera Sans, DejaVu Sans, Liberation Sans, Arial, Helvetica, sans" font-size="10.00">SingularMatrixError</text>
</a>
</g>
</g>
<!-- WcsError&#45;&gt;SingularMatrixError -->
<g id="edge10" class="edge"><title>WcsError&#45;&gt;SingularMatrixError</title>
<path fill="none" stroke="black" stroke-width="0.5" d="M67.1774,-184.964C78.4297,-170.883 99.9168,-143.591 117,-119.5 133.899,-95.6685 128.476,-80.3784 153,-64.5 169.69,-53.6935 190.603,-48.5856 209.885,-46.3723"/>
<polygon fill="black" stroke="black" stroke-width="0.5" points="210.479,-48.0709 215.275,-45.8224 210.124,-44.5889 210.479,-48.0709"/>
</g>
<!-- Sip -->
<g id="node14" class="node"><title>Sip</title>
<g id="a_node14"><a xlink:href="../../api/astropy.wcs.Sip.html#astropy.wcs.Sip" xlink:title="Sip(*a, b, ap, bp, crpix*)" target="_top">
<polygon fill="none" stroke="black" stroke-width="0.5" points="85.5,-259 31.5,-259 31.5,-240 85.5,-240 85.5,-259"/>
<text text-anchor="middle" x="58.5" y="-247" font-family="Vera Sans, DejaVu Sans, Liberation Sans, Arial, Helvetica, sans" font-size="10.00">Sip</text>
</a>
</g>
</g>
<!-- Tabprm -->
<g id="node15" class="node"><title>Tabprm</title>
<g id="a_node15"><a xlink:href="../../api/astropy.wcs.Tabprm.html#astropy.wcs.Tabprm" xlink:title="A class to store the information related to tabular coordinates," target="_top">
<polygon fill="none" stroke="black" stroke-width="0.5" points="85.5,-333 31.5,-333 31.5,-314 85.5,-314 85.5,-333"/>
<text text-anchor="middle" x="58.5" y="-321" font-family="Vera Sans, DejaVu Sans, Liberation Sans, Arial, Helvetica, sans" font-size="10.00">Tabprm</text>
</a>
</g>
</g>
<!-- WCS -->
<g id="node16" class="node"><title>WCS</title>
<g id="a_node16"><a xlink:href="../../api/astropy.wcs.WCS.html#astropy.wcs.WCS" xlink:title="WCS objects perform standard WCS transformations, and correct for" target="_top">
<polygon fill="none" stroke="black" stroke-width="0.5" points="294,-389 240,-389 240,-370 294,-370 294,-389"/>
<text text-anchor="middle" x="267" y="-377" font-family="Vera Sans, DejaVu Sans, Liberation Sans, Arial, Helvetica, sans" font-size="10.00">WCS</text>
</a>
</g>
</g>
<!-- WCSBase -->
<g id="node17" class="node"><title>WCSBase</title>
<g id="a_node17"><a xlink:href="../../api/astropy.wcs.WCSBase.html#astropy.wcs.WCSBase" xlink:title="Wcs(*sip, cpdis, wcsprm, det2im*)" target="_top">
<polygon fill="none" stroke="black" stroke-width="0.5" points="90,-389 27,-389 27,-370 90,-370 90,-389"/>
<text text-anchor="middle" x="58.5" y="-377" font-family="Vera Sans, DejaVu Sans, Liberation Sans, Arial, Helvetica, sans" font-size="10.00">WCSBase</text>
</a>
</g>
</g>
<!-- WCSBase&#45;&gt;WCS -->
<g id="edge11" class="edge"><title>WCSBase&#45;&gt;WCS</title>
<path fill="none" stroke="black" stroke-width="0.5" d="M90.4151,-379.5C129.287,-379.5 195.648,-379.5 234.7,-379.5"/>
<polygon fill="black" stroke="black" stroke-width="0.5" points="234.79,-381.25 239.79,-379.5 234.79,-377.75 234.79,-381.25"/>
</g>
<!-- Wcsprm -->
<g id="node18" class="node"><title>Wcsprm</title>
<g id="a_node18"><a xlink:href="../../api/astropy.wcs.Wcsprm.html#astropy.wcs.Wcsprm" xlink:title="Wcsprm(header=None, key=&#39; &#39;, relax=False, naxis=2, keysel=0, colsel=None)" target="_top">
<polygon fill="none" stroke="black" stroke-width="0.5" points="85.5,-426 31.5,-426 31.5,-407 85.5,-407 85.5,-426"/>
<text text-anchor="middle" x="58.5" y="-414" font-family="Vera Sans, DejaVu Sans, Liberation Sans, Arial, Helvetica, sans" font-size="10.00">Wcsprm</text>
</a>
</g>
</g>
</g>
</svg>
