<?xml version="1.0" encoding="UTF-8" standalone="no"?>
<!DOCTYPE svg PUBLIC "-//W3C//DTD SVG 1.1//EN"
 "http://www.w3.org/Graphics/SVG/1.1/DTD/svg11.dtd">
<!-- Generated by graphviz version 2.38.0 (20140413.2041)
 -->
<!-- Title: inheritance90bd7dc3ea Pages: 1 -->
<svg width="491pt" height="138pt"
 viewBox="0.00 0.00 491.00 138.00" xmlns="http://www.w3.org/2000/svg" xmlns:xlink="http://www.w3.org/1999/xlink">
<g id="graph0" class="graph" transform="scale(1 1) rotate(0) translate(4 134)">
<title>inheritance90bd7dc3ea</title>
<polygon fill="white" stroke="none" points="-4,4 -4,-134 487,-134 487,4 -4,4"/>
<!-- BrokenPowerLaw1D -->
<g id="node1" class="node"><title>BrokenPowerLaw1D</title>
<g id="a_node1"><a xlink:href="../api/astropy.modeling.powerlaws.BrokenPowerLaw1D.html#astropy.modeling.powerlaws.BrokenPowerLaw1D" xlink:title="One dimensional power law model with a break.">
<polygon fill="none" stroke="black" stroke-width="0.5" points="459.5,-130 351.5,-130 351.5,-111 459.5,-111 459.5,-130"/>
<text text-anchor="middle" x="405.5" y="-118" font-family="Vera Sans, DejaVu Sans, Liberation Sans, Arial, Helvetica, sans" font-size="10.00">BrokenPowerLaw1D</text>
</a>
</g>
</g>
<!-- Fittable1DModel -->
<g id="node2" class="node"><title>Fittable1DModel</title>
<g id="a_node2"><a xlink:href="../api/astropy.modeling.Fittable1DModel.html#astropy.modeling.Fittable1DModel" xlink:title="Base class for one&#45;dimensional fittable models.">
<polygon fill="none" stroke="black" stroke-width="0.5" points="292,-74 203,-74 203,-55 292,-55 292,-74"/>
<text text-anchor="middle" x="247.5" y="-62" font-family="Vera Sans, DejaVu Sans, Liberation Sans, Arial, Helvetica, sans" font-size="10.00">Fittable1DModel</text>
</a>
</g>
</g>
<!-- Fittable1DModel&#45;&gt;BrokenPowerLaw1D -->
<g id="edge1" class="edge"><title>Fittable1DModel&#45;&gt;BrokenPowerLaw1D</title>
<path fill="none" stroke="black" stroke-width="0.5" d="M265.722,-74.0649C281.523,-82.5148 305.778,-94.6772 328,-102.5 335.567,-105.164 343.694,-107.554 351.723,-109.655"/>
<polygon fill="black" stroke="black" stroke-width="0.5" points="351.427,-111.385 356.705,-110.925 352.293,-107.994 351.427,-111.385"/>
</g>
<!-- ExponentialCutoffPowerLaw1D -->
<g id="node3" class="node"><title>ExponentialCutoffPowerLaw1D</title>
<g id="a_node3"><a xlink:href="../api/astropy.modeling.powerlaws.ExponentialCutoffPowerLaw1D.html#astropy.modeling.powerlaws.ExponentialCutoffPowerLaw1D" xlink:title="One dimensional power law model with an exponential cutoff.">
<polygon fill="none" stroke="black" stroke-width="0.5" points="483,-93 328,-93 328,-74 483,-74 483,-93"/>
<text text-anchor="middle" x="405.5" y="-81" font-family="Vera Sans, DejaVu Sans, Liberation Sans, Arial, Helvetica, sans" font-size="10.00">ExponentialCutoffPowerLaw1D</text>
</a>
</g>
</g>
<!-- Fittable1DModel&#45;&gt;ExponentialCutoffPowerLaw1D -->
<g id="edge2" class="edge"><title>Fittable1DModel&#45;&gt;ExponentialCutoffPowerLaw1D</title>
<path fill="none" stroke="black" stroke-width="0.5" d="M292.37,-69.8431C301.896,-71.0033 312.268,-72.2666 322.73,-73.5408"/>
<polygon fill="black" stroke="black" stroke-width="0.5" points="322.695,-75.2994 327.87,-74.1669 323.118,-71.8251 322.695,-75.2994"/>
</g>
<!-- LogParabola1D -->
<g id="node6" class="node"><title>LogParabola1D</title>
<g id="a_node6"><a xlink:href="../api/astropy.modeling.powerlaws.LogParabola1D.html#astropy.modeling.powerlaws.LogParabola1D" xlink:title="One dimensional log parabola model (sometimes called curved power law).">
<polygon fill="none" stroke="black" stroke-width="0.5" points="448.5,-56 362.5,-56 362.5,-37 448.5,-37 448.5,-56"/>
<text text-anchor="middle" x="405.5" y="-44" font-family="Vera Sans, DejaVu Sans, Liberation Sans, Arial, Helvetica, sans" font-size="10.00">LogParabola1D</text>
</a>
</g>
</g>
<!-- Fittable1DModel&#45;&gt;LogParabola1D -->
<g id="edge5" class="edge"><title>Fittable1DModel&#45;&gt;LogParabola1D</title>
<path fill="none" stroke="black" stroke-width="0.5" d="M292.37,-59.4381C312.558,-57.1087 336.546,-54.3409 357.143,-51.9642"/>
<polygon fill="black" stroke="black" stroke-width="0.5" points="357.536,-53.6806 362.303,-51.3689 357.135,-50.2037 357.536,-53.6806"/>
</g>
<!-- PowerLaw1D -->
<g id="node7" class="node"><title>PowerLaw1D</title>
<g id="a_node7"><a xlink:href="../api/astropy.modeling.powerlaws.PowerLaw1D.html#astropy.modeling.powerlaws.PowerLaw1D" xlink:title="One dimensional power law model.">
<polygon fill="none" stroke="black" stroke-width="0.5" points="443.5,-19 367.5,-19 367.5,-0 443.5,-0 443.5,-19"/>
<text text-anchor="middle" x="405.5" y="-7" font-family="Vera Sans, DejaVu Sans, Liberation Sans, Arial, Helvetica, sans" font-size="10.00">PowerLaw1D</text>
</a>
</g>
</g>
<!-- Fittable1DModel&#45;&gt;PowerLaw1D -->
<g id="edge6" class="edge"><title>Fittable1DModel&#45;&gt;PowerLaw1D</title>
<path fill="none" stroke="black" stroke-width="0.5" d="M266.375,-54.8909C282.207,-46.6958 306.134,-35.0715 328,-27.5 338.957,-23.706 351.07,-20.4473 362.364,-17.7867"/>
<polygon fill="black" stroke="black" stroke-width="0.5" points="363.008,-19.4341 367.488,-16.6065 362.223,-16.0234 363.008,-19.4341"/>
</g>
<!-- FittableModel -->
<g id="node4" class="node"><title>FittableModel</title>
<g id="a_node4"><a xlink:href="../api/astropy.modeling.FittableModel.html#astropy.modeling.FittableModel" xlink:title="Base class for models that can be fitted using the built&#45;in fitting">
<polygon fill="none" stroke="black" stroke-width="0.5" points="167,-74 90,-74 90,-55 167,-55 167,-74"/>
<text text-anchor="middle" x="128.5" y="-62" font-family="Vera Sans, DejaVu Sans, Liberation Sans, Arial, Helvetica, sans" font-size="10.00">FittableModel</text>
</a>
</g>
</g>
<!-- FittableModel&#45;&gt;Fittable1DModel -->
<g id="edge3" class="edge"><title>FittableModel&#45;&gt;Fittable1DModel</title>
<path fill="none" stroke="black" stroke-width="0.5" d="M167.164,-64.5C176.834,-64.5 187.379,-64.5 197.53,-64.5"/>
<polygon fill="black" stroke="black" stroke-width="0.5" points="197.796,-66.2501 202.796,-64.5 197.796,-62.7501 197.796,-66.2501"/>
</g>
<!-- Model -->
<g id="node5" class="node"><title>Model</title>
<g id="a_node5"><a xlink:href="../api/astropy.modeling.Model.html#astropy.modeling.Model" xlink:title="Base class for all models.">
<polygon fill="none" stroke="black" stroke-width="0.5" points="54,-74 0,-74 0,-55 54,-55 54,-74"/>
<text text-anchor="middle" x="27" y="-62" font-family="Vera Sans, DejaVu Sans, Liberation Sans, Arial, Helvetica, sans" font-size="10.00">Model</text>
</a>
</g>
</g>
<!-- Model&#45;&gt;FittableModel -->
<g id="edge4" class="edge"><title>Model&#45;&gt;FittableModel</title>
<path fill="none" stroke="black" stroke-width="0.5" d="M54.1425,-64.5C63.5439,-64.5 74.4096,-64.5 84.8495,-64.5"/>
<polygon fill="black" stroke="black" stroke-width="0.5" points="84.9321,-66.2501 89.9321,-64.5 84.932,-62.7501 84.9321,-66.2501"/>
</g>
</g>
</svg>
